G75*
%MOIN*%
%OFA0B0*%
%FSLAX25Y25*%
%IPPOS*%
%LPD*%
%AMOC8*
5,1,8,0,0,1.08239X$1,22.5*
%
%ADD10C,0.08274*%
%ADD11OC8,0.06400*%
%ADD12C,0.03500*%
%ADD13OC8,0.07000*%
%ADD14OC8,0.07400*%
%ADD15R,0.03400X0.05400*%
D10*
X0007800Y0007800D03*
X0007800Y0160800D03*
X0193800Y0160800D03*
X0193800Y0007800D03*
D11*
X0143800Y0013800D03*
X0133800Y0013800D03*
X0123800Y0013800D03*
X0113800Y0013800D03*
X0113800Y0026800D03*
X0123800Y0026800D03*
X0133800Y0026800D03*
X0143800Y0026800D03*
X0091800Y0026800D03*
X0081800Y0026800D03*
X0071800Y0026800D03*
X0061800Y0026800D03*
X0061800Y0013800D03*
X0071800Y0013800D03*
X0081800Y0013800D03*
X0091800Y0013800D03*
X0022800Y0082800D03*
X0012800Y0082800D03*
D12*
X0016219Y0135800D02*
X0016221Y0135879D01*
X0016227Y0135959D01*
X0016237Y0136038D01*
X0016251Y0136116D01*
X0016269Y0136193D01*
X0016290Y0136270D01*
X0016316Y0136345D01*
X0016345Y0136419D01*
X0016378Y0136491D01*
X0016415Y0136562D01*
X0016455Y0136630D01*
X0016498Y0136697D01*
X0016545Y0136761D01*
X0016595Y0136823D01*
X0016648Y0136882D01*
X0016703Y0136939D01*
X0016762Y0136992D01*
X0016823Y0137043D01*
X0016887Y0137091D01*
X0016953Y0137135D01*
X0017021Y0137176D01*
X0017091Y0137213D01*
X0017163Y0137247D01*
X0017237Y0137277D01*
X0017311Y0137304D01*
X0017388Y0137326D01*
X0017465Y0137345D01*
X0017543Y0137360D01*
X0017622Y0137371D01*
X0017701Y0137378D01*
X0017780Y0137381D01*
X0017860Y0137380D01*
X0017939Y0137375D01*
X0018018Y0137366D01*
X0018096Y0137353D01*
X0018174Y0137336D01*
X0018251Y0137315D01*
X0018326Y0137291D01*
X0018400Y0137263D01*
X0018473Y0137231D01*
X0018544Y0137195D01*
X0018613Y0137156D01*
X0018680Y0137113D01*
X0018745Y0137067D01*
X0018808Y0137018D01*
X0018868Y0136966D01*
X0018925Y0136911D01*
X0018979Y0136853D01*
X0019031Y0136792D01*
X0019079Y0136729D01*
X0019124Y0136664D01*
X0019166Y0136596D01*
X0019204Y0136527D01*
X0019239Y0136455D01*
X0019270Y0136382D01*
X0019297Y0136307D01*
X0019321Y0136232D01*
X0019341Y0136155D01*
X0019357Y0136077D01*
X0019369Y0135998D01*
X0019377Y0135919D01*
X0019381Y0135840D01*
X0019381Y0135760D01*
X0019377Y0135681D01*
X0019369Y0135602D01*
X0019357Y0135523D01*
X0019341Y0135445D01*
X0019321Y0135368D01*
X0019297Y0135293D01*
X0019270Y0135218D01*
X0019239Y0135145D01*
X0019204Y0135073D01*
X0019166Y0135004D01*
X0019124Y0134936D01*
X0019079Y0134871D01*
X0019031Y0134808D01*
X0018979Y0134747D01*
X0018925Y0134689D01*
X0018868Y0134634D01*
X0018808Y0134582D01*
X0018745Y0134533D01*
X0018680Y0134487D01*
X0018613Y0134444D01*
X0018544Y0134405D01*
X0018473Y0134369D01*
X0018400Y0134337D01*
X0018326Y0134309D01*
X0018251Y0134285D01*
X0018174Y0134264D01*
X0018096Y0134247D01*
X0018018Y0134234D01*
X0017939Y0134225D01*
X0017860Y0134220D01*
X0017780Y0134219D01*
X0017701Y0134222D01*
X0017622Y0134229D01*
X0017543Y0134240D01*
X0017465Y0134255D01*
X0017388Y0134274D01*
X0017311Y0134296D01*
X0017237Y0134323D01*
X0017163Y0134353D01*
X0017091Y0134387D01*
X0017021Y0134424D01*
X0016953Y0134465D01*
X0016887Y0134509D01*
X0016823Y0134557D01*
X0016762Y0134608D01*
X0016703Y0134661D01*
X0016648Y0134718D01*
X0016595Y0134777D01*
X0016545Y0134839D01*
X0016498Y0134903D01*
X0016455Y0134970D01*
X0016415Y0135038D01*
X0016378Y0135109D01*
X0016345Y0135181D01*
X0016316Y0135255D01*
X0016290Y0135330D01*
X0016269Y0135407D01*
X0016251Y0135484D01*
X0016237Y0135562D01*
X0016227Y0135641D01*
X0016221Y0135721D01*
X0016219Y0135800D01*
X0046219Y0135800D02*
X0046221Y0135879D01*
X0046227Y0135959D01*
X0046237Y0136038D01*
X0046251Y0136116D01*
X0046269Y0136193D01*
X0046290Y0136270D01*
X0046316Y0136345D01*
X0046345Y0136419D01*
X0046378Y0136491D01*
X0046415Y0136562D01*
X0046455Y0136630D01*
X0046498Y0136697D01*
X0046545Y0136761D01*
X0046595Y0136823D01*
X0046648Y0136882D01*
X0046703Y0136939D01*
X0046762Y0136992D01*
X0046823Y0137043D01*
X0046887Y0137091D01*
X0046953Y0137135D01*
X0047021Y0137176D01*
X0047091Y0137213D01*
X0047163Y0137247D01*
X0047237Y0137277D01*
X0047311Y0137304D01*
X0047388Y0137326D01*
X0047465Y0137345D01*
X0047543Y0137360D01*
X0047622Y0137371D01*
X0047701Y0137378D01*
X0047780Y0137381D01*
X0047860Y0137380D01*
X0047939Y0137375D01*
X0048018Y0137366D01*
X0048096Y0137353D01*
X0048174Y0137336D01*
X0048251Y0137315D01*
X0048326Y0137291D01*
X0048400Y0137263D01*
X0048473Y0137231D01*
X0048544Y0137195D01*
X0048613Y0137156D01*
X0048680Y0137113D01*
X0048745Y0137067D01*
X0048808Y0137018D01*
X0048868Y0136966D01*
X0048925Y0136911D01*
X0048979Y0136853D01*
X0049031Y0136792D01*
X0049079Y0136729D01*
X0049124Y0136664D01*
X0049166Y0136596D01*
X0049204Y0136527D01*
X0049239Y0136455D01*
X0049270Y0136382D01*
X0049297Y0136307D01*
X0049321Y0136232D01*
X0049341Y0136155D01*
X0049357Y0136077D01*
X0049369Y0135998D01*
X0049377Y0135919D01*
X0049381Y0135840D01*
X0049381Y0135760D01*
X0049377Y0135681D01*
X0049369Y0135602D01*
X0049357Y0135523D01*
X0049341Y0135445D01*
X0049321Y0135368D01*
X0049297Y0135293D01*
X0049270Y0135218D01*
X0049239Y0135145D01*
X0049204Y0135073D01*
X0049166Y0135004D01*
X0049124Y0134936D01*
X0049079Y0134871D01*
X0049031Y0134808D01*
X0048979Y0134747D01*
X0048925Y0134689D01*
X0048868Y0134634D01*
X0048808Y0134582D01*
X0048745Y0134533D01*
X0048680Y0134487D01*
X0048613Y0134444D01*
X0048544Y0134405D01*
X0048473Y0134369D01*
X0048400Y0134337D01*
X0048326Y0134309D01*
X0048251Y0134285D01*
X0048174Y0134264D01*
X0048096Y0134247D01*
X0048018Y0134234D01*
X0047939Y0134225D01*
X0047860Y0134220D01*
X0047780Y0134219D01*
X0047701Y0134222D01*
X0047622Y0134229D01*
X0047543Y0134240D01*
X0047465Y0134255D01*
X0047388Y0134274D01*
X0047311Y0134296D01*
X0047237Y0134323D01*
X0047163Y0134353D01*
X0047091Y0134387D01*
X0047021Y0134424D01*
X0046953Y0134465D01*
X0046887Y0134509D01*
X0046823Y0134557D01*
X0046762Y0134608D01*
X0046703Y0134661D01*
X0046648Y0134718D01*
X0046595Y0134777D01*
X0046545Y0134839D01*
X0046498Y0134903D01*
X0046455Y0134970D01*
X0046415Y0135038D01*
X0046378Y0135109D01*
X0046345Y0135181D01*
X0046316Y0135255D01*
X0046290Y0135330D01*
X0046269Y0135407D01*
X0046251Y0135484D01*
X0046237Y0135562D01*
X0046227Y0135641D01*
X0046221Y0135721D01*
X0046219Y0135800D01*
X0156219Y0135800D02*
X0156221Y0135879D01*
X0156227Y0135959D01*
X0156237Y0136038D01*
X0156251Y0136116D01*
X0156269Y0136193D01*
X0156290Y0136270D01*
X0156316Y0136345D01*
X0156345Y0136419D01*
X0156378Y0136491D01*
X0156415Y0136562D01*
X0156455Y0136630D01*
X0156498Y0136697D01*
X0156545Y0136761D01*
X0156595Y0136823D01*
X0156648Y0136882D01*
X0156703Y0136939D01*
X0156762Y0136992D01*
X0156823Y0137043D01*
X0156887Y0137091D01*
X0156953Y0137135D01*
X0157021Y0137176D01*
X0157091Y0137213D01*
X0157163Y0137247D01*
X0157237Y0137277D01*
X0157311Y0137304D01*
X0157388Y0137326D01*
X0157465Y0137345D01*
X0157543Y0137360D01*
X0157622Y0137371D01*
X0157701Y0137378D01*
X0157780Y0137381D01*
X0157860Y0137380D01*
X0157939Y0137375D01*
X0158018Y0137366D01*
X0158096Y0137353D01*
X0158174Y0137336D01*
X0158251Y0137315D01*
X0158326Y0137291D01*
X0158400Y0137263D01*
X0158473Y0137231D01*
X0158544Y0137195D01*
X0158613Y0137156D01*
X0158680Y0137113D01*
X0158745Y0137067D01*
X0158808Y0137018D01*
X0158868Y0136966D01*
X0158925Y0136911D01*
X0158979Y0136853D01*
X0159031Y0136792D01*
X0159079Y0136729D01*
X0159124Y0136664D01*
X0159166Y0136596D01*
X0159204Y0136527D01*
X0159239Y0136455D01*
X0159270Y0136382D01*
X0159297Y0136307D01*
X0159321Y0136232D01*
X0159341Y0136155D01*
X0159357Y0136077D01*
X0159369Y0135998D01*
X0159377Y0135919D01*
X0159381Y0135840D01*
X0159381Y0135760D01*
X0159377Y0135681D01*
X0159369Y0135602D01*
X0159357Y0135523D01*
X0159341Y0135445D01*
X0159321Y0135368D01*
X0159297Y0135293D01*
X0159270Y0135218D01*
X0159239Y0135145D01*
X0159204Y0135073D01*
X0159166Y0135004D01*
X0159124Y0134936D01*
X0159079Y0134871D01*
X0159031Y0134808D01*
X0158979Y0134747D01*
X0158925Y0134689D01*
X0158868Y0134634D01*
X0158808Y0134582D01*
X0158745Y0134533D01*
X0158680Y0134487D01*
X0158613Y0134444D01*
X0158544Y0134405D01*
X0158473Y0134369D01*
X0158400Y0134337D01*
X0158326Y0134309D01*
X0158251Y0134285D01*
X0158174Y0134264D01*
X0158096Y0134247D01*
X0158018Y0134234D01*
X0157939Y0134225D01*
X0157860Y0134220D01*
X0157780Y0134219D01*
X0157701Y0134222D01*
X0157622Y0134229D01*
X0157543Y0134240D01*
X0157465Y0134255D01*
X0157388Y0134274D01*
X0157311Y0134296D01*
X0157237Y0134323D01*
X0157163Y0134353D01*
X0157091Y0134387D01*
X0157021Y0134424D01*
X0156953Y0134465D01*
X0156887Y0134509D01*
X0156823Y0134557D01*
X0156762Y0134608D01*
X0156703Y0134661D01*
X0156648Y0134718D01*
X0156595Y0134777D01*
X0156545Y0134839D01*
X0156498Y0134903D01*
X0156455Y0134970D01*
X0156415Y0135038D01*
X0156378Y0135109D01*
X0156345Y0135181D01*
X0156316Y0135255D01*
X0156290Y0135330D01*
X0156269Y0135407D01*
X0156251Y0135484D01*
X0156237Y0135562D01*
X0156227Y0135641D01*
X0156221Y0135721D01*
X0156219Y0135800D01*
X0186219Y0135800D02*
X0186221Y0135879D01*
X0186227Y0135959D01*
X0186237Y0136038D01*
X0186251Y0136116D01*
X0186269Y0136193D01*
X0186290Y0136270D01*
X0186316Y0136345D01*
X0186345Y0136419D01*
X0186378Y0136491D01*
X0186415Y0136562D01*
X0186455Y0136630D01*
X0186498Y0136697D01*
X0186545Y0136761D01*
X0186595Y0136823D01*
X0186648Y0136882D01*
X0186703Y0136939D01*
X0186762Y0136992D01*
X0186823Y0137043D01*
X0186887Y0137091D01*
X0186953Y0137135D01*
X0187021Y0137176D01*
X0187091Y0137213D01*
X0187163Y0137247D01*
X0187237Y0137277D01*
X0187311Y0137304D01*
X0187388Y0137326D01*
X0187465Y0137345D01*
X0187543Y0137360D01*
X0187622Y0137371D01*
X0187701Y0137378D01*
X0187780Y0137381D01*
X0187860Y0137380D01*
X0187939Y0137375D01*
X0188018Y0137366D01*
X0188096Y0137353D01*
X0188174Y0137336D01*
X0188251Y0137315D01*
X0188326Y0137291D01*
X0188400Y0137263D01*
X0188473Y0137231D01*
X0188544Y0137195D01*
X0188613Y0137156D01*
X0188680Y0137113D01*
X0188745Y0137067D01*
X0188808Y0137018D01*
X0188868Y0136966D01*
X0188925Y0136911D01*
X0188979Y0136853D01*
X0189031Y0136792D01*
X0189079Y0136729D01*
X0189124Y0136664D01*
X0189166Y0136596D01*
X0189204Y0136527D01*
X0189239Y0136455D01*
X0189270Y0136382D01*
X0189297Y0136307D01*
X0189321Y0136232D01*
X0189341Y0136155D01*
X0189357Y0136077D01*
X0189369Y0135998D01*
X0189377Y0135919D01*
X0189381Y0135840D01*
X0189381Y0135760D01*
X0189377Y0135681D01*
X0189369Y0135602D01*
X0189357Y0135523D01*
X0189341Y0135445D01*
X0189321Y0135368D01*
X0189297Y0135293D01*
X0189270Y0135218D01*
X0189239Y0135145D01*
X0189204Y0135073D01*
X0189166Y0135004D01*
X0189124Y0134936D01*
X0189079Y0134871D01*
X0189031Y0134808D01*
X0188979Y0134747D01*
X0188925Y0134689D01*
X0188868Y0134634D01*
X0188808Y0134582D01*
X0188745Y0134533D01*
X0188680Y0134487D01*
X0188613Y0134444D01*
X0188544Y0134405D01*
X0188473Y0134369D01*
X0188400Y0134337D01*
X0188326Y0134309D01*
X0188251Y0134285D01*
X0188174Y0134264D01*
X0188096Y0134247D01*
X0188018Y0134234D01*
X0187939Y0134225D01*
X0187860Y0134220D01*
X0187780Y0134219D01*
X0187701Y0134222D01*
X0187622Y0134229D01*
X0187543Y0134240D01*
X0187465Y0134255D01*
X0187388Y0134274D01*
X0187311Y0134296D01*
X0187237Y0134323D01*
X0187163Y0134353D01*
X0187091Y0134387D01*
X0187021Y0134424D01*
X0186953Y0134465D01*
X0186887Y0134509D01*
X0186823Y0134557D01*
X0186762Y0134608D01*
X0186703Y0134661D01*
X0186648Y0134718D01*
X0186595Y0134777D01*
X0186545Y0134839D01*
X0186498Y0134903D01*
X0186455Y0134970D01*
X0186415Y0135038D01*
X0186378Y0135109D01*
X0186345Y0135181D01*
X0186316Y0135255D01*
X0186290Y0135330D01*
X0186269Y0135407D01*
X0186251Y0135484D01*
X0186237Y0135562D01*
X0186227Y0135641D01*
X0186221Y0135721D01*
X0186219Y0135800D01*
X0186219Y0029800D02*
X0186221Y0029879D01*
X0186227Y0029959D01*
X0186237Y0030038D01*
X0186251Y0030116D01*
X0186269Y0030193D01*
X0186290Y0030270D01*
X0186316Y0030345D01*
X0186345Y0030419D01*
X0186378Y0030491D01*
X0186415Y0030562D01*
X0186455Y0030630D01*
X0186498Y0030697D01*
X0186545Y0030761D01*
X0186595Y0030823D01*
X0186648Y0030882D01*
X0186703Y0030939D01*
X0186762Y0030992D01*
X0186823Y0031043D01*
X0186887Y0031091D01*
X0186953Y0031135D01*
X0187021Y0031176D01*
X0187091Y0031213D01*
X0187163Y0031247D01*
X0187237Y0031277D01*
X0187311Y0031304D01*
X0187388Y0031326D01*
X0187465Y0031345D01*
X0187543Y0031360D01*
X0187622Y0031371D01*
X0187701Y0031378D01*
X0187780Y0031381D01*
X0187860Y0031380D01*
X0187939Y0031375D01*
X0188018Y0031366D01*
X0188096Y0031353D01*
X0188174Y0031336D01*
X0188251Y0031315D01*
X0188326Y0031291D01*
X0188400Y0031263D01*
X0188473Y0031231D01*
X0188544Y0031195D01*
X0188613Y0031156D01*
X0188680Y0031113D01*
X0188745Y0031067D01*
X0188808Y0031018D01*
X0188868Y0030966D01*
X0188925Y0030911D01*
X0188979Y0030853D01*
X0189031Y0030792D01*
X0189079Y0030729D01*
X0189124Y0030664D01*
X0189166Y0030596D01*
X0189204Y0030527D01*
X0189239Y0030455D01*
X0189270Y0030382D01*
X0189297Y0030307D01*
X0189321Y0030232D01*
X0189341Y0030155D01*
X0189357Y0030077D01*
X0189369Y0029998D01*
X0189377Y0029919D01*
X0189381Y0029840D01*
X0189381Y0029760D01*
X0189377Y0029681D01*
X0189369Y0029602D01*
X0189357Y0029523D01*
X0189341Y0029445D01*
X0189321Y0029368D01*
X0189297Y0029293D01*
X0189270Y0029218D01*
X0189239Y0029145D01*
X0189204Y0029073D01*
X0189166Y0029004D01*
X0189124Y0028936D01*
X0189079Y0028871D01*
X0189031Y0028808D01*
X0188979Y0028747D01*
X0188925Y0028689D01*
X0188868Y0028634D01*
X0188808Y0028582D01*
X0188745Y0028533D01*
X0188680Y0028487D01*
X0188613Y0028444D01*
X0188544Y0028405D01*
X0188473Y0028369D01*
X0188400Y0028337D01*
X0188326Y0028309D01*
X0188251Y0028285D01*
X0188174Y0028264D01*
X0188096Y0028247D01*
X0188018Y0028234D01*
X0187939Y0028225D01*
X0187860Y0028220D01*
X0187780Y0028219D01*
X0187701Y0028222D01*
X0187622Y0028229D01*
X0187543Y0028240D01*
X0187465Y0028255D01*
X0187388Y0028274D01*
X0187311Y0028296D01*
X0187237Y0028323D01*
X0187163Y0028353D01*
X0187091Y0028387D01*
X0187021Y0028424D01*
X0186953Y0028465D01*
X0186887Y0028509D01*
X0186823Y0028557D01*
X0186762Y0028608D01*
X0186703Y0028661D01*
X0186648Y0028718D01*
X0186595Y0028777D01*
X0186545Y0028839D01*
X0186498Y0028903D01*
X0186455Y0028970D01*
X0186415Y0029038D01*
X0186378Y0029109D01*
X0186345Y0029181D01*
X0186316Y0029255D01*
X0186290Y0029330D01*
X0186269Y0029407D01*
X0186251Y0029484D01*
X0186237Y0029562D01*
X0186227Y0029641D01*
X0186221Y0029721D01*
X0186219Y0029800D01*
X0156219Y0029800D02*
X0156221Y0029879D01*
X0156227Y0029959D01*
X0156237Y0030038D01*
X0156251Y0030116D01*
X0156269Y0030193D01*
X0156290Y0030270D01*
X0156316Y0030345D01*
X0156345Y0030419D01*
X0156378Y0030491D01*
X0156415Y0030562D01*
X0156455Y0030630D01*
X0156498Y0030697D01*
X0156545Y0030761D01*
X0156595Y0030823D01*
X0156648Y0030882D01*
X0156703Y0030939D01*
X0156762Y0030992D01*
X0156823Y0031043D01*
X0156887Y0031091D01*
X0156953Y0031135D01*
X0157021Y0031176D01*
X0157091Y0031213D01*
X0157163Y0031247D01*
X0157237Y0031277D01*
X0157311Y0031304D01*
X0157388Y0031326D01*
X0157465Y0031345D01*
X0157543Y0031360D01*
X0157622Y0031371D01*
X0157701Y0031378D01*
X0157780Y0031381D01*
X0157860Y0031380D01*
X0157939Y0031375D01*
X0158018Y0031366D01*
X0158096Y0031353D01*
X0158174Y0031336D01*
X0158251Y0031315D01*
X0158326Y0031291D01*
X0158400Y0031263D01*
X0158473Y0031231D01*
X0158544Y0031195D01*
X0158613Y0031156D01*
X0158680Y0031113D01*
X0158745Y0031067D01*
X0158808Y0031018D01*
X0158868Y0030966D01*
X0158925Y0030911D01*
X0158979Y0030853D01*
X0159031Y0030792D01*
X0159079Y0030729D01*
X0159124Y0030664D01*
X0159166Y0030596D01*
X0159204Y0030527D01*
X0159239Y0030455D01*
X0159270Y0030382D01*
X0159297Y0030307D01*
X0159321Y0030232D01*
X0159341Y0030155D01*
X0159357Y0030077D01*
X0159369Y0029998D01*
X0159377Y0029919D01*
X0159381Y0029840D01*
X0159381Y0029760D01*
X0159377Y0029681D01*
X0159369Y0029602D01*
X0159357Y0029523D01*
X0159341Y0029445D01*
X0159321Y0029368D01*
X0159297Y0029293D01*
X0159270Y0029218D01*
X0159239Y0029145D01*
X0159204Y0029073D01*
X0159166Y0029004D01*
X0159124Y0028936D01*
X0159079Y0028871D01*
X0159031Y0028808D01*
X0158979Y0028747D01*
X0158925Y0028689D01*
X0158868Y0028634D01*
X0158808Y0028582D01*
X0158745Y0028533D01*
X0158680Y0028487D01*
X0158613Y0028444D01*
X0158544Y0028405D01*
X0158473Y0028369D01*
X0158400Y0028337D01*
X0158326Y0028309D01*
X0158251Y0028285D01*
X0158174Y0028264D01*
X0158096Y0028247D01*
X0158018Y0028234D01*
X0157939Y0028225D01*
X0157860Y0028220D01*
X0157780Y0028219D01*
X0157701Y0028222D01*
X0157622Y0028229D01*
X0157543Y0028240D01*
X0157465Y0028255D01*
X0157388Y0028274D01*
X0157311Y0028296D01*
X0157237Y0028323D01*
X0157163Y0028353D01*
X0157091Y0028387D01*
X0157021Y0028424D01*
X0156953Y0028465D01*
X0156887Y0028509D01*
X0156823Y0028557D01*
X0156762Y0028608D01*
X0156703Y0028661D01*
X0156648Y0028718D01*
X0156595Y0028777D01*
X0156545Y0028839D01*
X0156498Y0028903D01*
X0156455Y0028970D01*
X0156415Y0029038D01*
X0156378Y0029109D01*
X0156345Y0029181D01*
X0156316Y0029255D01*
X0156290Y0029330D01*
X0156269Y0029407D01*
X0156251Y0029484D01*
X0156237Y0029562D01*
X0156227Y0029641D01*
X0156221Y0029721D01*
X0156219Y0029800D01*
X0046219Y0029800D02*
X0046221Y0029879D01*
X0046227Y0029959D01*
X0046237Y0030038D01*
X0046251Y0030116D01*
X0046269Y0030193D01*
X0046290Y0030270D01*
X0046316Y0030345D01*
X0046345Y0030419D01*
X0046378Y0030491D01*
X0046415Y0030562D01*
X0046455Y0030630D01*
X0046498Y0030697D01*
X0046545Y0030761D01*
X0046595Y0030823D01*
X0046648Y0030882D01*
X0046703Y0030939D01*
X0046762Y0030992D01*
X0046823Y0031043D01*
X0046887Y0031091D01*
X0046953Y0031135D01*
X0047021Y0031176D01*
X0047091Y0031213D01*
X0047163Y0031247D01*
X0047237Y0031277D01*
X0047311Y0031304D01*
X0047388Y0031326D01*
X0047465Y0031345D01*
X0047543Y0031360D01*
X0047622Y0031371D01*
X0047701Y0031378D01*
X0047780Y0031381D01*
X0047860Y0031380D01*
X0047939Y0031375D01*
X0048018Y0031366D01*
X0048096Y0031353D01*
X0048174Y0031336D01*
X0048251Y0031315D01*
X0048326Y0031291D01*
X0048400Y0031263D01*
X0048473Y0031231D01*
X0048544Y0031195D01*
X0048613Y0031156D01*
X0048680Y0031113D01*
X0048745Y0031067D01*
X0048808Y0031018D01*
X0048868Y0030966D01*
X0048925Y0030911D01*
X0048979Y0030853D01*
X0049031Y0030792D01*
X0049079Y0030729D01*
X0049124Y0030664D01*
X0049166Y0030596D01*
X0049204Y0030527D01*
X0049239Y0030455D01*
X0049270Y0030382D01*
X0049297Y0030307D01*
X0049321Y0030232D01*
X0049341Y0030155D01*
X0049357Y0030077D01*
X0049369Y0029998D01*
X0049377Y0029919D01*
X0049381Y0029840D01*
X0049381Y0029760D01*
X0049377Y0029681D01*
X0049369Y0029602D01*
X0049357Y0029523D01*
X0049341Y0029445D01*
X0049321Y0029368D01*
X0049297Y0029293D01*
X0049270Y0029218D01*
X0049239Y0029145D01*
X0049204Y0029073D01*
X0049166Y0029004D01*
X0049124Y0028936D01*
X0049079Y0028871D01*
X0049031Y0028808D01*
X0048979Y0028747D01*
X0048925Y0028689D01*
X0048868Y0028634D01*
X0048808Y0028582D01*
X0048745Y0028533D01*
X0048680Y0028487D01*
X0048613Y0028444D01*
X0048544Y0028405D01*
X0048473Y0028369D01*
X0048400Y0028337D01*
X0048326Y0028309D01*
X0048251Y0028285D01*
X0048174Y0028264D01*
X0048096Y0028247D01*
X0048018Y0028234D01*
X0047939Y0028225D01*
X0047860Y0028220D01*
X0047780Y0028219D01*
X0047701Y0028222D01*
X0047622Y0028229D01*
X0047543Y0028240D01*
X0047465Y0028255D01*
X0047388Y0028274D01*
X0047311Y0028296D01*
X0047237Y0028323D01*
X0047163Y0028353D01*
X0047091Y0028387D01*
X0047021Y0028424D01*
X0046953Y0028465D01*
X0046887Y0028509D01*
X0046823Y0028557D01*
X0046762Y0028608D01*
X0046703Y0028661D01*
X0046648Y0028718D01*
X0046595Y0028777D01*
X0046545Y0028839D01*
X0046498Y0028903D01*
X0046455Y0028970D01*
X0046415Y0029038D01*
X0046378Y0029109D01*
X0046345Y0029181D01*
X0046316Y0029255D01*
X0046290Y0029330D01*
X0046269Y0029407D01*
X0046251Y0029484D01*
X0046237Y0029562D01*
X0046227Y0029641D01*
X0046221Y0029721D01*
X0046219Y0029800D01*
X0016219Y0029800D02*
X0016221Y0029879D01*
X0016227Y0029959D01*
X0016237Y0030038D01*
X0016251Y0030116D01*
X0016269Y0030193D01*
X0016290Y0030270D01*
X0016316Y0030345D01*
X0016345Y0030419D01*
X0016378Y0030491D01*
X0016415Y0030562D01*
X0016455Y0030630D01*
X0016498Y0030697D01*
X0016545Y0030761D01*
X0016595Y0030823D01*
X0016648Y0030882D01*
X0016703Y0030939D01*
X0016762Y0030992D01*
X0016823Y0031043D01*
X0016887Y0031091D01*
X0016953Y0031135D01*
X0017021Y0031176D01*
X0017091Y0031213D01*
X0017163Y0031247D01*
X0017237Y0031277D01*
X0017311Y0031304D01*
X0017388Y0031326D01*
X0017465Y0031345D01*
X0017543Y0031360D01*
X0017622Y0031371D01*
X0017701Y0031378D01*
X0017780Y0031381D01*
X0017860Y0031380D01*
X0017939Y0031375D01*
X0018018Y0031366D01*
X0018096Y0031353D01*
X0018174Y0031336D01*
X0018251Y0031315D01*
X0018326Y0031291D01*
X0018400Y0031263D01*
X0018473Y0031231D01*
X0018544Y0031195D01*
X0018613Y0031156D01*
X0018680Y0031113D01*
X0018745Y0031067D01*
X0018808Y0031018D01*
X0018868Y0030966D01*
X0018925Y0030911D01*
X0018979Y0030853D01*
X0019031Y0030792D01*
X0019079Y0030729D01*
X0019124Y0030664D01*
X0019166Y0030596D01*
X0019204Y0030527D01*
X0019239Y0030455D01*
X0019270Y0030382D01*
X0019297Y0030307D01*
X0019321Y0030232D01*
X0019341Y0030155D01*
X0019357Y0030077D01*
X0019369Y0029998D01*
X0019377Y0029919D01*
X0019381Y0029840D01*
X0019381Y0029760D01*
X0019377Y0029681D01*
X0019369Y0029602D01*
X0019357Y0029523D01*
X0019341Y0029445D01*
X0019321Y0029368D01*
X0019297Y0029293D01*
X0019270Y0029218D01*
X0019239Y0029145D01*
X0019204Y0029073D01*
X0019166Y0029004D01*
X0019124Y0028936D01*
X0019079Y0028871D01*
X0019031Y0028808D01*
X0018979Y0028747D01*
X0018925Y0028689D01*
X0018868Y0028634D01*
X0018808Y0028582D01*
X0018745Y0028533D01*
X0018680Y0028487D01*
X0018613Y0028444D01*
X0018544Y0028405D01*
X0018473Y0028369D01*
X0018400Y0028337D01*
X0018326Y0028309D01*
X0018251Y0028285D01*
X0018174Y0028264D01*
X0018096Y0028247D01*
X0018018Y0028234D01*
X0017939Y0028225D01*
X0017860Y0028220D01*
X0017780Y0028219D01*
X0017701Y0028222D01*
X0017622Y0028229D01*
X0017543Y0028240D01*
X0017465Y0028255D01*
X0017388Y0028274D01*
X0017311Y0028296D01*
X0017237Y0028323D01*
X0017163Y0028353D01*
X0017091Y0028387D01*
X0017021Y0028424D01*
X0016953Y0028465D01*
X0016887Y0028509D01*
X0016823Y0028557D01*
X0016762Y0028608D01*
X0016703Y0028661D01*
X0016648Y0028718D01*
X0016595Y0028777D01*
X0016545Y0028839D01*
X0016498Y0028903D01*
X0016455Y0028970D01*
X0016415Y0029038D01*
X0016378Y0029109D01*
X0016345Y0029181D01*
X0016316Y0029255D01*
X0016290Y0029330D01*
X0016269Y0029407D01*
X0016251Y0029484D01*
X0016237Y0029562D01*
X0016227Y0029641D01*
X0016221Y0029721D01*
X0016219Y0029800D01*
D13*
X0013800Y0097800D03*
X0013800Y0107800D03*
X0023800Y0107800D03*
X0023800Y0097800D03*
X0033800Y0097800D03*
X0033800Y0107800D03*
D14*
X0185800Y0107997D03*
X0185800Y0057603D03*
D15*
X0114300Y0068233D03*
X0109300Y0068233D03*
X0104300Y0068233D03*
X0099300Y0068233D03*
X0094300Y0068233D03*
X0089300Y0068233D03*
X0084300Y0068233D03*
X0079300Y0068233D03*
X0079300Y0097367D03*
X0084300Y0097367D03*
X0089300Y0097367D03*
X0094300Y0097367D03*
X0099300Y0097367D03*
X0104300Y0097367D03*
X0109300Y0097367D03*
X0114300Y0097367D03*
M02*
