%
M48
M72
T01C0.0236
T02C0.0400
T03C0.0670
T04C0.0787
%
T01
X7380Y5980
X8680Y6080
X9080Y5780
X8080Y4580
X8680Y4180
X10080Y3780
X11380Y3680
X11380Y4680
X13480Y3680
X10280Y1680
X15980Y7380
X12580Y11080
X11430Y11230
X9380Y10980
X8980Y11780
X8580Y12580
X7780Y12580
X7780Y11780
X7780Y10980
X8680Y7680
X9180Y7480
X9780Y7480
X10280Y7480
X10780Y7580
T02
X11380Y2680
X12380Y2680
X13380Y2680
X14380Y2680
X14380Y1380
X13380Y1380
X12380Y1380
X11380Y1380
X9180Y1380
X8180Y1380
X7180Y1380
X6180Y1380
X6180Y2680
X7180Y2680
X8180Y2680
X9180Y2680
X2280Y8280
X1280Y8280
X1380Y9780
X1380Y10780
X2380Y10780
X2380Y9780
X3380Y9780
X3380Y10780
X18580Y10800
X18580Y5760
T03
X18780Y2980
X15780Y2980
X4780Y2980
X1780Y2980
X1780Y13580
X4780Y13580
X15780Y13580
X18780Y13580
T04
X780Y780
X780Y16080
X19380Y16080
X19380Y780
M30
