G75*
%MOIN*%
%OFA0B0*%
%FSLAX25Y25*%
%IPPOS*%
%LPD*%
%AMOC8*
5,1,8,0,0,1.08239X$1,22.5*
%
%ADD10OC8,0.06000*%
%ADD11OC8,0.10050*%
%ADD12OC8,0.06600*%
%ADD13OC8,0.07000*%
%ADD14R,0.03000X0.05000*%
%ADD15C,0.01600*%
%ADD16OC8,0.03562*%
%ADD17C,0.01200*%
D10*
X0061800Y0013800D03*
X0071800Y0013800D03*
X0081800Y0013800D03*
X0091800Y0013800D03*
X0091800Y0026800D03*
X0081800Y0026800D03*
X0071800Y0026800D03*
X0061800Y0026800D03*
X0113800Y0026800D03*
X0123800Y0026800D03*
X0133800Y0026800D03*
X0143800Y0026800D03*
X0143800Y0013800D03*
X0133800Y0013800D03*
X0123800Y0013800D03*
X0113800Y0013800D03*
X0022800Y0082800D03*
X0012800Y0082800D03*
D11*
X0017800Y0029800D03*
X0047800Y0029800D03*
X0157800Y0029800D03*
X0187800Y0029800D03*
X0187800Y0135800D03*
X0157800Y0135800D03*
X0047800Y0135800D03*
X0017800Y0135800D03*
D12*
X0013800Y0107800D03*
X0013800Y0097800D03*
X0023800Y0097800D03*
X0023800Y0107800D03*
X0033800Y0107800D03*
X0033800Y0097800D03*
D13*
X0185800Y0107997D03*
X0185800Y0057603D03*
D14*
X0114300Y0068233D03*
X0109300Y0068233D03*
X0104300Y0068233D03*
X0099300Y0068233D03*
X0094300Y0068233D03*
X0089300Y0068233D03*
X0084300Y0068233D03*
X0079300Y0068233D03*
X0079300Y0097367D03*
X0084300Y0097367D03*
X0089300Y0097367D03*
X0094300Y0097367D03*
X0099300Y0097367D03*
X0104300Y0097367D03*
X0109300Y0097367D03*
X0114300Y0097367D03*
D15*
X0114300Y0112300D01*
X0118800Y0104800D02*
X0125800Y0110800D01*
X0118800Y0104800D02*
X0118800Y0052800D01*
X0113800Y0046800D01*
X0116800Y0041800D02*
X0118800Y0043800D01*
X0146800Y0073800D01*
X0159800Y0073800D01*
X0134800Y0036800D02*
X0113800Y0036800D01*
X0116800Y0041800D02*
X0086800Y0041800D01*
X0080800Y0045800D02*
X0080800Y0059800D01*
X0057800Y0082800D01*
X0022800Y0082800D01*
X0006800Y0101800D02*
X0013800Y0107800D01*
X0006800Y0101800D02*
X0006800Y0056800D01*
X0042800Y0019800D01*
X0094800Y0019800D01*
X0098800Y0023800D01*
X0098800Y0035800D01*
X0100800Y0037800D01*
X0091800Y0027800D02*
X0073800Y0046800D01*
X0073800Y0059800D01*
X0084800Y0068733D02*
X0084800Y0071800D01*
X0086800Y0073800D01*
X0086800Y0076800D01*
X0091800Y0074800D02*
X0088800Y0071800D01*
X0088800Y0068733D01*
X0093800Y0068733D02*
X0093800Y0070800D01*
X0097800Y0074800D01*
X0099800Y0071800D02*
X0102800Y0074800D01*
X0099800Y0071800D02*
X0099800Y0068733D01*
X0104800Y0068733D02*
X0104800Y0070800D01*
X0107800Y0073800D01*
X0107800Y0075800D01*
X0109300Y0068233D02*
X0109300Y0065300D01*
X0106800Y0062800D01*
X0088800Y0062800D01*
X0086800Y0060800D01*
X0090800Y0057800D02*
X0092800Y0059800D01*
X0109800Y0059800D01*
X0114300Y0063300D01*
X0114300Y0068233D01*
X0114300Y0097367D02*
X0109300Y0097367D01*
X0104300Y0097367D01*
X0099300Y0097367D01*
X0094300Y0097367D01*
X0089300Y0097367D01*
X0084300Y0097367D01*
X0079300Y0097367D01*
X0077800Y0109800D02*
X0093800Y0109800D01*
X0089800Y0117800D02*
X0077800Y0117800D01*
X0077800Y0125800D02*
X0085800Y0125800D01*
X0091800Y0027800D02*
X0091800Y0026800D01*
X0102800Y0016800D02*
X0106800Y0019800D01*
X0137800Y0019800D01*
X0143800Y0013800D01*
D16*
X0134800Y0036800D03*
X0113800Y0036800D03*
X0113800Y0046800D03*
X0100800Y0037800D03*
X0086800Y0041800D03*
X0080800Y0045800D03*
X0090800Y0057800D03*
X0086800Y0060800D03*
X0073800Y0059800D03*
X0091800Y0074800D03*
X0086800Y0076800D03*
X0097800Y0074800D03*
X0102800Y0074800D03*
X0107800Y0075800D03*
X0093800Y0109800D03*
X0089800Y0117800D03*
X0085800Y0125800D03*
X0077800Y0125800D03*
X0077800Y0117800D03*
X0077800Y0109800D03*
X0114300Y0112300D03*
X0125800Y0110800D03*
X0159800Y0073800D03*
X0102800Y0016800D03*
D17*
X0104300Y0068233D02*
X0104800Y0068733D01*
X0099800Y0068733D02*
X0099300Y0068233D01*
X0094300Y0068233D02*
X0093800Y0068733D01*
X0089300Y0068233D02*
X0088800Y0068733D01*
X0084800Y0068733D02*
X0084300Y0068233D01*
M02*
