G75*
%MOIN*%
%OFA0B0*%
%FSLAX25Y25*%
%IPPOS*%
%LPD*%
%AMOC8*
5,1,8,0,0,1.08239X$1,22.5*
%
%ADD10C,0.00000*%
%ADD11C,0.01200*%
%ADD12C,0.00400*%
%ADD13C,0.00300*%
%ADD14C,0.01000*%
%ADD15C,0.01600*%
%ADD16C,0.00800*%
%ADD17C,0.00700*%
%ADD18C,0.00600*%
%ADD19R,0.02000X0.01500*%
D10*
X0004288Y0009800D02*
X0004290Y0009948D01*
X0004296Y0010096D01*
X0004306Y0010244D01*
X0004320Y0010391D01*
X0004338Y0010538D01*
X0004359Y0010684D01*
X0004385Y0010830D01*
X0004415Y0010975D01*
X0004448Y0011119D01*
X0004486Y0011262D01*
X0004527Y0011404D01*
X0004572Y0011545D01*
X0004620Y0011685D01*
X0004673Y0011824D01*
X0004729Y0011961D01*
X0004789Y0012096D01*
X0004852Y0012230D01*
X0004919Y0012362D01*
X0004990Y0012492D01*
X0005064Y0012620D01*
X0005141Y0012746D01*
X0005222Y0012870D01*
X0005306Y0012992D01*
X0005393Y0013111D01*
X0005484Y0013228D01*
X0005578Y0013343D01*
X0005674Y0013455D01*
X0005774Y0013565D01*
X0005876Y0013671D01*
X0005982Y0013775D01*
X0006090Y0013876D01*
X0006201Y0013974D01*
X0006314Y0014070D01*
X0006430Y0014162D01*
X0006548Y0014251D01*
X0006669Y0014336D01*
X0006792Y0014419D01*
X0006917Y0014498D01*
X0007044Y0014574D01*
X0007173Y0014646D01*
X0007304Y0014715D01*
X0007437Y0014780D01*
X0007572Y0014841D01*
X0007708Y0014899D01*
X0007845Y0014954D01*
X0007984Y0015004D01*
X0008125Y0015051D01*
X0008266Y0015094D01*
X0008409Y0015134D01*
X0008553Y0015169D01*
X0008697Y0015201D01*
X0008843Y0015228D01*
X0008989Y0015252D01*
X0009136Y0015272D01*
X0009283Y0015288D01*
X0009430Y0015300D01*
X0009578Y0015308D01*
X0009726Y0015312D01*
X0009874Y0015312D01*
X0010022Y0015308D01*
X0010170Y0015300D01*
X0010317Y0015288D01*
X0010464Y0015272D01*
X0010611Y0015252D01*
X0010757Y0015228D01*
X0010903Y0015201D01*
X0011047Y0015169D01*
X0011191Y0015134D01*
X0011334Y0015094D01*
X0011475Y0015051D01*
X0011616Y0015004D01*
X0011755Y0014954D01*
X0011892Y0014899D01*
X0012028Y0014841D01*
X0012163Y0014780D01*
X0012296Y0014715D01*
X0012427Y0014646D01*
X0012556Y0014574D01*
X0012683Y0014498D01*
X0012808Y0014419D01*
X0012931Y0014336D01*
X0013052Y0014251D01*
X0013170Y0014162D01*
X0013286Y0014070D01*
X0013399Y0013974D01*
X0013510Y0013876D01*
X0013618Y0013775D01*
X0013724Y0013671D01*
X0013826Y0013565D01*
X0013926Y0013455D01*
X0014022Y0013343D01*
X0014116Y0013228D01*
X0014207Y0013111D01*
X0014294Y0012992D01*
X0014378Y0012870D01*
X0014459Y0012746D01*
X0014536Y0012620D01*
X0014610Y0012492D01*
X0014681Y0012362D01*
X0014748Y0012230D01*
X0014811Y0012096D01*
X0014871Y0011961D01*
X0014927Y0011824D01*
X0014980Y0011685D01*
X0015028Y0011545D01*
X0015073Y0011404D01*
X0015114Y0011262D01*
X0015152Y0011119D01*
X0015185Y0010975D01*
X0015215Y0010830D01*
X0015241Y0010684D01*
X0015262Y0010538D01*
X0015280Y0010391D01*
X0015294Y0010244D01*
X0015304Y0010096D01*
X0015310Y0009948D01*
X0015312Y0009800D01*
X0015310Y0009652D01*
X0015304Y0009504D01*
X0015294Y0009356D01*
X0015280Y0009209D01*
X0015262Y0009062D01*
X0015241Y0008916D01*
X0015215Y0008770D01*
X0015185Y0008625D01*
X0015152Y0008481D01*
X0015114Y0008338D01*
X0015073Y0008196D01*
X0015028Y0008055D01*
X0014980Y0007915D01*
X0014927Y0007776D01*
X0014871Y0007639D01*
X0014811Y0007504D01*
X0014748Y0007370D01*
X0014681Y0007238D01*
X0014610Y0007108D01*
X0014536Y0006980D01*
X0014459Y0006854D01*
X0014378Y0006730D01*
X0014294Y0006608D01*
X0014207Y0006489D01*
X0014116Y0006372D01*
X0014022Y0006257D01*
X0013926Y0006145D01*
X0013826Y0006035D01*
X0013724Y0005929D01*
X0013618Y0005825D01*
X0013510Y0005724D01*
X0013399Y0005626D01*
X0013286Y0005530D01*
X0013170Y0005438D01*
X0013052Y0005349D01*
X0012931Y0005264D01*
X0012808Y0005181D01*
X0012683Y0005102D01*
X0012556Y0005026D01*
X0012427Y0004954D01*
X0012296Y0004885D01*
X0012163Y0004820D01*
X0012028Y0004759D01*
X0011892Y0004701D01*
X0011755Y0004646D01*
X0011616Y0004596D01*
X0011475Y0004549D01*
X0011334Y0004506D01*
X0011191Y0004466D01*
X0011047Y0004431D01*
X0010903Y0004399D01*
X0010757Y0004372D01*
X0010611Y0004348D01*
X0010464Y0004328D01*
X0010317Y0004312D01*
X0010170Y0004300D01*
X0010022Y0004292D01*
X0009874Y0004288D01*
X0009726Y0004288D01*
X0009578Y0004292D01*
X0009430Y0004300D01*
X0009283Y0004312D01*
X0009136Y0004328D01*
X0008989Y0004348D01*
X0008843Y0004372D01*
X0008697Y0004399D01*
X0008553Y0004431D01*
X0008409Y0004466D01*
X0008266Y0004506D01*
X0008125Y0004549D01*
X0007984Y0004596D01*
X0007845Y0004646D01*
X0007708Y0004701D01*
X0007572Y0004759D01*
X0007437Y0004820D01*
X0007304Y0004885D01*
X0007173Y0004954D01*
X0007044Y0005026D01*
X0006917Y0005102D01*
X0006792Y0005181D01*
X0006669Y0005264D01*
X0006548Y0005349D01*
X0006430Y0005438D01*
X0006314Y0005530D01*
X0006201Y0005626D01*
X0006090Y0005724D01*
X0005982Y0005825D01*
X0005876Y0005929D01*
X0005774Y0006035D01*
X0005674Y0006145D01*
X0005578Y0006257D01*
X0005484Y0006372D01*
X0005393Y0006489D01*
X0005306Y0006608D01*
X0005222Y0006730D01*
X0005141Y0006854D01*
X0005064Y0006980D01*
X0004990Y0007108D01*
X0004919Y0007238D01*
X0004852Y0007370D01*
X0004789Y0007504D01*
X0004729Y0007639D01*
X0004673Y0007776D01*
X0004620Y0007915D01*
X0004572Y0008055D01*
X0004527Y0008196D01*
X0004486Y0008338D01*
X0004448Y0008481D01*
X0004415Y0008625D01*
X0004385Y0008770D01*
X0004359Y0008916D01*
X0004338Y0009062D01*
X0004320Y0009209D01*
X0004306Y0009356D01*
X0004296Y0009504D01*
X0004290Y0009652D01*
X0004288Y0009800D01*
X0004288Y0157800D02*
X0004290Y0157948D01*
X0004296Y0158096D01*
X0004306Y0158244D01*
X0004320Y0158391D01*
X0004338Y0158538D01*
X0004359Y0158684D01*
X0004385Y0158830D01*
X0004415Y0158975D01*
X0004448Y0159119D01*
X0004486Y0159262D01*
X0004527Y0159404D01*
X0004572Y0159545D01*
X0004620Y0159685D01*
X0004673Y0159824D01*
X0004729Y0159961D01*
X0004789Y0160096D01*
X0004852Y0160230D01*
X0004919Y0160362D01*
X0004990Y0160492D01*
X0005064Y0160620D01*
X0005141Y0160746D01*
X0005222Y0160870D01*
X0005306Y0160992D01*
X0005393Y0161111D01*
X0005484Y0161228D01*
X0005578Y0161343D01*
X0005674Y0161455D01*
X0005774Y0161565D01*
X0005876Y0161671D01*
X0005982Y0161775D01*
X0006090Y0161876D01*
X0006201Y0161974D01*
X0006314Y0162070D01*
X0006430Y0162162D01*
X0006548Y0162251D01*
X0006669Y0162336D01*
X0006792Y0162419D01*
X0006917Y0162498D01*
X0007044Y0162574D01*
X0007173Y0162646D01*
X0007304Y0162715D01*
X0007437Y0162780D01*
X0007572Y0162841D01*
X0007708Y0162899D01*
X0007845Y0162954D01*
X0007984Y0163004D01*
X0008125Y0163051D01*
X0008266Y0163094D01*
X0008409Y0163134D01*
X0008553Y0163169D01*
X0008697Y0163201D01*
X0008843Y0163228D01*
X0008989Y0163252D01*
X0009136Y0163272D01*
X0009283Y0163288D01*
X0009430Y0163300D01*
X0009578Y0163308D01*
X0009726Y0163312D01*
X0009874Y0163312D01*
X0010022Y0163308D01*
X0010170Y0163300D01*
X0010317Y0163288D01*
X0010464Y0163272D01*
X0010611Y0163252D01*
X0010757Y0163228D01*
X0010903Y0163201D01*
X0011047Y0163169D01*
X0011191Y0163134D01*
X0011334Y0163094D01*
X0011475Y0163051D01*
X0011616Y0163004D01*
X0011755Y0162954D01*
X0011892Y0162899D01*
X0012028Y0162841D01*
X0012163Y0162780D01*
X0012296Y0162715D01*
X0012427Y0162646D01*
X0012556Y0162574D01*
X0012683Y0162498D01*
X0012808Y0162419D01*
X0012931Y0162336D01*
X0013052Y0162251D01*
X0013170Y0162162D01*
X0013286Y0162070D01*
X0013399Y0161974D01*
X0013510Y0161876D01*
X0013618Y0161775D01*
X0013724Y0161671D01*
X0013826Y0161565D01*
X0013926Y0161455D01*
X0014022Y0161343D01*
X0014116Y0161228D01*
X0014207Y0161111D01*
X0014294Y0160992D01*
X0014378Y0160870D01*
X0014459Y0160746D01*
X0014536Y0160620D01*
X0014610Y0160492D01*
X0014681Y0160362D01*
X0014748Y0160230D01*
X0014811Y0160096D01*
X0014871Y0159961D01*
X0014927Y0159824D01*
X0014980Y0159685D01*
X0015028Y0159545D01*
X0015073Y0159404D01*
X0015114Y0159262D01*
X0015152Y0159119D01*
X0015185Y0158975D01*
X0015215Y0158830D01*
X0015241Y0158684D01*
X0015262Y0158538D01*
X0015280Y0158391D01*
X0015294Y0158244D01*
X0015304Y0158096D01*
X0015310Y0157948D01*
X0015312Y0157800D01*
X0015310Y0157652D01*
X0015304Y0157504D01*
X0015294Y0157356D01*
X0015280Y0157209D01*
X0015262Y0157062D01*
X0015241Y0156916D01*
X0015215Y0156770D01*
X0015185Y0156625D01*
X0015152Y0156481D01*
X0015114Y0156338D01*
X0015073Y0156196D01*
X0015028Y0156055D01*
X0014980Y0155915D01*
X0014927Y0155776D01*
X0014871Y0155639D01*
X0014811Y0155504D01*
X0014748Y0155370D01*
X0014681Y0155238D01*
X0014610Y0155108D01*
X0014536Y0154980D01*
X0014459Y0154854D01*
X0014378Y0154730D01*
X0014294Y0154608D01*
X0014207Y0154489D01*
X0014116Y0154372D01*
X0014022Y0154257D01*
X0013926Y0154145D01*
X0013826Y0154035D01*
X0013724Y0153929D01*
X0013618Y0153825D01*
X0013510Y0153724D01*
X0013399Y0153626D01*
X0013286Y0153530D01*
X0013170Y0153438D01*
X0013052Y0153349D01*
X0012931Y0153264D01*
X0012808Y0153181D01*
X0012683Y0153102D01*
X0012556Y0153026D01*
X0012427Y0152954D01*
X0012296Y0152885D01*
X0012163Y0152820D01*
X0012028Y0152759D01*
X0011892Y0152701D01*
X0011755Y0152646D01*
X0011616Y0152596D01*
X0011475Y0152549D01*
X0011334Y0152506D01*
X0011191Y0152466D01*
X0011047Y0152431D01*
X0010903Y0152399D01*
X0010757Y0152372D01*
X0010611Y0152348D01*
X0010464Y0152328D01*
X0010317Y0152312D01*
X0010170Y0152300D01*
X0010022Y0152292D01*
X0009874Y0152288D01*
X0009726Y0152288D01*
X0009578Y0152292D01*
X0009430Y0152300D01*
X0009283Y0152312D01*
X0009136Y0152328D01*
X0008989Y0152348D01*
X0008843Y0152372D01*
X0008697Y0152399D01*
X0008553Y0152431D01*
X0008409Y0152466D01*
X0008266Y0152506D01*
X0008125Y0152549D01*
X0007984Y0152596D01*
X0007845Y0152646D01*
X0007708Y0152701D01*
X0007572Y0152759D01*
X0007437Y0152820D01*
X0007304Y0152885D01*
X0007173Y0152954D01*
X0007044Y0153026D01*
X0006917Y0153102D01*
X0006792Y0153181D01*
X0006669Y0153264D01*
X0006548Y0153349D01*
X0006430Y0153438D01*
X0006314Y0153530D01*
X0006201Y0153626D01*
X0006090Y0153724D01*
X0005982Y0153825D01*
X0005876Y0153929D01*
X0005774Y0154035D01*
X0005674Y0154145D01*
X0005578Y0154257D01*
X0005484Y0154372D01*
X0005393Y0154489D01*
X0005306Y0154608D01*
X0005222Y0154730D01*
X0005141Y0154854D01*
X0005064Y0154980D01*
X0004990Y0155108D01*
X0004919Y0155238D01*
X0004852Y0155370D01*
X0004789Y0155504D01*
X0004729Y0155639D01*
X0004673Y0155776D01*
X0004620Y0155915D01*
X0004572Y0156055D01*
X0004527Y0156196D01*
X0004486Y0156338D01*
X0004448Y0156481D01*
X0004415Y0156625D01*
X0004385Y0156770D01*
X0004359Y0156916D01*
X0004338Y0157062D01*
X0004320Y0157209D01*
X0004306Y0157356D01*
X0004296Y0157504D01*
X0004290Y0157652D01*
X0004288Y0157800D01*
X0246288Y0157800D02*
X0246290Y0157948D01*
X0246296Y0158096D01*
X0246306Y0158244D01*
X0246320Y0158391D01*
X0246338Y0158538D01*
X0246359Y0158684D01*
X0246385Y0158830D01*
X0246415Y0158975D01*
X0246448Y0159119D01*
X0246486Y0159262D01*
X0246527Y0159404D01*
X0246572Y0159545D01*
X0246620Y0159685D01*
X0246673Y0159824D01*
X0246729Y0159961D01*
X0246789Y0160096D01*
X0246852Y0160230D01*
X0246919Y0160362D01*
X0246990Y0160492D01*
X0247064Y0160620D01*
X0247141Y0160746D01*
X0247222Y0160870D01*
X0247306Y0160992D01*
X0247393Y0161111D01*
X0247484Y0161228D01*
X0247578Y0161343D01*
X0247674Y0161455D01*
X0247774Y0161565D01*
X0247876Y0161671D01*
X0247982Y0161775D01*
X0248090Y0161876D01*
X0248201Y0161974D01*
X0248314Y0162070D01*
X0248430Y0162162D01*
X0248548Y0162251D01*
X0248669Y0162336D01*
X0248792Y0162419D01*
X0248917Y0162498D01*
X0249044Y0162574D01*
X0249173Y0162646D01*
X0249304Y0162715D01*
X0249437Y0162780D01*
X0249572Y0162841D01*
X0249708Y0162899D01*
X0249845Y0162954D01*
X0249984Y0163004D01*
X0250125Y0163051D01*
X0250266Y0163094D01*
X0250409Y0163134D01*
X0250553Y0163169D01*
X0250697Y0163201D01*
X0250843Y0163228D01*
X0250989Y0163252D01*
X0251136Y0163272D01*
X0251283Y0163288D01*
X0251430Y0163300D01*
X0251578Y0163308D01*
X0251726Y0163312D01*
X0251874Y0163312D01*
X0252022Y0163308D01*
X0252170Y0163300D01*
X0252317Y0163288D01*
X0252464Y0163272D01*
X0252611Y0163252D01*
X0252757Y0163228D01*
X0252903Y0163201D01*
X0253047Y0163169D01*
X0253191Y0163134D01*
X0253334Y0163094D01*
X0253475Y0163051D01*
X0253616Y0163004D01*
X0253755Y0162954D01*
X0253892Y0162899D01*
X0254028Y0162841D01*
X0254163Y0162780D01*
X0254296Y0162715D01*
X0254427Y0162646D01*
X0254556Y0162574D01*
X0254683Y0162498D01*
X0254808Y0162419D01*
X0254931Y0162336D01*
X0255052Y0162251D01*
X0255170Y0162162D01*
X0255286Y0162070D01*
X0255399Y0161974D01*
X0255510Y0161876D01*
X0255618Y0161775D01*
X0255724Y0161671D01*
X0255826Y0161565D01*
X0255926Y0161455D01*
X0256022Y0161343D01*
X0256116Y0161228D01*
X0256207Y0161111D01*
X0256294Y0160992D01*
X0256378Y0160870D01*
X0256459Y0160746D01*
X0256536Y0160620D01*
X0256610Y0160492D01*
X0256681Y0160362D01*
X0256748Y0160230D01*
X0256811Y0160096D01*
X0256871Y0159961D01*
X0256927Y0159824D01*
X0256980Y0159685D01*
X0257028Y0159545D01*
X0257073Y0159404D01*
X0257114Y0159262D01*
X0257152Y0159119D01*
X0257185Y0158975D01*
X0257215Y0158830D01*
X0257241Y0158684D01*
X0257262Y0158538D01*
X0257280Y0158391D01*
X0257294Y0158244D01*
X0257304Y0158096D01*
X0257310Y0157948D01*
X0257312Y0157800D01*
X0257310Y0157652D01*
X0257304Y0157504D01*
X0257294Y0157356D01*
X0257280Y0157209D01*
X0257262Y0157062D01*
X0257241Y0156916D01*
X0257215Y0156770D01*
X0257185Y0156625D01*
X0257152Y0156481D01*
X0257114Y0156338D01*
X0257073Y0156196D01*
X0257028Y0156055D01*
X0256980Y0155915D01*
X0256927Y0155776D01*
X0256871Y0155639D01*
X0256811Y0155504D01*
X0256748Y0155370D01*
X0256681Y0155238D01*
X0256610Y0155108D01*
X0256536Y0154980D01*
X0256459Y0154854D01*
X0256378Y0154730D01*
X0256294Y0154608D01*
X0256207Y0154489D01*
X0256116Y0154372D01*
X0256022Y0154257D01*
X0255926Y0154145D01*
X0255826Y0154035D01*
X0255724Y0153929D01*
X0255618Y0153825D01*
X0255510Y0153724D01*
X0255399Y0153626D01*
X0255286Y0153530D01*
X0255170Y0153438D01*
X0255052Y0153349D01*
X0254931Y0153264D01*
X0254808Y0153181D01*
X0254683Y0153102D01*
X0254556Y0153026D01*
X0254427Y0152954D01*
X0254296Y0152885D01*
X0254163Y0152820D01*
X0254028Y0152759D01*
X0253892Y0152701D01*
X0253755Y0152646D01*
X0253616Y0152596D01*
X0253475Y0152549D01*
X0253334Y0152506D01*
X0253191Y0152466D01*
X0253047Y0152431D01*
X0252903Y0152399D01*
X0252757Y0152372D01*
X0252611Y0152348D01*
X0252464Y0152328D01*
X0252317Y0152312D01*
X0252170Y0152300D01*
X0252022Y0152292D01*
X0251874Y0152288D01*
X0251726Y0152288D01*
X0251578Y0152292D01*
X0251430Y0152300D01*
X0251283Y0152312D01*
X0251136Y0152328D01*
X0250989Y0152348D01*
X0250843Y0152372D01*
X0250697Y0152399D01*
X0250553Y0152431D01*
X0250409Y0152466D01*
X0250266Y0152506D01*
X0250125Y0152549D01*
X0249984Y0152596D01*
X0249845Y0152646D01*
X0249708Y0152701D01*
X0249572Y0152759D01*
X0249437Y0152820D01*
X0249304Y0152885D01*
X0249173Y0152954D01*
X0249044Y0153026D01*
X0248917Y0153102D01*
X0248792Y0153181D01*
X0248669Y0153264D01*
X0248548Y0153349D01*
X0248430Y0153438D01*
X0248314Y0153530D01*
X0248201Y0153626D01*
X0248090Y0153724D01*
X0247982Y0153825D01*
X0247876Y0153929D01*
X0247774Y0154035D01*
X0247674Y0154145D01*
X0247578Y0154257D01*
X0247484Y0154372D01*
X0247393Y0154489D01*
X0247306Y0154608D01*
X0247222Y0154730D01*
X0247141Y0154854D01*
X0247064Y0154980D01*
X0246990Y0155108D01*
X0246919Y0155238D01*
X0246852Y0155370D01*
X0246789Y0155504D01*
X0246729Y0155639D01*
X0246673Y0155776D01*
X0246620Y0155915D01*
X0246572Y0156055D01*
X0246527Y0156196D01*
X0246486Y0156338D01*
X0246448Y0156481D01*
X0246415Y0156625D01*
X0246385Y0156770D01*
X0246359Y0156916D01*
X0246338Y0157062D01*
X0246320Y0157209D01*
X0246306Y0157356D01*
X0246296Y0157504D01*
X0246290Y0157652D01*
X0246288Y0157800D01*
X0246288Y0009800D02*
X0246290Y0009948D01*
X0246296Y0010096D01*
X0246306Y0010244D01*
X0246320Y0010391D01*
X0246338Y0010538D01*
X0246359Y0010684D01*
X0246385Y0010830D01*
X0246415Y0010975D01*
X0246448Y0011119D01*
X0246486Y0011262D01*
X0246527Y0011404D01*
X0246572Y0011545D01*
X0246620Y0011685D01*
X0246673Y0011824D01*
X0246729Y0011961D01*
X0246789Y0012096D01*
X0246852Y0012230D01*
X0246919Y0012362D01*
X0246990Y0012492D01*
X0247064Y0012620D01*
X0247141Y0012746D01*
X0247222Y0012870D01*
X0247306Y0012992D01*
X0247393Y0013111D01*
X0247484Y0013228D01*
X0247578Y0013343D01*
X0247674Y0013455D01*
X0247774Y0013565D01*
X0247876Y0013671D01*
X0247982Y0013775D01*
X0248090Y0013876D01*
X0248201Y0013974D01*
X0248314Y0014070D01*
X0248430Y0014162D01*
X0248548Y0014251D01*
X0248669Y0014336D01*
X0248792Y0014419D01*
X0248917Y0014498D01*
X0249044Y0014574D01*
X0249173Y0014646D01*
X0249304Y0014715D01*
X0249437Y0014780D01*
X0249572Y0014841D01*
X0249708Y0014899D01*
X0249845Y0014954D01*
X0249984Y0015004D01*
X0250125Y0015051D01*
X0250266Y0015094D01*
X0250409Y0015134D01*
X0250553Y0015169D01*
X0250697Y0015201D01*
X0250843Y0015228D01*
X0250989Y0015252D01*
X0251136Y0015272D01*
X0251283Y0015288D01*
X0251430Y0015300D01*
X0251578Y0015308D01*
X0251726Y0015312D01*
X0251874Y0015312D01*
X0252022Y0015308D01*
X0252170Y0015300D01*
X0252317Y0015288D01*
X0252464Y0015272D01*
X0252611Y0015252D01*
X0252757Y0015228D01*
X0252903Y0015201D01*
X0253047Y0015169D01*
X0253191Y0015134D01*
X0253334Y0015094D01*
X0253475Y0015051D01*
X0253616Y0015004D01*
X0253755Y0014954D01*
X0253892Y0014899D01*
X0254028Y0014841D01*
X0254163Y0014780D01*
X0254296Y0014715D01*
X0254427Y0014646D01*
X0254556Y0014574D01*
X0254683Y0014498D01*
X0254808Y0014419D01*
X0254931Y0014336D01*
X0255052Y0014251D01*
X0255170Y0014162D01*
X0255286Y0014070D01*
X0255399Y0013974D01*
X0255510Y0013876D01*
X0255618Y0013775D01*
X0255724Y0013671D01*
X0255826Y0013565D01*
X0255926Y0013455D01*
X0256022Y0013343D01*
X0256116Y0013228D01*
X0256207Y0013111D01*
X0256294Y0012992D01*
X0256378Y0012870D01*
X0256459Y0012746D01*
X0256536Y0012620D01*
X0256610Y0012492D01*
X0256681Y0012362D01*
X0256748Y0012230D01*
X0256811Y0012096D01*
X0256871Y0011961D01*
X0256927Y0011824D01*
X0256980Y0011685D01*
X0257028Y0011545D01*
X0257073Y0011404D01*
X0257114Y0011262D01*
X0257152Y0011119D01*
X0257185Y0010975D01*
X0257215Y0010830D01*
X0257241Y0010684D01*
X0257262Y0010538D01*
X0257280Y0010391D01*
X0257294Y0010244D01*
X0257304Y0010096D01*
X0257310Y0009948D01*
X0257312Y0009800D01*
X0257310Y0009652D01*
X0257304Y0009504D01*
X0257294Y0009356D01*
X0257280Y0009209D01*
X0257262Y0009062D01*
X0257241Y0008916D01*
X0257215Y0008770D01*
X0257185Y0008625D01*
X0257152Y0008481D01*
X0257114Y0008338D01*
X0257073Y0008196D01*
X0257028Y0008055D01*
X0256980Y0007915D01*
X0256927Y0007776D01*
X0256871Y0007639D01*
X0256811Y0007504D01*
X0256748Y0007370D01*
X0256681Y0007238D01*
X0256610Y0007108D01*
X0256536Y0006980D01*
X0256459Y0006854D01*
X0256378Y0006730D01*
X0256294Y0006608D01*
X0256207Y0006489D01*
X0256116Y0006372D01*
X0256022Y0006257D01*
X0255926Y0006145D01*
X0255826Y0006035D01*
X0255724Y0005929D01*
X0255618Y0005825D01*
X0255510Y0005724D01*
X0255399Y0005626D01*
X0255286Y0005530D01*
X0255170Y0005438D01*
X0255052Y0005349D01*
X0254931Y0005264D01*
X0254808Y0005181D01*
X0254683Y0005102D01*
X0254556Y0005026D01*
X0254427Y0004954D01*
X0254296Y0004885D01*
X0254163Y0004820D01*
X0254028Y0004759D01*
X0253892Y0004701D01*
X0253755Y0004646D01*
X0253616Y0004596D01*
X0253475Y0004549D01*
X0253334Y0004506D01*
X0253191Y0004466D01*
X0253047Y0004431D01*
X0252903Y0004399D01*
X0252757Y0004372D01*
X0252611Y0004348D01*
X0252464Y0004328D01*
X0252317Y0004312D01*
X0252170Y0004300D01*
X0252022Y0004292D01*
X0251874Y0004288D01*
X0251726Y0004288D01*
X0251578Y0004292D01*
X0251430Y0004300D01*
X0251283Y0004312D01*
X0251136Y0004328D01*
X0250989Y0004348D01*
X0250843Y0004372D01*
X0250697Y0004399D01*
X0250553Y0004431D01*
X0250409Y0004466D01*
X0250266Y0004506D01*
X0250125Y0004549D01*
X0249984Y0004596D01*
X0249845Y0004646D01*
X0249708Y0004701D01*
X0249572Y0004759D01*
X0249437Y0004820D01*
X0249304Y0004885D01*
X0249173Y0004954D01*
X0249044Y0005026D01*
X0248917Y0005102D01*
X0248792Y0005181D01*
X0248669Y0005264D01*
X0248548Y0005349D01*
X0248430Y0005438D01*
X0248314Y0005530D01*
X0248201Y0005626D01*
X0248090Y0005724D01*
X0247982Y0005825D01*
X0247876Y0005929D01*
X0247774Y0006035D01*
X0247674Y0006145D01*
X0247578Y0006257D01*
X0247484Y0006372D01*
X0247393Y0006489D01*
X0247306Y0006608D01*
X0247222Y0006730D01*
X0247141Y0006854D01*
X0247064Y0006980D01*
X0246990Y0007108D01*
X0246919Y0007238D01*
X0246852Y0007370D01*
X0246789Y0007504D01*
X0246729Y0007639D01*
X0246673Y0007776D01*
X0246620Y0007915D01*
X0246572Y0008055D01*
X0246527Y0008196D01*
X0246486Y0008338D01*
X0246448Y0008481D01*
X0246415Y0008625D01*
X0246385Y0008770D01*
X0246359Y0008916D01*
X0246338Y0009062D01*
X0246320Y0009209D01*
X0246306Y0009356D01*
X0246296Y0009504D01*
X0246290Y0009652D01*
X0246288Y0009800D01*
D11*
X0001800Y0001800D02*
X0001800Y0165501D01*
X0001800Y0165800D02*
X0259800Y0165800D01*
X0259800Y0001800D01*
X0259721Y0001800D02*
X0001800Y0001800D01*
X0193800Y0074800D02*
X0193800Y0082800D01*
X0250800Y0082800D01*
X0250800Y0074800D01*
X0193800Y0074800D01*
X0197800Y0076800D02*
X0197800Y0080800D01*
X0193800Y0082800D02*
X0193800Y0091800D01*
X0250800Y0091800D01*
X0250800Y0082800D01*
X0246800Y0080800D02*
X0246800Y0076800D01*
X0239800Y0076800D02*
X0239800Y0080800D01*
X0232800Y0080800D02*
X0232800Y0076800D01*
X0225800Y0076800D02*
X0225800Y0080800D01*
X0218800Y0080800D02*
X0218800Y0076800D01*
X0211800Y0076800D02*
X0211800Y0080800D01*
X0204800Y0080800D02*
X0204800Y0076800D01*
D12*
X0140600Y0029069D02*
X0139065Y0030604D01*
X0137531Y0029069D01*
X0137531Y0026000D01*
X0135996Y0026000D02*
X0135996Y0029069D01*
X0134461Y0030604D01*
X0132927Y0029069D01*
X0132927Y0026000D01*
X0132927Y0028302D02*
X0135996Y0028302D01*
X0137531Y0028302D02*
X0140600Y0028302D01*
X0140600Y0029069D02*
X0140600Y0026000D01*
X0126788Y0030604D02*
X0123719Y0030604D01*
X0125254Y0030604D02*
X0125254Y0026000D01*
X0122184Y0026767D02*
X0121417Y0026000D01*
X0119115Y0026000D01*
X0119115Y0025233D02*
X0119882Y0024465D01*
X0120650Y0024465D01*
X0119115Y0025233D02*
X0119115Y0029069D01*
X0117580Y0029069D02*
X0115278Y0029069D01*
X0114511Y0028302D01*
X0114511Y0026767D01*
X0115278Y0026000D01*
X0117580Y0026000D01*
X0117580Y0024465D02*
X0117580Y0029069D01*
X0112976Y0028302D02*
X0112209Y0029069D01*
X0110674Y0029069D01*
X0109907Y0028302D01*
X0109907Y0027535D01*
X0112976Y0027535D01*
X0112976Y0028302D02*
X0112976Y0026767D01*
X0112209Y0026000D01*
X0110674Y0026000D01*
X0122184Y0026767D02*
X0122184Y0029069D01*
X0095625Y0073000D02*
X0095625Y0076837D01*
X0094858Y0077604D01*
X0092556Y0076069D02*
X0093323Y0075302D01*
X0093323Y0073767D01*
X0092556Y0073000D01*
X0091021Y0073000D01*
X0090254Y0073767D01*
X0090254Y0075302D01*
X0091021Y0076069D01*
X0092556Y0076069D01*
X0094858Y0075302D02*
X0096392Y0075302D01*
X0088719Y0076069D02*
X0088719Y0073000D01*
X0088719Y0074535D02*
X0087184Y0076069D01*
X0086417Y0076069D01*
X0086417Y0078965D02*
X0085650Y0079733D01*
X0085650Y0083569D01*
X0087952Y0083569D01*
X0088719Y0082802D01*
X0088719Y0081267D01*
X0087952Y0080500D01*
X0085650Y0080500D01*
X0084115Y0080500D02*
X0084115Y0083569D01*
X0081813Y0083569D01*
X0081046Y0082802D01*
X0081046Y0080500D01*
X0079511Y0081267D02*
X0079511Y0082802D01*
X0078744Y0083569D01*
X0077209Y0083569D01*
X0076442Y0082802D01*
X0076442Y0082035D01*
X0079511Y0082035D01*
X0079511Y0081267D02*
X0078744Y0080500D01*
X0077209Y0080500D01*
X0074907Y0081267D02*
X0074907Y0082802D01*
X0074140Y0083569D01*
X0071838Y0083569D01*
X0071838Y0085104D02*
X0071838Y0080500D01*
X0074140Y0080500D01*
X0074907Y0081267D01*
X0077976Y0077604D02*
X0077209Y0076837D01*
X0077209Y0076069D01*
X0077976Y0075302D01*
X0080278Y0075302D01*
X0077976Y0075302D02*
X0077209Y0074535D01*
X0077209Y0073767D01*
X0077976Y0073000D01*
X0080278Y0073000D01*
X0080278Y0077604D01*
X0077976Y0077604D01*
X0075674Y0073767D02*
X0074907Y0073767D01*
X0074907Y0073000D01*
X0075674Y0073000D01*
X0075674Y0073767D01*
X0068769Y0077604D02*
X0065699Y0077604D01*
X0067234Y0077604D02*
X0067234Y0073000D01*
X0064165Y0073767D02*
X0063397Y0074535D01*
X0061095Y0074535D01*
X0061095Y0075302D02*
X0061095Y0073000D01*
X0063397Y0073000D01*
X0064165Y0073767D01*
X0063397Y0076069D02*
X0061863Y0076069D01*
X0061095Y0075302D01*
X0059561Y0076069D02*
X0059561Y0073000D01*
X0056491Y0073000D02*
X0056491Y0075302D01*
X0057259Y0076069D01*
X0059561Y0076069D01*
X0054957Y0073767D02*
X0054190Y0074535D01*
X0051888Y0074535D01*
X0051888Y0075302D02*
X0051888Y0073000D01*
X0054190Y0073000D01*
X0054957Y0073767D01*
X0054190Y0076069D02*
X0052655Y0076069D01*
X0051888Y0075302D01*
X0050353Y0075302D02*
X0049586Y0076069D01*
X0047284Y0076069D01*
X0048051Y0074535D02*
X0049586Y0074535D01*
X0050353Y0075302D01*
X0050353Y0073000D02*
X0048051Y0073000D01*
X0047284Y0073767D01*
X0048051Y0074535D01*
X0045749Y0075302D02*
X0044982Y0076069D01*
X0043447Y0076069D01*
X0042680Y0075302D01*
X0042680Y0073767D01*
X0043447Y0073000D01*
X0044982Y0073000D01*
X0045749Y0073767D01*
X0045749Y0075302D01*
X0041145Y0076069D02*
X0040378Y0076069D01*
X0040378Y0073000D01*
X0041145Y0073000D02*
X0039610Y0073000D01*
X0038076Y0073767D02*
X0037308Y0073000D01*
X0035007Y0073000D01*
X0035007Y0076069D01*
X0038076Y0076069D02*
X0038076Y0073767D01*
X0040378Y0077604D02*
X0040378Y0078371D01*
X0040378Y0080500D02*
X0038076Y0080500D01*
X0038076Y0082802D01*
X0038843Y0083569D01*
X0040378Y0083569D01*
X0040378Y0082035D02*
X0038076Y0082035D01*
X0036541Y0082035D02*
X0035007Y0083569D01*
X0034239Y0083569D01*
X0032705Y0082802D02*
X0032705Y0081267D01*
X0031937Y0080500D01*
X0030403Y0080500D01*
X0029635Y0082035D02*
X0032705Y0082035D01*
X0032705Y0082802D02*
X0031937Y0083569D01*
X0030403Y0083569D01*
X0029635Y0082802D01*
X0029635Y0082035D01*
X0036541Y0080500D02*
X0036541Y0083569D01*
X0040378Y0082035D02*
X0041145Y0081267D01*
X0040378Y0080500D01*
X0042680Y0080500D02*
X0044982Y0080500D01*
X0045749Y0081267D01*
X0045749Y0082802D01*
X0044982Y0083569D01*
X0042680Y0083569D01*
X0051888Y0082802D02*
X0051888Y0080500D01*
X0051888Y0082802D02*
X0052655Y0083569D01*
X0054190Y0083569D01*
X0054957Y0082802D01*
X0056491Y0083569D02*
X0058026Y0083569D01*
X0057259Y0084337D02*
X0057259Y0081267D01*
X0056491Y0080500D01*
X0054957Y0080500D02*
X0054957Y0085104D01*
X0060328Y0085104D02*
X0060328Y0085871D01*
X0060328Y0083569D02*
X0060328Y0080500D01*
X0061095Y0080500D02*
X0059561Y0080500D01*
X0062630Y0081267D02*
X0062630Y0083569D01*
X0061095Y0083569D02*
X0060328Y0083569D01*
X0062630Y0081267D02*
X0063397Y0080500D01*
X0064165Y0081267D01*
X0064932Y0080500D01*
X0065699Y0081267D01*
X0065699Y0083569D01*
X0086417Y0078965D02*
X0087184Y0078965D01*
X0090254Y0080500D02*
X0091788Y0080500D01*
X0091021Y0080500D02*
X0091021Y0083569D01*
X0091788Y0083569D01*
X0093323Y0083569D02*
X0095625Y0083569D01*
X0096392Y0082802D01*
X0095625Y0082035D01*
X0094090Y0082035D01*
X0093323Y0081267D01*
X0094090Y0080500D01*
X0096392Y0080500D01*
X0097927Y0082035D02*
X0097927Y0082802D01*
X0098694Y0083569D01*
X0100229Y0083569D01*
X0100996Y0082802D01*
X0100996Y0081267D01*
X0100229Y0080500D01*
X0098694Y0080500D01*
X0097927Y0082035D02*
X0100996Y0082035D01*
X0102531Y0081267D02*
X0102531Y0084337D01*
X0103298Y0085104D01*
X0105600Y0085104D01*
X0105600Y0080500D01*
X0103298Y0080500D01*
X0102531Y0081267D01*
X0091021Y0085104D02*
X0091021Y0085871D01*
X0013371Y0128490D02*
X0012604Y0128490D01*
X0011069Y0128490D02*
X0008000Y0128490D01*
X0008000Y0127723D02*
X0008000Y0129257D01*
X0008767Y0130792D02*
X0010302Y0130792D01*
X0011069Y0131559D01*
X0011069Y0133094D01*
X0010302Y0133861D01*
X0009535Y0133861D01*
X0009535Y0130792D01*
X0008767Y0130792D02*
X0008000Y0131559D01*
X0008000Y0133094D01*
X0008000Y0135396D02*
X0008000Y0137698D01*
X0008767Y0138465D01*
X0009535Y0137698D01*
X0009535Y0136163D01*
X0010302Y0135396D01*
X0011069Y0136163D01*
X0011069Y0138465D01*
X0011069Y0128490D02*
X0011069Y0127723D01*
X0011069Y0126188D02*
X0011069Y0125421D01*
X0009535Y0123886D01*
X0011069Y0123886D02*
X0008000Y0123886D01*
X0009535Y0122351D02*
X0009535Y0119282D01*
X0010302Y0119282D02*
X0011069Y0120049D01*
X0011069Y0121584D01*
X0010302Y0122351D01*
X0009535Y0122351D01*
X0008000Y0121584D02*
X0008000Y0120049D01*
X0008767Y0119282D01*
X0010302Y0119282D01*
X0011069Y0117747D02*
X0011069Y0116213D01*
X0011837Y0116980D02*
X0008767Y0116980D01*
X0008000Y0117747D01*
X0008000Y0114678D02*
X0008767Y0113911D01*
X0011837Y0113911D01*
X0011069Y0113144D02*
X0011069Y0114678D01*
X0010302Y0111609D02*
X0008000Y0111609D01*
X0008000Y0109307D01*
X0008767Y0108540D01*
X0009535Y0109307D01*
X0009535Y0111609D01*
X0010302Y0111609D02*
X0011069Y0110842D01*
X0011069Y0109307D01*
X0011069Y0107005D02*
X0010302Y0106238D01*
X0010302Y0103936D01*
X0010302Y0106238D02*
X0009535Y0107005D01*
X0008767Y0107005D01*
X0008000Y0106238D01*
X0008000Y0103936D01*
X0012604Y0103936D01*
X0012604Y0106238D01*
X0011837Y0107005D01*
X0011069Y0107005D01*
X0011069Y0097797D02*
X0009535Y0097797D01*
X0008000Y0096262D01*
X0009535Y0094728D02*
X0012604Y0094728D01*
X0012604Y0096262D02*
X0011069Y0097797D01*
X0009535Y0094728D02*
X0008000Y0093193D01*
X0009535Y0091659D01*
X0012604Y0091659D01*
X0012604Y0090124D02*
X0012604Y0087055D01*
X0010302Y0087055D01*
X0011069Y0088589D01*
X0011069Y0089357D01*
X0010302Y0090124D01*
X0008767Y0090124D01*
X0008000Y0089357D01*
X0008000Y0087822D01*
X0008767Y0087055D01*
X0008767Y0085520D02*
X0008000Y0085520D01*
X0008000Y0084753D01*
X0008767Y0084753D01*
X0008767Y0085520D01*
X0008000Y0083218D02*
X0008000Y0080149D01*
X0008000Y0081683D02*
X0012604Y0081683D01*
X0011069Y0080149D01*
X0012604Y0078614D02*
X0011069Y0077079D01*
X0009535Y0077079D01*
X0008000Y0078614D01*
X0008000Y0075545D02*
X0011069Y0075545D01*
X0012604Y0074010D01*
X0011069Y0072476D01*
X0008000Y0072476D01*
X0008000Y0070941D02*
X0011069Y0070941D01*
X0012604Y0069406D01*
X0011069Y0067872D01*
X0008000Y0067872D01*
X0010302Y0067872D02*
X0010302Y0070941D01*
X0010302Y0072476D02*
X0010302Y0075545D01*
X0011069Y0061733D02*
X0008000Y0058664D01*
X0011069Y0058664D02*
X0008000Y0061733D01*
X0008000Y0052525D02*
X0008000Y0049456D01*
X0011069Y0052525D01*
X0011837Y0052525D01*
X0012604Y0051758D01*
X0012604Y0050223D01*
X0011837Y0049456D01*
X0010302Y0043317D02*
X0009535Y0043317D01*
X0009535Y0040248D01*
X0010302Y0040248D02*
X0011069Y0041015D01*
X0011069Y0042550D01*
X0010302Y0043317D01*
X0008000Y0042550D02*
X0008000Y0041015D01*
X0008767Y0040248D01*
X0010302Y0040248D01*
X0011069Y0038713D02*
X0011069Y0036411D01*
X0010302Y0035644D01*
X0009535Y0036411D01*
X0009535Y0037946D01*
X0008767Y0038713D01*
X0008000Y0037946D01*
X0008000Y0035644D01*
X0008767Y0034109D02*
X0012604Y0034109D01*
X0008767Y0034109D02*
X0008000Y0033342D01*
X0008000Y0031808D01*
X0008767Y0031040D01*
X0012604Y0031040D01*
X0119580Y0136465D02*
X0119580Y0141069D01*
X0117278Y0141069D01*
X0116511Y0140302D01*
X0116511Y0138767D01*
X0117278Y0138000D01*
X0119580Y0138000D01*
X0121115Y0138000D02*
X0123417Y0138000D01*
X0124184Y0138767D01*
X0124184Y0141069D01*
X0125719Y0142604D02*
X0128788Y0142604D01*
X0127254Y0142604D02*
X0127254Y0138000D01*
X0122650Y0136465D02*
X0121882Y0136465D01*
X0121115Y0137233D01*
X0121115Y0141069D01*
X0114976Y0140302D02*
X0114976Y0138767D01*
X0114209Y0138000D01*
X0112674Y0138000D01*
X0111907Y0139535D02*
X0114976Y0139535D01*
X0114976Y0140302D02*
X0114209Y0141069D01*
X0112674Y0141069D01*
X0111907Y0140302D01*
X0111907Y0139535D01*
X0113120Y0154000D02*
X0113120Y0158604D01*
X0111586Y0157069D01*
X0110051Y0158604D01*
X0110051Y0154000D01*
X0108516Y0154767D02*
X0107749Y0154000D01*
X0106214Y0154000D01*
X0105447Y0154767D01*
X0105447Y0155535D01*
X0106214Y0156302D01*
X0108516Y0156302D01*
X0108516Y0154767D01*
X0108516Y0156302D02*
X0106982Y0157837D01*
X0105447Y0158604D01*
X0103912Y0157837D02*
X0103912Y0157069D01*
X0103145Y0156302D01*
X0100843Y0156302D01*
X0100843Y0154767D02*
X0100843Y0157837D01*
X0101610Y0158604D01*
X0103145Y0158604D01*
X0103912Y0157837D01*
X0103912Y0154767D02*
X0103145Y0154000D01*
X0101610Y0154000D01*
X0100843Y0154767D01*
X0094705Y0154000D02*
X0094705Y0158604D01*
X0091635Y0154000D01*
X0091635Y0158604D01*
X0089333Y0157069D02*
X0090101Y0156302D01*
X0090101Y0154767D01*
X0089333Y0154000D01*
X0087799Y0154000D01*
X0087031Y0154767D01*
X0087031Y0156302D01*
X0087799Y0157069D01*
X0089333Y0157069D01*
X0085497Y0156302D02*
X0085497Y0154767D01*
X0084729Y0154000D01*
X0082427Y0154000D01*
X0082427Y0158604D01*
X0082427Y0157069D02*
X0084729Y0157069D01*
X0085497Y0156302D01*
X0080893Y0156302D02*
X0080893Y0154767D01*
X0080125Y0154000D01*
X0078591Y0154000D01*
X0077823Y0155535D02*
X0080893Y0155535D01*
X0080893Y0156302D02*
X0080125Y0157069D01*
X0078591Y0157069D01*
X0077823Y0156302D01*
X0077823Y0155535D01*
X0114655Y0158604D02*
X0117724Y0158604D01*
X0117724Y0154000D01*
X0119259Y0154000D02*
X0120793Y0155535D01*
X0120026Y0155535D02*
X0122328Y0155535D01*
X0122328Y0154000D02*
X0122328Y0158604D01*
X0120026Y0158604D01*
X0119259Y0157837D01*
X0119259Y0156302D01*
X0120026Y0155535D01*
X0117724Y0156302D02*
X0116190Y0156302D01*
X0128467Y0157069D02*
X0130769Y0157069D01*
X0131536Y0156302D01*
X0130769Y0155535D01*
X0129234Y0155535D01*
X0128467Y0154767D01*
X0129234Y0154000D01*
X0131536Y0154000D01*
X0135373Y0154000D02*
X0135373Y0157069D01*
X0135373Y0155535D02*
X0133838Y0157069D01*
X0133071Y0157069D01*
X0136907Y0156302D02*
X0136907Y0154767D01*
X0137674Y0154000D01*
X0139209Y0154000D01*
X0139976Y0154767D01*
X0139976Y0156302D01*
X0139209Y0157069D01*
X0137674Y0157069D01*
X0136907Y0156302D01*
X0141511Y0157069D02*
X0143813Y0157069D01*
X0144580Y0156302D01*
X0143813Y0155535D01*
X0142278Y0155535D01*
X0141511Y0154767D01*
X0142278Y0154000D01*
X0144580Y0154000D01*
X0146115Y0154000D02*
X0146115Y0156302D01*
X0146882Y0157069D01*
X0149184Y0157069D01*
X0149184Y0154000D01*
X0150719Y0155535D02*
X0153788Y0155535D01*
X0153788Y0156302D02*
X0153788Y0154767D01*
X0153021Y0154000D01*
X0151486Y0154000D01*
X0150719Y0155535D02*
X0150719Y0156302D01*
X0151486Y0157069D01*
X0153021Y0157069D01*
X0153788Y0156302D01*
X0155323Y0155535D02*
X0155323Y0154767D01*
X0156090Y0154000D01*
X0157625Y0154000D01*
X0158392Y0154767D01*
X0159927Y0154000D02*
X0162229Y0154000D01*
X0162996Y0154767D01*
X0162996Y0157069D01*
X0164531Y0158604D02*
X0164531Y0154000D01*
X0161461Y0152465D02*
X0160694Y0152465D01*
X0159927Y0153233D01*
X0159927Y0157069D01*
X0158392Y0157069D02*
X0158392Y0157837D01*
X0157625Y0158604D01*
X0156090Y0158604D01*
X0155323Y0157837D01*
X0156090Y0156302D02*
X0155323Y0155535D01*
X0156090Y0156302D02*
X0157625Y0156302D01*
X0158392Y0157069D01*
X0164531Y0158604D02*
X0166065Y0157069D01*
X0167600Y0158604D01*
X0167600Y0154000D01*
X0142600Y0141069D02*
X0142600Y0138000D01*
X0142600Y0140302D02*
X0139531Y0140302D01*
X0139531Y0141069D02*
X0139531Y0138000D01*
X0137996Y0138000D02*
X0137996Y0141069D01*
X0136461Y0142604D01*
X0134927Y0141069D01*
X0134927Y0138000D01*
X0134927Y0140302D02*
X0137996Y0140302D01*
X0139531Y0141069D02*
X0141065Y0142604D01*
X0142600Y0141069D01*
D13*
X0206285Y0099401D02*
X0206285Y0098917D01*
X0208220Y0098917D01*
X0208220Y0098434D02*
X0208220Y0099401D01*
X0207737Y0099885D01*
X0206769Y0099885D01*
X0206285Y0099401D01*
X0206769Y0097950D02*
X0207737Y0097950D01*
X0208220Y0098434D01*
X0209232Y0097950D02*
X0210683Y0097950D01*
X0211167Y0098434D01*
X0211167Y0099401D01*
X0210683Y0099885D01*
X0209232Y0099885D01*
X0209232Y0100852D02*
X0209232Y0097950D01*
X0212179Y0098434D02*
X0212179Y0099401D01*
X0212662Y0099885D01*
X0213630Y0099885D01*
X0214114Y0099401D01*
X0214114Y0098434D01*
X0213630Y0097950D01*
X0212662Y0097950D01*
X0212179Y0098434D01*
X0215125Y0098434D02*
X0215609Y0097950D01*
X0216576Y0097950D01*
X0217060Y0098434D01*
X0217060Y0100369D01*
X0216576Y0100852D01*
X0215609Y0100852D01*
X0215125Y0100369D01*
X0221018Y0100369D02*
X0221018Y0098434D01*
X0221502Y0097950D01*
X0222953Y0097950D01*
X0222953Y0100852D01*
X0221502Y0100852D01*
X0221018Y0100369D01*
X0223950Y0100852D02*
X0224917Y0100852D01*
X0224434Y0100852D02*
X0224434Y0097950D01*
X0224917Y0097950D02*
X0223950Y0097950D01*
X0228875Y0098917D02*
X0230810Y0098917D01*
X0230810Y0098434D02*
X0230810Y0099401D01*
X0230327Y0099885D01*
X0229359Y0099885D01*
X0228875Y0099401D01*
X0228875Y0098917D01*
X0229359Y0097950D02*
X0230327Y0097950D01*
X0230810Y0098434D01*
X0231822Y0097950D02*
X0233273Y0097950D01*
X0233757Y0098434D01*
X0233757Y0099401D01*
X0233273Y0099885D01*
X0231822Y0099885D01*
X0231822Y0100852D02*
X0231822Y0097950D01*
X0234769Y0098434D02*
X0234769Y0099401D01*
X0235252Y0099885D01*
X0236220Y0099885D01*
X0236703Y0099401D01*
X0236703Y0098434D01*
X0236220Y0097950D01*
X0235252Y0097950D01*
X0234769Y0098434D01*
X0237715Y0097950D02*
X0237715Y0100852D01*
X0239650Y0100852D02*
X0237715Y0097950D01*
X0239650Y0097950D02*
X0239650Y0100852D01*
X0245769Y0096852D02*
X0245769Y0093950D01*
X0247703Y0096852D01*
X0247703Y0093950D01*
X0248715Y0094434D02*
X0248715Y0096369D01*
X0249199Y0096852D01*
X0250166Y0096852D01*
X0250650Y0096369D01*
X0250650Y0094434D01*
X0250166Y0093950D01*
X0249199Y0093950D01*
X0248715Y0094434D01*
X0248166Y0088852D02*
X0248650Y0088369D01*
X0248650Y0086434D01*
X0248166Y0085950D01*
X0247199Y0085950D01*
X0246715Y0086434D01*
X0245703Y0086434D02*
X0243769Y0088369D01*
X0243769Y0086434D01*
X0244252Y0085950D01*
X0245220Y0085950D01*
X0245703Y0086434D01*
X0245703Y0088369D01*
X0245220Y0088852D01*
X0244252Y0088852D01*
X0243769Y0088369D01*
X0242757Y0088852D02*
X0242757Y0085950D01*
X0241775Y0086434D02*
X0241291Y0085950D01*
X0240324Y0085950D01*
X0239840Y0086434D01*
X0238828Y0085950D02*
X0236893Y0085950D01*
X0237861Y0085950D02*
X0237861Y0088852D01*
X0238828Y0087885D01*
X0239840Y0088369D02*
X0240324Y0088852D01*
X0241291Y0088852D01*
X0241775Y0088369D01*
X0241775Y0086434D01*
X0246715Y0088369D02*
X0247199Y0088852D01*
X0248166Y0088852D01*
X0235882Y0088852D02*
X0235882Y0085950D01*
X0234900Y0086434D02*
X0234900Y0088369D01*
X0234416Y0088852D01*
X0233448Y0088852D01*
X0232965Y0088369D01*
X0231953Y0088369D02*
X0231469Y0088852D01*
X0230502Y0088852D01*
X0230018Y0088369D01*
X0230018Y0087885D01*
X0231953Y0085950D01*
X0230018Y0085950D01*
X0229007Y0085950D02*
X0229007Y0088852D01*
X0228024Y0088369D02*
X0228024Y0086434D01*
X0227541Y0085950D01*
X0226573Y0085950D01*
X0226089Y0086434D01*
X0225078Y0086434D02*
X0224594Y0085950D01*
X0223627Y0085950D01*
X0223143Y0086434D01*
X0223143Y0086917D01*
X0223627Y0087401D01*
X0224110Y0087401D01*
X0223627Y0087401D02*
X0223143Y0087885D01*
X0223143Y0088369D01*
X0223627Y0088852D01*
X0224594Y0088852D01*
X0225078Y0088369D01*
X0226089Y0088369D02*
X0226573Y0088852D01*
X0227541Y0088852D01*
X0228024Y0088369D01*
X0232965Y0086434D02*
X0233448Y0085950D01*
X0234416Y0085950D01*
X0234900Y0086434D01*
X0222131Y0085950D02*
X0222131Y0088852D01*
X0221149Y0088369D02*
X0220665Y0088852D01*
X0219698Y0088852D01*
X0219214Y0088369D01*
X0218203Y0087401D02*
X0216268Y0087401D01*
X0216751Y0085950D02*
X0216751Y0088852D01*
X0218203Y0087401D01*
X0219214Y0086434D02*
X0219698Y0085950D01*
X0220665Y0085950D01*
X0221149Y0086434D01*
X0221149Y0088369D01*
X0215256Y0088852D02*
X0215256Y0085950D01*
X0214274Y0086434D02*
X0214274Y0088369D01*
X0213790Y0088852D01*
X0212823Y0088852D01*
X0212339Y0088369D01*
X0211327Y0088852D02*
X0211327Y0087401D01*
X0210360Y0087885D01*
X0209876Y0087885D01*
X0209392Y0087401D01*
X0209392Y0086434D01*
X0209876Y0085950D01*
X0210844Y0085950D01*
X0211327Y0086434D01*
X0212339Y0086434D02*
X0212823Y0085950D01*
X0213790Y0085950D01*
X0214274Y0086434D01*
X0211327Y0088852D02*
X0209392Y0088852D01*
X0208381Y0088852D02*
X0208381Y0085950D01*
X0207399Y0086434D02*
X0206915Y0085950D01*
X0205948Y0085950D01*
X0205464Y0086434D01*
X0204452Y0086434D02*
X0203968Y0085950D01*
X0203001Y0085950D01*
X0202517Y0086434D01*
X0202517Y0086917D01*
X0203001Y0087401D01*
X0204452Y0087401D01*
X0204452Y0086434D01*
X0204452Y0087401D02*
X0203485Y0088369D01*
X0202517Y0088852D01*
X0201506Y0088852D02*
X0201506Y0085950D01*
X0200524Y0086434D02*
X0200524Y0088369D01*
X0200040Y0088852D01*
X0199072Y0088852D01*
X0198589Y0088369D01*
X0197577Y0088852D02*
X0195642Y0088852D01*
X0195642Y0088369D01*
X0197577Y0086434D01*
X0197577Y0085950D01*
X0198589Y0086434D02*
X0199072Y0085950D01*
X0200040Y0085950D01*
X0200524Y0086434D01*
X0205464Y0088369D02*
X0205948Y0088852D01*
X0206915Y0088852D01*
X0207399Y0088369D01*
X0207399Y0086434D01*
X0184150Y0079852D02*
X0184150Y0076950D01*
X0182215Y0076950D02*
X0182215Y0079852D01*
X0181203Y0078401D02*
X0180720Y0078885D01*
X0179752Y0078885D01*
X0179269Y0078401D01*
X0179269Y0077434D01*
X0179752Y0076950D01*
X0180720Y0076950D01*
X0181203Y0077434D01*
X0181203Y0078401D01*
X0182215Y0076950D02*
X0184150Y0079852D01*
X0178257Y0078401D02*
X0177773Y0078885D01*
X0176322Y0078885D01*
X0176322Y0079852D02*
X0176322Y0076950D01*
X0177773Y0076950D01*
X0178257Y0077434D01*
X0178257Y0078401D01*
X0175310Y0078401D02*
X0174827Y0078885D01*
X0173859Y0078885D01*
X0173375Y0078401D01*
X0173375Y0077917D01*
X0175310Y0077917D01*
X0175310Y0077434D02*
X0175310Y0078401D01*
X0175310Y0077434D02*
X0174827Y0076950D01*
X0173859Y0076950D01*
X0169417Y0076950D02*
X0168450Y0076950D01*
X0168934Y0076950D02*
X0168934Y0079852D01*
X0169417Y0079852D02*
X0168450Y0079852D01*
X0167453Y0079852D02*
X0166002Y0079852D01*
X0165518Y0079369D01*
X0165518Y0077434D01*
X0166002Y0076950D01*
X0167453Y0076950D01*
X0167453Y0079852D01*
X0173822Y0086950D02*
X0175757Y0086950D01*
X0173822Y0088885D01*
X0173822Y0089369D01*
X0174306Y0089852D01*
X0175273Y0089852D01*
X0175757Y0089369D01*
X0176769Y0089852D02*
X0176769Y0086950D01*
X0177736Y0087917D01*
X0178703Y0086950D01*
X0178703Y0089852D01*
X0179715Y0089369D02*
X0180199Y0089852D01*
X0181166Y0089852D01*
X0181650Y0089369D01*
X0181650Y0088885D01*
X0181166Y0088401D01*
X0180199Y0088401D01*
X0179715Y0087917D01*
X0179715Y0087434D01*
X0180199Y0086950D01*
X0181166Y0086950D01*
X0181650Y0087434D01*
X0242822Y0072852D02*
X0244757Y0072852D01*
X0244757Y0069950D01*
X0244757Y0071401D02*
X0243789Y0071401D01*
X0245769Y0072852D02*
X0247703Y0072852D01*
X0247703Y0069950D01*
X0248715Y0070434D02*
X0248715Y0072369D01*
X0249199Y0072852D01*
X0250166Y0072852D01*
X0250650Y0072369D01*
X0250650Y0070434D01*
X0250166Y0069950D01*
X0249199Y0069950D01*
X0248715Y0070434D01*
X0247703Y0071401D02*
X0246736Y0071401D01*
D14*
X0231300Y0053800D02*
X0193800Y0053800D01*
X0231300Y0053800D02*
X0231300Y0015800D01*
X0193800Y0015800D01*
X0055800Y0015800D02*
X0018300Y0015800D01*
X0018300Y0053800D01*
X0055800Y0053800D01*
X0055800Y0113800D02*
X0018300Y0113800D01*
X0018300Y0151800D01*
X0055800Y0151800D01*
X0193800Y0151800D02*
X0231300Y0151800D01*
X0231300Y0113800D01*
X0193800Y0113800D01*
D15*
X0164800Y0119800D02*
X0164800Y0145800D01*
X0091800Y0145800D01*
X0091800Y0135500D01*
X0086800Y0135500D01*
X0086800Y0130500D01*
X0091800Y0130500D01*
X0091800Y0135500D01*
X0096300Y0132800D02*
X0101300Y0132800D01*
X0098800Y0130300D02*
X0098800Y0135300D01*
X0091800Y0130500D02*
X0091800Y0119800D01*
X0164800Y0119800D01*
X0160300Y0132800D02*
X0155300Y0132800D01*
X0157800Y0047800D02*
X0084800Y0047800D01*
X0084800Y0021800D01*
X0157800Y0021800D01*
X0157800Y0032100D01*
X0162800Y0032100D01*
X0162800Y0037100D01*
X0157800Y0037100D01*
X0157800Y0032100D01*
X0153300Y0034800D02*
X0148300Y0034800D01*
X0150800Y0037300D02*
X0150800Y0032300D01*
X0157800Y0037100D02*
X0157800Y0047800D01*
X0094300Y0034800D02*
X0089300Y0034800D01*
D16*
X0117800Y0074300D02*
X0117800Y0077300D01*
X0117800Y0090300D01*
X0117800Y0093300D01*
X0163800Y0093300D01*
X0163800Y0090300D01*
X0163800Y0077300D01*
X0163800Y0074300D01*
X0117800Y0074300D01*
D17*
X0121500Y0076300D02*
X0121500Y0091300D01*
X0125100Y0091300D01*
X0125100Y0076300D01*
X0126500Y0076300D02*
X0126500Y0091300D01*
X0130100Y0091300D01*
X0130100Y0076300D01*
X0131500Y0076300D02*
X0131500Y0091300D01*
X0135100Y0091300D01*
X0135100Y0076300D01*
X0136500Y0076300D02*
X0136500Y0091300D01*
X0140100Y0091300D01*
X0140100Y0076300D01*
X0141500Y0076300D02*
X0141500Y0091300D01*
X0145100Y0091300D01*
X0145100Y0076300D01*
X0146500Y0076300D02*
X0146500Y0091300D01*
X0150100Y0091300D01*
X0150100Y0076300D01*
X0151500Y0076300D02*
X0151500Y0091300D01*
X0155100Y0091300D01*
X0155100Y0076300D01*
X0156500Y0076300D02*
X0156500Y0091300D01*
X0160100Y0091300D01*
X0160100Y0076300D01*
D18*
X0156500Y0076300D01*
X0155100Y0076300D02*
X0151500Y0076300D01*
X0150100Y0076300D02*
X0146500Y0076300D01*
X0145100Y0076300D02*
X0141500Y0076300D01*
X0140100Y0076300D02*
X0136500Y0076300D01*
X0135100Y0076300D02*
X0131500Y0076300D01*
X0130100Y0076300D02*
X0126500Y0076300D01*
X0125100Y0076300D02*
X0121500Y0076300D01*
D19*
X0123300Y0078050D03*
X0123300Y0080550D03*
X0123300Y0083050D03*
X0128300Y0083050D03*
X0128300Y0080550D03*
X0133300Y0080550D03*
X0133300Y0083050D03*
X0138300Y0083050D03*
X0138300Y0080550D03*
X0138300Y0078050D03*
X0133300Y0078050D03*
X0128300Y0078050D03*
X0143300Y0078050D03*
X0143300Y0080550D03*
X0143300Y0083050D03*
X0148300Y0083050D03*
X0148300Y0080550D03*
X0148300Y0078050D03*
X0153300Y0078050D03*
X0153300Y0080550D03*
X0153300Y0083050D03*
X0158300Y0083050D03*
X0158300Y0080550D03*
X0158300Y0078050D03*
M02*
