G75*
%MOIN*%
%OFA0B0*%
%FSLAX25Y25*%
%IPPOS*%
%LPD*%
%AMOC8*
5,1,8,0,0,1.08239X$1,22.5*
%
%ADD10C,0.00000*%
%ADD11C,0.01200*%
%ADD12C,0.00400*%
%ADD13C,0.00300*%
%ADD14C,0.01000*%
%ADD15C,0.01600*%
%ADD16C,0.00800*%
%ADD17C,0.00700*%
%ADD18C,0.00600*%
%ADD19R,0.02000X0.01500*%
D10*
X0003469Y0008800D02*
X0003471Y0008931D01*
X0003477Y0009063D01*
X0003487Y0009194D01*
X0003501Y0009325D01*
X0003519Y0009455D01*
X0003541Y0009584D01*
X0003566Y0009713D01*
X0003596Y0009841D01*
X0003630Y0009968D01*
X0003667Y0010095D01*
X0003708Y0010219D01*
X0003753Y0010343D01*
X0003802Y0010465D01*
X0003854Y0010586D01*
X0003910Y0010704D01*
X0003970Y0010822D01*
X0004033Y0010937D01*
X0004100Y0011050D01*
X0004170Y0011162D01*
X0004243Y0011271D01*
X0004319Y0011377D01*
X0004399Y0011482D01*
X0004482Y0011584D01*
X0004568Y0011683D01*
X0004657Y0011780D01*
X0004749Y0011874D01*
X0004844Y0011965D01*
X0004941Y0012054D01*
X0005041Y0012139D01*
X0005144Y0012221D01*
X0005249Y0012300D01*
X0005356Y0012376D01*
X0005466Y0012448D01*
X0005578Y0012517D01*
X0005692Y0012583D01*
X0005807Y0012645D01*
X0005925Y0012704D01*
X0006044Y0012759D01*
X0006165Y0012811D01*
X0006288Y0012858D01*
X0006412Y0012902D01*
X0006537Y0012943D01*
X0006663Y0012979D01*
X0006791Y0013012D01*
X0006919Y0013040D01*
X0007048Y0013065D01*
X0007178Y0013086D01*
X0007308Y0013103D01*
X0007439Y0013116D01*
X0007570Y0013125D01*
X0007701Y0013130D01*
X0007833Y0013131D01*
X0007964Y0013128D01*
X0008096Y0013121D01*
X0008227Y0013110D01*
X0008357Y0013095D01*
X0008487Y0013076D01*
X0008617Y0013053D01*
X0008745Y0013027D01*
X0008873Y0012996D01*
X0009000Y0012961D01*
X0009126Y0012923D01*
X0009250Y0012881D01*
X0009374Y0012835D01*
X0009495Y0012785D01*
X0009615Y0012732D01*
X0009734Y0012675D01*
X0009851Y0012615D01*
X0009965Y0012551D01*
X0010078Y0012483D01*
X0010189Y0012412D01*
X0010298Y0012338D01*
X0010404Y0012261D01*
X0010508Y0012180D01*
X0010609Y0012097D01*
X0010708Y0012010D01*
X0010804Y0011920D01*
X0010897Y0011827D01*
X0010988Y0011732D01*
X0011075Y0011634D01*
X0011160Y0011533D01*
X0011241Y0011430D01*
X0011319Y0011324D01*
X0011394Y0011216D01*
X0011466Y0011106D01*
X0011534Y0010994D01*
X0011599Y0010880D01*
X0011660Y0010763D01*
X0011718Y0010645D01*
X0011772Y0010525D01*
X0011823Y0010404D01*
X0011870Y0010281D01*
X0011913Y0010157D01*
X0011952Y0010032D01*
X0011988Y0009905D01*
X0012019Y0009777D01*
X0012047Y0009649D01*
X0012071Y0009520D01*
X0012091Y0009390D01*
X0012107Y0009259D01*
X0012119Y0009128D01*
X0012127Y0008997D01*
X0012131Y0008866D01*
X0012131Y0008734D01*
X0012127Y0008603D01*
X0012119Y0008472D01*
X0012107Y0008341D01*
X0012091Y0008210D01*
X0012071Y0008080D01*
X0012047Y0007951D01*
X0012019Y0007823D01*
X0011988Y0007695D01*
X0011952Y0007568D01*
X0011913Y0007443D01*
X0011870Y0007319D01*
X0011823Y0007196D01*
X0011772Y0007075D01*
X0011718Y0006955D01*
X0011660Y0006837D01*
X0011599Y0006720D01*
X0011534Y0006606D01*
X0011466Y0006494D01*
X0011394Y0006384D01*
X0011319Y0006276D01*
X0011241Y0006170D01*
X0011160Y0006067D01*
X0011075Y0005966D01*
X0010988Y0005868D01*
X0010897Y0005773D01*
X0010804Y0005680D01*
X0010708Y0005590D01*
X0010609Y0005503D01*
X0010508Y0005420D01*
X0010404Y0005339D01*
X0010298Y0005262D01*
X0010189Y0005188D01*
X0010078Y0005117D01*
X0009966Y0005049D01*
X0009851Y0004985D01*
X0009734Y0004925D01*
X0009615Y0004868D01*
X0009495Y0004815D01*
X0009374Y0004765D01*
X0009250Y0004719D01*
X0009126Y0004677D01*
X0009000Y0004639D01*
X0008873Y0004604D01*
X0008745Y0004573D01*
X0008617Y0004547D01*
X0008487Y0004524D01*
X0008357Y0004505D01*
X0008227Y0004490D01*
X0008096Y0004479D01*
X0007964Y0004472D01*
X0007833Y0004469D01*
X0007701Y0004470D01*
X0007570Y0004475D01*
X0007439Y0004484D01*
X0007308Y0004497D01*
X0007178Y0004514D01*
X0007048Y0004535D01*
X0006919Y0004560D01*
X0006791Y0004588D01*
X0006663Y0004621D01*
X0006537Y0004657D01*
X0006412Y0004698D01*
X0006288Y0004742D01*
X0006165Y0004789D01*
X0006044Y0004841D01*
X0005925Y0004896D01*
X0005807Y0004955D01*
X0005692Y0005017D01*
X0005578Y0005083D01*
X0005466Y0005152D01*
X0005356Y0005224D01*
X0005249Y0005300D01*
X0005144Y0005379D01*
X0005041Y0005461D01*
X0004941Y0005546D01*
X0004844Y0005635D01*
X0004749Y0005726D01*
X0004657Y0005820D01*
X0004568Y0005917D01*
X0004482Y0006016D01*
X0004399Y0006118D01*
X0004319Y0006223D01*
X0004243Y0006329D01*
X0004170Y0006438D01*
X0004100Y0006550D01*
X0004033Y0006663D01*
X0003970Y0006778D01*
X0003910Y0006896D01*
X0003854Y0007014D01*
X0003802Y0007135D01*
X0003753Y0007257D01*
X0003708Y0007381D01*
X0003667Y0007505D01*
X0003630Y0007632D01*
X0003596Y0007759D01*
X0003566Y0007887D01*
X0003541Y0008016D01*
X0003519Y0008145D01*
X0003501Y0008275D01*
X0003487Y0008406D01*
X0003477Y0008537D01*
X0003471Y0008669D01*
X0003469Y0008800D01*
X0003469Y0159800D02*
X0003471Y0159931D01*
X0003477Y0160063D01*
X0003487Y0160194D01*
X0003501Y0160325D01*
X0003519Y0160455D01*
X0003541Y0160584D01*
X0003566Y0160713D01*
X0003596Y0160841D01*
X0003630Y0160968D01*
X0003667Y0161095D01*
X0003708Y0161219D01*
X0003753Y0161343D01*
X0003802Y0161465D01*
X0003854Y0161586D01*
X0003910Y0161704D01*
X0003970Y0161822D01*
X0004033Y0161937D01*
X0004100Y0162050D01*
X0004170Y0162162D01*
X0004243Y0162271D01*
X0004319Y0162377D01*
X0004399Y0162482D01*
X0004482Y0162584D01*
X0004568Y0162683D01*
X0004657Y0162780D01*
X0004749Y0162874D01*
X0004844Y0162965D01*
X0004941Y0163054D01*
X0005041Y0163139D01*
X0005144Y0163221D01*
X0005249Y0163300D01*
X0005356Y0163376D01*
X0005466Y0163448D01*
X0005578Y0163517D01*
X0005692Y0163583D01*
X0005807Y0163645D01*
X0005925Y0163704D01*
X0006044Y0163759D01*
X0006165Y0163811D01*
X0006288Y0163858D01*
X0006412Y0163902D01*
X0006537Y0163943D01*
X0006663Y0163979D01*
X0006791Y0164012D01*
X0006919Y0164040D01*
X0007048Y0164065D01*
X0007178Y0164086D01*
X0007308Y0164103D01*
X0007439Y0164116D01*
X0007570Y0164125D01*
X0007701Y0164130D01*
X0007833Y0164131D01*
X0007964Y0164128D01*
X0008096Y0164121D01*
X0008227Y0164110D01*
X0008357Y0164095D01*
X0008487Y0164076D01*
X0008617Y0164053D01*
X0008745Y0164027D01*
X0008873Y0163996D01*
X0009000Y0163961D01*
X0009126Y0163923D01*
X0009250Y0163881D01*
X0009374Y0163835D01*
X0009495Y0163785D01*
X0009615Y0163732D01*
X0009734Y0163675D01*
X0009851Y0163615D01*
X0009965Y0163551D01*
X0010078Y0163483D01*
X0010189Y0163412D01*
X0010298Y0163338D01*
X0010404Y0163261D01*
X0010508Y0163180D01*
X0010609Y0163097D01*
X0010708Y0163010D01*
X0010804Y0162920D01*
X0010897Y0162827D01*
X0010988Y0162732D01*
X0011075Y0162634D01*
X0011160Y0162533D01*
X0011241Y0162430D01*
X0011319Y0162324D01*
X0011394Y0162216D01*
X0011466Y0162106D01*
X0011534Y0161994D01*
X0011599Y0161880D01*
X0011660Y0161763D01*
X0011718Y0161645D01*
X0011772Y0161525D01*
X0011823Y0161404D01*
X0011870Y0161281D01*
X0011913Y0161157D01*
X0011952Y0161032D01*
X0011988Y0160905D01*
X0012019Y0160777D01*
X0012047Y0160649D01*
X0012071Y0160520D01*
X0012091Y0160390D01*
X0012107Y0160259D01*
X0012119Y0160128D01*
X0012127Y0159997D01*
X0012131Y0159866D01*
X0012131Y0159734D01*
X0012127Y0159603D01*
X0012119Y0159472D01*
X0012107Y0159341D01*
X0012091Y0159210D01*
X0012071Y0159080D01*
X0012047Y0158951D01*
X0012019Y0158823D01*
X0011988Y0158695D01*
X0011952Y0158568D01*
X0011913Y0158443D01*
X0011870Y0158319D01*
X0011823Y0158196D01*
X0011772Y0158075D01*
X0011718Y0157955D01*
X0011660Y0157837D01*
X0011599Y0157720D01*
X0011534Y0157606D01*
X0011466Y0157494D01*
X0011394Y0157384D01*
X0011319Y0157276D01*
X0011241Y0157170D01*
X0011160Y0157067D01*
X0011075Y0156966D01*
X0010988Y0156868D01*
X0010897Y0156773D01*
X0010804Y0156680D01*
X0010708Y0156590D01*
X0010609Y0156503D01*
X0010508Y0156420D01*
X0010404Y0156339D01*
X0010298Y0156262D01*
X0010189Y0156188D01*
X0010078Y0156117D01*
X0009966Y0156049D01*
X0009851Y0155985D01*
X0009734Y0155925D01*
X0009615Y0155868D01*
X0009495Y0155815D01*
X0009374Y0155765D01*
X0009250Y0155719D01*
X0009126Y0155677D01*
X0009000Y0155639D01*
X0008873Y0155604D01*
X0008745Y0155573D01*
X0008617Y0155547D01*
X0008487Y0155524D01*
X0008357Y0155505D01*
X0008227Y0155490D01*
X0008096Y0155479D01*
X0007964Y0155472D01*
X0007833Y0155469D01*
X0007701Y0155470D01*
X0007570Y0155475D01*
X0007439Y0155484D01*
X0007308Y0155497D01*
X0007178Y0155514D01*
X0007048Y0155535D01*
X0006919Y0155560D01*
X0006791Y0155588D01*
X0006663Y0155621D01*
X0006537Y0155657D01*
X0006412Y0155698D01*
X0006288Y0155742D01*
X0006165Y0155789D01*
X0006044Y0155841D01*
X0005925Y0155896D01*
X0005807Y0155955D01*
X0005692Y0156017D01*
X0005578Y0156083D01*
X0005466Y0156152D01*
X0005356Y0156224D01*
X0005249Y0156300D01*
X0005144Y0156379D01*
X0005041Y0156461D01*
X0004941Y0156546D01*
X0004844Y0156635D01*
X0004749Y0156726D01*
X0004657Y0156820D01*
X0004568Y0156917D01*
X0004482Y0157016D01*
X0004399Y0157118D01*
X0004319Y0157223D01*
X0004243Y0157329D01*
X0004170Y0157438D01*
X0004100Y0157550D01*
X0004033Y0157663D01*
X0003970Y0157778D01*
X0003910Y0157896D01*
X0003854Y0158014D01*
X0003802Y0158135D01*
X0003753Y0158257D01*
X0003708Y0158381D01*
X0003667Y0158505D01*
X0003630Y0158632D01*
X0003596Y0158759D01*
X0003566Y0158887D01*
X0003541Y0159016D01*
X0003519Y0159145D01*
X0003501Y0159275D01*
X0003487Y0159406D01*
X0003477Y0159537D01*
X0003471Y0159669D01*
X0003469Y0159800D01*
X0191469Y0159800D02*
X0191471Y0159931D01*
X0191477Y0160063D01*
X0191487Y0160194D01*
X0191501Y0160325D01*
X0191519Y0160455D01*
X0191541Y0160584D01*
X0191566Y0160713D01*
X0191596Y0160841D01*
X0191630Y0160968D01*
X0191667Y0161095D01*
X0191708Y0161219D01*
X0191753Y0161343D01*
X0191802Y0161465D01*
X0191854Y0161586D01*
X0191910Y0161704D01*
X0191970Y0161822D01*
X0192033Y0161937D01*
X0192100Y0162050D01*
X0192170Y0162162D01*
X0192243Y0162271D01*
X0192319Y0162377D01*
X0192399Y0162482D01*
X0192482Y0162584D01*
X0192568Y0162683D01*
X0192657Y0162780D01*
X0192749Y0162874D01*
X0192844Y0162965D01*
X0192941Y0163054D01*
X0193041Y0163139D01*
X0193144Y0163221D01*
X0193249Y0163300D01*
X0193356Y0163376D01*
X0193466Y0163448D01*
X0193578Y0163517D01*
X0193692Y0163583D01*
X0193807Y0163645D01*
X0193925Y0163704D01*
X0194044Y0163759D01*
X0194165Y0163811D01*
X0194288Y0163858D01*
X0194412Y0163902D01*
X0194537Y0163943D01*
X0194663Y0163979D01*
X0194791Y0164012D01*
X0194919Y0164040D01*
X0195048Y0164065D01*
X0195178Y0164086D01*
X0195308Y0164103D01*
X0195439Y0164116D01*
X0195570Y0164125D01*
X0195701Y0164130D01*
X0195833Y0164131D01*
X0195964Y0164128D01*
X0196096Y0164121D01*
X0196227Y0164110D01*
X0196357Y0164095D01*
X0196487Y0164076D01*
X0196617Y0164053D01*
X0196745Y0164027D01*
X0196873Y0163996D01*
X0197000Y0163961D01*
X0197126Y0163923D01*
X0197250Y0163881D01*
X0197374Y0163835D01*
X0197495Y0163785D01*
X0197615Y0163732D01*
X0197734Y0163675D01*
X0197851Y0163615D01*
X0197965Y0163551D01*
X0198078Y0163483D01*
X0198189Y0163412D01*
X0198298Y0163338D01*
X0198404Y0163261D01*
X0198508Y0163180D01*
X0198609Y0163097D01*
X0198708Y0163010D01*
X0198804Y0162920D01*
X0198897Y0162827D01*
X0198988Y0162732D01*
X0199075Y0162634D01*
X0199160Y0162533D01*
X0199241Y0162430D01*
X0199319Y0162324D01*
X0199394Y0162216D01*
X0199466Y0162106D01*
X0199534Y0161994D01*
X0199599Y0161880D01*
X0199660Y0161763D01*
X0199718Y0161645D01*
X0199772Y0161525D01*
X0199823Y0161404D01*
X0199870Y0161281D01*
X0199913Y0161157D01*
X0199952Y0161032D01*
X0199988Y0160905D01*
X0200019Y0160777D01*
X0200047Y0160649D01*
X0200071Y0160520D01*
X0200091Y0160390D01*
X0200107Y0160259D01*
X0200119Y0160128D01*
X0200127Y0159997D01*
X0200131Y0159866D01*
X0200131Y0159734D01*
X0200127Y0159603D01*
X0200119Y0159472D01*
X0200107Y0159341D01*
X0200091Y0159210D01*
X0200071Y0159080D01*
X0200047Y0158951D01*
X0200019Y0158823D01*
X0199988Y0158695D01*
X0199952Y0158568D01*
X0199913Y0158443D01*
X0199870Y0158319D01*
X0199823Y0158196D01*
X0199772Y0158075D01*
X0199718Y0157955D01*
X0199660Y0157837D01*
X0199599Y0157720D01*
X0199534Y0157606D01*
X0199466Y0157494D01*
X0199394Y0157384D01*
X0199319Y0157276D01*
X0199241Y0157170D01*
X0199160Y0157067D01*
X0199075Y0156966D01*
X0198988Y0156868D01*
X0198897Y0156773D01*
X0198804Y0156680D01*
X0198708Y0156590D01*
X0198609Y0156503D01*
X0198508Y0156420D01*
X0198404Y0156339D01*
X0198298Y0156262D01*
X0198189Y0156188D01*
X0198078Y0156117D01*
X0197966Y0156049D01*
X0197851Y0155985D01*
X0197734Y0155925D01*
X0197615Y0155868D01*
X0197495Y0155815D01*
X0197374Y0155765D01*
X0197250Y0155719D01*
X0197126Y0155677D01*
X0197000Y0155639D01*
X0196873Y0155604D01*
X0196745Y0155573D01*
X0196617Y0155547D01*
X0196487Y0155524D01*
X0196357Y0155505D01*
X0196227Y0155490D01*
X0196096Y0155479D01*
X0195964Y0155472D01*
X0195833Y0155469D01*
X0195701Y0155470D01*
X0195570Y0155475D01*
X0195439Y0155484D01*
X0195308Y0155497D01*
X0195178Y0155514D01*
X0195048Y0155535D01*
X0194919Y0155560D01*
X0194791Y0155588D01*
X0194663Y0155621D01*
X0194537Y0155657D01*
X0194412Y0155698D01*
X0194288Y0155742D01*
X0194165Y0155789D01*
X0194044Y0155841D01*
X0193925Y0155896D01*
X0193807Y0155955D01*
X0193692Y0156017D01*
X0193578Y0156083D01*
X0193466Y0156152D01*
X0193356Y0156224D01*
X0193249Y0156300D01*
X0193144Y0156379D01*
X0193041Y0156461D01*
X0192941Y0156546D01*
X0192844Y0156635D01*
X0192749Y0156726D01*
X0192657Y0156820D01*
X0192568Y0156917D01*
X0192482Y0157016D01*
X0192399Y0157118D01*
X0192319Y0157223D01*
X0192243Y0157329D01*
X0192170Y0157438D01*
X0192100Y0157550D01*
X0192033Y0157663D01*
X0191970Y0157778D01*
X0191910Y0157896D01*
X0191854Y0158014D01*
X0191802Y0158135D01*
X0191753Y0158257D01*
X0191708Y0158381D01*
X0191667Y0158505D01*
X0191630Y0158632D01*
X0191596Y0158759D01*
X0191566Y0158887D01*
X0191541Y0159016D01*
X0191519Y0159145D01*
X0191501Y0159275D01*
X0191487Y0159406D01*
X0191477Y0159537D01*
X0191471Y0159669D01*
X0191469Y0159800D01*
X0191469Y0008800D02*
X0191471Y0008931D01*
X0191477Y0009063D01*
X0191487Y0009194D01*
X0191501Y0009325D01*
X0191519Y0009455D01*
X0191541Y0009584D01*
X0191566Y0009713D01*
X0191596Y0009841D01*
X0191630Y0009968D01*
X0191667Y0010095D01*
X0191708Y0010219D01*
X0191753Y0010343D01*
X0191802Y0010465D01*
X0191854Y0010586D01*
X0191910Y0010704D01*
X0191970Y0010822D01*
X0192033Y0010937D01*
X0192100Y0011050D01*
X0192170Y0011162D01*
X0192243Y0011271D01*
X0192319Y0011377D01*
X0192399Y0011482D01*
X0192482Y0011584D01*
X0192568Y0011683D01*
X0192657Y0011780D01*
X0192749Y0011874D01*
X0192844Y0011965D01*
X0192941Y0012054D01*
X0193041Y0012139D01*
X0193144Y0012221D01*
X0193249Y0012300D01*
X0193356Y0012376D01*
X0193466Y0012448D01*
X0193578Y0012517D01*
X0193692Y0012583D01*
X0193807Y0012645D01*
X0193925Y0012704D01*
X0194044Y0012759D01*
X0194165Y0012811D01*
X0194288Y0012858D01*
X0194412Y0012902D01*
X0194537Y0012943D01*
X0194663Y0012979D01*
X0194791Y0013012D01*
X0194919Y0013040D01*
X0195048Y0013065D01*
X0195178Y0013086D01*
X0195308Y0013103D01*
X0195439Y0013116D01*
X0195570Y0013125D01*
X0195701Y0013130D01*
X0195833Y0013131D01*
X0195964Y0013128D01*
X0196096Y0013121D01*
X0196227Y0013110D01*
X0196357Y0013095D01*
X0196487Y0013076D01*
X0196617Y0013053D01*
X0196745Y0013027D01*
X0196873Y0012996D01*
X0197000Y0012961D01*
X0197126Y0012923D01*
X0197250Y0012881D01*
X0197374Y0012835D01*
X0197495Y0012785D01*
X0197615Y0012732D01*
X0197734Y0012675D01*
X0197851Y0012615D01*
X0197965Y0012551D01*
X0198078Y0012483D01*
X0198189Y0012412D01*
X0198298Y0012338D01*
X0198404Y0012261D01*
X0198508Y0012180D01*
X0198609Y0012097D01*
X0198708Y0012010D01*
X0198804Y0011920D01*
X0198897Y0011827D01*
X0198988Y0011732D01*
X0199075Y0011634D01*
X0199160Y0011533D01*
X0199241Y0011430D01*
X0199319Y0011324D01*
X0199394Y0011216D01*
X0199466Y0011106D01*
X0199534Y0010994D01*
X0199599Y0010880D01*
X0199660Y0010763D01*
X0199718Y0010645D01*
X0199772Y0010525D01*
X0199823Y0010404D01*
X0199870Y0010281D01*
X0199913Y0010157D01*
X0199952Y0010032D01*
X0199988Y0009905D01*
X0200019Y0009777D01*
X0200047Y0009649D01*
X0200071Y0009520D01*
X0200091Y0009390D01*
X0200107Y0009259D01*
X0200119Y0009128D01*
X0200127Y0008997D01*
X0200131Y0008866D01*
X0200131Y0008734D01*
X0200127Y0008603D01*
X0200119Y0008472D01*
X0200107Y0008341D01*
X0200091Y0008210D01*
X0200071Y0008080D01*
X0200047Y0007951D01*
X0200019Y0007823D01*
X0199988Y0007695D01*
X0199952Y0007568D01*
X0199913Y0007443D01*
X0199870Y0007319D01*
X0199823Y0007196D01*
X0199772Y0007075D01*
X0199718Y0006955D01*
X0199660Y0006837D01*
X0199599Y0006720D01*
X0199534Y0006606D01*
X0199466Y0006494D01*
X0199394Y0006384D01*
X0199319Y0006276D01*
X0199241Y0006170D01*
X0199160Y0006067D01*
X0199075Y0005966D01*
X0198988Y0005868D01*
X0198897Y0005773D01*
X0198804Y0005680D01*
X0198708Y0005590D01*
X0198609Y0005503D01*
X0198508Y0005420D01*
X0198404Y0005339D01*
X0198298Y0005262D01*
X0198189Y0005188D01*
X0198078Y0005117D01*
X0197966Y0005049D01*
X0197851Y0004985D01*
X0197734Y0004925D01*
X0197615Y0004868D01*
X0197495Y0004815D01*
X0197374Y0004765D01*
X0197250Y0004719D01*
X0197126Y0004677D01*
X0197000Y0004639D01*
X0196873Y0004604D01*
X0196745Y0004573D01*
X0196617Y0004547D01*
X0196487Y0004524D01*
X0196357Y0004505D01*
X0196227Y0004490D01*
X0196096Y0004479D01*
X0195964Y0004472D01*
X0195833Y0004469D01*
X0195701Y0004470D01*
X0195570Y0004475D01*
X0195439Y0004484D01*
X0195308Y0004497D01*
X0195178Y0004514D01*
X0195048Y0004535D01*
X0194919Y0004560D01*
X0194791Y0004588D01*
X0194663Y0004621D01*
X0194537Y0004657D01*
X0194412Y0004698D01*
X0194288Y0004742D01*
X0194165Y0004789D01*
X0194044Y0004841D01*
X0193925Y0004896D01*
X0193807Y0004955D01*
X0193692Y0005017D01*
X0193578Y0005083D01*
X0193466Y0005152D01*
X0193356Y0005224D01*
X0193249Y0005300D01*
X0193144Y0005379D01*
X0193041Y0005461D01*
X0192941Y0005546D01*
X0192844Y0005635D01*
X0192749Y0005726D01*
X0192657Y0005820D01*
X0192568Y0005917D01*
X0192482Y0006016D01*
X0192399Y0006118D01*
X0192319Y0006223D01*
X0192243Y0006329D01*
X0192170Y0006438D01*
X0192100Y0006550D01*
X0192033Y0006663D01*
X0191970Y0006778D01*
X0191910Y0006896D01*
X0191854Y0007014D01*
X0191802Y0007135D01*
X0191753Y0007257D01*
X0191708Y0007381D01*
X0191667Y0007505D01*
X0191630Y0007632D01*
X0191596Y0007759D01*
X0191566Y0007887D01*
X0191541Y0008016D01*
X0191519Y0008145D01*
X0191501Y0008275D01*
X0191487Y0008406D01*
X0191477Y0008537D01*
X0191471Y0008669D01*
X0191469Y0008800D01*
D11*
X0001800Y0001800D02*
X0001800Y0166800D01*
X0201800Y0166800D01*
X0201800Y0001800D01*
X0001800Y0001800D01*
X0128800Y0077800D02*
X0128800Y0085800D01*
X0185800Y0085800D01*
X0185800Y0077800D01*
X0128800Y0077800D01*
X0132800Y0079800D02*
X0132800Y0083800D01*
X0128800Y0085800D02*
X0128800Y0094800D01*
X0185800Y0094800D01*
X0185800Y0085800D01*
X0181800Y0083800D02*
X0181800Y0079800D01*
X0174800Y0079800D02*
X0174800Y0083800D01*
X0167800Y0083800D02*
X0167800Y0079800D01*
X0160800Y0079800D02*
X0160800Y0083800D01*
X0153800Y0083800D02*
X0153800Y0079800D01*
X0146800Y0079800D02*
X0146800Y0083800D01*
X0139800Y0083800D02*
X0139800Y0079800D01*
D12*
X0135461Y0156465D02*
X0134694Y0156465D01*
X0133927Y0157233D01*
X0133927Y0161069D01*
X0132392Y0161069D02*
X0131625Y0160302D01*
X0130090Y0160302D01*
X0129323Y0159535D01*
X0129323Y0158767D01*
X0130090Y0158000D01*
X0131625Y0158000D01*
X0132392Y0158767D01*
X0133927Y0158000D02*
X0136229Y0158000D01*
X0136996Y0158767D01*
X0136996Y0161069D01*
X0138531Y0162604D02*
X0138531Y0158000D01*
X0141600Y0158000D02*
X0141600Y0162604D01*
X0140065Y0161069D01*
X0138531Y0162604D01*
X0132392Y0161837D02*
X0132392Y0161069D01*
X0132392Y0161837D02*
X0131625Y0162604D01*
X0130090Y0162604D01*
X0129323Y0161837D01*
X0127788Y0160302D02*
X0127788Y0158767D01*
X0127021Y0158000D01*
X0125486Y0158000D01*
X0124719Y0159535D02*
X0127788Y0159535D01*
X0127788Y0160302D02*
X0127021Y0161069D01*
X0125486Y0161069D01*
X0124719Y0160302D01*
X0124719Y0159535D01*
X0123184Y0158000D02*
X0123184Y0161069D01*
X0120882Y0161069D01*
X0120115Y0160302D01*
X0120115Y0158000D01*
X0118580Y0158000D02*
X0116278Y0158000D01*
X0115511Y0158767D01*
X0116278Y0159535D01*
X0117813Y0159535D01*
X0118580Y0160302D01*
X0117813Y0161069D01*
X0115511Y0161069D01*
X0113976Y0160302D02*
X0113976Y0158767D01*
X0113209Y0158000D01*
X0111674Y0158000D01*
X0110907Y0158767D01*
X0110907Y0160302D01*
X0111674Y0161069D01*
X0113209Y0161069D01*
X0113976Y0160302D01*
X0109373Y0161069D02*
X0109373Y0158000D01*
X0109373Y0159535D02*
X0107838Y0161069D01*
X0107071Y0161069D01*
X0105536Y0160302D02*
X0104769Y0159535D01*
X0103234Y0159535D01*
X0102467Y0158767D01*
X0103234Y0158000D01*
X0105536Y0158000D01*
X0105536Y0160302D02*
X0104769Y0161069D01*
X0102467Y0161069D01*
X0096328Y0159535D02*
X0094026Y0159535D01*
X0093259Y0160302D01*
X0093259Y0161837D01*
X0094026Y0162604D01*
X0096328Y0162604D01*
X0096328Y0158000D01*
X0094793Y0159535D02*
X0093259Y0158000D01*
X0091724Y0158000D02*
X0091724Y0162604D01*
X0088655Y0162604D01*
X0087120Y0162604D02*
X0085586Y0161069D01*
X0084051Y0162604D01*
X0084051Y0158000D01*
X0082516Y0158767D02*
X0081749Y0158000D01*
X0080214Y0158000D01*
X0079447Y0158767D01*
X0079447Y0159535D01*
X0080214Y0160302D01*
X0082516Y0160302D01*
X0082516Y0158767D01*
X0082516Y0160302D02*
X0080982Y0161837D01*
X0079447Y0162604D01*
X0077912Y0161837D02*
X0077912Y0161069D01*
X0077145Y0160302D01*
X0074843Y0160302D01*
X0074843Y0161837D02*
X0075610Y0162604D01*
X0077145Y0162604D01*
X0077912Y0161837D01*
X0077912Y0158767D02*
X0077145Y0158000D01*
X0075610Y0158000D01*
X0074843Y0158767D01*
X0074843Y0161837D01*
X0068705Y0162604D02*
X0068705Y0158000D01*
X0065635Y0158000D02*
X0065635Y0162604D01*
X0063333Y0161069D02*
X0064101Y0160302D01*
X0064101Y0158767D01*
X0063333Y0158000D01*
X0061799Y0158000D01*
X0061031Y0158767D01*
X0061031Y0160302D01*
X0061799Y0161069D01*
X0063333Y0161069D01*
X0065635Y0158000D02*
X0068705Y0162604D01*
X0059497Y0160302D02*
X0059497Y0158767D01*
X0058729Y0158000D01*
X0056427Y0158000D01*
X0056427Y0162604D01*
X0056427Y0161069D02*
X0058729Y0161069D01*
X0059497Y0160302D01*
X0054893Y0160302D02*
X0054893Y0158767D01*
X0054125Y0158000D01*
X0052591Y0158000D01*
X0051823Y0159535D02*
X0054893Y0159535D01*
X0054893Y0160302D02*
X0054125Y0161069D01*
X0052591Y0161069D01*
X0051823Y0160302D01*
X0051823Y0159535D01*
X0087120Y0158000D02*
X0087120Y0162604D01*
X0090190Y0160302D02*
X0091724Y0160302D01*
D13*
X0112399Y0140802D02*
X0112399Y0140184D01*
X0114868Y0140184D01*
X0114868Y0139567D02*
X0114868Y0140802D01*
X0114251Y0141419D01*
X0113016Y0141419D01*
X0112399Y0140802D01*
X0113016Y0138950D02*
X0114251Y0138950D01*
X0114868Y0139567D01*
X0116082Y0139567D02*
X0116082Y0140802D01*
X0116700Y0141419D01*
X0118551Y0141419D01*
X0118551Y0137716D01*
X0118551Y0138950D02*
X0116700Y0138950D01*
X0116082Y0139567D01*
X0119766Y0138950D02*
X0121617Y0138950D01*
X0122234Y0139567D01*
X0122234Y0141419D01*
X0123449Y0142653D02*
X0125917Y0142653D01*
X0124683Y0142653D02*
X0124683Y0138950D01*
X0121000Y0137716D02*
X0120383Y0137716D01*
X0119766Y0138333D01*
X0119766Y0141419D01*
X0130815Y0141419D02*
X0130815Y0138950D01*
X0130815Y0140802D02*
X0133284Y0140802D01*
X0133284Y0141419D02*
X0132049Y0142653D01*
X0130815Y0141419D01*
X0133284Y0141419D02*
X0133284Y0138950D01*
X0134498Y0138950D02*
X0134498Y0141419D01*
X0135732Y0142653D01*
X0136967Y0141419D01*
X0136967Y0138950D01*
X0138181Y0138950D02*
X0138181Y0141419D01*
X0139416Y0142653D01*
X0140650Y0141419D01*
X0140650Y0138950D01*
X0140650Y0140802D02*
X0138181Y0140802D01*
X0136967Y0140802D02*
X0134498Y0140802D01*
X0144232Y0103852D02*
X0144232Y0100950D01*
X0145683Y0100950D01*
X0146167Y0101434D01*
X0146167Y0102401D01*
X0145683Y0102885D01*
X0144232Y0102885D01*
X0143220Y0102401D02*
X0142737Y0102885D01*
X0141769Y0102885D01*
X0141285Y0102401D01*
X0141285Y0101917D01*
X0143220Y0101917D01*
X0143220Y0101434D02*
X0143220Y0102401D01*
X0143220Y0101434D02*
X0142737Y0100950D01*
X0141769Y0100950D01*
X0147179Y0101434D02*
X0147662Y0100950D01*
X0148630Y0100950D01*
X0149114Y0101434D01*
X0149114Y0102401D01*
X0148630Y0102885D01*
X0147662Y0102885D01*
X0147179Y0102401D01*
X0147179Y0101434D01*
X0150125Y0101434D02*
X0150609Y0100950D01*
X0151576Y0100950D01*
X0152060Y0101434D01*
X0152060Y0103369D01*
X0151576Y0103852D01*
X0150609Y0103852D01*
X0150125Y0103369D01*
X0156018Y0103369D02*
X0156018Y0101434D01*
X0156502Y0100950D01*
X0157953Y0100950D01*
X0157953Y0103852D01*
X0156502Y0103852D01*
X0156018Y0103369D01*
X0158950Y0103852D02*
X0159917Y0103852D01*
X0159434Y0103852D02*
X0159434Y0100950D01*
X0159917Y0100950D02*
X0158950Y0100950D01*
X0163875Y0101917D02*
X0165810Y0101917D01*
X0165810Y0101434D02*
X0165810Y0102401D01*
X0165327Y0102885D01*
X0164359Y0102885D01*
X0163875Y0102401D01*
X0163875Y0101917D01*
X0164359Y0100950D02*
X0165327Y0100950D01*
X0165810Y0101434D01*
X0166822Y0100950D02*
X0168273Y0100950D01*
X0168757Y0101434D01*
X0168757Y0102401D01*
X0168273Y0102885D01*
X0166822Y0102885D01*
X0166822Y0103852D02*
X0166822Y0100950D01*
X0169769Y0101434D02*
X0170252Y0100950D01*
X0171220Y0100950D01*
X0171703Y0101434D01*
X0171703Y0102401D01*
X0171220Y0102885D01*
X0170252Y0102885D01*
X0169769Y0102401D01*
X0169769Y0101434D01*
X0172715Y0100950D02*
X0172715Y0103852D01*
X0174650Y0103852D02*
X0172715Y0100950D01*
X0174650Y0100950D02*
X0174650Y0103852D01*
X0180769Y0099852D02*
X0180769Y0096950D01*
X0182703Y0099852D01*
X0182703Y0096950D01*
X0183715Y0097434D02*
X0183715Y0099369D01*
X0184199Y0099852D01*
X0185166Y0099852D01*
X0185650Y0099369D01*
X0185650Y0097434D01*
X0185166Y0096950D01*
X0184199Y0096950D01*
X0183715Y0097434D01*
X0183166Y0091852D02*
X0183650Y0091369D01*
X0183650Y0089434D01*
X0183166Y0088950D01*
X0182199Y0088950D01*
X0181715Y0089434D01*
X0180703Y0089434D02*
X0180220Y0088950D01*
X0179252Y0088950D01*
X0178769Y0089434D01*
X0178769Y0091369D01*
X0180703Y0089434D01*
X0180703Y0091369D01*
X0180220Y0091852D01*
X0179252Y0091852D01*
X0178769Y0091369D01*
X0177757Y0091852D02*
X0177757Y0088950D01*
X0176775Y0089434D02*
X0176291Y0088950D01*
X0175324Y0088950D01*
X0174840Y0089434D01*
X0173828Y0088950D02*
X0171893Y0088950D01*
X0172861Y0088950D02*
X0172861Y0091852D01*
X0173828Y0090885D01*
X0174840Y0091369D02*
X0175324Y0091852D01*
X0176291Y0091852D01*
X0176775Y0091369D01*
X0176775Y0089434D01*
X0181715Y0091369D02*
X0182199Y0091852D01*
X0183166Y0091852D01*
X0170882Y0091852D02*
X0170882Y0088950D01*
X0169900Y0089434D02*
X0169416Y0088950D01*
X0168448Y0088950D01*
X0167965Y0089434D01*
X0166953Y0088950D02*
X0165018Y0088950D01*
X0164007Y0088950D02*
X0164007Y0091852D01*
X0163024Y0091369D02*
X0163024Y0089434D01*
X0162541Y0088950D01*
X0161573Y0088950D01*
X0161089Y0089434D01*
X0160078Y0089434D02*
X0159594Y0088950D01*
X0158627Y0088950D01*
X0158143Y0089434D01*
X0158143Y0089917D01*
X0158627Y0090401D01*
X0159110Y0090401D01*
X0158627Y0090401D02*
X0158143Y0090885D01*
X0158143Y0091369D01*
X0158627Y0091852D01*
X0159594Y0091852D01*
X0160078Y0091369D01*
X0161089Y0091369D02*
X0161573Y0091852D01*
X0162541Y0091852D01*
X0163024Y0091369D01*
X0165018Y0091369D02*
X0165018Y0090885D01*
X0166953Y0088950D01*
X0169900Y0089434D02*
X0169900Y0091369D01*
X0169416Y0091852D01*
X0168448Y0091852D01*
X0167965Y0091369D01*
X0166953Y0091369D02*
X0166469Y0091852D01*
X0165502Y0091852D01*
X0165018Y0091369D01*
X0157131Y0091852D02*
X0157131Y0088950D01*
X0156149Y0089434D02*
X0155665Y0088950D01*
X0154698Y0088950D01*
X0154214Y0089434D01*
X0153203Y0090401D02*
X0151268Y0090401D01*
X0151751Y0088950D02*
X0151751Y0091852D01*
X0153203Y0090401D01*
X0154214Y0091369D02*
X0154698Y0091852D01*
X0155665Y0091852D01*
X0156149Y0091369D01*
X0156149Y0089434D01*
X0150256Y0088950D02*
X0150256Y0091852D01*
X0149274Y0091369D02*
X0149274Y0089434D01*
X0148790Y0088950D01*
X0147823Y0088950D01*
X0147339Y0089434D01*
X0146327Y0089434D02*
X0145844Y0088950D01*
X0144876Y0088950D01*
X0144392Y0089434D01*
X0144392Y0090401D01*
X0144876Y0090885D01*
X0145360Y0090885D01*
X0146327Y0090401D01*
X0146327Y0091852D01*
X0144392Y0091852D01*
X0143381Y0091852D02*
X0143381Y0088950D01*
X0142399Y0089434D02*
X0141915Y0088950D01*
X0140948Y0088950D01*
X0140464Y0089434D01*
X0139452Y0089434D02*
X0138968Y0088950D01*
X0138001Y0088950D01*
X0137517Y0089434D01*
X0137517Y0089917D01*
X0138001Y0090401D01*
X0139452Y0090401D01*
X0139452Y0089434D01*
X0139452Y0090401D02*
X0138485Y0091369D01*
X0137517Y0091852D01*
X0136506Y0091852D02*
X0136506Y0088950D01*
X0135524Y0089434D02*
X0135040Y0088950D01*
X0134072Y0088950D01*
X0133589Y0089434D01*
X0132577Y0089434D02*
X0132577Y0088950D01*
X0132577Y0089434D02*
X0130642Y0091369D01*
X0130642Y0091852D01*
X0132577Y0091852D01*
X0133589Y0091369D02*
X0134072Y0091852D01*
X0135040Y0091852D01*
X0135524Y0091369D01*
X0135524Y0089434D01*
X0140464Y0091369D02*
X0140948Y0091852D01*
X0141915Y0091852D01*
X0142399Y0091369D01*
X0142399Y0089434D01*
X0147339Y0091369D02*
X0147823Y0091852D01*
X0148790Y0091852D01*
X0149274Y0091369D01*
X0177822Y0075852D02*
X0179757Y0075852D01*
X0179757Y0072950D01*
X0179757Y0074401D02*
X0178789Y0074401D01*
X0180769Y0075852D02*
X0182703Y0075852D01*
X0182703Y0072950D01*
X0183715Y0073434D02*
X0183715Y0075369D01*
X0184199Y0075852D01*
X0185166Y0075852D01*
X0185650Y0075369D01*
X0185650Y0073434D01*
X0185166Y0072950D01*
X0184199Y0072950D01*
X0183715Y0073434D01*
X0182703Y0074401D02*
X0181736Y0074401D01*
X0095650Y0035419D02*
X0095650Y0032950D01*
X0095650Y0034802D02*
X0093181Y0034802D01*
X0093181Y0035419D02*
X0093181Y0032950D01*
X0091967Y0032950D02*
X0091967Y0035419D01*
X0090732Y0036653D01*
X0089498Y0035419D01*
X0089498Y0032950D01*
X0088284Y0032950D02*
X0088284Y0035419D01*
X0087049Y0036653D01*
X0085815Y0035419D01*
X0085815Y0032950D01*
X0085815Y0034802D02*
X0088284Y0034802D01*
X0089498Y0034802D02*
X0091967Y0034802D01*
X0093181Y0035419D02*
X0094416Y0036653D01*
X0095650Y0035419D01*
X0080917Y0036653D02*
X0078449Y0036653D01*
X0079683Y0036653D02*
X0079683Y0032950D01*
X0077234Y0033567D02*
X0077234Y0035419D01*
X0074766Y0035419D02*
X0074766Y0032333D01*
X0075383Y0031716D01*
X0076000Y0031716D01*
X0076617Y0032950D02*
X0074766Y0032950D01*
X0073551Y0032950D02*
X0071700Y0032950D01*
X0071082Y0033567D01*
X0071082Y0034802D01*
X0071700Y0035419D01*
X0073551Y0035419D01*
X0073551Y0031716D01*
X0076617Y0032950D02*
X0077234Y0033567D01*
X0069868Y0033567D02*
X0069868Y0034802D01*
X0069251Y0035419D01*
X0068016Y0035419D01*
X0067399Y0034802D01*
X0067399Y0034184D01*
X0069868Y0034184D01*
X0069868Y0033567D02*
X0069251Y0032950D01*
X0068016Y0032950D01*
X0059204Y0056350D02*
X0058236Y0056350D01*
X0057752Y0056834D01*
X0057752Y0058769D01*
X0058236Y0059252D01*
X0059204Y0059252D01*
X0059687Y0058769D01*
X0059687Y0058285D01*
X0059204Y0057801D01*
X0057752Y0057801D01*
X0056741Y0058285D02*
X0055773Y0059252D01*
X0055773Y0056350D01*
X0054806Y0056350D02*
X0056741Y0056350D01*
X0053794Y0056834D02*
X0053311Y0056350D01*
X0052343Y0056350D01*
X0051859Y0056834D01*
X0051859Y0057801D01*
X0052343Y0058285D01*
X0052827Y0058285D01*
X0053794Y0057801D01*
X0053794Y0059252D01*
X0051859Y0059252D01*
X0052343Y0061150D02*
X0053311Y0061150D01*
X0053794Y0061634D01*
X0053794Y0062117D01*
X0053311Y0062601D01*
X0052343Y0062601D01*
X0051859Y0062117D01*
X0051859Y0061634D01*
X0052343Y0061150D01*
X0052343Y0062601D02*
X0051859Y0063085D01*
X0051859Y0063569D01*
X0052343Y0064052D01*
X0053311Y0064052D01*
X0053794Y0063569D01*
X0053794Y0063085D01*
X0053311Y0062601D01*
X0054806Y0062117D02*
X0055290Y0062601D01*
X0056741Y0062601D01*
X0056741Y0061634D01*
X0056257Y0061150D01*
X0055290Y0061150D01*
X0054806Y0061634D01*
X0054806Y0062117D01*
X0055773Y0063569D02*
X0054806Y0064052D01*
X0055773Y0063569D02*
X0056741Y0062601D01*
X0057752Y0062117D02*
X0057752Y0061634D01*
X0058236Y0061150D01*
X0059204Y0061150D01*
X0059687Y0061634D01*
X0059687Y0062117D01*
X0059204Y0062601D01*
X0058236Y0062601D01*
X0057752Y0062117D01*
X0058236Y0062601D02*
X0057752Y0063085D01*
X0057752Y0063569D01*
X0058236Y0064052D01*
X0059204Y0064052D01*
X0059687Y0063569D01*
X0059687Y0063085D01*
X0059204Y0062601D01*
X0058236Y0065950D02*
X0058236Y0068852D01*
X0059687Y0067401D01*
X0057752Y0067401D01*
X0056741Y0066434D02*
X0056257Y0065950D01*
X0055290Y0065950D01*
X0054806Y0066434D01*
X0054806Y0066917D01*
X0055290Y0067401D01*
X0055773Y0067401D01*
X0055290Y0067401D02*
X0054806Y0067885D01*
X0054806Y0068369D01*
X0055290Y0068852D01*
X0056257Y0068852D01*
X0056741Y0068369D01*
X0056741Y0070750D02*
X0056741Y0072685D01*
X0055290Y0072685D01*
X0054806Y0072201D01*
X0054806Y0070750D01*
X0053311Y0071234D02*
X0052827Y0070750D01*
X0053311Y0071234D02*
X0053311Y0073169D01*
X0053794Y0072685D02*
X0052827Y0072685D01*
X0051830Y0072201D02*
X0051346Y0072685D01*
X0050379Y0072685D01*
X0049895Y0072201D01*
X0049895Y0071717D01*
X0051830Y0071717D01*
X0051830Y0071234D02*
X0051830Y0072201D01*
X0051830Y0071234D02*
X0051346Y0070750D01*
X0050379Y0070750D01*
X0048883Y0070750D02*
X0048883Y0072685D01*
X0047432Y0072685D01*
X0046948Y0072201D01*
X0046948Y0070750D01*
X0045937Y0070750D02*
X0045937Y0072685D01*
X0044486Y0072685D01*
X0044002Y0072201D01*
X0044002Y0070750D01*
X0042990Y0071234D02*
X0042507Y0071717D01*
X0041055Y0071717D01*
X0041055Y0072201D02*
X0041055Y0070750D01*
X0042507Y0070750D01*
X0042990Y0071234D01*
X0042507Y0072685D02*
X0041539Y0072685D01*
X0041055Y0072201D01*
X0043020Y0068852D02*
X0043020Y0065950D01*
X0042008Y0065950D02*
X0040073Y0065950D01*
X0040073Y0067885D02*
X0042008Y0065950D01*
X0043020Y0067401D02*
X0044955Y0067401D01*
X0044955Y0065950D02*
X0044955Y0068852D01*
X0045966Y0068852D02*
X0045966Y0065950D01*
X0047901Y0065950D02*
X0047901Y0068852D01*
X0046934Y0067885D01*
X0045966Y0068852D01*
X0042008Y0067885D02*
X0040073Y0067885D01*
X0037097Y0070750D02*
X0035162Y0070750D01*
X0034151Y0071234D02*
X0034151Y0072201D01*
X0033667Y0072685D01*
X0032700Y0072685D01*
X0032216Y0072201D01*
X0032216Y0071717D01*
X0034151Y0071717D01*
X0034151Y0071234D02*
X0033667Y0070750D01*
X0032700Y0070750D01*
X0031204Y0070750D02*
X0031204Y0072685D01*
X0029753Y0072685D01*
X0029269Y0072201D01*
X0029269Y0070750D01*
X0028258Y0071234D02*
X0027774Y0070750D01*
X0026323Y0070750D01*
X0026323Y0070266D02*
X0026323Y0072685D01*
X0027774Y0072685D01*
X0028258Y0072201D01*
X0028258Y0071234D01*
X0027290Y0069783D02*
X0026807Y0069783D01*
X0026323Y0070266D01*
X0026308Y0068852D02*
X0026308Y0065950D01*
X0025341Y0065950D02*
X0027276Y0065950D01*
X0027276Y0067885D02*
X0026308Y0068852D01*
X0024329Y0067401D02*
X0022878Y0067401D01*
X0022394Y0066917D01*
X0022394Y0066434D01*
X0022878Y0065950D01*
X0023845Y0065950D01*
X0024329Y0066434D01*
X0024329Y0067401D01*
X0023362Y0068369D01*
X0022394Y0068852D01*
X0021383Y0068852D02*
X0021383Y0067401D01*
X0020415Y0067885D01*
X0019931Y0067885D01*
X0019448Y0067401D01*
X0019448Y0066434D01*
X0019931Y0065950D01*
X0020899Y0065950D01*
X0021383Y0066434D01*
X0021383Y0068852D02*
X0019448Y0068852D01*
X0019917Y0070750D02*
X0020400Y0070750D01*
X0020400Y0071234D01*
X0019917Y0071234D01*
X0019917Y0070750D01*
X0019917Y0072201D02*
X0020400Y0072201D01*
X0020400Y0072685D01*
X0019917Y0072685D01*
X0019917Y0072201D01*
X0021412Y0072201D02*
X0021412Y0070750D01*
X0021412Y0072201D02*
X0021896Y0072685D01*
X0022863Y0072685D01*
X0023347Y0072201D01*
X0024344Y0072685D02*
X0025311Y0072685D01*
X0024828Y0073169D02*
X0024828Y0071234D01*
X0024344Y0070750D01*
X0023347Y0070750D02*
X0023347Y0073652D01*
X0015490Y0067885D02*
X0015490Y0065950D01*
X0014522Y0065950D02*
X0014522Y0067401D01*
X0014038Y0067885D01*
X0013555Y0067401D01*
X0013555Y0065950D01*
X0012543Y0065950D02*
X0012543Y0067885D01*
X0012059Y0067885D01*
X0011576Y0067401D01*
X0011092Y0067885D01*
X0010608Y0067401D01*
X0010608Y0065950D01*
X0011576Y0065950D02*
X0011576Y0067401D01*
X0014522Y0067401D02*
X0015006Y0067885D01*
X0015490Y0067885D01*
X0015490Y0063085D02*
X0015006Y0063085D01*
X0014522Y0062601D01*
X0014038Y0063085D01*
X0013555Y0062601D01*
X0013555Y0061150D01*
X0014522Y0061150D02*
X0014522Y0062601D01*
X0015490Y0063085D02*
X0015490Y0061150D01*
X0012543Y0061150D02*
X0012543Y0063085D01*
X0012059Y0063085D01*
X0011576Y0062601D01*
X0011092Y0063085D01*
X0010608Y0062601D01*
X0010608Y0061150D01*
X0011576Y0061150D02*
X0011576Y0062601D01*
X0012059Y0058285D02*
X0011576Y0057801D01*
X0011092Y0058285D01*
X0010608Y0057801D01*
X0010608Y0056350D01*
X0011576Y0056350D02*
X0011576Y0057801D01*
X0012059Y0058285D02*
X0012543Y0058285D01*
X0012543Y0056350D01*
X0013555Y0056350D02*
X0013555Y0057801D01*
X0014038Y0058285D01*
X0014522Y0057801D01*
X0014522Y0056350D01*
X0015490Y0056350D02*
X0015490Y0058285D01*
X0015006Y0058285D01*
X0014522Y0057801D01*
X0019448Y0057317D02*
X0019448Y0056834D01*
X0019931Y0056350D01*
X0020899Y0056350D01*
X0021383Y0056834D01*
X0021383Y0057317D01*
X0020899Y0057801D01*
X0019931Y0057801D01*
X0019448Y0057317D01*
X0019931Y0057801D02*
X0019448Y0058285D01*
X0019448Y0058769D01*
X0019931Y0059252D01*
X0020899Y0059252D01*
X0021383Y0058769D01*
X0021383Y0058285D01*
X0020899Y0057801D01*
X0022394Y0058769D02*
X0024329Y0056834D01*
X0024329Y0056350D01*
X0022394Y0058769D02*
X0022394Y0059252D01*
X0024329Y0059252D01*
X0023845Y0061150D02*
X0024329Y0061634D01*
X0024329Y0062117D01*
X0023845Y0062601D01*
X0022878Y0062601D01*
X0022394Y0062117D01*
X0022394Y0061634D01*
X0022878Y0061150D01*
X0023845Y0061150D01*
X0023845Y0062601D02*
X0024329Y0063085D01*
X0024329Y0063569D01*
X0023845Y0064052D01*
X0022878Y0064052D01*
X0022394Y0063569D01*
X0022394Y0063085D01*
X0022878Y0062601D01*
X0021383Y0063569D02*
X0020899Y0064052D01*
X0019931Y0064052D01*
X0019448Y0063569D01*
X0019448Y0063085D01*
X0021383Y0061150D01*
X0019448Y0061150D01*
X0031234Y0062601D02*
X0033169Y0061150D01*
X0034180Y0062601D02*
X0036115Y0062601D01*
X0033169Y0064052D02*
X0031234Y0062601D01*
X0033169Y0059252D02*
X0031234Y0057801D01*
X0033169Y0056350D01*
X0034180Y0057801D02*
X0036115Y0057801D01*
X0040073Y0058285D02*
X0042008Y0056350D01*
X0040073Y0056350D01*
X0040073Y0058285D02*
X0042008Y0058285D01*
X0043020Y0057801D02*
X0044955Y0057801D01*
X0044955Y0056350D02*
X0044955Y0059252D01*
X0045966Y0059252D02*
X0045966Y0056350D01*
X0047901Y0056350D02*
X0047901Y0059252D01*
X0046934Y0058285D01*
X0045966Y0059252D01*
X0045966Y0061150D02*
X0045966Y0064052D01*
X0046934Y0063085D01*
X0047901Y0064052D01*
X0047901Y0061150D01*
X0044955Y0061150D02*
X0044955Y0064052D01*
X0044955Y0062601D02*
X0043020Y0062601D01*
X0042008Y0063085D02*
X0040073Y0063085D01*
X0042008Y0061150D01*
X0040073Y0061150D01*
X0043020Y0061150D02*
X0043020Y0064052D01*
X0043020Y0059252D02*
X0043020Y0056350D01*
X0036115Y0067401D02*
X0034180Y0067401D01*
X0033169Y0065950D02*
X0031234Y0067401D01*
X0033169Y0068852D01*
X0037097Y0070750D02*
X0037097Y0073652D01*
X0052518Y0074434D02*
X0052518Y0076369D01*
X0053002Y0076852D01*
X0054453Y0076852D01*
X0054453Y0073950D01*
X0053002Y0073950D01*
X0052518Y0074434D01*
X0055450Y0073950D02*
X0056417Y0073950D01*
X0055934Y0073950D02*
X0055934Y0076852D01*
X0056417Y0076852D02*
X0055450Y0076852D01*
X0058720Y0073652D02*
X0057752Y0072685D01*
X0057752Y0070750D01*
X0057752Y0072201D02*
X0059687Y0072201D01*
X0059687Y0072685D02*
X0058720Y0073652D01*
X0059687Y0072685D02*
X0059687Y0070750D01*
X0060859Y0073950D02*
X0061827Y0073950D01*
X0062310Y0074434D01*
X0062310Y0075401D01*
X0061827Y0075885D01*
X0060859Y0075885D01*
X0060375Y0075401D01*
X0060375Y0074917D01*
X0062310Y0074917D01*
X0063322Y0073950D02*
X0064773Y0073950D01*
X0065257Y0074434D01*
X0065257Y0075401D01*
X0064773Y0075885D01*
X0063322Y0075885D01*
X0063322Y0076852D02*
X0063322Y0073950D01*
X0066269Y0074434D02*
X0066269Y0075401D01*
X0066752Y0075885D01*
X0067720Y0075885D01*
X0068203Y0075401D01*
X0068203Y0074434D01*
X0067720Y0073950D01*
X0066752Y0073950D01*
X0066269Y0074434D01*
X0069215Y0073950D02*
X0069215Y0076852D01*
X0071150Y0076852D02*
X0069215Y0073950D01*
X0071150Y0073950D02*
X0071150Y0076852D01*
X0069006Y0079750D02*
X0069490Y0080234D01*
X0069006Y0079750D02*
X0068038Y0079750D01*
X0067555Y0080234D01*
X0067555Y0080717D01*
X0068038Y0081201D01*
X0069006Y0081201D01*
X0069490Y0081685D01*
X0069490Y0082169D01*
X0069006Y0082652D01*
X0068038Y0082652D01*
X0067555Y0082169D01*
X0066543Y0082652D02*
X0066543Y0079750D01*
X0065576Y0080717D01*
X0064608Y0079750D01*
X0064608Y0082652D01*
X0063597Y0082169D02*
X0063113Y0082652D01*
X0062145Y0082652D01*
X0061662Y0082169D01*
X0061662Y0081685D01*
X0063597Y0079750D01*
X0061662Y0079750D01*
X0053311Y0068852D02*
X0052343Y0068852D01*
X0051859Y0068369D01*
X0051859Y0067885D01*
X0052343Y0067401D01*
X0051859Y0066917D01*
X0051859Y0066434D01*
X0052343Y0065950D01*
X0053311Y0065950D01*
X0053794Y0066434D01*
X0052827Y0067401D02*
X0052343Y0067401D01*
X0053794Y0068369D02*
X0053311Y0068852D01*
X0059687Y0056834D02*
X0059204Y0056350D01*
D14*
X0048800Y0044800D02*
X0011500Y0044800D01*
X0011500Y0014800D01*
X0048800Y0014800D01*
X0158800Y0014800D02*
X0196100Y0014800D01*
X0196100Y0044800D01*
X0158800Y0044800D01*
X0158800Y0120800D02*
X0196100Y0120800D01*
X0196100Y0150800D01*
X0158800Y0150800D01*
X0048800Y0150800D02*
X0011500Y0150800D01*
X0011500Y0120800D01*
X0048800Y0120800D01*
D15*
X0063800Y0133500D02*
X0063800Y0138500D01*
X0068800Y0138500D01*
X0068800Y0145800D01*
X0143800Y0145800D01*
X0143800Y0125800D01*
X0068800Y0125800D01*
X0068800Y0133500D01*
X0063800Y0133500D01*
X0068800Y0133500D02*
X0068800Y0138500D01*
X0076300Y0135800D02*
X0081300Y0135800D01*
X0078800Y0133300D02*
X0078800Y0138300D01*
X0131300Y0135800D02*
X0136300Y0135800D01*
X0138800Y0039800D02*
X0063800Y0039800D01*
X0063800Y0019800D01*
X0138800Y0019800D01*
X0138800Y0027100D01*
X0143800Y0027100D01*
X0143800Y0032100D01*
X0138800Y0032100D01*
X0138800Y0027100D01*
X0138800Y0032100D02*
X0138800Y0039800D01*
X0128800Y0032300D02*
X0128800Y0027300D01*
X0126300Y0029800D02*
X0131300Y0029800D01*
X0076300Y0029800D02*
X0071300Y0029800D01*
D16*
X0074800Y0073300D02*
X0074800Y0076300D01*
X0074800Y0089300D01*
X0074800Y0092300D01*
X0120800Y0092300D01*
X0120800Y0089300D01*
X0120800Y0076300D01*
X0120800Y0073300D01*
X0074800Y0073300D01*
D17*
X0078500Y0075300D02*
X0078500Y0090300D01*
X0082100Y0090300D01*
X0082100Y0075300D01*
X0083500Y0075300D02*
X0083500Y0090300D01*
X0087100Y0090300D01*
X0087100Y0075300D01*
X0088500Y0075300D02*
X0088500Y0090300D01*
X0092100Y0090300D01*
X0092100Y0075300D01*
X0093500Y0075300D02*
X0093500Y0090300D01*
X0097100Y0090300D01*
X0097100Y0075300D01*
X0098500Y0075300D02*
X0098500Y0090300D01*
X0102100Y0090300D01*
X0102100Y0075300D01*
X0103500Y0075300D02*
X0103500Y0090300D01*
X0107100Y0090300D01*
X0107100Y0075300D01*
X0108500Y0075300D02*
X0108500Y0090300D01*
X0112100Y0090300D01*
X0112100Y0075300D01*
X0113500Y0075300D02*
X0113500Y0090300D01*
X0117100Y0090300D01*
X0117100Y0075300D01*
D18*
X0113500Y0075300D01*
X0112100Y0075300D02*
X0108500Y0075300D01*
X0107100Y0075300D02*
X0103500Y0075300D01*
X0102100Y0075300D02*
X0098500Y0075300D01*
X0097100Y0075300D02*
X0093500Y0075300D01*
X0092100Y0075300D02*
X0088500Y0075300D01*
X0087100Y0075300D02*
X0083500Y0075300D01*
X0082100Y0075300D02*
X0078500Y0075300D01*
D19*
X0080300Y0077050D03*
X0080300Y0079550D03*
X0080300Y0082050D03*
X0085300Y0082050D03*
X0085300Y0079550D03*
X0085300Y0077050D03*
X0090300Y0077050D03*
X0090300Y0079550D03*
X0090300Y0082050D03*
X0095300Y0082050D03*
X0095300Y0079550D03*
X0095300Y0077050D03*
X0100300Y0077050D03*
X0100300Y0079550D03*
X0100300Y0082050D03*
X0105300Y0082050D03*
X0105300Y0079550D03*
X0105300Y0077050D03*
X0110300Y0077050D03*
X0110300Y0079550D03*
X0110300Y0082050D03*
X0115300Y0082050D03*
X0115300Y0079550D03*
X0115300Y0077050D03*
M02*
