%
M48
M72
T01C0.0236
T02C0.0400
T03C0.0730
T04C0.1102
%
T01
X10780Y2880
X12080Y3980
X12380Y3580
X12980Y3680
X11580Y4080
X11580Y4780
X12480Y5480
X11980Y5580
X13080Y5480
X13580Y5480
X10880Y6880
X11278Y8082
X11693Y8767
X12780Y8780
X13780Y8780
X11680Y10380
X11280Y11180
X14380Y10880
X19080Y9580
X18380Y5680
X17680Y3780
X15780Y3380
X14280Y2880
X6680Y9580
T02
X6880Y11480
X7880Y11480
X7880Y12480
X6880Y12480
X6880Y13480
X7880Y13480
X3380Y9080
X2380Y9080
X6980Y2680
X7980Y2680
X8980Y2680
X9980Y2680
X9980Y1580
X8980Y1580
X7980Y1580
X6980Y1580
X15280Y1580
X16280Y1580
X17280Y1580
X18280Y1580
X18280Y2680
X17280Y2680
X16280Y2680
X15280Y2680
X24480Y5960
X24480Y11000
T03
X22380Y13280
X19580Y13280
X5380Y13280
X2580Y13280
X2580Y3480
X5380Y3480
X19580Y3480
X22380Y3480
T04
X980Y980
X980Y15780
X25180Y15780
X25180Y980
M30
