G75*
%MOIN*%
%OFA0B0*%
%FSLAX25Y25*%
%IPPOS*%
%LPD*%
%AMOC8*
5,1,8,0,0,1.08239X$1,22.5*
%
%ADD10C,0.11424*%
%ADD11R,0.16148X0.05912*%
%ADD12R,0.05124X0.10243*%
%ADD13R,0.10243X0.05124*%
%ADD14R,0.08274X0.16148*%
%ADD15R,0.01975X0.03943*%
%ADD16R,0.05124X0.03550*%
%ADD17R,0.03550X0.05124*%
%ADD18OC8,0.06400*%
%ADD19R,0.05000X0.06700*%
%ADD20R,0.00600X0.07200*%
%ADD21C,0.00500*%
%ADD22R,0.01975X0.06699*%
%ADD23R,0.03937X0.02756*%
%ADD24OC8,0.07800*%
%ADD25C,0.02462*%
%ADD26OC8,0.07400*%
%ADD27R,0.05400X0.02600*%
%ADD28R,0.02600X0.05400*%
%ADD29C,0.01301*%
D10*
X0009800Y0009800D03*
X0009800Y0157800D03*
X0251800Y0157800D03*
X0251800Y0009800D03*
D11*
X0177580Y0088241D03*
X0177580Y0096115D03*
X0177580Y0103989D03*
X0177580Y0111863D03*
X0177580Y0119737D03*
X0177580Y0127611D03*
X0177580Y0135485D03*
X0177580Y0143359D03*
X0100020Y0143359D03*
X0100020Y0135485D03*
X0100020Y0127611D03*
X0100020Y0119737D03*
X0100020Y0111863D03*
X0100020Y0103989D03*
X0100020Y0096115D03*
X0100020Y0088241D03*
D12*
X0034296Y0051800D03*
X0021304Y0051800D03*
X0187304Y0067800D03*
X0200296Y0067800D03*
X0202304Y0145800D03*
X0215296Y0145800D03*
D13*
X0072800Y0072296D03*
X0072800Y0059304D03*
D14*
X0033706Y0070800D03*
X0021894Y0070800D03*
D15*
X0050961Y0066383D03*
X0053520Y0066383D03*
X0056080Y0066383D03*
X0058639Y0066383D03*
X0058639Y0089217D03*
X0056080Y0089217D03*
X0053520Y0089217D03*
X0050961Y0089217D03*
D16*
X0085800Y0071343D03*
X0085800Y0064257D03*
X0054800Y0060343D03*
X0054800Y0053257D03*
X0126800Y0019343D03*
X0126800Y0012257D03*
X0172800Y0048257D03*
X0172800Y0055343D03*
X0212800Y0063257D03*
X0212800Y0070343D03*
X0212800Y0089257D03*
X0212800Y0096343D03*
D17*
X0204343Y0094800D03*
X0197257Y0094800D03*
X0197257Y0081800D03*
X0204343Y0081800D03*
X0161343Y0055800D03*
X0154257Y0055800D03*
X0154257Y0046800D03*
X0161343Y0046800D03*
X0099343Y0048800D03*
X0092257Y0048800D03*
X0092257Y0056800D03*
X0099343Y0056800D03*
X0084343Y0097800D03*
X0077257Y0097800D03*
X0206257Y0133800D03*
X0213343Y0133800D03*
D18*
X0182800Y0026800D03*
X0172800Y0026800D03*
X0162800Y0026800D03*
X0152800Y0026800D03*
X0152800Y0015800D03*
X0162800Y0015800D03*
X0172800Y0015800D03*
X0182800Y0015800D03*
X0099800Y0015800D03*
X0089800Y0015800D03*
X0079800Y0015800D03*
X0069800Y0015800D03*
X0069800Y0026800D03*
X0079800Y0026800D03*
X0089800Y0026800D03*
X0099800Y0026800D03*
X0033800Y0090800D03*
X0023800Y0090800D03*
D19*
X0070800Y0086800D03*
X0076800Y0086800D03*
X0189800Y0049800D03*
X0195800Y0049800D03*
X0201800Y0049800D03*
D20*
X0073800Y0086800D03*
D21*
X0055621Y0127874D02*
X0054727Y0127607D01*
X0053800Y0127500D01*
X0052865Y0127617D01*
X0051965Y0127894D01*
X0051127Y0128323D01*
X0050376Y0128892D01*
X0049735Y0129582D01*
X0049223Y0130373D01*
X0048857Y0131241D01*
X0048647Y0132159D01*
X0048600Y0133100D01*
X0048695Y0133984D01*
X0048942Y0134838D01*
X0049333Y0135637D01*
X0049857Y0136355D01*
X0050498Y0136971D01*
X0051237Y0137467D01*
X0052050Y0137827D01*
X0052913Y0138040D01*
X0053800Y0138100D01*
X0054695Y0138030D01*
X0055564Y0137807D01*
X0056382Y0137435D01*
X0057122Y0136927D01*
X0057763Y0136299D01*
X0058285Y0135568D01*
X0058672Y0134758D01*
X0058913Y0133894D01*
X0059000Y0133000D01*
X0058945Y0132069D01*
X0058729Y0131161D01*
X0058358Y0130305D01*
X0057845Y0129526D01*
X0057204Y0128848D01*
X0056455Y0128292D01*
X0055621Y0127874D01*
X0055719Y0127923D02*
X0051908Y0127923D01*
X0050997Y0128422D02*
X0056630Y0128422D01*
X0057272Y0128920D02*
X0050349Y0128920D01*
X0049886Y0129419D02*
X0057744Y0129419D01*
X0058103Y0129917D02*
X0049518Y0129917D01*
X0049205Y0130416D02*
X0058406Y0130416D01*
X0058622Y0130914D02*
X0048995Y0130914D01*
X0048818Y0131413D02*
X0058789Y0131413D01*
X0058907Y0131911D02*
X0048704Y0131911D01*
X0048635Y0132410D02*
X0058965Y0132410D01*
X0058995Y0132908D02*
X0048610Y0132908D01*
X0048633Y0133407D02*
X0058960Y0133407D01*
X0058910Y0133905D02*
X0048686Y0133905D01*
X0048816Y0134404D02*
X0058771Y0134404D01*
X0058603Y0134903D02*
X0048973Y0134903D01*
X0049218Y0135401D02*
X0058365Y0135401D01*
X0058048Y0135900D02*
X0049525Y0135900D01*
X0049902Y0136398D02*
X0057662Y0136398D01*
X0057153Y0136897D02*
X0050421Y0136897D01*
X0051130Y0137395D02*
X0056440Y0137395D01*
X0055226Y0137894D02*
X0052321Y0137894D01*
X0030913Y0133894D02*
X0031000Y0133000D01*
X0030945Y0132069D01*
X0030729Y0131161D01*
X0030358Y0130305D01*
X0029845Y0129526D01*
X0029204Y0128848D01*
X0028455Y0128292D01*
X0027621Y0127874D01*
X0026727Y0127607D01*
X0025800Y0127500D01*
X0024865Y0127617D01*
X0023965Y0127894D01*
X0023127Y0128323D01*
X0022376Y0128892D01*
X0021735Y0129582D01*
X0021223Y0130373D01*
X0020857Y0131241D01*
X0020647Y0132159D01*
X0020600Y0133100D01*
X0020695Y0133984D01*
X0020942Y0134838D01*
X0021333Y0135637D01*
X0021857Y0136355D01*
X0022498Y0136971D01*
X0023237Y0137467D01*
X0024050Y0137827D01*
X0024913Y0138040D01*
X0025800Y0138100D01*
X0026695Y0138030D01*
X0027564Y0137807D01*
X0028382Y0137435D01*
X0029122Y0136927D01*
X0029763Y0136299D01*
X0030285Y0135568D01*
X0030672Y0134758D01*
X0030913Y0133894D01*
X0030910Y0133905D02*
X0020686Y0133905D01*
X0020633Y0133407D02*
X0030960Y0133407D01*
X0030995Y0132908D02*
X0020610Y0132908D01*
X0020635Y0132410D02*
X0030965Y0132410D01*
X0030907Y0131911D02*
X0020704Y0131911D01*
X0020818Y0131413D02*
X0030789Y0131413D01*
X0030622Y0130914D02*
X0020995Y0130914D01*
X0021205Y0130416D02*
X0030406Y0130416D01*
X0030103Y0129917D02*
X0021518Y0129917D01*
X0021886Y0129419D02*
X0029744Y0129419D01*
X0029272Y0128920D02*
X0022349Y0128920D01*
X0022997Y0128422D02*
X0028630Y0128422D01*
X0027719Y0127923D02*
X0023908Y0127923D01*
X0020816Y0134404D02*
X0030771Y0134404D01*
X0030603Y0134903D02*
X0020973Y0134903D01*
X0021218Y0135401D02*
X0030365Y0135401D01*
X0030048Y0135900D02*
X0021525Y0135900D01*
X0021902Y0136398D02*
X0029662Y0136398D01*
X0029153Y0136897D02*
X0022421Y0136897D01*
X0023130Y0137395D02*
X0028440Y0137395D01*
X0027226Y0137894D02*
X0024321Y0137894D01*
X0025800Y0040100D02*
X0026735Y0039983D01*
X0027635Y0039706D01*
X0028473Y0039277D01*
X0029224Y0038708D01*
X0029865Y0038018D01*
X0030377Y0037227D01*
X0030743Y0036359D01*
X0030953Y0035441D01*
X0031000Y0034500D01*
X0030905Y0033616D01*
X0030658Y0032762D01*
X0030267Y0031963D01*
X0029743Y0031245D01*
X0029102Y0030629D01*
X0028363Y0030133D01*
X0027550Y0029773D01*
X0026687Y0029560D01*
X0025800Y0029500D01*
X0024905Y0029570D01*
X0024036Y0029793D01*
X0023218Y0030165D01*
X0022478Y0030673D01*
X0021837Y0031301D01*
X0021315Y0032032D01*
X0020928Y0032842D01*
X0020687Y0033706D01*
X0020600Y0034600D01*
X0020655Y0035531D01*
X0020871Y0036439D01*
X0021242Y0037295D01*
X0021755Y0038074D01*
X0022396Y0038752D01*
X0023145Y0039308D01*
X0023979Y0039726D01*
X0024873Y0039993D01*
X0025800Y0040100D01*
X0027672Y0039687D02*
X0023901Y0039687D01*
X0022984Y0039188D02*
X0028590Y0039188D01*
X0029241Y0038690D02*
X0022337Y0038690D01*
X0021866Y0038191D02*
X0029704Y0038191D01*
X0030075Y0037693D02*
X0021504Y0037693D01*
X0021198Y0037194D02*
X0030390Y0037194D01*
X0030601Y0036696D02*
X0020982Y0036696D01*
X0020814Y0036197D02*
X0030780Y0036197D01*
X0030894Y0035699D02*
X0020695Y0035699D01*
X0020636Y0035200D02*
X0030965Y0035200D01*
X0030990Y0034702D02*
X0020606Y0034702D01*
X0020639Y0034203D02*
X0030968Y0034203D01*
X0030915Y0033705D02*
X0020687Y0033705D01*
X0020826Y0033206D02*
X0030787Y0033206D01*
X0030632Y0032708D02*
X0020992Y0032708D01*
X0021230Y0032209D02*
X0030387Y0032209D01*
X0030082Y0031711D02*
X0021544Y0031711D01*
X0021928Y0031212D02*
X0029708Y0031212D01*
X0029190Y0030714D02*
X0022436Y0030714D01*
X0023145Y0030215D02*
X0028485Y0030215D01*
X0027321Y0029717D02*
X0024334Y0029717D01*
X0048687Y0033706D02*
X0048928Y0032842D01*
X0049315Y0032032D01*
X0049837Y0031301D01*
X0050478Y0030673D01*
X0051218Y0030165D01*
X0052036Y0029793D01*
X0052905Y0029570D01*
X0053800Y0029500D01*
X0054687Y0029560D01*
X0055550Y0029773D01*
X0056363Y0030133D01*
X0057102Y0030629D01*
X0057743Y0031245D01*
X0058267Y0031963D01*
X0058658Y0032762D01*
X0058905Y0033616D01*
X0059000Y0034500D01*
X0058953Y0035441D01*
X0058743Y0036359D01*
X0058377Y0037227D01*
X0057865Y0038018D01*
X0057224Y0038708D01*
X0056473Y0039277D01*
X0055635Y0039706D01*
X0054735Y0039983D01*
X0053800Y0040100D01*
X0052873Y0039993D01*
X0051979Y0039726D01*
X0051145Y0039308D01*
X0050396Y0038752D01*
X0049755Y0038074D01*
X0049242Y0037295D01*
X0048871Y0036439D01*
X0048655Y0035531D01*
X0048600Y0034600D01*
X0048687Y0033706D01*
X0048687Y0033705D02*
X0058915Y0033705D01*
X0058968Y0034203D02*
X0048639Y0034203D01*
X0048606Y0034702D02*
X0058990Y0034702D01*
X0058965Y0035200D02*
X0048636Y0035200D01*
X0048695Y0035699D02*
X0058894Y0035699D01*
X0058780Y0036197D02*
X0048814Y0036197D01*
X0048982Y0036696D02*
X0058601Y0036696D01*
X0058390Y0037194D02*
X0049198Y0037194D01*
X0049504Y0037693D02*
X0058075Y0037693D01*
X0057704Y0038191D02*
X0049866Y0038191D01*
X0050337Y0038690D02*
X0057241Y0038690D01*
X0056590Y0039188D02*
X0050984Y0039188D01*
X0051901Y0039687D02*
X0055672Y0039687D01*
X0058787Y0033206D02*
X0048826Y0033206D01*
X0048992Y0032708D02*
X0058632Y0032708D01*
X0058387Y0032209D02*
X0049230Y0032209D01*
X0049544Y0031711D02*
X0058082Y0031711D01*
X0057708Y0031212D02*
X0049928Y0031212D01*
X0050436Y0030714D02*
X0057190Y0030714D01*
X0056485Y0030215D02*
X0051145Y0030215D01*
X0052334Y0029717D02*
X0055321Y0029717D01*
X0190600Y0034600D02*
X0190687Y0033706D01*
X0190928Y0032842D01*
X0191315Y0032032D01*
X0191837Y0031301D01*
X0192478Y0030673D01*
X0193218Y0030165D01*
X0194036Y0029793D01*
X0194905Y0029570D01*
X0195800Y0029500D01*
X0196687Y0029560D01*
X0197550Y0029773D01*
X0198363Y0030133D01*
X0199102Y0030629D01*
X0199743Y0031245D01*
X0200267Y0031963D01*
X0200658Y0032762D01*
X0200905Y0033616D01*
X0201000Y0034500D01*
X0200953Y0035441D01*
X0200743Y0036359D01*
X0200377Y0037227D01*
X0199865Y0038018D01*
X0199224Y0038708D01*
X0198473Y0039277D01*
X0197635Y0039706D01*
X0196735Y0039983D01*
X0195800Y0040100D01*
X0194873Y0039993D01*
X0193979Y0039726D01*
X0193145Y0039308D01*
X0192396Y0038752D01*
X0191755Y0038074D01*
X0191242Y0037295D01*
X0190871Y0036439D01*
X0190655Y0035531D01*
X0190600Y0034600D01*
X0190606Y0034702D02*
X0200990Y0034702D01*
X0200965Y0035200D02*
X0190636Y0035200D01*
X0190695Y0035699D02*
X0200894Y0035699D01*
X0200780Y0036197D02*
X0190814Y0036197D01*
X0190982Y0036696D02*
X0200601Y0036696D01*
X0200390Y0037194D02*
X0191198Y0037194D01*
X0191504Y0037693D02*
X0200075Y0037693D01*
X0199704Y0038191D02*
X0191866Y0038191D01*
X0192337Y0038690D02*
X0199241Y0038690D01*
X0198590Y0039188D02*
X0192984Y0039188D01*
X0193901Y0039687D02*
X0197672Y0039687D01*
X0200968Y0034203D02*
X0190639Y0034203D01*
X0190687Y0033705D02*
X0200915Y0033705D01*
X0200787Y0033206D02*
X0190826Y0033206D01*
X0190992Y0032708D02*
X0200632Y0032708D01*
X0200387Y0032209D02*
X0191230Y0032209D01*
X0191544Y0031711D02*
X0200082Y0031711D01*
X0199708Y0031212D02*
X0191928Y0031212D01*
X0192436Y0030714D02*
X0199190Y0030714D01*
X0198485Y0030215D02*
X0193145Y0030215D01*
X0194334Y0029717D02*
X0197321Y0029717D01*
X0218687Y0033706D02*
X0218928Y0032842D01*
X0219315Y0032032D01*
X0219837Y0031301D01*
X0220478Y0030673D01*
X0221218Y0030165D01*
X0222036Y0029793D01*
X0222905Y0029570D01*
X0223800Y0029500D01*
X0224687Y0029560D01*
X0225550Y0029773D01*
X0226363Y0030133D01*
X0227102Y0030629D01*
X0227743Y0031245D01*
X0228267Y0031963D01*
X0228658Y0032762D01*
X0228905Y0033616D01*
X0229000Y0034500D01*
X0228953Y0035441D01*
X0228743Y0036359D01*
X0228377Y0037227D01*
X0227865Y0038018D01*
X0227224Y0038708D01*
X0226473Y0039277D01*
X0225635Y0039706D01*
X0224735Y0039983D01*
X0223800Y0040100D01*
X0222873Y0039993D01*
X0221979Y0039726D01*
X0221145Y0039308D01*
X0220396Y0038752D01*
X0219755Y0038074D01*
X0219242Y0037295D01*
X0218871Y0036439D01*
X0218655Y0035531D01*
X0218600Y0034600D01*
X0218687Y0033706D01*
X0218687Y0033705D02*
X0228915Y0033705D01*
X0228968Y0034203D02*
X0218639Y0034203D01*
X0218606Y0034702D02*
X0228990Y0034702D01*
X0228965Y0035200D02*
X0218636Y0035200D01*
X0218695Y0035699D02*
X0228894Y0035699D01*
X0228780Y0036197D02*
X0218814Y0036197D01*
X0218982Y0036696D02*
X0228601Y0036696D01*
X0228390Y0037194D02*
X0219198Y0037194D01*
X0219504Y0037693D02*
X0228075Y0037693D01*
X0227704Y0038191D02*
X0219866Y0038191D01*
X0220337Y0038690D02*
X0227241Y0038690D01*
X0226590Y0039188D02*
X0220984Y0039188D01*
X0221901Y0039687D02*
X0225672Y0039687D01*
X0228787Y0033206D02*
X0218826Y0033206D01*
X0218992Y0032708D02*
X0228632Y0032708D01*
X0228387Y0032209D02*
X0219230Y0032209D01*
X0219544Y0031711D02*
X0228082Y0031711D01*
X0227708Y0031212D02*
X0219928Y0031212D01*
X0220436Y0030714D02*
X0227190Y0030714D01*
X0226485Y0030215D02*
X0221145Y0030215D01*
X0222334Y0029717D02*
X0225321Y0029717D01*
X0223800Y0127500D02*
X0222865Y0127617D01*
X0221965Y0127894D01*
X0221127Y0128323D01*
X0220376Y0128892D01*
X0219735Y0129582D01*
X0219223Y0130373D01*
X0218857Y0131241D01*
X0218647Y0132159D01*
X0218600Y0133100D01*
X0218695Y0133984D01*
X0218942Y0134838D01*
X0219333Y0135637D01*
X0219857Y0136355D01*
X0220498Y0136971D01*
X0221237Y0137467D01*
X0222050Y0137827D01*
X0222913Y0138040D01*
X0223800Y0138100D01*
X0224695Y0138030D01*
X0225564Y0137807D01*
X0226382Y0137435D01*
X0227122Y0136927D01*
X0227763Y0136299D01*
X0228285Y0135568D01*
X0228672Y0134758D01*
X0228913Y0133894D01*
X0229000Y0133000D01*
X0228945Y0132069D01*
X0228729Y0131161D01*
X0228358Y0130305D01*
X0227845Y0129526D01*
X0227204Y0128848D01*
X0226455Y0128292D01*
X0225621Y0127874D01*
X0224727Y0127607D01*
X0223800Y0127500D01*
X0221908Y0127923D02*
X0225719Y0127923D01*
X0226630Y0128422D02*
X0220997Y0128422D01*
X0220349Y0128920D02*
X0227272Y0128920D01*
X0227744Y0129419D02*
X0219886Y0129419D01*
X0219518Y0129917D02*
X0228103Y0129917D01*
X0228406Y0130416D02*
X0219205Y0130416D01*
X0218995Y0130914D02*
X0228622Y0130914D01*
X0228789Y0131413D02*
X0218818Y0131413D01*
X0218704Y0131911D02*
X0228907Y0131911D01*
X0228965Y0132410D02*
X0218635Y0132410D01*
X0218610Y0132908D02*
X0228995Y0132908D01*
X0228960Y0133407D02*
X0218633Y0133407D01*
X0218686Y0133905D02*
X0228910Y0133905D01*
X0228771Y0134404D02*
X0218816Y0134404D01*
X0218973Y0134903D02*
X0228603Y0134903D01*
X0228365Y0135401D02*
X0219218Y0135401D01*
X0219525Y0135900D02*
X0228048Y0135900D01*
X0227662Y0136398D02*
X0219902Y0136398D01*
X0220421Y0136897D02*
X0227153Y0136897D01*
X0226440Y0137395D02*
X0221130Y0137395D01*
X0222321Y0137894D02*
X0225226Y0137894D01*
X0200913Y0133894D02*
X0201000Y0133000D01*
X0200945Y0132069D01*
X0200729Y0131161D01*
X0200358Y0130305D01*
X0199845Y0129526D01*
X0199204Y0128848D01*
X0198455Y0128292D01*
X0197621Y0127874D01*
X0196727Y0127607D01*
X0195800Y0127500D01*
X0194865Y0127617D01*
X0193965Y0127894D01*
X0193127Y0128323D01*
X0192376Y0128892D01*
X0191735Y0129582D01*
X0191223Y0130373D01*
X0190857Y0131241D01*
X0190647Y0132159D01*
X0190600Y0133100D01*
X0190695Y0133984D01*
X0190942Y0134838D01*
X0191333Y0135637D01*
X0191857Y0136355D01*
X0192498Y0136971D01*
X0193237Y0137467D01*
X0194050Y0137827D01*
X0194913Y0138040D01*
X0195800Y0138100D01*
X0196695Y0138030D01*
X0197564Y0137807D01*
X0198382Y0137435D01*
X0199122Y0136927D01*
X0199763Y0136299D01*
X0200285Y0135568D01*
X0200672Y0134758D01*
X0200913Y0133894D01*
X0200910Y0133905D02*
X0190686Y0133905D01*
X0190633Y0133407D02*
X0200960Y0133407D01*
X0200995Y0132908D02*
X0190610Y0132908D01*
X0190635Y0132410D02*
X0200965Y0132410D01*
X0200907Y0131911D02*
X0190704Y0131911D01*
X0190818Y0131413D02*
X0200789Y0131413D01*
X0200622Y0130914D02*
X0190995Y0130914D01*
X0191205Y0130416D02*
X0200406Y0130416D01*
X0200103Y0129917D02*
X0191518Y0129917D01*
X0191886Y0129419D02*
X0199744Y0129419D01*
X0199272Y0128920D02*
X0192349Y0128920D01*
X0192997Y0128422D02*
X0198630Y0128422D01*
X0197719Y0127923D02*
X0193908Y0127923D01*
X0190816Y0134404D02*
X0200771Y0134404D01*
X0200603Y0134903D02*
X0190973Y0134903D01*
X0191218Y0135401D02*
X0200365Y0135401D01*
X0200048Y0135900D02*
X0191525Y0135900D01*
X0191902Y0136398D02*
X0199662Y0136398D01*
X0199153Y0136897D02*
X0192421Y0136897D01*
X0193130Y0137395D02*
X0198440Y0137395D01*
X0197226Y0137894D02*
X0194321Y0137894D01*
D22*
X0154706Y0071800D03*
X0148800Y0071800D03*
X0142894Y0071800D03*
D23*
X0142894Y0067666D03*
X0148800Y0067666D03*
X0154706Y0067666D03*
X0154706Y0075934D03*
X0148800Y0075934D03*
X0142894Y0075934D03*
D24*
X0078800Y0114800D03*
X0068800Y0114800D03*
X0068800Y0124800D03*
X0078800Y0124800D03*
X0078800Y0134800D03*
X0068800Y0134800D03*
D25*
X0045446Y0153107D02*
X0032154Y0153107D01*
X0032154Y0160493D01*
X0045446Y0160493D01*
X0045446Y0153107D01*
X0045446Y0155568D02*
X0032154Y0155568D01*
X0032154Y0158029D02*
X0045446Y0158029D01*
X0045446Y0160490D02*
X0032154Y0160490D01*
D26*
X0244800Y0109997D03*
X0244800Y0059603D03*
D27*
X0142700Y0056824D03*
X0142700Y0053674D03*
X0142700Y0050524D03*
X0142700Y0047375D03*
X0142700Y0044225D03*
X0142700Y0041076D03*
X0142700Y0037926D03*
X0142700Y0034776D03*
X0108900Y0034776D03*
X0108900Y0037926D03*
X0108900Y0041076D03*
X0108900Y0044225D03*
X0108900Y0047375D03*
X0108900Y0050524D03*
X0108900Y0053674D03*
X0108900Y0056824D03*
D28*
X0114776Y0062700D03*
X0117926Y0062700D03*
X0121076Y0062700D03*
X0124225Y0062700D03*
X0127375Y0062700D03*
X0130524Y0062700D03*
X0133674Y0062700D03*
X0136824Y0062700D03*
X0136824Y0028900D03*
X0133674Y0028900D03*
X0130524Y0028900D03*
X0127375Y0028900D03*
X0124225Y0028900D03*
X0121076Y0028900D03*
X0117926Y0028900D03*
X0114776Y0028900D03*
D29*
X0171282Y0059829D02*
X0174318Y0059829D01*
X0171282Y0059829D02*
X0171282Y0062865D01*
X0174318Y0062865D01*
X0174318Y0059829D01*
X0174318Y0061129D02*
X0171282Y0061129D01*
X0171282Y0062429D02*
X0174318Y0062429D01*
X0174318Y0066735D02*
X0171282Y0066735D01*
X0171282Y0069771D01*
X0174318Y0069771D01*
X0174318Y0066735D01*
X0174318Y0068035D02*
X0171282Y0068035D01*
X0171282Y0069335D02*
X0174318Y0069335D01*
M02*
