G75*
%MOIN*%
%OFA0B0*%
%FSLAX25Y25*%
%IPPOS*%
%LPD*%
%AMOC8*
5,1,8,0,0,1.08239X$1,22.5*
%
%ADD10C,0.11424*%
%ADD11OC8,0.06400*%
%ADD12C,0.00500*%
%ADD13OC8,0.07800*%
%ADD14OC8,0.07400*%
%ADD15R,0.03400X0.05400*%
D10*
X0009800Y0009800D03*
X0009800Y0157800D03*
X0251800Y0157800D03*
X0251800Y0009800D03*
D11*
X0182800Y0015800D03*
X0172800Y0015800D03*
X0162800Y0015800D03*
X0152800Y0015800D03*
X0152800Y0026800D03*
X0162800Y0026800D03*
X0172800Y0026800D03*
X0182800Y0026800D03*
X0099800Y0026800D03*
X0089800Y0026800D03*
X0079800Y0026800D03*
X0069800Y0026800D03*
X0069800Y0015800D03*
X0079800Y0015800D03*
X0089800Y0015800D03*
X0099800Y0015800D03*
X0033800Y0090800D03*
X0023800Y0090800D03*
D12*
X0025700Y0129400D02*
X0026374Y0129457D01*
X0027024Y0129644D01*
X0027625Y0129954D01*
X0028154Y0130375D01*
X0028591Y0130892D01*
X0028918Y0131484D01*
X0029124Y0132128D01*
X0029200Y0132800D01*
X0029145Y0133455D01*
X0028964Y0134086D01*
X0028663Y0134670D01*
X0028254Y0135183D01*
X0027753Y0135608D01*
X0027178Y0135926D01*
X0026553Y0136126D01*
X0025900Y0136200D01*
X0025243Y0136165D01*
X0024606Y0136003D01*
X0024013Y0135720D01*
X0023487Y0135326D01*
X0023047Y0134837D01*
X0022712Y0134271D01*
X0022493Y0133651D01*
X0022400Y0133000D01*
X0022437Y0132324D01*
X0022605Y0131668D01*
X0022898Y0131058D01*
X0023304Y0130517D01*
X0023809Y0130065D01*
X0024391Y0129720D01*
X0025030Y0129496D01*
X0025700Y0129400D01*
X0025567Y0129419D02*
X0025925Y0129419D01*
X0027555Y0129917D02*
X0024058Y0129917D01*
X0023417Y0130416D02*
X0028188Y0130416D01*
X0028603Y0130914D02*
X0023006Y0130914D01*
X0022728Y0131413D02*
X0028879Y0131413D01*
X0029055Y0131911D02*
X0022543Y0131911D01*
X0022432Y0132410D02*
X0029156Y0132410D01*
X0029191Y0132908D02*
X0022405Y0132908D01*
X0022458Y0133407D02*
X0029149Y0133407D01*
X0029016Y0133905D02*
X0022583Y0133905D01*
X0022791Y0134404D02*
X0028800Y0134404D01*
X0028478Y0134903D02*
X0023106Y0134903D01*
X0023587Y0135401D02*
X0027997Y0135401D01*
X0027226Y0135900D02*
X0024389Y0135900D01*
X0050400Y0133000D02*
X0050437Y0132324D01*
X0050605Y0131668D01*
X0050898Y0131058D01*
X0051304Y0130517D01*
X0051809Y0130065D01*
X0052391Y0129720D01*
X0053030Y0129496D01*
X0053700Y0129400D01*
X0054374Y0129457D01*
X0055024Y0129644D01*
X0055625Y0129954D01*
X0056154Y0130375D01*
X0056591Y0130892D01*
X0056918Y0131484D01*
X0057124Y0132128D01*
X0057200Y0132800D01*
X0057145Y0133455D01*
X0056964Y0134086D01*
X0056663Y0134670D01*
X0056254Y0135183D01*
X0055753Y0135608D01*
X0055178Y0135926D01*
X0054553Y0136126D01*
X0053900Y0136200D01*
X0053243Y0136165D01*
X0052606Y0136003D01*
X0052013Y0135720D01*
X0051487Y0135326D01*
X0051047Y0134837D01*
X0050712Y0134271D01*
X0050493Y0133651D01*
X0050400Y0133000D01*
X0050405Y0132908D02*
X0057191Y0132908D01*
X0057156Y0132410D02*
X0050432Y0132410D01*
X0050543Y0131911D02*
X0057055Y0131911D01*
X0056879Y0131413D02*
X0050728Y0131413D01*
X0051006Y0130914D02*
X0056603Y0130914D01*
X0056188Y0130416D02*
X0051417Y0130416D01*
X0052058Y0129917D02*
X0055555Y0129917D01*
X0053925Y0129419D02*
X0053567Y0129419D01*
X0050458Y0133407D02*
X0057149Y0133407D01*
X0057016Y0133905D02*
X0050583Y0133905D01*
X0050791Y0134404D02*
X0056800Y0134404D01*
X0056478Y0134903D02*
X0051106Y0134903D01*
X0051587Y0135401D02*
X0055997Y0135401D01*
X0055226Y0135900D02*
X0052389Y0135900D01*
X0192400Y0133000D02*
X0192437Y0132324D01*
X0192605Y0131668D01*
X0192898Y0131058D01*
X0193304Y0130517D01*
X0193809Y0130065D01*
X0194391Y0129720D01*
X0195030Y0129496D01*
X0195700Y0129400D01*
X0196374Y0129457D01*
X0197024Y0129644D01*
X0197625Y0129954D01*
X0198154Y0130375D01*
X0198591Y0130892D01*
X0198918Y0131484D01*
X0199124Y0132128D01*
X0199200Y0132800D01*
X0199145Y0133455D01*
X0198964Y0134086D01*
X0198663Y0134670D01*
X0198254Y0135183D01*
X0197753Y0135608D01*
X0197178Y0135926D01*
X0196553Y0136126D01*
X0195900Y0136200D01*
X0195243Y0136165D01*
X0194606Y0136003D01*
X0194013Y0135720D01*
X0193487Y0135326D01*
X0193047Y0134837D01*
X0192712Y0134271D01*
X0192493Y0133651D01*
X0192400Y0133000D01*
X0192405Y0132908D02*
X0199191Y0132908D01*
X0199156Y0132410D02*
X0192432Y0132410D01*
X0192543Y0131911D02*
X0199055Y0131911D01*
X0198879Y0131413D02*
X0192728Y0131413D01*
X0193006Y0130914D02*
X0198603Y0130914D01*
X0198188Y0130416D02*
X0193417Y0130416D01*
X0194058Y0129917D02*
X0197555Y0129917D01*
X0195925Y0129419D02*
X0195567Y0129419D01*
X0192458Y0133407D02*
X0199149Y0133407D01*
X0199016Y0133905D02*
X0192583Y0133905D01*
X0192791Y0134404D02*
X0198800Y0134404D01*
X0198478Y0134903D02*
X0193106Y0134903D01*
X0193587Y0135401D02*
X0197997Y0135401D01*
X0197226Y0135900D02*
X0194389Y0135900D01*
X0220400Y0133000D02*
X0220437Y0132324D01*
X0220605Y0131668D01*
X0220898Y0131058D01*
X0221304Y0130517D01*
X0221809Y0130065D01*
X0222391Y0129720D01*
X0223030Y0129496D01*
X0223700Y0129400D01*
X0224374Y0129457D01*
X0225024Y0129644D01*
X0225625Y0129954D01*
X0226154Y0130375D01*
X0226591Y0130892D01*
X0226918Y0131484D01*
X0227124Y0132128D01*
X0227200Y0132800D01*
X0227145Y0133455D01*
X0226964Y0134086D01*
X0226663Y0134670D01*
X0226254Y0135183D01*
X0225753Y0135608D01*
X0225178Y0135926D01*
X0224553Y0136126D01*
X0223900Y0136200D01*
X0223243Y0136165D01*
X0222606Y0136003D01*
X0222013Y0135720D01*
X0221487Y0135326D01*
X0221047Y0134837D01*
X0220712Y0134271D01*
X0220493Y0133651D01*
X0220400Y0133000D01*
X0220405Y0132908D02*
X0227191Y0132908D01*
X0227156Y0132410D02*
X0220432Y0132410D01*
X0220543Y0131911D02*
X0227055Y0131911D01*
X0226879Y0131413D02*
X0220728Y0131413D01*
X0221006Y0130914D02*
X0226603Y0130914D01*
X0226188Y0130416D02*
X0221417Y0130416D01*
X0222058Y0129917D02*
X0225555Y0129917D01*
X0223925Y0129419D02*
X0223567Y0129419D01*
X0220458Y0133407D02*
X0227149Y0133407D01*
X0227016Y0133905D02*
X0220583Y0133905D01*
X0220791Y0134404D02*
X0226800Y0134404D01*
X0226478Y0134903D02*
X0221106Y0134903D01*
X0221587Y0135401D02*
X0225997Y0135401D01*
X0225226Y0135900D02*
X0222389Y0135900D01*
X0223900Y0038200D02*
X0223226Y0038143D01*
X0222576Y0037956D01*
X0221975Y0037646D01*
X0221446Y0037225D01*
X0221009Y0036708D01*
X0220682Y0036116D01*
X0220476Y0035472D01*
X0220400Y0034800D01*
X0220455Y0034145D01*
X0220636Y0033514D01*
X0220937Y0032930D01*
X0221346Y0032417D01*
X0221847Y0031992D01*
X0222422Y0031674D01*
X0223047Y0031474D01*
X0223700Y0031400D01*
X0224357Y0031435D01*
X0224994Y0031597D01*
X0225587Y0031880D01*
X0226113Y0032274D01*
X0226553Y0032763D01*
X0226888Y0033329D01*
X0227107Y0033949D01*
X0227200Y0034600D01*
X0227163Y0035276D01*
X0226995Y0035932D01*
X0226702Y0036542D01*
X0226296Y0037083D01*
X0225791Y0037535D01*
X0225209Y0037880D01*
X0224570Y0038104D01*
X0223900Y0038200D01*
X0223961Y0038191D02*
X0223797Y0038191D01*
X0225525Y0037693D02*
X0222065Y0037693D01*
X0221420Y0037194D02*
X0226172Y0037194D01*
X0226587Y0036696D02*
X0221002Y0036696D01*
X0220727Y0036197D02*
X0226867Y0036197D01*
X0227055Y0035699D02*
X0220548Y0035699D01*
X0220445Y0035200D02*
X0227167Y0035200D01*
X0227194Y0034702D02*
X0220408Y0034702D01*
X0220450Y0034203D02*
X0227143Y0034203D01*
X0227021Y0033705D02*
X0220581Y0033705D01*
X0220795Y0033206D02*
X0226815Y0033206D01*
X0226503Y0032708D02*
X0221114Y0032708D01*
X0221591Y0032209D02*
X0226026Y0032209D01*
X0225232Y0031711D02*
X0222356Y0031711D01*
X0199200Y0034600D02*
X0199163Y0035276D01*
X0198995Y0035932D01*
X0198702Y0036542D01*
X0198296Y0037083D01*
X0197791Y0037535D01*
X0197209Y0037880D01*
X0196570Y0038104D01*
X0195900Y0038200D01*
X0195226Y0038143D01*
X0194576Y0037956D01*
X0193975Y0037646D01*
X0193446Y0037225D01*
X0193009Y0036708D01*
X0192682Y0036116D01*
X0192476Y0035472D01*
X0192400Y0034800D01*
X0192455Y0034145D01*
X0192636Y0033514D01*
X0192937Y0032930D01*
X0193346Y0032417D01*
X0193847Y0031992D01*
X0194422Y0031674D01*
X0195047Y0031474D01*
X0195700Y0031400D01*
X0196357Y0031435D01*
X0196994Y0031597D01*
X0197587Y0031880D01*
X0198113Y0032274D01*
X0198553Y0032763D01*
X0198888Y0033329D01*
X0199107Y0033949D01*
X0199200Y0034600D01*
X0199194Y0034702D02*
X0192408Y0034702D01*
X0192445Y0035200D02*
X0199167Y0035200D01*
X0199055Y0035699D02*
X0192548Y0035699D01*
X0192727Y0036197D02*
X0198867Y0036197D01*
X0198587Y0036696D02*
X0193002Y0036696D01*
X0193420Y0037194D02*
X0198172Y0037194D01*
X0197525Y0037693D02*
X0194065Y0037693D01*
X0195797Y0038191D02*
X0195961Y0038191D01*
X0199143Y0034203D02*
X0192450Y0034203D01*
X0192581Y0033705D02*
X0199021Y0033705D01*
X0198815Y0033206D02*
X0192795Y0033206D01*
X0193114Y0032708D02*
X0198503Y0032708D01*
X0198026Y0032209D02*
X0193591Y0032209D01*
X0194356Y0031711D02*
X0197232Y0031711D01*
X0057200Y0034600D02*
X0057163Y0035276D01*
X0056995Y0035932D01*
X0056702Y0036542D01*
X0056296Y0037083D01*
X0055791Y0037535D01*
X0055209Y0037880D01*
X0054570Y0038104D01*
X0053900Y0038200D01*
X0053226Y0038143D01*
X0052576Y0037956D01*
X0051975Y0037646D01*
X0051446Y0037225D01*
X0051009Y0036708D01*
X0050682Y0036116D01*
X0050476Y0035472D01*
X0050400Y0034800D01*
X0050455Y0034145D01*
X0050636Y0033514D01*
X0050937Y0032930D01*
X0051346Y0032417D01*
X0051847Y0031992D01*
X0052422Y0031674D01*
X0053047Y0031474D01*
X0053700Y0031400D01*
X0054357Y0031435D01*
X0054994Y0031597D01*
X0055587Y0031880D01*
X0056113Y0032274D01*
X0056553Y0032763D01*
X0056888Y0033329D01*
X0057107Y0033949D01*
X0057200Y0034600D01*
X0057194Y0034702D02*
X0050408Y0034702D01*
X0050445Y0035200D02*
X0057167Y0035200D01*
X0057055Y0035699D02*
X0050548Y0035699D01*
X0050727Y0036197D02*
X0056867Y0036197D01*
X0056587Y0036696D02*
X0051002Y0036696D01*
X0051420Y0037194D02*
X0056172Y0037194D01*
X0055525Y0037693D02*
X0052065Y0037693D01*
X0053797Y0038191D02*
X0053961Y0038191D01*
X0057143Y0034203D02*
X0050450Y0034203D01*
X0050581Y0033705D02*
X0057021Y0033705D01*
X0056815Y0033206D02*
X0050795Y0033206D01*
X0051114Y0032708D02*
X0056503Y0032708D01*
X0056026Y0032209D02*
X0051591Y0032209D01*
X0052356Y0031711D02*
X0055232Y0031711D01*
X0029200Y0034600D02*
X0029163Y0035276D01*
X0028995Y0035932D01*
X0028702Y0036542D01*
X0028296Y0037083D01*
X0027791Y0037535D01*
X0027209Y0037880D01*
X0026570Y0038104D01*
X0025900Y0038200D01*
X0025226Y0038143D01*
X0024576Y0037956D01*
X0023975Y0037646D01*
X0023446Y0037225D01*
X0023009Y0036708D01*
X0022682Y0036116D01*
X0022476Y0035472D01*
X0022400Y0034800D01*
X0022455Y0034145D01*
X0022636Y0033514D01*
X0022937Y0032930D01*
X0023346Y0032417D01*
X0023847Y0031992D01*
X0024422Y0031674D01*
X0025047Y0031474D01*
X0025700Y0031400D01*
X0026357Y0031435D01*
X0026994Y0031597D01*
X0027587Y0031880D01*
X0028113Y0032274D01*
X0028553Y0032763D01*
X0028888Y0033329D01*
X0029107Y0033949D01*
X0029200Y0034600D01*
X0029194Y0034702D02*
X0022408Y0034702D01*
X0022445Y0035200D02*
X0029167Y0035200D01*
X0029055Y0035699D02*
X0022548Y0035699D01*
X0022727Y0036197D02*
X0028867Y0036197D01*
X0028587Y0036696D02*
X0023002Y0036696D01*
X0023420Y0037194D02*
X0028172Y0037194D01*
X0027525Y0037693D02*
X0024065Y0037693D01*
X0025797Y0038191D02*
X0025961Y0038191D01*
X0029143Y0034203D02*
X0022450Y0034203D01*
X0022581Y0033705D02*
X0029021Y0033705D01*
X0028815Y0033206D02*
X0022795Y0033206D01*
X0023114Y0032708D02*
X0028503Y0032708D01*
X0028026Y0032209D02*
X0023591Y0032209D01*
X0024356Y0031711D02*
X0027232Y0031711D01*
D13*
X0068800Y0114800D03*
X0078800Y0114800D03*
X0078800Y0124800D03*
X0068800Y0124800D03*
X0068800Y0134800D03*
X0078800Y0134800D03*
D14*
X0244800Y0109997D03*
X0244800Y0059603D03*
D15*
X0158300Y0069233D03*
X0153300Y0069233D03*
X0148300Y0069233D03*
X0143300Y0069233D03*
X0138300Y0069233D03*
X0133300Y0069233D03*
X0128300Y0069233D03*
X0123300Y0069233D03*
X0123300Y0098367D03*
X0128300Y0098367D03*
X0133300Y0098367D03*
X0138300Y0098367D03*
X0143300Y0098367D03*
X0148300Y0098367D03*
X0153300Y0098367D03*
X0158300Y0098367D03*
M02*
