G75*
%MOIN*%
%OFA0B0*%
%FSLAX25Y25*%
%IPPOS*%
%LPD*%
%AMOC8*
5,1,8,0,0,1.08239X$1,22.5*
%
%ADD10C,0.00000*%
%ADD11C,0.01200*%
%ADD12C,0.00300*%
%ADD13R,0.01250X0.06250*%
%ADD14R,0.06250X0.01250*%
%ADD15C,0.00800*%
%ADD16R,0.01250X0.23750*%
%ADD17R,0.13600X0.01400*%
%ADD18C,0.00400*%
%ADD19C,0.00500*%
%ADD20C,0.00600*%
%ADD21R,0.01181X0.03937*%
D10*
X0004288Y0009800D02*
X0004290Y0009948D01*
X0004296Y0010096D01*
X0004306Y0010244D01*
X0004320Y0010391D01*
X0004338Y0010538D01*
X0004359Y0010684D01*
X0004385Y0010830D01*
X0004415Y0010975D01*
X0004448Y0011119D01*
X0004486Y0011262D01*
X0004527Y0011404D01*
X0004572Y0011545D01*
X0004620Y0011685D01*
X0004673Y0011824D01*
X0004729Y0011961D01*
X0004789Y0012096D01*
X0004852Y0012230D01*
X0004919Y0012362D01*
X0004990Y0012492D01*
X0005064Y0012620D01*
X0005141Y0012746D01*
X0005222Y0012870D01*
X0005306Y0012992D01*
X0005393Y0013111D01*
X0005484Y0013228D01*
X0005578Y0013343D01*
X0005674Y0013455D01*
X0005774Y0013565D01*
X0005876Y0013671D01*
X0005982Y0013775D01*
X0006090Y0013876D01*
X0006201Y0013974D01*
X0006314Y0014070D01*
X0006430Y0014162D01*
X0006548Y0014251D01*
X0006669Y0014336D01*
X0006792Y0014419D01*
X0006917Y0014498D01*
X0007044Y0014574D01*
X0007173Y0014646D01*
X0007304Y0014715D01*
X0007437Y0014780D01*
X0007572Y0014841D01*
X0007708Y0014899D01*
X0007845Y0014954D01*
X0007984Y0015004D01*
X0008125Y0015051D01*
X0008266Y0015094D01*
X0008409Y0015134D01*
X0008553Y0015169D01*
X0008697Y0015201D01*
X0008843Y0015228D01*
X0008989Y0015252D01*
X0009136Y0015272D01*
X0009283Y0015288D01*
X0009430Y0015300D01*
X0009578Y0015308D01*
X0009726Y0015312D01*
X0009874Y0015312D01*
X0010022Y0015308D01*
X0010170Y0015300D01*
X0010317Y0015288D01*
X0010464Y0015272D01*
X0010611Y0015252D01*
X0010757Y0015228D01*
X0010903Y0015201D01*
X0011047Y0015169D01*
X0011191Y0015134D01*
X0011334Y0015094D01*
X0011475Y0015051D01*
X0011616Y0015004D01*
X0011755Y0014954D01*
X0011892Y0014899D01*
X0012028Y0014841D01*
X0012163Y0014780D01*
X0012296Y0014715D01*
X0012427Y0014646D01*
X0012556Y0014574D01*
X0012683Y0014498D01*
X0012808Y0014419D01*
X0012931Y0014336D01*
X0013052Y0014251D01*
X0013170Y0014162D01*
X0013286Y0014070D01*
X0013399Y0013974D01*
X0013510Y0013876D01*
X0013618Y0013775D01*
X0013724Y0013671D01*
X0013826Y0013565D01*
X0013926Y0013455D01*
X0014022Y0013343D01*
X0014116Y0013228D01*
X0014207Y0013111D01*
X0014294Y0012992D01*
X0014378Y0012870D01*
X0014459Y0012746D01*
X0014536Y0012620D01*
X0014610Y0012492D01*
X0014681Y0012362D01*
X0014748Y0012230D01*
X0014811Y0012096D01*
X0014871Y0011961D01*
X0014927Y0011824D01*
X0014980Y0011685D01*
X0015028Y0011545D01*
X0015073Y0011404D01*
X0015114Y0011262D01*
X0015152Y0011119D01*
X0015185Y0010975D01*
X0015215Y0010830D01*
X0015241Y0010684D01*
X0015262Y0010538D01*
X0015280Y0010391D01*
X0015294Y0010244D01*
X0015304Y0010096D01*
X0015310Y0009948D01*
X0015312Y0009800D01*
X0015310Y0009652D01*
X0015304Y0009504D01*
X0015294Y0009356D01*
X0015280Y0009209D01*
X0015262Y0009062D01*
X0015241Y0008916D01*
X0015215Y0008770D01*
X0015185Y0008625D01*
X0015152Y0008481D01*
X0015114Y0008338D01*
X0015073Y0008196D01*
X0015028Y0008055D01*
X0014980Y0007915D01*
X0014927Y0007776D01*
X0014871Y0007639D01*
X0014811Y0007504D01*
X0014748Y0007370D01*
X0014681Y0007238D01*
X0014610Y0007108D01*
X0014536Y0006980D01*
X0014459Y0006854D01*
X0014378Y0006730D01*
X0014294Y0006608D01*
X0014207Y0006489D01*
X0014116Y0006372D01*
X0014022Y0006257D01*
X0013926Y0006145D01*
X0013826Y0006035D01*
X0013724Y0005929D01*
X0013618Y0005825D01*
X0013510Y0005724D01*
X0013399Y0005626D01*
X0013286Y0005530D01*
X0013170Y0005438D01*
X0013052Y0005349D01*
X0012931Y0005264D01*
X0012808Y0005181D01*
X0012683Y0005102D01*
X0012556Y0005026D01*
X0012427Y0004954D01*
X0012296Y0004885D01*
X0012163Y0004820D01*
X0012028Y0004759D01*
X0011892Y0004701D01*
X0011755Y0004646D01*
X0011616Y0004596D01*
X0011475Y0004549D01*
X0011334Y0004506D01*
X0011191Y0004466D01*
X0011047Y0004431D01*
X0010903Y0004399D01*
X0010757Y0004372D01*
X0010611Y0004348D01*
X0010464Y0004328D01*
X0010317Y0004312D01*
X0010170Y0004300D01*
X0010022Y0004292D01*
X0009874Y0004288D01*
X0009726Y0004288D01*
X0009578Y0004292D01*
X0009430Y0004300D01*
X0009283Y0004312D01*
X0009136Y0004328D01*
X0008989Y0004348D01*
X0008843Y0004372D01*
X0008697Y0004399D01*
X0008553Y0004431D01*
X0008409Y0004466D01*
X0008266Y0004506D01*
X0008125Y0004549D01*
X0007984Y0004596D01*
X0007845Y0004646D01*
X0007708Y0004701D01*
X0007572Y0004759D01*
X0007437Y0004820D01*
X0007304Y0004885D01*
X0007173Y0004954D01*
X0007044Y0005026D01*
X0006917Y0005102D01*
X0006792Y0005181D01*
X0006669Y0005264D01*
X0006548Y0005349D01*
X0006430Y0005438D01*
X0006314Y0005530D01*
X0006201Y0005626D01*
X0006090Y0005724D01*
X0005982Y0005825D01*
X0005876Y0005929D01*
X0005774Y0006035D01*
X0005674Y0006145D01*
X0005578Y0006257D01*
X0005484Y0006372D01*
X0005393Y0006489D01*
X0005306Y0006608D01*
X0005222Y0006730D01*
X0005141Y0006854D01*
X0005064Y0006980D01*
X0004990Y0007108D01*
X0004919Y0007238D01*
X0004852Y0007370D01*
X0004789Y0007504D01*
X0004729Y0007639D01*
X0004673Y0007776D01*
X0004620Y0007915D01*
X0004572Y0008055D01*
X0004527Y0008196D01*
X0004486Y0008338D01*
X0004448Y0008481D01*
X0004415Y0008625D01*
X0004385Y0008770D01*
X0004359Y0008916D01*
X0004338Y0009062D01*
X0004320Y0009209D01*
X0004306Y0009356D01*
X0004296Y0009504D01*
X0004290Y0009652D01*
X0004288Y0009800D01*
X0004288Y0157800D02*
X0004290Y0157948D01*
X0004296Y0158096D01*
X0004306Y0158244D01*
X0004320Y0158391D01*
X0004338Y0158538D01*
X0004359Y0158684D01*
X0004385Y0158830D01*
X0004415Y0158975D01*
X0004448Y0159119D01*
X0004486Y0159262D01*
X0004527Y0159404D01*
X0004572Y0159545D01*
X0004620Y0159685D01*
X0004673Y0159824D01*
X0004729Y0159961D01*
X0004789Y0160096D01*
X0004852Y0160230D01*
X0004919Y0160362D01*
X0004990Y0160492D01*
X0005064Y0160620D01*
X0005141Y0160746D01*
X0005222Y0160870D01*
X0005306Y0160992D01*
X0005393Y0161111D01*
X0005484Y0161228D01*
X0005578Y0161343D01*
X0005674Y0161455D01*
X0005774Y0161565D01*
X0005876Y0161671D01*
X0005982Y0161775D01*
X0006090Y0161876D01*
X0006201Y0161974D01*
X0006314Y0162070D01*
X0006430Y0162162D01*
X0006548Y0162251D01*
X0006669Y0162336D01*
X0006792Y0162419D01*
X0006917Y0162498D01*
X0007044Y0162574D01*
X0007173Y0162646D01*
X0007304Y0162715D01*
X0007437Y0162780D01*
X0007572Y0162841D01*
X0007708Y0162899D01*
X0007845Y0162954D01*
X0007984Y0163004D01*
X0008125Y0163051D01*
X0008266Y0163094D01*
X0008409Y0163134D01*
X0008553Y0163169D01*
X0008697Y0163201D01*
X0008843Y0163228D01*
X0008989Y0163252D01*
X0009136Y0163272D01*
X0009283Y0163288D01*
X0009430Y0163300D01*
X0009578Y0163308D01*
X0009726Y0163312D01*
X0009874Y0163312D01*
X0010022Y0163308D01*
X0010170Y0163300D01*
X0010317Y0163288D01*
X0010464Y0163272D01*
X0010611Y0163252D01*
X0010757Y0163228D01*
X0010903Y0163201D01*
X0011047Y0163169D01*
X0011191Y0163134D01*
X0011334Y0163094D01*
X0011475Y0163051D01*
X0011616Y0163004D01*
X0011755Y0162954D01*
X0011892Y0162899D01*
X0012028Y0162841D01*
X0012163Y0162780D01*
X0012296Y0162715D01*
X0012427Y0162646D01*
X0012556Y0162574D01*
X0012683Y0162498D01*
X0012808Y0162419D01*
X0012931Y0162336D01*
X0013052Y0162251D01*
X0013170Y0162162D01*
X0013286Y0162070D01*
X0013399Y0161974D01*
X0013510Y0161876D01*
X0013618Y0161775D01*
X0013724Y0161671D01*
X0013826Y0161565D01*
X0013926Y0161455D01*
X0014022Y0161343D01*
X0014116Y0161228D01*
X0014207Y0161111D01*
X0014294Y0160992D01*
X0014378Y0160870D01*
X0014459Y0160746D01*
X0014536Y0160620D01*
X0014610Y0160492D01*
X0014681Y0160362D01*
X0014748Y0160230D01*
X0014811Y0160096D01*
X0014871Y0159961D01*
X0014927Y0159824D01*
X0014980Y0159685D01*
X0015028Y0159545D01*
X0015073Y0159404D01*
X0015114Y0159262D01*
X0015152Y0159119D01*
X0015185Y0158975D01*
X0015215Y0158830D01*
X0015241Y0158684D01*
X0015262Y0158538D01*
X0015280Y0158391D01*
X0015294Y0158244D01*
X0015304Y0158096D01*
X0015310Y0157948D01*
X0015312Y0157800D01*
X0015310Y0157652D01*
X0015304Y0157504D01*
X0015294Y0157356D01*
X0015280Y0157209D01*
X0015262Y0157062D01*
X0015241Y0156916D01*
X0015215Y0156770D01*
X0015185Y0156625D01*
X0015152Y0156481D01*
X0015114Y0156338D01*
X0015073Y0156196D01*
X0015028Y0156055D01*
X0014980Y0155915D01*
X0014927Y0155776D01*
X0014871Y0155639D01*
X0014811Y0155504D01*
X0014748Y0155370D01*
X0014681Y0155238D01*
X0014610Y0155108D01*
X0014536Y0154980D01*
X0014459Y0154854D01*
X0014378Y0154730D01*
X0014294Y0154608D01*
X0014207Y0154489D01*
X0014116Y0154372D01*
X0014022Y0154257D01*
X0013926Y0154145D01*
X0013826Y0154035D01*
X0013724Y0153929D01*
X0013618Y0153825D01*
X0013510Y0153724D01*
X0013399Y0153626D01*
X0013286Y0153530D01*
X0013170Y0153438D01*
X0013052Y0153349D01*
X0012931Y0153264D01*
X0012808Y0153181D01*
X0012683Y0153102D01*
X0012556Y0153026D01*
X0012427Y0152954D01*
X0012296Y0152885D01*
X0012163Y0152820D01*
X0012028Y0152759D01*
X0011892Y0152701D01*
X0011755Y0152646D01*
X0011616Y0152596D01*
X0011475Y0152549D01*
X0011334Y0152506D01*
X0011191Y0152466D01*
X0011047Y0152431D01*
X0010903Y0152399D01*
X0010757Y0152372D01*
X0010611Y0152348D01*
X0010464Y0152328D01*
X0010317Y0152312D01*
X0010170Y0152300D01*
X0010022Y0152292D01*
X0009874Y0152288D01*
X0009726Y0152288D01*
X0009578Y0152292D01*
X0009430Y0152300D01*
X0009283Y0152312D01*
X0009136Y0152328D01*
X0008989Y0152348D01*
X0008843Y0152372D01*
X0008697Y0152399D01*
X0008553Y0152431D01*
X0008409Y0152466D01*
X0008266Y0152506D01*
X0008125Y0152549D01*
X0007984Y0152596D01*
X0007845Y0152646D01*
X0007708Y0152701D01*
X0007572Y0152759D01*
X0007437Y0152820D01*
X0007304Y0152885D01*
X0007173Y0152954D01*
X0007044Y0153026D01*
X0006917Y0153102D01*
X0006792Y0153181D01*
X0006669Y0153264D01*
X0006548Y0153349D01*
X0006430Y0153438D01*
X0006314Y0153530D01*
X0006201Y0153626D01*
X0006090Y0153724D01*
X0005982Y0153825D01*
X0005876Y0153929D01*
X0005774Y0154035D01*
X0005674Y0154145D01*
X0005578Y0154257D01*
X0005484Y0154372D01*
X0005393Y0154489D01*
X0005306Y0154608D01*
X0005222Y0154730D01*
X0005141Y0154854D01*
X0005064Y0154980D01*
X0004990Y0155108D01*
X0004919Y0155238D01*
X0004852Y0155370D01*
X0004789Y0155504D01*
X0004729Y0155639D01*
X0004673Y0155776D01*
X0004620Y0155915D01*
X0004572Y0156055D01*
X0004527Y0156196D01*
X0004486Y0156338D01*
X0004448Y0156481D01*
X0004415Y0156625D01*
X0004385Y0156770D01*
X0004359Y0156916D01*
X0004338Y0157062D01*
X0004320Y0157209D01*
X0004306Y0157356D01*
X0004296Y0157504D01*
X0004290Y0157652D01*
X0004288Y0157800D01*
X0246288Y0157800D02*
X0246290Y0157948D01*
X0246296Y0158096D01*
X0246306Y0158244D01*
X0246320Y0158391D01*
X0246338Y0158538D01*
X0246359Y0158684D01*
X0246385Y0158830D01*
X0246415Y0158975D01*
X0246448Y0159119D01*
X0246486Y0159262D01*
X0246527Y0159404D01*
X0246572Y0159545D01*
X0246620Y0159685D01*
X0246673Y0159824D01*
X0246729Y0159961D01*
X0246789Y0160096D01*
X0246852Y0160230D01*
X0246919Y0160362D01*
X0246990Y0160492D01*
X0247064Y0160620D01*
X0247141Y0160746D01*
X0247222Y0160870D01*
X0247306Y0160992D01*
X0247393Y0161111D01*
X0247484Y0161228D01*
X0247578Y0161343D01*
X0247674Y0161455D01*
X0247774Y0161565D01*
X0247876Y0161671D01*
X0247982Y0161775D01*
X0248090Y0161876D01*
X0248201Y0161974D01*
X0248314Y0162070D01*
X0248430Y0162162D01*
X0248548Y0162251D01*
X0248669Y0162336D01*
X0248792Y0162419D01*
X0248917Y0162498D01*
X0249044Y0162574D01*
X0249173Y0162646D01*
X0249304Y0162715D01*
X0249437Y0162780D01*
X0249572Y0162841D01*
X0249708Y0162899D01*
X0249845Y0162954D01*
X0249984Y0163004D01*
X0250125Y0163051D01*
X0250266Y0163094D01*
X0250409Y0163134D01*
X0250553Y0163169D01*
X0250697Y0163201D01*
X0250843Y0163228D01*
X0250989Y0163252D01*
X0251136Y0163272D01*
X0251283Y0163288D01*
X0251430Y0163300D01*
X0251578Y0163308D01*
X0251726Y0163312D01*
X0251874Y0163312D01*
X0252022Y0163308D01*
X0252170Y0163300D01*
X0252317Y0163288D01*
X0252464Y0163272D01*
X0252611Y0163252D01*
X0252757Y0163228D01*
X0252903Y0163201D01*
X0253047Y0163169D01*
X0253191Y0163134D01*
X0253334Y0163094D01*
X0253475Y0163051D01*
X0253616Y0163004D01*
X0253755Y0162954D01*
X0253892Y0162899D01*
X0254028Y0162841D01*
X0254163Y0162780D01*
X0254296Y0162715D01*
X0254427Y0162646D01*
X0254556Y0162574D01*
X0254683Y0162498D01*
X0254808Y0162419D01*
X0254931Y0162336D01*
X0255052Y0162251D01*
X0255170Y0162162D01*
X0255286Y0162070D01*
X0255399Y0161974D01*
X0255510Y0161876D01*
X0255618Y0161775D01*
X0255724Y0161671D01*
X0255826Y0161565D01*
X0255926Y0161455D01*
X0256022Y0161343D01*
X0256116Y0161228D01*
X0256207Y0161111D01*
X0256294Y0160992D01*
X0256378Y0160870D01*
X0256459Y0160746D01*
X0256536Y0160620D01*
X0256610Y0160492D01*
X0256681Y0160362D01*
X0256748Y0160230D01*
X0256811Y0160096D01*
X0256871Y0159961D01*
X0256927Y0159824D01*
X0256980Y0159685D01*
X0257028Y0159545D01*
X0257073Y0159404D01*
X0257114Y0159262D01*
X0257152Y0159119D01*
X0257185Y0158975D01*
X0257215Y0158830D01*
X0257241Y0158684D01*
X0257262Y0158538D01*
X0257280Y0158391D01*
X0257294Y0158244D01*
X0257304Y0158096D01*
X0257310Y0157948D01*
X0257312Y0157800D01*
X0257310Y0157652D01*
X0257304Y0157504D01*
X0257294Y0157356D01*
X0257280Y0157209D01*
X0257262Y0157062D01*
X0257241Y0156916D01*
X0257215Y0156770D01*
X0257185Y0156625D01*
X0257152Y0156481D01*
X0257114Y0156338D01*
X0257073Y0156196D01*
X0257028Y0156055D01*
X0256980Y0155915D01*
X0256927Y0155776D01*
X0256871Y0155639D01*
X0256811Y0155504D01*
X0256748Y0155370D01*
X0256681Y0155238D01*
X0256610Y0155108D01*
X0256536Y0154980D01*
X0256459Y0154854D01*
X0256378Y0154730D01*
X0256294Y0154608D01*
X0256207Y0154489D01*
X0256116Y0154372D01*
X0256022Y0154257D01*
X0255926Y0154145D01*
X0255826Y0154035D01*
X0255724Y0153929D01*
X0255618Y0153825D01*
X0255510Y0153724D01*
X0255399Y0153626D01*
X0255286Y0153530D01*
X0255170Y0153438D01*
X0255052Y0153349D01*
X0254931Y0153264D01*
X0254808Y0153181D01*
X0254683Y0153102D01*
X0254556Y0153026D01*
X0254427Y0152954D01*
X0254296Y0152885D01*
X0254163Y0152820D01*
X0254028Y0152759D01*
X0253892Y0152701D01*
X0253755Y0152646D01*
X0253616Y0152596D01*
X0253475Y0152549D01*
X0253334Y0152506D01*
X0253191Y0152466D01*
X0253047Y0152431D01*
X0252903Y0152399D01*
X0252757Y0152372D01*
X0252611Y0152348D01*
X0252464Y0152328D01*
X0252317Y0152312D01*
X0252170Y0152300D01*
X0252022Y0152292D01*
X0251874Y0152288D01*
X0251726Y0152288D01*
X0251578Y0152292D01*
X0251430Y0152300D01*
X0251283Y0152312D01*
X0251136Y0152328D01*
X0250989Y0152348D01*
X0250843Y0152372D01*
X0250697Y0152399D01*
X0250553Y0152431D01*
X0250409Y0152466D01*
X0250266Y0152506D01*
X0250125Y0152549D01*
X0249984Y0152596D01*
X0249845Y0152646D01*
X0249708Y0152701D01*
X0249572Y0152759D01*
X0249437Y0152820D01*
X0249304Y0152885D01*
X0249173Y0152954D01*
X0249044Y0153026D01*
X0248917Y0153102D01*
X0248792Y0153181D01*
X0248669Y0153264D01*
X0248548Y0153349D01*
X0248430Y0153438D01*
X0248314Y0153530D01*
X0248201Y0153626D01*
X0248090Y0153724D01*
X0247982Y0153825D01*
X0247876Y0153929D01*
X0247774Y0154035D01*
X0247674Y0154145D01*
X0247578Y0154257D01*
X0247484Y0154372D01*
X0247393Y0154489D01*
X0247306Y0154608D01*
X0247222Y0154730D01*
X0247141Y0154854D01*
X0247064Y0154980D01*
X0246990Y0155108D01*
X0246919Y0155238D01*
X0246852Y0155370D01*
X0246789Y0155504D01*
X0246729Y0155639D01*
X0246673Y0155776D01*
X0246620Y0155915D01*
X0246572Y0156055D01*
X0246527Y0156196D01*
X0246486Y0156338D01*
X0246448Y0156481D01*
X0246415Y0156625D01*
X0246385Y0156770D01*
X0246359Y0156916D01*
X0246338Y0157062D01*
X0246320Y0157209D01*
X0246306Y0157356D01*
X0246296Y0157504D01*
X0246290Y0157652D01*
X0246288Y0157800D01*
X0246288Y0009800D02*
X0246290Y0009948D01*
X0246296Y0010096D01*
X0246306Y0010244D01*
X0246320Y0010391D01*
X0246338Y0010538D01*
X0246359Y0010684D01*
X0246385Y0010830D01*
X0246415Y0010975D01*
X0246448Y0011119D01*
X0246486Y0011262D01*
X0246527Y0011404D01*
X0246572Y0011545D01*
X0246620Y0011685D01*
X0246673Y0011824D01*
X0246729Y0011961D01*
X0246789Y0012096D01*
X0246852Y0012230D01*
X0246919Y0012362D01*
X0246990Y0012492D01*
X0247064Y0012620D01*
X0247141Y0012746D01*
X0247222Y0012870D01*
X0247306Y0012992D01*
X0247393Y0013111D01*
X0247484Y0013228D01*
X0247578Y0013343D01*
X0247674Y0013455D01*
X0247774Y0013565D01*
X0247876Y0013671D01*
X0247982Y0013775D01*
X0248090Y0013876D01*
X0248201Y0013974D01*
X0248314Y0014070D01*
X0248430Y0014162D01*
X0248548Y0014251D01*
X0248669Y0014336D01*
X0248792Y0014419D01*
X0248917Y0014498D01*
X0249044Y0014574D01*
X0249173Y0014646D01*
X0249304Y0014715D01*
X0249437Y0014780D01*
X0249572Y0014841D01*
X0249708Y0014899D01*
X0249845Y0014954D01*
X0249984Y0015004D01*
X0250125Y0015051D01*
X0250266Y0015094D01*
X0250409Y0015134D01*
X0250553Y0015169D01*
X0250697Y0015201D01*
X0250843Y0015228D01*
X0250989Y0015252D01*
X0251136Y0015272D01*
X0251283Y0015288D01*
X0251430Y0015300D01*
X0251578Y0015308D01*
X0251726Y0015312D01*
X0251874Y0015312D01*
X0252022Y0015308D01*
X0252170Y0015300D01*
X0252317Y0015288D01*
X0252464Y0015272D01*
X0252611Y0015252D01*
X0252757Y0015228D01*
X0252903Y0015201D01*
X0253047Y0015169D01*
X0253191Y0015134D01*
X0253334Y0015094D01*
X0253475Y0015051D01*
X0253616Y0015004D01*
X0253755Y0014954D01*
X0253892Y0014899D01*
X0254028Y0014841D01*
X0254163Y0014780D01*
X0254296Y0014715D01*
X0254427Y0014646D01*
X0254556Y0014574D01*
X0254683Y0014498D01*
X0254808Y0014419D01*
X0254931Y0014336D01*
X0255052Y0014251D01*
X0255170Y0014162D01*
X0255286Y0014070D01*
X0255399Y0013974D01*
X0255510Y0013876D01*
X0255618Y0013775D01*
X0255724Y0013671D01*
X0255826Y0013565D01*
X0255926Y0013455D01*
X0256022Y0013343D01*
X0256116Y0013228D01*
X0256207Y0013111D01*
X0256294Y0012992D01*
X0256378Y0012870D01*
X0256459Y0012746D01*
X0256536Y0012620D01*
X0256610Y0012492D01*
X0256681Y0012362D01*
X0256748Y0012230D01*
X0256811Y0012096D01*
X0256871Y0011961D01*
X0256927Y0011824D01*
X0256980Y0011685D01*
X0257028Y0011545D01*
X0257073Y0011404D01*
X0257114Y0011262D01*
X0257152Y0011119D01*
X0257185Y0010975D01*
X0257215Y0010830D01*
X0257241Y0010684D01*
X0257262Y0010538D01*
X0257280Y0010391D01*
X0257294Y0010244D01*
X0257304Y0010096D01*
X0257310Y0009948D01*
X0257312Y0009800D01*
X0257310Y0009652D01*
X0257304Y0009504D01*
X0257294Y0009356D01*
X0257280Y0009209D01*
X0257262Y0009062D01*
X0257241Y0008916D01*
X0257215Y0008770D01*
X0257185Y0008625D01*
X0257152Y0008481D01*
X0257114Y0008338D01*
X0257073Y0008196D01*
X0257028Y0008055D01*
X0256980Y0007915D01*
X0256927Y0007776D01*
X0256871Y0007639D01*
X0256811Y0007504D01*
X0256748Y0007370D01*
X0256681Y0007238D01*
X0256610Y0007108D01*
X0256536Y0006980D01*
X0256459Y0006854D01*
X0256378Y0006730D01*
X0256294Y0006608D01*
X0256207Y0006489D01*
X0256116Y0006372D01*
X0256022Y0006257D01*
X0255926Y0006145D01*
X0255826Y0006035D01*
X0255724Y0005929D01*
X0255618Y0005825D01*
X0255510Y0005724D01*
X0255399Y0005626D01*
X0255286Y0005530D01*
X0255170Y0005438D01*
X0255052Y0005349D01*
X0254931Y0005264D01*
X0254808Y0005181D01*
X0254683Y0005102D01*
X0254556Y0005026D01*
X0254427Y0004954D01*
X0254296Y0004885D01*
X0254163Y0004820D01*
X0254028Y0004759D01*
X0253892Y0004701D01*
X0253755Y0004646D01*
X0253616Y0004596D01*
X0253475Y0004549D01*
X0253334Y0004506D01*
X0253191Y0004466D01*
X0253047Y0004431D01*
X0252903Y0004399D01*
X0252757Y0004372D01*
X0252611Y0004348D01*
X0252464Y0004328D01*
X0252317Y0004312D01*
X0252170Y0004300D01*
X0252022Y0004292D01*
X0251874Y0004288D01*
X0251726Y0004288D01*
X0251578Y0004292D01*
X0251430Y0004300D01*
X0251283Y0004312D01*
X0251136Y0004328D01*
X0250989Y0004348D01*
X0250843Y0004372D01*
X0250697Y0004399D01*
X0250553Y0004431D01*
X0250409Y0004466D01*
X0250266Y0004506D01*
X0250125Y0004549D01*
X0249984Y0004596D01*
X0249845Y0004646D01*
X0249708Y0004701D01*
X0249572Y0004759D01*
X0249437Y0004820D01*
X0249304Y0004885D01*
X0249173Y0004954D01*
X0249044Y0005026D01*
X0248917Y0005102D01*
X0248792Y0005181D01*
X0248669Y0005264D01*
X0248548Y0005349D01*
X0248430Y0005438D01*
X0248314Y0005530D01*
X0248201Y0005626D01*
X0248090Y0005724D01*
X0247982Y0005825D01*
X0247876Y0005929D01*
X0247774Y0006035D01*
X0247674Y0006145D01*
X0247578Y0006257D01*
X0247484Y0006372D01*
X0247393Y0006489D01*
X0247306Y0006608D01*
X0247222Y0006730D01*
X0247141Y0006854D01*
X0247064Y0006980D01*
X0246990Y0007108D01*
X0246919Y0007238D01*
X0246852Y0007370D01*
X0246789Y0007504D01*
X0246729Y0007639D01*
X0246673Y0007776D01*
X0246620Y0007915D01*
X0246572Y0008055D01*
X0246527Y0008196D01*
X0246486Y0008338D01*
X0246448Y0008481D01*
X0246415Y0008625D01*
X0246385Y0008770D01*
X0246359Y0008916D01*
X0246338Y0009062D01*
X0246320Y0009209D01*
X0246306Y0009356D01*
X0246296Y0009504D01*
X0246290Y0009652D01*
X0246288Y0009800D01*
D11*
X0001800Y0001800D02*
X0001800Y0165501D01*
X0001800Y0165800D02*
X0259800Y0165800D01*
X0259800Y0001800D01*
X0259721Y0001800D02*
X0001800Y0001800D01*
D12*
X0033950Y0013450D02*
X0033950Y0016352D01*
X0033950Y0014901D02*
X0035885Y0014901D01*
X0035885Y0016352D02*
X0035885Y0013450D01*
X0037864Y0013450D02*
X0037864Y0016352D01*
X0036897Y0016352D02*
X0038831Y0016352D01*
X0039843Y0016352D02*
X0039843Y0013934D01*
X0040327Y0013450D01*
X0041294Y0013450D01*
X0041778Y0013934D01*
X0041778Y0016352D01*
X0042790Y0015869D02*
X0043273Y0016352D01*
X0044241Y0016352D01*
X0044725Y0015869D01*
X0044725Y0015385D01*
X0042790Y0013450D01*
X0044725Y0013450D01*
X0045736Y0013450D02*
X0047671Y0013450D01*
X0046704Y0013450D02*
X0046704Y0016352D01*
X0045736Y0015385D01*
X0048683Y0016352D02*
X0048683Y0013450D01*
X0050134Y0013450D01*
X0050618Y0013934D01*
X0050618Y0015869D01*
X0050134Y0016352D01*
X0048683Y0016352D01*
X0055650Y0014634D02*
X0056134Y0014150D01*
X0056617Y0014150D01*
X0057101Y0014634D01*
X0057101Y0017052D01*
X0056617Y0017052D02*
X0057585Y0017052D01*
X0058597Y0017052D02*
X0060048Y0017052D01*
X0060531Y0016569D01*
X0060531Y0015601D01*
X0060048Y0015117D01*
X0058597Y0015117D01*
X0058597Y0014150D02*
X0058597Y0017052D01*
X0061543Y0016569D02*
X0062027Y0017052D01*
X0062994Y0017052D01*
X0063478Y0016569D01*
X0063478Y0016085D01*
X0061543Y0014150D01*
X0063478Y0014150D01*
X0063897Y0008852D02*
X0063897Y0006917D01*
X0064864Y0005950D01*
X0065831Y0006917D01*
X0065831Y0008852D01*
X0066843Y0008369D02*
X0067327Y0008852D01*
X0068294Y0008852D01*
X0068778Y0008369D01*
X0068778Y0007885D01*
X0068294Y0007401D01*
X0068778Y0006917D01*
X0068778Y0006434D01*
X0068294Y0005950D01*
X0067327Y0005950D01*
X0066843Y0006434D01*
X0067811Y0007401D02*
X0068294Y0007401D01*
X0072736Y0006434D02*
X0073220Y0005950D01*
X0074187Y0005950D01*
X0074671Y0006434D01*
X0074671Y0007401D01*
X0073704Y0007401D01*
X0074671Y0008369D02*
X0074187Y0008852D01*
X0073220Y0008852D01*
X0072736Y0008369D01*
X0072736Y0006434D01*
X0075683Y0005950D02*
X0075683Y0008852D01*
X0077618Y0005950D01*
X0077618Y0008852D01*
X0078629Y0008852D02*
X0080080Y0008852D01*
X0080564Y0008369D01*
X0080564Y0006434D01*
X0080080Y0005950D01*
X0078629Y0005950D01*
X0078629Y0008852D01*
X0084522Y0008369D02*
X0084522Y0007885D01*
X0085006Y0007401D01*
X0085973Y0007401D01*
X0086457Y0006917D01*
X0086457Y0006434D01*
X0085973Y0005950D01*
X0085006Y0005950D01*
X0084522Y0006434D01*
X0084522Y0008369D02*
X0085006Y0008852D01*
X0085973Y0008852D01*
X0086457Y0008369D01*
X0087469Y0008852D02*
X0087469Y0005950D01*
X0088920Y0005950D01*
X0089404Y0006434D01*
X0089404Y0008369D01*
X0088920Y0008852D01*
X0087469Y0008852D01*
X0090415Y0007885D02*
X0091383Y0008852D01*
X0092350Y0007885D01*
X0092350Y0005950D01*
X0092350Y0007401D02*
X0090415Y0007401D01*
X0090415Y0007885D02*
X0090415Y0005950D01*
X0096308Y0006434D02*
X0096792Y0005950D01*
X0097759Y0005950D01*
X0098243Y0006434D01*
X0098243Y0006917D01*
X0097759Y0007401D01*
X0096792Y0007401D01*
X0096308Y0007885D01*
X0096308Y0008369D01*
X0096792Y0008852D01*
X0097759Y0008852D01*
X0098243Y0008369D01*
X0099255Y0008369D02*
X0099255Y0006434D01*
X0099738Y0005950D01*
X0100706Y0005950D01*
X0101190Y0006434D01*
X0102201Y0005950D02*
X0104136Y0005950D01*
X0102201Y0005950D02*
X0102201Y0008852D01*
X0101190Y0008369D02*
X0100706Y0008852D01*
X0099738Y0008852D01*
X0099255Y0008369D01*
X0119198Y0013057D02*
X0119198Y0014508D01*
X0119681Y0014992D01*
X0120649Y0014992D01*
X0121133Y0014508D01*
X0121133Y0013057D01*
X0122100Y0013057D02*
X0119198Y0013057D01*
X0121133Y0014024D02*
X0122100Y0014992D01*
X0120649Y0016003D02*
X0120649Y0017938D01*
X0122100Y0017455D02*
X0119198Y0017455D01*
X0120649Y0016003D01*
X0132448Y0015508D02*
X0132448Y0014541D01*
X0132931Y0014057D01*
X0134866Y0014057D01*
X0132931Y0015992D01*
X0134866Y0015992D01*
X0135350Y0015508D01*
X0135350Y0014541D01*
X0134866Y0014057D01*
X0135350Y0013045D02*
X0135350Y0011110D01*
X0135350Y0012078D02*
X0132448Y0012078D01*
X0133415Y0011110D01*
X0132448Y0015508D02*
X0132931Y0015992D01*
X0132448Y0017003D02*
X0135350Y0017003D01*
X0134383Y0017003D02*
X0132448Y0018938D01*
X0133899Y0017487D02*
X0135350Y0018938D01*
X0141950Y0008852D02*
X0143401Y0008852D01*
X0143885Y0008369D01*
X0143885Y0007885D01*
X0143401Y0007401D01*
X0141950Y0007401D01*
X0141950Y0005950D02*
X0143401Y0005950D01*
X0143885Y0006434D01*
X0143885Y0006917D01*
X0143401Y0007401D01*
X0144897Y0006434D02*
X0146831Y0008369D01*
X0146831Y0006434D01*
X0146348Y0005950D01*
X0145380Y0005950D01*
X0144897Y0006434D01*
X0144897Y0008369D01*
X0145380Y0008852D01*
X0146348Y0008852D01*
X0146831Y0008369D01*
X0147843Y0005950D02*
X0149778Y0008852D01*
X0150790Y0008852D02*
X0152241Y0008852D01*
X0152725Y0008369D01*
X0152725Y0007401D01*
X0152241Y0006917D01*
X0150790Y0006917D01*
X0150790Y0005950D02*
X0150790Y0008852D01*
X0151757Y0006917D02*
X0152725Y0005950D01*
X0153736Y0005950D02*
X0155671Y0008852D01*
X0153736Y0008852D02*
X0155671Y0005950D01*
X0159629Y0005950D02*
X0159629Y0008852D01*
X0161080Y0008852D01*
X0161564Y0008369D01*
X0161564Y0007885D01*
X0161080Y0007401D01*
X0159629Y0007401D01*
X0159629Y0005950D02*
X0161080Y0005950D01*
X0161564Y0006434D01*
X0161564Y0006917D01*
X0161080Y0007401D01*
X0162576Y0007885D02*
X0163543Y0008852D01*
X0163543Y0005950D01*
X0162576Y0005950D02*
X0164511Y0005950D01*
X0165522Y0005950D02*
X0167457Y0008852D01*
X0168469Y0008852D02*
X0170404Y0008852D01*
X0169436Y0008852D02*
X0169436Y0005950D01*
X0171415Y0005950D02*
X0173350Y0008852D01*
X0171415Y0008852D02*
X0173350Y0005950D01*
X0177308Y0006434D02*
X0177308Y0008369D01*
X0177792Y0008852D01*
X0178759Y0008852D01*
X0179243Y0008369D01*
X0179243Y0007401D02*
X0178276Y0007401D01*
X0179243Y0007401D02*
X0179243Y0006434D01*
X0178759Y0005950D01*
X0177792Y0005950D01*
X0177308Y0006434D01*
X0180255Y0005950D02*
X0180255Y0008852D01*
X0182190Y0005950D01*
X0182190Y0008852D01*
X0183201Y0008852D02*
X0184652Y0008852D01*
X0185136Y0008369D01*
X0185136Y0006434D01*
X0184652Y0005950D01*
X0183201Y0005950D01*
X0183201Y0008852D01*
X0189094Y0008369D02*
X0189578Y0008852D01*
X0190546Y0008852D01*
X0191029Y0008369D01*
X0191029Y0007885D01*
X0190546Y0007401D01*
X0191029Y0006917D01*
X0191029Y0006434D01*
X0190546Y0005950D01*
X0189578Y0005950D01*
X0189094Y0006434D01*
X0190062Y0007401D02*
X0190546Y0007401D01*
X0192041Y0006917D02*
X0193008Y0005950D01*
X0193976Y0006917D01*
X0193976Y0008852D01*
X0194987Y0008369D02*
X0195471Y0008852D01*
X0196439Y0008852D01*
X0196922Y0008369D01*
X0196922Y0007885D01*
X0196439Y0007401D01*
X0196922Y0006917D01*
X0196922Y0006434D01*
X0196439Y0005950D01*
X0195471Y0005950D01*
X0194987Y0006434D01*
X0195955Y0007401D02*
X0196439Y0007401D01*
X0192041Y0006917D02*
X0192041Y0008852D01*
X0192597Y0015150D02*
X0192597Y0018052D01*
X0194048Y0018052D01*
X0194531Y0017569D01*
X0194531Y0016601D01*
X0194048Y0016117D01*
X0192597Y0016117D01*
X0191101Y0015634D02*
X0191101Y0018052D01*
X0190617Y0018052D02*
X0191585Y0018052D01*
X0191101Y0015634D02*
X0190617Y0015150D01*
X0190134Y0015150D01*
X0189650Y0015634D01*
X0195543Y0015634D02*
X0196027Y0015150D01*
X0196994Y0015150D01*
X0197478Y0015634D01*
X0197478Y0016117D01*
X0196994Y0016601D01*
X0195543Y0016601D01*
X0195543Y0015634D01*
X0195543Y0016601D02*
X0196511Y0017569D01*
X0197478Y0018052D01*
X0200950Y0017869D02*
X0200950Y0015934D01*
X0201434Y0015450D01*
X0202401Y0015450D01*
X0202885Y0015934D01*
X0202885Y0017869D01*
X0202401Y0018352D01*
X0201434Y0018352D01*
X0200950Y0017869D01*
X0203897Y0018352D02*
X0205831Y0018352D01*
X0204864Y0018352D02*
X0204864Y0015450D01*
X0206843Y0015450D02*
X0206843Y0018352D01*
X0206843Y0016901D02*
X0208778Y0016901D01*
X0209790Y0016901D02*
X0210757Y0016901D01*
X0209790Y0018352D02*
X0209790Y0015450D01*
X0211725Y0015450D01*
X0212736Y0015450D02*
X0212736Y0018352D01*
X0214187Y0018352D01*
X0214671Y0017869D01*
X0214671Y0016901D01*
X0214187Y0016417D01*
X0212736Y0016417D01*
X0213704Y0016417D02*
X0214671Y0015450D01*
X0211725Y0018352D02*
X0209790Y0018352D01*
X0208778Y0018352D02*
X0208778Y0015450D01*
X0208778Y0024450D02*
X0208778Y0027352D01*
X0209790Y0027352D02*
X0209790Y0024450D01*
X0211725Y0024450D01*
X0212736Y0024450D02*
X0212736Y0027352D01*
X0214187Y0027352D01*
X0214671Y0026869D01*
X0214671Y0025901D01*
X0214187Y0025417D01*
X0212736Y0025417D01*
X0213704Y0025417D02*
X0214671Y0024450D01*
X0211725Y0027352D02*
X0209790Y0027352D01*
X0209790Y0025901D02*
X0210757Y0025901D01*
X0208778Y0025901D02*
X0206843Y0025901D01*
X0206843Y0024450D02*
X0206843Y0027352D01*
X0205831Y0027352D02*
X0203897Y0027352D01*
X0204864Y0027352D02*
X0204864Y0024450D01*
X0202885Y0024934D02*
X0202885Y0026869D01*
X0202401Y0027352D01*
X0201434Y0027352D01*
X0200950Y0026869D01*
X0200950Y0024934D01*
X0201434Y0024450D01*
X0202401Y0024450D01*
X0202885Y0024934D01*
X0197478Y0024634D02*
X0196994Y0024150D01*
X0196027Y0024150D01*
X0195543Y0024634D01*
X0195543Y0025601D02*
X0196511Y0026085D01*
X0196994Y0026085D01*
X0197478Y0025601D01*
X0197478Y0024634D01*
X0195543Y0025601D02*
X0195543Y0027052D01*
X0197478Y0027052D01*
X0194531Y0026569D02*
X0194531Y0025601D01*
X0194048Y0025117D01*
X0192597Y0025117D01*
X0192597Y0024150D02*
X0192597Y0027052D01*
X0194048Y0027052D01*
X0194531Y0026569D01*
X0191585Y0027052D02*
X0190617Y0027052D01*
X0191101Y0027052D02*
X0191101Y0024634D01*
X0190617Y0024150D01*
X0190134Y0024150D01*
X0189650Y0024634D01*
X0187706Y0032950D02*
X0186738Y0032950D01*
X0186255Y0033434D01*
X0185243Y0033917D02*
X0185243Y0035852D01*
X0186255Y0035369D02*
X0186738Y0035852D01*
X0187706Y0035852D01*
X0188190Y0035369D01*
X0188190Y0034885D01*
X0187706Y0034401D01*
X0188190Y0033917D01*
X0188190Y0033434D01*
X0187706Y0032950D01*
X0187706Y0034401D02*
X0187222Y0034401D01*
X0185243Y0033917D02*
X0184276Y0032950D01*
X0183308Y0033917D01*
X0183308Y0035852D01*
X0182297Y0035369D02*
X0182297Y0034885D01*
X0181813Y0034401D01*
X0182297Y0033917D01*
X0182297Y0033434D01*
X0181813Y0032950D01*
X0180845Y0032950D01*
X0180362Y0033434D01*
X0181329Y0034401D02*
X0181813Y0034401D01*
X0182297Y0035369D02*
X0181813Y0035852D01*
X0180845Y0035852D01*
X0180362Y0035369D01*
X0176404Y0035369D02*
X0175920Y0035852D01*
X0174469Y0035852D01*
X0174469Y0032950D01*
X0175920Y0032950D01*
X0176404Y0033434D01*
X0176404Y0035369D01*
X0173457Y0035852D02*
X0173457Y0032950D01*
X0171522Y0035852D01*
X0171522Y0032950D01*
X0170511Y0033434D02*
X0170511Y0034401D01*
X0169543Y0034401D01*
X0168576Y0033434D02*
X0169059Y0032950D01*
X0170027Y0032950D01*
X0170511Y0033434D01*
X0168576Y0033434D02*
X0168576Y0035369D01*
X0169059Y0035852D01*
X0170027Y0035852D01*
X0170511Y0035369D01*
X0164618Y0035852D02*
X0163650Y0035369D01*
X0162683Y0034401D01*
X0164134Y0034401D01*
X0164618Y0033917D01*
X0164618Y0033434D01*
X0164134Y0032950D01*
X0163166Y0032950D01*
X0162683Y0033434D01*
X0162683Y0034401D01*
X0161671Y0033434D02*
X0161671Y0035369D01*
X0161187Y0035852D01*
X0159736Y0035852D01*
X0159736Y0032950D01*
X0161187Y0032950D01*
X0161671Y0033434D01*
X0152831Y0033434D02*
X0152348Y0032950D01*
X0151380Y0032950D01*
X0150897Y0033434D01*
X0150897Y0034401D02*
X0151864Y0034885D01*
X0152348Y0034885D01*
X0152831Y0034401D01*
X0152831Y0033434D01*
X0150897Y0034401D02*
X0150897Y0035852D01*
X0152831Y0035852D01*
X0149885Y0035369D02*
X0149401Y0035852D01*
X0147950Y0035852D01*
X0147950Y0032950D01*
X0149401Y0032950D01*
X0149885Y0033434D01*
X0149885Y0035369D01*
X0150003Y0040500D02*
X0150003Y0040984D01*
X0151938Y0042919D01*
X0151938Y0043402D01*
X0150003Y0043402D01*
X0148992Y0042919D02*
X0148508Y0043402D01*
X0147541Y0043402D01*
X0147057Y0042919D01*
X0147057Y0040984D01*
X0147541Y0040500D01*
X0148508Y0040500D01*
X0148992Y0040984D01*
X0154164Y0040250D02*
X0156099Y0040250D01*
X0155131Y0040250D02*
X0155131Y0043152D01*
X0154164Y0042185D01*
X0157110Y0042669D02*
X0157110Y0040734D01*
X0159045Y0042669D01*
X0159045Y0040734D01*
X0158562Y0040250D01*
X0157594Y0040250D01*
X0157110Y0040734D01*
X0157110Y0042669D02*
X0157594Y0043152D01*
X0158562Y0043152D01*
X0159045Y0042669D01*
X0160057Y0042669D02*
X0160057Y0040734D01*
X0161992Y0042669D01*
X0161992Y0040734D01*
X0161508Y0040250D01*
X0160541Y0040250D01*
X0160057Y0040734D01*
X0160057Y0042669D02*
X0160541Y0043152D01*
X0161508Y0043152D01*
X0161992Y0042669D01*
X0163003Y0042185D02*
X0163003Y0040250D01*
X0163003Y0042185D02*
X0164455Y0042185D01*
X0164938Y0041701D01*
X0164938Y0040250D01*
X0169950Y0041950D02*
X0169950Y0044852D01*
X0171401Y0044852D01*
X0171885Y0044369D01*
X0171885Y0043401D01*
X0171401Y0042917D01*
X0169950Y0042917D01*
X0170917Y0042917D02*
X0171885Y0041950D01*
X0172897Y0041950D02*
X0172897Y0044852D01*
X0174831Y0044852D01*
X0173864Y0043401D02*
X0172897Y0043401D01*
X0175843Y0041466D02*
X0177778Y0041466D01*
X0178790Y0041950D02*
X0180725Y0041950D01*
X0181736Y0041950D02*
X0183671Y0041950D01*
X0184683Y0041950D02*
X0186134Y0041950D01*
X0186618Y0042434D01*
X0186618Y0044369D01*
X0186134Y0044852D01*
X0184683Y0044852D01*
X0184683Y0041950D01*
X0182704Y0043401D02*
X0181736Y0043401D01*
X0181736Y0044852D02*
X0181736Y0041950D01*
X0181736Y0044852D02*
X0183671Y0044852D01*
X0178790Y0044852D02*
X0178790Y0041950D01*
X0187629Y0041466D02*
X0189564Y0041466D01*
X0190576Y0041950D02*
X0192511Y0041950D01*
X0193522Y0041950D02*
X0193522Y0044852D01*
X0195457Y0041950D01*
X0195457Y0044852D01*
X0196469Y0044852D02*
X0196469Y0041950D01*
X0197451Y0041950D02*
X0198902Y0041950D01*
X0199386Y0042434D01*
X0199386Y0044369D01*
X0198902Y0044852D01*
X0197451Y0044852D01*
X0197451Y0041950D01*
X0200397Y0042434D02*
X0200881Y0041950D01*
X0201849Y0041950D01*
X0202332Y0042434D01*
X0202332Y0043401D01*
X0201849Y0043885D01*
X0201365Y0043885D01*
X0200397Y0043401D01*
X0200397Y0044852D01*
X0202332Y0044852D01*
X0206290Y0044852D02*
X0206290Y0041950D01*
X0208225Y0041950D01*
X0209237Y0041950D02*
X0211172Y0044852D01*
X0212183Y0044852D02*
X0214118Y0044852D01*
X0213151Y0044852D02*
X0213151Y0041950D01*
X0211172Y0041950D02*
X0209237Y0044852D01*
X0208225Y0044852D02*
X0206290Y0044852D01*
X0206290Y0043401D02*
X0207258Y0043401D01*
X0205279Y0041466D02*
X0203344Y0041466D01*
X0192511Y0044852D02*
X0190576Y0044852D01*
X0190576Y0041950D01*
X0190576Y0043401D02*
X0191543Y0043401D01*
X0180150Y0049434D02*
X0180150Y0050401D01*
X0179666Y0050885D01*
X0179183Y0050885D01*
X0178699Y0050401D01*
X0178699Y0048950D01*
X0179666Y0048950D01*
X0180150Y0049434D01*
X0178699Y0048950D02*
X0177731Y0049917D01*
X0177248Y0050885D01*
X0177731Y0051897D02*
X0178215Y0051897D01*
X0178699Y0052380D01*
X0178699Y0053348D01*
X0179183Y0053831D01*
X0179666Y0053831D01*
X0180150Y0053348D01*
X0180150Y0052380D01*
X0179666Y0051897D01*
X0179183Y0051897D01*
X0178699Y0052380D01*
X0178699Y0053348D02*
X0178215Y0053831D01*
X0177731Y0053831D01*
X0177248Y0053348D01*
X0177248Y0052380D01*
X0177731Y0051897D01*
X0177731Y0054843D02*
X0177248Y0055327D01*
X0177248Y0056294D01*
X0177731Y0056778D01*
X0179666Y0054843D01*
X0180150Y0055327D01*
X0180150Y0056294D01*
X0179666Y0056778D01*
X0177731Y0056778D01*
X0177731Y0054843D02*
X0179666Y0054843D01*
X0179900Y0058950D02*
X0176998Y0058950D01*
X0176998Y0060401D01*
X0177481Y0060885D01*
X0178449Y0060885D01*
X0178933Y0060401D01*
X0178933Y0058950D01*
X0178933Y0059917D02*
X0179900Y0060885D01*
X0179900Y0061897D02*
X0176998Y0061897D01*
X0176998Y0063831D01*
X0178449Y0062864D02*
X0178449Y0061897D01*
X0180384Y0064843D02*
X0180384Y0066778D01*
X0179900Y0067790D02*
X0176998Y0067790D01*
X0179900Y0067790D02*
X0179900Y0069725D01*
X0179900Y0070736D02*
X0176998Y0070736D01*
X0176998Y0072671D01*
X0176998Y0073683D02*
X0176998Y0075134D01*
X0177481Y0075618D01*
X0179416Y0075618D01*
X0179900Y0075134D01*
X0179900Y0073683D01*
X0176998Y0073683D01*
X0178449Y0071704D02*
X0178449Y0070736D01*
X0179900Y0070736D02*
X0179900Y0072671D01*
X0185057Y0076297D02*
X0185541Y0075813D01*
X0186508Y0075813D01*
X0186992Y0076297D01*
X0188003Y0075813D02*
X0189938Y0077748D01*
X0189938Y0078232D01*
X0189455Y0078715D01*
X0188487Y0078715D01*
X0188003Y0078232D01*
X0186992Y0078232D02*
X0186508Y0078715D01*
X0185541Y0078715D01*
X0185057Y0078232D01*
X0185057Y0076297D01*
X0188003Y0075813D02*
X0189938Y0075813D01*
X0193556Y0075194D02*
X0195491Y0075194D01*
X0194524Y0075194D02*
X0194524Y0078097D01*
X0193556Y0077129D01*
X0196503Y0077613D02*
X0196503Y0075678D01*
X0198438Y0077613D01*
X0198438Y0075678D01*
X0197954Y0075194D01*
X0196987Y0075194D01*
X0196503Y0075678D01*
X0196503Y0077613D02*
X0196987Y0078097D01*
X0197954Y0078097D01*
X0198438Y0077613D01*
X0199449Y0077129D02*
X0199449Y0075678D01*
X0199933Y0075194D01*
X0201384Y0075194D01*
X0201384Y0077129D01*
X0202396Y0076645D02*
X0203363Y0076645D01*
X0202396Y0075194D02*
X0202396Y0078097D01*
X0204331Y0078097D01*
X0203348Y0085450D02*
X0202380Y0085450D01*
X0201897Y0085934D01*
X0203831Y0087869D01*
X0203831Y0085934D01*
X0203348Y0085450D01*
X0201897Y0085934D02*
X0201897Y0087869D01*
X0202380Y0088352D01*
X0203348Y0088352D01*
X0203831Y0087869D01*
X0204843Y0087869D02*
X0204843Y0085934D01*
X0206778Y0087869D01*
X0206778Y0085934D01*
X0206294Y0085450D01*
X0205327Y0085450D01*
X0204843Y0085934D01*
X0204843Y0087869D02*
X0205327Y0088352D01*
X0206294Y0088352D01*
X0206778Y0087869D01*
X0207790Y0088352D02*
X0207790Y0085450D01*
X0207790Y0086417D02*
X0209725Y0088352D01*
X0208273Y0086901D02*
X0209725Y0085450D01*
X0217498Y0084897D02*
X0217498Y0086348D01*
X0217981Y0086831D01*
X0218465Y0086831D01*
X0218949Y0086348D01*
X0218949Y0084897D01*
X0218949Y0083885D02*
X0219433Y0083401D01*
X0219433Y0081950D01*
X0220400Y0081950D02*
X0217498Y0081950D01*
X0217498Y0083401D01*
X0217981Y0083885D01*
X0218949Y0083885D01*
X0219433Y0082917D02*
X0220400Y0083885D01*
X0220400Y0084897D02*
X0220400Y0086348D01*
X0219916Y0086831D01*
X0219433Y0086831D01*
X0218949Y0086348D01*
X0217981Y0087843D02*
X0217498Y0088327D01*
X0217498Y0089294D01*
X0217981Y0089778D01*
X0218465Y0089778D01*
X0220400Y0087843D01*
X0220400Y0089778D01*
X0220400Y0084897D02*
X0217498Y0084897D01*
X0217731Y0077778D02*
X0219666Y0075843D01*
X0220150Y0076327D01*
X0220150Y0077294D01*
X0219666Y0077778D01*
X0217731Y0077778D01*
X0217248Y0077294D01*
X0217248Y0076327D01*
X0217731Y0075843D01*
X0219666Y0075843D01*
X0217731Y0074831D02*
X0219666Y0072897D01*
X0220150Y0072897D01*
X0220150Y0071401D02*
X0217248Y0071401D01*
X0218699Y0069950D01*
X0218699Y0071885D01*
X0217248Y0072897D02*
X0217248Y0074831D01*
X0217731Y0074831D01*
X0228915Y0074750D02*
X0228915Y0074266D01*
X0229883Y0073298D01*
X0230850Y0073298D02*
X0228915Y0073298D01*
X0228915Y0072294D02*
X0228915Y0071811D01*
X0229883Y0070843D01*
X0230850Y0070843D02*
X0228915Y0070843D01*
X0228915Y0069831D02*
X0230850Y0069831D01*
X0230850Y0068380D01*
X0230366Y0067897D01*
X0228915Y0067897D01*
X0228431Y0066885D02*
X0227948Y0066401D01*
X0227948Y0065434D01*
X0228431Y0064950D01*
X0230366Y0064950D01*
X0230850Y0065434D01*
X0230850Y0066401D01*
X0230366Y0066885D01*
X0220400Y0065778D02*
X0220400Y0063843D01*
X0220400Y0064811D02*
X0217498Y0064811D01*
X0218465Y0063843D01*
X0218465Y0062831D02*
X0218949Y0062348D01*
X0218949Y0060897D01*
X0218949Y0059885D02*
X0219433Y0059401D01*
X0219433Y0057950D01*
X0220400Y0057950D02*
X0217498Y0057950D01*
X0217498Y0059401D01*
X0217981Y0059885D01*
X0218949Y0059885D01*
X0219433Y0058917D02*
X0220400Y0059885D01*
X0220400Y0060897D02*
X0217498Y0060897D01*
X0217498Y0062348D01*
X0217981Y0062831D01*
X0218465Y0062831D01*
X0218949Y0062348D02*
X0219433Y0062831D01*
X0219916Y0062831D01*
X0220400Y0062348D01*
X0220400Y0060897D01*
X0229399Y0075754D02*
X0228915Y0076238D01*
X0228915Y0077205D01*
X0229399Y0077689D01*
X0229883Y0077689D01*
X0229883Y0075754D01*
X0230366Y0075754D02*
X0229399Y0075754D01*
X0230366Y0075754D02*
X0230850Y0076238D01*
X0230850Y0077205D01*
X0230850Y0078700D02*
X0228915Y0078700D01*
X0228915Y0080152D01*
X0229399Y0080635D01*
X0230850Y0080635D01*
X0230366Y0082131D02*
X0228431Y0082131D01*
X0228915Y0082614D02*
X0228915Y0081647D01*
X0230366Y0082131D02*
X0230850Y0082614D01*
X0227948Y0086558D02*
X0227948Y0088493D01*
X0227948Y0087525D02*
X0230850Y0087525D01*
X0230850Y0089504D02*
X0228915Y0089504D01*
X0229883Y0089504D02*
X0228915Y0090472D01*
X0228915Y0090956D01*
X0228915Y0092443D02*
X0228915Y0093411D01*
X0229399Y0093895D01*
X0230850Y0093895D01*
X0230850Y0092443D01*
X0230366Y0091960D01*
X0229883Y0092443D01*
X0229883Y0093895D01*
X0230850Y0094906D02*
X0228915Y0094906D01*
X0228915Y0096357D01*
X0229399Y0096841D01*
X0230850Y0096841D01*
X0230850Y0097853D02*
X0230850Y0099304D01*
X0230366Y0099788D01*
X0229883Y0099304D01*
X0229883Y0098337D01*
X0229399Y0097853D01*
X0228915Y0098337D01*
X0228915Y0099788D01*
X0229399Y0100799D02*
X0229399Y0101767D01*
X0229399Y0102764D02*
X0230366Y0102764D01*
X0230850Y0103247D01*
X0230850Y0104215D01*
X0230366Y0104699D01*
X0229399Y0104699D01*
X0228915Y0104215D01*
X0228915Y0103247D01*
X0229399Y0102764D01*
X0227948Y0101767D02*
X0228431Y0101283D01*
X0230850Y0101283D01*
X0233715Y0101759D02*
X0234199Y0102243D01*
X0235650Y0102243D01*
X0235650Y0101276D02*
X0234199Y0101276D01*
X0233715Y0101759D01*
X0234199Y0101276D02*
X0233715Y0100792D01*
X0233715Y0100308D01*
X0235650Y0100308D01*
X0235166Y0103255D02*
X0234683Y0103738D01*
X0234683Y0105190D01*
X0234199Y0105190D02*
X0235650Y0105190D01*
X0235650Y0103738D01*
X0235166Y0103255D01*
X0233715Y0103738D02*
X0233715Y0104706D01*
X0234199Y0105190D01*
X0233715Y0106201D02*
X0235650Y0108136D01*
X0235650Y0106201D02*
X0233715Y0108136D01*
X0230850Y0108166D02*
X0228915Y0108166D01*
X0228915Y0108649D01*
X0229399Y0109133D01*
X0228915Y0109617D01*
X0229399Y0110101D01*
X0230850Y0110101D01*
X0230850Y0109133D02*
X0229399Y0109133D01*
X0229399Y0111112D02*
X0228915Y0111596D01*
X0228915Y0112563D01*
X0229399Y0113047D01*
X0229883Y0113047D01*
X0229883Y0111112D01*
X0230366Y0111112D02*
X0229399Y0111112D01*
X0230366Y0111112D02*
X0230850Y0111596D01*
X0230850Y0112563D01*
X0230850Y0114059D02*
X0228915Y0114059D01*
X0228915Y0115026D02*
X0228915Y0115510D01*
X0228915Y0115026D02*
X0229883Y0114059D01*
X0228915Y0107161D02*
X0228915Y0106678D01*
X0229883Y0105710D01*
X0230850Y0105710D02*
X0228915Y0105710D01*
X0220150Y0103294D02*
X0220150Y0102327D01*
X0219666Y0101843D01*
X0217731Y0103778D01*
X0219666Y0103778D01*
X0220150Y0103294D01*
X0219666Y0101843D02*
X0217731Y0101843D01*
X0217248Y0102327D01*
X0217248Y0103294D01*
X0217731Y0103778D01*
X0217731Y0100831D02*
X0218215Y0100831D01*
X0218699Y0100348D01*
X0219183Y0100831D01*
X0219666Y0100831D01*
X0220150Y0100348D01*
X0220150Y0099380D01*
X0219666Y0098897D01*
X0219666Y0097885D02*
X0220150Y0097401D01*
X0220150Y0096434D01*
X0219666Y0095950D01*
X0218699Y0096917D02*
X0218699Y0097401D01*
X0219183Y0097885D01*
X0219666Y0097885D01*
X0218699Y0097401D02*
X0218215Y0097885D01*
X0217731Y0097885D01*
X0217248Y0097401D01*
X0217248Y0096434D01*
X0217731Y0095950D01*
X0217731Y0098897D02*
X0217248Y0099380D01*
X0217248Y0100348D01*
X0217731Y0100831D01*
X0218699Y0100348D02*
X0218699Y0099864D01*
X0206938Y0099250D02*
X0205487Y0100701D01*
X0205003Y0100217D02*
X0206938Y0102152D01*
X0205003Y0102152D02*
X0205003Y0099250D01*
X0203992Y0099734D02*
X0203992Y0101669D01*
X0202057Y0099734D01*
X0202541Y0099250D01*
X0203508Y0099250D01*
X0203992Y0099734D01*
X0203992Y0101669D02*
X0203508Y0102152D01*
X0202541Y0102152D01*
X0202057Y0101669D01*
X0202057Y0099734D01*
X0201045Y0099734D02*
X0201045Y0101669D01*
X0199110Y0099734D01*
X0199594Y0099250D01*
X0200562Y0099250D01*
X0201045Y0099734D01*
X0199110Y0099734D02*
X0199110Y0101669D01*
X0199594Y0102152D01*
X0200562Y0102152D01*
X0201045Y0101669D01*
X0198099Y0099250D02*
X0196164Y0099250D01*
X0197131Y0099250D02*
X0197131Y0102152D01*
X0196164Y0101185D01*
X0192971Y0101402D02*
X0192003Y0100435D01*
X0190992Y0100919D02*
X0190992Y0099951D01*
X0190508Y0099467D01*
X0189057Y0099467D01*
X0189057Y0098500D02*
X0189057Y0101402D01*
X0190508Y0101402D01*
X0190992Y0100919D01*
X0190024Y0099467D02*
X0190992Y0098500D01*
X0192003Y0098500D02*
X0193938Y0098500D01*
X0192971Y0098500D02*
X0192971Y0101402D01*
X0193380Y0088102D02*
X0192897Y0087619D01*
X0193380Y0088102D02*
X0194348Y0088102D01*
X0194831Y0087619D01*
X0194831Y0087135D01*
X0192897Y0085200D01*
X0194831Y0085200D01*
X0191885Y0085200D02*
X0190917Y0086167D01*
X0191401Y0086167D02*
X0189950Y0086167D01*
X0189950Y0085200D02*
X0189950Y0088102D01*
X0191401Y0088102D01*
X0191885Y0087619D01*
X0191885Y0086651D01*
X0191401Y0086167D01*
X0198950Y0085450D02*
X0200885Y0085450D01*
X0199917Y0085450D02*
X0199917Y0088352D01*
X0198950Y0087385D01*
X0232748Y0091469D02*
X0234199Y0091469D01*
X0233715Y0092436D01*
X0233715Y0092920D01*
X0234199Y0093404D01*
X0235166Y0093404D01*
X0235650Y0092920D01*
X0235650Y0091952D01*
X0235166Y0091469D01*
X0232748Y0091469D02*
X0232748Y0093404D01*
X0233715Y0094415D02*
X0232748Y0095383D01*
X0233715Y0096350D01*
X0235650Y0096350D01*
X0234199Y0096350D02*
X0234199Y0094415D01*
X0233715Y0094415D02*
X0235650Y0094415D01*
X0216725Y0121450D02*
X0216725Y0122901D01*
X0216241Y0123385D01*
X0214790Y0123385D01*
X0214790Y0121450D01*
X0213778Y0121934D02*
X0213778Y0123869D01*
X0211843Y0121934D01*
X0212327Y0121450D01*
X0213294Y0121450D01*
X0213778Y0121934D01*
X0213778Y0123869D02*
X0213294Y0124352D01*
X0212327Y0124352D01*
X0211843Y0123869D01*
X0211843Y0121934D01*
X0210831Y0121934D02*
X0210348Y0121450D01*
X0209380Y0121450D01*
X0208897Y0121934D01*
X0210831Y0123869D01*
X0210831Y0121934D01*
X0208897Y0121934D02*
X0208897Y0123869D01*
X0209380Y0124352D01*
X0210348Y0124352D01*
X0210831Y0123869D01*
X0207885Y0121450D02*
X0205950Y0121450D01*
X0206917Y0121450D02*
X0206917Y0124352D01*
X0205950Y0123385D01*
X0207434Y0126200D02*
X0208401Y0126200D01*
X0208885Y0126684D01*
X0209897Y0126684D02*
X0210380Y0126200D01*
X0211348Y0126200D01*
X0211831Y0126684D01*
X0211831Y0127651D01*
X0211348Y0128135D01*
X0210864Y0128135D01*
X0209897Y0127651D01*
X0209897Y0129102D01*
X0211831Y0129102D01*
X0208885Y0128619D02*
X0208401Y0129102D01*
X0207434Y0129102D01*
X0206950Y0128619D01*
X0206950Y0126684D01*
X0207434Y0126200D01*
X0209556Y0154194D02*
X0211491Y0154194D01*
X0210524Y0154194D02*
X0210524Y0157097D01*
X0209556Y0156129D01*
X0212503Y0156613D02*
X0212503Y0154678D01*
X0214438Y0156613D01*
X0214438Y0154678D01*
X0213954Y0154194D01*
X0212987Y0154194D01*
X0212503Y0154678D01*
X0212503Y0156613D02*
X0212987Y0157097D01*
X0213954Y0157097D01*
X0214438Y0156613D01*
X0215449Y0156129D02*
X0215449Y0154678D01*
X0215933Y0154194D01*
X0217384Y0154194D01*
X0217384Y0156129D01*
X0218396Y0155645D02*
X0219363Y0155645D01*
X0218396Y0154194D02*
X0218396Y0157097D01*
X0220331Y0157097D01*
X0205831Y0157789D02*
X0204864Y0157306D01*
X0203897Y0156338D01*
X0205348Y0156338D01*
X0205831Y0155854D01*
X0205831Y0155371D01*
X0205348Y0154887D01*
X0204380Y0154887D01*
X0203897Y0155371D01*
X0203897Y0156338D01*
X0202885Y0155371D02*
X0202401Y0154887D01*
X0201434Y0154887D01*
X0200950Y0155371D01*
X0200950Y0157306D01*
X0201434Y0157789D01*
X0202401Y0157789D01*
X0202885Y0157306D01*
X0139885Y0141547D02*
X0139401Y0142030D01*
X0138434Y0142030D01*
X0137950Y0141547D01*
X0136938Y0142030D02*
X0136938Y0139612D01*
X0136455Y0139128D01*
X0135487Y0139128D01*
X0135003Y0139612D01*
X0135003Y0142030D01*
X0137950Y0139128D02*
X0139885Y0141063D01*
X0139885Y0141547D01*
X0139885Y0139128D02*
X0137950Y0139128D01*
X0085938Y0105152D02*
X0084003Y0103217D01*
X0084487Y0103701D02*
X0085938Y0102250D01*
X0084003Y0102250D02*
X0084003Y0105152D01*
X0082992Y0104669D02*
X0082992Y0102734D01*
X0082508Y0102250D01*
X0081541Y0102250D01*
X0081057Y0102734D01*
X0082992Y0104669D01*
X0082508Y0105152D01*
X0081541Y0105152D01*
X0081057Y0104669D01*
X0081057Y0102734D01*
X0080045Y0102250D02*
X0078110Y0102250D01*
X0079078Y0102250D02*
X0079078Y0105152D01*
X0078110Y0104185D01*
X0075938Y0104435D02*
X0075455Y0103951D01*
X0075938Y0103467D01*
X0075938Y0102984D01*
X0075455Y0102500D01*
X0074487Y0102500D01*
X0074003Y0102984D01*
X0072992Y0102500D02*
X0072024Y0103467D01*
X0072508Y0103467D02*
X0071057Y0103467D01*
X0071057Y0102500D02*
X0071057Y0105402D01*
X0072508Y0105402D01*
X0072992Y0104919D01*
X0072992Y0103951D01*
X0072508Y0103467D01*
X0074003Y0104919D02*
X0074487Y0105402D01*
X0075455Y0105402D01*
X0075938Y0104919D01*
X0075938Y0104435D01*
X0075455Y0103951D02*
X0074971Y0103951D01*
X0062350Y0105594D02*
X0061866Y0105110D01*
X0062350Y0105594D02*
X0062350Y0106078D01*
X0061866Y0106562D01*
X0059448Y0106562D01*
X0059448Y0107045D02*
X0059448Y0106078D01*
X0059448Y0108057D02*
X0059448Y0109508D01*
X0059931Y0109992D01*
X0060899Y0109992D01*
X0061383Y0109508D01*
X0061383Y0108057D01*
X0062350Y0108057D02*
X0059448Y0108057D01*
X0054992Y0106801D02*
X0054992Y0105350D01*
X0054024Y0105350D02*
X0054024Y0106801D01*
X0054508Y0107285D01*
X0054992Y0106801D01*
X0054024Y0106801D02*
X0053541Y0107285D01*
X0053057Y0107285D01*
X0053057Y0105350D01*
X0052045Y0105350D02*
X0052045Y0106801D01*
X0051562Y0107285D01*
X0051078Y0106801D01*
X0051078Y0105350D01*
X0050110Y0105350D02*
X0050110Y0107285D01*
X0050594Y0107285D01*
X0051078Y0106801D01*
X0051078Y0110150D02*
X0051078Y0111601D01*
X0051562Y0112085D01*
X0052045Y0111601D01*
X0052045Y0110150D01*
X0053057Y0110150D02*
X0053057Y0112085D01*
X0053541Y0112085D01*
X0054024Y0111601D01*
X0054508Y0112085D01*
X0054992Y0111601D01*
X0054992Y0110150D01*
X0054024Y0110150D02*
X0054024Y0111601D01*
X0051078Y0111601D02*
X0050594Y0112085D01*
X0050110Y0112085D01*
X0050110Y0110150D01*
X0046152Y0110150D02*
X0044217Y0110150D01*
X0046152Y0112085D01*
X0046152Y0112569D01*
X0045669Y0113052D01*
X0044701Y0113052D01*
X0044217Y0112569D01*
X0043206Y0112569D02*
X0043206Y0112085D01*
X0042722Y0111601D01*
X0041755Y0111601D01*
X0041271Y0112085D01*
X0041271Y0112569D01*
X0041755Y0113052D01*
X0042722Y0113052D01*
X0043206Y0112569D01*
X0042722Y0111601D02*
X0043206Y0111117D01*
X0043206Y0110634D01*
X0042722Y0110150D01*
X0041755Y0110150D01*
X0041271Y0110634D01*
X0041271Y0111117D01*
X0041755Y0111601D01*
X0041755Y0114950D02*
X0042722Y0114950D01*
X0043206Y0115434D01*
X0043206Y0115917D01*
X0042722Y0116401D01*
X0041271Y0116401D01*
X0041271Y0115434D01*
X0041755Y0114950D01*
X0040259Y0114950D02*
X0038324Y0114950D01*
X0039292Y0114950D02*
X0039292Y0117852D01*
X0038324Y0116885D01*
X0038310Y0118783D02*
X0038793Y0118783D01*
X0039277Y0119266D01*
X0039277Y0121685D01*
X0037826Y0121685D01*
X0037342Y0121201D01*
X0037342Y0120234D01*
X0037826Y0119750D01*
X0039277Y0119750D01*
X0040772Y0120234D02*
X0041256Y0119750D01*
X0040772Y0120234D02*
X0040772Y0122169D01*
X0040289Y0121685D02*
X0041256Y0121685D01*
X0042253Y0121201D02*
X0042737Y0121685D01*
X0043704Y0121685D01*
X0044188Y0121201D01*
X0044188Y0119750D01*
X0045200Y0119750D02*
X0045200Y0120234D01*
X0045683Y0120234D01*
X0045683Y0119750D01*
X0045200Y0119750D01*
X0045200Y0121201D02*
X0045200Y0121685D01*
X0045683Y0121685D01*
X0045683Y0121201D01*
X0045200Y0121201D01*
X0042253Y0122652D02*
X0042253Y0119750D01*
X0043206Y0117852D02*
X0042238Y0117369D01*
X0041271Y0116401D01*
X0044217Y0116401D02*
X0044217Y0117852D01*
X0046152Y0117852D01*
X0045669Y0116885D02*
X0046152Y0116401D01*
X0046152Y0115434D01*
X0045669Y0114950D01*
X0044701Y0114950D01*
X0044217Y0115434D01*
X0044217Y0116401D02*
X0045185Y0116885D01*
X0045669Y0116885D01*
X0050110Y0116885D02*
X0050110Y0114950D01*
X0051078Y0114950D02*
X0051078Y0116401D01*
X0051562Y0116885D01*
X0052045Y0116401D01*
X0052045Y0114950D01*
X0053057Y0114950D02*
X0053057Y0116885D01*
X0053541Y0116885D01*
X0054024Y0116401D01*
X0054508Y0116885D01*
X0054992Y0116401D01*
X0054992Y0114950D01*
X0054024Y0114950D02*
X0054024Y0116401D01*
X0051078Y0116401D02*
X0050594Y0116885D01*
X0050110Y0116885D01*
X0059248Y0120950D02*
X0059248Y0121917D01*
X0059248Y0121434D02*
X0062150Y0121434D01*
X0062150Y0121917D02*
X0062150Y0120950D01*
X0061666Y0122914D02*
X0062150Y0123398D01*
X0062150Y0124366D01*
X0061666Y0124849D01*
X0061183Y0124849D01*
X0060699Y0124366D01*
X0060699Y0123398D01*
X0060215Y0122914D01*
X0059731Y0122914D01*
X0059248Y0123398D01*
X0059248Y0124366D01*
X0059731Y0124849D01*
X0059248Y0125861D02*
X0059248Y0127312D01*
X0059731Y0127796D01*
X0060699Y0127796D01*
X0061183Y0127312D01*
X0061183Y0125861D01*
X0062150Y0125861D02*
X0059248Y0125861D01*
X0059931Y0112938D02*
X0060415Y0112938D01*
X0060899Y0112455D01*
X0061383Y0112938D01*
X0061866Y0112938D01*
X0062350Y0112455D01*
X0062350Y0111487D01*
X0061866Y0111003D01*
X0060899Y0111971D02*
X0060899Y0112455D01*
X0059931Y0112938D02*
X0059448Y0112455D01*
X0059448Y0111487D01*
X0059931Y0111003D01*
X0046152Y0107769D02*
X0046152Y0107285D01*
X0045669Y0106801D01*
X0044701Y0106801D01*
X0044217Y0107285D01*
X0044217Y0107769D01*
X0044701Y0108252D01*
X0045669Y0108252D01*
X0046152Y0107769D01*
X0045669Y0106801D02*
X0046152Y0106317D01*
X0046152Y0105834D01*
X0045669Y0105350D01*
X0044701Y0105350D01*
X0044217Y0105834D01*
X0044217Y0106317D01*
X0044701Y0106801D01*
X0043206Y0107769D02*
X0041271Y0105834D01*
X0041271Y0105350D01*
X0041271Y0108252D02*
X0043206Y0108252D01*
X0043206Y0107769D01*
X0034366Y0106801D02*
X0032431Y0105350D01*
X0031420Y0106801D02*
X0029485Y0106801D01*
X0032431Y0108252D02*
X0034366Y0106801D01*
X0032431Y0110150D02*
X0034366Y0111601D01*
X0032431Y0113052D01*
X0031420Y0111601D02*
X0029485Y0111601D01*
X0025527Y0112085D02*
X0023592Y0110150D01*
X0025527Y0110150D01*
X0025527Y0112085D02*
X0023592Y0112085D01*
X0022580Y0111601D02*
X0020645Y0111601D01*
X0020645Y0110150D02*
X0020645Y0113052D01*
X0019634Y0113052D02*
X0019634Y0110150D01*
X0019634Y0108252D02*
X0019634Y0105350D01*
X0020645Y0105350D02*
X0020645Y0108252D01*
X0019634Y0108252D02*
X0018666Y0107285D01*
X0017699Y0108252D01*
X0017699Y0105350D01*
X0020645Y0106801D02*
X0022580Y0106801D01*
X0023592Y0107285D02*
X0025527Y0107285D01*
X0023592Y0105350D01*
X0025527Y0105350D01*
X0022580Y0105350D02*
X0022580Y0108252D01*
X0022580Y0110150D02*
X0022580Y0113052D01*
X0022580Y0114950D02*
X0022580Y0117852D01*
X0023592Y0116885D02*
X0025527Y0116885D01*
X0023592Y0114950D01*
X0025527Y0114950D01*
X0022580Y0116401D02*
X0020645Y0116401D01*
X0020645Y0114950D02*
X0020645Y0117852D01*
X0019634Y0117852D02*
X0019634Y0114950D01*
X0019634Y0113052D02*
X0018666Y0112085D01*
X0017699Y0113052D01*
X0017699Y0110150D01*
X0013741Y0110634D02*
X0013257Y0110150D01*
X0012289Y0110150D01*
X0011806Y0110634D01*
X0011806Y0111117D01*
X0012289Y0111601D01*
X0013257Y0111601D01*
X0013741Y0111117D01*
X0013741Y0110634D01*
X0013257Y0111601D02*
X0013741Y0112085D01*
X0013741Y0112569D01*
X0013257Y0113052D01*
X0012289Y0113052D01*
X0011806Y0112569D01*
X0011806Y0112085D01*
X0012289Y0111601D01*
X0010794Y0111117D02*
X0010310Y0111601D01*
X0008859Y0111601D01*
X0008859Y0110634D01*
X0009343Y0110150D01*
X0010310Y0110150D01*
X0010794Y0110634D01*
X0010794Y0111117D01*
X0009827Y0112569D02*
X0008859Y0111601D01*
X0007848Y0111117D02*
X0007848Y0110634D01*
X0007364Y0110150D01*
X0006396Y0110150D01*
X0005913Y0110634D01*
X0005913Y0111117D01*
X0006396Y0111601D01*
X0007364Y0111601D01*
X0007848Y0111117D01*
X0007364Y0111601D02*
X0007848Y0112085D01*
X0007848Y0112569D01*
X0007364Y0113052D01*
X0006396Y0113052D01*
X0005913Y0112569D01*
X0005913Y0112085D01*
X0006396Y0111601D01*
X0009827Y0112569D02*
X0010794Y0113052D01*
X0010310Y0114950D02*
X0009343Y0114950D01*
X0008859Y0115434D01*
X0009827Y0116401D02*
X0010310Y0116401D01*
X0010794Y0115917D01*
X0010794Y0115434D01*
X0010310Y0114950D01*
X0010310Y0116401D02*
X0010794Y0116885D01*
X0010794Y0117369D01*
X0010310Y0117852D01*
X0009343Y0117852D01*
X0008859Y0117369D01*
X0007848Y0116401D02*
X0005913Y0116401D01*
X0007364Y0117852D01*
X0007364Y0114950D01*
X0011806Y0115434D02*
X0012289Y0114950D01*
X0013257Y0114950D01*
X0013741Y0115434D01*
X0013741Y0115917D01*
X0013257Y0116401D01*
X0012773Y0116401D01*
X0013257Y0116401D02*
X0013741Y0116885D01*
X0013741Y0117369D01*
X0013257Y0117852D01*
X0012289Y0117852D01*
X0011806Y0117369D01*
X0012773Y0119750D02*
X0012289Y0120234D01*
X0012289Y0122169D01*
X0011806Y0121685D02*
X0012773Y0121685D01*
X0013770Y0121201D02*
X0013770Y0120234D01*
X0014254Y0119750D01*
X0015221Y0119750D01*
X0015705Y0120717D02*
X0013770Y0120717D01*
X0013770Y0121201D02*
X0014254Y0121685D01*
X0015221Y0121685D01*
X0015705Y0121201D01*
X0015705Y0120717D01*
X0016717Y0119750D02*
X0016717Y0121685D01*
X0018168Y0121685D01*
X0018652Y0121201D01*
X0018652Y0119750D01*
X0019663Y0119750D02*
X0019663Y0121685D01*
X0021114Y0121685D01*
X0021598Y0121201D01*
X0021598Y0119750D01*
X0022610Y0120234D02*
X0023093Y0120717D01*
X0024545Y0120717D01*
X0024545Y0121201D02*
X0024545Y0119750D01*
X0023093Y0119750D01*
X0022610Y0120234D01*
X0023093Y0121685D02*
X0024061Y0121685D01*
X0024545Y0121201D01*
X0028503Y0119750D02*
X0030438Y0119750D01*
X0031449Y0120234D02*
X0031449Y0121201D01*
X0031933Y0121685D01*
X0032900Y0121685D01*
X0033384Y0121201D01*
X0033384Y0120717D01*
X0031449Y0120717D01*
X0031449Y0120234D02*
X0031933Y0119750D01*
X0032900Y0119750D01*
X0034396Y0119750D02*
X0034396Y0121685D01*
X0035847Y0121685D01*
X0036331Y0121201D01*
X0036331Y0119750D01*
X0034366Y0116401D02*
X0032431Y0117852D01*
X0031420Y0116401D02*
X0029485Y0116401D01*
X0032431Y0114950D02*
X0034366Y0116401D01*
X0028503Y0119750D02*
X0028503Y0122652D01*
X0019634Y0117852D02*
X0018666Y0116885D01*
X0017699Y0117852D01*
X0017699Y0114950D01*
X0010794Y0119750D02*
X0010794Y0121201D01*
X0010310Y0121685D01*
X0008859Y0121685D01*
X0008859Y0119750D01*
X0007848Y0119750D02*
X0007848Y0121685D01*
X0006880Y0122652D01*
X0005913Y0121685D01*
X0005913Y0119750D01*
X0005913Y0121201D02*
X0007848Y0121201D01*
X0007364Y0108252D02*
X0006396Y0108252D01*
X0005913Y0107769D01*
X0005913Y0107285D01*
X0006396Y0106801D01*
X0007848Y0106801D01*
X0007848Y0105834D02*
X0007364Y0105350D01*
X0006396Y0105350D01*
X0005913Y0105834D01*
X0007848Y0105834D02*
X0007848Y0107769D01*
X0007364Y0108252D01*
X0008859Y0107285D02*
X0009827Y0108252D01*
X0009827Y0105350D01*
X0010794Y0105350D02*
X0008859Y0105350D01*
X0011806Y0105834D02*
X0012289Y0105350D01*
X0013257Y0105350D01*
X0013741Y0105834D01*
X0013741Y0106801D01*
X0013257Y0107285D01*
X0012773Y0107285D01*
X0011806Y0106801D01*
X0011806Y0108252D01*
X0013741Y0108252D01*
X0010577Y0101152D02*
X0011545Y0100185D01*
X0011545Y0098250D01*
X0012556Y0098250D02*
X0012556Y0100185D01*
X0013040Y0100185D01*
X0013524Y0099701D01*
X0014007Y0100185D01*
X0014491Y0099701D01*
X0014491Y0098250D01*
X0013524Y0098250D02*
X0013524Y0099701D01*
X0011545Y0099701D02*
X0009610Y0099701D01*
X0009610Y0100185D02*
X0010577Y0101152D01*
X0009610Y0100185D02*
X0009610Y0098250D01*
X0015503Y0098250D02*
X0015503Y0100185D01*
X0015986Y0100185D01*
X0016470Y0099701D01*
X0016954Y0100185D01*
X0017438Y0099701D01*
X0017438Y0098250D01*
X0016470Y0098250D02*
X0016470Y0099701D01*
X0018449Y0099701D02*
X0018449Y0098734D01*
X0018933Y0098250D01*
X0019900Y0098250D01*
X0020384Y0099217D02*
X0018449Y0099217D01*
X0018449Y0099701D02*
X0018933Y0100185D01*
X0019900Y0100185D01*
X0020384Y0099701D01*
X0020384Y0099217D01*
X0021396Y0100185D02*
X0022363Y0100185D01*
X0021879Y0100669D02*
X0021879Y0098734D01*
X0022363Y0098250D01*
X0023360Y0098734D02*
X0023360Y0099701D01*
X0023844Y0100185D01*
X0024811Y0100185D01*
X0025295Y0099701D01*
X0025295Y0099217D01*
X0023360Y0099217D01*
X0023360Y0098734D02*
X0023844Y0098250D01*
X0024811Y0098250D01*
X0026307Y0098250D02*
X0026307Y0100185D01*
X0027274Y0100185D02*
X0027758Y0100185D01*
X0027274Y0100185D02*
X0026307Y0099217D01*
X0031708Y0098250D02*
X0033160Y0098250D01*
X0033643Y0098734D01*
X0033643Y0099701D01*
X0033160Y0100185D01*
X0031708Y0100185D01*
X0031708Y0097283D01*
X0034655Y0098250D02*
X0034655Y0100185D01*
X0035622Y0100185D02*
X0036106Y0100185D01*
X0035622Y0100185D02*
X0034655Y0099217D01*
X0037110Y0098734D02*
X0037594Y0098250D01*
X0038562Y0098250D01*
X0039045Y0098734D01*
X0039045Y0099701D01*
X0038562Y0100185D01*
X0037594Y0100185D01*
X0037110Y0099701D01*
X0037110Y0098734D01*
X0040057Y0098250D02*
X0041508Y0098250D01*
X0041992Y0098734D01*
X0041992Y0099701D01*
X0041508Y0100185D01*
X0040057Y0100185D01*
X0040057Y0101152D02*
X0040057Y0098250D01*
X0043003Y0098734D02*
X0043003Y0099701D01*
X0043487Y0100185D01*
X0044455Y0100185D01*
X0044938Y0099701D01*
X0044938Y0099217D01*
X0043003Y0099217D01*
X0043003Y0098734D02*
X0043487Y0098250D01*
X0044455Y0098250D01*
X0054042Y0084797D02*
X0055977Y0082862D01*
X0056461Y0083346D01*
X0056461Y0084313D01*
X0055977Y0084797D01*
X0054042Y0084797D01*
X0053559Y0084313D01*
X0053559Y0083346D01*
X0054042Y0082862D01*
X0055977Y0082862D01*
X0056461Y0081851D02*
X0056461Y0079916D01*
X0054526Y0081851D01*
X0054042Y0081851D01*
X0053559Y0081367D01*
X0053559Y0080399D01*
X0054042Y0079916D01*
X0054042Y0078904D02*
X0053559Y0078420D01*
X0053559Y0077453D01*
X0054042Y0076969D01*
X0054526Y0076969D01*
X0055010Y0077453D01*
X0055010Y0078904D01*
X0055977Y0078904D02*
X0054042Y0078904D01*
X0055977Y0078904D02*
X0056461Y0078420D01*
X0056461Y0077453D01*
X0055977Y0076969D01*
X0055977Y0075957D02*
X0055494Y0075957D01*
X0055010Y0075474D01*
X0055010Y0074023D01*
X0055977Y0074023D01*
X0056461Y0074506D01*
X0056461Y0075474D01*
X0055977Y0075957D01*
X0055010Y0074023D02*
X0054042Y0074990D01*
X0053559Y0075957D01*
X0056461Y0073011D02*
X0056461Y0071076D01*
X0053559Y0071076D01*
X0046776Y0074076D02*
X0046776Y0075043D01*
X0046776Y0074560D02*
X0043874Y0074560D01*
X0043874Y0075043D02*
X0043874Y0074076D01*
X0044357Y0076040D02*
X0046292Y0076040D01*
X0046776Y0076524D01*
X0046776Y0077492D01*
X0046292Y0077975D01*
X0046776Y0078987D02*
X0044841Y0080922D01*
X0044357Y0080922D01*
X0043874Y0080438D01*
X0043874Y0079471D01*
X0044357Y0078987D01*
X0044357Y0077975D02*
X0043874Y0077492D01*
X0043874Y0076524D01*
X0044357Y0076040D01*
X0046776Y0078987D02*
X0046776Y0080922D01*
X0061838Y0081652D02*
X0061838Y0079717D01*
X0062806Y0078750D01*
X0063773Y0079717D01*
X0063773Y0081652D01*
X0064785Y0081652D02*
X0066236Y0081652D01*
X0066720Y0081169D01*
X0066720Y0080685D01*
X0066236Y0080201D01*
X0064785Y0080201D01*
X0064785Y0078750D02*
X0066236Y0078750D01*
X0066720Y0079234D01*
X0066720Y0079717D01*
X0066236Y0080201D01*
X0064785Y0078750D02*
X0064785Y0081652D01*
X0067731Y0078266D02*
X0069666Y0078266D01*
X0070678Y0078750D02*
X0072613Y0078750D01*
X0073624Y0078750D02*
X0073624Y0081652D01*
X0075559Y0078750D01*
X0075559Y0081652D01*
X0072613Y0081652D02*
X0070678Y0081652D01*
X0070678Y0078750D01*
X0070678Y0080201D02*
X0071645Y0080201D01*
X0076571Y0078266D02*
X0078506Y0078266D01*
X0079517Y0078750D02*
X0080969Y0078750D01*
X0081452Y0079234D01*
X0081452Y0081169D01*
X0080969Y0081652D01*
X0079517Y0081652D01*
X0079517Y0078750D01*
X0082464Y0078750D02*
X0083431Y0078750D01*
X0082948Y0078750D02*
X0082948Y0081652D01*
X0083431Y0081652D02*
X0082464Y0081652D01*
X0082931Y0083610D02*
X0083415Y0083610D01*
X0083899Y0084094D01*
X0083899Y0085062D01*
X0084383Y0085545D01*
X0084866Y0085545D01*
X0085350Y0085062D01*
X0085350Y0084094D01*
X0084866Y0083610D01*
X0082931Y0083610D02*
X0082448Y0084094D01*
X0082448Y0085062D01*
X0082931Y0085545D01*
X0082448Y0087524D02*
X0082448Y0088492D01*
X0082448Y0088008D02*
X0084866Y0088008D01*
X0085350Y0087524D01*
X0085350Y0087041D01*
X0084866Y0086557D01*
X0085350Y0089503D02*
X0083415Y0091438D01*
X0082931Y0091438D01*
X0082448Y0090955D01*
X0082448Y0089987D01*
X0082931Y0089503D01*
X0085350Y0089503D02*
X0085350Y0091438D01*
X0084912Y0081652D02*
X0084428Y0081169D01*
X0084428Y0080685D01*
X0084912Y0080201D01*
X0085880Y0080201D01*
X0086363Y0079717D01*
X0086363Y0079234D01*
X0085880Y0078750D01*
X0084912Y0078750D01*
X0084428Y0079234D01*
X0084434Y0077102D02*
X0083950Y0076619D01*
X0083950Y0074684D01*
X0084434Y0074200D01*
X0085401Y0074200D01*
X0085885Y0074684D01*
X0086897Y0074200D02*
X0088831Y0074200D01*
X0087864Y0074200D02*
X0087864Y0077102D01*
X0086897Y0076135D01*
X0085885Y0076619D02*
X0085401Y0077102D01*
X0084434Y0077102D01*
X0086363Y0081169D02*
X0085880Y0081652D01*
X0084912Y0081652D01*
X0091215Y0077241D02*
X0091699Y0077725D01*
X0093150Y0077725D01*
X0093150Y0075790D02*
X0091215Y0075790D01*
X0091215Y0077241D01*
X0090731Y0074778D02*
X0092666Y0072843D01*
X0093150Y0073327D01*
X0093150Y0074294D01*
X0092666Y0074778D01*
X0090731Y0074778D01*
X0090248Y0074294D01*
X0090248Y0073327D01*
X0090731Y0072843D01*
X0092666Y0072843D01*
X0092666Y0071831D02*
X0090731Y0071831D01*
X0092666Y0069897D01*
X0093150Y0070380D01*
X0093150Y0071348D01*
X0092666Y0071831D01*
X0092666Y0069897D02*
X0090731Y0069897D01*
X0090248Y0070380D01*
X0090248Y0071348D01*
X0090731Y0071831D01*
X0093150Y0068885D02*
X0093150Y0066950D01*
X0093150Y0067917D02*
X0090248Y0067917D01*
X0091215Y0066950D01*
X0092917Y0064352D02*
X0092917Y0061450D01*
X0091950Y0061450D02*
X0093885Y0061450D01*
X0094897Y0061934D02*
X0096831Y0063869D01*
X0096831Y0061934D01*
X0096348Y0061450D01*
X0095380Y0061450D01*
X0094897Y0061934D01*
X0094897Y0063869D01*
X0095380Y0064352D01*
X0096348Y0064352D01*
X0096831Y0063869D01*
X0097843Y0063869D02*
X0098327Y0064352D01*
X0099294Y0064352D01*
X0099778Y0063869D01*
X0097843Y0061934D01*
X0098327Y0061450D01*
X0099294Y0061450D01*
X0099778Y0061934D01*
X0099778Y0063869D01*
X0100790Y0063385D02*
X0102241Y0063385D01*
X0102725Y0062901D01*
X0102725Y0061450D01*
X0100790Y0061450D02*
X0100790Y0063385D01*
X0097843Y0063869D02*
X0097843Y0061934D01*
X0092917Y0064352D02*
X0091950Y0063385D01*
X0089294Y0059102D02*
X0088327Y0059102D01*
X0087843Y0058619D01*
X0089294Y0059102D02*
X0089778Y0058619D01*
X0089778Y0058135D01*
X0087843Y0056200D01*
X0089778Y0056200D01*
X0086831Y0056200D02*
X0084897Y0056200D01*
X0085864Y0056200D02*
X0085864Y0059102D01*
X0084897Y0058135D01*
X0083885Y0058619D02*
X0083401Y0059102D01*
X0082434Y0059102D01*
X0081950Y0058619D01*
X0081950Y0056684D01*
X0082434Y0056200D01*
X0083401Y0056200D01*
X0083885Y0056684D01*
X0084434Y0050102D02*
X0083950Y0049619D01*
X0083950Y0047684D01*
X0084434Y0047200D01*
X0085401Y0047200D01*
X0085885Y0047684D01*
X0086897Y0048651D02*
X0088831Y0048651D01*
X0088348Y0047200D02*
X0088348Y0050102D01*
X0086897Y0048651D01*
X0085885Y0049619D02*
X0085401Y0050102D01*
X0084434Y0050102D01*
X0089917Y0044352D02*
X0089917Y0041450D01*
X0088950Y0041450D02*
X0090885Y0041450D01*
X0091897Y0041934D02*
X0093831Y0043869D01*
X0093831Y0041934D01*
X0093348Y0041450D01*
X0092380Y0041450D01*
X0091897Y0041934D01*
X0091897Y0043869D01*
X0092380Y0044352D01*
X0093348Y0044352D01*
X0093831Y0043869D01*
X0094843Y0043869D02*
X0094843Y0041934D01*
X0096778Y0043869D01*
X0096778Y0041934D01*
X0096294Y0041450D01*
X0095327Y0041450D01*
X0094843Y0041934D01*
X0094843Y0043869D02*
X0095327Y0044352D01*
X0096294Y0044352D01*
X0096778Y0043869D01*
X0097790Y0043385D02*
X0099241Y0043385D01*
X0099725Y0042901D01*
X0099725Y0041450D01*
X0097790Y0041450D02*
X0097790Y0043385D01*
X0089917Y0044352D02*
X0088950Y0043385D01*
X0090490Y0036852D02*
X0091457Y0035885D01*
X0091457Y0033950D01*
X0092469Y0034434D02*
X0092469Y0035401D01*
X0093920Y0035401D01*
X0094404Y0034917D01*
X0094404Y0034434D01*
X0093920Y0033950D01*
X0092952Y0033950D01*
X0092469Y0034434D01*
X0092469Y0035401D02*
X0093436Y0036369D01*
X0094404Y0036852D01*
X0098362Y0035885D02*
X0098362Y0033950D01*
X0098362Y0035401D02*
X0100297Y0035401D01*
X0100297Y0035885D02*
X0100297Y0033950D01*
X0101308Y0033950D02*
X0101308Y0034434D01*
X0103243Y0036369D01*
X0103243Y0036852D01*
X0101308Y0036852D01*
X0100297Y0035885D02*
X0099329Y0036852D01*
X0098362Y0035885D01*
X0091457Y0035401D02*
X0089522Y0035401D01*
X0089522Y0035885D02*
X0090490Y0036852D01*
X0089522Y0035885D02*
X0089522Y0033950D01*
X0085564Y0034434D02*
X0085564Y0036369D01*
X0085080Y0036852D01*
X0083629Y0036852D01*
X0083629Y0033950D01*
X0085080Y0033950D01*
X0085564Y0034434D01*
X0082618Y0033950D02*
X0082618Y0036852D01*
X0080683Y0036852D02*
X0080683Y0033950D01*
X0079671Y0034434D02*
X0079671Y0035401D01*
X0078704Y0035401D01*
X0079671Y0034434D02*
X0079187Y0033950D01*
X0078220Y0033950D01*
X0077736Y0034434D01*
X0077736Y0036369D01*
X0078220Y0036852D01*
X0079187Y0036852D01*
X0079671Y0036369D01*
X0080683Y0036852D02*
X0082618Y0033950D01*
X0073778Y0034434D02*
X0073294Y0033950D01*
X0072327Y0033950D01*
X0071843Y0034434D01*
X0070831Y0034917D02*
X0070831Y0036852D01*
X0071843Y0036369D02*
X0072327Y0036852D01*
X0073294Y0036852D01*
X0073778Y0036369D01*
X0073778Y0035885D01*
X0073294Y0035401D01*
X0073778Y0034917D01*
X0073778Y0034434D01*
X0073294Y0035401D02*
X0072811Y0035401D01*
X0070831Y0034917D02*
X0069864Y0033950D01*
X0068897Y0034917D01*
X0068897Y0036852D01*
X0067885Y0036369D02*
X0067885Y0035885D01*
X0067401Y0035401D01*
X0067885Y0034917D01*
X0067885Y0034434D01*
X0067401Y0033950D01*
X0066434Y0033950D01*
X0065950Y0034434D01*
X0066917Y0035401D02*
X0067401Y0035401D01*
X0067885Y0036369D02*
X0067401Y0036852D01*
X0066434Y0036852D01*
X0065950Y0036369D01*
X0067009Y0046506D02*
X0067009Y0049408D01*
X0065558Y0047957D01*
X0067493Y0047957D01*
X0068504Y0046990D02*
X0068504Y0046506D01*
X0068504Y0046990D02*
X0070439Y0048925D01*
X0070439Y0049408D01*
X0068504Y0049408D01*
X0069541Y0050813D02*
X0070508Y0050813D01*
X0070992Y0051297D01*
X0072003Y0051297D02*
X0072487Y0050813D01*
X0073455Y0050813D01*
X0073938Y0051297D01*
X0073938Y0053232D01*
X0073455Y0053715D01*
X0072487Y0053715D01*
X0072003Y0053232D01*
X0072003Y0052748D01*
X0072487Y0052264D01*
X0073938Y0052264D01*
X0070992Y0053232D02*
X0070508Y0053715D01*
X0069541Y0053715D01*
X0069057Y0053232D01*
X0069057Y0051297D01*
X0069541Y0050813D01*
X0071451Y0048441D02*
X0071451Y0046990D01*
X0071934Y0046506D01*
X0073386Y0046506D01*
X0073386Y0048441D01*
X0074397Y0047957D02*
X0075365Y0047957D01*
X0076332Y0049408D02*
X0074397Y0049408D01*
X0074397Y0046506D01*
X0062350Y0050164D02*
X0062350Y0052099D01*
X0062350Y0051131D02*
X0059448Y0051131D01*
X0060415Y0050164D01*
X0059931Y0053110D02*
X0059448Y0053594D01*
X0059448Y0054562D01*
X0059931Y0055045D01*
X0061866Y0053110D01*
X0062350Y0053594D01*
X0062350Y0054562D01*
X0061866Y0055045D01*
X0059931Y0055045D01*
X0059931Y0056057D02*
X0059448Y0056541D01*
X0059448Y0057508D01*
X0059931Y0057992D01*
X0061866Y0056057D01*
X0062350Y0056541D01*
X0062350Y0057508D01*
X0061866Y0057992D01*
X0059931Y0057992D01*
X0060415Y0059003D02*
X0060415Y0060455D01*
X0060899Y0060938D01*
X0062350Y0060938D01*
X0062350Y0059003D02*
X0060415Y0059003D01*
X0059931Y0056057D02*
X0061866Y0056057D01*
X0061866Y0053110D02*
X0059931Y0053110D01*
X0051100Y0053594D02*
X0051100Y0054562D01*
X0050616Y0055045D01*
X0051100Y0056057D02*
X0051100Y0057992D01*
X0051100Y0057024D02*
X0048198Y0057024D01*
X0049165Y0056057D01*
X0048681Y0055045D02*
X0048198Y0054562D01*
X0048198Y0053594D01*
X0048681Y0053110D01*
X0050616Y0053110D01*
X0051100Y0053594D01*
X0051100Y0059003D02*
X0051100Y0060938D01*
X0051100Y0059971D02*
X0048198Y0059971D01*
X0049165Y0059003D01*
X0016331Y0050097D02*
X0014396Y0050097D01*
X0014396Y0047194D01*
X0013384Y0047194D02*
X0013384Y0049129D01*
X0014396Y0048645D02*
X0015363Y0048645D01*
X0013384Y0047194D02*
X0011933Y0047194D01*
X0011449Y0047678D01*
X0011449Y0049129D01*
X0010438Y0049613D02*
X0008503Y0047678D01*
X0008503Y0047194D01*
X0007008Y0047194D02*
X0007008Y0050097D01*
X0005556Y0048645D01*
X0007491Y0048645D01*
X0008503Y0050097D02*
X0010438Y0050097D01*
X0010438Y0049613D01*
X0010401Y0053887D02*
X0010885Y0054371D01*
X0010401Y0053887D02*
X0009434Y0053887D01*
X0008950Y0054371D01*
X0008950Y0056306D01*
X0009434Y0056789D01*
X0010401Y0056789D01*
X0010885Y0056306D01*
X0011897Y0056306D02*
X0011897Y0055822D01*
X0012380Y0055338D01*
X0013348Y0055338D01*
X0013831Y0054854D01*
X0013831Y0054371D01*
X0013348Y0053887D01*
X0012380Y0053887D01*
X0011897Y0054371D01*
X0011897Y0054854D01*
X0012380Y0055338D01*
X0013348Y0055338D02*
X0013831Y0055822D01*
X0013831Y0056306D01*
X0013348Y0056789D01*
X0012380Y0056789D01*
X0011897Y0056306D01*
X0011992Y0069750D02*
X0011992Y0071685D01*
X0013003Y0071201D02*
X0014938Y0071201D01*
X0014938Y0072652D02*
X0014938Y0069750D01*
X0013003Y0069750D02*
X0013003Y0072652D01*
X0010057Y0071685D02*
X0010057Y0070234D01*
X0010541Y0069750D01*
X0011992Y0069750D01*
X0009045Y0070234D02*
X0008562Y0069750D01*
X0007594Y0069750D01*
X0007110Y0070234D01*
X0009045Y0072169D01*
X0009045Y0070234D01*
X0007110Y0070234D02*
X0007110Y0072169D01*
X0007594Y0072652D01*
X0008562Y0072652D01*
X0009045Y0072169D01*
X0008992Y0075750D02*
X0007057Y0075750D01*
X0007057Y0078652D01*
X0010003Y0077685D02*
X0010971Y0078652D01*
X0010971Y0075750D01*
X0011938Y0075750D02*
X0010003Y0075750D01*
X0005131Y0072652D02*
X0005131Y0069750D01*
X0004164Y0069750D02*
X0006099Y0069750D01*
X0004164Y0071685D02*
X0005131Y0072652D01*
X0007894Y0089550D02*
X0007410Y0090034D01*
X0007894Y0089550D02*
X0008378Y0089550D01*
X0008862Y0090034D01*
X0008862Y0092452D01*
X0009345Y0092452D02*
X0008378Y0092452D01*
X0010357Y0092452D02*
X0011808Y0092452D01*
X0012292Y0091969D01*
X0012292Y0091001D01*
X0011808Y0090517D01*
X0010357Y0090517D01*
X0010357Y0089550D02*
X0010357Y0092452D01*
X0013303Y0092452D02*
X0015238Y0092452D01*
X0015238Y0091969D01*
X0013303Y0090034D01*
X0013303Y0089550D01*
X0035434Y0026352D02*
X0034950Y0025869D01*
X0034950Y0023934D01*
X0035434Y0023450D01*
X0036401Y0023450D01*
X0036885Y0023934D01*
X0036885Y0025869D01*
X0036401Y0026352D01*
X0035434Y0026352D01*
X0037897Y0026352D02*
X0039831Y0026352D01*
X0038864Y0026352D02*
X0038864Y0023450D01*
X0040843Y0023450D02*
X0040843Y0026352D01*
X0040843Y0024901D02*
X0042778Y0024901D01*
X0043790Y0024901D02*
X0044757Y0024901D01*
X0043790Y0023450D02*
X0045725Y0023450D01*
X0046736Y0023450D02*
X0046736Y0026352D01*
X0048187Y0026352D01*
X0048671Y0025869D01*
X0048671Y0024901D01*
X0048187Y0024417D01*
X0046736Y0024417D01*
X0047704Y0024417D02*
X0048671Y0023450D01*
X0045725Y0026352D02*
X0043790Y0026352D01*
X0043790Y0023450D01*
X0042778Y0023450D02*
X0042778Y0026352D01*
X0055650Y0023634D02*
X0056134Y0023150D01*
X0056617Y0023150D01*
X0057101Y0023634D01*
X0057101Y0026052D01*
X0056617Y0026052D02*
X0057585Y0026052D01*
X0058597Y0026052D02*
X0060048Y0026052D01*
X0060531Y0025569D01*
X0060531Y0024601D01*
X0060048Y0024117D01*
X0058597Y0024117D01*
X0058597Y0023150D02*
X0058597Y0026052D01*
X0061543Y0024601D02*
X0063478Y0024601D01*
X0062994Y0023150D02*
X0062994Y0026052D01*
X0061543Y0024601D01*
X0061434Y0008852D02*
X0062401Y0008852D01*
X0062885Y0008369D01*
X0062885Y0007885D01*
X0062401Y0007401D01*
X0062885Y0006917D01*
X0062885Y0006434D01*
X0062401Y0005950D01*
X0061434Y0005950D01*
X0060950Y0006434D01*
X0061917Y0007401D02*
X0062401Y0007401D01*
X0061434Y0008852D02*
X0060950Y0008369D01*
X0119217Y0044750D02*
X0119217Y0047652D01*
X0120185Y0046685D01*
X0121152Y0047652D01*
X0121152Y0044750D01*
X0122164Y0045234D02*
X0122648Y0044750D01*
X0123615Y0044750D01*
X0124099Y0045234D01*
X0124099Y0045717D01*
X0123615Y0046201D01*
X0123131Y0046201D01*
X0123615Y0046201D02*
X0124099Y0046685D01*
X0124099Y0047169D01*
X0123615Y0047652D01*
X0122648Y0047652D01*
X0122164Y0047169D01*
X0125110Y0047169D02*
X0125594Y0047652D01*
X0126562Y0047652D01*
X0127045Y0047169D01*
X0127045Y0046685D01*
X0125110Y0044750D01*
X0127045Y0044750D01*
X0128057Y0045234D02*
X0128057Y0045717D01*
X0128541Y0046201D01*
X0129508Y0046201D01*
X0129992Y0045717D01*
X0129992Y0045234D01*
X0129508Y0044750D01*
X0128541Y0044750D01*
X0128057Y0045234D01*
X0128541Y0046201D02*
X0128057Y0046685D01*
X0128057Y0047169D01*
X0128541Y0047652D01*
X0129508Y0047652D01*
X0129992Y0047169D01*
X0129992Y0046685D01*
X0129508Y0046201D01*
X0131003Y0045717D02*
X0132455Y0045717D01*
X0132938Y0046201D01*
X0132938Y0047169D01*
X0132455Y0047652D01*
X0131003Y0047652D01*
X0131003Y0044750D01*
X0144594Y0059500D02*
X0145562Y0059500D01*
X0146045Y0059984D01*
X0147057Y0059500D02*
X0148992Y0059500D01*
X0148024Y0059500D02*
X0148024Y0062402D01*
X0147057Y0061435D01*
X0146045Y0061919D02*
X0145562Y0062402D01*
X0144594Y0062402D01*
X0144110Y0061919D01*
X0144110Y0059984D01*
X0144594Y0059500D01*
X0150003Y0059984D02*
X0151938Y0061919D01*
X0151938Y0059984D01*
X0151455Y0059500D01*
X0150487Y0059500D01*
X0150003Y0059984D01*
X0150003Y0061919D01*
X0150487Y0062402D01*
X0151455Y0062402D01*
X0151938Y0061919D01*
X0155164Y0061185D02*
X0156131Y0062152D01*
X0156131Y0059250D01*
X0155164Y0059250D02*
X0157099Y0059250D01*
X0158110Y0059734D02*
X0160045Y0061669D01*
X0160045Y0059734D01*
X0159562Y0059250D01*
X0158594Y0059250D01*
X0158110Y0059734D01*
X0158110Y0061669D01*
X0158594Y0062152D01*
X0159562Y0062152D01*
X0160045Y0061669D01*
X0161057Y0061669D02*
X0161541Y0062152D01*
X0162508Y0062152D01*
X0162992Y0061669D01*
X0161057Y0059734D01*
X0161541Y0059250D01*
X0162508Y0059250D01*
X0162992Y0059734D01*
X0162992Y0061669D01*
X0164003Y0061185D02*
X0165455Y0061185D01*
X0165938Y0060701D01*
X0165938Y0059250D01*
X0164003Y0059250D02*
X0164003Y0061185D01*
X0161057Y0061669D02*
X0161057Y0059734D01*
X0165998Y0063450D02*
X0165998Y0064901D01*
X0166481Y0065385D01*
X0168416Y0065385D01*
X0168900Y0064901D01*
X0168900Y0063450D01*
X0165998Y0063450D01*
X0166965Y0066397D02*
X0165998Y0067364D01*
X0168900Y0067364D01*
X0168900Y0066397D02*
X0168900Y0068331D01*
X0158812Y0079230D02*
X0156877Y0079230D01*
X0158812Y0081165D01*
X0156877Y0081165D01*
X0155866Y0080682D02*
X0153931Y0080682D01*
X0153931Y0082133D02*
X0153931Y0079230D01*
X0152919Y0079230D02*
X0152919Y0082133D01*
X0151952Y0081165D01*
X0150984Y0082133D01*
X0150984Y0079230D01*
X0149973Y0079714D02*
X0149489Y0079230D01*
X0148522Y0079230D01*
X0148038Y0079714D01*
X0148038Y0080198D01*
X0148522Y0080682D01*
X0149489Y0080682D01*
X0149973Y0080198D01*
X0149973Y0079714D01*
X0149489Y0080682D02*
X0149973Y0081165D01*
X0149973Y0081649D01*
X0149489Y0082133D01*
X0148522Y0082133D01*
X0148038Y0081649D01*
X0148038Y0081165D01*
X0148522Y0080682D01*
X0143812Y0078844D02*
X0141877Y0078844D01*
X0142845Y0078844D02*
X0142845Y0081747D01*
X0141877Y0080779D01*
X0140866Y0081263D02*
X0139898Y0080296D01*
X0139898Y0078844D01*
X0139898Y0080296D02*
X0138931Y0081263D01*
X0138931Y0081747D01*
X0140866Y0081747D02*
X0140866Y0081263D01*
X0155866Y0082133D02*
X0155866Y0079230D01*
X0126471Y0069652D02*
X0126471Y0066750D01*
X0127438Y0066750D02*
X0125503Y0066750D01*
X0124492Y0067234D02*
X0124008Y0066750D01*
X0123041Y0066750D01*
X0122557Y0067234D01*
X0122557Y0069652D01*
X0124492Y0069652D02*
X0124492Y0067234D01*
X0125503Y0068685D02*
X0126471Y0069652D01*
X0165498Y0054831D02*
X0165498Y0052897D01*
X0166949Y0052897D01*
X0166465Y0053864D01*
X0166465Y0054348D01*
X0166949Y0054831D01*
X0167916Y0054831D01*
X0168400Y0054348D01*
X0168400Y0053380D01*
X0167916Y0052897D01*
X0168400Y0051885D02*
X0167433Y0050917D01*
X0167433Y0051401D02*
X0167433Y0049950D01*
X0168400Y0049950D02*
X0165498Y0049950D01*
X0165498Y0051401D01*
X0165981Y0051885D01*
X0166949Y0051885D01*
X0167433Y0051401D01*
X0190610Y0056234D02*
X0191094Y0055750D01*
X0192062Y0055750D01*
X0192545Y0056234D01*
X0192545Y0056717D01*
X0192062Y0057201D01*
X0191094Y0057201D01*
X0190610Y0057685D01*
X0190610Y0058169D01*
X0191094Y0058652D01*
X0192062Y0058652D01*
X0192545Y0058169D01*
X0194524Y0058652D02*
X0195492Y0058652D01*
X0195008Y0058652D02*
X0195008Y0056234D01*
X0194524Y0055750D01*
X0194041Y0055750D01*
X0193557Y0056234D01*
X0196503Y0055750D02*
X0198438Y0055750D01*
X0197471Y0055750D02*
X0197471Y0058652D01*
X0196503Y0057685D01*
X0218076Y0044852D02*
X0218076Y0041950D01*
X0220011Y0041950D01*
X0221023Y0041950D02*
X0221023Y0044852D01*
X0222958Y0041950D01*
X0222958Y0044852D01*
X0220011Y0044852D02*
X0218076Y0044852D01*
X0218076Y0043401D02*
X0219044Y0043401D01*
X0217065Y0041466D02*
X0215130Y0041466D01*
X0141950Y0008852D02*
X0141950Y0005950D01*
X0071659Y0155139D02*
X0071659Y0157074D01*
X0070691Y0158041D01*
X0069724Y0157074D01*
X0069724Y0155139D01*
X0068712Y0155139D02*
X0068712Y0158041D01*
X0069724Y0156590D02*
X0071659Y0156590D01*
X0068712Y0155139D02*
X0066777Y0158041D01*
X0066777Y0155139D01*
X0065766Y0155139D02*
X0065766Y0158041D01*
X0063831Y0158041D02*
X0065766Y0155139D01*
X0063831Y0155139D02*
X0063831Y0158041D01*
X0062819Y0158041D02*
X0060884Y0158041D01*
X0060884Y0155139D01*
X0062819Y0155139D01*
X0061852Y0156590D02*
X0060884Y0156590D01*
X0059873Y0158041D02*
X0057938Y0158041D01*
X0058905Y0158041D02*
X0058905Y0155139D01*
X0056926Y0155139D02*
X0056926Y0158041D01*
X0054991Y0158041D02*
X0056926Y0155139D01*
X0054991Y0155139D02*
X0054991Y0158041D01*
X0053979Y0157074D02*
X0053979Y0155139D01*
X0053979Y0156590D02*
X0052044Y0156590D01*
X0052044Y0157074D02*
X0053012Y0158041D01*
X0053979Y0157074D01*
X0052044Y0157074D02*
X0052044Y0155139D01*
X0030873Y0157824D02*
X0028938Y0157824D01*
X0029905Y0157824D02*
X0029905Y0160726D01*
X0028938Y0159759D01*
X0027926Y0160243D02*
X0027926Y0159275D01*
X0027442Y0158791D01*
X0025991Y0158791D01*
X0025991Y0157824D02*
X0025991Y0160726D01*
X0027442Y0160726D01*
X0027926Y0160243D01*
X0024979Y0160726D02*
X0024012Y0160726D01*
X0024496Y0160726D02*
X0024496Y0158308D01*
X0024012Y0157824D01*
X0023528Y0157824D01*
X0023044Y0158308D01*
D13*
X0239625Y0040625D03*
X0242125Y0040625D03*
X0244625Y0040625D03*
X0244625Y0028125D03*
X0242125Y0028125D03*
X0239625Y0028125D03*
D14*
X0242125Y0034375D03*
D15*
X0246747Y0035067D02*
X0246747Y0037202D01*
X0246747Y0036134D02*
X0249950Y0036134D01*
X0249950Y0032451D02*
X0246747Y0032451D01*
X0246747Y0031384D02*
X0246747Y0033519D01*
X0204036Y0063076D02*
X0202461Y0061698D01*
X0197737Y0061698D01*
X0196198Y0062737D02*
X0196198Y0072961D01*
X0197737Y0073902D02*
X0202461Y0073902D01*
X0197737Y0073902D01*
X0202461Y0073902D02*
X0204036Y0072721D01*
X0204036Y0063076D01*
X0190257Y0061501D02*
X0183564Y0061501D01*
X0183564Y0073902D01*
X0190257Y0073902D01*
X0174611Y0065469D02*
X0172800Y0065469D01*
X0173720Y0064249D01*
X0172800Y0065469D02*
X0170989Y0065469D01*
X0171940Y0064249D02*
X0172700Y0065409D01*
X0157658Y0067863D02*
X0157658Y0075737D01*
X0157068Y0075737D01*
X0157068Y0067863D02*
X0157658Y0067863D01*
X0140532Y0067863D02*
X0139942Y0067863D01*
X0139942Y0075737D01*
X0140532Y0075737D01*
X0139599Y0059599D02*
X0139599Y0033398D01*
X0138202Y0032001D01*
X0112001Y0032001D01*
X0112001Y0059599D01*
X0079099Y0062257D02*
X0079099Y0055564D01*
X0066698Y0055564D01*
X0066698Y0062257D01*
X0067639Y0068198D02*
X0077863Y0068198D01*
X0078902Y0069737D02*
X0078902Y0074461D01*
X0077524Y0076036D01*
X0067879Y0076036D01*
X0066698Y0074461D01*
X0066698Y0069737D01*
X0066698Y0074461D01*
X0038036Y0058099D02*
X0038036Y0045698D01*
X0031343Y0045698D01*
X0025402Y0046639D02*
X0025402Y0056863D01*
X0023863Y0057902D02*
X0019139Y0057902D01*
X0017564Y0056524D01*
X0017564Y0046879D01*
X0019139Y0045698D01*
X0023863Y0045698D01*
X0019139Y0045698D01*
X0031343Y0058099D02*
X0038036Y0058099D01*
X0139600Y0031300D02*
X0139602Y0031349D01*
X0139608Y0031397D01*
X0139618Y0031445D01*
X0139632Y0031492D01*
X0139649Y0031538D01*
X0139670Y0031582D01*
X0139695Y0031624D01*
X0139723Y0031664D01*
X0139755Y0031702D01*
X0139789Y0031737D01*
X0139826Y0031769D01*
X0139865Y0031798D01*
X0139907Y0031824D01*
X0139951Y0031846D01*
X0139996Y0031864D01*
X0140043Y0031879D01*
X0140090Y0031890D01*
X0140139Y0031897D01*
X0140188Y0031900D01*
X0140237Y0031899D01*
X0140285Y0031894D01*
X0140334Y0031885D01*
X0140381Y0031872D01*
X0140427Y0031855D01*
X0140471Y0031835D01*
X0140514Y0031811D01*
X0140555Y0031784D01*
X0140593Y0031753D01*
X0140629Y0031720D01*
X0140661Y0031684D01*
X0140691Y0031645D01*
X0140718Y0031604D01*
X0140741Y0031560D01*
X0140760Y0031515D01*
X0140776Y0031469D01*
X0140788Y0031422D01*
X0140796Y0031373D01*
X0140800Y0031324D01*
X0140800Y0031276D01*
X0140796Y0031227D01*
X0140788Y0031178D01*
X0140776Y0031131D01*
X0140760Y0031085D01*
X0140741Y0031040D01*
X0140718Y0030996D01*
X0140691Y0030955D01*
X0140661Y0030916D01*
X0140629Y0030880D01*
X0140593Y0030847D01*
X0140555Y0030816D01*
X0140514Y0030789D01*
X0140471Y0030765D01*
X0140427Y0030745D01*
X0140381Y0030728D01*
X0140334Y0030715D01*
X0140285Y0030706D01*
X0140237Y0030701D01*
X0140188Y0030700D01*
X0140139Y0030703D01*
X0140090Y0030710D01*
X0140043Y0030721D01*
X0139996Y0030736D01*
X0139951Y0030754D01*
X0139907Y0030776D01*
X0139865Y0030802D01*
X0139826Y0030831D01*
X0139789Y0030863D01*
X0139755Y0030898D01*
X0139723Y0030936D01*
X0139695Y0030976D01*
X0139670Y0031018D01*
X0139649Y0031062D01*
X0139632Y0031108D01*
X0139618Y0031155D01*
X0139608Y0031203D01*
X0139602Y0031251D01*
X0139600Y0031300D01*
X0200139Y0139698D02*
X0204863Y0139698D01*
X0200139Y0139698D01*
X0198564Y0140879D01*
X0198564Y0150524D01*
X0200139Y0151902D01*
X0204863Y0151902D01*
X0206402Y0150863D02*
X0206402Y0140639D01*
X0212343Y0139698D02*
X0219036Y0139698D01*
X0219036Y0152099D01*
X0212343Y0152099D01*
D16*
X0237125Y0034475D03*
X0251875Y0034475D03*
D17*
X0244500Y0045600D03*
X0244500Y0023300D03*
D18*
X0244089Y0012604D02*
X0245624Y0012604D01*
X0246391Y0011837D01*
X0246391Y0011069D01*
X0245624Y0010302D01*
X0246391Y0009535D01*
X0246391Y0008767D01*
X0245624Y0008000D01*
X0244089Y0008000D01*
X0243322Y0008767D01*
X0241787Y0008767D02*
X0241787Y0008000D01*
X0241020Y0008000D01*
X0241020Y0008767D01*
X0241787Y0008767D01*
X0239485Y0008000D02*
X0236416Y0008000D01*
X0237950Y0008000D02*
X0237950Y0012604D01*
X0236416Y0011069D01*
X0230277Y0011069D02*
X0228742Y0008000D01*
X0227208Y0011069D01*
X0225673Y0010302D02*
X0225673Y0009535D01*
X0222604Y0009535D01*
X0222604Y0010302D02*
X0222604Y0008767D01*
X0223371Y0008000D01*
X0224906Y0008000D01*
X0221069Y0008000D02*
X0219535Y0009535D01*
X0220302Y0009535D02*
X0218000Y0009535D01*
X0218000Y0008000D02*
X0218000Y0012604D01*
X0220302Y0012604D01*
X0221069Y0011837D01*
X0221069Y0010302D01*
X0220302Y0009535D01*
X0222604Y0010302D02*
X0223371Y0011069D01*
X0224906Y0011069D01*
X0225673Y0010302D01*
X0243322Y0011837D02*
X0244089Y0012604D01*
X0244856Y0010302D02*
X0245624Y0010302D01*
X0036277Y0084302D02*
X0033208Y0084302D01*
X0027069Y0084302D02*
X0024000Y0084302D01*
X0025535Y0085837D02*
X0025535Y0082767D01*
D19*
X0019800Y0079800D02*
X0019800Y0079000D01*
X0019800Y0079800D02*
X0035800Y0079800D01*
X0035800Y0079000D01*
X0048698Y0086658D02*
X0048698Y0068942D01*
X0060902Y0068942D01*
X0060902Y0086658D01*
X0048698Y0086658D01*
X0049983Y0071107D02*
X0049985Y0071166D01*
X0049991Y0071224D01*
X0050001Y0071282D01*
X0050014Y0071339D01*
X0050032Y0071396D01*
X0050053Y0071451D01*
X0050078Y0071504D01*
X0050106Y0071555D01*
X0050137Y0071605D01*
X0050172Y0071652D01*
X0050210Y0071697D01*
X0050251Y0071740D01*
X0050295Y0071779D01*
X0050341Y0071815D01*
X0050389Y0071849D01*
X0050440Y0071879D01*
X0050493Y0071905D01*
X0050547Y0071928D01*
X0050602Y0071947D01*
X0050659Y0071963D01*
X0050717Y0071975D01*
X0050775Y0071983D01*
X0050834Y0071987D01*
X0050892Y0071987D01*
X0050951Y0071983D01*
X0051009Y0071975D01*
X0051067Y0071963D01*
X0051124Y0071947D01*
X0051179Y0071928D01*
X0051233Y0071905D01*
X0051286Y0071879D01*
X0051337Y0071849D01*
X0051385Y0071815D01*
X0051431Y0071779D01*
X0051475Y0071740D01*
X0051516Y0071697D01*
X0051554Y0071652D01*
X0051589Y0071605D01*
X0051620Y0071555D01*
X0051648Y0071504D01*
X0051673Y0071451D01*
X0051694Y0071396D01*
X0051712Y0071339D01*
X0051725Y0071282D01*
X0051735Y0071224D01*
X0051741Y0071166D01*
X0051743Y0071107D01*
X0051741Y0071048D01*
X0051735Y0070990D01*
X0051725Y0070932D01*
X0051712Y0070875D01*
X0051694Y0070818D01*
X0051673Y0070763D01*
X0051648Y0070710D01*
X0051620Y0070659D01*
X0051589Y0070609D01*
X0051554Y0070562D01*
X0051516Y0070517D01*
X0051475Y0070474D01*
X0051431Y0070435D01*
X0051385Y0070399D01*
X0051337Y0070365D01*
X0051286Y0070335D01*
X0051233Y0070309D01*
X0051179Y0070286D01*
X0051124Y0070267D01*
X0051067Y0070251D01*
X0051009Y0070239D01*
X0050951Y0070231D01*
X0050892Y0070227D01*
X0050834Y0070227D01*
X0050775Y0070231D01*
X0050717Y0070239D01*
X0050659Y0070251D01*
X0050602Y0070267D01*
X0050547Y0070286D01*
X0050493Y0070309D01*
X0050440Y0070335D01*
X0050389Y0070365D01*
X0050341Y0070399D01*
X0050295Y0070435D01*
X0050251Y0070474D01*
X0050210Y0070517D01*
X0050172Y0070562D01*
X0050137Y0070609D01*
X0050106Y0070659D01*
X0050078Y0070710D01*
X0050053Y0070763D01*
X0050032Y0070818D01*
X0050014Y0070875D01*
X0050001Y0070932D01*
X0049991Y0070990D01*
X0049985Y0071048D01*
X0049983Y0071107D01*
X0035800Y0062600D02*
X0035800Y0061800D01*
X0019800Y0061800D01*
X0019700Y0061800D02*
X0019700Y0062600D01*
X0100020Y0084304D02*
X0177580Y0084304D01*
X0164800Y0088300D02*
X0164802Y0088377D01*
X0164808Y0088454D01*
X0164818Y0088531D01*
X0164832Y0088607D01*
X0164849Y0088682D01*
X0164871Y0088756D01*
X0164896Y0088829D01*
X0164926Y0088901D01*
X0164958Y0088971D01*
X0164995Y0089039D01*
X0165034Y0089105D01*
X0165077Y0089169D01*
X0165124Y0089231D01*
X0165173Y0089290D01*
X0165226Y0089347D01*
X0165281Y0089401D01*
X0165339Y0089452D01*
X0165400Y0089500D01*
X0165463Y0089545D01*
X0165528Y0089586D01*
X0165595Y0089624D01*
X0165664Y0089659D01*
X0165735Y0089689D01*
X0165807Y0089717D01*
X0165881Y0089740D01*
X0165955Y0089760D01*
X0166031Y0089776D01*
X0166107Y0089788D01*
X0166184Y0089796D01*
X0166261Y0089800D01*
X0166339Y0089800D01*
X0166416Y0089796D01*
X0166493Y0089788D01*
X0166569Y0089776D01*
X0166645Y0089760D01*
X0166719Y0089740D01*
X0166793Y0089717D01*
X0166865Y0089689D01*
X0166936Y0089659D01*
X0167005Y0089624D01*
X0167072Y0089586D01*
X0167137Y0089545D01*
X0167200Y0089500D01*
X0167261Y0089452D01*
X0167319Y0089401D01*
X0167374Y0089347D01*
X0167427Y0089290D01*
X0167476Y0089231D01*
X0167523Y0089169D01*
X0167566Y0089105D01*
X0167605Y0089039D01*
X0167642Y0088971D01*
X0167674Y0088901D01*
X0167704Y0088829D01*
X0167729Y0088756D01*
X0167751Y0088682D01*
X0167768Y0088607D01*
X0167782Y0088531D01*
X0167792Y0088454D01*
X0167798Y0088377D01*
X0167800Y0088300D01*
X0167798Y0088223D01*
X0167792Y0088146D01*
X0167782Y0088069D01*
X0167768Y0087993D01*
X0167751Y0087918D01*
X0167729Y0087844D01*
X0167704Y0087771D01*
X0167674Y0087699D01*
X0167642Y0087629D01*
X0167605Y0087561D01*
X0167566Y0087495D01*
X0167523Y0087431D01*
X0167476Y0087369D01*
X0167427Y0087310D01*
X0167374Y0087253D01*
X0167319Y0087199D01*
X0167261Y0087148D01*
X0167200Y0087100D01*
X0167137Y0087055D01*
X0167072Y0087014D01*
X0167005Y0086976D01*
X0166936Y0086941D01*
X0166865Y0086911D01*
X0166793Y0086883D01*
X0166719Y0086860D01*
X0166645Y0086840D01*
X0166569Y0086824D01*
X0166493Y0086812D01*
X0166416Y0086804D01*
X0166339Y0086800D01*
X0166261Y0086800D01*
X0166184Y0086804D01*
X0166107Y0086812D01*
X0166031Y0086824D01*
X0165955Y0086840D01*
X0165881Y0086860D01*
X0165807Y0086883D01*
X0165735Y0086911D01*
X0165664Y0086941D01*
X0165595Y0086976D01*
X0165528Y0087014D01*
X0165463Y0087055D01*
X0165400Y0087100D01*
X0165339Y0087148D01*
X0165281Y0087199D01*
X0165226Y0087253D01*
X0165173Y0087310D01*
X0165124Y0087369D01*
X0165077Y0087431D01*
X0165034Y0087495D01*
X0164995Y0087561D01*
X0164958Y0087629D01*
X0164926Y0087699D01*
X0164896Y0087771D01*
X0164871Y0087844D01*
X0164849Y0087918D01*
X0164832Y0087993D01*
X0164818Y0088069D01*
X0164808Y0088146D01*
X0164802Y0088223D01*
X0164800Y0088300D01*
X0227000Y0117900D02*
X0227000Y0051800D01*
X0257400Y0051800D01*
X0257400Y0117900D01*
X0227000Y0117900D01*
X0234797Y0111947D02*
X0237799Y0111947D01*
X0236298Y0110446D02*
X0236298Y0113449D01*
X0249800Y0089800D02*
X0249800Y0079800D01*
X0254800Y0084800D01*
X0249800Y0089800D01*
X0254800Y0084800D02*
X0234800Y0084800D01*
X0177580Y0147296D02*
X0100020Y0147296D01*
D20*
X0119763Y0119005D02*
X0122966Y0119005D01*
X0124034Y0117938D01*
X0124034Y0115803D01*
X0122966Y0114735D01*
X0119763Y0114735D01*
X0119763Y0112600D02*
X0119763Y0119005D01*
X0121899Y0114735D02*
X0124034Y0112600D01*
X0126209Y0112600D02*
X0126209Y0119005D01*
X0130479Y0119005D01*
X0132654Y0119005D02*
X0134790Y0116870D01*
X0136925Y0119005D01*
X0136925Y0112600D01*
X0139100Y0113668D02*
X0140168Y0112600D01*
X0142303Y0112600D01*
X0143370Y0113668D01*
X0143370Y0114735D01*
X0142303Y0115803D01*
X0139100Y0115803D01*
X0139100Y0113668D01*
X0139100Y0115803D02*
X0141235Y0117938D01*
X0143370Y0119005D01*
X0145545Y0117938D02*
X0145545Y0116870D01*
X0146613Y0115803D01*
X0149816Y0115803D01*
X0149816Y0117938D02*
X0148748Y0119005D01*
X0146613Y0119005D01*
X0145545Y0117938D01*
X0149816Y0117938D02*
X0149816Y0113668D01*
X0148748Y0112600D01*
X0146613Y0112600D01*
X0145545Y0113668D01*
X0151991Y0112600D02*
X0154126Y0114735D01*
X0156261Y0112600D01*
X0156261Y0119005D01*
X0151991Y0119005D02*
X0151991Y0112600D01*
X0132654Y0112600D02*
X0132654Y0119005D01*
X0128344Y0115803D02*
X0126209Y0115803D01*
X0081981Y0100162D02*
X0079619Y0100162D01*
X0079619Y0095438D02*
X0081981Y0095438D01*
X0079300Y0090800D02*
X0068300Y0090800D01*
X0068240Y0090798D01*
X0068179Y0090793D01*
X0068120Y0090784D01*
X0068061Y0090771D01*
X0068002Y0090755D01*
X0067945Y0090735D01*
X0067890Y0090712D01*
X0067835Y0090685D01*
X0067783Y0090656D01*
X0067732Y0090623D01*
X0067683Y0090587D01*
X0067637Y0090549D01*
X0067593Y0090507D01*
X0067551Y0090463D01*
X0067513Y0090417D01*
X0067477Y0090368D01*
X0067444Y0090317D01*
X0067415Y0090265D01*
X0067388Y0090210D01*
X0067365Y0090155D01*
X0067345Y0090098D01*
X0067329Y0090039D01*
X0067316Y0089980D01*
X0067307Y0089921D01*
X0067302Y0089860D01*
X0067300Y0089800D01*
X0067300Y0083800D01*
X0067302Y0083740D01*
X0067307Y0083679D01*
X0067316Y0083620D01*
X0067329Y0083561D01*
X0067345Y0083502D01*
X0067365Y0083445D01*
X0067388Y0083390D01*
X0067415Y0083335D01*
X0067444Y0083283D01*
X0067477Y0083232D01*
X0067513Y0083183D01*
X0067551Y0083137D01*
X0067593Y0083093D01*
X0067637Y0083051D01*
X0067683Y0083013D01*
X0067732Y0082977D01*
X0067783Y0082944D01*
X0067835Y0082915D01*
X0067890Y0082888D01*
X0067945Y0082865D01*
X0068002Y0082845D01*
X0068061Y0082829D01*
X0068120Y0082816D01*
X0068179Y0082807D01*
X0068240Y0082802D01*
X0068300Y0082800D01*
X0079300Y0082800D01*
X0079360Y0082802D01*
X0079421Y0082807D01*
X0079480Y0082816D01*
X0079539Y0082829D01*
X0079598Y0082845D01*
X0079655Y0082865D01*
X0079710Y0082888D01*
X0079765Y0082915D01*
X0079817Y0082944D01*
X0079868Y0082977D01*
X0079917Y0083013D01*
X0079963Y0083051D01*
X0080007Y0083093D01*
X0080049Y0083137D01*
X0080087Y0083183D01*
X0080123Y0083232D01*
X0080156Y0083283D01*
X0080185Y0083335D01*
X0080212Y0083390D01*
X0080235Y0083445D01*
X0080255Y0083502D01*
X0080271Y0083561D01*
X0080284Y0083620D01*
X0080293Y0083679D01*
X0080298Y0083740D01*
X0080300Y0083800D01*
X0080300Y0089800D01*
X0080298Y0089860D01*
X0080293Y0089921D01*
X0080284Y0089980D01*
X0080271Y0090039D01*
X0080255Y0090098D01*
X0080235Y0090155D01*
X0080212Y0090210D01*
X0080185Y0090265D01*
X0080156Y0090317D01*
X0080123Y0090368D01*
X0080087Y0090417D01*
X0080049Y0090463D01*
X0080007Y0090507D01*
X0079963Y0090549D01*
X0079917Y0090587D01*
X0079868Y0090623D01*
X0079817Y0090656D01*
X0079765Y0090685D01*
X0079710Y0090712D01*
X0079655Y0090735D01*
X0079598Y0090755D01*
X0079539Y0090771D01*
X0079480Y0090784D01*
X0079421Y0090793D01*
X0079360Y0090798D01*
X0079300Y0090800D01*
X0083438Y0068981D02*
X0083438Y0066619D01*
X0088162Y0066619D02*
X0088162Y0068981D01*
X0094619Y0059162D02*
X0096981Y0059162D01*
X0096981Y0054438D02*
X0094619Y0054438D01*
X0094619Y0051162D02*
X0096981Y0051162D01*
X0096981Y0046438D02*
X0094619Y0046438D01*
X0112001Y0059599D02*
X0139599Y0059599D01*
X0156619Y0058162D02*
X0158981Y0058162D01*
X0158981Y0053438D02*
X0156619Y0053438D01*
X0156619Y0049162D02*
X0158981Y0049162D01*
X0158981Y0044438D02*
X0156619Y0044438D01*
X0170438Y0050619D02*
X0170438Y0052981D01*
X0175162Y0052981D02*
X0175162Y0050619D01*
X0186300Y0052800D02*
X0186300Y0046800D01*
X0186302Y0046740D01*
X0186307Y0046679D01*
X0186316Y0046620D01*
X0186329Y0046561D01*
X0186345Y0046502D01*
X0186365Y0046445D01*
X0186388Y0046390D01*
X0186415Y0046335D01*
X0186444Y0046283D01*
X0186477Y0046232D01*
X0186513Y0046183D01*
X0186551Y0046137D01*
X0186593Y0046093D01*
X0186637Y0046051D01*
X0186683Y0046013D01*
X0186732Y0045977D01*
X0186783Y0045944D01*
X0186835Y0045915D01*
X0186890Y0045888D01*
X0186945Y0045865D01*
X0187002Y0045845D01*
X0187061Y0045829D01*
X0187120Y0045816D01*
X0187179Y0045807D01*
X0187240Y0045802D01*
X0187300Y0045800D01*
X0204300Y0045800D01*
X0204360Y0045802D01*
X0204421Y0045807D01*
X0204480Y0045816D01*
X0204539Y0045829D01*
X0204598Y0045845D01*
X0204655Y0045865D01*
X0204710Y0045888D01*
X0204765Y0045915D01*
X0204817Y0045944D01*
X0204868Y0045977D01*
X0204917Y0046013D01*
X0204963Y0046051D01*
X0205007Y0046093D01*
X0205049Y0046137D01*
X0205087Y0046183D01*
X0205123Y0046232D01*
X0205156Y0046283D01*
X0205185Y0046335D01*
X0205212Y0046390D01*
X0205235Y0046445D01*
X0205255Y0046502D01*
X0205271Y0046561D01*
X0205284Y0046620D01*
X0205293Y0046679D01*
X0205298Y0046740D01*
X0205300Y0046800D01*
X0205300Y0052800D01*
X0205298Y0052860D01*
X0205293Y0052921D01*
X0205284Y0052980D01*
X0205271Y0053039D01*
X0205255Y0053098D01*
X0205235Y0053155D01*
X0205212Y0053210D01*
X0205185Y0053265D01*
X0205156Y0053317D01*
X0205123Y0053368D01*
X0205087Y0053417D01*
X0205049Y0053463D01*
X0205007Y0053507D01*
X0204963Y0053549D01*
X0204917Y0053587D01*
X0204868Y0053623D01*
X0204817Y0053656D01*
X0204765Y0053685D01*
X0204710Y0053712D01*
X0204655Y0053735D01*
X0204598Y0053755D01*
X0204539Y0053771D01*
X0204480Y0053784D01*
X0204421Y0053793D01*
X0204360Y0053798D01*
X0204300Y0053800D01*
X0187300Y0053800D01*
X0187240Y0053798D01*
X0187179Y0053793D01*
X0187120Y0053784D01*
X0187061Y0053771D01*
X0187002Y0053755D01*
X0186945Y0053735D01*
X0186890Y0053712D01*
X0186835Y0053685D01*
X0186783Y0053656D01*
X0186732Y0053623D01*
X0186683Y0053587D01*
X0186637Y0053549D01*
X0186593Y0053507D01*
X0186551Y0053463D01*
X0186513Y0053417D01*
X0186477Y0053368D01*
X0186444Y0053317D01*
X0186415Y0053265D01*
X0186388Y0053210D01*
X0186365Y0053155D01*
X0186345Y0053098D01*
X0186329Y0053039D01*
X0186316Y0052980D01*
X0186307Y0052921D01*
X0186302Y0052860D01*
X0186300Y0052800D01*
X0210438Y0065619D02*
X0210438Y0067981D01*
X0215162Y0067981D02*
X0215162Y0065619D01*
X0201981Y0079438D02*
X0199619Y0079438D01*
X0199619Y0084162D02*
X0201981Y0084162D01*
X0210438Y0091619D02*
X0210438Y0093981D01*
X0215162Y0093981D02*
X0215162Y0091619D01*
X0201981Y0092438D02*
X0199619Y0092438D01*
X0199619Y0097162D02*
X0201981Y0097162D01*
X0208619Y0131438D02*
X0210981Y0131438D01*
X0210981Y0136162D02*
X0208619Y0136162D01*
X0057162Y0057981D02*
X0057162Y0055619D01*
X0052438Y0055619D02*
X0052438Y0057981D01*
X0067300Y0031800D02*
X0064800Y0029300D01*
X0064800Y0024300D01*
X0067300Y0021800D01*
X0072300Y0021800D01*
X0074800Y0024300D01*
X0077300Y0021800D01*
X0082300Y0021800D01*
X0084800Y0024300D01*
X0084800Y0029300D01*
X0082300Y0031800D01*
X0077300Y0031800D01*
X0074800Y0029300D01*
X0074800Y0024300D01*
X0072300Y0020800D02*
X0074800Y0018300D01*
X0077300Y0020800D01*
X0082300Y0020800D01*
X0084800Y0018300D01*
X0084800Y0013300D01*
X0082300Y0010800D01*
X0077300Y0010800D01*
X0074800Y0013300D01*
X0072300Y0010800D01*
X0067300Y0010800D01*
X0064800Y0013300D01*
X0064800Y0018300D01*
X0067300Y0020800D01*
X0072300Y0020800D01*
X0074800Y0018300D02*
X0074800Y0013300D01*
X0084800Y0013300D02*
X0087300Y0010800D01*
X0092300Y0010800D01*
X0094800Y0013300D01*
X0097300Y0010800D01*
X0102300Y0010800D01*
X0104800Y0013300D01*
X0104800Y0018300D01*
X0102300Y0020800D01*
X0097300Y0020800D01*
X0094800Y0018300D01*
X0094800Y0013300D01*
X0094800Y0018300D02*
X0092300Y0020800D01*
X0087300Y0020800D01*
X0084800Y0018300D01*
X0087300Y0021800D02*
X0084800Y0024300D01*
X0087300Y0021800D02*
X0092300Y0021800D01*
X0094800Y0024300D01*
X0097300Y0021800D01*
X0102300Y0021800D01*
X0104800Y0024300D01*
X0104800Y0029300D01*
X0102300Y0031800D01*
X0097300Y0031800D01*
X0094800Y0029300D01*
X0094800Y0024300D01*
X0094800Y0029300D02*
X0092300Y0031800D01*
X0087300Y0031800D01*
X0084800Y0029300D01*
X0074800Y0029300D02*
X0072300Y0031800D01*
X0067300Y0031800D01*
X0124438Y0016981D02*
X0124438Y0014619D01*
X0129162Y0014619D02*
X0129162Y0016981D01*
X0147800Y0018300D02*
X0147800Y0013300D01*
X0150300Y0010800D01*
X0155300Y0010800D01*
X0157800Y0013300D01*
X0160300Y0010800D01*
X0165300Y0010800D01*
X0167800Y0013300D01*
X0167800Y0018300D01*
X0165300Y0020800D01*
X0160300Y0020800D01*
X0157800Y0018300D01*
X0157800Y0013300D01*
X0157800Y0018300D02*
X0155300Y0020800D01*
X0150300Y0020800D01*
X0147800Y0018300D01*
X0150300Y0021800D02*
X0155300Y0021800D01*
X0157800Y0024300D01*
X0160300Y0021800D01*
X0165300Y0021800D01*
X0167800Y0024300D01*
X0167800Y0029300D01*
X0165300Y0031800D01*
X0160300Y0031800D01*
X0157800Y0029300D01*
X0157800Y0024300D01*
X0157800Y0029300D02*
X0155300Y0031800D01*
X0150300Y0031800D01*
X0147800Y0029300D01*
X0147800Y0024300D01*
X0150300Y0021800D01*
X0167800Y0024300D02*
X0170300Y0021800D01*
X0175300Y0021800D01*
X0177800Y0024300D01*
X0180300Y0021800D01*
X0185300Y0021800D01*
X0187800Y0024300D01*
X0187800Y0029300D01*
X0185300Y0031800D01*
X0180300Y0031800D01*
X0177800Y0029300D01*
X0177800Y0024300D01*
X0175300Y0020800D02*
X0170300Y0020800D01*
X0167800Y0018300D01*
X0167800Y0013300D02*
X0170300Y0010800D01*
X0175300Y0010800D01*
X0177800Y0013300D01*
X0180300Y0010800D01*
X0185300Y0010800D01*
X0187800Y0013300D01*
X0187800Y0018300D01*
X0185300Y0020800D01*
X0180300Y0020800D01*
X0177800Y0018300D01*
X0177800Y0013300D01*
X0177800Y0018300D02*
X0175300Y0020800D01*
X0177800Y0029300D02*
X0175300Y0031800D01*
X0170300Y0031800D01*
X0167800Y0029300D01*
X0038800Y0088300D02*
X0036300Y0085800D01*
X0031300Y0085800D01*
X0028800Y0088300D01*
X0026300Y0085800D01*
X0021300Y0085800D01*
X0018800Y0088300D01*
X0018800Y0093300D01*
X0021300Y0095800D01*
X0026300Y0095800D01*
X0028800Y0093300D01*
X0031300Y0095800D01*
X0036300Y0095800D01*
X0038800Y0093300D01*
X0038800Y0088300D01*
X0028800Y0088300D02*
X0028800Y0093300D01*
D21*
X0050961Y0088627D03*
X0053520Y0088627D03*
X0056080Y0088627D03*
X0058639Y0088627D03*
X0058639Y0066973D03*
X0056080Y0066973D03*
X0053520Y0066973D03*
X0050961Y0066973D03*
M02*
