%
M48
M72
T01C0.02362
T02C0.04000
T03C0.06700
T04C0.07874
%
T01
X73800Y59800
X86800Y60800
X90800Y57800
X80800Y45800
X86800Y41800
X100800Y37800
X113800Y36800
X113800Y46800
X134800Y36800
X102800Y16800
X159800Y73800
X125800Y110800
X114300Y112300
X93800Y109800
X89800Y117800
X85800Y125800
X77800Y125800
X77800Y117800
X77800Y109800
X86800Y76800
X91800Y74800
X97800Y74800
X102800Y74800
X107800Y75800
T02
X113800Y26800
X123800Y26800
X133800Y26800
X143800Y26800
X143800Y13800
X133800Y13800
X123800Y13800
X113800Y13800
X91800Y13800
X81800Y13800
X71800Y13800
X61800Y13800
X61800Y26800
X71800Y26800
X81800Y26800
X91800Y26800
X22800Y82800
X12800Y82800
X13800Y97800
X13800Y107800
X23800Y107800
X23800Y97800
X33800Y97800
X33800Y107800
X185800Y107997
X185800Y57603
T03
X187800Y29800
X157800Y29800
X47800Y29800
X17800Y29800
X17800Y135800
X47800Y135800
X157800Y135800
X187800Y135800
T04
X7800Y7800
X7800Y160800
X193800Y160800
X193800Y7800
M30
