G75*
%MOIN*%
%OFA0B0*%
%FSLAX25Y25*%
%IPPOS*%
%LPD*%
%AMOC8*
5,1,8,0,0,1.08239X$1,22.5*
%
%ADD10C,0.00000*%
%ADD11C,0.01200*%
%ADD12R,0.15748X0.05512*%
%ADD13R,0.04724X0.09843*%
%ADD14R,0.09843X0.04724*%
%ADD15R,0.07874X0.15748*%
%ADD16R,0.01575X0.03543*%
%ADD17R,0.03150X0.04724*%
%ADD18R,0.04724X0.03150*%
%ADD19OC8,0.06000*%
%ADD20R,0.04600X0.06300*%
%ADD21OC8,0.10050*%
%ADD22R,0.01575X0.06299*%
%ADD23R,0.03150X0.01969*%
%ADD24OC8,0.06600*%
%ADD25C,0.02362*%
%ADD26OC8,0.07000*%
%ADD27C,0.01181*%
%ADD28R,0.06300X0.04600*%
%ADD29R,0.05000X0.02200*%
%ADD30R,0.02200X0.05000*%
%ADD31C,0.01600*%
%ADD32C,0.02400*%
%ADD33OC8,0.03562*%
%ADD34C,0.01000*%
%ADD35C,0.01800*%
D10*
X0003863Y0007800D02*
X0003865Y0007925D01*
X0003871Y0008050D01*
X0003881Y0008174D01*
X0003895Y0008298D01*
X0003912Y0008422D01*
X0003934Y0008545D01*
X0003960Y0008667D01*
X0003989Y0008789D01*
X0004022Y0008909D01*
X0004060Y0009028D01*
X0004100Y0009147D01*
X0004145Y0009263D01*
X0004193Y0009378D01*
X0004245Y0009492D01*
X0004301Y0009604D01*
X0004360Y0009714D01*
X0004422Y0009822D01*
X0004488Y0009929D01*
X0004557Y0010033D01*
X0004630Y0010134D01*
X0004705Y0010234D01*
X0004784Y0010331D01*
X0004866Y0010425D01*
X0004951Y0010517D01*
X0005038Y0010606D01*
X0005129Y0010692D01*
X0005222Y0010775D01*
X0005318Y0010856D01*
X0005416Y0010933D01*
X0005516Y0011007D01*
X0005619Y0011078D01*
X0005724Y0011145D01*
X0005832Y0011210D01*
X0005941Y0011270D01*
X0006052Y0011328D01*
X0006165Y0011381D01*
X0006279Y0011431D01*
X0006395Y0011478D01*
X0006512Y0011520D01*
X0006631Y0011559D01*
X0006751Y0011595D01*
X0006872Y0011626D01*
X0006994Y0011654D01*
X0007116Y0011677D01*
X0007240Y0011697D01*
X0007364Y0011713D01*
X0007488Y0011725D01*
X0007613Y0011733D01*
X0007738Y0011737D01*
X0007862Y0011737D01*
X0007987Y0011733D01*
X0008112Y0011725D01*
X0008236Y0011713D01*
X0008360Y0011697D01*
X0008484Y0011677D01*
X0008606Y0011654D01*
X0008728Y0011626D01*
X0008849Y0011595D01*
X0008969Y0011559D01*
X0009088Y0011520D01*
X0009205Y0011478D01*
X0009321Y0011431D01*
X0009435Y0011381D01*
X0009548Y0011328D01*
X0009659Y0011270D01*
X0009769Y0011210D01*
X0009876Y0011145D01*
X0009981Y0011078D01*
X0010084Y0011007D01*
X0010184Y0010933D01*
X0010282Y0010856D01*
X0010378Y0010775D01*
X0010471Y0010692D01*
X0010562Y0010606D01*
X0010649Y0010517D01*
X0010734Y0010425D01*
X0010816Y0010331D01*
X0010895Y0010234D01*
X0010970Y0010134D01*
X0011043Y0010033D01*
X0011112Y0009929D01*
X0011178Y0009822D01*
X0011240Y0009714D01*
X0011299Y0009604D01*
X0011355Y0009492D01*
X0011407Y0009378D01*
X0011455Y0009263D01*
X0011500Y0009147D01*
X0011540Y0009028D01*
X0011578Y0008909D01*
X0011611Y0008789D01*
X0011640Y0008667D01*
X0011666Y0008545D01*
X0011688Y0008422D01*
X0011705Y0008298D01*
X0011719Y0008174D01*
X0011729Y0008050D01*
X0011735Y0007925D01*
X0011737Y0007800D01*
X0011735Y0007675D01*
X0011729Y0007550D01*
X0011719Y0007426D01*
X0011705Y0007302D01*
X0011688Y0007178D01*
X0011666Y0007055D01*
X0011640Y0006933D01*
X0011611Y0006811D01*
X0011578Y0006691D01*
X0011540Y0006572D01*
X0011500Y0006453D01*
X0011455Y0006337D01*
X0011407Y0006222D01*
X0011355Y0006108D01*
X0011299Y0005996D01*
X0011240Y0005886D01*
X0011178Y0005778D01*
X0011112Y0005671D01*
X0011043Y0005567D01*
X0010970Y0005466D01*
X0010895Y0005366D01*
X0010816Y0005269D01*
X0010734Y0005175D01*
X0010649Y0005083D01*
X0010562Y0004994D01*
X0010471Y0004908D01*
X0010378Y0004825D01*
X0010282Y0004744D01*
X0010184Y0004667D01*
X0010084Y0004593D01*
X0009981Y0004522D01*
X0009876Y0004455D01*
X0009768Y0004390D01*
X0009659Y0004330D01*
X0009548Y0004272D01*
X0009435Y0004219D01*
X0009321Y0004169D01*
X0009205Y0004122D01*
X0009088Y0004080D01*
X0008969Y0004041D01*
X0008849Y0004005D01*
X0008728Y0003974D01*
X0008606Y0003946D01*
X0008484Y0003923D01*
X0008360Y0003903D01*
X0008236Y0003887D01*
X0008112Y0003875D01*
X0007987Y0003867D01*
X0007862Y0003863D01*
X0007738Y0003863D01*
X0007613Y0003867D01*
X0007488Y0003875D01*
X0007364Y0003887D01*
X0007240Y0003903D01*
X0007116Y0003923D01*
X0006994Y0003946D01*
X0006872Y0003974D01*
X0006751Y0004005D01*
X0006631Y0004041D01*
X0006512Y0004080D01*
X0006395Y0004122D01*
X0006279Y0004169D01*
X0006165Y0004219D01*
X0006052Y0004272D01*
X0005941Y0004330D01*
X0005831Y0004390D01*
X0005724Y0004455D01*
X0005619Y0004522D01*
X0005516Y0004593D01*
X0005416Y0004667D01*
X0005318Y0004744D01*
X0005222Y0004825D01*
X0005129Y0004908D01*
X0005038Y0004994D01*
X0004951Y0005083D01*
X0004866Y0005175D01*
X0004784Y0005269D01*
X0004705Y0005366D01*
X0004630Y0005466D01*
X0004557Y0005567D01*
X0004488Y0005671D01*
X0004422Y0005778D01*
X0004360Y0005886D01*
X0004301Y0005996D01*
X0004245Y0006108D01*
X0004193Y0006222D01*
X0004145Y0006337D01*
X0004100Y0006453D01*
X0004060Y0006572D01*
X0004022Y0006691D01*
X0003989Y0006811D01*
X0003960Y0006933D01*
X0003934Y0007055D01*
X0003912Y0007178D01*
X0003895Y0007302D01*
X0003881Y0007426D01*
X0003871Y0007550D01*
X0003865Y0007675D01*
X0003863Y0007800D01*
X0003863Y0160800D02*
X0003865Y0160925D01*
X0003871Y0161050D01*
X0003881Y0161174D01*
X0003895Y0161298D01*
X0003912Y0161422D01*
X0003934Y0161545D01*
X0003960Y0161667D01*
X0003989Y0161789D01*
X0004022Y0161909D01*
X0004060Y0162028D01*
X0004100Y0162147D01*
X0004145Y0162263D01*
X0004193Y0162378D01*
X0004245Y0162492D01*
X0004301Y0162604D01*
X0004360Y0162714D01*
X0004422Y0162822D01*
X0004488Y0162929D01*
X0004557Y0163033D01*
X0004630Y0163134D01*
X0004705Y0163234D01*
X0004784Y0163331D01*
X0004866Y0163425D01*
X0004951Y0163517D01*
X0005038Y0163606D01*
X0005129Y0163692D01*
X0005222Y0163775D01*
X0005318Y0163856D01*
X0005416Y0163933D01*
X0005516Y0164007D01*
X0005619Y0164078D01*
X0005724Y0164145D01*
X0005832Y0164210D01*
X0005941Y0164270D01*
X0006052Y0164328D01*
X0006165Y0164381D01*
X0006279Y0164431D01*
X0006395Y0164478D01*
X0006512Y0164520D01*
X0006631Y0164559D01*
X0006751Y0164595D01*
X0006872Y0164626D01*
X0006994Y0164654D01*
X0007116Y0164677D01*
X0007240Y0164697D01*
X0007364Y0164713D01*
X0007488Y0164725D01*
X0007613Y0164733D01*
X0007738Y0164737D01*
X0007862Y0164737D01*
X0007987Y0164733D01*
X0008112Y0164725D01*
X0008236Y0164713D01*
X0008360Y0164697D01*
X0008484Y0164677D01*
X0008606Y0164654D01*
X0008728Y0164626D01*
X0008849Y0164595D01*
X0008969Y0164559D01*
X0009088Y0164520D01*
X0009205Y0164478D01*
X0009321Y0164431D01*
X0009435Y0164381D01*
X0009548Y0164328D01*
X0009659Y0164270D01*
X0009769Y0164210D01*
X0009876Y0164145D01*
X0009981Y0164078D01*
X0010084Y0164007D01*
X0010184Y0163933D01*
X0010282Y0163856D01*
X0010378Y0163775D01*
X0010471Y0163692D01*
X0010562Y0163606D01*
X0010649Y0163517D01*
X0010734Y0163425D01*
X0010816Y0163331D01*
X0010895Y0163234D01*
X0010970Y0163134D01*
X0011043Y0163033D01*
X0011112Y0162929D01*
X0011178Y0162822D01*
X0011240Y0162714D01*
X0011299Y0162604D01*
X0011355Y0162492D01*
X0011407Y0162378D01*
X0011455Y0162263D01*
X0011500Y0162147D01*
X0011540Y0162028D01*
X0011578Y0161909D01*
X0011611Y0161789D01*
X0011640Y0161667D01*
X0011666Y0161545D01*
X0011688Y0161422D01*
X0011705Y0161298D01*
X0011719Y0161174D01*
X0011729Y0161050D01*
X0011735Y0160925D01*
X0011737Y0160800D01*
X0011735Y0160675D01*
X0011729Y0160550D01*
X0011719Y0160426D01*
X0011705Y0160302D01*
X0011688Y0160178D01*
X0011666Y0160055D01*
X0011640Y0159933D01*
X0011611Y0159811D01*
X0011578Y0159691D01*
X0011540Y0159572D01*
X0011500Y0159453D01*
X0011455Y0159337D01*
X0011407Y0159222D01*
X0011355Y0159108D01*
X0011299Y0158996D01*
X0011240Y0158886D01*
X0011178Y0158778D01*
X0011112Y0158671D01*
X0011043Y0158567D01*
X0010970Y0158466D01*
X0010895Y0158366D01*
X0010816Y0158269D01*
X0010734Y0158175D01*
X0010649Y0158083D01*
X0010562Y0157994D01*
X0010471Y0157908D01*
X0010378Y0157825D01*
X0010282Y0157744D01*
X0010184Y0157667D01*
X0010084Y0157593D01*
X0009981Y0157522D01*
X0009876Y0157455D01*
X0009768Y0157390D01*
X0009659Y0157330D01*
X0009548Y0157272D01*
X0009435Y0157219D01*
X0009321Y0157169D01*
X0009205Y0157122D01*
X0009088Y0157080D01*
X0008969Y0157041D01*
X0008849Y0157005D01*
X0008728Y0156974D01*
X0008606Y0156946D01*
X0008484Y0156923D01*
X0008360Y0156903D01*
X0008236Y0156887D01*
X0008112Y0156875D01*
X0007987Y0156867D01*
X0007862Y0156863D01*
X0007738Y0156863D01*
X0007613Y0156867D01*
X0007488Y0156875D01*
X0007364Y0156887D01*
X0007240Y0156903D01*
X0007116Y0156923D01*
X0006994Y0156946D01*
X0006872Y0156974D01*
X0006751Y0157005D01*
X0006631Y0157041D01*
X0006512Y0157080D01*
X0006395Y0157122D01*
X0006279Y0157169D01*
X0006165Y0157219D01*
X0006052Y0157272D01*
X0005941Y0157330D01*
X0005831Y0157390D01*
X0005724Y0157455D01*
X0005619Y0157522D01*
X0005516Y0157593D01*
X0005416Y0157667D01*
X0005318Y0157744D01*
X0005222Y0157825D01*
X0005129Y0157908D01*
X0005038Y0157994D01*
X0004951Y0158083D01*
X0004866Y0158175D01*
X0004784Y0158269D01*
X0004705Y0158366D01*
X0004630Y0158466D01*
X0004557Y0158567D01*
X0004488Y0158671D01*
X0004422Y0158778D01*
X0004360Y0158886D01*
X0004301Y0158996D01*
X0004245Y0159108D01*
X0004193Y0159222D01*
X0004145Y0159337D01*
X0004100Y0159453D01*
X0004060Y0159572D01*
X0004022Y0159691D01*
X0003989Y0159811D01*
X0003960Y0159933D01*
X0003934Y0160055D01*
X0003912Y0160178D01*
X0003895Y0160302D01*
X0003881Y0160426D01*
X0003871Y0160550D01*
X0003865Y0160675D01*
X0003863Y0160800D01*
X0189863Y0160800D02*
X0189865Y0160925D01*
X0189871Y0161050D01*
X0189881Y0161174D01*
X0189895Y0161298D01*
X0189912Y0161422D01*
X0189934Y0161545D01*
X0189960Y0161667D01*
X0189989Y0161789D01*
X0190022Y0161909D01*
X0190060Y0162028D01*
X0190100Y0162147D01*
X0190145Y0162263D01*
X0190193Y0162378D01*
X0190245Y0162492D01*
X0190301Y0162604D01*
X0190360Y0162714D01*
X0190422Y0162822D01*
X0190488Y0162929D01*
X0190557Y0163033D01*
X0190630Y0163134D01*
X0190705Y0163234D01*
X0190784Y0163331D01*
X0190866Y0163425D01*
X0190951Y0163517D01*
X0191038Y0163606D01*
X0191129Y0163692D01*
X0191222Y0163775D01*
X0191318Y0163856D01*
X0191416Y0163933D01*
X0191516Y0164007D01*
X0191619Y0164078D01*
X0191724Y0164145D01*
X0191832Y0164210D01*
X0191941Y0164270D01*
X0192052Y0164328D01*
X0192165Y0164381D01*
X0192279Y0164431D01*
X0192395Y0164478D01*
X0192512Y0164520D01*
X0192631Y0164559D01*
X0192751Y0164595D01*
X0192872Y0164626D01*
X0192994Y0164654D01*
X0193116Y0164677D01*
X0193240Y0164697D01*
X0193364Y0164713D01*
X0193488Y0164725D01*
X0193613Y0164733D01*
X0193738Y0164737D01*
X0193862Y0164737D01*
X0193987Y0164733D01*
X0194112Y0164725D01*
X0194236Y0164713D01*
X0194360Y0164697D01*
X0194484Y0164677D01*
X0194606Y0164654D01*
X0194728Y0164626D01*
X0194849Y0164595D01*
X0194969Y0164559D01*
X0195088Y0164520D01*
X0195205Y0164478D01*
X0195321Y0164431D01*
X0195435Y0164381D01*
X0195548Y0164328D01*
X0195659Y0164270D01*
X0195769Y0164210D01*
X0195876Y0164145D01*
X0195981Y0164078D01*
X0196084Y0164007D01*
X0196184Y0163933D01*
X0196282Y0163856D01*
X0196378Y0163775D01*
X0196471Y0163692D01*
X0196562Y0163606D01*
X0196649Y0163517D01*
X0196734Y0163425D01*
X0196816Y0163331D01*
X0196895Y0163234D01*
X0196970Y0163134D01*
X0197043Y0163033D01*
X0197112Y0162929D01*
X0197178Y0162822D01*
X0197240Y0162714D01*
X0197299Y0162604D01*
X0197355Y0162492D01*
X0197407Y0162378D01*
X0197455Y0162263D01*
X0197500Y0162147D01*
X0197540Y0162028D01*
X0197578Y0161909D01*
X0197611Y0161789D01*
X0197640Y0161667D01*
X0197666Y0161545D01*
X0197688Y0161422D01*
X0197705Y0161298D01*
X0197719Y0161174D01*
X0197729Y0161050D01*
X0197735Y0160925D01*
X0197737Y0160800D01*
X0197735Y0160675D01*
X0197729Y0160550D01*
X0197719Y0160426D01*
X0197705Y0160302D01*
X0197688Y0160178D01*
X0197666Y0160055D01*
X0197640Y0159933D01*
X0197611Y0159811D01*
X0197578Y0159691D01*
X0197540Y0159572D01*
X0197500Y0159453D01*
X0197455Y0159337D01*
X0197407Y0159222D01*
X0197355Y0159108D01*
X0197299Y0158996D01*
X0197240Y0158886D01*
X0197178Y0158778D01*
X0197112Y0158671D01*
X0197043Y0158567D01*
X0196970Y0158466D01*
X0196895Y0158366D01*
X0196816Y0158269D01*
X0196734Y0158175D01*
X0196649Y0158083D01*
X0196562Y0157994D01*
X0196471Y0157908D01*
X0196378Y0157825D01*
X0196282Y0157744D01*
X0196184Y0157667D01*
X0196084Y0157593D01*
X0195981Y0157522D01*
X0195876Y0157455D01*
X0195768Y0157390D01*
X0195659Y0157330D01*
X0195548Y0157272D01*
X0195435Y0157219D01*
X0195321Y0157169D01*
X0195205Y0157122D01*
X0195088Y0157080D01*
X0194969Y0157041D01*
X0194849Y0157005D01*
X0194728Y0156974D01*
X0194606Y0156946D01*
X0194484Y0156923D01*
X0194360Y0156903D01*
X0194236Y0156887D01*
X0194112Y0156875D01*
X0193987Y0156867D01*
X0193862Y0156863D01*
X0193738Y0156863D01*
X0193613Y0156867D01*
X0193488Y0156875D01*
X0193364Y0156887D01*
X0193240Y0156903D01*
X0193116Y0156923D01*
X0192994Y0156946D01*
X0192872Y0156974D01*
X0192751Y0157005D01*
X0192631Y0157041D01*
X0192512Y0157080D01*
X0192395Y0157122D01*
X0192279Y0157169D01*
X0192165Y0157219D01*
X0192052Y0157272D01*
X0191941Y0157330D01*
X0191831Y0157390D01*
X0191724Y0157455D01*
X0191619Y0157522D01*
X0191516Y0157593D01*
X0191416Y0157667D01*
X0191318Y0157744D01*
X0191222Y0157825D01*
X0191129Y0157908D01*
X0191038Y0157994D01*
X0190951Y0158083D01*
X0190866Y0158175D01*
X0190784Y0158269D01*
X0190705Y0158366D01*
X0190630Y0158466D01*
X0190557Y0158567D01*
X0190488Y0158671D01*
X0190422Y0158778D01*
X0190360Y0158886D01*
X0190301Y0158996D01*
X0190245Y0159108D01*
X0190193Y0159222D01*
X0190145Y0159337D01*
X0190100Y0159453D01*
X0190060Y0159572D01*
X0190022Y0159691D01*
X0189989Y0159811D01*
X0189960Y0159933D01*
X0189934Y0160055D01*
X0189912Y0160178D01*
X0189895Y0160302D01*
X0189881Y0160426D01*
X0189871Y0160550D01*
X0189865Y0160675D01*
X0189863Y0160800D01*
X0189863Y0007800D02*
X0189865Y0007925D01*
X0189871Y0008050D01*
X0189881Y0008174D01*
X0189895Y0008298D01*
X0189912Y0008422D01*
X0189934Y0008545D01*
X0189960Y0008667D01*
X0189989Y0008789D01*
X0190022Y0008909D01*
X0190060Y0009028D01*
X0190100Y0009147D01*
X0190145Y0009263D01*
X0190193Y0009378D01*
X0190245Y0009492D01*
X0190301Y0009604D01*
X0190360Y0009714D01*
X0190422Y0009822D01*
X0190488Y0009929D01*
X0190557Y0010033D01*
X0190630Y0010134D01*
X0190705Y0010234D01*
X0190784Y0010331D01*
X0190866Y0010425D01*
X0190951Y0010517D01*
X0191038Y0010606D01*
X0191129Y0010692D01*
X0191222Y0010775D01*
X0191318Y0010856D01*
X0191416Y0010933D01*
X0191516Y0011007D01*
X0191619Y0011078D01*
X0191724Y0011145D01*
X0191832Y0011210D01*
X0191941Y0011270D01*
X0192052Y0011328D01*
X0192165Y0011381D01*
X0192279Y0011431D01*
X0192395Y0011478D01*
X0192512Y0011520D01*
X0192631Y0011559D01*
X0192751Y0011595D01*
X0192872Y0011626D01*
X0192994Y0011654D01*
X0193116Y0011677D01*
X0193240Y0011697D01*
X0193364Y0011713D01*
X0193488Y0011725D01*
X0193613Y0011733D01*
X0193738Y0011737D01*
X0193862Y0011737D01*
X0193987Y0011733D01*
X0194112Y0011725D01*
X0194236Y0011713D01*
X0194360Y0011697D01*
X0194484Y0011677D01*
X0194606Y0011654D01*
X0194728Y0011626D01*
X0194849Y0011595D01*
X0194969Y0011559D01*
X0195088Y0011520D01*
X0195205Y0011478D01*
X0195321Y0011431D01*
X0195435Y0011381D01*
X0195548Y0011328D01*
X0195659Y0011270D01*
X0195769Y0011210D01*
X0195876Y0011145D01*
X0195981Y0011078D01*
X0196084Y0011007D01*
X0196184Y0010933D01*
X0196282Y0010856D01*
X0196378Y0010775D01*
X0196471Y0010692D01*
X0196562Y0010606D01*
X0196649Y0010517D01*
X0196734Y0010425D01*
X0196816Y0010331D01*
X0196895Y0010234D01*
X0196970Y0010134D01*
X0197043Y0010033D01*
X0197112Y0009929D01*
X0197178Y0009822D01*
X0197240Y0009714D01*
X0197299Y0009604D01*
X0197355Y0009492D01*
X0197407Y0009378D01*
X0197455Y0009263D01*
X0197500Y0009147D01*
X0197540Y0009028D01*
X0197578Y0008909D01*
X0197611Y0008789D01*
X0197640Y0008667D01*
X0197666Y0008545D01*
X0197688Y0008422D01*
X0197705Y0008298D01*
X0197719Y0008174D01*
X0197729Y0008050D01*
X0197735Y0007925D01*
X0197737Y0007800D01*
X0197735Y0007675D01*
X0197729Y0007550D01*
X0197719Y0007426D01*
X0197705Y0007302D01*
X0197688Y0007178D01*
X0197666Y0007055D01*
X0197640Y0006933D01*
X0197611Y0006811D01*
X0197578Y0006691D01*
X0197540Y0006572D01*
X0197500Y0006453D01*
X0197455Y0006337D01*
X0197407Y0006222D01*
X0197355Y0006108D01*
X0197299Y0005996D01*
X0197240Y0005886D01*
X0197178Y0005778D01*
X0197112Y0005671D01*
X0197043Y0005567D01*
X0196970Y0005466D01*
X0196895Y0005366D01*
X0196816Y0005269D01*
X0196734Y0005175D01*
X0196649Y0005083D01*
X0196562Y0004994D01*
X0196471Y0004908D01*
X0196378Y0004825D01*
X0196282Y0004744D01*
X0196184Y0004667D01*
X0196084Y0004593D01*
X0195981Y0004522D01*
X0195876Y0004455D01*
X0195768Y0004390D01*
X0195659Y0004330D01*
X0195548Y0004272D01*
X0195435Y0004219D01*
X0195321Y0004169D01*
X0195205Y0004122D01*
X0195088Y0004080D01*
X0194969Y0004041D01*
X0194849Y0004005D01*
X0194728Y0003974D01*
X0194606Y0003946D01*
X0194484Y0003923D01*
X0194360Y0003903D01*
X0194236Y0003887D01*
X0194112Y0003875D01*
X0193987Y0003867D01*
X0193862Y0003863D01*
X0193738Y0003863D01*
X0193613Y0003867D01*
X0193488Y0003875D01*
X0193364Y0003887D01*
X0193240Y0003903D01*
X0193116Y0003923D01*
X0192994Y0003946D01*
X0192872Y0003974D01*
X0192751Y0004005D01*
X0192631Y0004041D01*
X0192512Y0004080D01*
X0192395Y0004122D01*
X0192279Y0004169D01*
X0192165Y0004219D01*
X0192052Y0004272D01*
X0191941Y0004330D01*
X0191831Y0004390D01*
X0191724Y0004455D01*
X0191619Y0004522D01*
X0191516Y0004593D01*
X0191416Y0004667D01*
X0191318Y0004744D01*
X0191222Y0004825D01*
X0191129Y0004908D01*
X0191038Y0004994D01*
X0190951Y0005083D01*
X0190866Y0005175D01*
X0190784Y0005269D01*
X0190705Y0005366D01*
X0190630Y0005466D01*
X0190557Y0005567D01*
X0190488Y0005671D01*
X0190422Y0005778D01*
X0190360Y0005886D01*
X0190301Y0005996D01*
X0190245Y0006108D01*
X0190193Y0006222D01*
X0190145Y0006337D01*
X0190100Y0006453D01*
X0190060Y0006572D01*
X0190022Y0006691D01*
X0189989Y0006811D01*
X0189960Y0006933D01*
X0189934Y0007055D01*
X0189912Y0007178D01*
X0189895Y0007302D01*
X0189881Y0007426D01*
X0189871Y0007550D01*
X0189865Y0007675D01*
X0189863Y0007800D01*
D11*
X0001800Y0001800D02*
X0001800Y0166800D01*
X0199800Y0166800D01*
X0199800Y0001800D01*
X0001800Y0001800D01*
X0034257Y0042343D02*
X0034257Y0043800D01*
X0034961Y0052383D02*
X0034800Y0052544D01*
X0041800Y0057296D02*
X0042800Y0058296D01*
X0042639Y0075217D02*
X0042800Y0075379D01*
X0050800Y0098257D02*
X0049800Y0099257D01*
X0064020Y0110115D02*
X0064335Y0109800D01*
X0064209Y0117800D02*
X0064020Y0117989D01*
X0064020Y0125863D02*
X0065083Y0125800D01*
X0064020Y0133737D02*
X0066083Y0133800D01*
X0064020Y0141611D02*
X0064831Y0142800D01*
X0064020Y0141611D02*
X0059831Y0142800D01*
X0032800Y0154800D02*
X0031800Y0155800D01*
X0012800Y0082800D02*
X0011800Y0082800D01*
X0063847Y0044304D02*
X0065800Y0044257D01*
X0079900Y0055776D02*
X0079924Y0055800D01*
X0088800Y0055800D01*
X0090800Y0057800D01*
X0086800Y0060800D02*
X0084800Y0058800D01*
X0080026Y0058800D01*
X0079900Y0058926D01*
X0079624Y0061800D02*
X0079900Y0062076D01*
X0071469Y0074674D02*
X0071343Y0074800D01*
X0085776Y0083700D02*
X0085800Y0083724D01*
X0088800Y0078800D02*
X0086800Y0076800D01*
X0088800Y0078800D02*
X0092800Y0078800D01*
X0095225Y0081225D01*
X0095225Y0083700D01*
X0098375Y0083700D02*
X0098375Y0080375D01*
X0092800Y0074800D01*
X0091800Y0074800D01*
X0097800Y0074800D02*
X0101524Y0079524D01*
X0101524Y0083700D01*
X0104674Y0083700D02*
X0104674Y0078674D01*
X0102800Y0074800D01*
X0107800Y0075800D02*
X0107824Y0076824D01*
X0107824Y0083700D01*
X0113826Y0074800D02*
X0113700Y0074674D01*
X0124532Y0071524D02*
X0125257Y0070800D01*
X0125257Y0073257D01*
X0133343Y0063800D02*
X0132343Y0062800D01*
X0131800Y0062257D01*
X0127800Y0050800D02*
X0127800Y0049800D01*
X0147253Y0043253D02*
X0147253Y0041800D01*
X0158296Y0063800D02*
X0158296Y0068847D01*
X0159800Y0073800D02*
X0160800Y0074800D01*
X0160800Y0107343D02*
X0158343Y0107343D01*
X0159454Y0107997D02*
X0160800Y0107343D01*
X0141580Y0110115D02*
X0139265Y0110800D01*
X0167257Y0126257D02*
X0167800Y0126800D01*
X0174343Y0141800D02*
X0174343Y0150753D01*
X0171296Y0153800D01*
X0187800Y0135800D02*
X0187800Y0134800D01*
X0099800Y0064800D02*
X0099375Y0065225D01*
D12*
X0064020Y0102241D03*
X0064020Y0110115D03*
X0064020Y0117989D03*
X0064020Y0125863D03*
X0064020Y0133737D03*
X0064020Y0141611D03*
X0064020Y0149485D03*
X0064020Y0157359D03*
X0141580Y0157359D03*
X0141580Y0149485D03*
X0141580Y0141611D03*
X0141580Y0133737D03*
X0141580Y0125863D03*
X0141580Y0117989D03*
X0141580Y0110115D03*
X0141580Y0102241D03*
D13*
X0145304Y0063800D03*
X0158296Y0063800D03*
X0158304Y0153800D03*
X0171296Y0153800D03*
X0024296Y0044800D03*
X0011304Y0044800D03*
D14*
X0053800Y0044304D03*
X0053800Y0057296D03*
D15*
X0023706Y0063800D03*
X0011894Y0063800D03*
D16*
X0034961Y0052383D03*
X0037520Y0052383D03*
X0040080Y0052383D03*
X0042639Y0052383D03*
X0042639Y0075217D03*
X0040080Y0075217D03*
X0037520Y0075217D03*
X0034961Y0075217D03*
D17*
X0064257Y0074800D03*
X0071343Y0074800D03*
X0071343Y0065800D03*
X0064257Y0065800D03*
X0041343Y0043800D03*
X0034257Y0043800D03*
X0125257Y0062800D03*
X0132343Y0062800D03*
X0132343Y0070800D03*
X0125257Y0070800D03*
X0143257Y0076800D03*
X0150343Y0076800D03*
X0150343Y0086800D03*
X0143257Y0086800D03*
X0140257Y0050800D03*
X0147343Y0050800D03*
X0167257Y0141800D03*
X0174343Y0141800D03*
D18*
X0160800Y0107343D03*
X0160800Y0100257D03*
X0160800Y0086343D03*
X0160800Y0079257D03*
X0102800Y0031343D03*
X0102800Y0024257D03*
X0065800Y0044257D03*
X0065800Y0051343D03*
X0049800Y0099257D03*
X0049800Y0106343D03*
D19*
X0022800Y0082800D03*
X0012800Y0082800D03*
X0061800Y0026800D03*
X0071800Y0026800D03*
X0081800Y0026800D03*
X0091800Y0026800D03*
X0091800Y0013800D03*
X0081800Y0013800D03*
X0071800Y0013800D03*
X0061800Y0013800D03*
X0113800Y0013800D03*
X0123800Y0013800D03*
X0133800Y0013800D03*
X0143800Y0013800D03*
X0143800Y0026800D03*
X0133800Y0026800D03*
X0123800Y0026800D03*
X0113800Y0026800D03*
D20*
X0050800Y0087800D03*
X0044800Y0087800D03*
D21*
X0047800Y0135800D03*
X0017800Y0135800D03*
X0017800Y0029800D03*
X0047800Y0029800D03*
X0157800Y0029800D03*
X0187800Y0029800D03*
X0187800Y0135800D03*
X0157800Y0135800D03*
D22*
X0129706Y0087800D03*
X0123800Y0087800D03*
X0117894Y0087800D03*
D23*
X0117894Y0091934D03*
X0123800Y0091934D03*
X0129706Y0091934D03*
X0129706Y0083666D03*
X0123800Y0083666D03*
X0117894Y0083666D03*
D24*
X0033800Y0097800D03*
X0033800Y0107800D03*
X0023800Y0107800D03*
X0023800Y0097800D03*
X0013800Y0097800D03*
X0013800Y0107800D03*
D25*
X0025304Y0152257D02*
X0038296Y0152257D01*
X0025304Y0152257D02*
X0025304Y0159343D01*
X0038296Y0159343D01*
X0038296Y0152257D01*
X0038296Y0154618D02*
X0025304Y0154618D01*
X0025304Y0156979D02*
X0038296Y0156979D01*
X0038296Y0159340D02*
X0025304Y0159340D01*
D26*
X0185800Y0107997D03*
X0185800Y0057603D03*
D27*
X0145875Y0043178D02*
X0145875Y0040422D01*
X0145875Y0043178D02*
X0148631Y0043178D01*
X0148631Y0040422D01*
X0145875Y0040422D01*
X0145875Y0041602D02*
X0148631Y0041602D01*
X0148631Y0042782D02*
X0145875Y0042782D01*
X0138969Y0043178D02*
X0138969Y0040422D01*
X0138969Y0043178D02*
X0141725Y0043178D01*
X0141725Y0040422D01*
X0138969Y0040422D01*
X0138969Y0041602D02*
X0141725Y0041602D01*
X0141725Y0042782D02*
X0138969Y0042782D01*
D28*
X0127800Y0043800D03*
X0127800Y0037800D03*
X0127800Y0049800D03*
D29*
X0113700Y0055776D03*
X0113700Y0058926D03*
X0113700Y0062076D03*
X0113700Y0065225D03*
X0113700Y0068375D03*
X0113700Y0071524D03*
X0113700Y0074674D03*
X0113700Y0077824D03*
X0079900Y0077824D03*
X0079900Y0074674D03*
X0079900Y0071524D03*
X0079900Y0068375D03*
X0079900Y0065225D03*
X0079900Y0062076D03*
X0079900Y0058926D03*
X0079900Y0055776D03*
D30*
X0085776Y0049900D03*
X0088926Y0049900D03*
X0092076Y0049900D03*
X0095225Y0049900D03*
X0098375Y0049900D03*
X0101524Y0049900D03*
X0104674Y0049900D03*
X0107824Y0049900D03*
X0107824Y0083700D03*
X0104674Y0083700D03*
X0101524Y0083700D03*
X0098375Y0083700D03*
X0095225Y0083700D03*
X0092076Y0083700D03*
X0088926Y0083700D03*
X0085776Y0083700D03*
D31*
X0085800Y0083724D02*
X0085800Y0125800D01*
X0089000Y0123087D02*
X0089000Y0121981D01*
X0091532Y0121981D01*
X0093981Y0119532D01*
X0093981Y0116068D01*
X0092126Y0114213D01*
X0092126Y0113981D01*
X0095532Y0113981D01*
X0097981Y0111532D01*
X0097981Y0108068D01*
X0095532Y0105619D01*
X0095390Y0105619D01*
X0095276Y0105371D01*
X0095276Y0088600D01*
X0109401Y0088600D01*
X0110283Y0088235D01*
X0110958Y0087559D01*
X0111324Y0086677D01*
X0111324Y0081324D01*
X0112675Y0081324D01*
X0113920Y0082569D01*
X0113920Y0085128D01*
X0114285Y0086010D01*
X0114694Y0086419D01*
X0114694Y0088437D01*
X0114707Y0088467D01*
X0114707Y0089168D01*
X0114285Y0089590D01*
X0113920Y0090472D01*
X0113920Y0093395D01*
X0114285Y0094278D01*
X0114960Y0094953D01*
X0115842Y0095318D01*
X0119947Y0095318D01*
X0120829Y0094953D01*
X0120847Y0094934D01*
X0120866Y0094953D01*
X0121748Y0095318D01*
X0125852Y0095318D01*
X0126734Y0094953D01*
X0126753Y0094934D01*
X0126771Y0094953D01*
X0127653Y0095318D01*
X0131758Y0095318D01*
X0132640Y0094953D01*
X0133315Y0094278D01*
X0133680Y0093395D01*
X0133680Y0090472D01*
X0133315Y0089590D01*
X0132893Y0089168D01*
X0132893Y0088467D01*
X0132905Y0088437D01*
X0132905Y0086419D01*
X0133117Y0086208D01*
X0135748Y0088839D01*
X0136761Y0089852D01*
X0138084Y0090400D01*
X0139597Y0090400D01*
X0139647Y0090522D01*
X0140322Y0091197D01*
X0141204Y0091562D01*
X0142928Y0091562D01*
X0148451Y0097085D01*
X0133228Y0097085D01*
X0132346Y0097450D01*
X0131671Y0098126D01*
X0131306Y0099008D01*
X0131306Y0105474D01*
X0131597Y0106178D01*
X0131306Y0106882D01*
X0131306Y0107600D01*
X0128513Y0107600D01*
X0127532Y0106619D01*
X0124068Y0106619D01*
X0121619Y0109068D01*
X0121619Y0112532D01*
X0124068Y0114981D01*
X0127532Y0114981D01*
X0128513Y0114000D01*
X0131575Y0114000D01*
X0131597Y0114052D01*
X0131306Y0114756D01*
X0131306Y0121222D01*
X0131597Y0121926D01*
X0131306Y0122630D01*
X0131306Y0129096D01*
X0131597Y0129800D01*
X0131306Y0130504D01*
X0131306Y0136970D01*
X0131597Y0137674D01*
X0131306Y0138378D01*
X0131306Y0144844D01*
X0131597Y0145548D01*
X0131306Y0146252D01*
X0131306Y0152718D01*
X0131597Y0153422D01*
X0131306Y0154126D01*
X0131306Y0160592D01*
X0131671Y0161474D01*
X0132346Y0162150D01*
X0133228Y0162515D01*
X0149931Y0162515D01*
X0150813Y0162150D01*
X0151488Y0161474D01*
X0151702Y0160959D01*
X0153524Y0160959D01*
X0154015Y0161020D01*
X0154234Y0160959D01*
X0154461Y0160959D01*
X0154767Y0160832D01*
X0155464Y0161121D01*
X0161144Y0161121D01*
X0162026Y0160756D01*
X0162701Y0160081D01*
X0163066Y0159199D01*
X0163066Y0151082D01*
X0167586Y0146562D01*
X0169309Y0146562D01*
X0170191Y0146197D01*
X0170866Y0145522D01*
X0171231Y0144640D01*
X0171231Y0138960D01*
X0170866Y0138078D01*
X0170857Y0138069D01*
X0170857Y0130400D01*
X0182699Y0130400D01*
X0180375Y0132724D01*
X0180375Y0138876D01*
X0184724Y0143225D01*
X0190876Y0143225D01*
X0195225Y0138876D01*
X0195225Y0134177D01*
X0196800Y0133127D01*
X0196800Y0155184D01*
X0195061Y0154463D01*
X0192539Y0154463D01*
X0190210Y0155428D01*
X0188428Y0157210D01*
X0187463Y0159539D01*
X0187463Y0162061D01*
X0188184Y0163800D01*
X0013416Y0163800D01*
X0014137Y0162061D01*
X0014137Y0159539D01*
X0013172Y0157210D01*
X0011390Y0155428D01*
X0009061Y0154463D01*
X0006539Y0154463D01*
X0004800Y0155184D01*
X0004800Y0125891D01*
X0005139Y0126230D01*
X0010471Y0132629D01*
X0010375Y0132724D01*
X0010375Y0138876D01*
X0014724Y0143225D01*
X0020876Y0143225D01*
X0025225Y0138876D01*
X0025225Y0132724D01*
X0020876Y0128375D01*
X0016299Y0128375D01*
X0011400Y0122497D01*
X0011400Y0113461D01*
X0011439Y0113500D01*
X0016161Y0113500D01*
X0018800Y0110861D01*
X0021439Y0113500D01*
X0024975Y0113500D01*
X0041987Y0130513D01*
X0042411Y0130688D01*
X0040375Y0132724D01*
X0040375Y0138876D01*
X0044724Y0143225D01*
X0050876Y0143225D01*
X0055225Y0138876D01*
X0055225Y0138709D01*
X0055669Y0138893D01*
X0072372Y0138893D01*
X0073254Y0138528D01*
X0073929Y0137852D01*
X0074282Y0137000D01*
X0077437Y0137000D01*
X0078613Y0136513D01*
X0079513Y0135613D01*
X0079513Y0135613D01*
X0083613Y0131513D01*
X0083613Y0131513D01*
X0084513Y0130613D01*
X0084774Y0129981D01*
X0087532Y0129981D01*
X0089981Y0127532D01*
X0089981Y0124068D01*
X0089000Y0123087D01*
X0089200Y0123287D02*
X0131306Y0123287D01*
X0131306Y0124885D02*
X0089981Y0124885D01*
X0089981Y0126484D02*
X0131306Y0126484D01*
X0131306Y0128082D02*
X0089431Y0128082D01*
X0087832Y0129681D02*
X0131548Y0129681D01*
X0131306Y0131279D02*
X0083846Y0131279D01*
X0082248Y0132878D02*
X0131306Y0132878D01*
X0131306Y0134476D02*
X0080649Y0134476D01*
X0079051Y0136075D02*
X0131306Y0136075D01*
X0131597Y0137673D02*
X0074003Y0137673D01*
X0076800Y0133800D02*
X0066083Y0133800D01*
X0064020Y0133737D02*
X0057737Y0133737D01*
X0051800Y0127800D01*
X0043800Y0127800D01*
X0023800Y0107800D01*
X0019434Y0104105D02*
X0018166Y0104105D01*
X0018800Y0103800D02*
X0018800Y0122800D01*
X0040800Y0144800D01*
X0042800Y0144800D02*
X0010800Y0144800D01*
X0004800Y0139800D01*
X0004800Y0029800D01*
X0017800Y0029800D01*
X0014144Y0037479D02*
X0008464Y0037479D01*
X0007582Y0037844D01*
X0006907Y0038519D01*
X0006542Y0039401D01*
X0006542Y0050199D01*
X0006907Y0051081D01*
X0007582Y0051756D01*
X0008294Y0052051D01*
X0008294Y0053526D01*
X0007480Y0053526D01*
X0006598Y0053891D01*
X0005923Y0054566D01*
X0005557Y0055449D01*
X0005557Y0072151D01*
X0005923Y0073034D01*
X0006598Y0073709D01*
X0007480Y0074074D01*
X0008983Y0074074D01*
X0012309Y0077400D01*
X0010563Y0077400D01*
X0007400Y0080563D01*
X0007400Y0082109D01*
X0005761Y0083748D01*
X0005761Y0083748D01*
X0004800Y0084709D01*
X0004800Y0013416D01*
X0006539Y0014137D01*
X0009061Y0014137D01*
X0011390Y0013172D01*
X0013172Y0011390D01*
X0014137Y0009061D01*
X0014137Y0006539D01*
X0013416Y0004800D01*
X0188184Y0004800D01*
X0187463Y0006539D01*
X0187463Y0009061D01*
X0188428Y0011390D01*
X0190210Y0013172D01*
X0192539Y0014137D01*
X0195061Y0014137D01*
X0196800Y0013416D01*
X0196800Y0031473D01*
X0195225Y0030423D01*
X0195225Y0026724D01*
X0190876Y0022375D01*
X0184724Y0022375D01*
X0180375Y0026724D01*
X0180375Y0032876D01*
X0184724Y0037225D01*
X0190876Y0037225D01*
X0191504Y0036596D01*
X0193200Y0037727D01*
X0193200Y0049339D01*
X0186271Y0043180D01*
X0185839Y0042748D01*
X0185738Y0042706D01*
X0185656Y0042634D01*
X0185080Y0042434D01*
X0184516Y0042200D01*
X0184407Y0042200D01*
X0184303Y0042164D01*
X0183694Y0042200D01*
X0161291Y0042200D01*
X0156316Y0037225D01*
X0160876Y0037225D01*
X0165225Y0032876D01*
X0165225Y0026724D01*
X0160876Y0022375D01*
X0154724Y0022375D01*
X0150375Y0026724D01*
X0150375Y0031284D01*
X0148664Y0029573D01*
X0149200Y0029037D01*
X0149200Y0024563D01*
X0147400Y0022763D01*
X0147400Y0017837D01*
X0149200Y0016037D01*
X0149200Y0011563D01*
X0146037Y0008400D01*
X0141563Y0008400D01*
X0138400Y0011563D01*
X0138400Y0016037D01*
X0140200Y0017837D01*
X0140200Y0022763D01*
X0138400Y0024563D01*
X0138400Y0029037D01*
X0140427Y0031063D01*
X0140748Y0031839D01*
X0156748Y0047839D01*
X0157761Y0048852D01*
X0159084Y0049400D01*
X0182431Y0049400D01*
X0185022Y0051703D01*
X0183356Y0051703D01*
X0181056Y0054003D01*
X0176713Y0054003D01*
X0175281Y0054003D01*
X0173958Y0054551D01*
X0150924Y0054551D01*
X0150953Y0054522D02*
X0150278Y0055197D01*
X0149395Y0055562D01*
X0145291Y0055562D01*
X0144409Y0055197D01*
X0143800Y0054588D01*
X0143191Y0055197D01*
X0142309Y0055562D01*
X0138204Y0055562D01*
X0137322Y0055197D01*
X0136647Y0054522D01*
X0136431Y0054000D01*
X0132444Y0054000D01*
X0132309Y0054135D01*
X0131427Y0054500D01*
X0125000Y0054500D01*
X0125000Y0055437D01*
X0124513Y0056613D01*
X0123005Y0058120D01*
X0123204Y0058038D01*
X0127309Y0058038D01*
X0128191Y0058403D01*
X0128866Y0059078D01*
X0129231Y0059960D01*
X0129231Y0065640D01*
X0128866Y0066522D01*
X0128857Y0066531D01*
X0128857Y0067069D01*
X0128866Y0067078D01*
X0129231Y0067960D01*
X0129231Y0072140D01*
X0139908Y0082817D01*
X0140322Y0082403D01*
X0141204Y0082038D01*
X0145309Y0082038D01*
X0146191Y0082403D01*
X0146800Y0083012D01*
X0147143Y0082669D01*
X0147143Y0080931D01*
X0146734Y0080522D01*
X0146369Y0079640D01*
X0146369Y0073960D01*
X0146734Y0073078D01*
X0147409Y0072403D01*
X0148291Y0072038D01*
X0150580Y0072038D01*
X0153534Y0069084D01*
X0153534Y0058401D01*
X0153899Y0057519D01*
X0154574Y0056844D01*
X0155456Y0056479D01*
X0161136Y0056479D01*
X0162018Y0056844D01*
X0162693Y0057519D01*
X0163058Y0058401D01*
X0163058Y0065451D01*
X0173958Y0054551D01*
X0172359Y0056149D02*
X0124705Y0056149D01*
X0125000Y0054551D02*
X0136676Y0054551D01*
X0140257Y0050800D02*
X0127800Y0050800D01*
X0121800Y0046800D02*
X0121800Y0054800D01*
X0117800Y0058800D01*
X0113826Y0058800D01*
X0113700Y0058926D01*
X0113700Y0055776D02*
X0113700Y0053900D01*
X0118800Y0048800D01*
X0118800Y0031800D01*
X0113800Y0026800D01*
X0107800Y0019800D02*
X0113800Y0013800D01*
X0118800Y0011163D02*
X0121563Y0008400D01*
X0126037Y0008400D01*
X0129200Y0011563D01*
X0129200Y0016037D01*
X0128881Y0016356D01*
X0130613Y0018087D01*
X0131513Y0018987D01*
X0132000Y0020163D01*
X0132000Y0028475D01*
X0136144Y0032619D01*
X0136532Y0032619D01*
X0138981Y0035068D01*
X0138981Y0037431D01*
X0142320Y0037431D01*
X0143419Y0037887D01*
X0144260Y0038728D01*
X0144716Y0039827D01*
X0144716Y0043647D01*
X0147107Y0046038D01*
X0149395Y0046038D01*
X0150278Y0046403D01*
X0150953Y0047078D01*
X0151318Y0047960D01*
X0151318Y0053640D01*
X0150953Y0054522D01*
X0151318Y0052952D02*
X0182107Y0052952D01*
X0184629Y0051354D02*
X0151318Y0051354D01*
X0151318Y0049755D02*
X0182831Y0049755D01*
X0188273Y0044960D02*
X0193200Y0044960D01*
X0193200Y0046558D02*
X0190072Y0046558D01*
X0191870Y0048157D02*
X0193200Y0048157D01*
X0193200Y0043361D02*
X0186475Y0043361D01*
X0193200Y0041763D02*
X0160854Y0041763D01*
X0159255Y0040164D02*
X0193200Y0040164D01*
X0193200Y0038566D02*
X0157657Y0038566D01*
X0161133Y0036967D02*
X0184467Y0036967D01*
X0182868Y0035369D02*
X0162732Y0035369D01*
X0164330Y0033770D02*
X0181270Y0033770D01*
X0180375Y0032172D02*
X0165225Y0032172D01*
X0165225Y0030573D02*
X0180375Y0030573D01*
X0180375Y0028975D02*
X0165225Y0028975D01*
X0165225Y0027376D02*
X0180375Y0027376D01*
X0181322Y0025778D02*
X0164278Y0025778D01*
X0162680Y0024179D02*
X0182920Y0024179D01*
X0184519Y0022581D02*
X0161081Y0022581D01*
X0154519Y0022581D02*
X0147400Y0022581D01*
X0147400Y0020982D02*
X0196800Y0020982D01*
X0196800Y0019384D02*
X0147400Y0019384D01*
X0147452Y0017785D02*
X0196800Y0017785D01*
X0196800Y0016187D02*
X0149050Y0016187D01*
X0149200Y0014588D02*
X0196800Y0014588D01*
X0190028Y0012990D02*
X0149200Y0012990D01*
X0149028Y0011391D02*
X0188429Y0011391D01*
X0187766Y0009793D02*
X0147429Y0009793D01*
X0140171Y0009793D02*
X0127429Y0009793D01*
X0129028Y0011391D02*
X0138572Y0011391D01*
X0138400Y0012990D02*
X0129200Y0012990D01*
X0129200Y0014588D02*
X0138400Y0014588D01*
X0138550Y0016187D02*
X0129050Y0016187D01*
X0130311Y0017785D02*
X0140148Y0017785D01*
X0140200Y0019384D02*
X0131677Y0019384D01*
X0132000Y0020982D02*
X0140200Y0020982D01*
X0140200Y0022581D02*
X0132000Y0022581D01*
X0132000Y0024179D02*
X0138784Y0024179D01*
X0138400Y0025778D02*
X0132000Y0025778D01*
X0132000Y0027376D02*
X0138400Y0027376D01*
X0138400Y0028975D02*
X0132500Y0028975D01*
X0133800Y0028347D02*
X0147253Y0041800D01*
X0147253Y0043253D02*
X0152800Y0048800D01*
X0152800Y0056304D01*
X0145304Y0063800D01*
X0133343Y0063800D01*
X0132343Y0062800D02*
X0132343Y0070800D01*
X0137257Y0070800D01*
X0143257Y0076800D01*
X0146369Y0076930D02*
X0134021Y0076930D01*
X0132423Y0075332D02*
X0146369Y0075332D01*
X0146463Y0073733D02*
X0130824Y0073733D01*
X0129231Y0072134D02*
X0148058Y0072134D01*
X0152082Y0070536D02*
X0129231Y0070536D01*
X0129231Y0068937D02*
X0153534Y0068937D01*
X0153534Y0067339D02*
X0128974Y0067339D01*
X0129190Y0065740D02*
X0153534Y0065740D01*
X0153534Y0064142D02*
X0129231Y0064142D01*
X0129231Y0062543D02*
X0153534Y0062543D01*
X0153534Y0060945D02*
X0129231Y0060945D01*
X0128977Y0059346D02*
X0153534Y0059346D01*
X0153805Y0057748D02*
X0123378Y0057748D01*
X0122800Y0057800D02*
X0129800Y0057800D01*
X0131800Y0059800D01*
X0131800Y0062257D01*
X0122800Y0057800D02*
X0118524Y0062076D01*
X0113700Y0062076D01*
X0101524Y0062076D01*
X0099800Y0063800D01*
X0099800Y0064800D01*
X0099800Y0066800D01*
X0100800Y0067800D01*
X0109800Y0067800D01*
X0110375Y0068375D01*
X0113700Y0068375D01*
X0113700Y0071524D02*
X0109524Y0071524D01*
X0108800Y0070800D01*
X0086800Y0070800D01*
X0082926Y0074674D01*
X0079900Y0074674D01*
X0079900Y0071524D02*
X0075524Y0071524D01*
X0071800Y0069800D01*
X0067800Y0069800D01*
X0067800Y0059800D01*
X0076800Y0050800D01*
X0076800Y0032800D01*
X0081800Y0026800D01*
X0078383Y0022581D02*
X0065400Y0022581D01*
X0065400Y0022763D02*
X0067200Y0024563D01*
X0067200Y0029037D01*
X0066664Y0029573D01*
X0072839Y0035748D01*
X0073600Y0036509D01*
X0073600Y0032945D01*
X0073556Y0032456D01*
X0073600Y0032313D01*
X0073600Y0032163D01*
X0073788Y0031710D01*
X0073934Y0031240D01*
X0074030Y0031126D01*
X0074087Y0030987D01*
X0074435Y0030640D01*
X0076400Y0028281D01*
X0076400Y0024563D01*
X0079563Y0021400D01*
X0083600Y0021400D01*
X0083600Y0020125D01*
X0082675Y0019200D01*
X0079563Y0019200D01*
X0076400Y0016037D01*
X0076400Y0011563D01*
X0079563Y0008400D01*
X0084037Y0008400D01*
X0086800Y0011163D01*
X0089563Y0008400D01*
X0094037Y0008400D01*
X0097200Y0011563D01*
X0097200Y0014675D01*
X0098619Y0016093D01*
X0098619Y0015068D01*
X0101068Y0012619D01*
X0104532Y0012619D01*
X0106981Y0015068D01*
X0106981Y0016093D01*
X0108400Y0014675D01*
X0108400Y0011563D01*
X0111563Y0008400D01*
X0116037Y0008400D01*
X0118800Y0011163D01*
X0117429Y0009793D02*
X0120171Y0009793D01*
X0123800Y0013800D02*
X0123800Y0015800D01*
X0128800Y0020800D01*
X0128800Y0029800D01*
X0134800Y0035800D01*
X0134800Y0036800D01*
X0137683Y0033770D02*
X0142679Y0033770D01*
X0141081Y0032172D02*
X0135697Y0032172D01*
X0134099Y0030573D02*
X0139936Y0030573D01*
X0138981Y0035369D02*
X0144278Y0035369D01*
X0145876Y0036967D02*
X0138981Y0036967D01*
X0140347Y0041800D02*
X0140347Y0043804D01*
X0147343Y0050800D01*
X0151318Y0048157D02*
X0157066Y0048157D01*
X0155467Y0046558D02*
X0150433Y0046558D01*
X0152270Y0043361D02*
X0144716Y0043361D01*
X0144716Y0041763D02*
X0150672Y0041763D01*
X0149073Y0040164D02*
X0144716Y0040164D01*
X0144098Y0038566D02*
X0147475Y0038566D01*
X0146029Y0044960D02*
X0153869Y0044960D01*
X0150375Y0030573D02*
X0149664Y0030573D01*
X0149200Y0028975D02*
X0150375Y0028975D01*
X0150375Y0027376D02*
X0149200Y0027376D01*
X0149200Y0025778D02*
X0151322Y0025778D01*
X0152920Y0024179D02*
X0148816Y0024179D01*
X0133800Y0026800D02*
X0133800Y0013800D01*
X0133800Y0007800D01*
X0131800Y0005800D01*
X0072800Y0005800D01*
X0026800Y0005800D01*
X0004800Y0026800D01*
X0004800Y0029800D01*
X0004800Y0030573D02*
X0040375Y0030573D01*
X0040375Y0028975D02*
X0004800Y0028975D01*
X0004800Y0027376D02*
X0040375Y0027376D01*
X0040375Y0026724D02*
X0044724Y0022375D01*
X0050876Y0022375D01*
X0055225Y0026724D01*
X0055225Y0032876D01*
X0050876Y0037225D01*
X0044724Y0037225D01*
X0040375Y0032876D01*
X0040375Y0026724D01*
X0041322Y0025778D02*
X0004800Y0025778D01*
X0004800Y0024179D02*
X0042920Y0024179D01*
X0044519Y0022581D02*
X0004800Y0022581D01*
X0004800Y0020982D02*
X0058200Y0020982D01*
X0058200Y0019384D02*
X0004800Y0019384D01*
X0004800Y0017785D02*
X0058148Y0017785D01*
X0058200Y0017837D02*
X0056400Y0016037D01*
X0056400Y0011563D01*
X0059563Y0008400D01*
X0064037Y0008400D01*
X0067200Y0011563D01*
X0067200Y0016037D01*
X0065400Y0017837D01*
X0065400Y0022763D01*
X0065400Y0020982D02*
X0083600Y0020982D01*
X0082858Y0019384D02*
X0065400Y0019384D01*
X0065452Y0017785D02*
X0078148Y0017785D01*
X0076550Y0016187D02*
X0067050Y0016187D01*
X0067200Y0014588D02*
X0076400Y0014588D01*
X0076400Y0012990D02*
X0067200Y0012990D01*
X0067028Y0011391D02*
X0076572Y0011391D01*
X0078171Y0009793D02*
X0065429Y0009793D01*
X0071800Y0006800D02*
X0071800Y0013800D01*
X0071800Y0026800D01*
X0073800Y0028800D01*
X0073800Y0049800D01*
X0064257Y0059343D01*
X0064257Y0065800D01*
X0064257Y0074800D01*
X0065987Y0072513D02*
X0065087Y0071613D01*
X0064600Y0070437D01*
X0064600Y0059163D01*
X0065087Y0057987D01*
X0067756Y0055318D01*
X0066916Y0055318D01*
X0061886Y0060348D01*
X0060857Y0060775D01*
X0060756Y0061018D01*
X0060081Y0061693D01*
X0059199Y0062058D01*
X0048401Y0062058D01*
X0047519Y0061693D01*
X0046844Y0061018D01*
X0046794Y0060896D01*
X0046100Y0060896D01*
X0046100Y0076200D01*
X0049516Y0076200D01*
X0050839Y0076748D01*
X0053852Y0079761D01*
X0054400Y0081084D01*
X0054400Y0082591D01*
X0054459Y0082615D01*
X0055135Y0083291D01*
X0055500Y0084173D01*
X0055500Y0084200D01*
X0062309Y0084200D01*
X0067861Y0078648D01*
X0067734Y0078522D01*
X0067369Y0077640D01*
X0067369Y0073000D01*
X0067163Y0073000D01*
X0065987Y0072513D01*
X0065609Y0072134D02*
X0046100Y0072134D01*
X0046100Y0070536D02*
X0064641Y0070536D01*
X0064600Y0068937D02*
X0046100Y0068937D01*
X0046100Y0067339D02*
X0064600Y0067339D01*
X0064600Y0065740D02*
X0046100Y0065740D01*
X0046100Y0064142D02*
X0064600Y0064142D01*
X0064600Y0062543D02*
X0046100Y0062543D01*
X0046100Y0060945D02*
X0046814Y0060945D01*
X0039500Y0060945D02*
X0030043Y0060945D01*
X0030043Y0062543D02*
X0039500Y0062543D01*
X0039500Y0064142D02*
X0030043Y0064142D01*
X0030043Y0065470D02*
X0031072Y0066500D01*
X0036456Y0066500D01*
X0037669Y0067002D01*
X0038598Y0067931D01*
X0039500Y0068833D01*
X0039500Y0060896D01*
X0035580Y0060896D01*
X0034257Y0060348D01*
X0033244Y0059335D01*
X0032944Y0058611D01*
X0032002Y0057669D01*
X0031500Y0056456D01*
X0031500Y0055144D01*
X0031600Y0054902D01*
X0031600Y0051908D01*
X0031774Y0051487D01*
X0031774Y0050134D01*
X0032139Y0049252D01*
X0032815Y0048576D01*
X0033697Y0048211D01*
X0036226Y0048211D01*
X0036241Y0048217D01*
X0036256Y0048211D01*
X0038443Y0048211D01*
X0038409Y0048197D01*
X0037734Y0047522D01*
X0037369Y0046640D01*
X0037369Y0040960D01*
X0037734Y0040078D01*
X0038409Y0039403D01*
X0039291Y0039038D01*
X0043395Y0039038D01*
X0044278Y0039403D01*
X0044953Y0040078D01*
X0045318Y0040960D01*
X0045318Y0043249D01*
X0045351Y0043283D01*
X0045839Y0044459D01*
X0045839Y0053019D01*
X0045826Y0053050D01*
X0045826Y0053696D01*
X0046794Y0053696D01*
X0046844Y0053574D01*
X0047519Y0052899D01*
X0048401Y0052534D01*
X0059199Y0052534D01*
X0059425Y0052627D01*
X0061038Y0051014D01*
X0061038Y0049291D01*
X0061403Y0048409D01*
X0062078Y0047734D01*
X0062960Y0047369D01*
X0065006Y0047369D01*
X0067200Y0045613D01*
X0067200Y0040291D01*
X0058748Y0031839D01*
X0058427Y0031063D01*
X0056400Y0029037D01*
X0056400Y0024563D01*
X0058200Y0022763D01*
X0058200Y0017837D01*
X0056550Y0016187D02*
X0004800Y0016187D01*
X0004800Y0014588D02*
X0056400Y0014588D01*
X0056400Y0012990D02*
X0011572Y0012990D01*
X0013171Y0011391D02*
X0056572Y0011391D01*
X0058171Y0009793D02*
X0013834Y0009793D01*
X0014137Y0008194D02*
X0187463Y0008194D01*
X0187463Y0006596D02*
X0014137Y0006596D01*
X0013498Y0004997D02*
X0188102Y0004997D01*
X0191081Y0022581D02*
X0196800Y0022581D01*
X0196800Y0024179D02*
X0192680Y0024179D01*
X0194278Y0025778D02*
X0196800Y0025778D01*
X0196800Y0027376D02*
X0195225Y0027376D01*
X0195225Y0028975D02*
X0196800Y0028975D01*
X0196800Y0030573D02*
X0195450Y0030573D01*
X0192061Y0036967D02*
X0191133Y0036967D01*
X0170761Y0057748D02*
X0162788Y0057748D01*
X0163058Y0059346D02*
X0169162Y0059346D01*
X0167564Y0060945D02*
X0163058Y0060945D01*
X0163058Y0062543D02*
X0165965Y0062543D01*
X0164367Y0064142D02*
X0163058Y0064142D01*
X0158296Y0068847D02*
X0150343Y0076800D01*
X0150343Y0086800D01*
X0155800Y0092257D01*
X0155800Y0105800D01*
X0158343Y0107343D01*
X0160800Y0100257D02*
X0160800Y0086343D01*
X0160800Y0079257D02*
X0160800Y0074800D01*
X0146369Y0078529D02*
X0135620Y0078529D01*
X0137218Y0080127D02*
X0146570Y0080127D01*
X0147143Y0081726D02*
X0138817Y0081726D01*
X0133430Y0086521D02*
X0132905Y0086521D01*
X0132905Y0088120D02*
X0135028Y0088120D01*
X0136627Y0089718D02*
X0133368Y0089718D01*
X0133680Y0091317D02*
X0140612Y0091317D01*
X0144281Y0092915D02*
X0133680Y0092915D01*
X0133079Y0094514D02*
X0145879Y0094514D01*
X0147478Y0096112D02*
X0095276Y0096112D01*
X0095276Y0094514D02*
X0114521Y0094514D01*
X0113920Y0092915D02*
X0095276Y0092915D01*
X0095276Y0091317D02*
X0113920Y0091317D01*
X0114232Y0089718D02*
X0095276Y0089718D01*
X0092076Y0083700D02*
X0092076Y0106076D01*
X0093800Y0109800D01*
X0097215Y0107302D02*
X0123385Y0107302D01*
X0121787Y0108900D02*
X0097981Y0108900D01*
X0097981Y0110499D02*
X0121619Y0110499D01*
X0121619Y0112097D02*
X0097416Y0112097D01*
X0095817Y0113696D02*
X0122783Y0113696D01*
X0125800Y0110800D02*
X0139265Y0110800D01*
X0131306Y0107302D02*
X0128215Y0107302D01*
X0131400Y0105703D02*
X0095616Y0105703D01*
X0095276Y0104105D02*
X0131306Y0104105D01*
X0131306Y0102506D02*
X0095276Y0102506D01*
X0095276Y0100908D02*
X0131306Y0100908D01*
X0131306Y0099309D02*
X0095276Y0099309D01*
X0095276Y0097711D02*
X0132086Y0097711D01*
X0123800Y0102800D02*
X0114300Y0112300D01*
X0110300Y0112300D01*
X0079300Y0143300D01*
X0083800Y0147800D01*
X0083800Y0161800D01*
X0084800Y0162800D01*
X0069461Y0162800D01*
X0064020Y0157359D01*
X0055669Y0154641D02*
X0054787Y0154276D01*
X0054607Y0154095D01*
X0050966Y0157160D01*
X0050613Y0157513D01*
X0050482Y0157567D01*
X0050374Y0157658D01*
X0049898Y0157809D01*
X0049437Y0158000D01*
X0049295Y0158000D01*
X0049160Y0158043D01*
X0048663Y0158000D01*
X0041877Y0158000D01*
X0041877Y0160056D01*
X0041332Y0161372D01*
X0040325Y0162379D01*
X0039008Y0162924D01*
X0024592Y0162924D01*
X0023275Y0162379D01*
X0022268Y0161372D01*
X0021723Y0160056D01*
X0021723Y0151544D01*
X0022268Y0150228D01*
X0023275Y0149221D01*
X0024592Y0148676D01*
X0039008Y0148676D01*
X0040325Y0149221D01*
X0041332Y0150228D01*
X0041877Y0151544D01*
X0041877Y0151600D01*
X0047633Y0151600D01*
X0052949Y0147125D01*
X0053302Y0146772D01*
X0053433Y0146718D01*
X0053541Y0146627D01*
X0053746Y0146562D01*
X0053746Y0146252D01*
X0054112Y0145370D01*
X0054787Y0144695D01*
X0055669Y0144329D01*
X0072372Y0144329D01*
X0073254Y0144695D01*
X0073929Y0145370D01*
X0074294Y0146252D01*
X0074294Y0152718D01*
X0073929Y0153600D01*
X0073254Y0154276D01*
X0072372Y0154641D01*
X0055669Y0154641D01*
X0053226Y0155257D02*
X0131306Y0155257D01*
X0131306Y0156856D02*
X0051327Y0156856D01*
X0048800Y0154800D02*
X0032800Y0154800D01*
X0039461Y0148863D02*
X0050884Y0148863D01*
X0048985Y0150462D02*
X0041429Y0150462D01*
X0042800Y0144800D02*
X0051800Y0144800D01*
X0053800Y0142800D01*
X0059831Y0142800D01*
X0054829Y0139272D02*
X0131306Y0139272D01*
X0131306Y0140870D02*
X0053230Y0140870D01*
X0051632Y0142469D02*
X0131306Y0142469D01*
X0131306Y0144068D02*
X0004800Y0144068D01*
X0004800Y0145666D02*
X0053989Y0145666D01*
X0052784Y0147265D02*
X0004800Y0147265D01*
X0004800Y0148863D02*
X0024139Y0148863D01*
X0022171Y0150462D02*
X0004800Y0150462D01*
X0004800Y0152060D02*
X0021723Y0152060D01*
X0021723Y0153659D02*
X0004800Y0153659D01*
X0010978Y0155257D02*
X0021723Y0155257D01*
X0021723Y0156856D02*
X0012817Y0156856D01*
X0013687Y0158454D02*
X0021723Y0158454D01*
X0021723Y0160053D02*
X0014137Y0160053D01*
X0014137Y0161651D02*
X0022547Y0161651D01*
X0013644Y0163250D02*
X0187956Y0163250D01*
X0187463Y0161651D02*
X0151311Y0161651D01*
X0162712Y0160053D02*
X0187463Y0160053D01*
X0187913Y0158454D02*
X0163066Y0158454D01*
X0163066Y0156856D02*
X0188783Y0156856D01*
X0190622Y0155257D02*
X0163066Y0155257D01*
X0163066Y0153659D02*
X0196800Y0153659D01*
X0196800Y0152060D02*
X0163066Y0152060D01*
X0163686Y0150462D02*
X0196800Y0150462D01*
X0196800Y0148863D02*
X0165285Y0148863D01*
X0166883Y0147265D02*
X0196800Y0147265D01*
X0196800Y0145666D02*
X0170722Y0145666D01*
X0171231Y0144068D02*
X0196800Y0144068D01*
X0196800Y0142469D02*
X0191632Y0142469D01*
X0193230Y0140870D02*
X0196800Y0140870D01*
X0196800Y0139272D02*
X0194829Y0139272D01*
X0195225Y0137673D02*
X0196800Y0137673D01*
X0196800Y0136075D02*
X0195225Y0136075D01*
X0195225Y0134476D02*
X0196800Y0134476D01*
X0183968Y0142469D02*
X0171231Y0142469D01*
X0171231Y0140870D02*
X0182370Y0140870D01*
X0180771Y0139272D02*
X0171231Y0139272D01*
X0170857Y0137673D02*
X0180375Y0137673D01*
X0180375Y0136075D02*
X0170857Y0136075D01*
X0170857Y0134476D02*
X0180375Y0134476D01*
X0180375Y0132878D02*
X0170857Y0132878D01*
X0170857Y0131279D02*
X0181820Y0131279D01*
X0171296Y0153800D02*
X0171296Y0159304D01*
X0168800Y0162800D01*
X0112800Y0162800D01*
X0114300Y0161300D01*
X0112800Y0162800D02*
X0084800Y0162800D01*
X0073871Y0153659D02*
X0131499Y0153659D01*
X0131306Y0152060D02*
X0074294Y0152060D01*
X0074294Y0150462D02*
X0131306Y0150462D01*
X0131306Y0148863D02*
X0074294Y0148863D01*
X0074294Y0147265D02*
X0131306Y0147265D01*
X0131548Y0145666D02*
X0074052Y0145666D01*
X0078800Y0142800D02*
X0079300Y0143300D01*
X0078800Y0142800D02*
X0064831Y0142800D01*
X0064020Y0149485D02*
X0055115Y0149485D01*
X0048800Y0154800D01*
X0041877Y0158454D02*
X0131306Y0158454D01*
X0131306Y0160053D02*
X0041877Y0160053D01*
X0041053Y0161651D02*
X0131848Y0161651D01*
X0131499Y0121688D02*
X0091825Y0121688D01*
X0093423Y0120090D02*
X0131306Y0120090D01*
X0131306Y0118491D02*
X0093981Y0118491D01*
X0093981Y0116893D02*
X0131306Y0116893D01*
X0131306Y0115294D02*
X0093207Y0115294D01*
X0089800Y0117800D02*
X0088926Y0115926D01*
X0088926Y0083700D01*
X0081800Y0079724D02*
X0079900Y0077824D01*
X0081800Y0079724D02*
X0081800Y0128800D01*
X0076800Y0133800D01*
X0077800Y0125800D02*
X0065083Y0125800D01*
X0064020Y0125863D02*
X0062957Y0124800D01*
X0054800Y0124800D01*
X0037800Y0107800D01*
X0033800Y0107800D01*
X0038800Y0102800D02*
X0027800Y0102800D01*
X0023800Y0097800D01*
X0020445Y0102506D02*
X0016567Y0102506D01*
X0016161Y0102100D02*
X0018800Y0104739D01*
X0020739Y0102800D01*
X0018100Y0100161D01*
X0018100Y0095439D01*
X0021439Y0092100D01*
X0026161Y0092100D01*
X0028800Y0094739D01*
X0031439Y0092100D01*
X0036161Y0092100D01*
X0038261Y0094200D01*
X0046891Y0094200D01*
X0047146Y0094135D01*
X0047200Y0094143D01*
X0047200Y0093350D01*
X0042023Y0093350D01*
X0041141Y0092985D01*
X0040465Y0092309D01*
X0040100Y0091427D01*
X0040100Y0091400D01*
X0036084Y0091400D01*
X0034761Y0090852D01*
X0033748Y0089839D01*
X0030309Y0086400D01*
X0026837Y0086400D01*
X0025037Y0088200D01*
X0020563Y0088200D01*
X0017800Y0085437D01*
X0015037Y0088200D01*
X0011491Y0088200D01*
X0011400Y0088291D01*
X0011400Y0102139D01*
X0011439Y0102100D01*
X0016161Y0102100D01*
X0018847Y0100908D02*
X0011400Y0100908D01*
X0011400Y0099309D02*
X0018100Y0099309D01*
X0018100Y0097711D02*
X0011400Y0097711D01*
X0011400Y0096112D02*
X0018100Y0096112D01*
X0019025Y0094514D02*
X0011400Y0094514D01*
X0011400Y0092915D02*
X0020624Y0092915D01*
X0020483Y0088120D02*
X0015117Y0088120D01*
X0016716Y0086521D02*
X0018884Y0086521D01*
X0025117Y0088120D02*
X0032028Y0088120D01*
X0030430Y0086521D02*
X0026716Y0086521D01*
X0033627Y0089718D02*
X0011400Y0089718D01*
X0011400Y0091317D02*
X0035883Y0091317D01*
X0036976Y0092915D02*
X0041071Y0092915D01*
X0038800Y0102800D02*
X0053989Y0117989D01*
X0064020Y0117989D01*
X0064209Y0117800D02*
X0077800Y0117800D01*
X0077800Y0109800D02*
X0064335Y0109800D01*
X0064020Y0110115D02*
X0053572Y0110115D01*
X0049800Y0106343D01*
X0033163Y0121688D02*
X0011400Y0121688D01*
X0011400Y0120090D02*
X0031564Y0120090D01*
X0029966Y0118491D02*
X0011400Y0118491D01*
X0011400Y0116893D02*
X0028367Y0116893D01*
X0026769Y0115294D02*
X0011400Y0115294D01*
X0011400Y0113696D02*
X0025170Y0113696D01*
X0020036Y0112097D02*
X0017564Y0112097D01*
X0018800Y0103800D02*
X0013800Y0098800D01*
X0026976Y0092915D02*
X0030624Y0092915D01*
X0029025Y0094514D02*
X0028575Y0094514D01*
X0009435Y0078529D02*
X0004800Y0078529D01*
X0004800Y0080127D02*
X0007836Y0080127D01*
X0007400Y0081726D02*
X0004800Y0081726D01*
X0004800Y0083324D02*
X0006185Y0083324D01*
X0004800Y0076930D02*
X0011839Y0076930D01*
X0010240Y0075332D02*
X0004800Y0075332D01*
X0004800Y0073733D02*
X0006657Y0073733D01*
X0005557Y0072134D02*
X0004800Y0072134D01*
X0004800Y0070536D02*
X0005557Y0070536D01*
X0005557Y0068937D02*
X0004800Y0068937D01*
X0004800Y0067339D02*
X0005557Y0067339D01*
X0005557Y0065740D02*
X0004800Y0065740D01*
X0004800Y0064142D02*
X0005557Y0064142D01*
X0005557Y0062543D02*
X0004800Y0062543D01*
X0004800Y0060945D02*
X0005557Y0060945D01*
X0005557Y0059346D02*
X0004800Y0059346D01*
X0004800Y0057748D02*
X0005557Y0057748D01*
X0005557Y0056149D02*
X0004800Y0056149D01*
X0004800Y0054551D02*
X0005938Y0054551D01*
X0004800Y0052952D02*
X0008294Y0052952D01*
X0007180Y0051354D02*
X0004800Y0051354D01*
X0004800Y0049755D02*
X0006542Y0049755D01*
X0006542Y0048157D02*
X0004800Y0048157D01*
X0004800Y0046558D02*
X0006542Y0046558D01*
X0006542Y0044960D02*
X0004800Y0044960D01*
X0004800Y0043361D02*
X0006542Y0043361D01*
X0006542Y0041763D02*
X0004800Y0041763D01*
X0004800Y0040164D02*
X0006542Y0040164D01*
X0006888Y0038566D02*
X0004800Y0038566D01*
X0004800Y0036967D02*
X0044467Y0036967D01*
X0042868Y0035369D02*
X0004800Y0035369D01*
X0004800Y0033770D02*
X0041270Y0033770D01*
X0040375Y0032172D02*
X0004800Y0032172D01*
X0014144Y0037479D02*
X0015026Y0037844D01*
X0015701Y0038519D01*
X0016066Y0039401D01*
X0016066Y0050199D01*
X0015701Y0051081D01*
X0015494Y0051287D01*
X0015494Y0053526D01*
X0016309Y0053526D01*
X0017191Y0053891D01*
X0017800Y0054500D01*
X0018409Y0053891D01*
X0019291Y0053526D01*
X0028120Y0053526D01*
X0029002Y0053891D01*
X0029677Y0054566D01*
X0030043Y0055449D01*
X0030043Y0065470D01*
X0030313Y0065740D02*
X0039500Y0065740D01*
X0039500Y0067339D02*
X0038006Y0067339D01*
X0040080Y0068080D02*
X0030800Y0058800D01*
X0030800Y0047257D01*
X0034257Y0043800D01*
X0037369Y0043361D02*
X0016066Y0043361D01*
X0016066Y0041763D02*
X0037369Y0041763D01*
X0037698Y0040164D02*
X0016066Y0040164D01*
X0015720Y0038566D02*
X0065475Y0038566D01*
X0067073Y0040164D02*
X0044988Y0040164D01*
X0045318Y0041763D02*
X0067200Y0041763D01*
X0067200Y0043361D02*
X0045384Y0043361D01*
X0045839Y0044960D02*
X0067200Y0044960D01*
X0066018Y0046558D02*
X0045839Y0046558D01*
X0045839Y0048157D02*
X0061655Y0048157D01*
X0061038Y0049755D02*
X0045839Y0049755D01*
X0045839Y0051354D02*
X0060698Y0051354D01*
X0066085Y0056149D02*
X0066925Y0056149D01*
X0065327Y0057748D02*
X0064487Y0057748D01*
X0064600Y0059346D02*
X0062888Y0059346D01*
X0064600Y0060945D02*
X0060786Y0060945D01*
X0071343Y0065800D02*
X0073800Y0065800D01*
X0076375Y0068375D01*
X0079900Y0068375D01*
X0079900Y0065225D02*
X0099375Y0065225D01*
X0094981Y0059532D02*
X0092532Y0061981D01*
X0090981Y0061981D01*
X0090981Y0062532D01*
X0088532Y0064981D01*
X0085068Y0064981D01*
X0084490Y0064402D01*
X0084435Y0064535D01*
X0083759Y0065210D01*
X0083723Y0065225D01*
X0083759Y0065240D01*
X0084435Y0065915D01*
X0084800Y0066797D01*
X0084800Y0068275D01*
X0084987Y0068087D01*
X0086163Y0067600D01*
X0109130Y0067600D01*
X0108800Y0066803D01*
X0108800Y0063648D01*
X0109165Y0062766D01*
X0109841Y0062091D01*
X0109877Y0062076D01*
X0109841Y0062061D01*
X0109165Y0061385D01*
X0108800Y0060503D01*
X0108800Y0054800D01*
X0093713Y0054800D01*
X0094981Y0056068D01*
X0094981Y0059532D01*
X0094981Y0059346D02*
X0108800Y0059346D01*
X0108800Y0057748D02*
X0094981Y0057748D01*
X0094981Y0056149D02*
X0108800Y0056149D01*
X0108983Y0060945D02*
X0093568Y0060945D01*
X0090970Y0062543D02*
X0109388Y0062543D01*
X0108800Y0064142D02*
X0089371Y0064142D01*
X0084800Y0067339D02*
X0109022Y0067339D01*
X0108800Y0065740D02*
X0084260Y0065740D01*
X0079624Y0061800D02*
X0075800Y0061800D01*
X0073800Y0059800D01*
X0084900Y0049900D02*
X0080800Y0045800D01*
X0084900Y0049900D02*
X0085776Y0049900D01*
X0088926Y0049900D02*
X0088926Y0043926D01*
X0086800Y0041800D01*
X0092076Y0039076D02*
X0086800Y0033800D01*
X0086800Y0018800D01*
X0081800Y0013800D01*
X0085429Y0009793D02*
X0088171Y0009793D01*
X0091800Y0013800D02*
X0097800Y0019800D01*
X0097800Y0029800D01*
X0095225Y0032375D01*
X0095225Y0049900D01*
X0098375Y0049900D02*
X0098375Y0040225D01*
X0100800Y0037800D01*
X0103257Y0035343D01*
X0103257Y0031343D01*
X0102800Y0031343D01*
X0107800Y0036800D02*
X0101524Y0043076D01*
X0101524Y0049900D01*
X0104674Y0049900D02*
X0104674Y0044926D01*
X0112800Y0036800D01*
X0113800Y0036800D01*
X0113800Y0037800D01*
X0107800Y0036800D02*
X0107800Y0019800D01*
X0108400Y0014588D02*
X0106501Y0014588D01*
X0104903Y0012990D02*
X0108400Y0012990D01*
X0108572Y0011391D02*
X0097028Y0011391D01*
X0097200Y0012990D02*
X0100697Y0012990D01*
X0099099Y0014588D02*
X0097200Y0014588D01*
X0102800Y0016800D02*
X0102800Y0024257D01*
X0095429Y0009793D02*
X0110171Y0009793D01*
X0123800Y0026800D02*
X0123800Y0033800D01*
X0127800Y0037800D01*
X0127800Y0043800D02*
X0124800Y0043800D01*
X0121800Y0046800D01*
X0113800Y0046800D02*
X0110924Y0046800D01*
X0107824Y0049900D01*
X0092076Y0049900D02*
X0092076Y0039076D01*
X0075822Y0028975D02*
X0067200Y0028975D01*
X0067200Y0027376D02*
X0076400Y0027376D01*
X0076400Y0025778D02*
X0067200Y0025778D01*
X0066816Y0024179D02*
X0076784Y0024179D01*
X0074490Y0030573D02*
X0067664Y0030573D01*
X0069263Y0032172D02*
X0073600Y0032172D01*
X0073600Y0033770D02*
X0070861Y0033770D01*
X0072460Y0035369D02*
X0073600Y0035369D01*
X0063876Y0036967D02*
X0051133Y0036967D01*
X0052732Y0035369D02*
X0062278Y0035369D01*
X0060679Y0033770D02*
X0054330Y0033770D01*
X0055225Y0032172D02*
X0059081Y0032172D01*
X0057936Y0030573D02*
X0055225Y0030573D01*
X0055225Y0028975D02*
X0056400Y0028975D01*
X0056400Y0027376D02*
X0055225Y0027376D01*
X0054278Y0025778D02*
X0056400Y0025778D01*
X0056784Y0024179D02*
X0052680Y0024179D01*
X0051081Y0022581D02*
X0058200Y0022581D01*
X0071800Y0006800D02*
X0072800Y0005800D01*
X0041343Y0043800D02*
X0042639Y0045095D01*
X0042639Y0052383D01*
X0045839Y0052952D02*
X0047466Y0052952D01*
X0038369Y0048157D02*
X0016066Y0048157D01*
X0016066Y0049755D02*
X0031931Y0049755D01*
X0031774Y0051354D02*
X0015494Y0051354D01*
X0015494Y0052952D02*
X0031600Y0052952D01*
X0031600Y0054551D02*
X0029662Y0054551D01*
X0030043Y0056149D02*
X0031500Y0056149D01*
X0032081Y0057748D02*
X0030043Y0057748D01*
X0030043Y0059346D02*
X0033255Y0059346D01*
X0034800Y0055800D02*
X0034800Y0052544D01*
X0037369Y0046558D02*
X0016066Y0046558D01*
X0016066Y0044960D02*
X0037369Y0044960D01*
X0050304Y0044304D02*
X0053800Y0044304D01*
X0040080Y0068080D02*
X0040080Y0075217D01*
X0037520Y0075217D02*
X0037520Y0071520D01*
X0046100Y0073733D02*
X0067369Y0073733D01*
X0067369Y0075332D02*
X0046100Y0075332D01*
X0051021Y0076930D02*
X0067369Y0076930D01*
X0067741Y0078529D02*
X0052620Y0078529D01*
X0054004Y0080127D02*
X0066382Y0080127D01*
X0064783Y0081726D02*
X0054400Y0081726D01*
X0055149Y0083324D02*
X0063185Y0083324D01*
X0110398Y0088120D02*
X0114694Y0088120D01*
X0114694Y0086521D02*
X0111324Y0086521D01*
X0111324Y0084923D02*
X0113920Y0084923D01*
X0113920Y0083324D02*
X0111324Y0083324D01*
X0111324Y0081726D02*
X0113076Y0081726D01*
X0113700Y0077824D02*
X0117894Y0082018D01*
X0117894Y0087800D01*
X0121094Y0088120D02*
X0126506Y0088120D01*
X0126506Y0088437D02*
X0126506Y0086780D01*
X0125852Y0087050D01*
X0121748Y0087050D01*
X0121094Y0086780D01*
X0121094Y0088437D01*
X0121082Y0088467D01*
X0121082Y0088825D01*
X0121748Y0088550D01*
X0125852Y0088550D01*
X0126518Y0088825D01*
X0126518Y0088467D01*
X0126506Y0088437D01*
X0123800Y0087800D02*
X0123800Y0102800D01*
X0129706Y0087800D02*
X0129706Y0082706D01*
X0121800Y0074800D01*
X0113826Y0074800D01*
X0133800Y0028347D02*
X0133800Y0026800D01*
X0034761Y0123287D02*
X0012059Y0123287D01*
X0013391Y0124885D02*
X0036360Y0124885D01*
X0037958Y0126484D02*
X0014723Y0126484D01*
X0016055Y0128082D02*
X0039557Y0128082D01*
X0041155Y0129681D02*
X0022181Y0129681D01*
X0023780Y0131279D02*
X0041820Y0131279D01*
X0040375Y0132878D02*
X0025225Y0132878D01*
X0025225Y0134476D02*
X0040375Y0134476D01*
X0040375Y0136075D02*
X0025225Y0136075D01*
X0025225Y0137673D02*
X0040375Y0137673D01*
X0040771Y0139272D02*
X0024829Y0139272D01*
X0023230Y0140870D02*
X0042370Y0140870D01*
X0043968Y0142469D02*
X0021632Y0142469D01*
X0013968Y0142469D02*
X0004800Y0142469D01*
X0004800Y0140870D02*
X0012370Y0140870D01*
X0010771Y0139272D02*
X0004800Y0139272D01*
X0004800Y0137673D02*
X0010375Y0137673D01*
X0010375Y0136075D02*
X0004800Y0136075D01*
X0004800Y0134476D02*
X0010375Y0134476D01*
X0010375Y0132878D02*
X0004800Y0132878D01*
X0004800Y0131279D02*
X0009347Y0131279D01*
X0008015Y0129681D02*
X0004800Y0129681D01*
X0004800Y0128082D02*
X0006683Y0128082D01*
X0005350Y0126484D02*
X0004800Y0126484D01*
D32*
X0007800Y0123800D02*
X0017800Y0135800D01*
X0007800Y0123800D02*
X0007800Y0086800D01*
X0011800Y0082800D01*
X0022800Y0082800D02*
X0010894Y0070894D01*
X0011894Y0063800D01*
X0011894Y0045391D01*
X0011304Y0044800D01*
X0010894Y0045391D01*
X0024296Y0044800D02*
X0024296Y0042800D01*
X0024753Y0042343D01*
X0034257Y0042343D01*
X0024296Y0042800D02*
X0024296Y0036296D01*
X0017800Y0029800D01*
X0034800Y0029800D01*
X0049304Y0044304D01*
X0050304Y0044304D01*
X0053800Y0044304D02*
X0063847Y0044304D01*
X0065800Y0051343D02*
X0070800Y0047343D01*
X0070800Y0038800D01*
X0061800Y0029800D01*
X0061800Y0026800D01*
X0061800Y0013800D01*
X0065800Y0051343D02*
X0059847Y0057296D01*
X0053800Y0057296D01*
X0041800Y0057296D01*
X0036296Y0057296D01*
X0034961Y0078961D02*
X0035800Y0079800D01*
X0042800Y0079800D01*
X0048800Y0079800D01*
X0050800Y0081800D01*
X0050800Y0087800D01*
X0063800Y0087800D01*
X0071469Y0080131D01*
X0071469Y0074674D01*
X0079900Y0074674D01*
X0050800Y0087800D02*
X0050800Y0098257D01*
X0049800Y0099257D02*
X0047343Y0097800D01*
X0033800Y0097800D01*
X0036800Y0087800D02*
X0044800Y0087800D01*
X0036800Y0087800D02*
X0031800Y0082800D01*
X0022800Y0082800D01*
X0113700Y0071524D02*
X0124532Y0071524D01*
X0125257Y0070800D02*
X0125257Y0062800D01*
X0122831Y0065225D01*
X0113700Y0065225D01*
X0125257Y0073257D02*
X0138800Y0086800D01*
X0143257Y0086800D01*
X0152800Y0096343D01*
X0152800Y0111800D01*
X0167257Y0126257D01*
X0167257Y0141800D01*
X0158304Y0150753D01*
X0158304Y0153800D01*
X0153745Y0157359D01*
X0141580Y0157359D01*
X0167800Y0126800D02*
X0185800Y0126800D01*
X0192800Y0120800D01*
X0192800Y0053800D01*
X0183800Y0045800D01*
X0159800Y0045800D01*
X0143800Y0029800D01*
X0143800Y0026800D01*
X0143800Y0013800D01*
X0187800Y0029800D02*
X0196800Y0035800D01*
X0196800Y0128800D01*
X0187800Y0134800D01*
X0185800Y0107997D02*
X0159454Y0107997D01*
X0159800Y0073800D02*
X0175997Y0057603D01*
X0185800Y0057603D01*
D33*
X0159800Y0073800D03*
X0134800Y0036800D03*
X0113800Y0036800D03*
X0113800Y0046800D03*
X0100800Y0037800D03*
X0086800Y0041800D03*
X0080800Y0045800D03*
X0090800Y0057800D03*
X0086800Y0060800D03*
X0073800Y0059800D03*
X0091800Y0074800D03*
X0086800Y0076800D03*
X0097800Y0074800D03*
X0102800Y0074800D03*
X0107800Y0075800D03*
X0093800Y0109800D03*
X0089800Y0117800D03*
X0085800Y0125800D03*
X0077800Y0125800D03*
X0077800Y0117800D03*
X0077800Y0109800D03*
X0114300Y0112300D03*
X0125800Y0110800D03*
X0102800Y0016800D03*
D34*
X0013800Y0097800D02*
X0013800Y0098800D01*
X0040800Y0144800D02*
X0042800Y0144800D01*
D35*
X0042800Y0079800D02*
X0042800Y0075379D01*
X0042800Y0058296D01*
X0036296Y0057296D02*
X0034800Y0055800D01*
X0023706Y0063800D02*
X0029706Y0069800D01*
X0035800Y0069800D01*
X0037520Y0071520D01*
X0034961Y0075217D02*
X0034961Y0078961D01*
M02*
