G75*
%MOIN*%
%OFA0B0*%
%FSLAX25Y25*%
%IPPOS*%
%LPD*%
%AMOC8*
5,1,8,0,0,1.08239X$1,22.5*
%
%ADD10C,0.00000*%
%ADD11C,0.11424*%
%ADD12C,0.01200*%
%ADD13R,0.16148X0.05912*%
%ADD14R,0.05124X0.10243*%
%ADD15R,0.10243X0.05124*%
%ADD16R,0.08274X0.16148*%
%ADD17R,0.01975X0.03943*%
%ADD18R,0.05124X0.03550*%
%ADD19R,0.03550X0.05124*%
%ADD20OC8,0.06400*%
%ADD21R,0.05000X0.06700*%
%ADD22R,0.00600X0.07200*%
%ADD23C,0.00500*%
%ADD24R,0.01975X0.06699*%
%ADD25R,0.03937X0.02756*%
%ADD26OC8,0.07800*%
%ADD27C,0.02462*%
%ADD28OC8,0.07400*%
%ADD29R,0.05400X0.02600*%
%ADD30R,0.02600X0.05400*%
%ADD31C,0.01301*%
D10*
X0004288Y0009800D02*
X0004290Y0009948D01*
X0004296Y0010096D01*
X0004306Y0010244D01*
X0004320Y0010391D01*
X0004338Y0010538D01*
X0004359Y0010684D01*
X0004385Y0010830D01*
X0004415Y0010975D01*
X0004448Y0011119D01*
X0004486Y0011262D01*
X0004527Y0011404D01*
X0004572Y0011545D01*
X0004620Y0011685D01*
X0004673Y0011824D01*
X0004729Y0011961D01*
X0004789Y0012096D01*
X0004852Y0012230D01*
X0004919Y0012362D01*
X0004990Y0012492D01*
X0005064Y0012620D01*
X0005141Y0012746D01*
X0005222Y0012870D01*
X0005306Y0012992D01*
X0005393Y0013111D01*
X0005484Y0013228D01*
X0005578Y0013343D01*
X0005674Y0013455D01*
X0005774Y0013565D01*
X0005876Y0013671D01*
X0005982Y0013775D01*
X0006090Y0013876D01*
X0006201Y0013974D01*
X0006314Y0014070D01*
X0006430Y0014162D01*
X0006548Y0014251D01*
X0006669Y0014336D01*
X0006792Y0014419D01*
X0006917Y0014498D01*
X0007044Y0014574D01*
X0007173Y0014646D01*
X0007304Y0014715D01*
X0007437Y0014780D01*
X0007572Y0014841D01*
X0007708Y0014899D01*
X0007845Y0014954D01*
X0007984Y0015004D01*
X0008125Y0015051D01*
X0008266Y0015094D01*
X0008409Y0015134D01*
X0008553Y0015169D01*
X0008697Y0015201D01*
X0008843Y0015228D01*
X0008989Y0015252D01*
X0009136Y0015272D01*
X0009283Y0015288D01*
X0009430Y0015300D01*
X0009578Y0015308D01*
X0009726Y0015312D01*
X0009874Y0015312D01*
X0010022Y0015308D01*
X0010170Y0015300D01*
X0010317Y0015288D01*
X0010464Y0015272D01*
X0010611Y0015252D01*
X0010757Y0015228D01*
X0010903Y0015201D01*
X0011047Y0015169D01*
X0011191Y0015134D01*
X0011334Y0015094D01*
X0011475Y0015051D01*
X0011616Y0015004D01*
X0011755Y0014954D01*
X0011892Y0014899D01*
X0012028Y0014841D01*
X0012163Y0014780D01*
X0012296Y0014715D01*
X0012427Y0014646D01*
X0012556Y0014574D01*
X0012683Y0014498D01*
X0012808Y0014419D01*
X0012931Y0014336D01*
X0013052Y0014251D01*
X0013170Y0014162D01*
X0013286Y0014070D01*
X0013399Y0013974D01*
X0013510Y0013876D01*
X0013618Y0013775D01*
X0013724Y0013671D01*
X0013826Y0013565D01*
X0013926Y0013455D01*
X0014022Y0013343D01*
X0014116Y0013228D01*
X0014207Y0013111D01*
X0014294Y0012992D01*
X0014378Y0012870D01*
X0014459Y0012746D01*
X0014536Y0012620D01*
X0014610Y0012492D01*
X0014681Y0012362D01*
X0014748Y0012230D01*
X0014811Y0012096D01*
X0014871Y0011961D01*
X0014927Y0011824D01*
X0014980Y0011685D01*
X0015028Y0011545D01*
X0015073Y0011404D01*
X0015114Y0011262D01*
X0015152Y0011119D01*
X0015185Y0010975D01*
X0015215Y0010830D01*
X0015241Y0010684D01*
X0015262Y0010538D01*
X0015280Y0010391D01*
X0015294Y0010244D01*
X0015304Y0010096D01*
X0015310Y0009948D01*
X0015312Y0009800D01*
X0015310Y0009652D01*
X0015304Y0009504D01*
X0015294Y0009356D01*
X0015280Y0009209D01*
X0015262Y0009062D01*
X0015241Y0008916D01*
X0015215Y0008770D01*
X0015185Y0008625D01*
X0015152Y0008481D01*
X0015114Y0008338D01*
X0015073Y0008196D01*
X0015028Y0008055D01*
X0014980Y0007915D01*
X0014927Y0007776D01*
X0014871Y0007639D01*
X0014811Y0007504D01*
X0014748Y0007370D01*
X0014681Y0007238D01*
X0014610Y0007108D01*
X0014536Y0006980D01*
X0014459Y0006854D01*
X0014378Y0006730D01*
X0014294Y0006608D01*
X0014207Y0006489D01*
X0014116Y0006372D01*
X0014022Y0006257D01*
X0013926Y0006145D01*
X0013826Y0006035D01*
X0013724Y0005929D01*
X0013618Y0005825D01*
X0013510Y0005724D01*
X0013399Y0005626D01*
X0013286Y0005530D01*
X0013170Y0005438D01*
X0013052Y0005349D01*
X0012931Y0005264D01*
X0012808Y0005181D01*
X0012683Y0005102D01*
X0012556Y0005026D01*
X0012427Y0004954D01*
X0012296Y0004885D01*
X0012163Y0004820D01*
X0012028Y0004759D01*
X0011892Y0004701D01*
X0011755Y0004646D01*
X0011616Y0004596D01*
X0011475Y0004549D01*
X0011334Y0004506D01*
X0011191Y0004466D01*
X0011047Y0004431D01*
X0010903Y0004399D01*
X0010757Y0004372D01*
X0010611Y0004348D01*
X0010464Y0004328D01*
X0010317Y0004312D01*
X0010170Y0004300D01*
X0010022Y0004292D01*
X0009874Y0004288D01*
X0009726Y0004288D01*
X0009578Y0004292D01*
X0009430Y0004300D01*
X0009283Y0004312D01*
X0009136Y0004328D01*
X0008989Y0004348D01*
X0008843Y0004372D01*
X0008697Y0004399D01*
X0008553Y0004431D01*
X0008409Y0004466D01*
X0008266Y0004506D01*
X0008125Y0004549D01*
X0007984Y0004596D01*
X0007845Y0004646D01*
X0007708Y0004701D01*
X0007572Y0004759D01*
X0007437Y0004820D01*
X0007304Y0004885D01*
X0007173Y0004954D01*
X0007044Y0005026D01*
X0006917Y0005102D01*
X0006792Y0005181D01*
X0006669Y0005264D01*
X0006548Y0005349D01*
X0006430Y0005438D01*
X0006314Y0005530D01*
X0006201Y0005626D01*
X0006090Y0005724D01*
X0005982Y0005825D01*
X0005876Y0005929D01*
X0005774Y0006035D01*
X0005674Y0006145D01*
X0005578Y0006257D01*
X0005484Y0006372D01*
X0005393Y0006489D01*
X0005306Y0006608D01*
X0005222Y0006730D01*
X0005141Y0006854D01*
X0005064Y0006980D01*
X0004990Y0007108D01*
X0004919Y0007238D01*
X0004852Y0007370D01*
X0004789Y0007504D01*
X0004729Y0007639D01*
X0004673Y0007776D01*
X0004620Y0007915D01*
X0004572Y0008055D01*
X0004527Y0008196D01*
X0004486Y0008338D01*
X0004448Y0008481D01*
X0004415Y0008625D01*
X0004385Y0008770D01*
X0004359Y0008916D01*
X0004338Y0009062D01*
X0004320Y0009209D01*
X0004306Y0009356D01*
X0004296Y0009504D01*
X0004290Y0009652D01*
X0004288Y0009800D01*
X0004288Y0157800D02*
X0004290Y0157948D01*
X0004296Y0158096D01*
X0004306Y0158244D01*
X0004320Y0158391D01*
X0004338Y0158538D01*
X0004359Y0158684D01*
X0004385Y0158830D01*
X0004415Y0158975D01*
X0004448Y0159119D01*
X0004486Y0159262D01*
X0004527Y0159404D01*
X0004572Y0159545D01*
X0004620Y0159685D01*
X0004673Y0159824D01*
X0004729Y0159961D01*
X0004789Y0160096D01*
X0004852Y0160230D01*
X0004919Y0160362D01*
X0004990Y0160492D01*
X0005064Y0160620D01*
X0005141Y0160746D01*
X0005222Y0160870D01*
X0005306Y0160992D01*
X0005393Y0161111D01*
X0005484Y0161228D01*
X0005578Y0161343D01*
X0005674Y0161455D01*
X0005774Y0161565D01*
X0005876Y0161671D01*
X0005982Y0161775D01*
X0006090Y0161876D01*
X0006201Y0161974D01*
X0006314Y0162070D01*
X0006430Y0162162D01*
X0006548Y0162251D01*
X0006669Y0162336D01*
X0006792Y0162419D01*
X0006917Y0162498D01*
X0007044Y0162574D01*
X0007173Y0162646D01*
X0007304Y0162715D01*
X0007437Y0162780D01*
X0007572Y0162841D01*
X0007708Y0162899D01*
X0007845Y0162954D01*
X0007984Y0163004D01*
X0008125Y0163051D01*
X0008266Y0163094D01*
X0008409Y0163134D01*
X0008553Y0163169D01*
X0008697Y0163201D01*
X0008843Y0163228D01*
X0008989Y0163252D01*
X0009136Y0163272D01*
X0009283Y0163288D01*
X0009430Y0163300D01*
X0009578Y0163308D01*
X0009726Y0163312D01*
X0009874Y0163312D01*
X0010022Y0163308D01*
X0010170Y0163300D01*
X0010317Y0163288D01*
X0010464Y0163272D01*
X0010611Y0163252D01*
X0010757Y0163228D01*
X0010903Y0163201D01*
X0011047Y0163169D01*
X0011191Y0163134D01*
X0011334Y0163094D01*
X0011475Y0163051D01*
X0011616Y0163004D01*
X0011755Y0162954D01*
X0011892Y0162899D01*
X0012028Y0162841D01*
X0012163Y0162780D01*
X0012296Y0162715D01*
X0012427Y0162646D01*
X0012556Y0162574D01*
X0012683Y0162498D01*
X0012808Y0162419D01*
X0012931Y0162336D01*
X0013052Y0162251D01*
X0013170Y0162162D01*
X0013286Y0162070D01*
X0013399Y0161974D01*
X0013510Y0161876D01*
X0013618Y0161775D01*
X0013724Y0161671D01*
X0013826Y0161565D01*
X0013926Y0161455D01*
X0014022Y0161343D01*
X0014116Y0161228D01*
X0014207Y0161111D01*
X0014294Y0160992D01*
X0014378Y0160870D01*
X0014459Y0160746D01*
X0014536Y0160620D01*
X0014610Y0160492D01*
X0014681Y0160362D01*
X0014748Y0160230D01*
X0014811Y0160096D01*
X0014871Y0159961D01*
X0014927Y0159824D01*
X0014980Y0159685D01*
X0015028Y0159545D01*
X0015073Y0159404D01*
X0015114Y0159262D01*
X0015152Y0159119D01*
X0015185Y0158975D01*
X0015215Y0158830D01*
X0015241Y0158684D01*
X0015262Y0158538D01*
X0015280Y0158391D01*
X0015294Y0158244D01*
X0015304Y0158096D01*
X0015310Y0157948D01*
X0015312Y0157800D01*
X0015310Y0157652D01*
X0015304Y0157504D01*
X0015294Y0157356D01*
X0015280Y0157209D01*
X0015262Y0157062D01*
X0015241Y0156916D01*
X0015215Y0156770D01*
X0015185Y0156625D01*
X0015152Y0156481D01*
X0015114Y0156338D01*
X0015073Y0156196D01*
X0015028Y0156055D01*
X0014980Y0155915D01*
X0014927Y0155776D01*
X0014871Y0155639D01*
X0014811Y0155504D01*
X0014748Y0155370D01*
X0014681Y0155238D01*
X0014610Y0155108D01*
X0014536Y0154980D01*
X0014459Y0154854D01*
X0014378Y0154730D01*
X0014294Y0154608D01*
X0014207Y0154489D01*
X0014116Y0154372D01*
X0014022Y0154257D01*
X0013926Y0154145D01*
X0013826Y0154035D01*
X0013724Y0153929D01*
X0013618Y0153825D01*
X0013510Y0153724D01*
X0013399Y0153626D01*
X0013286Y0153530D01*
X0013170Y0153438D01*
X0013052Y0153349D01*
X0012931Y0153264D01*
X0012808Y0153181D01*
X0012683Y0153102D01*
X0012556Y0153026D01*
X0012427Y0152954D01*
X0012296Y0152885D01*
X0012163Y0152820D01*
X0012028Y0152759D01*
X0011892Y0152701D01*
X0011755Y0152646D01*
X0011616Y0152596D01*
X0011475Y0152549D01*
X0011334Y0152506D01*
X0011191Y0152466D01*
X0011047Y0152431D01*
X0010903Y0152399D01*
X0010757Y0152372D01*
X0010611Y0152348D01*
X0010464Y0152328D01*
X0010317Y0152312D01*
X0010170Y0152300D01*
X0010022Y0152292D01*
X0009874Y0152288D01*
X0009726Y0152288D01*
X0009578Y0152292D01*
X0009430Y0152300D01*
X0009283Y0152312D01*
X0009136Y0152328D01*
X0008989Y0152348D01*
X0008843Y0152372D01*
X0008697Y0152399D01*
X0008553Y0152431D01*
X0008409Y0152466D01*
X0008266Y0152506D01*
X0008125Y0152549D01*
X0007984Y0152596D01*
X0007845Y0152646D01*
X0007708Y0152701D01*
X0007572Y0152759D01*
X0007437Y0152820D01*
X0007304Y0152885D01*
X0007173Y0152954D01*
X0007044Y0153026D01*
X0006917Y0153102D01*
X0006792Y0153181D01*
X0006669Y0153264D01*
X0006548Y0153349D01*
X0006430Y0153438D01*
X0006314Y0153530D01*
X0006201Y0153626D01*
X0006090Y0153724D01*
X0005982Y0153825D01*
X0005876Y0153929D01*
X0005774Y0154035D01*
X0005674Y0154145D01*
X0005578Y0154257D01*
X0005484Y0154372D01*
X0005393Y0154489D01*
X0005306Y0154608D01*
X0005222Y0154730D01*
X0005141Y0154854D01*
X0005064Y0154980D01*
X0004990Y0155108D01*
X0004919Y0155238D01*
X0004852Y0155370D01*
X0004789Y0155504D01*
X0004729Y0155639D01*
X0004673Y0155776D01*
X0004620Y0155915D01*
X0004572Y0156055D01*
X0004527Y0156196D01*
X0004486Y0156338D01*
X0004448Y0156481D01*
X0004415Y0156625D01*
X0004385Y0156770D01*
X0004359Y0156916D01*
X0004338Y0157062D01*
X0004320Y0157209D01*
X0004306Y0157356D01*
X0004296Y0157504D01*
X0004290Y0157652D01*
X0004288Y0157800D01*
X0246288Y0157800D02*
X0246290Y0157948D01*
X0246296Y0158096D01*
X0246306Y0158244D01*
X0246320Y0158391D01*
X0246338Y0158538D01*
X0246359Y0158684D01*
X0246385Y0158830D01*
X0246415Y0158975D01*
X0246448Y0159119D01*
X0246486Y0159262D01*
X0246527Y0159404D01*
X0246572Y0159545D01*
X0246620Y0159685D01*
X0246673Y0159824D01*
X0246729Y0159961D01*
X0246789Y0160096D01*
X0246852Y0160230D01*
X0246919Y0160362D01*
X0246990Y0160492D01*
X0247064Y0160620D01*
X0247141Y0160746D01*
X0247222Y0160870D01*
X0247306Y0160992D01*
X0247393Y0161111D01*
X0247484Y0161228D01*
X0247578Y0161343D01*
X0247674Y0161455D01*
X0247774Y0161565D01*
X0247876Y0161671D01*
X0247982Y0161775D01*
X0248090Y0161876D01*
X0248201Y0161974D01*
X0248314Y0162070D01*
X0248430Y0162162D01*
X0248548Y0162251D01*
X0248669Y0162336D01*
X0248792Y0162419D01*
X0248917Y0162498D01*
X0249044Y0162574D01*
X0249173Y0162646D01*
X0249304Y0162715D01*
X0249437Y0162780D01*
X0249572Y0162841D01*
X0249708Y0162899D01*
X0249845Y0162954D01*
X0249984Y0163004D01*
X0250125Y0163051D01*
X0250266Y0163094D01*
X0250409Y0163134D01*
X0250553Y0163169D01*
X0250697Y0163201D01*
X0250843Y0163228D01*
X0250989Y0163252D01*
X0251136Y0163272D01*
X0251283Y0163288D01*
X0251430Y0163300D01*
X0251578Y0163308D01*
X0251726Y0163312D01*
X0251874Y0163312D01*
X0252022Y0163308D01*
X0252170Y0163300D01*
X0252317Y0163288D01*
X0252464Y0163272D01*
X0252611Y0163252D01*
X0252757Y0163228D01*
X0252903Y0163201D01*
X0253047Y0163169D01*
X0253191Y0163134D01*
X0253334Y0163094D01*
X0253475Y0163051D01*
X0253616Y0163004D01*
X0253755Y0162954D01*
X0253892Y0162899D01*
X0254028Y0162841D01*
X0254163Y0162780D01*
X0254296Y0162715D01*
X0254427Y0162646D01*
X0254556Y0162574D01*
X0254683Y0162498D01*
X0254808Y0162419D01*
X0254931Y0162336D01*
X0255052Y0162251D01*
X0255170Y0162162D01*
X0255286Y0162070D01*
X0255399Y0161974D01*
X0255510Y0161876D01*
X0255618Y0161775D01*
X0255724Y0161671D01*
X0255826Y0161565D01*
X0255926Y0161455D01*
X0256022Y0161343D01*
X0256116Y0161228D01*
X0256207Y0161111D01*
X0256294Y0160992D01*
X0256378Y0160870D01*
X0256459Y0160746D01*
X0256536Y0160620D01*
X0256610Y0160492D01*
X0256681Y0160362D01*
X0256748Y0160230D01*
X0256811Y0160096D01*
X0256871Y0159961D01*
X0256927Y0159824D01*
X0256980Y0159685D01*
X0257028Y0159545D01*
X0257073Y0159404D01*
X0257114Y0159262D01*
X0257152Y0159119D01*
X0257185Y0158975D01*
X0257215Y0158830D01*
X0257241Y0158684D01*
X0257262Y0158538D01*
X0257280Y0158391D01*
X0257294Y0158244D01*
X0257304Y0158096D01*
X0257310Y0157948D01*
X0257312Y0157800D01*
X0257310Y0157652D01*
X0257304Y0157504D01*
X0257294Y0157356D01*
X0257280Y0157209D01*
X0257262Y0157062D01*
X0257241Y0156916D01*
X0257215Y0156770D01*
X0257185Y0156625D01*
X0257152Y0156481D01*
X0257114Y0156338D01*
X0257073Y0156196D01*
X0257028Y0156055D01*
X0256980Y0155915D01*
X0256927Y0155776D01*
X0256871Y0155639D01*
X0256811Y0155504D01*
X0256748Y0155370D01*
X0256681Y0155238D01*
X0256610Y0155108D01*
X0256536Y0154980D01*
X0256459Y0154854D01*
X0256378Y0154730D01*
X0256294Y0154608D01*
X0256207Y0154489D01*
X0256116Y0154372D01*
X0256022Y0154257D01*
X0255926Y0154145D01*
X0255826Y0154035D01*
X0255724Y0153929D01*
X0255618Y0153825D01*
X0255510Y0153724D01*
X0255399Y0153626D01*
X0255286Y0153530D01*
X0255170Y0153438D01*
X0255052Y0153349D01*
X0254931Y0153264D01*
X0254808Y0153181D01*
X0254683Y0153102D01*
X0254556Y0153026D01*
X0254427Y0152954D01*
X0254296Y0152885D01*
X0254163Y0152820D01*
X0254028Y0152759D01*
X0253892Y0152701D01*
X0253755Y0152646D01*
X0253616Y0152596D01*
X0253475Y0152549D01*
X0253334Y0152506D01*
X0253191Y0152466D01*
X0253047Y0152431D01*
X0252903Y0152399D01*
X0252757Y0152372D01*
X0252611Y0152348D01*
X0252464Y0152328D01*
X0252317Y0152312D01*
X0252170Y0152300D01*
X0252022Y0152292D01*
X0251874Y0152288D01*
X0251726Y0152288D01*
X0251578Y0152292D01*
X0251430Y0152300D01*
X0251283Y0152312D01*
X0251136Y0152328D01*
X0250989Y0152348D01*
X0250843Y0152372D01*
X0250697Y0152399D01*
X0250553Y0152431D01*
X0250409Y0152466D01*
X0250266Y0152506D01*
X0250125Y0152549D01*
X0249984Y0152596D01*
X0249845Y0152646D01*
X0249708Y0152701D01*
X0249572Y0152759D01*
X0249437Y0152820D01*
X0249304Y0152885D01*
X0249173Y0152954D01*
X0249044Y0153026D01*
X0248917Y0153102D01*
X0248792Y0153181D01*
X0248669Y0153264D01*
X0248548Y0153349D01*
X0248430Y0153438D01*
X0248314Y0153530D01*
X0248201Y0153626D01*
X0248090Y0153724D01*
X0247982Y0153825D01*
X0247876Y0153929D01*
X0247774Y0154035D01*
X0247674Y0154145D01*
X0247578Y0154257D01*
X0247484Y0154372D01*
X0247393Y0154489D01*
X0247306Y0154608D01*
X0247222Y0154730D01*
X0247141Y0154854D01*
X0247064Y0154980D01*
X0246990Y0155108D01*
X0246919Y0155238D01*
X0246852Y0155370D01*
X0246789Y0155504D01*
X0246729Y0155639D01*
X0246673Y0155776D01*
X0246620Y0155915D01*
X0246572Y0156055D01*
X0246527Y0156196D01*
X0246486Y0156338D01*
X0246448Y0156481D01*
X0246415Y0156625D01*
X0246385Y0156770D01*
X0246359Y0156916D01*
X0246338Y0157062D01*
X0246320Y0157209D01*
X0246306Y0157356D01*
X0246296Y0157504D01*
X0246290Y0157652D01*
X0246288Y0157800D01*
X0246288Y0009800D02*
X0246290Y0009948D01*
X0246296Y0010096D01*
X0246306Y0010244D01*
X0246320Y0010391D01*
X0246338Y0010538D01*
X0246359Y0010684D01*
X0246385Y0010830D01*
X0246415Y0010975D01*
X0246448Y0011119D01*
X0246486Y0011262D01*
X0246527Y0011404D01*
X0246572Y0011545D01*
X0246620Y0011685D01*
X0246673Y0011824D01*
X0246729Y0011961D01*
X0246789Y0012096D01*
X0246852Y0012230D01*
X0246919Y0012362D01*
X0246990Y0012492D01*
X0247064Y0012620D01*
X0247141Y0012746D01*
X0247222Y0012870D01*
X0247306Y0012992D01*
X0247393Y0013111D01*
X0247484Y0013228D01*
X0247578Y0013343D01*
X0247674Y0013455D01*
X0247774Y0013565D01*
X0247876Y0013671D01*
X0247982Y0013775D01*
X0248090Y0013876D01*
X0248201Y0013974D01*
X0248314Y0014070D01*
X0248430Y0014162D01*
X0248548Y0014251D01*
X0248669Y0014336D01*
X0248792Y0014419D01*
X0248917Y0014498D01*
X0249044Y0014574D01*
X0249173Y0014646D01*
X0249304Y0014715D01*
X0249437Y0014780D01*
X0249572Y0014841D01*
X0249708Y0014899D01*
X0249845Y0014954D01*
X0249984Y0015004D01*
X0250125Y0015051D01*
X0250266Y0015094D01*
X0250409Y0015134D01*
X0250553Y0015169D01*
X0250697Y0015201D01*
X0250843Y0015228D01*
X0250989Y0015252D01*
X0251136Y0015272D01*
X0251283Y0015288D01*
X0251430Y0015300D01*
X0251578Y0015308D01*
X0251726Y0015312D01*
X0251874Y0015312D01*
X0252022Y0015308D01*
X0252170Y0015300D01*
X0252317Y0015288D01*
X0252464Y0015272D01*
X0252611Y0015252D01*
X0252757Y0015228D01*
X0252903Y0015201D01*
X0253047Y0015169D01*
X0253191Y0015134D01*
X0253334Y0015094D01*
X0253475Y0015051D01*
X0253616Y0015004D01*
X0253755Y0014954D01*
X0253892Y0014899D01*
X0254028Y0014841D01*
X0254163Y0014780D01*
X0254296Y0014715D01*
X0254427Y0014646D01*
X0254556Y0014574D01*
X0254683Y0014498D01*
X0254808Y0014419D01*
X0254931Y0014336D01*
X0255052Y0014251D01*
X0255170Y0014162D01*
X0255286Y0014070D01*
X0255399Y0013974D01*
X0255510Y0013876D01*
X0255618Y0013775D01*
X0255724Y0013671D01*
X0255826Y0013565D01*
X0255926Y0013455D01*
X0256022Y0013343D01*
X0256116Y0013228D01*
X0256207Y0013111D01*
X0256294Y0012992D01*
X0256378Y0012870D01*
X0256459Y0012746D01*
X0256536Y0012620D01*
X0256610Y0012492D01*
X0256681Y0012362D01*
X0256748Y0012230D01*
X0256811Y0012096D01*
X0256871Y0011961D01*
X0256927Y0011824D01*
X0256980Y0011685D01*
X0257028Y0011545D01*
X0257073Y0011404D01*
X0257114Y0011262D01*
X0257152Y0011119D01*
X0257185Y0010975D01*
X0257215Y0010830D01*
X0257241Y0010684D01*
X0257262Y0010538D01*
X0257280Y0010391D01*
X0257294Y0010244D01*
X0257304Y0010096D01*
X0257310Y0009948D01*
X0257312Y0009800D01*
X0257310Y0009652D01*
X0257304Y0009504D01*
X0257294Y0009356D01*
X0257280Y0009209D01*
X0257262Y0009062D01*
X0257241Y0008916D01*
X0257215Y0008770D01*
X0257185Y0008625D01*
X0257152Y0008481D01*
X0257114Y0008338D01*
X0257073Y0008196D01*
X0257028Y0008055D01*
X0256980Y0007915D01*
X0256927Y0007776D01*
X0256871Y0007639D01*
X0256811Y0007504D01*
X0256748Y0007370D01*
X0256681Y0007238D01*
X0256610Y0007108D01*
X0256536Y0006980D01*
X0256459Y0006854D01*
X0256378Y0006730D01*
X0256294Y0006608D01*
X0256207Y0006489D01*
X0256116Y0006372D01*
X0256022Y0006257D01*
X0255926Y0006145D01*
X0255826Y0006035D01*
X0255724Y0005929D01*
X0255618Y0005825D01*
X0255510Y0005724D01*
X0255399Y0005626D01*
X0255286Y0005530D01*
X0255170Y0005438D01*
X0255052Y0005349D01*
X0254931Y0005264D01*
X0254808Y0005181D01*
X0254683Y0005102D01*
X0254556Y0005026D01*
X0254427Y0004954D01*
X0254296Y0004885D01*
X0254163Y0004820D01*
X0254028Y0004759D01*
X0253892Y0004701D01*
X0253755Y0004646D01*
X0253616Y0004596D01*
X0253475Y0004549D01*
X0253334Y0004506D01*
X0253191Y0004466D01*
X0253047Y0004431D01*
X0252903Y0004399D01*
X0252757Y0004372D01*
X0252611Y0004348D01*
X0252464Y0004328D01*
X0252317Y0004312D01*
X0252170Y0004300D01*
X0252022Y0004292D01*
X0251874Y0004288D01*
X0251726Y0004288D01*
X0251578Y0004292D01*
X0251430Y0004300D01*
X0251283Y0004312D01*
X0251136Y0004328D01*
X0250989Y0004348D01*
X0250843Y0004372D01*
X0250697Y0004399D01*
X0250553Y0004431D01*
X0250409Y0004466D01*
X0250266Y0004506D01*
X0250125Y0004549D01*
X0249984Y0004596D01*
X0249845Y0004646D01*
X0249708Y0004701D01*
X0249572Y0004759D01*
X0249437Y0004820D01*
X0249304Y0004885D01*
X0249173Y0004954D01*
X0249044Y0005026D01*
X0248917Y0005102D01*
X0248792Y0005181D01*
X0248669Y0005264D01*
X0248548Y0005349D01*
X0248430Y0005438D01*
X0248314Y0005530D01*
X0248201Y0005626D01*
X0248090Y0005724D01*
X0247982Y0005825D01*
X0247876Y0005929D01*
X0247774Y0006035D01*
X0247674Y0006145D01*
X0247578Y0006257D01*
X0247484Y0006372D01*
X0247393Y0006489D01*
X0247306Y0006608D01*
X0247222Y0006730D01*
X0247141Y0006854D01*
X0247064Y0006980D01*
X0246990Y0007108D01*
X0246919Y0007238D01*
X0246852Y0007370D01*
X0246789Y0007504D01*
X0246729Y0007639D01*
X0246673Y0007776D01*
X0246620Y0007915D01*
X0246572Y0008055D01*
X0246527Y0008196D01*
X0246486Y0008338D01*
X0246448Y0008481D01*
X0246415Y0008625D01*
X0246385Y0008770D01*
X0246359Y0008916D01*
X0246338Y0009062D01*
X0246320Y0009209D01*
X0246306Y0009356D01*
X0246296Y0009504D01*
X0246290Y0009652D01*
X0246288Y0009800D01*
D11*
X0251800Y0009800D03*
X0251800Y0157800D03*
X0009800Y0157800D03*
X0009800Y0009800D03*
D12*
X0001800Y0001800D02*
X0001800Y0165501D01*
X0001800Y0165800D02*
X0259800Y0165800D01*
X0259800Y0001800D01*
X0259721Y0001800D02*
X0001800Y0001800D01*
D13*
X0100020Y0088241D03*
X0100020Y0096115D03*
X0100020Y0103989D03*
X0100020Y0111863D03*
X0100020Y0119737D03*
X0100020Y0127611D03*
X0100020Y0135485D03*
X0100020Y0143359D03*
X0177580Y0143359D03*
X0177580Y0135485D03*
X0177580Y0127611D03*
X0177580Y0119737D03*
X0177580Y0111863D03*
X0177580Y0103989D03*
X0177580Y0096115D03*
X0177580Y0088241D03*
D14*
X0187304Y0067800D03*
X0200296Y0067800D03*
X0202304Y0145800D03*
X0215296Y0145800D03*
X0037296Y0074800D03*
X0024304Y0074800D03*
D15*
X0072800Y0072296D03*
X0072800Y0059304D03*
D16*
X0035706Y0055800D03*
X0023894Y0055800D03*
D17*
X0050961Y0066383D03*
X0053520Y0066383D03*
X0056080Y0066383D03*
X0058639Y0066383D03*
X0058639Y0089217D03*
X0056080Y0089217D03*
X0053520Y0089217D03*
X0050961Y0089217D03*
D18*
X0085800Y0071343D03*
X0085800Y0064257D03*
X0054800Y0060343D03*
X0054800Y0053257D03*
X0126800Y0019343D03*
X0126800Y0012257D03*
X0172800Y0048257D03*
X0172800Y0055343D03*
X0212800Y0063257D03*
X0212800Y0070343D03*
X0212800Y0089257D03*
X0212800Y0096343D03*
D19*
X0204343Y0094800D03*
X0197257Y0094800D03*
X0197257Y0081800D03*
X0204343Y0081800D03*
X0161343Y0055800D03*
X0154257Y0055800D03*
X0154257Y0046800D03*
X0161343Y0046800D03*
X0099343Y0048800D03*
X0092257Y0048800D03*
X0092257Y0056800D03*
X0099343Y0056800D03*
X0084343Y0097800D03*
X0077257Y0097800D03*
X0206257Y0133800D03*
X0213343Y0133800D03*
D20*
X0182800Y0026800D03*
X0172800Y0026800D03*
X0162800Y0026800D03*
X0152800Y0026800D03*
X0152800Y0015800D03*
X0162800Y0015800D03*
X0172800Y0015800D03*
X0182800Y0015800D03*
X0099800Y0015800D03*
X0089800Y0015800D03*
X0079800Y0015800D03*
X0069800Y0015800D03*
X0069800Y0026800D03*
X0079800Y0026800D03*
X0089800Y0026800D03*
X0099800Y0026800D03*
X0033800Y0090800D03*
X0023800Y0090800D03*
D21*
X0070800Y0086800D03*
X0076800Y0086800D03*
X0189800Y0049800D03*
X0195800Y0049800D03*
X0201800Y0049800D03*
D22*
X0073800Y0086800D03*
D23*
X0055621Y0127874D02*
X0054727Y0127607D01*
X0053800Y0127500D01*
X0052865Y0127617D01*
X0051965Y0127894D01*
X0051127Y0128323D01*
X0050376Y0128892D01*
X0049735Y0129582D01*
X0049223Y0130373D01*
X0048857Y0131241D01*
X0048647Y0132159D01*
X0048600Y0133100D01*
X0048695Y0133984D01*
X0048942Y0134838D01*
X0049333Y0135637D01*
X0049857Y0136355D01*
X0050498Y0136971D01*
X0051237Y0137467D01*
X0052050Y0137827D01*
X0052913Y0138040D01*
X0053800Y0138100D01*
X0054695Y0138030D01*
X0055564Y0137807D01*
X0056382Y0137435D01*
X0057122Y0136927D01*
X0057763Y0136299D01*
X0058285Y0135568D01*
X0058672Y0134758D01*
X0058913Y0133894D01*
X0059000Y0133000D01*
X0058945Y0132069D01*
X0058729Y0131161D01*
X0058358Y0130305D01*
X0057845Y0129526D01*
X0057204Y0128848D01*
X0056455Y0128292D01*
X0055621Y0127874D01*
X0055719Y0127923D02*
X0051908Y0127923D01*
X0050997Y0128422D02*
X0056630Y0128422D01*
X0057272Y0128920D02*
X0050349Y0128920D01*
X0049886Y0129419D02*
X0057744Y0129419D01*
X0058103Y0129917D02*
X0049518Y0129917D01*
X0049205Y0130416D02*
X0058406Y0130416D01*
X0058622Y0130914D02*
X0048995Y0130914D01*
X0048818Y0131413D02*
X0058789Y0131413D01*
X0058907Y0131911D02*
X0048704Y0131911D01*
X0048635Y0132410D02*
X0058965Y0132410D01*
X0058995Y0132908D02*
X0048610Y0132908D01*
X0048633Y0133407D02*
X0058960Y0133407D01*
X0058910Y0133905D02*
X0048686Y0133905D01*
X0048816Y0134404D02*
X0058771Y0134404D01*
X0058603Y0134903D02*
X0048973Y0134903D01*
X0049218Y0135401D02*
X0058365Y0135401D01*
X0058048Y0135900D02*
X0049525Y0135900D01*
X0049902Y0136398D02*
X0057662Y0136398D01*
X0057153Y0136897D02*
X0050421Y0136897D01*
X0051130Y0137395D02*
X0056440Y0137395D01*
X0055226Y0137894D02*
X0052321Y0137894D01*
X0030913Y0133894D02*
X0031000Y0133000D01*
X0030945Y0132069D01*
X0030729Y0131161D01*
X0030358Y0130305D01*
X0029845Y0129526D01*
X0029204Y0128848D01*
X0028455Y0128292D01*
X0027621Y0127874D01*
X0026727Y0127607D01*
X0025800Y0127500D01*
X0024865Y0127617D01*
X0023965Y0127894D01*
X0023127Y0128323D01*
X0022376Y0128892D01*
X0021735Y0129582D01*
X0021223Y0130373D01*
X0020857Y0131241D01*
X0020647Y0132159D01*
X0020600Y0133100D01*
X0020695Y0133984D01*
X0020942Y0134838D01*
X0021333Y0135637D01*
X0021857Y0136355D01*
X0022498Y0136971D01*
X0023237Y0137467D01*
X0024050Y0137827D01*
X0024913Y0138040D01*
X0025800Y0138100D01*
X0026695Y0138030D01*
X0027564Y0137807D01*
X0028382Y0137435D01*
X0029122Y0136927D01*
X0029763Y0136299D01*
X0030285Y0135568D01*
X0030672Y0134758D01*
X0030913Y0133894D01*
X0030910Y0133905D02*
X0020686Y0133905D01*
X0020633Y0133407D02*
X0030960Y0133407D01*
X0030995Y0132908D02*
X0020610Y0132908D01*
X0020635Y0132410D02*
X0030965Y0132410D01*
X0030907Y0131911D02*
X0020704Y0131911D01*
X0020818Y0131413D02*
X0030789Y0131413D01*
X0030622Y0130914D02*
X0020995Y0130914D01*
X0021205Y0130416D02*
X0030406Y0130416D01*
X0030103Y0129917D02*
X0021518Y0129917D01*
X0021886Y0129419D02*
X0029744Y0129419D01*
X0029272Y0128920D02*
X0022349Y0128920D01*
X0022997Y0128422D02*
X0028630Y0128422D01*
X0027719Y0127923D02*
X0023908Y0127923D01*
X0020816Y0134404D02*
X0030771Y0134404D01*
X0030603Y0134903D02*
X0020973Y0134903D01*
X0021218Y0135401D02*
X0030365Y0135401D01*
X0030048Y0135900D02*
X0021525Y0135900D01*
X0021902Y0136398D02*
X0029662Y0136398D01*
X0029153Y0136897D02*
X0022421Y0136897D01*
X0023130Y0137395D02*
X0028440Y0137395D01*
X0027226Y0137894D02*
X0024321Y0137894D01*
X0025800Y0040100D02*
X0026735Y0039983D01*
X0027635Y0039706D01*
X0028473Y0039277D01*
X0029224Y0038708D01*
X0029865Y0038018D01*
X0030377Y0037227D01*
X0030743Y0036359D01*
X0030953Y0035441D01*
X0031000Y0034500D01*
X0030905Y0033616D01*
X0030658Y0032762D01*
X0030267Y0031963D01*
X0029743Y0031245D01*
X0029102Y0030629D01*
X0028363Y0030133D01*
X0027550Y0029773D01*
X0026687Y0029560D01*
X0025800Y0029500D01*
X0024905Y0029570D01*
X0024036Y0029793D01*
X0023218Y0030165D01*
X0022478Y0030673D01*
X0021837Y0031301D01*
X0021315Y0032032D01*
X0020928Y0032842D01*
X0020687Y0033706D01*
X0020600Y0034600D01*
X0020655Y0035531D01*
X0020871Y0036439D01*
X0021242Y0037295D01*
X0021755Y0038074D01*
X0022396Y0038752D01*
X0023145Y0039308D01*
X0023979Y0039726D01*
X0024873Y0039993D01*
X0025800Y0040100D01*
X0027672Y0039687D02*
X0023901Y0039687D01*
X0022984Y0039188D02*
X0028590Y0039188D01*
X0029241Y0038690D02*
X0022337Y0038690D01*
X0021866Y0038191D02*
X0029704Y0038191D01*
X0030075Y0037693D02*
X0021504Y0037693D01*
X0021198Y0037194D02*
X0030390Y0037194D01*
X0030601Y0036696D02*
X0020982Y0036696D01*
X0020814Y0036197D02*
X0030780Y0036197D01*
X0030894Y0035699D02*
X0020695Y0035699D01*
X0020636Y0035200D02*
X0030965Y0035200D01*
X0030990Y0034702D02*
X0020606Y0034702D01*
X0020639Y0034203D02*
X0030968Y0034203D01*
X0030915Y0033705D02*
X0020687Y0033705D01*
X0020826Y0033206D02*
X0030787Y0033206D01*
X0030632Y0032708D02*
X0020992Y0032708D01*
X0021230Y0032209D02*
X0030387Y0032209D01*
X0030082Y0031711D02*
X0021544Y0031711D01*
X0021928Y0031212D02*
X0029708Y0031212D01*
X0029190Y0030714D02*
X0022436Y0030714D01*
X0023145Y0030215D02*
X0028485Y0030215D01*
X0027321Y0029717D02*
X0024334Y0029717D01*
X0048687Y0033706D02*
X0048928Y0032842D01*
X0049315Y0032032D01*
X0049837Y0031301D01*
X0050478Y0030673D01*
X0051218Y0030165D01*
X0052036Y0029793D01*
X0052905Y0029570D01*
X0053800Y0029500D01*
X0054687Y0029560D01*
X0055550Y0029773D01*
X0056363Y0030133D01*
X0057102Y0030629D01*
X0057743Y0031245D01*
X0058267Y0031963D01*
X0058658Y0032762D01*
X0058905Y0033616D01*
X0059000Y0034500D01*
X0058953Y0035441D01*
X0058743Y0036359D01*
X0058377Y0037227D01*
X0057865Y0038018D01*
X0057224Y0038708D01*
X0056473Y0039277D01*
X0055635Y0039706D01*
X0054735Y0039983D01*
X0053800Y0040100D01*
X0052873Y0039993D01*
X0051979Y0039726D01*
X0051145Y0039308D01*
X0050396Y0038752D01*
X0049755Y0038074D01*
X0049242Y0037295D01*
X0048871Y0036439D01*
X0048655Y0035531D01*
X0048600Y0034600D01*
X0048687Y0033706D01*
X0048687Y0033705D02*
X0058915Y0033705D01*
X0058968Y0034203D02*
X0048639Y0034203D01*
X0048606Y0034702D02*
X0058990Y0034702D01*
X0058965Y0035200D02*
X0048636Y0035200D01*
X0048695Y0035699D02*
X0058894Y0035699D01*
X0058780Y0036197D02*
X0048814Y0036197D01*
X0048982Y0036696D02*
X0058601Y0036696D01*
X0058390Y0037194D02*
X0049198Y0037194D01*
X0049504Y0037693D02*
X0058075Y0037693D01*
X0057704Y0038191D02*
X0049866Y0038191D01*
X0050337Y0038690D02*
X0057241Y0038690D01*
X0056590Y0039188D02*
X0050984Y0039188D01*
X0051901Y0039687D02*
X0055672Y0039687D01*
X0058787Y0033206D02*
X0048826Y0033206D01*
X0048992Y0032708D02*
X0058632Y0032708D01*
X0058387Y0032209D02*
X0049230Y0032209D01*
X0049544Y0031711D02*
X0058082Y0031711D01*
X0057708Y0031212D02*
X0049928Y0031212D01*
X0050436Y0030714D02*
X0057190Y0030714D01*
X0056485Y0030215D02*
X0051145Y0030215D01*
X0052334Y0029717D02*
X0055321Y0029717D01*
X0190600Y0034600D02*
X0190687Y0033706D01*
X0190928Y0032842D01*
X0191315Y0032032D01*
X0191837Y0031301D01*
X0192478Y0030673D01*
X0193218Y0030165D01*
X0194036Y0029793D01*
X0194905Y0029570D01*
X0195800Y0029500D01*
X0196687Y0029560D01*
X0197550Y0029773D01*
X0198363Y0030133D01*
X0199102Y0030629D01*
X0199743Y0031245D01*
X0200267Y0031963D01*
X0200658Y0032762D01*
X0200905Y0033616D01*
X0201000Y0034500D01*
X0200953Y0035441D01*
X0200743Y0036359D01*
X0200377Y0037227D01*
X0199865Y0038018D01*
X0199224Y0038708D01*
X0198473Y0039277D01*
X0197635Y0039706D01*
X0196735Y0039983D01*
X0195800Y0040100D01*
X0194873Y0039993D01*
X0193979Y0039726D01*
X0193145Y0039308D01*
X0192396Y0038752D01*
X0191755Y0038074D01*
X0191242Y0037295D01*
X0190871Y0036439D01*
X0190655Y0035531D01*
X0190600Y0034600D01*
X0190606Y0034702D02*
X0200990Y0034702D01*
X0200965Y0035200D02*
X0190636Y0035200D01*
X0190695Y0035699D02*
X0200894Y0035699D01*
X0200780Y0036197D02*
X0190814Y0036197D01*
X0190982Y0036696D02*
X0200601Y0036696D01*
X0200390Y0037194D02*
X0191198Y0037194D01*
X0191504Y0037693D02*
X0200075Y0037693D01*
X0199704Y0038191D02*
X0191866Y0038191D01*
X0192337Y0038690D02*
X0199241Y0038690D01*
X0198590Y0039188D02*
X0192984Y0039188D01*
X0193901Y0039687D02*
X0197672Y0039687D01*
X0200968Y0034203D02*
X0190639Y0034203D01*
X0190687Y0033705D02*
X0200915Y0033705D01*
X0200787Y0033206D02*
X0190826Y0033206D01*
X0190992Y0032708D02*
X0200632Y0032708D01*
X0200387Y0032209D02*
X0191230Y0032209D01*
X0191544Y0031711D02*
X0200082Y0031711D01*
X0199708Y0031212D02*
X0191928Y0031212D01*
X0192436Y0030714D02*
X0199190Y0030714D01*
X0198485Y0030215D02*
X0193145Y0030215D01*
X0194334Y0029717D02*
X0197321Y0029717D01*
X0218687Y0033706D02*
X0218928Y0032842D01*
X0219315Y0032032D01*
X0219837Y0031301D01*
X0220478Y0030673D01*
X0221218Y0030165D01*
X0222036Y0029793D01*
X0222905Y0029570D01*
X0223800Y0029500D01*
X0224687Y0029560D01*
X0225550Y0029773D01*
X0226363Y0030133D01*
X0227102Y0030629D01*
X0227743Y0031245D01*
X0228267Y0031963D01*
X0228658Y0032762D01*
X0228905Y0033616D01*
X0229000Y0034500D01*
X0228953Y0035441D01*
X0228743Y0036359D01*
X0228377Y0037227D01*
X0227865Y0038018D01*
X0227224Y0038708D01*
X0226473Y0039277D01*
X0225635Y0039706D01*
X0224735Y0039983D01*
X0223800Y0040100D01*
X0222873Y0039993D01*
X0221979Y0039726D01*
X0221145Y0039308D01*
X0220396Y0038752D01*
X0219755Y0038074D01*
X0219242Y0037295D01*
X0218871Y0036439D01*
X0218655Y0035531D01*
X0218600Y0034600D01*
X0218687Y0033706D01*
X0218687Y0033705D02*
X0228915Y0033705D01*
X0228968Y0034203D02*
X0218639Y0034203D01*
X0218606Y0034702D02*
X0228990Y0034702D01*
X0228965Y0035200D02*
X0218636Y0035200D01*
X0218695Y0035699D02*
X0228894Y0035699D01*
X0228780Y0036197D02*
X0218814Y0036197D01*
X0218982Y0036696D02*
X0228601Y0036696D01*
X0228390Y0037194D02*
X0219198Y0037194D01*
X0219504Y0037693D02*
X0228075Y0037693D01*
X0227704Y0038191D02*
X0219866Y0038191D01*
X0220337Y0038690D02*
X0227241Y0038690D01*
X0226590Y0039188D02*
X0220984Y0039188D01*
X0221901Y0039687D02*
X0225672Y0039687D01*
X0228787Y0033206D02*
X0218826Y0033206D01*
X0218992Y0032708D02*
X0228632Y0032708D01*
X0228387Y0032209D02*
X0219230Y0032209D01*
X0219544Y0031711D02*
X0228082Y0031711D01*
X0227708Y0031212D02*
X0219928Y0031212D01*
X0220436Y0030714D02*
X0227190Y0030714D01*
X0226485Y0030215D02*
X0221145Y0030215D01*
X0222334Y0029717D02*
X0225321Y0029717D01*
X0223800Y0127500D02*
X0222865Y0127617D01*
X0221965Y0127894D01*
X0221127Y0128323D01*
X0220376Y0128892D01*
X0219735Y0129582D01*
X0219223Y0130373D01*
X0218857Y0131241D01*
X0218647Y0132159D01*
X0218600Y0133100D01*
X0218695Y0133984D01*
X0218942Y0134838D01*
X0219333Y0135637D01*
X0219857Y0136355D01*
X0220498Y0136971D01*
X0221237Y0137467D01*
X0222050Y0137827D01*
X0222913Y0138040D01*
X0223800Y0138100D01*
X0224695Y0138030D01*
X0225564Y0137807D01*
X0226382Y0137435D01*
X0227122Y0136927D01*
X0227763Y0136299D01*
X0228285Y0135568D01*
X0228672Y0134758D01*
X0228913Y0133894D01*
X0229000Y0133000D01*
X0228945Y0132069D01*
X0228729Y0131161D01*
X0228358Y0130305D01*
X0227845Y0129526D01*
X0227204Y0128848D01*
X0226455Y0128292D01*
X0225621Y0127874D01*
X0224727Y0127607D01*
X0223800Y0127500D01*
X0221908Y0127923D02*
X0225719Y0127923D01*
X0226630Y0128422D02*
X0220997Y0128422D01*
X0220349Y0128920D02*
X0227272Y0128920D01*
X0227744Y0129419D02*
X0219886Y0129419D01*
X0219518Y0129917D02*
X0228103Y0129917D01*
X0228406Y0130416D02*
X0219205Y0130416D01*
X0218995Y0130914D02*
X0228622Y0130914D01*
X0228789Y0131413D02*
X0218818Y0131413D01*
X0218704Y0131911D02*
X0228907Y0131911D01*
X0228965Y0132410D02*
X0218635Y0132410D01*
X0218610Y0132908D02*
X0228995Y0132908D01*
X0228960Y0133407D02*
X0218633Y0133407D01*
X0218686Y0133905D02*
X0228910Y0133905D01*
X0228771Y0134404D02*
X0218816Y0134404D01*
X0218973Y0134903D02*
X0228603Y0134903D01*
X0228365Y0135401D02*
X0219218Y0135401D01*
X0219525Y0135900D02*
X0228048Y0135900D01*
X0227662Y0136398D02*
X0219902Y0136398D01*
X0220421Y0136897D02*
X0227153Y0136897D01*
X0226440Y0137395D02*
X0221130Y0137395D01*
X0222321Y0137894D02*
X0225226Y0137894D01*
X0200913Y0133894D02*
X0201000Y0133000D01*
X0200945Y0132069D01*
X0200729Y0131161D01*
X0200358Y0130305D01*
X0199845Y0129526D01*
X0199204Y0128848D01*
X0198455Y0128292D01*
X0197621Y0127874D01*
X0196727Y0127607D01*
X0195800Y0127500D01*
X0194865Y0127617D01*
X0193965Y0127894D01*
X0193127Y0128323D01*
X0192376Y0128892D01*
X0191735Y0129582D01*
X0191223Y0130373D01*
X0190857Y0131241D01*
X0190647Y0132159D01*
X0190600Y0133100D01*
X0190695Y0133984D01*
X0190942Y0134838D01*
X0191333Y0135637D01*
X0191857Y0136355D01*
X0192498Y0136971D01*
X0193237Y0137467D01*
X0194050Y0137827D01*
X0194913Y0138040D01*
X0195800Y0138100D01*
X0196695Y0138030D01*
X0197564Y0137807D01*
X0198382Y0137435D01*
X0199122Y0136927D01*
X0199763Y0136299D01*
X0200285Y0135568D01*
X0200672Y0134758D01*
X0200913Y0133894D01*
X0200910Y0133905D02*
X0190686Y0133905D01*
X0190633Y0133407D02*
X0200960Y0133407D01*
X0200995Y0132908D02*
X0190610Y0132908D01*
X0190635Y0132410D02*
X0200965Y0132410D01*
X0200907Y0131911D02*
X0190704Y0131911D01*
X0190818Y0131413D02*
X0200789Y0131413D01*
X0200622Y0130914D02*
X0190995Y0130914D01*
X0191205Y0130416D02*
X0200406Y0130416D01*
X0200103Y0129917D02*
X0191518Y0129917D01*
X0191886Y0129419D02*
X0199744Y0129419D01*
X0199272Y0128920D02*
X0192349Y0128920D01*
X0192997Y0128422D02*
X0198630Y0128422D01*
X0197719Y0127923D02*
X0193908Y0127923D01*
X0190816Y0134404D02*
X0200771Y0134404D01*
X0200603Y0134903D02*
X0190973Y0134903D01*
X0191218Y0135401D02*
X0200365Y0135401D01*
X0200048Y0135900D02*
X0191525Y0135900D01*
X0191902Y0136398D02*
X0199662Y0136398D01*
X0199153Y0136897D02*
X0192421Y0136897D01*
X0193130Y0137395D02*
X0198440Y0137395D01*
X0197226Y0137894D02*
X0194321Y0137894D01*
D24*
X0154706Y0071800D03*
X0148800Y0071800D03*
X0142894Y0071800D03*
D25*
X0142894Y0067666D03*
X0148800Y0067666D03*
X0154706Y0067666D03*
X0154706Y0075934D03*
X0148800Y0075934D03*
X0142894Y0075934D03*
D26*
X0078800Y0114800D03*
X0068800Y0114800D03*
X0068800Y0124800D03*
X0078800Y0124800D03*
X0078800Y0134800D03*
X0068800Y0134800D03*
D27*
X0045446Y0153107D02*
X0032154Y0153107D01*
X0032154Y0160493D01*
X0045446Y0160493D01*
X0045446Y0153107D01*
X0045446Y0155568D02*
X0032154Y0155568D01*
X0032154Y0158029D02*
X0045446Y0158029D01*
X0045446Y0160490D02*
X0032154Y0160490D01*
D28*
X0244800Y0109997D03*
X0244800Y0059603D03*
D29*
X0142700Y0056824D03*
X0142700Y0053674D03*
X0142700Y0050524D03*
X0142700Y0047375D03*
X0142700Y0044225D03*
X0142700Y0041076D03*
X0142700Y0037926D03*
X0142700Y0034776D03*
X0108900Y0034776D03*
X0108900Y0037926D03*
X0108900Y0041076D03*
X0108900Y0044225D03*
X0108900Y0047375D03*
X0108900Y0050524D03*
X0108900Y0053674D03*
X0108900Y0056824D03*
D30*
X0114776Y0062700D03*
X0117926Y0062700D03*
X0121076Y0062700D03*
X0124225Y0062700D03*
X0127375Y0062700D03*
X0130524Y0062700D03*
X0133674Y0062700D03*
X0136824Y0062700D03*
X0136824Y0028900D03*
X0133674Y0028900D03*
X0130524Y0028900D03*
X0127375Y0028900D03*
X0124225Y0028900D03*
X0121076Y0028900D03*
X0117926Y0028900D03*
X0114776Y0028900D03*
D31*
X0171282Y0059829D02*
X0174318Y0059829D01*
X0171282Y0059829D02*
X0171282Y0062865D01*
X0174318Y0062865D01*
X0174318Y0059829D01*
X0174318Y0061129D02*
X0171282Y0061129D01*
X0171282Y0062429D02*
X0174318Y0062429D01*
X0174318Y0066735D02*
X0171282Y0066735D01*
X0171282Y0069771D01*
X0174318Y0069771D01*
X0174318Y0066735D01*
X0174318Y0068035D02*
X0171282Y0068035D01*
X0171282Y0069335D02*
X0174318Y0069335D01*
M02*
