G75*
%MOIN*%
%OFA0B0*%
%FSLAX25Y25*%
%IPPOS*%
%LPD*%
%AMOC8*
5,1,8,0,0,1.08239X$1,22.5*
%
%ADD10C,0.00000*%
%ADD11C,0.01200*%
%ADD12C,0.00300*%
%ADD13R,0.06250X0.01250*%
%ADD14R,0.01250X0.06250*%
%ADD15C,0.00800*%
%ADD16R,0.23750X0.01250*%
%ADD17R,0.01400X0.13600*%
%ADD18C,0.00400*%
%ADD19C,0.00500*%
%ADD20C,0.00600*%
%ADD21R,0.01181X0.03937*%
D10*
X0003863Y0007800D02*
X0003865Y0007925D01*
X0003871Y0008050D01*
X0003881Y0008174D01*
X0003895Y0008298D01*
X0003912Y0008422D01*
X0003934Y0008545D01*
X0003960Y0008667D01*
X0003989Y0008789D01*
X0004022Y0008909D01*
X0004060Y0009028D01*
X0004100Y0009147D01*
X0004145Y0009263D01*
X0004193Y0009378D01*
X0004245Y0009492D01*
X0004301Y0009604D01*
X0004360Y0009714D01*
X0004422Y0009822D01*
X0004488Y0009929D01*
X0004557Y0010033D01*
X0004630Y0010134D01*
X0004705Y0010234D01*
X0004784Y0010331D01*
X0004866Y0010425D01*
X0004951Y0010517D01*
X0005038Y0010606D01*
X0005129Y0010692D01*
X0005222Y0010775D01*
X0005318Y0010856D01*
X0005416Y0010933D01*
X0005516Y0011007D01*
X0005619Y0011078D01*
X0005724Y0011145D01*
X0005832Y0011210D01*
X0005941Y0011270D01*
X0006052Y0011328D01*
X0006165Y0011381D01*
X0006279Y0011431D01*
X0006395Y0011478D01*
X0006512Y0011520D01*
X0006631Y0011559D01*
X0006751Y0011595D01*
X0006872Y0011626D01*
X0006994Y0011654D01*
X0007116Y0011677D01*
X0007240Y0011697D01*
X0007364Y0011713D01*
X0007488Y0011725D01*
X0007613Y0011733D01*
X0007738Y0011737D01*
X0007862Y0011737D01*
X0007987Y0011733D01*
X0008112Y0011725D01*
X0008236Y0011713D01*
X0008360Y0011697D01*
X0008484Y0011677D01*
X0008606Y0011654D01*
X0008728Y0011626D01*
X0008849Y0011595D01*
X0008969Y0011559D01*
X0009088Y0011520D01*
X0009205Y0011478D01*
X0009321Y0011431D01*
X0009435Y0011381D01*
X0009548Y0011328D01*
X0009659Y0011270D01*
X0009769Y0011210D01*
X0009876Y0011145D01*
X0009981Y0011078D01*
X0010084Y0011007D01*
X0010184Y0010933D01*
X0010282Y0010856D01*
X0010378Y0010775D01*
X0010471Y0010692D01*
X0010562Y0010606D01*
X0010649Y0010517D01*
X0010734Y0010425D01*
X0010816Y0010331D01*
X0010895Y0010234D01*
X0010970Y0010134D01*
X0011043Y0010033D01*
X0011112Y0009929D01*
X0011178Y0009822D01*
X0011240Y0009714D01*
X0011299Y0009604D01*
X0011355Y0009492D01*
X0011407Y0009378D01*
X0011455Y0009263D01*
X0011500Y0009147D01*
X0011540Y0009028D01*
X0011578Y0008909D01*
X0011611Y0008789D01*
X0011640Y0008667D01*
X0011666Y0008545D01*
X0011688Y0008422D01*
X0011705Y0008298D01*
X0011719Y0008174D01*
X0011729Y0008050D01*
X0011735Y0007925D01*
X0011737Y0007800D01*
X0011735Y0007675D01*
X0011729Y0007550D01*
X0011719Y0007426D01*
X0011705Y0007302D01*
X0011688Y0007178D01*
X0011666Y0007055D01*
X0011640Y0006933D01*
X0011611Y0006811D01*
X0011578Y0006691D01*
X0011540Y0006572D01*
X0011500Y0006453D01*
X0011455Y0006337D01*
X0011407Y0006222D01*
X0011355Y0006108D01*
X0011299Y0005996D01*
X0011240Y0005886D01*
X0011178Y0005778D01*
X0011112Y0005671D01*
X0011043Y0005567D01*
X0010970Y0005466D01*
X0010895Y0005366D01*
X0010816Y0005269D01*
X0010734Y0005175D01*
X0010649Y0005083D01*
X0010562Y0004994D01*
X0010471Y0004908D01*
X0010378Y0004825D01*
X0010282Y0004744D01*
X0010184Y0004667D01*
X0010084Y0004593D01*
X0009981Y0004522D01*
X0009876Y0004455D01*
X0009768Y0004390D01*
X0009659Y0004330D01*
X0009548Y0004272D01*
X0009435Y0004219D01*
X0009321Y0004169D01*
X0009205Y0004122D01*
X0009088Y0004080D01*
X0008969Y0004041D01*
X0008849Y0004005D01*
X0008728Y0003974D01*
X0008606Y0003946D01*
X0008484Y0003923D01*
X0008360Y0003903D01*
X0008236Y0003887D01*
X0008112Y0003875D01*
X0007987Y0003867D01*
X0007862Y0003863D01*
X0007738Y0003863D01*
X0007613Y0003867D01*
X0007488Y0003875D01*
X0007364Y0003887D01*
X0007240Y0003903D01*
X0007116Y0003923D01*
X0006994Y0003946D01*
X0006872Y0003974D01*
X0006751Y0004005D01*
X0006631Y0004041D01*
X0006512Y0004080D01*
X0006395Y0004122D01*
X0006279Y0004169D01*
X0006165Y0004219D01*
X0006052Y0004272D01*
X0005941Y0004330D01*
X0005831Y0004390D01*
X0005724Y0004455D01*
X0005619Y0004522D01*
X0005516Y0004593D01*
X0005416Y0004667D01*
X0005318Y0004744D01*
X0005222Y0004825D01*
X0005129Y0004908D01*
X0005038Y0004994D01*
X0004951Y0005083D01*
X0004866Y0005175D01*
X0004784Y0005269D01*
X0004705Y0005366D01*
X0004630Y0005466D01*
X0004557Y0005567D01*
X0004488Y0005671D01*
X0004422Y0005778D01*
X0004360Y0005886D01*
X0004301Y0005996D01*
X0004245Y0006108D01*
X0004193Y0006222D01*
X0004145Y0006337D01*
X0004100Y0006453D01*
X0004060Y0006572D01*
X0004022Y0006691D01*
X0003989Y0006811D01*
X0003960Y0006933D01*
X0003934Y0007055D01*
X0003912Y0007178D01*
X0003895Y0007302D01*
X0003881Y0007426D01*
X0003871Y0007550D01*
X0003865Y0007675D01*
X0003863Y0007800D01*
X0003863Y0160800D02*
X0003865Y0160925D01*
X0003871Y0161050D01*
X0003881Y0161174D01*
X0003895Y0161298D01*
X0003912Y0161422D01*
X0003934Y0161545D01*
X0003960Y0161667D01*
X0003989Y0161789D01*
X0004022Y0161909D01*
X0004060Y0162028D01*
X0004100Y0162147D01*
X0004145Y0162263D01*
X0004193Y0162378D01*
X0004245Y0162492D01*
X0004301Y0162604D01*
X0004360Y0162714D01*
X0004422Y0162822D01*
X0004488Y0162929D01*
X0004557Y0163033D01*
X0004630Y0163134D01*
X0004705Y0163234D01*
X0004784Y0163331D01*
X0004866Y0163425D01*
X0004951Y0163517D01*
X0005038Y0163606D01*
X0005129Y0163692D01*
X0005222Y0163775D01*
X0005318Y0163856D01*
X0005416Y0163933D01*
X0005516Y0164007D01*
X0005619Y0164078D01*
X0005724Y0164145D01*
X0005832Y0164210D01*
X0005941Y0164270D01*
X0006052Y0164328D01*
X0006165Y0164381D01*
X0006279Y0164431D01*
X0006395Y0164478D01*
X0006512Y0164520D01*
X0006631Y0164559D01*
X0006751Y0164595D01*
X0006872Y0164626D01*
X0006994Y0164654D01*
X0007116Y0164677D01*
X0007240Y0164697D01*
X0007364Y0164713D01*
X0007488Y0164725D01*
X0007613Y0164733D01*
X0007738Y0164737D01*
X0007862Y0164737D01*
X0007987Y0164733D01*
X0008112Y0164725D01*
X0008236Y0164713D01*
X0008360Y0164697D01*
X0008484Y0164677D01*
X0008606Y0164654D01*
X0008728Y0164626D01*
X0008849Y0164595D01*
X0008969Y0164559D01*
X0009088Y0164520D01*
X0009205Y0164478D01*
X0009321Y0164431D01*
X0009435Y0164381D01*
X0009548Y0164328D01*
X0009659Y0164270D01*
X0009769Y0164210D01*
X0009876Y0164145D01*
X0009981Y0164078D01*
X0010084Y0164007D01*
X0010184Y0163933D01*
X0010282Y0163856D01*
X0010378Y0163775D01*
X0010471Y0163692D01*
X0010562Y0163606D01*
X0010649Y0163517D01*
X0010734Y0163425D01*
X0010816Y0163331D01*
X0010895Y0163234D01*
X0010970Y0163134D01*
X0011043Y0163033D01*
X0011112Y0162929D01*
X0011178Y0162822D01*
X0011240Y0162714D01*
X0011299Y0162604D01*
X0011355Y0162492D01*
X0011407Y0162378D01*
X0011455Y0162263D01*
X0011500Y0162147D01*
X0011540Y0162028D01*
X0011578Y0161909D01*
X0011611Y0161789D01*
X0011640Y0161667D01*
X0011666Y0161545D01*
X0011688Y0161422D01*
X0011705Y0161298D01*
X0011719Y0161174D01*
X0011729Y0161050D01*
X0011735Y0160925D01*
X0011737Y0160800D01*
X0011735Y0160675D01*
X0011729Y0160550D01*
X0011719Y0160426D01*
X0011705Y0160302D01*
X0011688Y0160178D01*
X0011666Y0160055D01*
X0011640Y0159933D01*
X0011611Y0159811D01*
X0011578Y0159691D01*
X0011540Y0159572D01*
X0011500Y0159453D01*
X0011455Y0159337D01*
X0011407Y0159222D01*
X0011355Y0159108D01*
X0011299Y0158996D01*
X0011240Y0158886D01*
X0011178Y0158778D01*
X0011112Y0158671D01*
X0011043Y0158567D01*
X0010970Y0158466D01*
X0010895Y0158366D01*
X0010816Y0158269D01*
X0010734Y0158175D01*
X0010649Y0158083D01*
X0010562Y0157994D01*
X0010471Y0157908D01*
X0010378Y0157825D01*
X0010282Y0157744D01*
X0010184Y0157667D01*
X0010084Y0157593D01*
X0009981Y0157522D01*
X0009876Y0157455D01*
X0009768Y0157390D01*
X0009659Y0157330D01*
X0009548Y0157272D01*
X0009435Y0157219D01*
X0009321Y0157169D01*
X0009205Y0157122D01*
X0009088Y0157080D01*
X0008969Y0157041D01*
X0008849Y0157005D01*
X0008728Y0156974D01*
X0008606Y0156946D01*
X0008484Y0156923D01*
X0008360Y0156903D01*
X0008236Y0156887D01*
X0008112Y0156875D01*
X0007987Y0156867D01*
X0007862Y0156863D01*
X0007738Y0156863D01*
X0007613Y0156867D01*
X0007488Y0156875D01*
X0007364Y0156887D01*
X0007240Y0156903D01*
X0007116Y0156923D01*
X0006994Y0156946D01*
X0006872Y0156974D01*
X0006751Y0157005D01*
X0006631Y0157041D01*
X0006512Y0157080D01*
X0006395Y0157122D01*
X0006279Y0157169D01*
X0006165Y0157219D01*
X0006052Y0157272D01*
X0005941Y0157330D01*
X0005831Y0157390D01*
X0005724Y0157455D01*
X0005619Y0157522D01*
X0005516Y0157593D01*
X0005416Y0157667D01*
X0005318Y0157744D01*
X0005222Y0157825D01*
X0005129Y0157908D01*
X0005038Y0157994D01*
X0004951Y0158083D01*
X0004866Y0158175D01*
X0004784Y0158269D01*
X0004705Y0158366D01*
X0004630Y0158466D01*
X0004557Y0158567D01*
X0004488Y0158671D01*
X0004422Y0158778D01*
X0004360Y0158886D01*
X0004301Y0158996D01*
X0004245Y0159108D01*
X0004193Y0159222D01*
X0004145Y0159337D01*
X0004100Y0159453D01*
X0004060Y0159572D01*
X0004022Y0159691D01*
X0003989Y0159811D01*
X0003960Y0159933D01*
X0003934Y0160055D01*
X0003912Y0160178D01*
X0003895Y0160302D01*
X0003881Y0160426D01*
X0003871Y0160550D01*
X0003865Y0160675D01*
X0003863Y0160800D01*
X0189863Y0160800D02*
X0189865Y0160925D01*
X0189871Y0161050D01*
X0189881Y0161174D01*
X0189895Y0161298D01*
X0189912Y0161422D01*
X0189934Y0161545D01*
X0189960Y0161667D01*
X0189989Y0161789D01*
X0190022Y0161909D01*
X0190060Y0162028D01*
X0190100Y0162147D01*
X0190145Y0162263D01*
X0190193Y0162378D01*
X0190245Y0162492D01*
X0190301Y0162604D01*
X0190360Y0162714D01*
X0190422Y0162822D01*
X0190488Y0162929D01*
X0190557Y0163033D01*
X0190630Y0163134D01*
X0190705Y0163234D01*
X0190784Y0163331D01*
X0190866Y0163425D01*
X0190951Y0163517D01*
X0191038Y0163606D01*
X0191129Y0163692D01*
X0191222Y0163775D01*
X0191318Y0163856D01*
X0191416Y0163933D01*
X0191516Y0164007D01*
X0191619Y0164078D01*
X0191724Y0164145D01*
X0191832Y0164210D01*
X0191941Y0164270D01*
X0192052Y0164328D01*
X0192165Y0164381D01*
X0192279Y0164431D01*
X0192395Y0164478D01*
X0192512Y0164520D01*
X0192631Y0164559D01*
X0192751Y0164595D01*
X0192872Y0164626D01*
X0192994Y0164654D01*
X0193116Y0164677D01*
X0193240Y0164697D01*
X0193364Y0164713D01*
X0193488Y0164725D01*
X0193613Y0164733D01*
X0193738Y0164737D01*
X0193862Y0164737D01*
X0193987Y0164733D01*
X0194112Y0164725D01*
X0194236Y0164713D01*
X0194360Y0164697D01*
X0194484Y0164677D01*
X0194606Y0164654D01*
X0194728Y0164626D01*
X0194849Y0164595D01*
X0194969Y0164559D01*
X0195088Y0164520D01*
X0195205Y0164478D01*
X0195321Y0164431D01*
X0195435Y0164381D01*
X0195548Y0164328D01*
X0195659Y0164270D01*
X0195769Y0164210D01*
X0195876Y0164145D01*
X0195981Y0164078D01*
X0196084Y0164007D01*
X0196184Y0163933D01*
X0196282Y0163856D01*
X0196378Y0163775D01*
X0196471Y0163692D01*
X0196562Y0163606D01*
X0196649Y0163517D01*
X0196734Y0163425D01*
X0196816Y0163331D01*
X0196895Y0163234D01*
X0196970Y0163134D01*
X0197043Y0163033D01*
X0197112Y0162929D01*
X0197178Y0162822D01*
X0197240Y0162714D01*
X0197299Y0162604D01*
X0197355Y0162492D01*
X0197407Y0162378D01*
X0197455Y0162263D01*
X0197500Y0162147D01*
X0197540Y0162028D01*
X0197578Y0161909D01*
X0197611Y0161789D01*
X0197640Y0161667D01*
X0197666Y0161545D01*
X0197688Y0161422D01*
X0197705Y0161298D01*
X0197719Y0161174D01*
X0197729Y0161050D01*
X0197735Y0160925D01*
X0197737Y0160800D01*
X0197735Y0160675D01*
X0197729Y0160550D01*
X0197719Y0160426D01*
X0197705Y0160302D01*
X0197688Y0160178D01*
X0197666Y0160055D01*
X0197640Y0159933D01*
X0197611Y0159811D01*
X0197578Y0159691D01*
X0197540Y0159572D01*
X0197500Y0159453D01*
X0197455Y0159337D01*
X0197407Y0159222D01*
X0197355Y0159108D01*
X0197299Y0158996D01*
X0197240Y0158886D01*
X0197178Y0158778D01*
X0197112Y0158671D01*
X0197043Y0158567D01*
X0196970Y0158466D01*
X0196895Y0158366D01*
X0196816Y0158269D01*
X0196734Y0158175D01*
X0196649Y0158083D01*
X0196562Y0157994D01*
X0196471Y0157908D01*
X0196378Y0157825D01*
X0196282Y0157744D01*
X0196184Y0157667D01*
X0196084Y0157593D01*
X0195981Y0157522D01*
X0195876Y0157455D01*
X0195768Y0157390D01*
X0195659Y0157330D01*
X0195548Y0157272D01*
X0195435Y0157219D01*
X0195321Y0157169D01*
X0195205Y0157122D01*
X0195088Y0157080D01*
X0194969Y0157041D01*
X0194849Y0157005D01*
X0194728Y0156974D01*
X0194606Y0156946D01*
X0194484Y0156923D01*
X0194360Y0156903D01*
X0194236Y0156887D01*
X0194112Y0156875D01*
X0193987Y0156867D01*
X0193862Y0156863D01*
X0193738Y0156863D01*
X0193613Y0156867D01*
X0193488Y0156875D01*
X0193364Y0156887D01*
X0193240Y0156903D01*
X0193116Y0156923D01*
X0192994Y0156946D01*
X0192872Y0156974D01*
X0192751Y0157005D01*
X0192631Y0157041D01*
X0192512Y0157080D01*
X0192395Y0157122D01*
X0192279Y0157169D01*
X0192165Y0157219D01*
X0192052Y0157272D01*
X0191941Y0157330D01*
X0191831Y0157390D01*
X0191724Y0157455D01*
X0191619Y0157522D01*
X0191516Y0157593D01*
X0191416Y0157667D01*
X0191318Y0157744D01*
X0191222Y0157825D01*
X0191129Y0157908D01*
X0191038Y0157994D01*
X0190951Y0158083D01*
X0190866Y0158175D01*
X0190784Y0158269D01*
X0190705Y0158366D01*
X0190630Y0158466D01*
X0190557Y0158567D01*
X0190488Y0158671D01*
X0190422Y0158778D01*
X0190360Y0158886D01*
X0190301Y0158996D01*
X0190245Y0159108D01*
X0190193Y0159222D01*
X0190145Y0159337D01*
X0190100Y0159453D01*
X0190060Y0159572D01*
X0190022Y0159691D01*
X0189989Y0159811D01*
X0189960Y0159933D01*
X0189934Y0160055D01*
X0189912Y0160178D01*
X0189895Y0160302D01*
X0189881Y0160426D01*
X0189871Y0160550D01*
X0189865Y0160675D01*
X0189863Y0160800D01*
X0189863Y0007800D02*
X0189865Y0007925D01*
X0189871Y0008050D01*
X0189881Y0008174D01*
X0189895Y0008298D01*
X0189912Y0008422D01*
X0189934Y0008545D01*
X0189960Y0008667D01*
X0189989Y0008789D01*
X0190022Y0008909D01*
X0190060Y0009028D01*
X0190100Y0009147D01*
X0190145Y0009263D01*
X0190193Y0009378D01*
X0190245Y0009492D01*
X0190301Y0009604D01*
X0190360Y0009714D01*
X0190422Y0009822D01*
X0190488Y0009929D01*
X0190557Y0010033D01*
X0190630Y0010134D01*
X0190705Y0010234D01*
X0190784Y0010331D01*
X0190866Y0010425D01*
X0190951Y0010517D01*
X0191038Y0010606D01*
X0191129Y0010692D01*
X0191222Y0010775D01*
X0191318Y0010856D01*
X0191416Y0010933D01*
X0191516Y0011007D01*
X0191619Y0011078D01*
X0191724Y0011145D01*
X0191832Y0011210D01*
X0191941Y0011270D01*
X0192052Y0011328D01*
X0192165Y0011381D01*
X0192279Y0011431D01*
X0192395Y0011478D01*
X0192512Y0011520D01*
X0192631Y0011559D01*
X0192751Y0011595D01*
X0192872Y0011626D01*
X0192994Y0011654D01*
X0193116Y0011677D01*
X0193240Y0011697D01*
X0193364Y0011713D01*
X0193488Y0011725D01*
X0193613Y0011733D01*
X0193738Y0011737D01*
X0193862Y0011737D01*
X0193987Y0011733D01*
X0194112Y0011725D01*
X0194236Y0011713D01*
X0194360Y0011697D01*
X0194484Y0011677D01*
X0194606Y0011654D01*
X0194728Y0011626D01*
X0194849Y0011595D01*
X0194969Y0011559D01*
X0195088Y0011520D01*
X0195205Y0011478D01*
X0195321Y0011431D01*
X0195435Y0011381D01*
X0195548Y0011328D01*
X0195659Y0011270D01*
X0195769Y0011210D01*
X0195876Y0011145D01*
X0195981Y0011078D01*
X0196084Y0011007D01*
X0196184Y0010933D01*
X0196282Y0010856D01*
X0196378Y0010775D01*
X0196471Y0010692D01*
X0196562Y0010606D01*
X0196649Y0010517D01*
X0196734Y0010425D01*
X0196816Y0010331D01*
X0196895Y0010234D01*
X0196970Y0010134D01*
X0197043Y0010033D01*
X0197112Y0009929D01*
X0197178Y0009822D01*
X0197240Y0009714D01*
X0197299Y0009604D01*
X0197355Y0009492D01*
X0197407Y0009378D01*
X0197455Y0009263D01*
X0197500Y0009147D01*
X0197540Y0009028D01*
X0197578Y0008909D01*
X0197611Y0008789D01*
X0197640Y0008667D01*
X0197666Y0008545D01*
X0197688Y0008422D01*
X0197705Y0008298D01*
X0197719Y0008174D01*
X0197729Y0008050D01*
X0197735Y0007925D01*
X0197737Y0007800D01*
X0197735Y0007675D01*
X0197729Y0007550D01*
X0197719Y0007426D01*
X0197705Y0007302D01*
X0197688Y0007178D01*
X0197666Y0007055D01*
X0197640Y0006933D01*
X0197611Y0006811D01*
X0197578Y0006691D01*
X0197540Y0006572D01*
X0197500Y0006453D01*
X0197455Y0006337D01*
X0197407Y0006222D01*
X0197355Y0006108D01*
X0197299Y0005996D01*
X0197240Y0005886D01*
X0197178Y0005778D01*
X0197112Y0005671D01*
X0197043Y0005567D01*
X0196970Y0005466D01*
X0196895Y0005366D01*
X0196816Y0005269D01*
X0196734Y0005175D01*
X0196649Y0005083D01*
X0196562Y0004994D01*
X0196471Y0004908D01*
X0196378Y0004825D01*
X0196282Y0004744D01*
X0196184Y0004667D01*
X0196084Y0004593D01*
X0195981Y0004522D01*
X0195876Y0004455D01*
X0195768Y0004390D01*
X0195659Y0004330D01*
X0195548Y0004272D01*
X0195435Y0004219D01*
X0195321Y0004169D01*
X0195205Y0004122D01*
X0195088Y0004080D01*
X0194969Y0004041D01*
X0194849Y0004005D01*
X0194728Y0003974D01*
X0194606Y0003946D01*
X0194484Y0003923D01*
X0194360Y0003903D01*
X0194236Y0003887D01*
X0194112Y0003875D01*
X0193987Y0003867D01*
X0193862Y0003863D01*
X0193738Y0003863D01*
X0193613Y0003867D01*
X0193488Y0003875D01*
X0193364Y0003887D01*
X0193240Y0003903D01*
X0193116Y0003923D01*
X0192994Y0003946D01*
X0192872Y0003974D01*
X0192751Y0004005D01*
X0192631Y0004041D01*
X0192512Y0004080D01*
X0192395Y0004122D01*
X0192279Y0004169D01*
X0192165Y0004219D01*
X0192052Y0004272D01*
X0191941Y0004330D01*
X0191831Y0004390D01*
X0191724Y0004455D01*
X0191619Y0004522D01*
X0191516Y0004593D01*
X0191416Y0004667D01*
X0191318Y0004744D01*
X0191222Y0004825D01*
X0191129Y0004908D01*
X0191038Y0004994D01*
X0190951Y0005083D01*
X0190866Y0005175D01*
X0190784Y0005269D01*
X0190705Y0005366D01*
X0190630Y0005466D01*
X0190557Y0005567D01*
X0190488Y0005671D01*
X0190422Y0005778D01*
X0190360Y0005886D01*
X0190301Y0005996D01*
X0190245Y0006108D01*
X0190193Y0006222D01*
X0190145Y0006337D01*
X0190100Y0006453D01*
X0190060Y0006572D01*
X0190022Y0006691D01*
X0189989Y0006811D01*
X0189960Y0006933D01*
X0189934Y0007055D01*
X0189912Y0007178D01*
X0189895Y0007302D01*
X0189881Y0007426D01*
X0189871Y0007550D01*
X0189865Y0007675D01*
X0189863Y0007800D01*
D11*
X0001800Y0001800D02*
X0001800Y0166800D01*
X0199800Y0166800D01*
X0199800Y0001800D01*
X0001800Y0001800D01*
D12*
X0004294Y0031950D02*
X0006229Y0031950D01*
X0006713Y0032434D01*
X0006713Y0033401D01*
X0006229Y0033885D01*
X0006229Y0034897D02*
X0005746Y0034897D01*
X0005262Y0035380D01*
X0005262Y0036348D01*
X0005746Y0036831D01*
X0006229Y0036831D01*
X0006713Y0036348D01*
X0006713Y0035380D01*
X0006229Y0034897D01*
X0005262Y0035380D02*
X0004778Y0034897D01*
X0004294Y0034897D01*
X0003811Y0035380D01*
X0003811Y0036348D01*
X0004294Y0036831D01*
X0004778Y0036831D01*
X0005262Y0036348D01*
X0004294Y0033885D02*
X0003811Y0033401D01*
X0003811Y0032434D01*
X0004294Y0031950D01*
X0004955Y0040556D02*
X0003503Y0042008D01*
X0006406Y0042008D01*
X0006406Y0043503D02*
X0005922Y0043503D01*
X0003987Y0045438D01*
X0003503Y0045438D01*
X0003503Y0043503D01*
X0004955Y0042491D02*
X0004955Y0040556D01*
X0004471Y0046449D02*
X0005922Y0046449D01*
X0006406Y0046933D01*
X0006406Y0048384D01*
X0004471Y0048384D01*
X0004955Y0049396D02*
X0004955Y0050363D01*
X0006406Y0049396D02*
X0003503Y0049396D01*
X0003503Y0051331D01*
X0003948Y0056057D02*
X0006850Y0056057D01*
X0006850Y0057992D01*
X0006850Y0059003D02*
X0006850Y0060938D01*
X0006850Y0059971D02*
X0003948Y0059971D01*
X0004915Y0059003D01*
X0004915Y0063164D02*
X0003948Y0064131D01*
X0006850Y0064131D01*
X0006850Y0063164D02*
X0006850Y0065099D01*
X0006366Y0066110D02*
X0004431Y0066110D01*
X0003948Y0066594D01*
X0003948Y0067562D01*
X0004431Y0068045D01*
X0006366Y0066110D01*
X0006850Y0066594D01*
X0006850Y0067562D01*
X0006366Y0068045D01*
X0004431Y0068045D01*
X0004915Y0069057D02*
X0006366Y0069057D01*
X0006850Y0069541D01*
X0006850Y0070992D01*
X0004915Y0070992D01*
X0005399Y0072003D02*
X0005399Y0073938D01*
X0003948Y0073938D02*
X0006850Y0073938D01*
X0006850Y0072003D02*
X0003948Y0072003D01*
X0005566Y0078410D02*
X0006050Y0078894D01*
X0006050Y0079378D01*
X0005566Y0079862D01*
X0003148Y0079862D01*
X0003148Y0080345D02*
X0003148Y0079378D01*
X0003148Y0081357D02*
X0003148Y0082808D01*
X0003631Y0083292D01*
X0004599Y0083292D01*
X0005083Y0082808D01*
X0005083Y0081357D01*
X0006050Y0081357D02*
X0003148Y0081357D01*
X0003148Y0084303D02*
X0003148Y0086238D01*
X0003631Y0086238D01*
X0005566Y0084303D01*
X0006050Y0084303D01*
X0006545Y0089250D02*
X0006545Y0091185D01*
X0005577Y0092152D01*
X0004610Y0091185D01*
X0004610Y0089250D01*
X0004610Y0090701D02*
X0006545Y0090701D01*
X0007556Y0091185D02*
X0007556Y0089250D01*
X0008524Y0089250D02*
X0008524Y0090701D01*
X0009007Y0091185D01*
X0009491Y0090701D01*
X0009491Y0089250D01*
X0010503Y0089250D02*
X0010503Y0091185D01*
X0010986Y0091185D01*
X0011470Y0090701D01*
X0011954Y0091185D01*
X0012438Y0090701D01*
X0012438Y0089250D01*
X0011470Y0089250D02*
X0011470Y0090701D01*
X0013449Y0090701D02*
X0013933Y0091185D01*
X0014900Y0091185D01*
X0015384Y0090701D01*
X0015384Y0090217D01*
X0013449Y0090217D01*
X0013449Y0089734D02*
X0013449Y0090701D01*
X0013449Y0089734D02*
X0013933Y0089250D01*
X0014900Y0089250D01*
X0016879Y0089734D02*
X0017363Y0089250D01*
X0016879Y0089734D02*
X0016879Y0091669D01*
X0016396Y0091185D02*
X0017363Y0091185D01*
X0018360Y0090701D02*
X0018844Y0091185D01*
X0019811Y0091185D01*
X0020295Y0090701D01*
X0020295Y0090217D01*
X0018360Y0090217D01*
X0018360Y0089734D02*
X0018360Y0090701D01*
X0018360Y0089734D02*
X0018844Y0089250D01*
X0019811Y0089250D01*
X0021307Y0089250D02*
X0021307Y0091185D01*
X0022274Y0091185D02*
X0021307Y0090217D01*
X0022274Y0091185D02*
X0022758Y0091185D01*
X0026708Y0091185D02*
X0026708Y0088283D01*
X0026708Y0089250D02*
X0028160Y0089250D01*
X0028643Y0089734D01*
X0028643Y0090701D01*
X0028160Y0091185D01*
X0026708Y0091185D01*
X0029655Y0091185D02*
X0029655Y0089250D01*
X0029655Y0090217D02*
X0030622Y0091185D01*
X0031106Y0091185D01*
X0032110Y0090701D02*
X0032110Y0089734D01*
X0032594Y0089250D01*
X0033562Y0089250D01*
X0034045Y0089734D01*
X0034045Y0090701D01*
X0033562Y0091185D01*
X0032594Y0091185D01*
X0032110Y0090701D01*
X0035057Y0091185D02*
X0036508Y0091185D01*
X0036992Y0090701D01*
X0036992Y0089734D01*
X0036508Y0089250D01*
X0035057Y0089250D01*
X0035057Y0092152D01*
X0038003Y0090701D02*
X0038487Y0091185D01*
X0039455Y0091185D01*
X0039938Y0090701D01*
X0039938Y0090217D01*
X0038003Y0090217D01*
X0038003Y0089734D02*
X0038003Y0090701D01*
X0038003Y0089734D02*
X0038487Y0089250D01*
X0039455Y0089250D01*
X0043198Y0094057D02*
X0043198Y0095508D01*
X0043681Y0095992D01*
X0044649Y0095992D01*
X0045133Y0095508D01*
X0045133Y0094057D01*
X0046100Y0094057D02*
X0043198Y0094057D01*
X0045133Y0095024D02*
X0046100Y0095992D01*
X0045616Y0097003D02*
X0046100Y0097487D01*
X0046100Y0098455D01*
X0045616Y0098938D01*
X0045133Y0098938D01*
X0044649Y0098455D01*
X0044649Y0097971D01*
X0044649Y0098455D02*
X0044165Y0098938D01*
X0043681Y0098938D01*
X0043198Y0098455D01*
X0043198Y0097487D01*
X0043681Y0097003D01*
X0043415Y0101110D02*
X0042448Y0102078D01*
X0045350Y0102078D01*
X0045350Y0103045D02*
X0045350Y0101110D01*
X0044866Y0104057D02*
X0042931Y0104057D01*
X0042448Y0104541D01*
X0042448Y0105508D01*
X0042931Y0105992D01*
X0044866Y0104057D01*
X0045350Y0104541D01*
X0045350Y0105508D01*
X0044866Y0105992D01*
X0042931Y0105992D01*
X0042448Y0107003D02*
X0045350Y0107003D01*
X0044383Y0107003D02*
X0042448Y0108938D01*
X0043899Y0107487D02*
X0045350Y0108938D01*
X0027796Y0116901D02*
X0027312Y0116417D01*
X0025861Y0116417D01*
X0025861Y0115450D02*
X0025861Y0118352D01*
X0027312Y0118352D01*
X0027796Y0117869D01*
X0027796Y0116901D01*
X0024849Y0116417D02*
X0024849Y0115934D01*
X0024366Y0115450D01*
X0023398Y0115450D01*
X0022914Y0115934D01*
X0023398Y0116901D02*
X0024366Y0116901D01*
X0024849Y0116417D01*
X0024849Y0117869D02*
X0024366Y0118352D01*
X0023398Y0118352D01*
X0022914Y0117869D01*
X0022914Y0117385D01*
X0023398Y0116901D01*
X0021917Y0115450D02*
X0020950Y0115450D01*
X0021434Y0115450D02*
X0021434Y0118352D01*
X0021917Y0118352D02*
X0020950Y0118352D01*
X0007150Y0105294D02*
X0007150Y0104327D01*
X0006666Y0103843D01*
X0005699Y0104811D02*
X0005699Y0105294D01*
X0006183Y0105778D01*
X0006666Y0105778D01*
X0007150Y0105294D01*
X0005699Y0105294D02*
X0005215Y0105778D01*
X0004731Y0105778D01*
X0004248Y0105294D01*
X0004248Y0104327D01*
X0004731Y0103843D01*
X0004731Y0102831D02*
X0005699Y0102831D01*
X0006183Y0102348D01*
X0006183Y0100897D01*
X0007150Y0100897D02*
X0004248Y0100897D01*
X0004248Y0102348D01*
X0004731Y0102831D01*
X0004248Y0099885D02*
X0004248Y0098917D01*
X0004248Y0099401D02*
X0006666Y0099401D01*
X0007150Y0098917D01*
X0007150Y0098434D01*
X0006666Y0097950D01*
X0007556Y0091185D02*
X0008040Y0091185D01*
X0008524Y0090701D01*
X0035838Y0082652D02*
X0035838Y0080717D01*
X0036806Y0079750D01*
X0037773Y0080717D01*
X0037773Y0082652D01*
X0038785Y0082652D02*
X0040236Y0082652D01*
X0040720Y0082169D01*
X0040720Y0081685D01*
X0040236Y0081201D01*
X0038785Y0081201D01*
X0038785Y0079750D02*
X0040236Y0079750D01*
X0040720Y0080234D01*
X0040720Y0080717D01*
X0040236Y0081201D01*
X0038785Y0079750D02*
X0038785Y0082652D01*
X0041731Y0079266D02*
X0043666Y0079266D01*
X0044678Y0079750D02*
X0046613Y0079750D01*
X0047624Y0079750D02*
X0047624Y0082652D01*
X0049559Y0079750D01*
X0049559Y0082652D01*
X0046613Y0082652D02*
X0044678Y0082652D01*
X0044678Y0079750D01*
X0044678Y0081201D02*
X0045645Y0081201D01*
X0050571Y0079266D02*
X0052506Y0079266D01*
X0053517Y0079750D02*
X0054969Y0079750D01*
X0055452Y0080234D01*
X0055452Y0082169D01*
X0054969Y0082652D01*
X0053517Y0082652D01*
X0053517Y0079750D01*
X0056464Y0079750D02*
X0057431Y0079750D01*
X0056948Y0079750D02*
X0056948Y0082652D01*
X0057431Y0082652D02*
X0056464Y0082652D01*
X0056931Y0084610D02*
X0056448Y0085094D01*
X0056448Y0086062D01*
X0056931Y0086545D01*
X0057899Y0086062D02*
X0058383Y0086545D01*
X0058866Y0086545D01*
X0059350Y0086062D01*
X0059350Y0085094D01*
X0058866Y0084610D01*
X0057899Y0085094D02*
X0057899Y0086062D01*
X0057899Y0085094D02*
X0057415Y0084610D01*
X0056931Y0084610D01*
X0058912Y0082652D02*
X0058428Y0082169D01*
X0058428Y0081685D01*
X0058912Y0081201D01*
X0059880Y0081201D01*
X0060363Y0080717D01*
X0060363Y0080234D01*
X0059880Y0079750D01*
X0058912Y0079750D01*
X0058428Y0080234D01*
X0060363Y0082169D02*
X0059880Y0082652D01*
X0058912Y0082652D01*
X0058866Y0087557D02*
X0059350Y0088041D01*
X0059350Y0088524D01*
X0058866Y0089008D01*
X0056448Y0089008D01*
X0056448Y0088524D02*
X0056448Y0089492D01*
X0056931Y0090503D02*
X0056448Y0090987D01*
X0056448Y0091955D01*
X0056931Y0092438D01*
X0057415Y0092438D01*
X0059350Y0090503D01*
X0059350Y0092438D01*
X0064950Y0086619D02*
X0064950Y0084684D01*
X0065434Y0084200D01*
X0066401Y0084200D01*
X0066885Y0084684D01*
X0067897Y0084200D02*
X0069831Y0084200D01*
X0068864Y0084200D02*
X0068864Y0087102D01*
X0067897Y0086135D01*
X0066885Y0086619D02*
X0066401Y0087102D01*
X0065434Y0087102D01*
X0064950Y0086619D01*
X0064917Y0082352D02*
X0063950Y0081385D01*
X0064917Y0082352D02*
X0064917Y0079450D01*
X0063950Y0079450D02*
X0065885Y0079450D01*
X0066897Y0079934D02*
X0066897Y0081869D01*
X0067380Y0082352D01*
X0068348Y0082352D01*
X0068831Y0081869D01*
X0066897Y0079934D01*
X0067380Y0079450D01*
X0068348Y0079450D01*
X0068831Y0079934D01*
X0068831Y0081869D01*
X0069843Y0081869D02*
X0070327Y0082352D01*
X0071294Y0082352D01*
X0071778Y0081869D01*
X0069843Y0079934D01*
X0070327Y0079450D01*
X0071294Y0079450D01*
X0071778Y0079934D01*
X0071778Y0081869D01*
X0072790Y0081385D02*
X0072790Y0079450D01*
X0074725Y0079450D02*
X0074725Y0080901D01*
X0074241Y0081385D01*
X0072790Y0081385D01*
X0072778Y0084200D02*
X0070843Y0084200D01*
X0072778Y0086135D01*
X0072778Y0086619D01*
X0072294Y0087102D01*
X0071327Y0087102D01*
X0070843Y0086619D01*
X0069843Y0081869D02*
X0069843Y0079934D01*
X0054938Y0069232D02*
X0054455Y0069715D01*
X0053487Y0069715D01*
X0053003Y0069232D01*
X0053003Y0068748D01*
X0053487Y0068264D01*
X0054938Y0068264D01*
X0054938Y0067297D02*
X0054938Y0069232D01*
X0054938Y0067297D02*
X0054455Y0066813D01*
X0053487Y0066813D01*
X0053003Y0067297D01*
X0051992Y0067297D02*
X0051508Y0066813D01*
X0050541Y0066813D01*
X0050057Y0067297D01*
X0050057Y0069232D01*
X0050541Y0069715D01*
X0051508Y0069715D01*
X0051992Y0069232D01*
X0051504Y0065408D02*
X0053439Y0065408D01*
X0053439Y0064925D01*
X0051504Y0062990D01*
X0051504Y0062506D01*
X0050009Y0062506D02*
X0050009Y0065408D01*
X0048558Y0063957D01*
X0050493Y0063957D01*
X0054451Y0064441D02*
X0054451Y0062990D01*
X0054934Y0062506D01*
X0056386Y0062506D01*
X0056386Y0064441D01*
X0057397Y0063957D02*
X0058365Y0063957D01*
X0059332Y0065408D02*
X0057397Y0065408D01*
X0057397Y0062506D01*
X0063950Y0061619D02*
X0063950Y0059684D01*
X0064434Y0059200D01*
X0065401Y0059200D01*
X0065885Y0059684D01*
X0066897Y0060651D02*
X0068348Y0062102D01*
X0068348Y0059200D01*
X0069327Y0058352D02*
X0070294Y0058352D01*
X0070778Y0057869D01*
X0068843Y0055934D01*
X0069327Y0055450D01*
X0070294Y0055450D01*
X0070778Y0055934D01*
X0070778Y0057869D01*
X0071790Y0057385D02*
X0073241Y0057385D01*
X0073725Y0056901D01*
X0073725Y0055450D01*
X0071790Y0055450D02*
X0071790Y0057385D01*
X0069327Y0058352D02*
X0068843Y0057869D01*
X0068843Y0055934D01*
X0067831Y0055934D02*
X0067348Y0055450D01*
X0066380Y0055450D01*
X0065897Y0055934D01*
X0067831Y0057869D01*
X0067831Y0055934D01*
X0065897Y0055934D02*
X0065897Y0057869D01*
X0066380Y0058352D01*
X0067348Y0058352D01*
X0067831Y0057869D01*
X0066897Y0060651D02*
X0068831Y0060651D01*
X0065885Y0061619D02*
X0065401Y0062102D01*
X0064434Y0062102D01*
X0063950Y0061619D01*
X0063917Y0058352D02*
X0063917Y0055450D01*
X0062950Y0055450D02*
X0064885Y0055450D01*
X0062950Y0057385D02*
X0063917Y0058352D01*
X0074215Y0053241D02*
X0074215Y0051790D01*
X0076150Y0051790D01*
X0075666Y0050778D02*
X0076150Y0050294D01*
X0076150Y0049327D01*
X0075666Y0048843D01*
X0073731Y0050778D01*
X0075666Y0050778D01*
X0073731Y0050778D02*
X0073248Y0050294D01*
X0073248Y0049327D01*
X0073731Y0048843D01*
X0075666Y0048843D01*
X0075666Y0047831D02*
X0076150Y0047348D01*
X0076150Y0046380D01*
X0075666Y0045897D01*
X0073731Y0047831D01*
X0075666Y0047831D01*
X0075666Y0045897D02*
X0073731Y0045897D01*
X0073248Y0046380D01*
X0073248Y0047348D01*
X0073731Y0047831D01*
X0072400Y0046831D02*
X0072400Y0044897D01*
X0072400Y0045864D02*
X0069498Y0045864D01*
X0070465Y0044897D01*
X0069981Y0043885D02*
X0069498Y0043401D01*
X0069498Y0042434D01*
X0069981Y0041950D01*
X0071916Y0041950D01*
X0072400Y0042434D01*
X0072400Y0043401D01*
X0071916Y0043885D01*
X0073248Y0043917D02*
X0074215Y0042950D01*
X0073248Y0043917D02*
X0076150Y0043917D01*
X0076150Y0042950D02*
X0076150Y0044885D01*
X0074215Y0053241D02*
X0074699Y0053725D01*
X0076150Y0053725D01*
X0093557Y0064234D02*
X0094041Y0063750D01*
X0095008Y0063750D01*
X0095492Y0064234D01*
X0095492Y0066652D01*
X0096503Y0065685D02*
X0097471Y0066652D01*
X0097471Y0063750D01*
X0098438Y0063750D02*
X0096503Y0063750D01*
X0093557Y0064234D02*
X0093557Y0066652D01*
X0118748Y0061493D02*
X0119231Y0060525D01*
X0120199Y0059558D01*
X0120199Y0061009D01*
X0120683Y0061493D01*
X0121166Y0061493D01*
X0121650Y0061009D01*
X0121650Y0060042D01*
X0121166Y0059558D01*
X0120199Y0059558D01*
X0121166Y0058546D02*
X0119231Y0058546D01*
X0118748Y0058063D01*
X0118748Y0056611D01*
X0121650Y0056611D01*
X0121650Y0058063D01*
X0121166Y0058546D01*
X0122164Y0057185D02*
X0123131Y0058152D01*
X0123131Y0055250D01*
X0122164Y0055250D02*
X0124099Y0055250D01*
X0125110Y0055734D02*
X0127045Y0057669D01*
X0127045Y0055734D01*
X0126562Y0055250D01*
X0125594Y0055250D01*
X0125110Y0055734D01*
X0125110Y0057669D01*
X0125594Y0058152D01*
X0126562Y0058152D01*
X0127045Y0057669D01*
X0128057Y0057669D02*
X0128541Y0058152D01*
X0129508Y0058152D01*
X0129992Y0057669D01*
X0128057Y0055734D01*
X0128541Y0055250D01*
X0129508Y0055250D01*
X0129992Y0055734D01*
X0129992Y0057669D01*
X0131003Y0057185D02*
X0132455Y0057185D01*
X0132938Y0056701D01*
X0132938Y0055250D01*
X0131003Y0055250D02*
X0131003Y0057185D01*
X0128057Y0057669D02*
X0128057Y0055734D01*
X0133748Y0053311D02*
X0136650Y0053311D01*
X0136650Y0054278D02*
X0136650Y0052343D01*
X0136166Y0050848D02*
X0133748Y0050848D01*
X0133748Y0051331D02*
X0133748Y0050364D01*
X0134231Y0048385D02*
X0133748Y0047901D01*
X0133748Y0046934D01*
X0134231Y0046450D01*
X0134715Y0046450D01*
X0135199Y0046934D01*
X0135199Y0047901D01*
X0135683Y0048385D01*
X0136166Y0048385D01*
X0136650Y0047901D01*
X0136650Y0046934D01*
X0136166Y0046450D01*
X0136166Y0049397D02*
X0136650Y0049880D01*
X0136650Y0050364D01*
X0136166Y0050848D01*
X0134715Y0052343D02*
X0133748Y0053311D01*
X0136681Y0058057D02*
X0138616Y0058057D01*
X0139100Y0058541D01*
X0139100Y0059508D01*
X0138616Y0059992D01*
X0138616Y0061003D02*
X0139100Y0061003D01*
X0138616Y0061003D02*
X0136681Y0062938D01*
X0136198Y0062938D01*
X0136198Y0061003D01*
X0136681Y0059992D02*
X0136198Y0059508D01*
X0136198Y0058541D01*
X0136681Y0058057D01*
X0136681Y0065110D02*
X0138616Y0065110D01*
X0139100Y0065594D01*
X0139100Y0066562D01*
X0138616Y0067045D01*
X0139100Y0068057D02*
X0139100Y0069992D01*
X0139100Y0069024D02*
X0136198Y0069024D01*
X0137165Y0068057D01*
X0136681Y0067045D02*
X0136198Y0066562D01*
X0136198Y0065594D01*
X0136681Y0065110D01*
X0136681Y0071003D02*
X0136198Y0071487D01*
X0136198Y0072455D01*
X0136681Y0072938D01*
X0138616Y0071003D01*
X0139100Y0071487D01*
X0139100Y0072455D01*
X0138616Y0072938D01*
X0136681Y0072938D01*
X0136681Y0071003D02*
X0138616Y0071003D01*
X0132938Y0074250D02*
X0132938Y0075701D01*
X0132455Y0076185D01*
X0131003Y0076185D01*
X0131003Y0074250D01*
X0129992Y0074734D02*
X0129508Y0074250D01*
X0128541Y0074250D01*
X0128057Y0074734D01*
X0129992Y0076669D01*
X0129992Y0074734D01*
X0129992Y0076669D02*
X0129508Y0077152D01*
X0128541Y0077152D01*
X0128057Y0076669D01*
X0128057Y0074734D01*
X0127045Y0074734D02*
X0126562Y0074250D01*
X0125594Y0074250D01*
X0125110Y0074734D01*
X0127045Y0076669D01*
X0127045Y0074734D01*
X0125110Y0074734D02*
X0125110Y0076669D01*
X0125594Y0077152D01*
X0126562Y0077152D01*
X0127045Y0076669D01*
X0127527Y0078470D02*
X0126560Y0078470D01*
X0126076Y0078953D01*
X0126076Y0079437D01*
X0126560Y0079921D01*
X0127527Y0079921D01*
X0128011Y0079437D01*
X0128011Y0078953D01*
X0127527Y0078470D01*
X0127527Y0079921D02*
X0128011Y0080405D01*
X0128011Y0080888D01*
X0127527Y0081372D01*
X0126560Y0081372D01*
X0126076Y0080888D01*
X0126076Y0080405D01*
X0126560Y0079921D01*
X0129023Y0078470D02*
X0129023Y0081372D01*
X0129990Y0080405D01*
X0130957Y0081372D01*
X0130957Y0078470D01*
X0131969Y0078470D02*
X0131969Y0081372D01*
X0131969Y0079921D02*
X0133904Y0079921D01*
X0134916Y0080405D02*
X0136851Y0080405D01*
X0134916Y0078470D01*
X0136851Y0078470D01*
X0137950Y0080200D02*
X0137950Y0083102D01*
X0139401Y0083102D01*
X0139885Y0082619D01*
X0139885Y0081651D01*
X0139401Y0081167D01*
X0137950Y0081167D01*
X0138917Y0081167D02*
X0139885Y0080200D01*
X0140897Y0080200D02*
X0142831Y0082135D01*
X0142831Y0082619D01*
X0142348Y0083102D01*
X0141380Y0083102D01*
X0140897Y0082619D01*
X0140897Y0080200D02*
X0142831Y0080200D01*
X0144950Y0080450D02*
X0146885Y0080450D01*
X0145917Y0080450D02*
X0145917Y0083352D01*
X0144950Y0082385D01*
X0147897Y0082869D02*
X0147897Y0080934D01*
X0149831Y0082869D01*
X0149831Y0080934D01*
X0149348Y0080450D01*
X0148380Y0080450D01*
X0147897Y0080934D01*
X0147897Y0082869D02*
X0148380Y0083352D01*
X0149348Y0083352D01*
X0149831Y0082869D01*
X0150843Y0082869D02*
X0151327Y0083352D01*
X0152294Y0083352D01*
X0152778Y0082869D01*
X0150843Y0080934D01*
X0151327Y0080450D01*
X0152294Y0080450D01*
X0152778Y0080934D01*
X0152778Y0082869D01*
X0153790Y0083352D02*
X0153790Y0080450D01*
X0153790Y0081417D02*
X0155725Y0083352D01*
X0154273Y0081901D02*
X0155725Y0080450D01*
X0150843Y0080934D02*
X0150843Y0082869D01*
X0150541Y0091250D02*
X0150057Y0091734D01*
X0151992Y0093669D01*
X0151992Y0091734D01*
X0151508Y0091250D01*
X0150541Y0091250D01*
X0150057Y0091734D02*
X0150057Y0093669D01*
X0150541Y0094152D01*
X0151508Y0094152D01*
X0151992Y0093669D01*
X0153003Y0094152D02*
X0153003Y0091250D01*
X0153003Y0092217D02*
X0154938Y0094152D01*
X0153487Y0092701D02*
X0154938Y0091250D01*
X0149045Y0091734D02*
X0148562Y0091250D01*
X0147594Y0091250D01*
X0147110Y0091734D01*
X0149045Y0093669D01*
X0149045Y0091734D01*
X0147110Y0091734D02*
X0147110Y0093669D01*
X0147594Y0094152D01*
X0148562Y0094152D01*
X0149045Y0093669D01*
X0146099Y0091250D02*
X0144164Y0091250D01*
X0145131Y0091250D02*
X0145131Y0094152D01*
X0144164Y0093185D01*
X0142938Y0091500D02*
X0141003Y0091500D01*
X0141971Y0091500D02*
X0141971Y0094402D01*
X0141003Y0093435D01*
X0139992Y0093919D02*
X0139992Y0092951D01*
X0139508Y0092467D01*
X0138057Y0092467D01*
X0138057Y0091500D02*
X0138057Y0094402D01*
X0139508Y0094402D01*
X0139992Y0093919D01*
X0139024Y0092467D02*
X0139992Y0091500D01*
X0133904Y0081372D02*
X0133904Y0078470D01*
X0124099Y0074250D02*
X0122164Y0074250D01*
X0123131Y0074250D02*
X0123131Y0077152D01*
X0122164Y0076185D01*
X0121812Y0077844D02*
X0119877Y0077844D01*
X0120845Y0077844D02*
X0120845Y0080747D01*
X0119877Y0079779D01*
X0118866Y0080263D02*
X0118866Y0080747D01*
X0118866Y0080263D02*
X0117898Y0079296D01*
X0117898Y0077844D01*
X0117898Y0079296D02*
X0116931Y0080263D01*
X0116931Y0080747D01*
X0118748Y0055629D02*
X0121650Y0055629D01*
X0121166Y0054618D02*
X0119231Y0054618D01*
X0118748Y0054134D01*
X0118748Y0052683D01*
X0121650Y0052683D01*
X0121650Y0054134D01*
X0121166Y0054618D01*
X0121650Y0051671D02*
X0121650Y0049736D01*
X0118748Y0049736D01*
X0118748Y0051671D01*
X0120199Y0050704D02*
X0120199Y0049736D01*
X0121650Y0048725D02*
X0121650Y0046790D01*
X0118748Y0046790D01*
X0122134Y0045778D02*
X0122134Y0043843D01*
X0120199Y0041864D02*
X0120199Y0040897D01*
X0120199Y0039885D02*
X0120683Y0039401D01*
X0120683Y0037950D01*
X0121650Y0037950D02*
X0118748Y0037950D01*
X0118748Y0039401D01*
X0119231Y0039885D01*
X0120199Y0039885D01*
X0120683Y0038917D02*
X0121650Y0039885D01*
X0121650Y0040897D02*
X0118748Y0040897D01*
X0118748Y0042831D01*
X0119241Y0035852D02*
X0117790Y0035852D01*
X0117790Y0032950D01*
X0119241Y0032950D01*
X0119725Y0033434D01*
X0119725Y0035369D01*
X0119241Y0035852D01*
X0120736Y0034401D02*
X0122187Y0034401D01*
X0122671Y0033917D01*
X0122671Y0033434D01*
X0122187Y0032950D01*
X0121220Y0032950D01*
X0120736Y0033434D01*
X0120736Y0034401D01*
X0121704Y0035369D01*
X0122671Y0035852D01*
X0113831Y0035852D02*
X0111897Y0035852D01*
X0111897Y0034401D01*
X0112864Y0034885D01*
X0113348Y0034885D01*
X0113831Y0034401D01*
X0113831Y0033434D01*
X0113348Y0032950D01*
X0112380Y0032950D01*
X0111897Y0033434D01*
X0110885Y0033434D02*
X0110885Y0035369D01*
X0110401Y0035852D01*
X0108950Y0035852D01*
X0108950Y0032950D01*
X0110401Y0032950D01*
X0110885Y0033434D01*
X0109938Y0038250D02*
X0108487Y0039701D01*
X0108003Y0039217D02*
X0109938Y0041152D01*
X0108003Y0041152D02*
X0108003Y0038250D01*
X0106992Y0038734D02*
X0106508Y0038250D01*
X0105541Y0038250D01*
X0105057Y0038734D01*
X0106992Y0040669D01*
X0106992Y0038734D01*
X0105057Y0038734D02*
X0105057Y0040669D01*
X0105541Y0041152D01*
X0106508Y0041152D01*
X0106992Y0040669D01*
X0105348Y0042200D02*
X0105348Y0045102D01*
X0103897Y0043651D01*
X0105831Y0043651D01*
X0102885Y0043651D02*
X0102885Y0044619D01*
X0102401Y0045102D01*
X0100950Y0045102D01*
X0100950Y0042200D01*
X0100950Y0043167D02*
X0102401Y0043167D01*
X0102885Y0043651D01*
X0101917Y0043167D02*
X0102885Y0042200D01*
X0103078Y0041152D02*
X0103078Y0038250D01*
X0104045Y0038250D02*
X0102110Y0038250D01*
X0102110Y0040185D02*
X0103078Y0041152D01*
X0096243Y0035852D02*
X0096243Y0035369D01*
X0094308Y0033434D01*
X0094308Y0032950D01*
X0093297Y0032950D02*
X0093297Y0034885D01*
X0092329Y0035852D01*
X0091362Y0034885D01*
X0091362Y0032950D01*
X0091362Y0034401D02*
X0093297Y0034401D01*
X0094308Y0035852D02*
X0096243Y0035852D01*
X0087404Y0035852D02*
X0086436Y0035369D01*
X0085469Y0034401D01*
X0086920Y0034401D01*
X0087404Y0033917D01*
X0087404Y0033434D01*
X0086920Y0032950D01*
X0085952Y0032950D01*
X0085469Y0033434D01*
X0085469Y0034401D01*
X0084457Y0034401D02*
X0082522Y0034401D01*
X0082522Y0034885D02*
X0083490Y0035852D01*
X0084457Y0034885D01*
X0084457Y0032950D01*
X0082522Y0032950D02*
X0082522Y0034885D01*
X0078564Y0035369D02*
X0078564Y0033434D01*
X0078080Y0032950D01*
X0076629Y0032950D01*
X0076629Y0035852D01*
X0078080Y0035852D01*
X0078564Y0035369D01*
X0075618Y0035852D02*
X0075618Y0032950D01*
X0073683Y0035852D01*
X0073683Y0032950D01*
X0072671Y0033434D02*
X0072671Y0034401D01*
X0071704Y0034401D01*
X0072671Y0033434D02*
X0072187Y0032950D01*
X0071220Y0032950D01*
X0070736Y0033434D01*
X0070736Y0035369D01*
X0071220Y0035852D01*
X0072187Y0035852D01*
X0072671Y0035369D01*
X0066778Y0035369D02*
X0066778Y0034885D01*
X0066294Y0034401D01*
X0066778Y0033917D01*
X0066778Y0033434D01*
X0066294Y0032950D01*
X0065327Y0032950D01*
X0064843Y0033434D01*
X0063831Y0033917D02*
X0063831Y0035852D01*
X0064843Y0035369D02*
X0065327Y0035852D01*
X0066294Y0035852D01*
X0066778Y0035369D01*
X0066294Y0034401D02*
X0065811Y0034401D01*
X0063831Y0033917D02*
X0062864Y0032950D01*
X0061897Y0033917D01*
X0061897Y0035852D01*
X0060885Y0035369D02*
X0060885Y0034885D01*
X0060401Y0034401D01*
X0060885Y0033917D01*
X0060885Y0033434D01*
X0060401Y0032950D01*
X0059434Y0032950D01*
X0058950Y0033434D01*
X0059917Y0034401D02*
X0060401Y0034401D01*
X0060885Y0035369D02*
X0060401Y0035852D01*
X0059434Y0035852D01*
X0058950Y0035369D01*
X0054994Y0024052D02*
X0053543Y0022601D01*
X0055478Y0022601D01*
X0054994Y0021150D02*
X0054994Y0024052D01*
X0052531Y0023569D02*
X0052531Y0022601D01*
X0052048Y0022117D01*
X0050597Y0022117D01*
X0050597Y0021150D02*
X0050597Y0024052D01*
X0052048Y0024052D01*
X0052531Y0023569D01*
X0049585Y0024052D02*
X0048617Y0024052D01*
X0049101Y0024052D02*
X0049101Y0021634D01*
X0048617Y0021150D01*
X0048134Y0021150D01*
X0047650Y0021634D01*
X0047778Y0019352D02*
X0047778Y0016450D01*
X0048790Y0016450D02*
X0050725Y0016450D01*
X0051736Y0016450D02*
X0051736Y0019352D01*
X0053187Y0019352D01*
X0053671Y0018869D01*
X0053671Y0017901D01*
X0053187Y0017417D01*
X0051736Y0017417D01*
X0052704Y0017417D02*
X0053671Y0016450D01*
X0053994Y0014052D02*
X0053027Y0014052D01*
X0052543Y0013569D01*
X0051531Y0013569D02*
X0051531Y0012601D01*
X0051048Y0012117D01*
X0049597Y0012117D01*
X0049597Y0011150D02*
X0049597Y0014052D01*
X0051048Y0014052D01*
X0051531Y0013569D01*
X0053994Y0014052D02*
X0054478Y0013569D01*
X0054478Y0013085D01*
X0052543Y0011150D01*
X0054478Y0011150D01*
X0054134Y0009352D02*
X0052683Y0009352D01*
X0052683Y0006450D01*
X0054134Y0006450D01*
X0054618Y0006934D01*
X0054618Y0008869D01*
X0054134Y0009352D01*
X0050704Y0009352D02*
X0050704Y0006450D01*
X0051671Y0006450D02*
X0049736Y0006450D01*
X0048725Y0006450D02*
X0046790Y0006450D01*
X0048725Y0008385D01*
X0048725Y0008869D01*
X0048241Y0009352D01*
X0047273Y0009352D01*
X0046790Y0008869D01*
X0045778Y0009352D02*
X0045778Y0006934D01*
X0045294Y0006450D01*
X0044327Y0006450D01*
X0043843Y0006934D01*
X0043843Y0009352D01*
X0042831Y0009352D02*
X0040897Y0009352D01*
X0041864Y0009352D02*
X0041864Y0006450D01*
X0039885Y0006450D02*
X0039885Y0009352D01*
X0039885Y0007901D02*
X0037950Y0007901D01*
X0037950Y0006450D02*
X0037950Y0009352D01*
X0040434Y0016450D02*
X0041401Y0016450D01*
X0041885Y0016934D01*
X0041885Y0018869D01*
X0041401Y0019352D01*
X0040434Y0019352D01*
X0039950Y0018869D01*
X0039950Y0016934D01*
X0040434Y0016450D01*
X0043864Y0016450D02*
X0043864Y0019352D01*
X0042897Y0019352D02*
X0044831Y0019352D01*
X0045843Y0019352D02*
X0045843Y0016450D01*
X0045843Y0017901D02*
X0047778Y0017901D01*
X0048790Y0017901D02*
X0049757Y0017901D01*
X0048790Y0019352D02*
X0048790Y0016450D01*
X0048585Y0014052D02*
X0047617Y0014052D01*
X0048101Y0014052D02*
X0048101Y0011634D01*
X0047617Y0011150D01*
X0047134Y0011150D01*
X0046650Y0011634D01*
X0049736Y0008385D02*
X0050704Y0009352D01*
X0056950Y0007369D02*
X0057434Y0007852D01*
X0058401Y0007852D01*
X0058885Y0007369D01*
X0058885Y0006885D01*
X0058401Y0006401D01*
X0058885Y0005917D01*
X0058885Y0005434D01*
X0058401Y0004950D01*
X0057434Y0004950D01*
X0056950Y0005434D01*
X0057917Y0006401D02*
X0058401Y0006401D01*
X0059897Y0005917D02*
X0059897Y0007852D01*
X0061831Y0007852D02*
X0061831Y0005917D01*
X0060864Y0004950D01*
X0059897Y0005917D01*
X0062843Y0005434D02*
X0063327Y0004950D01*
X0064294Y0004950D01*
X0064778Y0005434D01*
X0064778Y0005917D01*
X0064294Y0006401D01*
X0063811Y0006401D01*
X0064294Y0006401D02*
X0064778Y0006885D01*
X0064778Y0007369D01*
X0064294Y0007852D01*
X0063327Y0007852D01*
X0062843Y0007369D01*
X0068736Y0007369D02*
X0068736Y0005434D01*
X0069220Y0004950D01*
X0070187Y0004950D01*
X0070671Y0005434D01*
X0070671Y0006401D01*
X0069704Y0006401D01*
X0070671Y0007369D02*
X0070187Y0007852D01*
X0069220Y0007852D01*
X0068736Y0007369D01*
X0071683Y0007852D02*
X0073618Y0004950D01*
X0073618Y0007852D01*
X0074629Y0007852D02*
X0076080Y0007852D01*
X0076564Y0007369D01*
X0076564Y0005434D01*
X0076080Y0004950D01*
X0074629Y0004950D01*
X0074629Y0007852D01*
X0071683Y0007852D02*
X0071683Y0004950D01*
X0080522Y0005434D02*
X0081006Y0004950D01*
X0081973Y0004950D01*
X0082457Y0005434D01*
X0082457Y0005917D01*
X0081973Y0006401D01*
X0081006Y0006401D01*
X0080522Y0006885D01*
X0080522Y0007369D01*
X0081006Y0007852D01*
X0081973Y0007852D01*
X0082457Y0007369D01*
X0083469Y0007852D02*
X0084920Y0007852D01*
X0085404Y0007369D01*
X0085404Y0005434D01*
X0084920Y0004950D01*
X0083469Y0004950D01*
X0083469Y0007852D01*
X0086415Y0006885D02*
X0087383Y0007852D01*
X0088350Y0006885D01*
X0088350Y0004950D01*
X0088350Y0006401D02*
X0086415Y0006401D01*
X0086415Y0006885D02*
X0086415Y0004950D01*
X0092308Y0005434D02*
X0092792Y0004950D01*
X0093759Y0004950D01*
X0094243Y0005434D01*
X0094243Y0005917D01*
X0093759Y0006401D01*
X0092792Y0006401D01*
X0092308Y0006885D01*
X0092308Y0007369D01*
X0092792Y0007852D01*
X0093759Y0007852D01*
X0094243Y0007369D01*
X0095255Y0007369D02*
X0095255Y0005434D01*
X0095738Y0004950D01*
X0096706Y0004950D01*
X0097190Y0005434D01*
X0098201Y0004950D02*
X0100136Y0004950D01*
X0098201Y0004950D02*
X0098201Y0007852D01*
X0097190Y0007369D02*
X0096706Y0007852D01*
X0095738Y0007852D01*
X0095255Y0007369D01*
X0104950Y0007852D02*
X0104950Y0004950D01*
X0106401Y0004950D01*
X0106885Y0005434D01*
X0106885Y0005917D01*
X0106401Y0006401D01*
X0104950Y0006401D01*
X0106401Y0006401D02*
X0106885Y0006885D01*
X0106885Y0007369D01*
X0106401Y0007852D01*
X0104950Y0007852D01*
X0107897Y0007369D02*
X0107897Y0005434D01*
X0109831Y0007369D01*
X0109831Y0005434D01*
X0109348Y0004950D01*
X0108380Y0004950D01*
X0107897Y0005434D01*
X0107897Y0007369D02*
X0108380Y0007852D01*
X0109348Y0007852D01*
X0109831Y0007369D01*
X0110843Y0004950D02*
X0112778Y0007852D01*
X0113790Y0007852D02*
X0115241Y0007852D01*
X0115725Y0007369D01*
X0115725Y0006401D01*
X0115241Y0005917D01*
X0113790Y0005917D01*
X0113790Y0004950D02*
X0113790Y0007852D01*
X0114757Y0005917D02*
X0115725Y0004950D01*
X0116736Y0004950D02*
X0118671Y0007852D01*
X0116736Y0007852D02*
X0118671Y0004950D01*
X0122629Y0004950D02*
X0122629Y0007852D01*
X0124080Y0007852D01*
X0124564Y0007369D01*
X0124564Y0006885D01*
X0124080Y0006401D01*
X0122629Y0006401D01*
X0122629Y0004950D02*
X0124080Y0004950D01*
X0124564Y0005434D01*
X0124564Y0005917D01*
X0124080Y0006401D01*
X0125576Y0006885D02*
X0126543Y0007852D01*
X0126543Y0004950D01*
X0125576Y0004950D02*
X0127511Y0004950D01*
X0128522Y0004950D02*
X0130457Y0007852D01*
X0131469Y0007852D02*
X0133404Y0007852D01*
X0132436Y0007852D02*
X0132436Y0004950D01*
X0134415Y0004950D02*
X0136350Y0007852D01*
X0134415Y0007852D02*
X0136350Y0004950D01*
X0140308Y0005434D02*
X0140308Y0007369D01*
X0140792Y0007852D01*
X0141759Y0007852D01*
X0142243Y0007369D01*
X0142243Y0006401D02*
X0141276Y0006401D01*
X0142243Y0006401D02*
X0142243Y0005434D01*
X0141759Y0004950D01*
X0140792Y0004950D01*
X0140308Y0005434D01*
X0143255Y0004950D02*
X0143255Y0007852D01*
X0145190Y0004950D01*
X0145190Y0007852D01*
X0146201Y0007852D02*
X0147652Y0007852D01*
X0148136Y0007369D01*
X0148136Y0005434D01*
X0147652Y0004950D01*
X0146201Y0004950D01*
X0146201Y0007852D01*
X0150650Y0011634D02*
X0151134Y0011150D01*
X0151617Y0011150D01*
X0152101Y0011634D01*
X0152101Y0014052D01*
X0151617Y0014052D02*
X0152585Y0014052D01*
X0153597Y0014052D02*
X0155048Y0014052D01*
X0155531Y0013569D01*
X0155531Y0012601D01*
X0155048Y0012117D01*
X0153597Y0012117D01*
X0153597Y0011150D02*
X0153597Y0014052D01*
X0156543Y0012601D02*
X0157994Y0012601D01*
X0158478Y0012117D01*
X0158478Y0011634D01*
X0157994Y0011150D01*
X0157027Y0011150D01*
X0156543Y0011634D01*
X0156543Y0012601D01*
X0157511Y0013569D01*
X0158478Y0014052D01*
X0160950Y0012869D02*
X0160950Y0010934D01*
X0161434Y0010450D01*
X0162401Y0010450D01*
X0162885Y0010934D01*
X0162885Y0012869D01*
X0162401Y0013352D01*
X0161434Y0013352D01*
X0160950Y0012869D01*
X0163897Y0013352D02*
X0165831Y0013352D01*
X0164864Y0013352D02*
X0164864Y0010450D01*
X0166843Y0010450D02*
X0166843Y0013352D01*
X0166843Y0011901D02*
X0168778Y0011901D01*
X0169790Y0011901D02*
X0170757Y0011901D01*
X0169790Y0013352D02*
X0169790Y0010450D01*
X0171725Y0010450D01*
X0172736Y0010450D02*
X0172736Y0013352D01*
X0174187Y0013352D01*
X0174671Y0012869D01*
X0174671Y0011901D01*
X0174187Y0011417D01*
X0172736Y0011417D01*
X0173704Y0011417D02*
X0174671Y0010450D01*
X0171725Y0013352D02*
X0169790Y0013352D01*
X0168778Y0013352D02*
X0168778Y0010450D01*
X0159922Y0007369D02*
X0159922Y0006885D01*
X0159439Y0006401D01*
X0159922Y0005917D01*
X0159922Y0005434D01*
X0159439Y0004950D01*
X0158471Y0004950D01*
X0157987Y0005434D01*
X0156976Y0005917D02*
X0156008Y0004950D01*
X0155041Y0005917D01*
X0155041Y0007852D01*
X0154029Y0007369D02*
X0154029Y0006885D01*
X0153546Y0006401D01*
X0154029Y0005917D01*
X0154029Y0005434D01*
X0153546Y0004950D01*
X0152578Y0004950D01*
X0152094Y0005434D01*
X0153062Y0006401D02*
X0153546Y0006401D01*
X0154029Y0007369D02*
X0153546Y0007852D01*
X0152578Y0007852D01*
X0152094Y0007369D01*
X0156976Y0007852D02*
X0156976Y0005917D01*
X0157987Y0007369D02*
X0158471Y0007852D01*
X0159439Y0007852D01*
X0159922Y0007369D01*
X0159439Y0006401D02*
X0158955Y0006401D01*
X0160434Y0019450D02*
X0161401Y0019450D01*
X0161885Y0019934D01*
X0161885Y0021869D01*
X0161401Y0022352D01*
X0160434Y0022352D01*
X0159950Y0021869D01*
X0159950Y0019934D01*
X0160434Y0019450D01*
X0157478Y0020634D02*
X0156994Y0020150D01*
X0156027Y0020150D01*
X0155543Y0020634D01*
X0155543Y0021601D02*
X0156511Y0022085D01*
X0156994Y0022085D01*
X0157478Y0021601D01*
X0157478Y0020634D01*
X0155543Y0021601D02*
X0155543Y0023052D01*
X0157478Y0023052D01*
X0154531Y0022569D02*
X0154531Y0021601D01*
X0154048Y0021117D01*
X0152597Y0021117D01*
X0152597Y0020150D02*
X0152597Y0023052D01*
X0154048Y0023052D01*
X0154531Y0022569D01*
X0151585Y0023052D02*
X0150617Y0023052D01*
X0151101Y0023052D02*
X0151101Y0020634D01*
X0150617Y0020150D01*
X0150134Y0020150D01*
X0149650Y0020634D01*
X0162897Y0022352D02*
X0164831Y0022352D01*
X0163864Y0022352D02*
X0163864Y0019450D01*
X0165843Y0019450D02*
X0165843Y0022352D01*
X0165843Y0020901D02*
X0167778Y0020901D01*
X0168790Y0020901D02*
X0169757Y0020901D01*
X0168790Y0019450D02*
X0170725Y0019450D01*
X0171736Y0019450D02*
X0171736Y0022352D01*
X0173187Y0022352D01*
X0173671Y0021869D01*
X0173671Y0020901D01*
X0173187Y0020417D01*
X0171736Y0020417D01*
X0172704Y0020417D02*
X0173671Y0019450D01*
X0170725Y0022352D02*
X0168790Y0022352D01*
X0168790Y0019450D01*
X0167778Y0019450D02*
X0167778Y0022352D01*
X0152136Y0033434D02*
X0151652Y0032950D01*
X0150685Y0032950D01*
X0150201Y0033434D01*
X0149190Y0033917D02*
X0149190Y0035852D01*
X0150201Y0035369D02*
X0150685Y0035852D01*
X0151652Y0035852D01*
X0152136Y0035369D01*
X0152136Y0034885D01*
X0151652Y0034401D01*
X0152136Y0033917D01*
X0152136Y0033434D01*
X0151652Y0034401D02*
X0151169Y0034401D01*
X0149190Y0033917D02*
X0148222Y0032950D01*
X0147255Y0033917D01*
X0147255Y0035852D01*
X0146243Y0035369D02*
X0146243Y0034885D01*
X0145759Y0034401D01*
X0146243Y0033917D01*
X0146243Y0033434D01*
X0145759Y0032950D01*
X0144792Y0032950D01*
X0144308Y0033434D01*
X0145276Y0034401D02*
X0145759Y0034401D01*
X0146243Y0035369D02*
X0145759Y0035852D01*
X0144792Y0035852D01*
X0144308Y0035369D01*
X0140350Y0035369D02*
X0140350Y0033434D01*
X0139866Y0032950D01*
X0138415Y0032950D01*
X0138415Y0035852D01*
X0139866Y0035852D01*
X0140350Y0035369D01*
X0137404Y0035852D02*
X0137404Y0032950D01*
X0135469Y0035852D01*
X0135469Y0032950D01*
X0134457Y0033434D02*
X0134457Y0034401D01*
X0133490Y0034401D01*
X0134457Y0033434D02*
X0133973Y0032950D01*
X0133006Y0032950D01*
X0132522Y0033434D01*
X0132522Y0035369D01*
X0133006Y0035852D01*
X0133973Y0035852D01*
X0134457Y0035369D01*
X0150450Y0043700D02*
X0151901Y0043700D01*
X0152385Y0044184D01*
X0152385Y0046119D01*
X0151901Y0046602D01*
X0150450Y0046602D01*
X0150450Y0043700D01*
X0153397Y0043700D02*
X0155331Y0043700D01*
X0154364Y0043700D02*
X0154364Y0046602D01*
X0153397Y0045635D01*
X0153434Y0048450D02*
X0154401Y0048450D01*
X0154885Y0048934D01*
X0154885Y0049417D01*
X0154401Y0049901D01*
X0152950Y0049901D01*
X0152950Y0048934D01*
X0153434Y0048450D01*
X0152950Y0049901D02*
X0153917Y0050869D01*
X0154885Y0051352D01*
X0155348Y0052200D02*
X0154380Y0052200D01*
X0153897Y0052684D01*
X0153897Y0053651D02*
X0154864Y0054135D01*
X0155348Y0054135D01*
X0155831Y0053651D01*
X0155831Y0052684D01*
X0155348Y0052200D01*
X0156380Y0051352D02*
X0157348Y0051352D01*
X0157831Y0050869D01*
X0157831Y0050385D01*
X0157348Y0049901D01*
X0156380Y0049901D01*
X0155897Y0050385D01*
X0155897Y0050869D01*
X0156380Y0051352D01*
X0156380Y0049901D02*
X0155897Y0049417D01*
X0155897Y0048934D01*
X0156380Y0048450D01*
X0157348Y0048450D01*
X0157831Y0048934D01*
X0157831Y0049417D01*
X0157348Y0049901D01*
X0158843Y0048934D02*
X0160778Y0050869D01*
X0160778Y0048934D01*
X0160294Y0048450D01*
X0159327Y0048450D01*
X0158843Y0048934D01*
X0158843Y0050869D01*
X0159327Y0051352D01*
X0160294Y0051352D01*
X0160778Y0050869D01*
X0163885Y0050455D02*
X0163885Y0049487D01*
X0164368Y0049003D01*
X0164368Y0047992D02*
X0163885Y0047508D01*
X0163885Y0046541D01*
X0164368Y0046057D01*
X0166303Y0046057D01*
X0166787Y0046541D01*
X0166787Y0047508D01*
X0166303Y0047992D01*
X0166787Y0049003D02*
X0164852Y0050938D01*
X0164368Y0050938D01*
X0163885Y0050455D01*
X0166787Y0050938D02*
X0166787Y0049003D01*
X0166406Y0055556D02*
X0166406Y0057491D01*
X0166406Y0056524D02*
X0163503Y0056524D01*
X0164471Y0055556D01*
X0163987Y0058503D02*
X0163503Y0058987D01*
X0163503Y0059954D01*
X0163987Y0060438D01*
X0165922Y0058503D01*
X0166406Y0058987D01*
X0166406Y0059954D01*
X0165922Y0060438D01*
X0163987Y0060438D01*
X0164471Y0061449D02*
X0165922Y0061449D01*
X0166406Y0061933D01*
X0166406Y0063384D01*
X0164471Y0063384D01*
X0164955Y0064396D02*
X0164955Y0065363D01*
X0166406Y0064396D02*
X0163503Y0064396D01*
X0163503Y0066331D01*
X0164498Y0067950D02*
X0164498Y0069401D01*
X0164981Y0069885D01*
X0165949Y0069885D01*
X0166433Y0069401D01*
X0166433Y0067950D01*
X0167400Y0067950D02*
X0164498Y0067950D01*
X0166433Y0068917D02*
X0167400Y0069885D01*
X0167400Y0070897D02*
X0167400Y0072348D01*
X0166916Y0072831D01*
X0166433Y0072831D01*
X0165949Y0072348D01*
X0165949Y0070897D01*
X0165949Y0072348D02*
X0165465Y0072831D01*
X0164981Y0072831D01*
X0164498Y0072348D01*
X0164498Y0070897D01*
X0167400Y0070897D01*
X0167400Y0073843D02*
X0167400Y0075778D01*
X0167400Y0074811D02*
X0164498Y0074811D01*
X0165465Y0073843D01*
X0170915Y0073700D02*
X0170915Y0075152D01*
X0171399Y0075635D01*
X0172850Y0075635D01*
X0172366Y0077131D02*
X0170431Y0077131D01*
X0170915Y0077614D02*
X0170915Y0076647D01*
X0172366Y0077131D02*
X0172850Y0077614D01*
X0169948Y0081558D02*
X0169948Y0083493D01*
X0169948Y0082525D02*
X0172850Y0082525D01*
X0172850Y0084504D02*
X0170915Y0084504D01*
X0171883Y0084504D02*
X0170915Y0085472D01*
X0170915Y0085956D01*
X0170915Y0087443D02*
X0170915Y0088411D01*
X0171399Y0088895D01*
X0172850Y0088895D01*
X0172850Y0087443D01*
X0172366Y0086960D01*
X0171883Y0087443D01*
X0171883Y0088895D01*
X0172850Y0089906D02*
X0170915Y0089906D01*
X0170915Y0091357D01*
X0171399Y0091841D01*
X0172850Y0091841D01*
X0172850Y0092853D02*
X0172850Y0094304D01*
X0172366Y0094788D01*
X0171883Y0094304D01*
X0171883Y0093337D01*
X0171399Y0092853D01*
X0170915Y0093337D01*
X0170915Y0094788D01*
X0171399Y0095799D02*
X0171399Y0096767D01*
X0171399Y0097764D02*
X0172366Y0097764D01*
X0172850Y0098247D01*
X0172850Y0099215D01*
X0172366Y0099699D01*
X0171399Y0099699D01*
X0170915Y0099215D01*
X0170915Y0098247D01*
X0171399Y0097764D01*
X0169948Y0096767D02*
X0170431Y0096283D01*
X0172850Y0096283D01*
X0175715Y0096759D02*
X0176199Y0097243D01*
X0177650Y0097243D01*
X0177650Y0096276D02*
X0176199Y0096276D01*
X0175715Y0096759D01*
X0176199Y0096276D02*
X0175715Y0095792D01*
X0175715Y0095308D01*
X0177650Y0095308D01*
X0177166Y0098255D02*
X0176683Y0098738D01*
X0176683Y0100190D01*
X0176199Y0100190D02*
X0177650Y0100190D01*
X0177650Y0098738D01*
X0177166Y0098255D01*
X0175715Y0098738D02*
X0175715Y0099706D01*
X0176199Y0100190D01*
X0175715Y0101201D02*
X0177650Y0103136D01*
X0177650Y0101201D02*
X0175715Y0103136D01*
X0172850Y0103166D02*
X0170915Y0103166D01*
X0170915Y0103649D01*
X0171399Y0104133D01*
X0170915Y0104617D01*
X0171399Y0105101D01*
X0172850Y0105101D01*
X0172850Y0104133D02*
X0171399Y0104133D01*
X0171399Y0106112D02*
X0170915Y0106596D01*
X0170915Y0107563D01*
X0171399Y0108047D01*
X0171883Y0108047D01*
X0171883Y0106112D01*
X0172366Y0106112D02*
X0171399Y0106112D01*
X0172366Y0106112D02*
X0172850Y0106596D01*
X0172850Y0107563D01*
X0172850Y0109059D02*
X0170915Y0109059D01*
X0170915Y0110026D02*
X0170915Y0110510D01*
X0170915Y0110026D02*
X0171883Y0109059D01*
X0167150Y0109380D02*
X0166666Y0108897D01*
X0167150Y0109380D02*
X0167150Y0110348D01*
X0166666Y0110831D01*
X0166183Y0110831D01*
X0165699Y0110348D01*
X0165699Y0109864D01*
X0165699Y0110348D02*
X0165215Y0110831D01*
X0164731Y0110831D01*
X0164248Y0110348D01*
X0164248Y0109380D01*
X0164731Y0108897D01*
X0164731Y0107885D02*
X0165215Y0107885D01*
X0165699Y0107401D01*
X0166183Y0107885D01*
X0166666Y0107885D01*
X0167150Y0107401D01*
X0167150Y0106434D01*
X0166666Y0105950D01*
X0165699Y0106917D02*
X0165699Y0107401D01*
X0164731Y0107885D02*
X0164248Y0107401D01*
X0164248Y0106434D01*
X0164731Y0105950D01*
X0164981Y0099778D02*
X0164498Y0099294D01*
X0164498Y0098327D01*
X0164981Y0097843D01*
X0164981Y0096831D02*
X0165465Y0096831D01*
X0165949Y0096348D01*
X0165949Y0094897D01*
X0165949Y0093885D02*
X0164981Y0093885D01*
X0164498Y0093401D01*
X0164498Y0091950D01*
X0167400Y0091950D01*
X0166433Y0091950D02*
X0166433Y0093401D01*
X0165949Y0093885D01*
X0166433Y0092917D02*
X0167400Y0093885D01*
X0167400Y0094897D02*
X0167400Y0096348D01*
X0166916Y0096831D01*
X0166433Y0096831D01*
X0165949Y0096348D01*
X0164981Y0096831D02*
X0164498Y0096348D01*
X0164498Y0094897D01*
X0167400Y0094897D01*
X0167400Y0097843D02*
X0165465Y0099778D01*
X0164981Y0099778D01*
X0167400Y0099778D02*
X0167400Y0097843D01*
X0170915Y0100710D02*
X0172850Y0100710D01*
X0171883Y0100710D02*
X0170915Y0101678D01*
X0170915Y0102161D01*
X0166666Y0111843D02*
X0164731Y0111843D01*
X0164248Y0112327D01*
X0164248Y0113294D01*
X0164731Y0113778D01*
X0166666Y0111843D01*
X0167150Y0112327D01*
X0167150Y0113294D01*
X0166666Y0113778D01*
X0164731Y0113778D01*
X0166950Y0129450D02*
X0168885Y0129450D01*
X0167917Y0129450D02*
X0167917Y0132352D01*
X0166950Y0131385D01*
X0167434Y0134200D02*
X0166950Y0134684D01*
X0166950Y0136619D01*
X0167434Y0137102D01*
X0168401Y0137102D01*
X0168885Y0136619D01*
X0169897Y0137102D02*
X0169897Y0135651D01*
X0170864Y0136135D01*
X0171348Y0136135D01*
X0171831Y0135651D01*
X0171831Y0134684D01*
X0171348Y0134200D01*
X0170380Y0134200D01*
X0169897Y0134684D01*
X0168885Y0134684D02*
X0168401Y0134200D01*
X0167434Y0134200D01*
X0169897Y0131869D02*
X0170380Y0132352D01*
X0171348Y0132352D01*
X0171831Y0131869D01*
X0169897Y0129934D01*
X0170380Y0129450D01*
X0171348Y0129450D01*
X0171831Y0129934D01*
X0171831Y0131869D01*
X0172843Y0131869D02*
X0173327Y0132352D01*
X0174294Y0132352D01*
X0174778Y0131869D01*
X0172843Y0129934D01*
X0173327Y0129450D01*
X0174294Y0129450D01*
X0174778Y0129934D01*
X0174778Y0131869D01*
X0175790Y0131385D02*
X0177241Y0131385D01*
X0177725Y0130901D01*
X0177725Y0129450D01*
X0175790Y0129450D02*
X0175790Y0131385D01*
X0172843Y0131869D02*
X0172843Y0129934D01*
X0169897Y0129934D02*
X0169897Y0131869D01*
X0169897Y0137102D02*
X0171831Y0137102D01*
X0177556Y0149194D02*
X0179491Y0149194D01*
X0178524Y0149194D02*
X0178524Y0152097D01*
X0177556Y0151129D01*
X0180503Y0151613D02*
X0180503Y0149678D01*
X0182438Y0151613D01*
X0182438Y0149678D01*
X0181954Y0149194D01*
X0180987Y0149194D01*
X0180503Y0149678D01*
X0180503Y0151613D02*
X0180987Y0152097D01*
X0181954Y0152097D01*
X0182438Y0151613D01*
X0183449Y0151129D02*
X0183449Y0149678D01*
X0183933Y0149194D01*
X0185384Y0149194D01*
X0185384Y0151129D01*
X0186396Y0150645D02*
X0187363Y0150645D01*
X0186396Y0149194D02*
X0186396Y0152097D01*
X0188331Y0152097D01*
X0182831Y0154371D02*
X0182831Y0154854D01*
X0182348Y0155338D01*
X0180897Y0155338D01*
X0180897Y0154371D01*
X0181380Y0153887D01*
X0182348Y0153887D01*
X0182831Y0154371D01*
X0180897Y0155338D02*
X0181864Y0156306D01*
X0182831Y0156789D01*
X0179885Y0156306D02*
X0179401Y0156789D01*
X0178434Y0156789D01*
X0177950Y0156306D01*
X0177950Y0154371D01*
X0178434Y0153887D01*
X0179401Y0153887D01*
X0179885Y0154371D01*
X0177650Y0091350D02*
X0175715Y0091350D01*
X0174748Y0090383D01*
X0175715Y0089415D01*
X0177650Y0089415D01*
X0177166Y0088404D02*
X0177650Y0087920D01*
X0177650Y0086952D01*
X0177166Y0086469D01*
X0176199Y0086469D02*
X0175715Y0087436D01*
X0175715Y0087920D01*
X0176199Y0088404D01*
X0177166Y0088404D01*
X0176199Y0089415D02*
X0176199Y0091350D01*
X0174748Y0088404D02*
X0174748Y0086469D01*
X0176199Y0086469D01*
X0167150Y0086294D02*
X0167150Y0085327D01*
X0166666Y0084843D01*
X0164731Y0086778D01*
X0166666Y0086778D01*
X0167150Y0086294D01*
X0166666Y0084843D02*
X0164731Y0084843D01*
X0164248Y0085327D01*
X0164248Y0086294D01*
X0164731Y0086778D01*
X0164731Y0083831D02*
X0166666Y0081897D01*
X0167150Y0081897D01*
X0167150Y0080401D02*
X0164248Y0080401D01*
X0165699Y0078950D01*
X0165699Y0080885D01*
X0164248Y0081897D02*
X0164248Y0083831D01*
X0164731Y0083831D01*
X0170915Y0073700D02*
X0172850Y0073700D01*
X0171883Y0072689D02*
X0171883Y0070754D01*
X0172366Y0070754D02*
X0171399Y0070754D01*
X0170915Y0071238D01*
X0170915Y0072205D01*
X0171399Y0072689D01*
X0171883Y0072689D01*
X0172850Y0072205D02*
X0172850Y0071238D01*
X0172366Y0070754D01*
X0170915Y0069750D02*
X0170915Y0069266D01*
X0171883Y0068298D01*
X0172850Y0068298D02*
X0170915Y0068298D01*
X0170915Y0067294D02*
X0170915Y0066811D01*
X0171883Y0065843D01*
X0172850Y0065843D02*
X0170915Y0065843D01*
X0170915Y0064831D02*
X0172850Y0064831D01*
X0172850Y0063380D01*
X0172366Y0062897D01*
X0170915Y0062897D01*
X0170431Y0061885D02*
X0169948Y0061401D01*
X0169948Y0060434D01*
X0170431Y0059950D01*
X0172366Y0059950D01*
X0172850Y0060434D01*
X0172850Y0061401D01*
X0172366Y0061885D01*
X0165922Y0058503D02*
X0163987Y0058503D01*
X0155831Y0055102D02*
X0153897Y0055102D01*
X0153897Y0053651D01*
X0152885Y0053651D02*
X0152885Y0054619D01*
X0152401Y0055102D01*
X0150950Y0055102D01*
X0150950Y0052200D01*
X0150950Y0053167D02*
X0152401Y0053167D01*
X0152885Y0053651D01*
X0151917Y0053167D02*
X0152885Y0052200D01*
X0153950Y0041602D02*
X0155401Y0041602D01*
X0155885Y0041119D01*
X0155885Y0040151D01*
X0155401Y0039667D01*
X0153950Y0039667D01*
X0153950Y0038700D02*
X0153950Y0041602D01*
X0154917Y0039667D02*
X0155885Y0038700D01*
X0156897Y0038700D02*
X0156897Y0041602D01*
X0158831Y0041602D01*
X0157864Y0040151D02*
X0156897Y0040151D01*
X0159843Y0038216D02*
X0161778Y0038216D01*
X0162790Y0038700D02*
X0164725Y0038700D01*
X0165736Y0038700D02*
X0167671Y0038700D01*
X0168683Y0038700D02*
X0170134Y0038700D01*
X0170618Y0039184D01*
X0170618Y0041119D01*
X0170134Y0041602D01*
X0168683Y0041602D01*
X0168683Y0038700D01*
X0166704Y0040151D02*
X0165736Y0040151D01*
X0165736Y0041602D02*
X0165736Y0038700D01*
X0165736Y0041602D02*
X0167671Y0041602D01*
X0162790Y0041602D02*
X0162790Y0038700D01*
X0050725Y0019352D02*
X0048790Y0019352D01*
X0040938Y0032250D02*
X0040938Y0033701D01*
X0040455Y0034185D01*
X0039003Y0034185D01*
X0039003Y0032250D01*
X0037992Y0032734D02*
X0037992Y0034669D01*
X0036057Y0032734D01*
X0036541Y0032250D01*
X0037508Y0032250D01*
X0037992Y0032734D01*
X0037992Y0034669D02*
X0037508Y0035152D01*
X0036541Y0035152D01*
X0036057Y0034669D01*
X0036057Y0032734D01*
X0035045Y0032734D02*
X0034562Y0032250D01*
X0033594Y0032250D01*
X0033110Y0032734D01*
X0035045Y0034669D01*
X0035045Y0032734D01*
X0033110Y0032734D02*
X0033110Y0034669D01*
X0033594Y0035152D01*
X0034562Y0035152D01*
X0035045Y0034669D01*
X0034562Y0036500D02*
X0033594Y0036500D01*
X0033110Y0036984D01*
X0033110Y0038919D01*
X0033594Y0039402D01*
X0034562Y0039402D01*
X0035045Y0038919D01*
X0036057Y0038435D02*
X0037024Y0039402D01*
X0037024Y0036500D01*
X0036057Y0036500D02*
X0037992Y0036500D01*
X0039003Y0036500D02*
X0040938Y0036500D01*
X0039971Y0036500D02*
X0039971Y0039402D01*
X0039003Y0038435D01*
X0035045Y0036984D02*
X0034562Y0036500D01*
X0031131Y0035152D02*
X0031131Y0032250D01*
X0030164Y0032250D02*
X0032099Y0032250D01*
X0030164Y0034185D02*
X0031131Y0035152D01*
X0039559Y0057076D02*
X0042461Y0057076D01*
X0042461Y0059011D01*
X0041977Y0060023D02*
X0042461Y0060506D01*
X0042461Y0061474D01*
X0041977Y0061957D01*
X0041494Y0061957D01*
X0041010Y0061474D01*
X0041010Y0060023D01*
X0041977Y0060023D01*
X0041010Y0060023D02*
X0040042Y0060990D01*
X0039559Y0061957D01*
X0040042Y0062969D02*
X0040526Y0062969D01*
X0041010Y0063453D01*
X0041010Y0064904D01*
X0041977Y0064904D02*
X0040042Y0064904D01*
X0039559Y0064420D01*
X0039559Y0063453D01*
X0040042Y0062969D01*
X0041977Y0062969D02*
X0042461Y0063453D01*
X0042461Y0064420D01*
X0041977Y0064904D01*
X0042461Y0065916D02*
X0040526Y0067851D01*
X0040042Y0067851D01*
X0039559Y0067367D01*
X0039559Y0066399D01*
X0040042Y0065916D01*
X0040042Y0068862D02*
X0039559Y0069346D01*
X0039559Y0070313D01*
X0040042Y0070797D01*
X0041977Y0068862D01*
X0042461Y0069346D01*
X0042461Y0070313D01*
X0041977Y0070797D01*
X0040042Y0070797D01*
X0040042Y0068862D02*
X0041977Y0068862D01*
X0042461Y0067851D02*
X0042461Y0065916D01*
X0036776Y0065987D02*
X0034841Y0067922D01*
X0034357Y0067922D01*
X0033874Y0067438D01*
X0033874Y0066471D01*
X0034357Y0065987D01*
X0034357Y0064975D02*
X0033874Y0064492D01*
X0033874Y0063524D01*
X0034357Y0063040D01*
X0036292Y0063040D01*
X0036776Y0063524D01*
X0036776Y0064492D01*
X0036292Y0064975D01*
X0036776Y0065987D02*
X0036776Y0067922D01*
X0036776Y0062043D02*
X0036776Y0061076D01*
X0036776Y0061560D02*
X0033874Y0061560D01*
X0033874Y0062043D02*
X0033874Y0061076D01*
X0034016Y0144561D02*
X0034016Y0147463D01*
X0035951Y0144561D01*
X0035951Y0147463D01*
X0036962Y0147463D02*
X0038897Y0144561D01*
X0038897Y0147463D01*
X0039909Y0146496D02*
X0040876Y0147463D01*
X0041844Y0146496D01*
X0041844Y0144561D01*
X0041844Y0146012D02*
X0039909Y0146012D01*
X0039909Y0146496D02*
X0039909Y0144561D01*
X0036962Y0144561D02*
X0036962Y0147463D01*
X0033004Y0147463D02*
X0031069Y0147463D01*
X0031069Y0144561D01*
X0033004Y0144561D01*
X0032037Y0146012D02*
X0031069Y0146012D01*
X0030058Y0147463D02*
X0028123Y0147463D01*
X0029090Y0147463D02*
X0029090Y0144561D01*
X0027111Y0144561D02*
X0027111Y0147463D01*
X0025176Y0147463D02*
X0027111Y0144561D01*
X0025176Y0144561D02*
X0025176Y0147463D01*
X0024165Y0146496D02*
X0024165Y0144561D01*
X0024165Y0146012D02*
X0022230Y0146012D01*
X0022230Y0146496D02*
X0023197Y0147463D01*
X0024165Y0146496D01*
X0022230Y0146496D02*
X0022230Y0144561D01*
X0021873Y0153824D02*
X0019938Y0153824D01*
X0020905Y0153824D02*
X0020905Y0156726D01*
X0019938Y0155759D01*
X0018926Y0156243D02*
X0018926Y0155275D01*
X0018442Y0154791D01*
X0016991Y0154791D01*
X0016991Y0153824D02*
X0016991Y0156726D01*
X0018442Y0156726D01*
X0018926Y0156243D01*
X0015979Y0156726D02*
X0015012Y0156726D01*
X0015496Y0156726D02*
X0015496Y0154308D01*
X0015012Y0153824D01*
X0014528Y0153824D01*
X0014044Y0154308D01*
X0099003Y0153612D02*
X0099487Y0153128D01*
X0100455Y0153128D01*
X0100938Y0153612D01*
X0100938Y0156030D01*
X0101950Y0155547D02*
X0102434Y0156030D01*
X0103401Y0156030D01*
X0103885Y0155547D01*
X0103885Y0155063D01*
X0101950Y0153128D01*
X0103885Y0153128D01*
X0099003Y0153612D02*
X0099003Y0156030D01*
D13*
X0031475Y0013625D03*
X0031475Y0011125D03*
X0031475Y0008625D03*
X0018975Y0008625D03*
X0018975Y0011125D03*
X0018975Y0013625D03*
D14*
X0025225Y0011125D03*
D15*
X0026401Y0015750D02*
X0026401Y0018953D01*
X0027468Y0018953D02*
X0025333Y0018953D01*
X0023785Y0018953D02*
X0021650Y0018953D01*
X0022718Y0018953D02*
X0022718Y0015750D01*
X0021343Y0038698D02*
X0028036Y0038698D01*
X0028036Y0051099D01*
X0021343Y0051099D01*
X0015402Y0049863D02*
X0015402Y0039639D01*
X0013863Y0038698D02*
X0009139Y0038698D01*
X0013863Y0038698D01*
X0009139Y0038698D02*
X0007564Y0039879D01*
X0007564Y0049524D01*
X0009139Y0050902D01*
X0013863Y0050902D01*
X0047698Y0047257D02*
X0047698Y0040564D01*
X0060099Y0040564D01*
X0060099Y0047257D01*
X0058863Y0053198D02*
X0048639Y0053198D01*
X0047698Y0054737D02*
X0047698Y0059461D01*
X0047698Y0054737D01*
X0047698Y0059461D02*
X0048879Y0061036D01*
X0058524Y0061036D01*
X0059902Y0059461D01*
X0059902Y0054737D01*
X0083001Y0053001D02*
X0109202Y0053001D01*
X0110599Y0054398D01*
X0110599Y0080599D01*
X0114942Y0083863D02*
X0115532Y0083863D01*
X0114942Y0083863D02*
X0114942Y0091737D01*
X0115532Y0091737D01*
X0132068Y0091737D02*
X0132658Y0091737D01*
X0132658Y0083863D01*
X0132068Y0083863D01*
X0141564Y0069902D02*
X0148257Y0069902D01*
X0154198Y0068961D02*
X0154198Y0058737D01*
X0155737Y0057698D02*
X0160461Y0057698D01*
X0162036Y0059076D01*
X0162036Y0068721D01*
X0160461Y0069902D01*
X0155737Y0069902D01*
X0160461Y0069902D01*
X0148257Y0057501D02*
X0141564Y0057501D01*
X0141564Y0069902D01*
X0110600Y0052300D02*
X0110602Y0052349D01*
X0110608Y0052397D01*
X0110618Y0052445D01*
X0110632Y0052492D01*
X0110649Y0052538D01*
X0110670Y0052582D01*
X0110695Y0052624D01*
X0110723Y0052664D01*
X0110755Y0052702D01*
X0110789Y0052737D01*
X0110826Y0052769D01*
X0110865Y0052798D01*
X0110907Y0052824D01*
X0110951Y0052846D01*
X0110996Y0052864D01*
X0111043Y0052879D01*
X0111090Y0052890D01*
X0111139Y0052897D01*
X0111188Y0052900D01*
X0111237Y0052899D01*
X0111285Y0052894D01*
X0111334Y0052885D01*
X0111381Y0052872D01*
X0111427Y0052855D01*
X0111471Y0052835D01*
X0111514Y0052811D01*
X0111555Y0052784D01*
X0111593Y0052753D01*
X0111629Y0052720D01*
X0111661Y0052684D01*
X0111691Y0052645D01*
X0111718Y0052604D01*
X0111741Y0052560D01*
X0111760Y0052515D01*
X0111776Y0052469D01*
X0111788Y0052422D01*
X0111796Y0052373D01*
X0111800Y0052324D01*
X0111800Y0052276D01*
X0111796Y0052227D01*
X0111788Y0052178D01*
X0111776Y0052131D01*
X0111760Y0052085D01*
X0111741Y0052040D01*
X0111718Y0051996D01*
X0111691Y0051955D01*
X0111661Y0051916D01*
X0111629Y0051880D01*
X0111593Y0051847D01*
X0111555Y0051816D01*
X0111514Y0051789D01*
X0111471Y0051765D01*
X0111427Y0051745D01*
X0111381Y0051728D01*
X0111334Y0051715D01*
X0111285Y0051706D01*
X0111237Y0051701D01*
X0111188Y0051700D01*
X0111139Y0051703D01*
X0111090Y0051710D01*
X0111043Y0051721D01*
X0110996Y0051736D01*
X0110951Y0051754D01*
X0110907Y0051776D01*
X0110865Y0051802D01*
X0110826Y0051831D01*
X0110789Y0051863D01*
X0110755Y0051898D01*
X0110723Y0051936D01*
X0110695Y0051976D01*
X0110670Y0052018D01*
X0110649Y0052062D01*
X0110632Y0052108D01*
X0110618Y0052155D01*
X0110608Y0052203D01*
X0110602Y0052251D01*
X0110600Y0052300D01*
X0083001Y0053001D02*
X0083001Y0080599D01*
X0038800Y0095300D02*
X0036300Y0092800D01*
X0031300Y0092800D01*
X0028800Y0095300D01*
X0028800Y0110300D01*
X0026300Y0112800D01*
X0021300Y0112800D01*
X0018800Y0110300D01*
X0018800Y0095300D01*
X0016300Y0092800D01*
X0011300Y0092800D01*
X0008800Y0095300D01*
X0008800Y0110300D01*
X0011300Y0112800D01*
X0016300Y0112800D01*
X0018800Y0110300D01*
X0028800Y0110300D02*
X0031300Y0112800D01*
X0036300Y0112800D01*
X0038800Y0110300D01*
X0038800Y0095300D01*
X0028800Y0095300D02*
X0026300Y0092800D01*
X0021300Y0092800D01*
X0018800Y0095300D01*
X0031300Y0114119D02*
X0036300Y0114119D01*
X0143249Y0042660D02*
X0144409Y0041900D01*
X0144469Y0041800D02*
X0143249Y0040880D01*
X0144469Y0039989D02*
X0144469Y0041800D01*
X0144469Y0043611D01*
X0156139Y0147698D02*
X0160863Y0147698D01*
X0156139Y0147698D01*
X0154564Y0148879D01*
X0154564Y0158524D01*
X0156139Y0159902D01*
X0160863Y0159902D01*
X0162402Y0158863D02*
X0162402Y0148639D01*
X0168343Y0147698D02*
X0175036Y0147698D01*
X0175036Y0160099D01*
X0168343Y0160099D01*
D16*
X0025125Y0020875D03*
X0025125Y0006125D03*
D17*
X0014000Y0013500D03*
X0036300Y0013500D03*
D18*
X0014535Y0073767D02*
X0014535Y0076837D01*
X0013000Y0075302D02*
X0016069Y0075302D01*
X0022208Y0075302D02*
X0025277Y0075302D01*
D19*
X0025800Y0072800D02*
X0025800Y0072000D01*
X0025800Y0072800D02*
X0009800Y0072800D01*
X0009800Y0072000D01*
X0009700Y0055600D02*
X0009700Y0054800D01*
X0009800Y0054800D02*
X0025800Y0054800D01*
X0025800Y0055600D01*
X0032698Y0054942D02*
X0032698Y0072658D01*
X0044902Y0072658D01*
X0044902Y0054942D01*
X0032698Y0054942D01*
X0033983Y0057107D02*
X0033985Y0057166D01*
X0033991Y0057224D01*
X0034001Y0057282D01*
X0034014Y0057339D01*
X0034032Y0057396D01*
X0034053Y0057451D01*
X0034078Y0057504D01*
X0034106Y0057555D01*
X0034137Y0057605D01*
X0034172Y0057652D01*
X0034210Y0057697D01*
X0034251Y0057740D01*
X0034295Y0057779D01*
X0034341Y0057815D01*
X0034389Y0057849D01*
X0034440Y0057879D01*
X0034493Y0057905D01*
X0034547Y0057928D01*
X0034602Y0057947D01*
X0034659Y0057963D01*
X0034717Y0057975D01*
X0034775Y0057983D01*
X0034834Y0057987D01*
X0034892Y0057987D01*
X0034951Y0057983D01*
X0035009Y0057975D01*
X0035067Y0057963D01*
X0035124Y0057947D01*
X0035179Y0057928D01*
X0035233Y0057905D01*
X0035286Y0057879D01*
X0035337Y0057849D01*
X0035385Y0057815D01*
X0035431Y0057779D01*
X0035475Y0057740D01*
X0035516Y0057697D01*
X0035554Y0057652D01*
X0035589Y0057605D01*
X0035620Y0057555D01*
X0035648Y0057504D01*
X0035673Y0057451D01*
X0035694Y0057396D01*
X0035712Y0057339D01*
X0035725Y0057282D01*
X0035735Y0057224D01*
X0035741Y0057166D01*
X0035743Y0057107D01*
X0035741Y0057048D01*
X0035735Y0056990D01*
X0035725Y0056932D01*
X0035712Y0056875D01*
X0035694Y0056818D01*
X0035673Y0056763D01*
X0035648Y0056710D01*
X0035620Y0056659D01*
X0035589Y0056609D01*
X0035554Y0056562D01*
X0035516Y0056517D01*
X0035475Y0056474D01*
X0035431Y0056435D01*
X0035385Y0056399D01*
X0035337Y0056365D01*
X0035286Y0056335D01*
X0035233Y0056309D01*
X0035179Y0056286D01*
X0035124Y0056267D01*
X0035067Y0056251D01*
X0035009Y0056239D01*
X0034951Y0056231D01*
X0034892Y0056227D01*
X0034834Y0056227D01*
X0034775Y0056231D01*
X0034717Y0056239D01*
X0034659Y0056251D01*
X0034602Y0056267D01*
X0034547Y0056286D01*
X0034493Y0056309D01*
X0034440Y0056335D01*
X0034389Y0056365D01*
X0034341Y0056399D01*
X0034295Y0056435D01*
X0034251Y0056474D01*
X0034210Y0056517D01*
X0034172Y0056562D01*
X0034137Y0056609D01*
X0034106Y0056659D01*
X0034078Y0056710D01*
X0034053Y0056763D01*
X0034032Y0056818D01*
X0034014Y0056875D01*
X0034001Y0056932D01*
X0033991Y0056990D01*
X0033985Y0057048D01*
X0033983Y0057107D01*
X0064020Y0098304D02*
X0141580Y0098304D01*
X0128800Y0102300D02*
X0128802Y0102377D01*
X0128808Y0102454D01*
X0128818Y0102531D01*
X0128832Y0102607D01*
X0128849Y0102682D01*
X0128871Y0102756D01*
X0128896Y0102829D01*
X0128926Y0102901D01*
X0128958Y0102971D01*
X0128995Y0103039D01*
X0129034Y0103105D01*
X0129077Y0103169D01*
X0129124Y0103231D01*
X0129173Y0103290D01*
X0129226Y0103347D01*
X0129281Y0103401D01*
X0129339Y0103452D01*
X0129400Y0103500D01*
X0129463Y0103545D01*
X0129528Y0103586D01*
X0129595Y0103624D01*
X0129664Y0103659D01*
X0129735Y0103689D01*
X0129807Y0103717D01*
X0129881Y0103740D01*
X0129955Y0103760D01*
X0130031Y0103776D01*
X0130107Y0103788D01*
X0130184Y0103796D01*
X0130261Y0103800D01*
X0130339Y0103800D01*
X0130416Y0103796D01*
X0130493Y0103788D01*
X0130569Y0103776D01*
X0130645Y0103760D01*
X0130719Y0103740D01*
X0130793Y0103717D01*
X0130865Y0103689D01*
X0130936Y0103659D01*
X0131005Y0103624D01*
X0131072Y0103586D01*
X0131137Y0103545D01*
X0131200Y0103500D01*
X0131261Y0103452D01*
X0131319Y0103401D01*
X0131374Y0103347D01*
X0131427Y0103290D01*
X0131476Y0103231D01*
X0131523Y0103169D01*
X0131566Y0103105D01*
X0131605Y0103039D01*
X0131642Y0102971D01*
X0131674Y0102901D01*
X0131704Y0102829D01*
X0131729Y0102756D01*
X0131751Y0102682D01*
X0131768Y0102607D01*
X0131782Y0102531D01*
X0131792Y0102454D01*
X0131798Y0102377D01*
X0131800Y0102300D01*
X0131798Y0102223D01*
X0131792Y0102146D01*
X0131782Y0102069D01*
X0131768Y0101993D01*
X0131751Y0101918D01*
X0131729Y0101844D01*
X0131704Y0101771D01*
X0131674Y0101699D01*
X0131642Y0101629D01*
X0131605Y0101561D01*
X0131566Y0101495D01*
X0131523Y0101431D01*
X0131476Y0101369D01*
X0131427Y0101310D01*
X0131374Y0101253D01*
X0131319Y0101199D01*
X0131261Y0101148D01*
X0131200Y0101100D01*
X0131137Y0101055D01*
X0131072Y0101014D01*
X0131005Y0100976D01*
X0130936Y0100941D01*
X0130865Y0100911D01*
X0130793Y0100883D01*
X0130719Y0100860D01*
X0130645Y0100840D01*
X0130569Y0100824D01*
X0130493Y0100812D01*
X0130416Y0100804D01*
X0130339Y0100800D01*
X0130261Y0100800D01*
X0130184Y0100804D01*
X0130107Y0100812D01*
X0130031Y0100824D01*
X0129955Y0100840D01*
X0129881Y0100860D01*
X0129807Y0100883D01*
X0129735Y0100911D01*
X0129664Y0100941D01*
X0129595Y0100976D01*
X0129528Y0101014D01*
X0129463Y0101055D01*
X0129400Y0101100D01*
X0129339Y0101148D01*
X0129281Y0101199D01*
X0129226Y0101253D01*
X0129173Y0101310D01*
X0129124Y0101369D01*
X0129077Y0101431D01*
X0129034Y0101495D01*
X0128995Y0101561D01*
X0128958Y0101629D01*
X0128926Y0101699D01*
X0128896Y0101771D01*
X0128871Y0101844D01*
X0128849Y0101918D01*
X0128832Y0101993D01*
X0128818Y0102069D01*
X0128808Y0102146D01*
X0128802Y0102223D01*
X0128800Y0102300D01*
X0168000Y0115900D02*
X0198400Y0115900D01*
X0198400Y0049800D01*
X0168000Y0049800D01*
X0168000Y0115900D01*
X0175797Y0109947D02*
X0178799Y0109947D01*
X0177298Y0108446D02*
X0177298Y0111449D01*
X0190800Y0087800D02*
X0190800Y0077800D01*
X0195800Y0082800D01*
X0190800Y0087800D01*
X0195800Y0082800D02*
X0175800Y0082800D01*
X0141580Y0161296D02*
X0064020Y0161296D01*
D20*
X0083763Y0133005D02*
X0086966Y0133005D01*
X0088034Y0131938D01*
X0088034Y0129803D01*
X0086966Y0128735D01*
X0083763Y0128735D01*
X0083763Y0126600D02*
X0083763Y0133005D01*
X0085899Y0128735D02*
X0088034Y0126600D01*
X0090209Y0126600D02*
X0090209Y0133005D01*
X0094479Y0133005D01*
X0096654Y0133005D02*
X0098790Y0130870D01*
X0100925Y0133005D01*
X0100925Y0126600D01*
X0103100Y0127668D02*
X0103100Y0129803D01*
X0106303Y0129803D01*
X0107370Y0128735D01*
X0107370Y0127668D01*
X0106303Y0126600D01*
X0104168Y0126600D01*
X0103100Y0127668D01*
X0103100Y0129803D02*
X0105235Y0131938D01*
X0107370Y0133005D01*
X0109545Y0131938D02*
X0109545Y0130870D01*
X0110613Y0129803D01*
X0113816Y0129803D01*
X0113816Y0127668D02*
X0113816Y0131938D01*
X0112748Y0133005D01*
X0110613Y0133005D01*
X0109545Y0131938D01*
X0109545Y0127668D02*
X0110613Y0126600D01*
X0112748Y0126600D01*
X0113816Y0127668D01*
X0115991Y0126600D02*
X0118126Y0128735D01*
X0120261Y0126600D01*
X0120261Y0133005D01*
X0115991Y0133005D02*
X0115991Y0126600D01*
X0096654Y0126600D02*
X0096654Y0133005D01*
X0092344Y0129803D02*
X0090209Y0129803D01*
X0052162Y0103981D02*
X0052162Y0101619D01*
X0047438Y0101619D02*
X0047438Y0103981D01*
X0042300Y0091800D02*
X0053300Y0091800D01*
X0053360Y0091798D01*
X0053421Y0091793D01*
X0053480Y0091784D01*
X0053539Y0091771D01*
X0053598Y0091755D01*
X0053655Y0091735D01*
X0053710Y0091712D01*
X0053765Y0091685D01*
X0053817Y0091656D01*
X0053868Y0091623D01*
X0053917Y0091587D01*
X0053963Y0091549D01*
X0054007Y0091507D01*
X0054049Y0091463D01*
X0054087Y0091417D01*
X0054123Y0091368D01*
X0054156Y0091317D01*
X0054185Y0091265D01*
X0054212Y0091210D01*
X0054235Y0091155D01*
X0054255Y0091098D01*
X0054271Y0091039D01*
X0054284Y0090980D01*
X0054293Y0090921D01*
X0054298Y0090860D01*
X0054300Y0090800D01*
X0054300Y0084800D01*
X0054298Y0084740D01*
X0054293Y0084679D01*
X0054284Y0084620D01*
X0054271Y0084561D01*
X0054255Y0084502D01*
X0054235Y0084445D01*
X0054212Y0084390D01*
X0054185Y0084335D01*
X0054156Y0084283D01*
X0054123Y0084232D01*
X0054087Y0084183D01*
X0054049Y0084137D01*
X0054007Y0084093D01*
X0053963Y0084051D01*
X0053917Y0084013D01*
X0053868Y0083977D01*
X0053817Y0083944D01*
X0053765Y0083915D01*
X0053710Y0083888D01*
X0053655Y0083865D01*
X0053598Y0083845D01*
X0053539Y0083829D01*
X0053480Y0083816D01*
X0053421Y0083807D01*
X0053360Y0083802D01*
X0053300Y0083800D01*
X0042300Y0083800D01*
X0042240Y0083802D01*
X0042179Y0083807D01*
X0042120Y0083816D01*
X0042061Y0083829D01*
X0042002Y0083845D01*
X0041945Y0083865D01*
X0041890Y0083888D01*
X0041835Y0083915D01*
X0041783Y0083944D01*
X0041732Y0083977D01*
X0041683Y0084013D01*
X0041637Y0084051D01*
X0041593Y0084093D01*
X0041551Y0084137D01*
X0041513Y0084183D01*
X0041477Y0084232D01*
X0041444Y0084283D01*
X0041415Y0084335D01*
X0041388Y0084390D01*
X0041365Y0084445D01*
X0041345Y0084502D01*
X0041329Y0084561D01*
X0041316Y0084620D01*
X0041307Y0084679D01*
X0041302Y0084740D01*
X0041300Y0084800D01*
X0041300Y0090800D01*
X0041302Y0090860D01*
X0041307Y0090921D01*
X0041316Y0090980D01*
X0041329Y0091039D01*
X0041345Y0091098D01*
X0041365Y0091155D01*
X0041388Y0091210D01*
X0041415Y0091265D01*
X0041444Y0091317D01*
X0041477Y0091368D01*
X0041513Y0091417D01*
X0041551Y0091463D01*
X0041593Y0091507D01*
X0041637Y0091549D01*
X0041683Y0091587D01*
X0041732Y0091623D01*
X0041783Y0091656D01*
X0041835Y0091685D01*
X0041890Y0091712D01*
X0041945Y0091735D01*
X0042002Y0091755D01*
X0042061Y0091771D01*
X0042120Y0091784D01*
X0042179Y0091793D01*
X0042240Y0091798D01*
X0042300Y0091800D01*
X0027800Y0085300D02*
X0027800Y0080300D01*
X0025300Y0077800D01*
X0020300Y0077800D01*
X0017800Y0080300D01*
X0015300Y0077800D01*
X0010300Y0077800D01*
X0007800Y0080300D01*
X0007800Y0085300D01*
X0010300Y0087800D01*
X0015300Y0087800D01*
X0017800Y0085300D01*
X0020300Y0087800D01*
X0025300Y0087800D01*
X0027800Y0085300D01*
X0017800Y0085300D02*
X0017800Y0080300D01*
X0036619Y0046162D02*
X0038981Y0046162D01*
X0038981Y0041438D02*
X0036619Y0041438D01*
X0056800Y0029300D02*
X0056800Y0024300D01*
X0059300Y0021800D01*
X0064300Y0021800D01*
X0066800Y0024300D01*
X0069300Y0021800D01*
X0074300Y0021800D01*
X0076800Y0024300D01*
X0076800Y0029300D01*
X0074300Y0031800D01*
X0069300Y0031800D01*
X0066800Y0029300D01*
X0066800Y0024300D01*
X0066800Y0029300D02*
X0064300Y0031800D01*
X0059300Y0031800D01*
X0056800Y0029300D01*
X0059300Y0018800D02*
X0056800Y0016300D01*
X0056800Y0011300D01*
X0059300Y0008800D01*
X0064300Y0008800D01*
X0066800Y0011300D01*
X0069300Y0008800D01*
X0074300Y0008800D01*
X0076800Y0011300D01*
X0076800Y0016300D01*
X0074300Y0018800D01*
X0069300Y0018800D01*
X0066800Y0016300D01*
X0066800Y0011300D01*
X0066800Y0016300D02*
X0064300Y0018800D01*
X0059300Y0018800D01*
X0076800Y0016300D02*
X0079300Y0018800D01*
X0084300Y0018800D01*
X0086800Y0016300D01*
X0089300Y0018800D01*
X0094300Y0018800D01*
X0096800Y0016300D01*
X0096800Y0011300D01*
X0094300Y0008800D01*
X0089300Y0008800D01*
X0086800Y0011300D01*
X0084300Y0008800D01*
X0079300Y0008800D01*
X0076800Y0011300D01*
X0086800Y0011300D02*
X0086800Y0016300D01*
X0084300Y0021800D02*
X0079300Y0021800D01*
X0076800Y0024300D01*
X0076800Y0029300D02*
X0079300Y0031800D01*
X0084300Y0031800D01*
X0086800Y0029300D01*
X0089300Y0031800D01*
X0094300Y0031800D01*
X0096800Y0029300D01*
X0096800Y0024300D01*
X0094300Y0021800D01*
X0089300Y0021800D01*
X0086800Y0024300D01*
X0084300Y0021800D01*
X0086800Y0024300D02*
X0086800Y0029300D01*
X0100438Y0028981D02*
X0100438Y0026619D01*
X0105162Y0026619D02*
X0105162Y0028981D01*
X0108800Y0029300D02*
X0111300Y0031800D01*
X0116300Y0031800D01*
X0118800Y0029300D01*
X0121300Y0031800D01*
X0126300Y0031800D01*
X0128800Y0029300D01*
X0128800Y0024300D01*
X0126300Y0021800D01*
X0121300Y0021800D01*
X0118800Y0024300D01*
X0116300Y0021800D01*
X0111300Y0021800D01*
X0108800Y0024300D01*
X0108800Y0029300D01*
X0118800Y0029300D02*
X0118800Y0024300D01*
X0116300Y0018800D02*
X0111300Y0018800D01*
X0108800Y0016300D01*
X0108800Y0011300D01*
X0111300Y0008800D01*
X0116300Y0008800D01*
X0118800Y0011300D01*
X0121300Y0008800D01*
X0126300Y0008800D01*
X0128800Y0011300D01*
X0128800Y0016300D01*
X0126300Y0018800D01*
X0121300Y0018800D01*
X0118800Y0016300D01*
X0118800Y0011300D01*
X0118800Y0016300D02*
X0116300Y0018800D01*
X0128800Y0016300D02*
X0131300Y0018800D01*
X0136300Y0018800D01*
X0138800Y0016300D01*
X0141300Y0018800D01*
X0146300Y0018800D01*
X0148800Y0016300D01*
X0148800Y0011300D01*
X0146300Y0008800D01*
X0141300Y0008800D01*
X0138800Y0011300D01*
X0136300Y0008800D01*
X0131300Y0008800D01*
X0128800Y0011300D01*
X0138800Y0011300D02*
X0138800Y0016300D01*
X0136300Y0021800D02*
X0131300Y0021800D01*
X0128800Y0024300D01*
X0128800Y0029300D02*
X0131300Y0031800D01*
X0136300Y0031800D01*
X0138800Y0029300D01*
X0141300Y0031800D01*
X0146300Y0031800D01*
X0148800Y0029300D01*
X0148800Y0024300D01*
X0146300Y0021800D01*
X0141300Y0021800D01*
X0138800Y0024300D01*
X0136300Y0021800D01*
X0138800Y0024300D02*
X0138800Y0029300D01*
X0131800Y0035300D02*
X0131800Y0052300D01*
X0131798Y0052360D01*
X0131793Y0052421D01*
X0131784Y0052480D01*
X0131771Y0052539D01*
X0131755Y0052598D01*
X0131735Y0052655D01*
X0131712Y0052710D01*
X0131685Y0052765D01*
X0131656Y0052817D01*
X0131623Y0052868D01*
X0131587Y0052917D01*
X0131549Y0052963D01*
X0131507Y0053007D01*
X0131463Y0053049D01*
X0131417Y0053087D01*
X0131368Y0053123D01*
X0131317Y0053156D01*
X0131265Y0053185D01*
X0131210Y0053212D01*
X0131155Y0053235D01*
X0131098Y0053255D01*
X0131039Y0053271D01*
X0130980Y0053284D01*
X0130921Y0053293D01*
X0130860Y0053298D01*
X0130800Y0053300D01*
X0124800Y0053300D01*
X0124740Y0053298D01*
X0124679Y0053293D01*
X0124620Y0053284D01*
X0124561Y0053271D01*
X0124502Y0053255D01*
X0124445Y0053235D01*
X0124390Y0053212D01*
X0124335Y0053185D01*
X0124283Y0053156D01*
X0124232Y0053123D01*
X0124183Y0053087D01*
X0124137Y0053049D01*
X0124093Y0053007D01*
X0124051Y0052963D01*
X0124013Y0052917D01*
X0123977Y0052868D01*
X0123944Y0052817D01*
X0123915Y0052765D01*
X0123888Y0052710D01*
X0123865Y0052655D01*
X0123845Y0052598D01*
X0123829Y0052539D01*
X0123816Y0052480D01*
X0123807Y0052421D01*
X0123802Y0052360D01*
X0123800Y0052300D01*
X0123800Y0035300D01*
X0123802Y0035240D01*
X0123807Y0035179D01*
X0123816Y0035120D01*
X0123829Y0035061D01*
X0123845Y0035002D01*
X0123865Y0034945D01*
X0123888Y0034890D01*
X0123915Y0034835D01*
X0123944Y0034783D01*
X0123977Y0034732D01*
X0124013Y0034683D01*
X0124051Y0034637D01*
X0124093Y0034593D01*
X0124137Y0034551D01*
X0124183Y0034513D01*
X0124232Y0034477D01*
X0124283Y0034444D01*
X0124335Y0034415D01*
X0124390Y0034388D01*
X0124445Y0034365D01*
X0124502Y0034345D01*
X0124561Y0034329D01*
X0124620Y0034316D01*
X0124679Y0034307D01*
X0124740Y0034302D01*
X0124800Y0034300D01*
X0130800Y0034300D01*
X0130860Y0034302D01*
X0130921Y0034307D01*
X0130980Y0034316D01*
X0131039Y0034329D01*
X0131098Y0034345D01*
X0131155Y0034365D01*
X0131210Y0034388D01*
X0131265Y0034415D01*
X0131317Y0034444D01*
X0131368Y0034477D01*
X0131417Y0034513D01*
X0131463Y0034551D01*
X0131507Y0034593D01*
X0131549Y0034637D01*
X0131587Y0034683D01*
X0131623Y0034732D01*
X0131656Y0034783D01*
X0131685Y0034835D01*
X0131712Y0034890D01*
X0131735Y0034945D01*
X0131755Y0035002D01*
X0131771Y0035061D01*
X0131784Y0035120D01*
X0131793Y0035179D01*
X0131798Y0035240D01*
X0131800Y0035300D01*
X0142619Y0048438D02*
X0144981Y0048438D01*
X0144981Y0053162D02*
X0142619Y0053162D01*
X0129981Y0060438D02*
X0127619Y0060438D01*
X0127619Y0065162D02*
X0129981Y0065162D01*
X0129981Y0068438D02*
X0127619Y0068438D01*
X0127619Y0073162D02*
X0129981Y0073162D01*
X0145619Y0074438D02*
X0147981Y0074438D01*
X0147981Y0079162D02*
X0145619Y0079162D01*
X0145619Y0084438D02*
X0147981Y0084438D01*
X0147981Y0089162D02*
X0145619Y0089162D01*
X0158438Y0083981D02*
X0158438Y0081619D01*
X0163162Y0081619D02*
X0163162Y0083981D01*
X0163162Y0102619D02*
X0163162Y0104981D01*
X0158438Y0104981D02*
X0158438Y0102619D01*
X0169619Y0139438D02*
X0171981Y0139438D01*
X0171981Y0144162D02*
X0169619Y0144162D01*
X0110599Y0080599D02*
X0083001Y0080599D01*
X0068981Y0077162D02*
X0066619Y0077162D01*
X0066619Y0072438D02*
X0068981Y0072438D01*
X0068981Y0068162D02*
X0066619Y0068162D01*
X0066619Y0063438D02*
X0068981Y0063438D01*
X0068162Y0048981D02*
X0068162Y0046619D01*
X0063438Y0046619D02*
X0063438Y0048981D01*
D21*
X0042639Y0052973D03*
X0040080Y0052973D03*
X0037520Y0052973D03*
X0034961Y0052973D03*
X0034961Y0074627D03*
X0037520Y0074627D03*
X0040080Y0074627D03*
X0042639Y0074627D03*
M02*
