G75*
%MOIN*%
%OFA0B0*%
%FSLAX25Y25*%
%IPPOS*%
%LPD*%
%AMOC8*
5,1,8,0,0,1.08239X$1,22.5*
%
%ADD10C,0.00000*%
%ADD11C,0.01200*%
%ADD12OC8,0.06000*%
%ADD13OC8,0.10050*%
%ADD14OC8,0.06600*%
%ADD15OC8,0.07000*%
%ADD16R,0.03000X0.05000*%
%ADD17C,0.01600*%
%ADD18OC8,0.03562*%
D10*
X0003863Y0008800D02*
X0003865Y0008925D01*
X0003871Y0009050D01*
X0003881Y0009174D01*
X0003895Y0009298D01*
X0003912Y0009422D01*
X0003934Y0009545D01*
X0003960Y0009667D01*
X0003989Y0009789D01*
X0004022Y0009909D01*
X0004060Y0010028D01*
X0004100Y0010147D01*
X0004145Y0010263D01*
X0004193Y0010378D01*
X0004245Y0010492D01*
X0004301Y0010604D01*
X0004360Y0010714D01*
X0004422Y0010822D01*
X0004488Y0010929D01*
X0004557Y0011033D01*
X0004630Y0011134D01*
X0004705Y0011234D01*
X0004784Y0011331D01*
X0004866Y0011425D01*
X0004951Y0011517D01*
X0005038Y0011606D01*
X0005129Y0011692D01*
X0005222Y0011775D01*
X0005318Y0011856D01*
X0005416Y0011933D01*
X0005516Y0012007D01*
X0005619Y0012078D01*
X0005724Y0012145D01*
X0005832Y0012210D01*
X0005941Y0012270D01*
X0006052Y0012328D01*
X0006165Y0012381D01*
X0006279Y0012431D01*
X0006395Y0012478D01*
X0006512Y0012520D01*
X0006631Y0012559D01*
X0006751Y0012595D01*
X0006872Y0012626D01*
X0006994Y0012654D01*
X0007116Y0012677D01*
X0007240Y0012697D01*
X0007364Y0012713D01*
X0007488Y0012725D01*
X0007613Y0012733D01*
X0007738Y0012737D01*
X0007862Y0012737D01*
X0007987Y0012733D01*
X0008112Y0012725D01*
X0008236Y0012713D01*
X0008360Y0012697D01*
X0008484Y0012677D01*
X0008606Y0012654D01*
X0008728Y0012626D01*
X0008849Y0012595D01*
X0008969Y0012559D01*
X0009088Y0012520D01*
X0009205Y0012478D01*
X0009321Y0012431D01*
X0009435Y0012381D01*
X0009548Y0012328D01*
X0009659Y0012270D01*
X0009769Y0012210D01*
X0009876Y0012145D01*
X0009981Y0012078D01*
X0010084Y0012007D01*
X0010184Y0011933D01*
X0010282Y0011856D01*
X0010378Y0011775D01*
X0010471Y0011692D01*
X0010562Y0011606D01*
X0010649Y0011517D01*
X0010734Y0011425D01*
X0010816Y0011331D01*
X0010895Y0011234D01*
X0010970Y0011134D01*
X0011043Y0011033D01*
X0011112Y0010929D01*
X0011178Y0010822D01*
X0011240Y0010714D01*
X0011299Y0010604D01*
X0011355Y0010492D01*
X0011407Y0010378D01*
X0011455Y0010263D01*
X0011500Y0010147D01*
X0011540Y0010028D01*
X0011578Y0009909D01*
X0011611Y0009789D01*
X0011640Y0009667D01*
X0011666Y0009545D01*
X0011688Y0009422D01*
X0011705Y0009298D01*
X0011719Y0009174D01*
X0011729Y0009050D01*
X0011735Y0008925D01*
X0011737Y0008800D01*
X0011735Y0008675D01*
X0011729Y0008550D01*
X0011719Y0008426D01*
X0011705Y0008302D01*
X0011688Y0008178D01*
X0011666Y0008055D01*
X0011640Y0007933D01*
X0011611Y0007811D01*
X0011578Y0007691D01*
X0011540Y0007572D01*
X0011500Y0007453D01*
X0011455Y0007337D01*
X0011407Y0007222D01*
X0011355Y0007108D01*
X0011299Y0006996D01*
X0011240Y0006886D01*
X0011178Y0006778D01*
X0011112Y0006671D01*
X0011043Y0006567D01*
X0010970Y0006466D01*
X0010895Y0006366D01*
X0010816Y0006269D01*
X0010734Y0006175D01*
X0010649Y0006083D01*
X0010562Y0005994D01*
X0010471Y0005908D01*
X0010378Y0005825D01*
X0010282Y0005744D01*
X0010184Y0005667D01*
X0010084Y0005593D01*
X0009981Y0005522D01*
X0009876Y0005455D01*
X0009768Y0005390D01*
X0009659Y0005330D01*
X0009548Y0005272D01*
X0009435Y0005219D01*
X0009321Y0005169D01*
X0009205Y0005122D01*
X0009088Y0005080D01*
X0008969Y0005041D01*
X0008849Y0005005D01*
X0008728Y0004974D01*
X0008606Y0004946D01*
X0008484Y0004923D01*
X0008360Y0004903D01*
X0008236Y0004887D01*
X0008112Y0004875D01*
X0007987Y0004867D01*
X0007862Y0004863D01*
X0007738Y0004863D01*
X0007613Y0004867D01*
X0007488Y0004875D01*
X0007364Y0004887D01*
X0007240Y0004903D01*
X0007116Y0004923D01*
X0006994Y0004946D01*
X0006872Y0004974D01*
X0006751Y0005005D01*
X0006631Y0005041D01*
X0006512Y0005080D01*
X0006395Y0005122D01*
X0006279Y0005169D01*
X0006165Y0005219D01*
X0006052Y0005272D01*
X0005941Y0005330D01*
X0005831Y0005390D01*
X0005724Y0005455D01*
X0005619Y0005522D01*
X0005516Y0005593D01*
X0005416Y0005667D01*
X0005318Y0005744D01*
X0005222Y0005825D01*
X0005129Y0005908D01*
X0005038Y0005994D01*
X0004951Y0006083D01*
X0004866Y0006175D01*
X0004784Y0006269D01*
X0004705Y0006366D01*
X0004630Y0006466D01*
X0004557Y0006567D01*
X0004488Y0006671D01*
X0004422Y0006778D01*
X0004360Y0006886D01*
X0004301Y0006996D01*
X0004245Y0007108D01*
X0004193Y0007222D01*
X0004145Y0007337D01*
X0004100Y0007453D01*
X0004060Y0007572D01*
X0004022Y0007691D01*
X0003989Y0007811D01*
X0003960Y0007933D01*
X0003934Y0008055D01*
X0003912Y0008178D01*
X0003895Y0008302D01*
X0003881Y0008426D01*
X0003871Y0008550D01*
X0003865Y0008675D01*
X0003863Y0008800D01*
X0003863Y0159800D02*
X0003865Y0159925D01*
X0003871Y0160050D01*
X0003881Y0160174D01*
X0003895Y0160298D01*
X0003912Y0160422D01*
X0003934Y0160545D01*
X0003960Y0160667D01*
X0003989Y0160789D01*
X0004022Y0160909D01*
X0004060Y0161028D01*
X0004100Y0161147D01*
X0004145Y0161263D01*
X0004193Y0161378D01*
X0004245Y0161492D01*
X0004301Y0161604D01*
X0004360Y0161714D01*
X0004422Y0161822D01*
X0004488Y0161929D01*
X0004557Y0162033D01*
X0004630Y0162134D01*
X0004705Y0162234D01*
X0004784Y0162331D01*
X0004866Y0162425D01*
X0004951Y0162517D01*
X0005038Y0162606D01*
X0005129Y0162692D01*
X0005222Y0162775D01*
X0005318Y0162856D01*
X0005416Y0162933D01*
X0005516Y0163007D01*
X0005619Y0163078D01*
X0005724Y0163145D01*
X0005832Y0163210D01*
X0005941Y0163270D01*
X0006052Y0163328D01*
X0006165Y0163381D01*
X0006279Y0163431D01*
X0006395Y0163478D01*
X0006512Y0163520D01*
X0006631Y0163559D01*
X0006751Y0163595D01*
X0006872Y0163626D01*
X0006994Y0163654D01*
X0007116Y0163677D01*
X0007240Y0163697D01*
X0007364Y0163713D01*
X0007488Y0163725D01*
X0007613Y0163733D01*
X0007738Y0163737D01*
X0007862Y0163737D01*
X0007987Y0163733D01*
X0008112Y0163725D01*
X0008236Y0163713D01*
X0008360Y0163697D01*
X0008484Y0163677D01*
X0008606Y0163654D01*
X0008728Y0163626D01*
X0008849Y0163595D01*
X0008969Y0163559D01*
X0009088Y0163520D01*
X0009205Y0163478D01*
X0009321Y0163431D01*
X0009435Y0163381D01*
X0009548Y0163328D01*
X0009659Y0163270D01*
X0009769Y0163210D01*
X0009876Y0163145D01*
X0009981Y0163078D01*
X0010084Y0163007D01*
X0010184Y0162933D01*
X0010282Y0162856D01*
X0010378Y0162775D01*
X0010471Y0162692D01*
X0010562Y0162606D01*
X0010649Y0162517D01*
X0010734Y0162425D01*
X0010816Y0162331D01*
X0010895Y0162234D01*
X0010970Y0162134D01*
X0011043Y0162033D01*
X0011112Y0161929D01*
X0011178Y0161822D01*
X0011240Y0161714D01*
X0011299Y0161604D01*
X0011355Y0161492D01*
X0011407Y0161378D01*
X0011455Y0161263D01*
X0011500Y0161147D01*
X0011540Y0161028D01*
X0011578Y0160909D01*
X0011611Y0160789D01*
X0011640Y0160667D01*
X0011666Y0160545D01*
X0011688Y0160422D01*
X0011705Y0160298D01*
X0011719Y0160174D01*
X0011729Y0160050D01*
X0011735Y0159925D01*
X0011737Y0159800D01*
X0011735Y0159675D01*
X0011729Y0159550D01*
X0011719Y0159426D01*
X0011705Y0159302D01*
X0011688Y0159178D01*
X0011666Y0159055D01*
X0011640Y0158933D01*
X0011611Y0158811D01*
X0011578Y0158691D01*
X0011540Y0158572D01*
X0011500Y0158453D01*
X0011455Y0158337D01*
X0011407Y0158222D01*
X0011355Y0158108D01*
X0011299Y0157996D01*
X0011240Y0157886D01*
X0011178Y0157778D01*
X0011112Y0157671D01*
X0011043Y0157567D01*
X0010970Y0157466D01*
X0010895Y0157366D01*
X0010816Y0157269D01*
X0010734Y0157175D01*
X0010649Y0157083D01*
X0010562Y0156994D01*
X0010471Y0156908D01*
X0010378Y0156825D01*
X0010282Y0156744D01*
X0010184Y0156667D01*
X0010084Y0156593D01*
X0009981Y0156522D01*
X0009876Y0156455D01*
X0009768Y0156390D01*
X0009659Y0156330D01*
X0009548Y0156272D01*
X0009435Y0156219D01*
X0009321Y0156169D01*
X0009205Y0156122D01*
X0009088Y0156080D01*
X0008969Y0156041D01*
X0008849Y0156005D01*
X0008728Y0155974D01*
X0008606Y0155946D01*
X0008484Y0155923D01*
X0008360Y0155903D01*
X0008236Y0155887D01*
X0008112Y0155875D01*
X0007987Y0155867D01*
X0007862Y0155863D01*
X0007738Y0155863D01*
X0007613Y0155867D01*
X0007488Y0155875D01*
X0007364Y0155887D01*
X0007240Y0155903D01*
X0007116Y0155923D01*
X0006994Y0155946D01*
X0006872Y0155974D01*
X0006751Y0156005D01*
X0006631Y0156041D01*
X0006512Y0156080D01*
X0006395Y0156122D01*
X0006279Y0156169D01*
X0006165Y0156219D01*
X0006052Y0156272D01*
X0005941Y0156330D01*
X0005831Y0156390D01*
X0005724Y0156455D01*
X0005619Y0156522D01*
X0005516Y0156593D01*
X0005416Y0156667D01*
X0005318Y0156744D01*
X0005222Y0156825D01*
X0005129Y0156908D01*
X0005038Y0156994D01*
X0004951Y0157083D01*
X0004866Y0157175D01*
X0004784Y0157269D01*
X0004705Y0157366D01*
X0004630Y0157466D01*
X0004557Y0157567D01*
X0004488Y0157671D01*
X0004422Y0157778D01*
X0004360Y0157886D01*
X0004301Y0157996D01*
X0004245Y0158108D01*
X0004193Y0158222D01*
X0004145Y0158337D01*
X0004100Y0158453D01*
X0004060Y0158572D01*
X0004022Y0158691D01*
X0003989Y0158811D01*
X0003960Y0158933D01*
X0003934Y0159055D01*
X0003912Y0159178D01*
X0003895Y0159302D01*
X0003881Y0159426D01*
X0003871Y0159550D01*
X0003865Y0159675D01*
X0003863Y0159800D01*
X0191863Y0159800D02*
X0191865Y0159925D01*
X0191871Y0160050D01*
X0191881Y0160174D01*
X0191895Y0160298D01*
X0191912Y0160422D01*
X0191934Y0160545D01*
X0191960Y0160667D01*
X0191989Y0160789D01*
X0192022Y0160909D01*
X0192060Y0161028D01*
X0192100Y0161147D01*
X0192145Y0161263D01*
X0192193Y0161378D01*
X0192245Y0161492D01*
X0192301Y0161604D01*
X0192360Y0161714D01*
X0192422Y0161822D01*
X0192488Y0161929D01*
X0192557Y0162033D01*
X0192630Y0162134D01*
X0192705Y0162234D01*
X0192784Y0162331D01*
X0192866Y0162425D01*
X0192951Y0162517D01*
X0193038Y0162606D01*
X0193129Y0162692D01*
X0193222Y0162775D01*
X0193318Y0162856D01*
X0193416Y0162933D01*
X0193516Y0163007D01*
X0193619Y0163078D01*
X0193724Y0163145D01*
X0193832Y0163210D01*
X0193941Y0163270D01*
X0194052Y0163328D01*
X0194165Y0163381D01*
X0194279Y0163431D01*
X0194395Y0163478D01*
X0194512Y0163520D01*
X0194631Y0163559D01*
X0194751Y0163595D01*
X0194872Y0163626D01*
X0194994Y0163654D01*
X0195116Y0163677D01*
X0195240Y0163697D01*
X0195364Y0163713D01*
X0195488Y0163725D01*
X0195613Y0163733D01*
X0195738Y0163737D01*
X0195862Y0163737D01*
X0195987Y0163733D01*
X0196112Y0163725D01*
X0196236Y0163713D01*
X0196360Y0163697D01*
X0196484Y0163677D01*
X0196606Y0163654D01*
X0196728Y0163626D01*
X0196849Y0163595D01*
X0196969Y0163559D01*
X0197088Y0163520D01*
X0197205Y0163478D01*
X0197321Y0163431D01*
X0197435Y0163381D01*
X0197548Y0163328D01*
X0197659Y0163270D01*
X0197769Y0163210D01*
X0197876Y0163145D01*
X0197981Y0163078D01*
X0198084Y0163007D01*
X0198184Y0162933D01*
X0198282Y0162856D01*
X0198378Y0162775D01*
X0198471Y0162692D01*
X0198562Y0162606D01*
X0198649Y0162517D01*
X0198734Y0162425D01*
X0198816Y0162331D01*
X0198895Y0162234D01*
X0198970Y0162134D01*
X0199043Y0162033D01*
X0199112Y0161929D01*
X0199178Y0161822D01*
X0199240Y0161714D01*
X0199299Y0161604D01*
X0199355Y0161492D01*
X0199407Y0161378D01*
X0199455Y0161263D01*
X0199500Y0161147D01*
X0199540Y0161028D01*
X0199578Y0160909D01*
X0199611Y0160789D01*
X0199640Y0160667D01*
X0199666Y0160545D01*
X0199688Y0160422D01*
X0199705Y0160298D01*
X0199719Y0160174D01*
X0199729Y0160050D01*
X0199735Y0159925D01*
X0199737Y0159800D01*
X0199735Y0159675D01*
X0199729Y0159550D01*
X0199719Y0159426D01*
X0199705Y0159302D01*
X0199688Y0159178D01*
X0199666Y0159055D01*
X0199640Y0158933D01*
X0199611Y0158811D01*
X0199578Y0158691D01*
X0199540Y0158572D01*
X0199500Y0158453D01*
X0199455Y0158337D01*
X0199407Y0158222D01*
X0199355Y0158108D01*
X0199299Y0157996D01*
X0199240Y0157886D01*
X0199178Y0157778D01*
X0199112Y0157671D01*
X0199043Y0157567D01*
X0198970Y0157466D01*
X0198895Y0157366D01*
X0198816Y0157269D01*
X0198734Y0157175D01*
X0198649Y0157083D01*
X0198562Y0156994D01*
X0198471Y0156908D01*
X0198378Y0156825D01*
X0198282Y0156744D01*
X0198184Y0156667D01*
X0198084Y0156593D01*
X0197981Y0156522D01*
X0197876Y0156455D01*
X0197768Y0156390D01*
X0197659Y0156330D01*
X0197548Y0156272D01*
X0197435Y0156219D01*
X0197321Y0156169D01*
X0197205Y0156122D01*
X0197088Y0156080D01*
X0196969Y0156041D01*
X0196849Y0156005D01*
X0196728Y0155974D01*
X0196606Y0155946D01*
X0196484Y0155923D01*
X0196360Y0155903D01*
X0196236Y0155887D01*
X0196112Y0155875D01*
X0195987Y0155867D01*
X0195862Y0155863D01*
X0195738Y0155863D01*
X0195613Y0155867D01*
X0195488Y0155875D01*
X0195364Y0155887D01*
X0195240Y0155903D01*
X0195116Y0155923D01*
X0194994Y0155946D01*
X0194872Y0155974D01*
X0194751Y0156005D01*
X0194631Y0156041D01*
X0194512Y0156080D01*
X0194395Y0156122D01*
X0194279Y0156169D01*
X0194165Y0156219D01*
X0194052Y0156272D01*
X0193941Y0156330D01*
X0193831Y0156390D01*
X0193724Y0156455D01*
X0193619Y0156522D01*
X0193516Y0156593D01*
X0193416Y0156667D01*
X0193318Y0156744D01*
X0193222Y0156825D01*
X0193129Y0156908D01*
X0193038Y0156994D01*
X0192951Y0157083D01*
X0192866Y0157175D01*
X0192784Y0157269D01*
X0192705Y0157366D01*
X0192630Y0157466D01*
X0192557Y0157567D01*
X0192488Y0157671D01*
X0192422Y0157778D01*
X0192360Y0157886D01*
X0192301Y0157996D01*
X0192245Y0158108D01*
X0192193Y0158222D01*
X0192145Y0158337D01*
X0192100Y0158453D01*
X0192060Y0158572D01*
X0192022Y0158691D01*
X0191989Y0158811D01*
X0191960Y0158933D01*
X0191934Y0159055D01*
X0191912Y0159178D01*
X0191895Y0159302D01*
X0191881Y0159426D01*
X0191871Y0159550D01*
X0191865Y0159675D01*
X0191863Y0159800D01*
X0191863Y0008800D02*
X0191865Y0008925D01*
X0191871Y0009050D01*
X0191881Y0009174D01*
X0191895Y0009298D01*
X0191912Y0009422D01*
X0191934Y0009545D01*
X0191960Y0009667D01*
X0191989Y0009789D01*
X0192022Y0009909D01*
X0192060Y0010028D01*
X0192100Y0010147D01*
X0192145Y0010263D01*
X0192193Y0010378D01*
X0192245Y0010492D01*
X0192301Y0010604D01*
X0192360Y0010714D01*
X0192422Y0010822D01*
X0192488Y0010929D01*
X0192557Y0011033D01*
X0192630Y0011134D01*
X0192705Y0011234D01*
X0192784Y0011331D01*
X0192866Y0011425D01*
X0192951Y0011517D01*
X0193038Y0011606D01*
X0193129Y0011692D01*
X0193222Y0011775D01*
X0193318Y0011856D01*
X0193416Y0011933D01*
X0193516Y0012007D01*
X0193619Y0012078D01*
X0193724Y0012145D01*
X0193832Y0012210D01*
X0193941Y0012270D01*
X0194052Y0012328D01*
X0194165Y0012381D01*
X0194279Y0012431D01*
X0194395Y0012478D01*
X0194512Y0012520D01*
X0194631Y0012559D01*
X0194751Y0012595D01*
X0194872Y0012626D01*
X0194994Y0012654D01*
X0195116Y0012677D01*
X0195240Y0012697D01*
X0195364Y0012713D01*
X0195488Y0012725D01*
X0195613Y0012733D01*
X0195738Y0012737D01*
X0195862Y0012737D01*
X0195987Y0012733D01*
X0196112Y0012725D01*
X0196236Y0012713D01*
X0196360Y0012697D01*
X0196484Y0012677D01*
X0196606Y0012654D01*
X0196728Y0012626D01*
X0196849Y0012595D01*
X0196969Y0012559D01*
X0197088Y0012520D01*
X0197205Y0012478D01*
X0197321Y0012431D01*
X0197435Y0012381D01*
X0197548Y0012328D01*
X0197659Y0012270D01*
X0197769Y0012210D01*
X0197876Y0012145D01*
X0197981Y0012078D01*
X0198084Y0012007D01*
X0198184Y0011933D01*
X0198282Y0011856D01*
X0198378Y0011775D01*
X0198471Y0011692D01*
X0198562Y0011606D01*
X0198649Y0011517D01*
X0198734Y0011425D01*
X0198816Y0011331D01*
X0198895Y0011234D01*
X0198970Y0011134D01*
X0199043Y0011033D01*
X0199112Y0010929D01*
X0199178Y0010822D01*
X0199240Y0010714D01*
X0199299Y0010604D01*
X0199355Y0010492D01*
X0199407Y0010378D01*
X0199455Y0010263D01*
X0199500Y0010147D01*
X0199540Y0010028D01*
X0199578Y0009909D01*
X0199611Y0009789D01*
X0199640Y0009667D01*
X0199666Y0009545D01*
X0199688Y0009422D01*
X0199705Y0009298D01*
X0199719Y0009174D01*
X0199729Y0009050D01*
X0199735Y0008925D01*
X0199737Y0008800D01*
X0199735Y0008675D01*
X0199729Y0008550D01*
X0199719Y0008426D01*
X0199705Y0008302D01*
X0199688Y0008178D01*
X0199666Y0008055D01*
X0199640Y0007933D01*
X0199611Y0007811D01*
X0199578Y0007691D01*
X0199540Y0007572D01*
X0199500Y0007453D01*
X0199455Y0007337D01*
X0199407Y0007222D01*
X0199355Y0007108D01*
X0199299Y0006996D01*
X0199240Y0006886D01*
X0199178Y0006778D01*
X0199112Y0006671D01*
X0199043Y0006567D01*
X0198970Y0006466D01*
X0198895Y0006366D01*
X0198816Y0006269D01*
X0198734Y0006175D01*
X0198649Y0006083D01*
X0198562Y0005994D01*
X0198471Y0005908D01*
X0198378Y0005825D01*
X0198282Y0005744D01*
X0198184Y0005667D01*
X0198084Y0005593D01*
X0197981Y0005522D01*
X0197876Y0005455D01*
X0197768Y0005390D01*
X0197659Y0005330D01*
X0197548Y0005272D01*
X0197435Y0005219D01*
X0197321Y0005169D01*
X0197205Y0005122D01*
X0197088Y0005080D01*
X0196969Y0005041D01*
X0196849Y0005005D01*
X0196728Y0004974D01*
X0196606Y0004946D01*
X0196484Y0004923D01*
X0196360Y0004903D01*
X0196236Y0004887D01*
X0196112Y0004875D01*
X0195987Y0004867D01*
X0195862Y0004863D01*
X0195738Y0004863D01*
X0195613Y0004867D01*
X0195488Y0004875D01*
X0195364Y0004887D01*
X0195240Y0004903D01*
X0195116Y0004923D01*
X0194994Y0004946D01*
X0194872Y0004974D01*
X0194751Y0005005D01*
X0194631Y0005041D01*
X0194512Y0005080D01*
X0194395Y0005122D01*
X0194279Y0005169D01*
X0194165Y0005219D01*
X0194052Y0005272D01*
X0193941Y0005330D01*
X0193831Y0005390D01*
X0193724Y0005455D01*
X0193619Y0005522D01*
X0193516Y0005593D01*
X0193416Y0005667D01*
X0193318Y0005744D01*
X0193222Y0005825D01*
X0193129Y0005908D01*
X0193038Y0005994D01*
X0192951Y0006083D01*
X0192866Y0006175D01*
X0192784Y0006269D01*
X0192705Y0006366D01*
X0192630Y0006466D01*
X0192557Y0006567D01*
X0192488Y0006671D01*
X0192422Y0006778D01*
X0192360Y0006886D01*
X0192301Y0006996D01*
X0192245Y0007108D01*
X0192193Y0007222D01*
X0192145Y0007337D01*
X0192100Y0007453D01*
X0192060Y0007572D01*
X0192022Y0007691D01*
X0191989Y0007811D01*
X0191960Y0007933D01*
X0191934Y0008055D01*
X0191912Y0008178D01*
X0191895Y0008302D01*
X0191881Y0008426D01*
X0191871Y0008550D01*
X0191865Y0008675D01*
X0191863Y0008800D01*
D11*
X0001800Y0001800D02*
X0001800Y0166800D01*
X0201800Y0166800D01*
X0201800Y0001800D01*
X0001800Y0001800D01*
X0085300Y0068233D02*
X0085800Y0068733D01*
X0089800Y0068733D02*
X0090300Y0068233D01*
X0094800Y0068733D02*
X0095300Y0068233D01*
X0100300Y0068233D02*
X0100800Y0068733D01*
X0105300Y0068233D02*
X0105800Y0068733D01*
D12*
X0114800Y0026800D03*
X0124800Y0026800D03*
X0134800Y0026800D03*
X0144800Y0026800D03*
X0144800Y0013800D03*
X0134800Y0013800D03*
X0124800Y0013800D03*
X0114800Y0013800D03*
X0092800Y0013800D03*
X0082800Y0013800D03*
X0072800Y0013800D03*
X0062800Y0013800D03*
X0062800Y0026800D03*
X0072800Y0026800D03*
X0082800Y0026800D03*
X0092800Y0026800D03*
X0023800Y0082800D03*
X0013800Y0082800D03*
D13*
X0018800Y0135800D03*
X0048800Y0135800D03*
X0158800Y0135800D03*
X0188800Y0135800D03*
X0188800Y0029800D03*
X0158800Y0029800D03*
X0048800Y0029800D03*
X0018800Y0029800D03*
D14*
X0014800Y0097800D03*
X0014800Y0107800D03*
X0024800Y0107800D03*
X0024800Y0097800D03*
X0034800Y0097800D03*
X0034800Y0107800D03*
D15*
X0186800Y0107997D03*
X0186800Y0057603D03*
D16*
X0115300Y0068233D03*
X0110300Y0068233D03*
X0105300Y0068233D03*
X0100300Y0068233D03*
X0095300Y0068233D03*
X0090300Y0068233D03*
X0085300Y0068233D03*
X0080300Y0068233D03*
X0080300Y0097367D03*
X0085300Y0097367D03*
X0090300Y0097367D03*
X0095300Y0097367D03*
X0100300Y0097367D03*
X0105300Y0097367D03*
X0110300Y0097367D03*
X0115300Y0097367D03*
D17*
X0115300Y0112300D01*
X0119800Y0104800D02*
X0126800Y0110800D01*
X0119800Y0104800D02*
X0119800Y0052800D01*
X0114800Y0046800D01*
X0117800Y0041800D02*
X0119800Y0043800D01*
X0147800Y0073800D01*
X0160800Y0073800D01*
X0117800Y0041800D02*
X0087800Y0041800D01*
X0081800Y0045800D02*
X0081800Y0059800D01*
X0058800Y0082800D01*
X0023800Y0082800D01*
X0007800Y0101800D02*
X0014800Y0107800D01*
X0007800Y0101800D02*
X0007800Y0056800D01*
X0043800Y0019800D01*
X0095800Y0019800D01*
X0099800Y0023800D01*
X0099800Y0035800D01*
X0101800Y0037800D01*
X0114800Y0036800D02*
X0135800Y0036800D01*
X0138800Y0019800D02*
X0107800Y0019800D01*
X0103800Y0016800D01*
X0092800Y0026800D02*
X0092800Y0027800D01*
X0074800Y0046800D01*
X0074800Y0059800D01*
X0085800Y0068733D02*
X0085800Y0071800D01*
X0087800Y0073800D01*
X0087800Y0076800D01*
X0092800Y0074800D02*
X0089800Y0071800D01*
X0089800Y0068733D01*
X0094800Y0068733D02*
X0094800Y0070800D01*
X0098800Y0074800D01*
X0100800Y0071800D02*
X0103800Y0074800D01*
X0100800Y0071800D02*
X0100800Y0068733D01*
X0105800Y0068733D02*
X0105800Y0070800D01*
X0108800Y0073800D01*
X0108800Y0075800D01*
X0110300Y0068233D02*
X0110300Y0065300D01*
X0107800Y0062800D01*
X0089800Y0062800D01*
X0087800Y0060800D01*
X0091800Y0057800D02*
X0093800Y0059800D01*
X0110800Y0059800D01*
X0115300Y0063300D01*
X0115300Y0068233D01*
X0115300Y0097367D02*
X0110300Y0097367D01*
X0105300Y0097367D01*
X0100300Y0097367D01*
X0095300Y0097367D01*
X0090300Y0097367D01*
X0085300Y0097367D01*
X0080300Y0097367D01*
X0078800Y0109800D02*
X0094800Y0109800D01*
X0090800Y0117800D02*
X0078800Y0117800D01*
X0078800Y0125800D02*
X0086800Y0125800D01*
X0138800Y0019800D02*
X0144800Y0013800D01*
D18*
X0135800Y0036800D03*
X0114800Y0036800D03*
X0114800Y0046800D03*
X0101800Y0037800D03*
X0087800Y0041800D03*
X0081800Y0045800D03*
X0091800Y0057800D03*
X0087800Y0060800D03*
X0074800Y0059800D03*
X0092800Y0074800D03*
X0087800Y0076800D03*
X0098800Y0074800D03*
X0103800Y0074800D03*
X0108800Y0075800D03*
X0094800Y0109800D03*
X0090800Y0117800D03*
X0086800Y0125800D03*
X0078800Y0125800D03*
X0078800Y0117800D03*
X0078800Y0109800D03*
X0115300Y0112300D03*
X0126800Y0110800D03*
X0160800Y0073800D03*
X0103800Y0016800D03*
M02*
