G75*
%MOIN*%
%OFA0B0*%
%FSLAX25Y25*%
%IPPOS*%
%LPD*%
%AMOC8*
5,1,8,0,0,1.08239X$1,22.5*
%
%ADD10C,0.00000*%
%ADD11C,0.01200*%
%ADD12C,0.00400*%
%ADD13C,0.00300*%
%ADD14C,0.01000*%
%ADD15C,0.01600*%
%ADD16C,0.00800*%
%ADD17C,0.00700*%
%ADD18C,0.00600*%
%ADD19R,0.02000X0.01500*%
D10*
X0003863Y0007800D02*
X0003865Y0007925D01*
X0003871Y0008050D01*
X0003881Y0008174D01*
X0003895Y0008298D01*
X0003912Y0008422D01*
X0003934Y0008545D01*
X0003960Y0008667D01*
X0003989Y0008789D01*
X0004022Y0008909D01*
X0004060Y0009028D01*
X0004100Y0009147D01*
X0004145Y0009263D01*
X0004193Y0009378D01*
X0004245Y0009492D01*
X0004301Y0009604D01*
X0004360Y0009714D01*
X0004422Y0009822D01*
X0004488Y0009929D01*
X0004557Y0010033D01*
X0004630Y0010134D01*
X0004705Y0010234D01*
X0004784Y0010331D01*
X0004866Y0010425D01*
X0004951Y0010517D01*
X0005038Y0010606D01*
X0005129Y0010692D01*
X0005222Y0010775D01*
X0005318Y0010856D01*
X0005416Y0010933D01*
X0005516Y0011007D01*
X0005619Y0011078D01*
X0005724Y0011145D01*
X0005832Y0011210D01*
X0005941Y0011270D01*
X0006052Y0011328D01*
X0006165Y0011381D01*
X0006279Y0011431D01*
X0006395Y0011478D01*
X0006512Y0011520D01*
X0006631Y0011559D01*
X0006751Y0011595D01*
X0006872Y0011626D01*
X0006994Y0011654D01*
X0007116Y0011677D01*
X0007240Y0011697D01*
X0007364Y0011713D01*
X0007488Y0011725D01*
X0007613Y0011733D01*
X0007738Y0011737D01*
X0007862Y0011737D01*
X0007987Y0011733D01*
X0008112Y0011725D01*
X0008236Y0011713D01*
X0008360Y0011697D01*
X0008484Y0011677D01*
X0008606Y0011654D01*
X0008728Y0011626D01*
X0008849Y0011595D01*
X0008969Y0011559D01*
X0009088Y0011520D01*
X0009205Y0011478D01*
X0009321Y0011431D01*
X0009435Y0011381D01*
X0009548Y0011328D01*
X0009659Y0011270D01*
X0009769Y0011210D01*
X0009876Y0011145D01*
X0009981Y0011078D01*
X0010084Y0011007D01*
X0010184Y0010933D01*
X0010282Y0010856D01*
X0010378Y0010775D01*
X0010471Y0010692D01*
X0010562Y0010606D01*
X0010649Y0010517D01*
X0010734Y0010425D01*
X0010816Y0010331D01*
X0010895Y0010234D01*
X0010970Y0010134D01*
X0011043Y0010033D01*
X0011112Y0009929D01*
X0011178Y0009822D01*
X0011240Y0009714D01*
X0011299Y0009604D01*
X0011355Y0009492D01*
X0011407Y0009378D01*
X0011455Y0009263D01*
X0011500Y0009147D01*
X0011540Y0009028D01*
X0011578Y0008909D01*
X0011611Y0008789D01*
X0011640Y0008667D01*
X0011666Y0008545D01*
X0011688Y0008422D01*
X0011705Y0008298D01*
X0011719Y0008174D01*
X0011729Y0008050D01*
X0011735Y0007925D01*
X0011737Y0007800D01*
X0011735Y0007675D01*
X0011729Y0007550D01*
X0011719Y0007426D01*
X0011705Y0007302D01*
X0011688Y0007178D01*
X0011666Y0007055D01*
X0011640Y0006933D01*
X0011611Y0006811D01*
X0011578Y0006691D01*
X0011540Y0006572D01*
X0011500Y0006453D01*
X0011455Y0006337D01*
X0011407Y0006222D01*
X0011355Y0006108D01*
X0011299Y0005996D01*
X0011240Y0005886D01*
X0011178Y0005778D01*
X0011112Y0005671D01*
X0011043Y0005567D01*
X0010970Y0005466D01*
X0010895Y0005366D01*
X0010816Y0005269D01*
X0010734Y0005175D01*
X0010649Y0005083D01*
X0010562Y0004994D01*
X0010471Y0004908D01*
X0010378Y0004825D01*
X0010282Y0004744D01*
X0010184Y0004667D01*
X0010084Y0004593D01*
X0009981Y0004522D01*
X0009876Y0004455D01*
X0009768Y0004390D01*
X0009659Y0004330D01*
X0009548Y0004272D01*
X0009435Y0004219D01*
X0009321Y0004169D01*
X0009205Y0004122D01*
X0009088Y0004080D01*
X0008969Y0004041D01*
X0008849Y0004005D01*
X0008728Y0003974D01*
X0008606Y0003946D01*
X0008484Y0003923D01*
X0008360Y0003903D01*
X0008236Y0003887D01*
X0008112Y0003875D01*
X0007987Y0003867D01*
X0007862Y0003863D01*
X0007738Y0003863D01*
X0007613Y0003867D01*
X0007488Y0003875D01*
X0007364Y0003887D01*
X0007240Y0003903D01*
X0007116Y0003923D01*
X0006994Y0003946D01*
X0006872Y0003974D01*
X0006751Y0004005D01*
X0006631Y0004041D01*
X0006512Y0004080D01*
X0006395Y0004122D01*
X0006279Y0004169D01*
X0006165Y0004219D01*
X0006052Y0004272D01*
X0005941Y0004330D01*
X0005831Y0004390D01*
X0005724Y0004455D01*
X0005619Y0004522D01*
X0005516Y0004593D01*
X0005416Y0004667D01*
X0005318Y0004744D01*
X0005222Y0004825D01*
X0005129Y0004908D01*
X0005038Y0004994D01*
X0004951Y0005083D01*
X0004866Y0005175D01*
X0004784Y0005269D01*
X0004705Y0005366D01*
X0004630Y0005466D01*
X0004557Y0005567D01*
X0004488Y0005671D01*
X0004422Y0005778D01*
X0004360Y0005886D01*
X0004301Y0005996D01*
X0004245Y0006108D01*
X0004193Y0006222D01*
X0004145Y0006337D01*
X0004100Y0006453D01*
X0004060Y0006572D01*
X0004022Y0006691D01*
X0003989Y0006811D01*
X0003960Y0006933D01*
X0003934Y0007055D01*
X0003912Y0007178D01*
X0003895Y0007302D01*
X0003881Y0007426D01*
X0003871Y0007550D01*
X0003865Y0007675D01*
X0003863Y0007800D01*
X0003863Y0160800D02*
X0003865Y0160925D01*
X0003871Y0161050D01*
X0003881Y0161174D01*
X0003895Y0161298D01*
X0003912Y0161422D01*
X0003934Y0161545D01*
X0003960Y0161667D01*
X0003989Y0161789D01*
X0004022Y0161909D01*
X0004060Y0162028D01*
X0004100Y0162147D01*
X0004145Y0162263D01*
X0004193Y0162378D01*
X0004245Y0162492D01*
X0004301Y0162604D01*
X0004360Y0162714D01*
X0004422Y0162822D01*
X0004488Y0162929D01*
X0004557Y0163033D01*
X0004630Y0163134D01*
X0004705Y0163234D01*
X0004784Y0163331D01*
X0004866Y0163425D01*
X0004951Y0163517D01*
X0005038Y0163606D01*
X0005129Y0163692D01*
X0005222Y0163775D01*
X0005318Y0163856D01*
X0005416Y0163933D01*
X0005516Y0164007D01*
X0005619Y0164078D01*
X0005724Y0164145D01*
X0005832Y0164210D01*
X0005941Y0164270D01*
X0006052Y0164328D01*
X0006165Y0164381D01*
X0006279Y0164431D01*
X0006395Y0164478D01*
X0006512Y0164520D01*
X0006631Y0164559D01*
X0006751Y0164595D01*
X0006872Y0164626D01*
X0006994Y0164654D01*
X0007116Y0164677D01*
X0007240Y0164697D01*
X0007364Y0164713D01*
X0007488Y0164725D01*
X0007613Y0164733D01*
X0007738Y0164737D01*
X0007862Y0164737D01*
X0007987Y0164733D01*
X0008112Y0164725D01*
X0008236Y0164713D01*
X0008360Y0164697D01*
X0008484Y0164677D01*
X0008606Y0164654D01*
X0008728Y0164626D01*
X0008849Y0164595D01*
X0008969Y0164559D01*
X0009088Y0164520D01*
X0009205Y0164478D01*
X0009321Y0164431D01*
X0009435Y0164381D01*
X0009548Y0164328D01*
X0009659Y0164270D01*
X0009769Y0164210D01*
X0009876Y0164145D01*
X0009981Y0164078D01*
X0010084Y0164007D01*
X0010184Y0163933D01*
X0010282Y0163856D01*
X0010378Y0163775D01*
X0010471Y0163692D01*
X0010562Y0163606D01*
X0010649Y0163517D01*
X0010734Y0163425D01*
X0010816Y0163331D01*
X0010895Y0163234D01*
X0010970Y0163134D01*
X0011043Y0163033D01*
X0011112Y0162929D01*
X0011178Y0162822D01*
X0011240Y0162714D01*
X0011299Y0162604D01*
X0011355Y0162492D01*
X0011407Y0162378D01*
X0011455Y0162263D01*
X0011500Y0162147D01*
X0011540Y0162028D01*
X0011578Y0161909D01*
X0011611Y0161789D01*
X0011640Y0161667D01*
X0011666Y0161545D01*
X0011688Y0161422D01*
X0011705Y0161298D01*
X0011719Y0161174D01*
X0011729Y0161050D01*
X0011735Y0160925D01*
X0011737Y0160800D01*
X0011735Y0160675D01*
X0011729Y0160550D01*
X0011719Y0160426D01*
X0011705Y0160302D01*
X0011688Y0160178D01*
X0011666Y0160055D01*
X0011640Y0159933D01*
X0011611Y0159811D01*
X0011578Y0159691D01*
X0011540Y0159572D01*
X0011500Y0159453D01*
X0011455Y0159337D01*
X0011407Y0159222D01*
X0011355Y0159108D01*
X0011299Y0158996D01*
X0011240Y0158886D01*
X0011178Y0158778D01*
X0011112Y0158671D01*
X0011043Y0158567D01*
X0010970Y0158466D01*
X0010895Y0158366D01*
X0010816Y0158269D01*
X0010734Y0158175D01*
X0010649Y0158083D01*
X0010562Y0157994D01*
X0010471Y0157908D01*
X0010378Y0157825D01*
X0010282Y0157744D01*
X0010184Y0157667D01*
X0010084Y0157593D01*
X0009981Y0157522D01*
X0009876Y0157455D01*
X0009768Y0157390D01*
X0009659Y0157330D01*
X0009548Y0157272D01*
X0009435Y0157219D01*
X0009321Y0157169D01*
X0009205Y0157122D01*
X0009088Y0157080D01*
X0008969Y0157041D01*
X0008849Y0157005D01*
X0008728Y0156974D01*
X0008606Y0156946D01*
X0008484Y0156923D01*
X0008360Y0156903D01*
X0008236Y0156887D01*
X0008112Y0156875D01*
X0007987Y0156867D01*
X0007862Y0156863D01*
X0007738Y0156863D01*
X0007613Y0156867D01*
X0007488Y0156875D01*
X0007364Y0156887D01*
X0007240Y0156903D01*
X0007116Y0156923D01*
X0006994Y0156946D01*
X0006872Y0156974D01*
X0006751Y0157005D01*
X0006631Y0157041D01*
X0006512Y0157080D01*
X0006395Y0157122D01*
X0006279Y0157169D01*
X0006165Y0157219D01*
X0006052Y0157272D01*
X0005941Y0157330D01*
X0005831Y0157390D01*
X0005724Y0157455D01*
X0005619Y0157522D01*
X0005516Y0157593D01*
X0005416Y0157667D01*
X0005318Y0157744D01*
X0005222Y0157825D01*
X0005129Y0157908D01*
X0005038Y0157994D01*
X0004951Y0158083D01*
X0004866Y0158175D01*
X0004784Y0158269D01*
X0004705Y0158366D01*
X0004630Y0158466D01*
X0004557Y0158567D01*
X0004488Y0158671D01*
X0004422Y0158778D01*
X0004360Y0158886D01*
X0004301Y0158996D01*
X0004245Y0159108D01*
X0004193Y0159222D01*
X0004145Y0159337D01*
X0004100Y0159453D01*
X0004060Y0159572D01*
X0004022Y0159691D01*
X0003989Y0159811D01*
X0003960Y0159933D01*
X0003934Y0160055D01*
X0003912Y0160178D01*
X0003895Y0160302D01*
X0003881Y0160426D01*
X0003871Y0160550D01*
X0003865Y0160675D01*
X0003863Y0160800D01*
X0189863Y0160800D02*
X0189865Y0160925D01*
X0189871Y0161050D01*
X0189881Y0161174D01*
X0189895Y0161298D01*
X0189912Y0161422D01*
X0189934Y0161545D01*
X0189960Y0161667D01*
X0189989Y0161789D01*
X0190022Y0161909D01*
X0190060Y0162028D01*
X0190100Y0162147D01*
X0190145Y0162263D01*
X0190193Y0162378D01*
X0190245Y0162492D01*
X0190301Y0162604D01*
X0190360Y0162714D01*
X0190422Y0162822D01*
X0190488Y0162929D01*
X0190557Y0163033D01*
X0190630Y0163134D01*
X0190705Y0163234D01*
X0190784Y0163331D01*
X0190866Y0163425D01*
X0190951Y0163517D01*
X0191038Y0163606D01*
X0191129Y0163692D01*
X0191222Y0163775D01*
X0191318Y0163856D01*
X0191416Y0163933D01*
X0191516Y0164007D01*
X0191619Y0164078D01*
X0191724Y0164145D01*
X0191832Y0164210D01*
X0191941Y0164270D01*
X0192052Y0164328D01*
X0192165Y0164381D01*
X0192279Y0164431D01*
X0192395Y0164478D01*
X0192512Y0164520D01*
X0192631Y0164559D01*
X0192751Y0164595D01*
X0192872Y0164626D01*
X0192994Y0164654D01*
X0193116Y0164677D01*
X0193240Y0164697D01*
X0193364Y0164713D01*
X0193488Y0164725D01*
X0193613Y0164733D01*
X0193738Y0164737D01*
X0193862Y0164737D01*
X0193987Y0164733D01*
X0194112Y0164725D01*
X0194236Y0164713D01*
X0194360Y0164697D01*
X0194484Y0164677D01*
X0194606Y0164654D01*
X0194728Y0164626D01*
X0194849Y0164595D01*
X0194969Y0164559D01*
X0195088Y0164520D01*
X0195205Y0164478D01*
X0195321Y0164431D01*
X0195435Y0164381D01*
X0195548Y0164328D01*
X0195659Y0164270D01*
X0195769Y0164210D01*
X0195876Y0164145D01*
X0195981Y0164078D01*
X0196084Y0164007D01*
X0196184Y0163933D01*
X0196282Y0163856D01*
X0196378Y0163775D01*
X0196471Y0163692D01*
X0196562Y0163606D01*
X0196649Y0163517D01*
X0196734Y0163425D01*
X0196816Y0163331D01*
X0196895Y0163234D01*
X0196970Y0163134D01*
X0197043Y0163033D01*
X0197112Y0162929D01*
X0197178Y0162822D01*
X0197240Y0162714D01*
X0197299Y0162604D01*
X0197355Y0162492D01*
X0197407Y0162378D01*
X0197455Y0162263D01*
X0197500Y0162147D01*
X0197540Y0162028D01*
X0197578Y0161909D01*
X0197611Y0161789D01*
X0197640Y0161667D01*
X0197666Y0161545D01*
X0197688Y0161422D01*
X0197705Y0161298D01*
X0197719Y0161174D01*
X0197729Y0161050D01*
X0197735Y0160925D01*
X0197737Y0160800D01*
X0197735Y0160675D01*
X0197729Y0160550D01*
X0197719Y0160426D01*
X0197705Y0160302D01*
X0197688Y0160178D01*
X0197666Y0160055D01*
X0197640Y0159933D01*
X0197611Y0159811D01*
X0197578Y0159691D01*
X0197540Y0159572D01*
X0197500Y0159453D01*
X0197455Y0159337D01*
X0197407Y0159222D01*
X0197355Y0159108D01*
X0197299Y0158996D01*
X0197240Y0158886D01*
X0197178Y0158778D01*
X0197112Y0158671D01*
X0197043Y0158567D01*
X0196970Y0158466D01*
X0196895Y0158366D01*
X0196816Y0158269D01*
X0196734Y0158175D01*
X0196649Y0158083D01*
X0196562Y0157994D01*
X0196471Y0157908D01*
X0196378Y0157825D01*
X0196282Y0157744D01*
X0196184Y0157667D01*
X0196084Y0157593D01*
X0195981Y0157522D01*
X0195876Y0157455D01*
X0195768Y0157390D01*
X0195659Y0157330D01*
X0195548Y0157272D01*
X0195435Y0157219D01*
X0195321Y0157169D01*
X0195205Y0157122D01*
X0195088Y0157080D01*
X0194969Y0157041D01*
X0194849Y0157005D01*
X0194728Y0156974D01*
X0194606Y0156946D01*
X0194484Y0156923D01*
X0194360Y0156903D01*
X0194236Y0156887D01*
X0194112Y0156875D01*
X0193987Y0156867D01*
X0193862Y0156863D01*
X0193738Y0156863D01*
X0193613Y0156867D01*
X0193488Y0156875D01*
X0193364Y0156887D01*
X0193240Y0156903D01*
X0193116Y0156923D01*
X0192994Y0156946D01*
X0192872Y0156974D01*
X0192751Y0157005D01*
X0192631Y0157041D01*
X0192512Y0157080D01*
X0192395Y0157122D01*
X0192279Y0157169D01*
X0192165Y0157219D01*
X0192052Y0157272D01*
X0191941Y0157330D01*
X0191831Y0157390D01*
X0191724Y0157455D01*
X0191619Y0157522D01*
X0191516Y0157593D01*
X0191416Y0157667D01*
X0191318Y0157744D01*
X0191222Y0157825D01*
X0191129Y0157908D01*
X0191038Y0157994D01*
X0190951Y0158083D01*
X0190866Y0158175D01*
X0190784Y0158269D01*
X0190705Y0158366D01*
X0190630Y0158466D01*
X0190557Y0158567D01*
X0190488Y0158671D01*
X0190422Y0158778D01*
X0190360Y0158886D01*
X0190301Y0158996D01*
X0190245Y0159108D01*
X0190193Y0159222D01*
X0190145Y0159337D01*
X0190100Y0159453D01*
X0190060Y0159572D01*
X0190022Y0159691D01*
X0189989Y0159811D01*
X0189960Y0159933D01*
X0189934Y0160055D01*
X0189912Y0160178D01*
X0189895Y0160302D01*
X0189881Y0160426D01*
X0189871Y0160550D01*
X0189865Y0160675D01*
X0189863Y0160800D01*
X0189863Y0007800D02*
X0189865Y0007925D01*
X0189871Y0008050D01*
X0189881Y0008174D01*
X0189895Y0008298D01*
X0189912Y0008422D01*
X0189934Y0008545D01*
X0189960Y0008667D01*
X0189989Y0008789D01*
X0190022Y0008909D01*
X0190060Y0009028D01*
X0190100Y0009147D01*
X0190145Y0009263D01*
X0190193Y0009378D01*
X0190245Y0009492D01*
X0190301Y0009604D01*
X0190360Y0009714D01*
X0190422Y0009822D01*
X0190488Y0009929D01*
X0190557Y0010033D01*
X0190630Y0010134D01*
X0190705Y0010234D01*
X0190784Y0010331D01*
X0190866Y0010425D01*
X0190951Y0010517D01*
X0191038Y0010606D01*
X0191129Y0010692D01*
X0191222Y0010775D01*
X0191318Y0010856D01*
X0191416Y0010933D01*
X0191516Y0011007D01*
X0191619Y0011078D01*
X0191724Y0011145D01*
X0191832Y0011210D01*
X0191941Y0011270D01*
X0192052Y0011328D01*
X0192165Y0011381D01*
X0192279Y0011431D01*
X0192395Y0011478D01*
X0192512Y0011520D01*
X0192631Y0011559D01*
X0192751Y0011595D01*
X0192872Y0011626D01*
X0192994Y0011654D01*
X0193116Y0011677D01*
X0193240Y0011697D01*
X0193364Y0011713D01*
X0193488Y0011725D01*
X0193613Y0011733D01*
X0193738Y0011737D01*
X0193862Y0011737D01*
X0193987Y0011733D01*
X0194112Y0011725D01*
X0194236Y0011713D01*
X0194360Y0011697D01*
X0194484Y0011677D01*
X0194606Y0011654D01*
X0194728Y0011626D01*
X0194849Y0011595D01*
X0194969Y0011559D01*
X0195088Y0011520D01*
X0195205Y0011478D01*
X0195321Y0011431D01*
X0195435Y0011381D01*
X0195548Y0011328D01*
X0195659Y0011270D01*
X0195769Y0011210D01*
X0195876Y0011145D01*
X0195981Y0011078D01*
X0196084Y0011007D01*
X0196184Y0010933D01*
X0196282Y0010856D01*
X0196378Y0010775D01*
X0196471Y0010692D01*
X0196562Y0010606D01*
X0196649Y0010517D01*
X0196734Y0010425D01*
X0196816Y0010331D01*
X0196895Y0010234D01*
X0196970Y0010134D01*
X0197043Y0010033D01*
X0197112Y0009929D01*
X0197178Y0009822D01*
X0197240Y0009714D01*
X0197299Y0009604D01*
X0197355Y0009492D01*
X0197407Y0009378D01*
X0197455Y0009263D01*
X0197500Y0009147D01*
X0197540Y0009028D01*
X0197578Y0008909D01*
X0197611Y0008789D01*
X0197640Y0008667D01*
X0197666Y0008545D01*
X0197688Y0008422D01*
X0197705Y0008298D01*
X0197719Y0008174D01*
X0197729Y0008050D01*
X0197735Y0007925D01*
X0197737Y0007800D01*
X0197735Y0007675D01*
X0197729Y0007550D01*
X0197719Y0007426D01*
X0197705Y0007302D01*
X0197688Y0007178D01*
X0197666Y0007055D01*
X0197640Y0006933D01*
X0197611Y0006811D01*
X0197578Y0006691D01*
X0197540Y0006572D01*
X0197500Y0006453D01*
X0197455Y0006337D01*
X0197407Y0006222D01*
X0197355Y0006108D01*
X0197299Y0005996D01*
X0197240Y0005886D01*
X0197178Y0005778D01*
X0197112Y0005671D01*
X0197043Y0005567D01*
X0196970Y0005466D01*
X0196895Y0005366D01*
X0196816Y0005269D01*
X0196734Y0005175D01*
X0196649Y0005083D01*
X0196562Y0004994D01*
X0196471Y0004908D01*
X0196378Y0004825D01*
X0196282Y0004744D01*
X0196184Y0004667D01*
X0196084Y0004593D01*
X0195981Y0004522D01*
X0195876Y0004455D01*
X0195768Y0004390D01*
X0195659Y0004330D01*
X0195548Y0004272D01*
X0195435Y0004219D01*
X0195321Y0004169D01*
X0195205Y0004122D01*
X0195088Y0004080D01*
X0194969Y0004041D01*
X0194849Y0004005D01*
X0194728Y0003974D01*
X0194606Y0003946D01*
X0194484Y0003923D01*
X0194360Y0003903D01*
X0194236Y0003887D01*
X0194112Y0003875D01*
X0193987Y0003867D01*
X0193862Y0003863D01*
X0193738Y0003863D01*
X0193613Y0003867D01*
X0193488Y0003875D01*
X0193364Y0003887D01*
X0193240Y0003903D01*
X0193116Y0003923D01*
X0192994Y0003946D01*
X0192872Y0003974D01*
X0192751Y0004005D01*
X0192631Y0004041D01*
X0192512Y0004080D01*
X0192395Y0004122D01*
X0192279Y0004169D01*
X0192165Y0004219D01*
X0192052Y0004272D01*
X0191941Y0004330D01*
X0191831Y0004390D01*
X0191724Y0004455D01*
X0191619Y0004522D01*
X0191516Y0004593D01*
X0191416Y0004667D01*
X0191318Y0004744D01*
X0191222Y0004825D01*
X0191129Y0004908D01*
X0191038Y0004994D01*
X0190951Y0005083D01*
X0190866Y0005175D01*
X0190784Y0005269D01*
X0190705Y0005366D01*
X0190630Y0005466D01*
X0190557Y0005567D01*
X0190488Y0005671D01*
X0190422Y0005778D01*
X0190360Y0005886D01*
X0190301Y0005996D01*
X0190245Y0006108D01*
X0190193Y0006222D01*
X0190145Y0006337D01*
X0190100Y0006453D01*
X0190060Y0006572D01*
X0190022Y0006691D01*
X0189989Y0006811D01*
X0189960Y0006933D01*
X0189934Y0007055D01*
X0189912Y0007178D01*
X0189895Y0007302D01*
X0189881Y0007426D01*
X0189871Y0007550D01*
X0189865Y0007675D01*
X0189863Y0007800D01*
D11*
X0001800Y0001800D02*
X0001800Y0166800D01*
X0199800Y0166800D01*
X0199800Y0001800D01*
X0001800Y0001800D01*
X0127800Y0077800D02*
X0127800Y0085800D01*
X0184800Y0085800D01*
X0184800Y0077800D01*
X0127800Y0077800D01*
X0131800Y0079800D02*
X0131800Y0083800D01*
X0127800Y0085800D02*
X0127800Y0094800D01*
X0184800Y0094800D01*
X0184800Y0085800D01*
X0180800Y0083800D02*
X0180800Y0079800D01*
X0173800Y0079800D02*
X0173800Y0083800D01*
X0166800Y0083800D02*
X0166800Y0079800D01*
X0159800Y0079800D02*
X0159800Y0083800D01*
X0152800Y0083800D02*
X0152800Y0079800D01*
X0145800Y0079800D02*
X0145800Y0083800D01*
X0138800Y0083800D02*
X0138800Y0079800D01*
D12*
X0134461Y0156465D02*
X0133694Y0156465D01*
X0132927Y0157233D01*
X0132927Y0161069D01*
X0131392Y0161069D02*
X0130625Y0160302D01*
X0129090Y0160302D01*
X0128323Y0159535D01*
X0128323Y0158767D01*
X0129090Y0158000D01*
X0130625Y0158000D01*
X0131392Y0158767D01*
X0132927Y0158000D02*
X0135229Y0158000D01*
X0135996Y0158767D01*
X0135996Y0161069D01*
X0137531Y0162604D02*
X0137531Y0158000D01*
X0140600Y0158000D02*
X0140600Y0162604D01*
X0139065Y0161069D01*
X0137531Y0162604D01*
X0131392Y0161837D02*
X0131392Y0161069D01*
X0131392Y0161837D02*
X0130625Y0162604D01*
X0129090Y0162604D01*
X0128323Y0161837D01*
X0126788Y0160302D02*
X0126788Y0158767D01*
X0126021Y0158000D01*
X0124486Y0158000D01*
X0123719Y0159535D02*
X0126788Y0159535D01*
X0126788Y0160302D02*
X0126021Y0161069D01*
X0124486Y0161069D01*
X0123719Y0160302D01*
X0123719Y0159535D01*
X0122184Y0158000D02*
X0122184Y0161069D01*
X0119882Y0161069D01*
X0119115Y0160302D01*
X0119115Y0158000D01*
X0117580Y0158000D02*
X0115278Y0158000D01*
X0114511Y0158767D01*
X0115278Y0159535D01*
X0116813Y0159535D01*
X0117580Y0160302D01*
X0116813Y0161069D01*
X0114511Y0161069D01*
X0112976Y0160302D02*
X0112976Y0158767D01*
X0112209Y0158000D01*
X0110674Y0158000D01*
X0109907Y0158767D01*
X0109907Y0160302D01*
X0110674Y0161069D01*
X0112209Y0161069D01*
X0112976Y0160302D01*
X0108373Y0161069D02*
X0108373Y0158000D01*
X0108373Y0159535D02*
X0106838Y0161069D01*
X0106071Y0161069D01*
X0104536Y0160302D02*
X0103769Y0159535D01*
X0102234Y0159535D01*
X0101467Y0158767D01*
X0102234Y0158000D01*
X0104536Y0158000D01*
X0104536Y0160302D02*
X0103769Y0161069D01*
X0101467Y0161069D01*
X0095328Y0159535D02*
X0093026Y0159535D01*
X0092259Y0160302D01*
X0092259Y0161837D01*
X0093026Y0162604D01*
X0095328Y0162604D01*
X0095328Y0158000D01*
X0093793Y0159535D02*
X0092259Y0158000D01*
X0090724Y0158000D02*
X0090724Y0162604D01*
X0087655Y0162604D01*
X0086120Y0162604D02*
X0084586Y0161069D01*
X0083051Y0162604D01*
X0083051Y0158000D01*
X0081516Y0158767D02*
X0080749Y0158000D01*
X0079214Y0158000D01*
X0078447Y0158767D01*
X0078447Y0159535D01*
X0079214Y0160302D01*
X0081516Y0160302D01*
X0081516Y0158767D01*
X0081516Y0160302D02*
X0079982Y0161837D01*
X0078447Y0162604D01*
X0076912Y0161837D02*
X0076912Y0161069D01*
X0076145Y0160302D01*
X0073843Y0160302D01*
X0073843Y0161837D02*
X0074610Y0162604D01*
X0076145Y0162604D01*
X0076912Y0161837D01*
X0076912Y0158767D02*
X0076145Y0158000D01*
X0074610Y0158000D01*
X0073843Y0158767D01*
X0073843Y0161837D01*
X0067705Y0162604D02*
X0067705Y0158000D01*
X0064635Y0158000D02*
X0064635Y0162604D01*
X0062333Y0161069D02*
X0063101Y0160302D01*
X0063101Y0158767D01*
X0062333Y0158000D01*
X0060799Y0158000D01*
X0060031Y0158767D01*
X0060031Y0160302D01*
X0060799Y0161069D01*
X0062333Y0161069D01*
X0058497Y0160302D02*
X0058497Y0158767D01*
X0057729Y0158000D01*
X0055427Y0158000D01*
X0055427Y0162604D01*
X0055427Y0161069D02*
X0057729Y0161069D01*
X0058497Y0160302D01*
X0053893Y0160302D02*
X0053893Y0158767D01*
X0053125Y0158000D01*
X0051591Y0158000D01*
X0050823Y0159535D02*
X0053893Y0159535D01*
X0053893Y0160302D02*
X0053125Y0161069D01*
X0051591Y0161069D01*
X0050823Y0160302D01*
X0050823Y0159535D01*
X0064635Y0158000D02*
X0067705Y0162604D01*
X0086120Y0162604D02*
X0086120Y0158000D01*
X0089190Y0160302D02*
X0090724Y0160302D01*
D13*
X0111399Y0140802D02*
X0111399Y0140184D01*
X0113868Y0140184D01*
X0113868Y0139567D02*
X0113868Y0140802D01*
X0113251Y0141419D01*
X0112016Y0141419D01*
X0111399Y0140802D01*
X0112016Y0138950D02*
X0113251Y0138950D01*
X0113868Y0139567D01*
X0115082Y0139567D02*
X0115082Y0140802D01*
X0115700Y0141419D01*
X0117551Y0141419D01*
X0117551Y0137716D01*
X0117551Y0138950D02*
X0115700Y0138950D01*
X0115082Y0139567D01*
X0118766Y0138950D02*
X0120617Y0138950D01*
X0121234Y0139567D01*
X0121234Y0141419D01*
X0122449Y0142653D02*
X0124917Y0142653D01*
X0123683Y0142653D02*
X0123683Y0138950D01*
X0120000Y0137716D02*
X0119383Y0137716D01*
X0118766Y0138333D01*
X0118766Y0141419D01*
X0129815Y0141419D02*
X0129815Y0138950D01*
X0129815Y0140802D02*
X0132284Y0140802D01*
X0132284Y0141419D02*
X0131049Y0142653D01*
X0129815Y0141419D01*
X0132284Y0141419D02*
X0132284Y0138950D01*
X0133498Y0138950D02*
X0133498Y0141419D01*
X0134732Y0142653D01*
X0135967Y0141419D01*
X0135967Y0138950D01*
X0137181Y0138950D02*
X0137181Y0141419D01*
X0138416Y0142653D01*
X0139650Y0141419D01*
X0139650Y0138950D01*
X0139650Y0140802D02*
X0137181Y0140802D01*
X0135967Y0140802D02*
X0133498Y0140802D01*
X0143232Y0103852D02*
X0143232Y0100950D01*
X0144683Y0100950D01*
X0145167Y0101434D01*
X0145167Y0102401D01*
X0144683Y0102885D01*
X0143232Y0102885D01*
X0142220Y0102401D02*
X0141737Y0102885D01*
X0140769Y0102885D01*
X0140285Y0102401D01*
X0140285Y0101917D01*
X0142220Y0101917D01*
X0142220Y0101434D02*
X0142220Y0102401D01*
X0142220Y0101434D02*
X0141737Y0100950D01*
X0140769Y0100950D01*
X0146179Y0101434D02*
X0146662Y0100950D01*
X0147630Y0100950D01*
X0148114Y0101434D01*
X0148114Y0102401D01*
X0147630Y0102885D01*
X0146662Y0102885D01*
X0146179Y0102401D01*
X0146179Y0101434D01*
X0149125Y0101434D02*
X0149609Y0100950D01*
X0150576Y0100950D01*
X0151060Y0101434D01*
X0151060Y0103369D01*
X0150576Y0103852D01*
X0149609Y0103852D01*
X0149125Y0103369D01*
X0155018Y0103369D02*
X0155018Y0101434D01*
X0155502Y0100950D01*
X0156953Y0100950D01*
X0156953Y0103852D01*
X0155502Y0103852D01*
X0155018Y0103369D01*
X0157950Y0103852D02*
X0158917Y0103852D01*
X0158434Y0103852D02*
X0158434Y0100950D01*
X0158917Y0100950D02*
X0157950Y0100950D01*
X0162875Y0101917D02*
X0164810Y0101917D01*
X0164810Y0101434D02*
X0164810Y0102401D01*
X0164327Y0102885D01*
X0163359Y0102885D01*
X0162875Y0102401D01*
X0162875Y0101917D01*
X0163359Y0100950D02*
X0164327Y0100950D01*
X0164810Y0101434D01*
X0165822Y0100950D02*
X0167273Y0100950D01*
X0167757Y0101434D01*
X0167757Y0102401D01*
X0167273Y0102885D01*
X0165822Y0102885D01*
X0165822Y0103852D02*
X0165822Y0100950D01*
X0168769Y0101434D02*
X0168769Y0102401D01*
X0169252Y0102885D01*
X0170220Y0102885D01*
X0170703Y0102401D01*
X0170703Y0101434D01*
X0170220Y0100950D01*
X0169252Y0100950D01*
X0168769Y0101434D01*
X0171715Y0100950D02*
X0171715Y0103852D01*
X0173650Y0103852D02*
X0171715Y0100950D01*
X0173650Y0100950D02*
X0173650Y0103852D01*
X0179769Y0099852D02*
X0179769Y0096950D01*
X0181703Y0099852D01*
X0181703Y0096950D01*
X0182715Y0097434D02*
X0182715Y0099369D01*
X0183199Y0099852D01*
X0184166Y0099852D01*
X0184650Y0099369D01*
X0184650Y0097434D01*
X0184166Y0096950D01*
X0183199Y0096950D01*
X0182715Y0097434D01*
X0182166Y0091852D02*
X0181199Y0091852D01*
X0180715Y0091369D01*
X0179703Y0091369D02*
X0179220Y0091852D01*
X0178252Y0091852D01*
X0177769Y0091369D01*
X0179703Y0089434D01*
X0179220Y0088950D01*
X0178252Y0088950D01*
X0177769Y0089434D01*
X0177769Y0091369D01*
X0176757Y0091852D02*
X0176757Y0088950D01*
X0175775Y0089434D02*
X0175291Y0088950D01*
X0174324Y0088950D01*
X0173840Y0089434D01*
X0172828Y0088950D02*
X0170893Y0088950D01*
X0171861Y0088950D02*
X0171861Y0091852D01*
X0172828Y0090885D01*
X0173840Y0091369D02*
X0174324Y0091852D01*
X0175291Y0091852D01*
X0175775Y0091369D01*
X0175775Y0089434D01*
X0179703Y0089434D02*
X0179703Y0091369D01*
X0180715Y0089434D02*
X0181199Y0088950D01*
X0182166Y0088950D01*
X0182650Y0089434D01*
X0182650Y0091369D01*
X0182166Y0091852D01*
X0169882Y0091852D02*
X0169882Y0088950D01*
X0168900Y0089434D02*
X0168416Y0088950D01*
X0167448Y0088950D01*
X0166965Y0089434D01*
X0165953Y0088950D02*
X0164018Y0088950D01*
X0163007Y0088950D02*
X0163007Y0091852D01*
X0162024Y0091369D02*
X0162024Y0089434D01*
X0161541Y0088950D01*
X0160573Y0088950D01*
X0160089Y0089434D01*
X0159078Y0089434D02*
X0158594Y0088950D01*
X0157627Y0088950D01*
X0157143Y0089434D01*
X0157143Y0089917D01*
X0157627Y0090401D01*
X0158110Y0090401D01*
X0157627Y0090401D02*
X0157143Y0090885D01*
X0157143Y0091369D01*
X0157627Y0091852D01*
X0158594Y0091852D01*
X0159078Y0091369D01*
X0160089Y0091369D02*
X0160573Y0091852D01*
X0161541Y0091852D01*
X0162024Y0091369D01*
X0164018Y0091369D02*
X0164018Y0090885D01*
X0165953Y0088950D01*
X0168900Y0089434D02*
X0168900Y0091369D01*
X0168416Y0091852D01*
X0167448Y0091852D01*
X0166965Y0091369D01*
X0165953Y0091369D02*
X0165469Y0091852D01*
X0164502Y0091852D01*
X0164018Y0091369D01*
X0156131Y0091852D02*
X0156131Y0088950D01*
X0155149Y0089434D02*
X0154665Y0088950D01*
X0153698Y0088950D01*
X0153214Y0089434D01*
X0152203Y0090401D02*
X0150268Y0090401D01*
X0150751Y0088950D02*
X0150751Y0091852D01*
X0152203Y0090401D01*
X0153214Y0091369D02*
X0153698Y0091852D01*
X0154665Y0091852D01*
X0155149Y0091369D01*
X0155149Y0089434D01*
X0149256Y0088950D02*
X0149256Y0091852D01*
X0148274Y0091369D02*
X0148274Y0089434D01*
X0147790Y0088950D01*
X0146823Y0088950D01*
X0146339Y0089434D01*
X0145327Y0089434D02*
X0144844Y0088950D01*
X0143876Y0088950D01*
X0143392Y0089434D01*
X0143392Y0090401D01*
X0143876Y0090885D01*
X0144360Y0090885D01*
X0145327Y0090401D01*
X0145327Y0091852D01*
X0143392Y0091852D01*
X0142381Y0091852D02*
X0142381Y0088950D01*
X0141399Y0089434D02*
X0140915Y0088950D01*
X0139948Y0088950D01*
X0139464Y0089434D01*
X0138452Y0089434D02*
X0137968Y0088950D01*
X0137001Y0088950D01*
X0136517Y0089434D01*
X0136517Y0089917D01*
X0137001Y0090401D01*
X0138452Y0090401D01*
X0138452Y0089434D01*
X0138452Y0090401D02*
X0137485Y0091369D01*
X0136517Y0091852D01*
X0135506Y0091852D02*
X0135506Y0088950D01*
X0134524Y0089434D02*
X0134040Y0088950D01*
X0133072Y0088950D01*
X0132589Y0089434D01*
X0131577Y0089434D02*
X0131577Y0088950D01*
X0131577Y0089434D02*
X0129642Y0091369D01*
X0129642Y0091852D01*
X0131577Y0091852D01*
X0132589Y0091369D02*
X0133072Y0091852D01*
X0134040Y0091852D01*
X0134524Y0091369D01*
X0134524Y0089434D01*
X0139464Y0091369D02*
X0139948Y0091852D01*
X0140915Y0091852D01*
X0141399Y0091369D01*
X0141399Y0089434D01*
X0146339Y0091369D02*
X0146823Y0091852D01*
X0147790Y0091852D01*
X0148274Y0091369D01*
X0176822Y0075852D02*
X0178757Y0075852D01*
X0178757Y0072950D01*
X0178757Y0074401D02*
X0177789Y0074401D01*
X0179769Y0075852D02*
X0181703Y0075852D01*
X0181703Y0072950D01*
X0182715Y0073434D02*
X0182715Y0075369D01*
X0183199Y0075852D01*
X0184166Y0075852D01*
X0184650Y0075369D01*
X0184650Y0073434D01*
X0184166Y0072950D01*
X0183199Y0072950D01*
X0182715Y0073434D01*
X0181703Y0074401D02*
X0180736Y0074401D01*
X0094650Y0035419D02*
X0094650Y0032950D01*
X0094650Y0034802D02*
X0092181Y0034802D01*
X0092181Y0035419D02*
X0092181Y0032950D01*
X0090967Y0032950D02*
X0090967Y0035419D01*
X0089732Y0036653D01*
X0088498Y0035419D01*
X0088498Y0032950D01*
X0087284Y0032950D02*
X0087284Y0035419D01*
X0086049Y0036653D01*
X0084815Y0035419D01*
X0084815Y0032950D01*
X0084815Y0034802D02*
X0087284Y0034802D01*
X0088498Y0034802D02*
X0090967Y0034802D01*
X0092181Y0035419D02*
X0093416Y0036653D01*
X0094650Y0035419D01*
X0079917Y0036653D02*
X0077449Y0036653D01*
X0078683Y0036653D02*
X0078683Y0032950D01*
X0076234Y0033567D02*
X0076234Y0035419D01*
X0073766Y0035419D02*
X0073766Y0032333D01*
X0074383Y0031716D01*
X0075000Y0031716D01*
X0075617Y0032950D02*
X0073766Y0032950D01*
X0072551Y0032950D02*
X0070700Y0032950D01*
X0070082Y0033567D01*
X0070082Y0034802D01*
X0070700Y0035419D01*
X0072551Y0035419D01*
X0072551Y0031716D01*
X0068868Y0033567D02*
X0068868Y0034802D01*
X0068251Y0035419D01*
X0067016Y0035419D01*
X0066399Y0034802D01*
X0066399Y0034184D01*
X0068868Y0034184D01*
X0068868Y0033567D02*
X0068251Y0032950D01*
X0067016Y0032950D01*
X0075617Y0032950D02*
X0076234Y0033567D01*
X0058204Y0054350D02*
X0057236Y0054350D01*
X0056752Y0054834D01*
X0056752Y0056769D01*
X0057236Y0057252D01*
X0058204Y0057252D01*
X0058687Y0056769D01*
X0058687Y0056285D01*
X0058204Y0055801D01*
X0056752Y0055801D01*
X0055741Y0056285D02*
X0054773Y0057252D01*
X0054773Y0054350D01*
X0053806Y0054350D02*
X0055741Y0054350D01*
X0058204Y0054350D02*
X0058687Y0054834D01*
X0058204Y0059150D02*
X0058687Y0059634D01*
X0058687Y0060117D01*
X0058204Y0060601D01*
X0057236Y0060601D01*
X0056752Y0060117D01*
X0056752Y0059634D01*
X0057236Y0059150D01*
X0058204Y0059150D01*
X0058204Y0060601D02*
X0058687Y0061085D01*
X0058687Y0061569D01*
X0058204Y0062052D01*
X0057236Y0062052D01*
X0056752Y0061569D01*
X0056752Y0061085D01*
X0057236Y0060601D01*
X0055741Y0060601D02*
X0054773Y0061569D01*
X0053806Y0062052D01*
X0052794Y0061569D02*
X0052794Y0061085D01*
X0052311Y0060601D01*
X0051343Y0060601D01*
X0050859Y0060117D01*
X0050859Y0059634D01*
X0051343Y0059150D01*
X0052311Y0059150D01*
X0052794Y0059634D01*
X0052794Y0060117D01*
X0052311Y0060601D01*
X0051343Y0060601D02*
X0050859Y0061085D01*
X0050859Y0061569D01*
X0051343Y0062052D01*
X0052311Y0062052D01*
X0052794Y0061569D01*
X0053806Y0060117D02*
X0054290Y0060601D01*
X0055741Y0060601D01*
X0055741Y0059634D01*
X0055257Y0059150D01*
X0054290Y0059150D01*
X0053806Y0059634D01*
X0053806Y0060117D01*
X0052794Y0057252D02*
X0050859Y0057252D01*
X0051343Y0056285D02*
X0050859Y0055801D01*
X0050859Y0054834D01*
X0051343Y0054350D01*
X0052311Y0054350D01*
X0052794Y0054834D01*
X0052794Y0055801D02*
X0051827Y0056285D01*
X0051343Y0056285D01*
X0052794Y0055801D02*
X0052794Y0057252D01*
X0046901Y0057252D02*
X0046901Y0054350D01*
X0044966Y0054350D02*
X0044966Y0057252D01*
X0045934Y0056285D01*
X0046901Y0057252D01*
X0046901Y0059150D02*
X0046901Y0062052D01*
X0045934Y0061085D01*
X0044966Y0062052D01*
X0044966Y0059150D01*
X0043955Y0059150D02*
X0043955Y0062052D01*
X0043955Y0060601D02*
X0042020Y0060601D01*
X0041008Y0061085D02*
X0039073Y0061085D01*
X0041008Y0059150D01*
X0039073Y0059150D01*
X0042020Y0059150D02*
X0042020Y0062052D01*
X0042020Y0063950D02*
X0042020Y0066852D01*
X0041008Y0065885D02*
X0039073Y0065885D01*
X0041008Y0063950D01*
X0039073Y0063950D01*
X0042020Y0065401D02*
X0043955Y0065401D01*
X0043955Y0063950D02*
X0043955Y0066852D01*
X0044966Y0066852D02*
X0044966Y0063950D01*
X0046901Y0063950D02*
X0046901Y0066852D01*
X0045934Y0065885D01*
X0044966Y0066852D01*
X0044937Y0068750D02*
X0044937Y0070685D01*
X0043486Y0070685D01*
X0043002Y0070201D01*
X0043002Y0068750D01*
X0041990Y0069234D02*
X0041507Y0069717D01*
X0040055Y0069717D01*
X0040055Y0070201D02*
X0040055Y0068750D01*
X0041507Y0068750D01*
X0041990Y0069234D01*
X0041507Y0070685D02*
X0040539Y0070685D01*
X0040055Y0070201D01*
X0036097Y0068750D02*
X0034162Y0068750D01*
X0033151Y0069234D02*
X0032667Y0068750D01*
X0031700Y0068750D01*
X0031216Y0069717D02*
X0033151Y0069717D01*
X0033151Y0069234D02*
X0033151Y0070201D01*
X0032667Y0070685D01*
X0031700Y0070685D01*
X0031216Y0070201D01*
X0031216Y0069717D01*
X0030204Y0068750D02*
X0030204Y0070685D01*
X0028753Y0070685D01*
X0028269Y0070201D01*
X0028269Y0068750D01*
X0027258Y0069234D02*
X0026774Y0068750D01*
X0025323Y0068750D01*
X0025323Y0068266D02*
X0025323Y0070685D01*
X0026774Y0070685D01*
X0027258Y0070201D01*
X0027258Y0069234D01*
X0026290Y0067783D02*
X0025807Y0067783D01*
X0025323Y0068266D01*
X0025308Y0066852D02*
X0025308Y0063950D01*
X0024341Y0063950D02*
X0026276Y0063950D01*
X0030234Y0065401D02*
X0032169Y0063950D01*
X0033180Y0065401D02*
X0035115Y0065401D01*
X0032169Y0066852D02*
X0030234Y0065401D01*
X0026276Y0065885D02*
X0025308Y0066852D01*
X0023329Y0065401D02*
X0021878Y0065401D01*
X0021394Y0064917D01*
X0021394Y0064434D01*
X0021878Y0063950D01*
X0022845Y0063950D01*
X0023329Y0064434D01*
X0023329Y0065401D01*
X0022362Y0066369D01*
X0021394Y0066852D01*
X0020383Y0066852D02*
X0020383Y0065401D01*
X0019415Y0065885D01*
X0018931Y0065885D01*
X0018448Y0065401D01*
X0018448Y0064434D01*
X0018931Y0063950D01*
X0019899Y0063950D01*
X0020383Y0064434D01*
X0020383Y0066852D02*
X0018448Y0066852D01*
X0018917Y0068750D02*
X0019400Y0068750D01*
X0019400Y0069234D01*
X0018917Y0069234D01*
X0018917Y0068750D01*
X0018917Y0070201D02*
X0019400Y0070201D01*
X0019400Y0070685D01*
X0018917Y0070685D01*
X0018917Y0070201D01*
X0020412Y0070201D02*
X0020412Y0068750D01*
X0020412Y0070201D02*
X0020896Y0070685D01*
X0021863Y0070685D01*
X0022347Y0070201D01*
X0023344Y0070685D02*
X0024311Y0070685D01*
X0023828Y0071169D02*
X0023828Y0069234D01*
X0023344Y0068750D01*
X0022347Y0068750D02*
X0022347Y0071652D01*
X0014490Y0065885D02*
X0014006Y0065885D01*
X0013522Y0065401D01*
X0013038Y0065885D01*
X0012555Y0065401D01*
X0012555Y0063950D01*
X0013522Y0063950D02*
X0013522Y0065401D01*
X0014490Y0065885D02*
X0014490Y0063950D01*
X0014490Y0061085D02*
X0014006Y0061085D01*
X0013522Y0060601D01*
X0013038Y0061085D01*
X0012555Y0060601D01*
X0012555Y0059150D01*
X0013522Y0059150D02*
X0013522Y0060601D01*
X0014490Y0061085D02*
X0014490Y0059150D01*
X0014490Y0056285D02*
X0014006Y0056285D01*
X0013522Y0055801D01*
X0013038Y0056285D01*
X0012555Y0055801D01*
X0012555Y0054350D01*
X0013522Y0054350D02*
X0013522Y0055801D01*
X0014490Y0056285D02*
X0014490Y0054350D01*
X0011543Y0054350D02*
X0011543Y0056285D01*
X0011059Y0056285D01*
X0010576Y0055801D01*
X0010092Y0056285D01*
X0009608Y0055801D01*
X0009608Y0054350D01*
X0010576Y0054350D02*
X0010576Y0055801D01*
X0010576Y0059150D02*
X0010576Y0060601D01*
X0010092Y0061085D01*
X0009608Y0060601D01*
X0009608Y0059150D01*
X0010576Y0060601D02*
X0011059Y0061085D01*
X0011543Y0061085D01*
X0011543Y0059150D01*
X0011543Y0063950D02*
X0011543Y0065885D01*
X0011059Y0065885D01*
X0010576Y0065401D01*
X0010092Y0065885D01*
X0009608Y0065401D01*
X0009608Y0063950D01*
X0010576Y0063950D02*
X0010576Y0065401D01*
X0018448Y0061569D02*
X0018931Y0062052D01*
X0019899Y0062052D01*
X0020383Y0061569D01*
X0021394Y0061569D02*
X0021394Y0061085D01*
X0021878Y0060601D01*
X0022845Y0060601D01*
X0023329Y0061085D01*
X0023329Y0061569D01*
X0022845Y0062052D01*
X0021878Y0062052D01*
X0021394Y0061569D01*
X0021878Y0060601D02*
X0021394Y0060117D01*
X0021394Y0059634D01*
X0021878Y0059150D01*
X0022845Y0059150D01*
X0023329Y0059634D01*
X0023329Y0060117D01*
X0022845Y0060601D01*
X0020383Y0059150D02*
X0018448Y0061085D01*
X0018448Y0061569D01*
X0018448Y0059150D02*
X0020383Y0059150D01*
X0019899Y0057252D02*
X0018931Y0057252D01*
X0018448Y0056769D01*
X0018448Y0056285D01*
X0018931Y0055801D01*
X0019899Y0055801D01*
X0020383Y0056285D01*
X0020383Y0056769D01*
X0019899Y0057252D01*
X0019899Y0055801D02*
X0020383Y0055317D01*
X0020383Y0054834D01*
X0019899Y0054350D01*
X0018931Y0054350D01*
X0018448Y0054834D01*
X0018448Y0055317D01*
X0018931Y0055801D01*
X0021394Y0056769D02*
X0023329Y0054834D01*
X0023329Y0054350D01*
X0023329Y0057252D02*
X0021394Y0057252D01*
X0021394Y0056769D01*
X0030234Y0055801D02*
X0032169Y0054350D01*
X0033180Y0055801D02*
X0035115Y0055801D01*
X0032169Y0057252D02*
X0030234Y0055801D01*
X0032169Y0059150D02*
X0030234Y0060601D01*
X0032169Y0062052D01*
X0033180Y0060601D02*
X0035115Y0060601D01*
X0039073Y0056285D02*
X0041008Y0054350D01*
X0039073Y0054350D01*
X0039073Y0056285D02*
X0041008Y0056285D01*
X0042020Y0055801D02*
X0043955Y0055801D01*
X0043955Y0054350D02*
X0043955Y0057252D01*
X0042020Y0057252D02*
X0042020Y0054350D01*
X0051343Y0063950D02*
X0052311Y0063950D01*
X0052794Y0064434D01*
X0053806Y0064434D02*
X0054290Y0063950D01*
X0055257Y0063950D01*
X0055741Y0064434D01*
X0054773Y0065401D02*
X0054290Y0065401D01*
X0053806Y0064917D01*
X0053806Y0064434D01*
X0054290Y0065401D02*
X0053806Y0065885D01*
X0053806Y0066369D01*
X0054290Y0066852D01*
X0055257Y0066852D01*
X0055741Y0066369D01*
X0056752Y0065401D02*
X0058687Y0065401D01*
X0057236Y0066852D01*
X0057236Y0063950D01*
X0052794Y0066369D02*
X0052311Y0066852D01*
X0051343Y0066852D01*
X0050859Y0066369D01*
X0050859Y0065885D01*
X0051343Y0065401D01*
X0050859Y0064917D01*
X0050859Y0064434D01*
X0051343Y0063950D01*
X0051343Y0065401D02*
X0051827Y0065401D01*
X0051827Y0068750D02*
X0052311Y0069234D01*
X0052311Y0071169D01*
X0052794Y0070685D02*
X0051827Y0070685D01*
X0050830Y0070201D02*
X0050346Y0070685D01*
X0049379Y0070685D01*
X0048895Y0070201D01*
X0048895Y0069717D01*
X0050830Y0069717D01*
X0050830Y0069234D02*
X0050830Y0070201D01*
X0050830Y0069234D02*
X0050346Y0068750D01*
X0049379Y0068750D01*
X0047883Y0068750D02*
X0047883Y0070685D01*
X0046432Y0070685D01*
X0045948Y0070201D01*
X0045948Y0068750D01*
X0051518Y0074434D02*
X0052002Y0073950D01*
X0053453Y0073950D01*
X0053453Y0076852D01*
X0052002Y0076852D01*
X0051518Y0076369D01*
X0051518Y0074434D01*
X0054450Y0073950D02*
X0055417Y0073950D01*
X0054934Y0073950D02*
X0054934Y0076852D01*
X0055417Y0076852D02*
X0054450Y0076852D01*
X0059375Y0075401D02*
X0059375Y0074917D01*
X0061310Y0074917D01*
X0061310Y0074434D02*
X0061310Y0075401D01*
X0060827Y0075885D01*
X0059859Y0075885D01*
X0059375Y0075401D01*
X0059859Y0073950D02*
X0060827Y0073950D01*
X0061310Y0074434D01*
X0062322Y0073950D02*
X0063773Y0073950D01*
X0064257Y0074434D01*
X0064257Y0075401D01*
X0063773Y0075885D01*
X0062322Y0075885D01*
X0062322Y0076852D02*
X0062322Y0073950D01*
X0065269Y0074434D02*
X0065752Y0073950D01*
X0066720Y0073950D01*
X0067203Y0074434D01*
X0067203Y0075401D01*
X0066720Y0075885D01*
X0065752Y0075885D01*
X0065269Y0075401D01*
X0065269Y0074434D01*
X0068215Y0073950D02*
X0068215Y0076852D01*
X0070150Y0076852D02*
X0068215Y0073950D01*
X0070150Y0073950D02*
X0070150Y0076852D01*
X0068006Y0079750D02*
X0068490Y0080234D01*
X0068006Y0079750D02*
X0067038Y0079750D01*
X0066555Y0080234D01*
X0066555Y0080717D01*
X0067038Y0081201D01*
X0068006Y0081201D01*
X0068490Y0081685D01*
X0068490Y0082169D01*
X0068006Y0082652D01*
X0067038Y0082652D01*
X0066555Y0082169D01*
X0065543Y0082652D02*
X0065543Y0079750D01*
X0064576Y0080717D01*
X0063608Y0079750D01*
X0063608Y0082652D01*
X0062597Y0082169D02*
X0062113Y0082652D01*
X0061145Y0082652D01*
X0060662Y0082169D01*
X0060662Y0081685D01*
X0062597Y0079750D01*
X0060662Y0079750D01*
X0057720Y0071652D02*
X0056752Y0070685D01*
X0056752Y0068750D01*
X0055741Y0068750D02*
X0055741Y0070685D01*
X0054290Y0070685D01*
X0053806Y0070201D01*
X0053806Y0068750D01*
X0056752Y0070201D02*
X0058687Y0070201D01*
X0058687Y0070685D02*
X0057720Y0071652D01*
X0058687Y0070685D02*
X0058687Y0068750D01*
X0036097Y0068750D02*
X0036097Y0071652D01*
D14*
X0047800Y0044800D02*
X0010500Y0044800D01*
X0010500Y0014800D01*
X0047800Y0014800D01*
X0157800Y0014800D02*
X0195100Y0014800D01*
X0195100Y0044800D01*
X0157800Y0044800D01*
X0157800Y0120800D02*
X0195100Y0120800D01*
X0195100Y0150800D01*
X0157800Y0150800D01*
X0047800Y0150800D02*
X0010500Y0150800D01*
X0010500Y0120800D01*
X0047800Y0120800D01*
D15*
X0062800Y0133500D02*
X0062800Y0138500D01*
X0067800Y0138500D01*
X0067800Y0145800D01*
X0142800Y0145800D01*
X0142800Y0125800D01*
X0067800Y0125800D01*
X0067800Y0133500D01*
X0062800Y0133500D01*
X0067800Y0133500D02*
X0067800Y0138500D01*
X0075300Y0135800D02*
X0080300Y0135800D01*
X0077800Y0133300D02*
X0077800Y0138300D01*
X0130300Y0135800D02*
X0135300Y0135800D01*
X0137800Y0039800D02*
X0062800Y0039800D01*
X0062800Y0019800D01*
X0137800Y0019800D01*
X0137800Y0027100D01*
X0142800Y0027100D01*
X0142800Y0032100D01*
X0137800Y0032100D01*
X0137800Y0027100D01*
X0137800Y0032100D02*
X0137800Y0039800D01*
X0127800Y0032300D02*
X0127800Y0027300D01*
X0125300Y0029800D02*
X0130300Y0029800D01*
X0075300Y0029800D02*
X0070300Y0029800D01*
D16*
X0073800Y0073300D02*
X0073800Y0076300D01*
X0073800Y0089300D01*
X0073800Y0092300D01*
X0119800Y0092300D01*
X0119800Y0089300D01*
X0119800Y0076300D01*
X0119800Y0073300D01*
X0073800Y0073300D01*
D17*
X0077500Y0075300D02*
X0077500Y0090300D01*
X0081100Y0090300D01*
X0081100Y0075300D01*
X0082500Y0075300D02*
X0082500Y0090300D01*
X0086100Y0090300D01*
X0086100Y0075300D01*
X0087500Y0075300D02*
X0087500Y0090300D01*
X0091100Y0090300D01*
X0091100Y0075300D01*
X0092500Y0075300D02*
X0092500Y0090300D01*
X0096100Y0090300D01*
X0096100Y0075300D01*
X0097500Y0075300D02*
X0097500Y0090300D01*
X0101100Y0090300D01*
X0101100Y0075300D01*
X0102500Y0075300D02*
X0102500Y0090300D01*
X0106100Y0090300D01*
X0106100Y0075300D01*
X0107500Y0075300D02*
X0107500Y0090300D01*
X0111100Y0090300D01*
X0111100Y0075300D01*
X0112500Y0075300D02*
X0112500Y0090300D01*
X0116100Y0090300D01*
X0116100Y0075300D01*
D18*
X0112500Y0075300D01*
X0111100Y0075300D02*
X0107500Y0075300D01*
X0106100Y0075300D02*
X0102500Y0075300D01*
X0101100Y0075300D02*
X0097500Y0075300D01*
X0096100Y0075300D02*
X0092500Y0075300D01*
X0091100Y0075300D02*
X0087500Y0075300D01*
X0086100Y0075300D02*
X0082500Y0075300D01*
X0081100Y0075300D02*
X0077500Y0075300D01*
D19*
X0079300Y0077050D03*
X0079300Y0079550D03*
X0079300Y0082050D03*
X0084300Y0082050D03*
X0084300Y0079550D03*
X0084300Y0077050D03*
X0089300Y0077050D03*
X0089300Y0079550D03*
X0089300Y0082050D03*
X0094300Y0082050D03*
X0094300Y0079550D03*
X0094300Y0077050D03*
X0099300Y0077050D03*
X0099300Y0079550D03*
X0099300Y0082050D03*
X0104300Y0082050D03*
X0104300Y0079550D03*
X0104300Y0077050D03*
X0109300Y0077050D03*
X0109300Y0079550D03*
X0109300Y0082050D03*
X0114300Y0082050D03*
X0114300Y0079550D03*
X0114300Y0077050D03*
M02*
