G75*
%MOIN*%
%OFA0B0*%
%FSLAX25Y25*%
%IPPOS*%
%LPD*%
%AMOC8*
5,1,8,0,0,1.08239X$1,22.5*
%
%ADD10C,0.00000*%
%ADD11C,0.01200*%
%ADD12R,0.15748X0.05512*%
%ADD13R,0.04724X0.09843*%
%ADD14R,0.09843X0.04724*%
%ADD15R,0.07874X0.15748*%
%ADD16R,0.01575X0.03543*%
%ADD17R,0.03150X0.04724*%
%ADD18R,0.04724X0.03150*%
%ADD19R,0.04600X0.06300*%
%ADD20R,0.01575X0.06299*%
%ADD21R,0.03150X0.01969*%
%ADD22C,0.02362*%
%ADD23C,0.01181*%
%ADD24R,0.06300X0.04600*%
%ADD25R,0.05000X0.02200*%
%ADD26R,0.02200X0.05000*%
D10*
X0003863Y0007800D02*
X0003865Y0007925D01*
X0003871Y0008050D01*
X0003881Y0008174D01*
X0003895Y0008298D01*
X0003912Y0008422D01*
X0003934Y0008545D01*
X0003960Y0008667D01*
X0003989Y0008789D01*
X0004022Y0008909D01*
X0004060Y0009028D01*
X0004100Y0009147D01*
X0004145Y0009263D01*
X0004193Y0009378D01*
X0004245Y0009492D01*
X0004301Y0009604D01*
X0004360Y0009714D01*
X0004422Y0009822D01*
X0004488Y0009929D01*
X0004557Y0010033D01*
X0004630Y0010134D01*
X0004705Y0010234D01*
X0004784Y0010331D01*
X0004866Y0010425D01*
X0004951Y0010517D01*
X0005038Y0010606D01*
X0005129Y0010692D01*
X0005222Y0010775D01*
X0005318Y0010856D01*
X0005416Y0010933D01*
X0005516Y0011007D01*
X0005619Y0011078D01*
X0005724Y0011145D01*
X0005832Y0011210D01*
X0005941Y0011270D01*
X0006052Y0011328D01*
X0006165Y0011381D01*
X0006279Y0011431D01*
X0006395Y0011478D01*
X0006512Y0011520D01*
X0006631Y0011559D01*
X0006751Y0011595D01*
X0006872Y0011626D01*
X0006994Y0011654D01*
X0007116Y0011677D01*
X0007240Y0011697D01*
X0007364Y0011713D01*
X0007488Y0011725D01*
X0007613Y0011733D01*
X0007738Y0011737D01*
X0007862Y0011737D01*
X0007987Y0011733D01*
X0008112Y0011725D01*
X0008236Y0011713D01*
X0008360Y0011697D01*
X0008484Y0011677D01*
X0008606Y0011654D01*
X0008728Y0011626D01*
X0008849Y0011595D01*
X0008969Y0011559D01*
X0009088Y0011520D01*
X0009205Y0011478D01*
X0009321Y0011431D01*
X0009435Y0011381D01*
X0009548Y0011328D01*
X0009659Y0011270D01*
X0009769Y0011210D01*
X0009876Y0011145D01*
X0009981Y0011078D01*
X0010084Y0011007D01*
X0010184Y0010933D01*
X0010282Y0010856D01*
X0010378Y0010775D01*
X0010471Y0010692D01*
X0010562Y0010606D01*
X0010649Y0010517D01*
X0010734Y0010425D01*
X0010816Y0010331D01*
X0010895Y0010234D01*
X0010970Y0010134D01*
X0011043Y0010033D01*
X0011112Y0009929D01*
X0011178Y0009822D01*
X0011240Y0009714D01*
X0011299Y0009604D01*
X0011355Y0009492D01*
X0011407Y0009378D01*
X0011455Y0009263D01*
X0011500Y0009147D01*
X0011540Y0009028D01*
X0011578Y0008909D01*
X0011611Y0008789D01*
X0011640Y0008667D01*
X0011666Y0008545D01*
X0011688Y0008422D01*
X0011705Y0008298D01*
X0011719Y0008174D01*
X0011729Y0008050D01*
X0011735Y0007925D01*
X0011737Y0007800D01*
X0011735Y0007675D01*
X0011729Y0007550D01*
X0011719Y0007426D01*
X0011705Y0007302D01*
X0011688Y0007178D01*
X0011666Y0007055D01*
X0011640Y0006933D01*
X0011611Y0006811D01*
X0011578Y0006691D01*
X0011540Y0006572D01*
X0011500Y0006453D01*
X0011455Y0006337D01*
X0011407Y0006222D01*
X0011355Y0006108D01*
X0011299Y0005996D01*
X0011240Y0005886D01*
X0011178Y0005778D01*
X0011112Y0005671D01*
X0011043Y0005567D01*
X0010970Y0005466D01*
X0010895Y0005366D01*
X0010816Y0005269D01*
X0010734Y0005175D01*
X0010649Y0005083D01*
X0010562Y0004994D01*
X0010471Y0004908D01*
X0010378Y0004825D01*
X0010282Y0004744D01*
X0010184Y0004667D01*
X0010084Y0004593D01*
X0009981Y0004522D01*
X0009876Y0004455D01*
X0009768Y0004390D01*
X0009659Y0004330D01*
X0009548Y0004272D01*
X0009435Y0004219D01*
X0009321Y0004169D01*
X0009205Y0004122D01*
X0009088Y0004080D01*
X0008969Y0004041D01*
X0008849Y0004005D01*
X0008728Y0003974D01*
X0008606Y0003946D01*
X0008484Y0003923D01*
X0008360Y0003903D01*
X0008236Y0003887D01*
X0008112Y0003875D01*
X0007987Y0003867D01*
X0007862Y0003863D01*
X0007738Y0003863D01*
X0007613Y0003867D01*
X0007488Y0003875D01*
X0007364Y0003887D01*
X0007240Y0003903D01*
X0007116Y0003923D01*
X0006994Y0003946D01*
X0006872Y0003974D01*
X0006751Y0004005D01*
X0006631Y0004041D01*
X0006512Y0004080D01*
X0006395Y0004122D01*
X0006279Y0004169D01*
X0006165Y0004219D01*
X0006052Y0004272D01*
X0005941Y0004330D01*
X0005831Y0004390D01*
X0005724Y0004455D01*
X0005619Y0004522D01*
X0005516Y0004593D01*
X0005416Y0004667D01*
X0005318Y0004744D01*
X0005222Y0004825D01*
X0005129Y0004908D01*
X0005038Y0004994D01*
X0004951Y0005083D01*
X0004866Y0005175D01*
X0004784Y0005269D01*
X0004705Y0005366D01*
X0004630Y0005466D01*
X0004557Y0005567D01*
X0004488Y0005671D01*
X0004422Y0005778D01*
X0004360Y0005886D01*
X0004301Y0005996D01*
X0004245Y0006108D01*
X0004193Y0006222D01*
X0004145Y0006337D01*
X0004100Y0006453D01*
X0004060Y0006572D01*
X0004022Y0006691D01*
X0003989Y0006811D01*
X0003960Y0006933D01*
X0003934Y0007055D01*
X0003912Y0007178D01*
X0003895Y0007302D01*
X0003881Y0007426D01*
X0003871Y0007550D01*
X0003865Y0007675D01*
X0003863Y0007800D01*
X0003863Y0160800D02*
X0003865Y0160925D01*
X0003871Y0161050D01*
X0003881Y0161174D01*
X0003895Y0161298D01*
X0003912Y0161422D01*
X0003934Y0161545D01*
X0003960Y0161667D01*
X0003989Y0161789D01*
X0004022Y0161909D01*
X0004060Y0162028D01*
X0004100Y0162147D01*
X0004145Y0162263D01*
X0004193Y0162378D01*
X0004245Y0162492D01*
X0004301Y0162604D01*
X0004360Y0162714D01*
X0004422Y0162822D01*
X0004488Y0162929D01*
X0004557Y0163033D01*
X0004630Y0163134D01*
X0004705Y0163234D01*
X0004784Y0163331D01*
X0004866Y0163425D01*
X0004951Y0163517D01*
X0005038Y0163606D01*
X0005129Y0163692D01*
X0005222Y0163775D01*
X0005318Y0163856D01*
X0005416Y0163933D01*
X0005516Y0164007D01*
X0005619Y0164078D01*
X0005724Y0164145D01*
X0005832Y0164210D01*
X0005941Y0164270D01*
X0006052Y0164328D01*
X0006165Y0164381D01*
X0006279Y0164431D01*
X0006395Y0164478D01*
X0006512Y0164520D01*
X0006631Y0164559D01*
X0006751Y0164595D01*
X0006872Y0164626D01*
X0006994Y0164654D01*
X0007116Y0164677D01*
X0007240Y0164697D01*
X0007364Y0164713D01*
X0007488Y0164725D01*
X0007613Y0164733D01*
X0007738Y0164737D01*
X0007862Y0164737D01*
X0007987Y0164733D01*
X0008112Y0164725D01*
X0008236Y0164713D01*
X0008360Y0164697D01*
X0008484Y0164677D01*
X0008606Y0164654D01*
X0008728Y0164626D01*
X0008849Y0164595D01*
X0008969Y0164559D01*
X0009088Y0164520D01*
X0009205Y0164478D01*
X0009321Y0164431D01*
X0009435Y0164381D01*
X0009548Y0164328D01*
X0009659Y0164270D01*
X0009769Y0164210D01*
X0009876Y0164145D01*
X0009981Y0164078D01*
X0010084Y0164007D01*
X0010184Y0163933D01*
X0010282Y0163856D01*
X0010378Y0163775D01*
X0010471Y0163692D01*
X0010562Y0163606D01*
X0010649Y0163517D01*
X0010734Y0163425D01*
X0010816Y0163331D01*
X0010895Y0163234D01*
X0010970Y0163134D01*
X0011043Y0163033D01*
X0011112Y0162929D01*
X0011178Y0162822D01*
X0011240Y0162714D01*
X0011299Y0162604D01*
X0011355Y0162492D01*
X0011407Y0162378D01*
X0011455Y0162263D01*
X0011500Y0162147D01*
X0011540Y0162028D01*
X0011578Y0161909D01*
X0011611Y0161789D01*
X0011640Y0161667D01*
X0011666Y0161545D01*
X0011688Y0161422D01*
X0011705Y0161298D01*
X0011719Y0161174D01*
X0011729Y0161050D01*
X0011735Y0160925D01*
X0011737Y0160800D01*
X0011735Y0160675D01*
X0011729Y0160550D01*
X0011719Y0160426D01*
X0011705Y0160302D01*
X0011688Y0160178D01*
X0011666Y0160055D01*
X0011640Y0159933D01*
X0011611Y0159811D01*
X0011578Y0159691D01*
X0011540Y0159572D01*
X0011500Y0159453D01*
X0011455Y0159337D01*
X0011407Y0159222D01*
X0011355Y0159108D01*
X0011299Y0158996D01*
X0011240Y0158886D01*
X0011178Y0158778D01*
X0011112Y0158671D01*
X0011043Y0158567D01*
X0010970Y0158466D01*
X0010895Y0158366D01*
X0010816Y0158269D01*
X0010734Y0158175D01*
X0010649Y0158083D01*
X0010562Y0157994D01*
X0010471Y0157908D01*
X0010378Y0157825D01*
X0010282Y0157744D01*
X0010184Y0157667D01*
X0010084Y0157593D01*
X0009981Y0157522D01*
X0009876Y0157455D01*
X0009768Y0157390D01*
X0009659Y0157330D01*
X0009548Y0157272D01*
X0009435Y0157219D01*
X0009321Y0157169D01*
X0009205Y0157122D01*
X0009088Y0157080D01*
X0008969Y0157041D01*
X0008849Y0157005D01*
X0008728Y0156974D01*
X0008606Y0156946D01*
X0008484Y0156923D01*
X0008360Y0156903D01*
X0008236Y0156887D01*
X0008112Y0156875D01*
X0007987Y0156867D01*
X0007862Y0156863D01*
X0007738Y0156863D01*
X0007613Y0156867D01*
X0007488Y0156875D01*
X0007364Y0156887D01*
X0007240Y0156903D01*
X0007116Y0156923D01*
X0006994Y0156946D01*
X0006872Y0156974D01*
X0006751Y0157005D01*
X0006631Y0157041D01*
X0006512Y0157080D01*
X0006395Y0157122D01*
X0006279Y0157169D01*
X0006165Y0157219D01*
X0006052Y0157272D01*
X0005941Y0157330D01*
X0005831Y0157390D01*
X0005724Y0157455D01*
X0005619Y0157522D01*
X0005516Y0157593D01*
X0005416Y0157667D01*
X0005318Y0157744D01*
X0005222Y0157825D01*
X0005129Y0157908D01*
X0005038Y0157994D01*
X0004951Y0158083D01*
X0004866Y0158175D01*
X0004784Y0158269D01*
X0004705Y0158366D01*
X0004630Y0158466D01*
X0004557Y0158567D01*
X0004488Y0158671D01*
X0004422Y0158778D01*
X0004360Y0158886D01*
X0004301Y0158996D01*
X0004245Y0159108D01*
X0004193Y0159222D01*
X0004145Y0159337D01*
X0004100Y0159453D01*
X0004060Y0159572D01*
X0004022Y0159691D01*
X0003989Y0159811D01*
X0003960Y0159933D01*
X0003934Y0160055D01*
X0003912Y0160178D01*
X0003895Y0160302D01*
X0003881Y0160426D01*
X0003871Y0160550D01*
X0003865Y0160675D01*
X0003863Y0160800D01*
X0189863Y0160800D02*
X0189865Y0160925D01*
X0189871Y0161050D01*
X0189881Y0161174D01*
X0189895Y0161298D01*
X0189912Y0161422D01*
X0189934Y0161545D01*
X0189960Y0161667D01*
X0189989Y0161789D01*
X0190022Y0161909D01*
X0190060Y0162028D01*
X0190100Y0162147D01*
X0190145Y0162263D01*
X0190193Y0162378D01*
X0190245Y0162492D01*
X0190301Y0162604D01*
X0190360Y0162714D01*
X0190422Y0162822D01*
X0190488Y0162929D01*
X0190557Y0163033D01*
X0190630Y0163134D01*
X0190705Y0163234D01*
X0190784Y0163331D01*
X0190866Y0163425D01*
X0190951Y0163517D01*
X0191038Y0163606D01*
X0191129Y0163692D01*
X0191222Y0163775D01*
X0191318Y0163856D01*
X0191416Y0163933D01*
X0191516Y0164007D01*
X0191619Y0164078D01*
X0191724Y0164145D01*
X0191832Y0164210D01*
X0191941Y0164270D01*
X0192052Y0164328D01*
X0192165Y0164381D01*
X0192279Y0164431D01*
X0192395Y0164478D01*
X0192512Y0164520D01*
X0192631Y0164559D01*
X0192751Y0164595D01*
X0192872Y0164626D01*
X0192994Y0164654D01*
X0193116Y0164677D01*
X0193240Y0164697D01*
X0193364Y0164713D01*
X0193488Y0164725D01*
X0193613Y0164733D01*
X0193738Y0164737D01*
X0193862Y0164737D01*
X0193987Y0164733D01*
X0194112Y0164725D01*
X0194236Y0164713D01*
X0194360Y0164697D01*
X0194484Y0164677D01*
X0194606Y0164654D01*
X0194728Y0164626D01*
X0194849Y0164595D01*
X0194969Y0164559D01*
X0195088Y0164520D01*
X0195205Y0164478D01*
X0195321Y0164431D01*
X0195435Y0164381D01*
X0195548Y0164328D01*
X0195659Y0164270D01*
X0195769Y0164210D01*
X0195876Y0164145D01*
X0195981Y0164078D01*
X0196084Y0164007D01*
X0196184Y0163933D01*
X0196282Y0163856D01*
X0196378Y0163775D01*
X0196471Y0163692D01*
X0196562Y0163606D01*
X0196649Y0163517D01*
X0196734Y0163425D01*
X0196816Y0163331D01*
X0196895Y0163234D01*
X0196970Y0163134D01*
X0197043Y0163033D01*
X0197112Y0162929D01*
X0197178Y0162822D01*
X0197240Y0162714D01*
X0197299Y0162604D01*
X0197355Y0162492D01*
X0197407Y0162378D01*
X0197455Y0162263D01*
X0197500Y0162147D01*
X0197540Y0162028D01*
X0197578Y0161909D01*
X0197611Y0161789D01*
X0197640Y0161667D01*
X0197666Y0161545D01*
X0197688Y0161422D01*
X0197705Y0161298D01*
X0197719Y0161174D01*
X0197729Y0161050D01*
X0197735Y0160925D01*
X0197737Y0160800D01*
X0197735Y0160675D01*
X0197729Y0160550D01*
X0197719Y0160426D01*
X0197705Y0160302D01*
X0197688Y0160178D01*
X0197666Y0160055D01*
X0197640Y0159933D01*
X0197611Y0159811D01*
X0197578Y0159691D01*
X0197540Y0159572D01*
X0197500Y0159453D01*
X0197455Y0159337D01*
X0197407Y0159222D01*
X0197355Y0159108D01*
X0197299Y0158996D01*
X0197240Y0158886D01*
X0197178Y0158778D01*
X0197112Y0158671D01*
X0197043Y0158567D01*
X0196970Y0158466D01*
X0196895Y0158366D01*
X0196816Y0158269D01*
X0196734Y0158175D01*
X0196649Y0158083D01*
X0196562Y0157994D01*
X0196471Y0157908D01*
X0196378Y0157825D01*
X0196282Y0157744D01*
X0196184Y0157667D01*
X0196084Y0157593D01*
X0195981Y0157522D01*
X0195876Y0157455D01*
X0195768Y0157390D01*
X0195659Y0157330D01*
X0195548Y0157272D01*
X0195435Y0157219D01*
X0195321Y0157169D01*
X0195205Y0157122D01*
X0195088Y0157080D01*
X0194969Y0157041D01*
X0194849Y0157005D01*
X0194728Y0156974D01*
X0194606Y0156946D01*
X0194484Y0156923D01*
X0194360Y0156903D01*
X0194236Y0156887D01*
X0194112Y0156875D01*
X0193987Y0156867D01*
X0193862Y0156863D01*
X0193738Y0156863D01*
X0193613Y0156867D01*
X0193488Y0156875D01*
X0193364Y0156887D01*
X0193240Y0156903D01*
X0193116Y0156923D01*
X0192994Y0156946D01*
X0192872Y0156974D01*
X0192751Y0157005D01*
X0192631Y0157041D01*
X0192512Y0157080D01*
X0192395Y0157122D01*
X0192279Y0157169D01*
X0192165Y0157219D01*
X0192052Y0157272D01*
X0191941Y0157330D01*
X0191831Y0157390D01*
X0191724Y0157455D01*
X0191619Y0157522D01*
X0191516Y0157593D01*
X0191416Y0157667D01*
X0191318Y0157744D01*
X0191222Y0157825D01*
X0191129Y0157908D01*
X0191038Y0157994D01*
X0190951Y0158083D01*
X0190866Y0158175D01*
X0190784Y0158269D01*
X0190705Y0158366D01*
X0190630Y0158466D01*
X0190557Y0158567D01*
X0190488Y0158671D01*
X0190422Y0158778D01*
X0190360Y0158886D01*
X0190301Y0158996D01*
X0190245Y0159108D01*
X0190193Y0159222D01*
X0190145Y0159337D01*
X0190100Y0159453D01*
X0190060Y0159572D01*
X0190022Y0159691D01*
X0189989Y0159811D01*
X0189960Y0159933D01*
X0189934Y0160055D01*
X0189912Y0160178D01*
X0189895Y0160302D01*
X0189881Y0160426D01*
X0189871Y0160550D01*
X0189865Y0160675D01*
X0189863Y0160800D01*
X0189863Y0007800D02*
X0189865Y0007925D01*
X0189871Y0008050D01*
X0189881Y0008174D01*
X0189895Y0008298D01*
X0189912Y0008422D01*
X0189934Y0008545D01*
X0189960Y0008667D01*
X0189989Y0008789D01*
X0190022Y0008909D01*
X0190060Y0009028D01*
X0190100Y0009147D01*
X0190145Y0009263D01*
X0190193Y0009378D01*
X0190245Y0009492D01*
X0190301Y0009604D01*
X0190360Y0009714D01*
X0190422Y0009822D01*
X0190488Y0009929D01*
X0190557Y0010033D01*
X0190630Y0010134D01*
X0190705Y0010234D01*
X0190784Y0010331D01*
X0190866Y0010425D01*
X0190951Y0010517D01*
X0191038Y0010606D01*
X0191129Y0010692D01*
X0191222Y0010775D01*
X0191318Y0010856D01*
X0191416Y0010933D01*
X0191516Y0011007D01*
X0191619Y0011078D01*
X0191724Y0011145D01*
X0191832Y0011210D01*
X0191941Y0011270D01*
X0192052Y0011328D01*
X0192165Y0011381D01*
X0192279Y0011431D01*
X0192395Y0011478D01*
X0192512Y0011520D01*
X0192631Y0011559D01*
X0192751Y0011595D01*
X0192872Y0011626D01*
X0192994Y0011654D01*
X0193116Y0011677D01*
X0193240Y0011697D01*
X0193364Y0011713D01*
X0193488Y0011725D01*
X0193613Y0011733D01*
X0193738Y0011737D01*
X0193862Y0011737D01*
X0193987Y0011733D01*
X0194112Y0011725D01*
X0194236Y0011713D01*
X0194360Y0011697D01*
X0194484Y0011677D01*
X0194606Y0011654D01*
X0194728Y0011626D01*
X0194849Y0011595D01*
X0194969Y0011559D01*
X0195088Y0011520D01*
X0195205Y0011478D01*
X0195321Y0011431D01*
X0195435Y0011381D01*
X0195548Y0011328D01*
X0195659Y0011270D01*
X0195769Y0011210D01*
X0195876Y0011145D01*
X0195981Y0011078D01*
X0196084Y0011007D01*
X0196184Y0010933D01*
X0196282Y0010856D01*
X0196378Y0010775D01*
X0196471Y0010692D01*
X0196562Y0010606D01*
X0196649Y0010517D01*
X0196734Y0010425D01*
X0196816Y0010331D01*
X0196895Y0010234D01*
X0196970Y0010134D01*
X0197043Y0010033D01*
X0197112Y0009929D01*
X0197178Y0009822D01*
X0197240Y0009714D01*
X0197299Y0009604D01*
X0197355Y0009492D01*
X0197407Y0009378D01*
X0197455Y0009263D01*
X0197500Y0009147D01*
X0197540Y0009028D01*
X0197578Y0008909D01*
X0197611Y0008789D01*
X0197640Y0008667D01*
X0197666Y0008545D01*
X0197688Y0008422D01*
X0197705Y0008298D01*
X0197719Y0008174D01*
X0197729Y0008050D01*
X0197735Y0007925D01*
X0197737Y0007800D01*
X0197735Y0007675D01*
X0197729Y0007550D01*
X0197719Y0007426D01*
X0197705Y0007302D01*
X0197688Y0007178D01*
X0197666Y0007055D01*
X0197640Y0006933D01*
X0197611Y0006811D01*
X0197578Y0006691D01*
X0197540Y0006572D01*
X0197500Y0006453D01*
X0197455Y0006337D01*
X0197407Y0006222D01*
X0197355Y0006108D01*
X0197299Y0005996D01*
X0197240Y0005886D01*
X0197178Y0005778D01*
X0197112Y0005671D01*
X0197043Y0005567D01*
X0196970Y0005466D01*
X0196895Y0005366D01*
X0196816Y0005269D01*
X0196734Y0005175D01*
X0196649Y0005083D01*
X0196562Y0004994D01*
X0196471Y0004908D01*
X0196378Y0004825D01*
X0196282Y0004744D01*
X0196184Y0004667D01*
X0196084Y0004593D01*
X0195981Y0004522D01*
X0195876Y0004455D01*
X0195768Y0004390D01*
X0195659Y0004330D01*
X0195548Y0004272D01*
X0195435Y0004219D01*
X0195321Y0004169D01*
X0195205Y0004122D01*
X0195088Y0004080D01*
X0194969Y0004041D01*
X0194849Y0004005D01*
X0194728Y0003974D01*
X0194606Y0003946D01*
X0194484Y0003923D01*
X0194360Y0003903D01*
X0194236Y0003887D01*
X0194112Y0003875D01*
X0193987Y0003867D01*
X0193862Y0003863D01*
X0193738Y0003863D01*
X0193613Y0003867D01*
X0193488Y0003875D01*
X0193364Y0003887D01*
X0193240Y0003903D01*
X0193116Y0003923D01*
X0192994Y0003946D01*
X0192872Y0003974D01*
X0192751Y0004005D01*
X0192631Y0004041D01*
X0192512Y0004080D01*
X0192395Y0004122D01*
X0192279Y0004169D01*
X0192165Y0004219D01*
X0192052Y0004272D01*
X0191941Y0004330D01*
X0191831Y0004390D01*
X0191724Y0004455D01*
X0191619Y0004522D01*
X0191516Y0004593D01*
X0191416Y0004667D01*
X0191318Y0004744D01*
X0191222Y0004825D01*
X0191129Y0004908D01*
X0191038Y0004994D01*
X0190951Y0005083D01*
X0190866Y0005175D01*
X0190784Y0005269D01*
X0190705Y0005366D01*
X0190630Y0005466D01*
X0190557Y0005567D01*
X0190488Y0005671D01*
X0190422Y0005778D01*
X0190360Y0005886D01*
X0190301Y0005996D01*
X0190245Y0006108D01*
X0190193Y0006222D01*
X0190145Y0006337D01*
X0190100Y0006453D01*
X0190060Y0006572D01*
X0190022Y0006691D01*
X0189989Y0006811D01*
X0189960Y0006933D01*
X0189934Y0007055D01*
X0189912Y0007178D01*
X0189895Y0007302D01*
X0189881Y0007426D01*
X0189871Y0007550D01*
X0189865Y0007675D01*
X0189863Y0007800D01*
D11*
X0001800Y0001800D02*
X0001800Y0166800D01*
X0199800Y0166800D01*
X0199800Y0001800D01*
X0001800Y0001800D01*
D12*
X0064020Y0102241D03*
X0064020Y0110115D03*
X0064020Y0117989D03*
X0064020Y0125863D03*
X0064020Y0133737D03*
X0064020Y0141611D03*
X0064020Y0149485D03*
X0064020Y0157359D03*
X0141580Y0157359D03*
X0141580Y0149485D03*
X0141580Y0141611D03*
X0141580Y0133737D03*
X0141580Y0125863D03*
X0141580Y0117989D03*
X0141580Y0110115D03*
X0141580Y0102241D03*
D13*
X0145304Y0063800D03*
X0158296Y0063800D03*
X0158304Y0153800D03*
X0171296Y0153800D03*
X0024296Y0044800D03*
X0011304Y0044800D03*
D14*
X0053800Y0044304D03*
X0053800Y0057296D03*
D15*
X0023706Y0063800D03*
X0011894Y0063800D03*
D16*
X0034961Y0052383D03*
X0037520Y0052383D03*
X0040080Y0052383D03*
X0042639Y0052383D03*
X0042639Y0075217D03*
X0040080Y0075217D03*
X0037520Y0075217D03*
X0034961Y0075217D03*
D17*
X0064257Y0074800D03*
X0071343Y0074800D03*
X0071343Y0065800D03*
X0064257Y0065800D03*
X0041343Y0043800D03*
X0034257Y0043800D03*
X0125257Y0062800D03*
X0132343Y0062800D03*
X0132343Y0070800D03*
X0125257Y0070800D03*
X0143257Y0076800D03*
X0150343Y0076800D03*
X0150343Y0086800D03*
X0143257Y0086800D03*
X0140257Y0050800D03*
X0147343Y0050800D03*
X0167257Y0141800D03*
X0174343Y0141800D03*
D18*
X0160800Y0107343D03*
X0160800Y0100257D03*
X0160800Y0086343D03*
X0160800Y0079257D03*
X0102800Y0031343D03*
X0102800Y0024257D03*
X0065800Y0044257D03*
X0065800Y0051343D03*
X0049800Y0099257D03*
X0049800Y0106343D03*
D19*
X0050800Y0087800D03*
X0044800Y0087800D03*
D20*
X0117894Y0087800D03*
X0123800Y0087800D03*
X0129706Y0087800D03*
D21*
X0129706Y0091934D03*
X0123800Y0091934D03*
X0117894Y0091934D03*
X0117894Y0083666D03*
X0123800Y0083666D03*
X0129706Y0083666D03*
D22*
X0038296Y0152257D02*
X0025304Y0152257D01*
X0025304Y0159343D01*
X0038296Y0159343D01*
X0038296Y0152257D01*
X0038296Y0154618D02*
X0025304Y0154618D01*
X0025304Y0156979D02*
X0038296Y0156979D01*
X0038296Y0159340D02*
X0025304Y0159340D01*
D23*
X0138969Y0043178D02*
X0138969Y0040422D01*
X0138969Y0043178D02*
X0141725Y0043178D01*
X0141725Y0040422D01*
X0138969Y0040422D01*
X0138969Y0041602D02*
X0141725Y0041602D01*
X0141725Y0042782D02*
X0138969Y0042782D01*
X0145875Y0043178D02*
X0145875Y0040422D01*
X0145875Y0043178D02*
X0148631Y0043178D01*
X0148631Y0040422D01*
X0145875Y0040422D01*
X0145875Y0041602D02*
X0148631Y0041602D01*
X0148631Y0042782D02*
X0145875Y0042782D01*
D24*
X0127800Y0043800D03*
X0127800Y0037800D03*
X0127800Y0049800D03*
D25*
X0113700Y0055776D03*
X0113700Y0058926D03*
X0113700Y0062076D03*
X0113700Y0065225D03*
X0113700Y0068375D03*
X0113700Y0071524D03*
X0113700Y0074674D03*
X0113700Y0077824D03*
X0079900Y0077824D03*
X0079900Y0074674D03*
X0079900Y0071524D03*
X0079900Y0068375D03*
X0079900Y0065225D03*
X0079900Y0062076D03*
X0079900Y0058926D03*
X0079900Y0055776D03*
D26*
X0085776Y0049900D03*
X0088926Y0049900D03*
X0092076Y0049900D03*
X0095225Y0049900D03*
X0098375Y0049900D03*
X0101524Y0049900D03*
X0104674Y0049900D03*
X0107824Y0049900D03*
X0107824Y0083700D03*
X0104674Y0083700D03*
X0101524Y0083700D03*
X0098375Y0083700D03*
X0095225Y0083700D03*
X0092076Y0083700D03*
X0088926Y0083700D03*
X0085776Y0083700D03*
M02*
