G75*
%MOIN*%
%OFA0B0*%
%FSLAX25Y25*%
%IPPOS*%
%LPD*%
%AMOC8*
5,1,8,0,0,1.08239X$1,22.5*
%
%ADD10C,0.00000*%
%ADD11C,0.01200*%
%ADD12R,0.03000X0.05000*%
D10*
X0003469Y0008800D02*
X0003471Y0008931D01*
X0003477Y0009063D01*
X0003487Y0009194D01*
X0003501Y0009325D01*
X0003519Y0009455D01*
X0003541Y0009584D01*
X0003566Y0009713D01*
X0003596Y0009841D01*
X0003630Y0009968D01*
X0003667Y0010095D01*
X0003708Y0010219D01*
X0003753Y0010343D01*
X0003802Y0010465D01*
X0003854Y0010586D01*
X0003910Y0010704D01*
X0003970Y0010822D01*
X0004033Y0010937D01*
X0004100Y0011050D01*
X0004170Y0011162D01*
X0004243Y0011271D01*
X0004319Y0011377D01*
X0004399Y0011482D01*
X0004482Y0011584D01*
X0004568Y0011683D01*
X0004657Y0011780D01*
X0004749Y0011874D01*
X0004844Y0011965D01*
X0004941Y0012054D01*
X0005041Y0012139D01*
X0005144Y0012221D01*
X0005249Y0012300D01*
X0005356Y0012376D01*
X0005466Y0012448D01*
X0005578Y0012517D01*
X0005692Y0012583D01*
X0005807Y0012645D01*
X0005925Y0012704D01*
X0006044Y0012759D01*
X0006165Y0012811D01*
X0006288Y0012858D01*
X0006412Y0012902D01*
X0006537Y0012943D01*
X0006663Y0012979D01*
X0006791Y0013012D01*
X0006919Y0013040D01*
X0007048Y0013065D01*
X0007178Y0013086D01*
X0007308Y0013103D01*
X0007439Y0013116D01*
X0007570Y0013125D01*
X0007701Y0013130D01*
X0007833Y0013131D01*
X0007964Y0013128D01*
X0008096Y0013121D01*
X0008227Y0013110D01*
X0008357Y0013095D01*
X0008487Y0013076D01*
X0008617Y0013053D01*
X0008745Y0013027D01*
X0008873Y0012996D01*
X0009000Y0012961D01*
X0009126Y0012923D01*
X0009250Y0012881D01*
X0009374Y0012835D01*
X0009495Y0012785D01*
X0009615Y0012732D01*
X0009734Y0012675D01*
X0009851Y0012615D01*
X0009965Y0012551D01*
X0010078Y0012483D01*
X0010189Y0012412D01*
X0010298Y0012338D01*
X0010404Y0012261D01*
X0010508Y0012180D01*
X0010609Y0012097D01*
X0010708Y0012010D01*
X0010804Y0011920D01*
X0010897Y0011827D01*
X0010988Y0011732D01*
X0011075Y0011634D01*
X0011160Y0011533D01*
X0011241Y0011430D01*
X0011319Y0011324D01*
X0011394Y0011216D01*
X0011466Y0011106D01*
X0011534Y0010994D01*
X0011599Y0010880D01*
X0011660Y0010763D01*
X0011718Y0010645D01*
X0011772Y0010525D01*
X0011823Y0010404D01*
X0011870Y0010281D01*
X0011913Y0010157D01*
X0011952Y0010032D01*
X0011988Y0009905D01*
X0012019Y0009777D01*
X0012047Y0009649D01*
X0012071Y0009520D01*
X0012091Y0009390D01*
X0012107Y0009259D01*
X0012119Y0009128D01*
X0012127Y0008997D01*
X0012131Y0008866D01*
X0012131Y0008734D01*
X0012127Y0008603D01*
X0012119Y0008472D01*
X0012107Y0008341D01*
X0012091Y0008210D01*
X0012071Y0008080D01*
X0012047Y0007951D01*
X0012019Y0007823D01*
X0011988Y0007695D01*
X0011952Y0007568D01*
X0011913Y0007443D01*
X0011870Y0007319D01*
X0011823Y0007196D01*
X0011772Y0007075D01*
X0011718Y0006955D01*
X0011660Y0006837D01*
X0011599Y0006720D01*
X0011534Y0006606D01*
X0011466Y0006494D01*
X0011394Y0006384D01*
X0011319Y0006276D01*
X0011241Y0006170D01*
X0011160Y0006067D01*
X0011075Y0005966D01*
X0010988Y0005868D01*
X0010897Y0005773D01*
X0010804Y0005680D01*
X0010708Y0005590D01*
X0010609Y0005503D01*
X0010508Y0005420D01*
X0010404Y0005339D01*
X0010298Y0005262D01*
X0010189Y0005188D01*
X0010078Y0005117D01*
X0009966Y0005049D01*
X0009851Y0004985D01*
X0009734Y0004925D01*
X0009615Y0004868D01*
X0009495Y0004815D01*
X0009374Y0004765D01*
X0009250Y0004719D01*
X0009126Y0004677D01*
X0009000Y0004639D01*
X0008873Y0004604D01*
X0008745Y0004573D01*
X0008617Y0004547D01*
X0008487Y0004524D01*
X0008357Y0004505D01*
X0008227Y0004490D01*
X0008096Y0004479D01*
X0007964Y0004472D01*
X0007833Y0004469D01*
X0007701Y0004470D01*
X0007570Y0004475D01*
X0007439Y0004484D01*
X0007308Y0004497D01*
X0007178Y0004514D01*
X0007048Y0004535D01*
X0006919Y0004560D01*
X0006791Y0004588D01*
X0006663Y0004621D01*
X0006537Y0004657D01*
X0006412Y0004698D01*
X0006288Y0004742D01*
X0006165Y0004789D01*
X0006044Y0004841D01*
X0005925Y0004896D01*
X0005807Y0004955D01*
X0005692Y0005017D01*
X0005578Y0005083D01*
X0005466Y0005152D01*
X0005356Y0005224D01*
X0005249Y0005300D01*
X0005144Y0005379D01*
X0005041Y0005461D01*
X0004941Y0005546D01*
X0004844Y0005635D01*
X0004749Y0005726D01*
X0004657Y0005820D01*
X0004568Y0005917D01*
X0004482Y0006016D01*
X0004399Y0006118D01*
X0004319Y0006223D01*
X0004243Y0006329D01*
X0004170Y0006438D01*
X0004100Y0006550D01*
X0004033Y0006663D01*
X0003970Y0006778D01*
X0003910Y0006896D01*
X0003854Y0007014D01*
X0003802Y0007135D01*
X0003753Y0007257D01*
X0003708Y0007381D01*
X0003667Y0007505D01*
X0003630Y0007632D01*
X0003596Y0007759D01*
X0003566Y0007887D01*
X0003541Y0008016D01*
X0003519Y0008145D01*
X0003501Y0008275D01*
X0003487Y0008406D01*
X0003477Y0008537D01*
X0003471Y0008669D01*
X0003469Y0008800D01*
X0003469Y0159800D02*
X0003471Y0159931D01*
X0003477Y0160063D01*
X0003487Y0160194D01*
X0003501Y0160325D01*
X0003519Y0160455D01*
X0003541Y0160584D01*
X0003566Y0160713D01*
X0003596Y0160841D01*
X0003630Y0160968D01*
X0003667Y0161095D01*
X0003708Y0161219D01*
X0003753Y0161343D01*
X0003802Y0161465D01*
X0003854Y0161586D01*
X0003910Y0161704D01*
X0003970Y0161822D01*
X0004033Y0161937D01*
X0004100Y0162050D01*
X0004170Y0162162D01*
X0004243Y0162271D01*
X0004319Y0162377D01*
X0004399Y0162482D01*
X0004482Y0162584D01*
X0004568Y0162683D01*
X0004657Y0162780D01*
X0004749Y0162874D01*
X0004844Y0162965D01*
X0004941Y0163054D01*
X0005041Y0163139D01*
X0005144Y0163221D01*
X0005249Y0163300D01*
X0005356Y0163376D01*
X0005466Y0163448D01*
X0005578Y0163517D01*
X0005692Y0163583D01*
X0005807Y0163645D01*
X0005925Y0163704D01*
X0006044Y0163759D01*
X0006165Y0163811D01*
X0006288Y0163858D01*
X0006412Y0163902D01*
X0006537Y0163943D01*
X0006663Y0163979D01*
X0006791Y0164012D01*
X0006919Y0164040D01*
X0007048Y0164065D01*
X0007178Y0164086D01*
X0007308Y0164103D01*
X0007439Y0164116D01*
X0007570Y0164125D01*
X0007701Y0164130D01*
X0007833Y0164131D01*
X0007964Y0164128D01*
X0008096Y0164121D01*
X0008227Y0164110D01*
X0008357Y0164095D01*
X0008487Y0164076D01*
X0008617Y0164053D01*
X0008745Y0164027D01*
X0008873Y0163996D01*
X0009000Y0163961D01*
X0009126Y0163923D01*
X0009250Y0163881D01*
X0009374Y0163835D01*
X0009495Y0163785D01*
X0009615Y0163732D01*
X0009734Y0163675D01*
X0009851Y0163615D01*
X0009965Y0163551D01*
X0010078Y0163483D01*
X0010189Y0163412D01*
X0010298Y0163338D01*
X0010404Y0163261D01*
X0010508Y0163180D01*
X0010609Y0163097D01*
X0010708Y0163010D01*
X0010804Y0162920D01*
X0010897Y0162827D01*
X0010988Y0162732D01*
X0011075Y0162634D01*
X0011160Y0162533D01*
X0011241Y0162430D01*
X0011319Y0162324D01*
X0011394Y0162216D01*
X0011466Y0162106D01*
X0011534Y0161994D01*
X0011599Y0161880D01*
X0011660Y0161763D01*
X0011718Y0161645D01*
X0011772Y0161525D01*
X0011823Y0161404D01*
X0011870Y0161281D01*
X0011913Y0161157D01*
X0011952Y0161032D01*
X0011988Y0160905D01*
X0012019Y0160777D01*
X0012047Y0160649D01*
X0012071Y0160520D01*
X0012091Y0160390D01*
X0012107Y0160259D01*
X0012119Y0160128D01*
X0012127Y0159997D01*
X0012131Y0159866D01*
X0012131Y0159734D01*
X0012127Y0159603D01*
X0012119Y0159472D01*
X0012107Y0159341D01*
X0012091Y0159210D01*
X0012071Y0159080D01*
X0012047Y0158951D01*
X0012019Y0158823D01*
X0011988Y0158695D01*
X0011952Y0158568D01*
X0011913Y0158443D01*
X0011870Y0158319D01*
X0011823Y0158196D01*
X0011772Y0158075D01*
X0011718Y0157955D01*
X0011660Y0157837D01*
X0011599Y0157720D01*
X0011534Y0157606D01*
X0011466Y0157494D01*
X0011394Y0157384D01*
X0011319Y0157276D01*
X0011241Y0157170D01*
X0011160Y0157067D01*
X0011075Y0156966D01*
X0010988Y0156868D01*
X0010897Y0156773D01*
X0010804Y0156680D01*
X0010708Y0156590D01*
X0010609Y0156503D01*
X0010508Y0156420D01*
X0010404Y0156339D01*
X0010298Y0156262D01*
X0010189Y0156188D01*
X0010078Y0156117D01*
X0009966Y0156049D01*
X0009851Y0155985D01*
X0009734Y0155925D01*
X0009615Y0155868D01*
X0009495Y0155815D01*
X0009374Y0155765D01*
X0009250Y0155719D01*
X0009126Y0155677D01*
X0009000Y0155639D01*
X0008873Y0155604D01*
X0008745Y0155573D01*
X0008617Y0155547D01*
X0008487Y0155524D01*
X0008357Y0155505D01*
X0008227Y0155490D01*
X0008096Y0155479D01*
X0007964Y0155472D01*
X0007833Y0155469D01*
X0007701Y0155470D01*
X0007570Y0155475D01*
X0007439Y0155484D01*
X0007308Y0155497D01*
X0007178Y0155514D01*
X0007048Y0155535D01*
X0006919Y0155560D01*
X0006791Y0155588D01*
X0006663Y0155621D01*
X0006537Y0155657D01*
X0006412Y0155698D01*
X0006288Y0155742D01*
X0006165Y0155789D01*
X0006044Y0155841D01*
X0005925Y0155896D01*
X0005807Y0155955D01*
X0005692Y0156017D01*
X0005578Y0156083D01*
X0005466Y0156152D01*
X0005356Y0156224D01*
X0005249Y0156300D01*
X0005144Y0156379D01*
X0005041Y0156461D01*
X0004941Y0156546D01*
X0004844Y0156635D01*
X0004749Y0156726D01*
X0004657Y0156820D01*
X0004568Y0156917D01*
X0004482Y0157016D01*
X0004399Y0157118D01*
X0004319Y0157223D01*
X0004243Y0157329D01*
X0004170Y0157438D01*
X0004100Y0157550D01*
X0004033Y0157663D01*
X0003970Y0157778D01*
X0003910Y0157896D01*
X0003854Y0158014D01*
X0003802Y0158135D01*
X0003753Y0158257D01*
X0003708Y0158381D01*
X0003667Y0158505D01*
X0003630Y0158632D01*
X0003596Y0158759D01*
X0003566Y0158887D01*
X0003541Y0159016D01*
X0003519Y0159145D01*
X0003501Y0159275D01*
X0003487Y0159406D01*
X0003477Y0159537D01*
X0003471Y0159669D01*
X0003469Y0159800D01*
X0191469Y0159800D02*
X0191471Y0159931D01*
X0191477Y0160063D01*
X0191487Y0160194D01*
X0191501Y0160325D01*
X0191519Y0160455D01*
X0191541Y0160584D01*
X0191566Y0160713D01*
X0191596Y0160841D01*
X0191630Y0160968D01*
X0191667Y0161095D01*
X0191708Y0161219D01*
X0191753Y0161343D01*
X0191802Y0161465D01*
X0191854Y0161586D01*
X0191910Y0161704D01*
X0191970Y0161822D01*
X0192033Y0161937D01*
X0192100Y0162050D01*
X0192170Y0162162D01*
X0192243Y0162271D01*
X0192319Y0162377D01*
X0192399Y0162482D01*
X0192482Y0162584D01*
X0192568Y0162683D01*
X0192657Y0162780D01*
X0192749Y0162874D01*
X0192844Y0162965D01*
X0192941Y0163054D01*
X0193041Y0163139D01*
X0193144Y0163221D01*
X0193249Y0163300D01*
X0193356Y0163376D01*
X0193466Y0163448D01*
X0193578Y0163517D01*
X0193692Y0163583D01*
X0193807Y0163645D01*
X0193925Y0163704D01*
X0194044Y0163759D01*
X0194165Y0163811D01*
X0194288Y0163858D01*
X0194412Y0163902D01*
X0194537Y0163943D01*
X0194663Y0163979D01*
X0194791Y0164012D01*
X0194919Y0164040D01*
X0195048Y0164065D01*
X0195178Y0164086D01*
X0195308Y0164103D01*
X0195439Y0164116D01*
X0195570Y0164125D01*
X0195701Y0164130D01*
X0195833Y0164131D01*
X0195964Y0164128D01*
X0196096Y0164121D01*
X0196227Y0164110D01*
X0196357Y0164095D01*
X0196487Y0164076D01*
X0196617Y0164053D01*
X0196745Y0164027D01*
X0196873Y0163996D01*
X0197000Y0163961D01*
X0197126Y0163923D01*
X0197250Y0163881D01*
X0197374Y0163835D01*
X0197495Y0163785D01*
X0197615Y0163732D01*
X0197734Y0163675D01*
X0197851Y0163615D01*
X0197965Y0163551D01*
X0198078Y0163483D01*
X0198189Y0163412D01*
X0198298Y0163338D01*
X0198404Y0163261D01*
X0198508Y0163180D01*
X0198609Y0163097D01*
X0198708Y0163010D01*
X0198804Y0162920D01*
X0198897Y0162827D01*
X0198988Y0162732D01*
X0199075Y0162634D01*
X0199160Y0162533D01*
X0199241Y0162430D01*
X0199319Y0162324D01*
X0199394Y0162216D01*
X0199466Y0162106D01*
X0199534Y0161994D01*
X0199599Y0161880D01*
X0199660Y0161763D01*
X0199718Y0161645D01*
X0199772Y0161525D01*
X0199823Y0161404D01*
X0199870Y0161281D01*
X0199913Y0161157D01*
X0199952Y0161032D01*
X0199988Y0160905D01*
X0200019Y0160777D01*
X0200047Y0160649D01*
X0200071Y0160520D01*
X0200091Y0160390D01*
X0200107Y0160259D01*
X0200119Y0160128D01*
X0200127Y0159997D01*
X0200131Y0159866D01*
X0200131Y0159734D01*
X0200127Y0159603D01*
X0200119Y0159472D01*
X0200107Y0159341D01*
X0200091Y0159210D01*
X0200071Y0159080D01*
X0200047Y0158951D01*
X0200019Y0158823D01*
X0199988Y0158695D01*
X0199952Y0158568D01*
X0199913Y0158443D01*
X0199870Y0158319D01*
X0199823Y0158196D01*
X0199772Y0158075D01*
X0199718Y0157955D01*
X0199660Y0157837D01*
X0199599Y0157720D01*
X0199534Y0157606D01*
X0199466Y0157494D01*
X0199394Y0157384D01*
X0199319Y0157276D01*
X0199241Y0157170D01*
X0199160Y0157067D01*
X0199075Y0156966D01*
X0198988Y0156868D01*
X0198897Y0156773D01*
X0198804Y0156680D01*
X0198708Y0156590D01*
X0198609Y0156503D01*
X0198508Y0156420D01*
X0198404Y0156339D01*
X0198298Y0156262D01*
X0198189Y0156188D01*
X0198078Y0156117D01*
X0197966Y0156049D01*
X0197851Y0155985D01*
X0197734Y0155925D01*
X0197615Y0155868D01*
X0197495Y0155815D01*
X0197374Y0155765D01*
X0197250Y0155719D01*
X0197126Y0155677D01*
X0197000Y0155639D01*
X0196873Y0155604D01*
X0196745Y0155573D01*
X0196617Y0155547D01*
X0196487Y0155524D01*
X0196357Y0155505D01*
X0196227Y0155490D01*
X0196096Y0155479D01*
X0195964Y0155472D01*
X0195833Y0155469D01*
X0195701Y0155470D01*
X0195570Y0155475D01*
X0195439Y0155484D01*
X0195308Y0155497D01*
X0195178Y0155514D01*
X0195048Y0155535D01*
X0194919Y0155560D01*
X0194791Y0155588D01*
X0194663Y0155621D01*
X0194537Y0155657D01*
X0194412Y0155698D01*
X0194288Y0155742D01*
X0194165Y0155789D01*
X0194044Y0155841D01*
X0193925Y0155896D01*
X0193807Y0155955D01*
X0193692Y0156017D01*
X0193578Y0156083D01*
X0193466Y0156152D01*
X0193356Y0156224D01*
X0193249Y0156300D01*
X0193144Y0156379D01*
X0193041Y0156461D01*
X0192941Y0156546D01*
X0192844Y0156635D01*
X0192749Y0156726D01*
X0192657Y0156820D01*
X0192568Y0156917D01*
X0192482Y0157016D01*
X0192399Y0157118D01*
X0192319Y0157223D01*
X0192243Y0157329D01*
X0192170Y0157438D01*
X0192100Y0157550D01*
X0192033Y0157663D01*
X0191970Y0157778D01*
X0191910Y0157896D01*
X0191854Y0158014D01*
X0191802Y0158135D01*
X0191753Y0158257D01*
X0191708Y0158381D01*
X0191667Y0158505D01*
X0191630Y0158632D01*
X0191596Y0158759D01*
X0191566Y0158887D01*
X0191541Y0159016D01*
X0191519Y0159145D01*
X0191501Y0159275D01*
X0191487Y0159406D01*
X0191477Y0159537D01*
X0191471Y0159669D01*
X0191469Y0159800D01*
X0191469Y0008800D02*
X0191471Y0008931D01*
X0191477Y0009063D01*
X0191487Y0009194D01*
X0191501Y0009325D01*
X0191519Y0009455D01*
X0191541Y0009584D01*
X0191566Y0009713D01*
X0191596Y0009841D01*
X0191630Y0009968D01*
X0191667Y0010095D01*
X0191708Y0010219D01*
X0191753Y0010343D01*
X0191802Y0010465D01*
X0191854Y0010586D01*
X0191910Y0010704D01*
X0191970Y0010822D01*
X0192033Y0010937D01*
X0192100Y0011050D01*
X0192170Y0011162D01*
X0192243Y0011271D01*
X0192319Y0011377D01*
X0192399Y0011482D01*
X0192482Y0011584D01*
X0192568Y0011683D01*
X0192657Y0011780D01*
X0192749Y0011874D01*
X0192844Y0011965D01*
X0192941Y0012054D01*
X0193041Y0012139D01*
X0193144Y0012221D01*
X0193249Y0012300D01*
X0193356Y0012376D01*
X0193466Y0012448D01*
X0193578Y0012517D01*
X0193692Y0012583D01*
X0193807Y0012645D01*
X0193925Y0012704D01*
X0194044Y0012759D01*
X0194165Y0012811D01*
X0194288Y0012858D01*
X0194412Y0012902D01*
X0194537Y0012943D01*
X0194663Y0012979D01*
X0194791Y0013012D01*
X0194919Y0013040D01*
X0195048Y0013065D01*
X0195178Y0013086D01*
X0195308Y0013103D01*
X0195439Y0013116D01*
X0195570Y0013125D01*
X0195701Y0013130D01*
X0195833Y0013131D01*
X0195964Y0013128D01*
X0196096Y0013121D01*
X0196227Y0013110D01*
X0196357Y0013095D01*
X0196487Y0013076D01*
X0196617Y0013053D01*
X0196745Y0013027D01*
X0196873Y0012996D01*
X0197000Y0012961D01*
X0197126Y0012923D01*
X0197250Y0012881D01*
X0197374Y0012835D01*
X0197495Y0012785D01*
X0197615Y0012732D01*
X0197734Y0012675D01*
X0197851Y0012615D01*
X0197965Y0012551D01*
X0198078Y0012483D01*
X0198189Y0012412D01*
X0198298Y0012338D01*
X0198404Y0012261D01*
X0198508Y0012180D01*
X0198609Y0012097D01*
X0198708Y0012010D01*
X0198804Y0011920D01*
X0198897Y0011827D01*
X0198988Y0011732D01*
X0199075Y0011634D01*
X0199160Y0011533D01*
X0199241Y0011430D01*
X0199319Y0011324D01*
X0199394Y0011216D01*
X0199466Y0011106D01*
X0199534Y0010994D01*
X0199599Y0010880D01*
X0199660Y0010763D01*
X0199718Y0010645D01*
X0199772Y0010525D01*
X0199823Y0010404D01*
X0199870Y0010281D01*
X0199913Y0010157D01*
X0199952Y0010032D01*
X0199988Y0009905D01*
X0200019Y0009777D01*
X0200047Y0009649D01*
X0200071Y0009520D01*
X0200091Y0009390D01*
X0200107Y0009259D01*
X0200119Y0009128D01*
X0200127Y0008997D01*
X0200131Y0008866D01*
X0200131Y0008734D01*
X0200127Y0008603D01*
X0200119Y0008472D01*
X0200107Y0008341D01*
X0200091Y0008210D01*
X0200071Y0008080D01*
X0200047Y0007951D01*
X0200019Y0007823D01*
X0199988Y0007695D01*
X0199952Y0007568D01*
X0199913Y0007443D01*
X0199870Y0007319D01*
X0199823Y0007196D01*
X0199772Y0007075D01*
X0199718Y0006955D01*
X0199660Y0006837D01*
X0199599Y0006720D01*
X0199534Y0006606D01*
X0199466Y0006494D01*
X0199394Y0006384D01*
X0199319Y0006276D01*
X0199241Y0006170D01*
X0199160Y0006067D01*
X0199075Y0005966D01*
X0198988Y0005868D01*
X0198897Y0005773D01*
X0198804Y0005680D01*
X0198708Y0005590D01*
X0198609Y0005503D01*
X0198508Y0005420D01*
X0198404Y0005339D01*
X0198298Y0005262D01*
X0198189Y0005188D01*
X0198078Y0005117D01*
X0197966Y0005049D01*
X0197851Y0004985D01*
X0197734Y0004925D01*
X0197615Y0004868D01*
X0197495Y0004815D01*
X0197374Y0004765D01*
X0197250Y0004719D01*
X0197126Y0004677D01*
X0197000Y0004639D01*
X0196873Y0004604D01*
X0196745Y0004573D01*
X0196617Y0004547D01*
X0196487Y0004524D01*
X0196357Y0004505D01*
X0196227Y0004490D01*
X0196096Y0004479D01*
X0195964Y0004472D01*
X0195833Y0004469D01*
X0195701Y0004470D01*
X0195570Y0004475D01*
X0195439Y0004484D01*
X0195308Y0004497D01*
X0195178Y0004514D01*
X0195048Y0004535D01*
X0194919Y0004560D01*
X0194791Y0004588D01*
X0194663Y0004621D01*
X0194537Y0004657D01*
X0194412Y0004698D01*
X0194288Y0004742D01*
X0194165Y0004789D01*
X0194044Y0004841D01*
X0193925Y0004896D01*
X0193807Y0004955D01*
X0193692Y0005017D01*
X0193578Y0005083D01*
X0193466Y0005152D01*
X0193356Y0005224D01*
X0193249Y0005300D01*
X0193144Y0005379D01*
X0193041Y0005461D01*
X0192941Y0005546D01*
X0192844Y0005635D01*
X0192749Y0005726D01*
X0192657Y0005820D01*
X0192568Y0005917D01*
X0192482Y0006016D01*
X0192399Y0006118D01*
X0192319Y0006223D01*
X0192243Y0006329D01*
X0192170Y0006438D01*
X0192100Y0006550D01*
X0192033Y0006663D01*
X0191970Y0006778D01*
X0191910Y0006896D01*
X0191854Y0007014D01*
X0191802Y0007135D01*
X0191753Y0007257D01*
X0191708Y0007381D01*
X0191667Y0007505D01*
X0191630Y0007632D01*
X0191596Y0007759D01*
X0191566Y0007887D01*
X0191541Y0008016D01*
X0191519Y0008145D01*
X0191501Y0008275D01*
X0191487Y0008406D01*
X0191477Y0008537D01*
X0191471Y0008669D01*
X0191469Y0008800D01*
D11*
X0001800Y0001800D02*
X0001800Y0166800D01*
X0201800Y0166800D01*
X0201800Y0001800D01*
X0001800Y0001800D01*
D12*
X0080300Y0068233D03*
X0085300Y0068233D03*
X0090300Y0068233D03*
X0095300Y0068233D03*
X0100300Y0068233D03*
X0105300Y0068233D03*
X0110300Y0068233D03*
X0115300Y0068233D03*
X0115300Y0097367D03*
X0110300Y0097367D03*
X0105300Y0097367D03*
X0100300Y0097367D03*
X0095300Y0097367D03*
X0090300Y0097367D03*
X0085300Y0097367D03*
X0080300Y0097367D03*
M02*
