%
M48
M72
T01C0.02362
T02C0.04000
T03C0.06700
T04C0.08661
%
T01
X74800Y59800
X81800Y49800
X88800Y43800
X99800Y35800
X114800Y35800
X114800Y47800
X99800Y55800
X91800Y57800
X87800Y60800
X92800Y74800
X87800Y76800
X98800Y74800
X103800Y74800
X108800Y75800
X135800Y43800
X135800Y37800
X104800Y16800
X160800Y73800
X126800Y110800
X115300Y112300
X94800Y109800
X90800Y117800
X86800Y125800
X78800Y125800
X78800Y117800
X78800Y109800
T02
X34800Y107800
X34800Y97800
X24800Y97800
X24800Y107800
X14800Y107800
X14800Y97800
X13800Y82800
X23800Y82800
X63800Y26800
X73800Y26800
X83800Y26800
X93800Y26800
X93800Y13800
X83800Y13800
X73800Y13800
X63800Y13800
X114800Y13800
X124800Y13800
X134800Y13800
X144800Y13800
X144800Y26800
X134800Y26800
X124800Y26800
X114800Y26800
X186800Y57603
X186800Y107997
T03
X188800Y135800
X158800Y135800
X48800Y135800
X18800Y135800
X18800Y29800
X48800Y29800
X158800Y29800
X188800Y29800
T04
X7800Y8800
X7800Y159800
X195800Y159800
X195800Y8800
M30
