G75*
%MOIN*%
%OFA0B0*%
%FSLAX25Y25*%
%IPPOS*%
%LPD*%
%AMOC8*
5,1,8,0,0,1.08239X$1,22.5*
%
%ADD10C,0.00000*%
%ADD11C,0.01200*%
%ADD12R,0.15748X0.05512*%
%ADD13R,0.04724X0.09843*%
%ADD14R,0.09843X0.04724*%
%ADD15R,0.07874X0.15748*%
%ADD16R,0.01575X0.03543*%
%ADD17R,0.03150X0.04724*%
%ADD18R,0.04724X0.03150*%
%ADD19OC8,0.06000*%
%ADD20R,0.04600X0.06300*%
%ADD21OC8,0.10050*%
%ADD22R,0.01575X0.06299*%
%ADD23R,0.03150X0.01969*%
%ADD24OC8,0.06600*%
%ADD25C,0.02362*%
%ADD26OC8,0.07000*%
%ADD27C,0.01181*%
%ADD28R,0.06300X0.04600*%
%ADD29R,0.05000X0.02200*%
%ADD30R,0.02200X0.05000*%
%ADD31C,0.01600*%
%ADD32OC8,0.03562*%
%ADD33C,0.01000*%
%ADD34C,0.02400*%
%ADD35C,0.01800*%
D10*
X0003469Y0008800D02*
X0003471Y0008931D01*
X0003477Y0009063D01*
X0003487Y0009194D01*
X0003501Y0009325D01*
X0003519Y0009455D01*
X0003541Y0009584D01*
X0003566Y0009713D01*
X0003596Y0009841D01*
X0003630Y0009968D01*
X0003667Y0010095D01*
X0003708Y0010219D01*
X0003753Y0010343D01*
X0003802Y0010465D01*
X0003854Y0010586D01*
X0003910Y0010704D01*
X0003970Y0010822D01*
X0004033Y0010937D01*
X0004100Y0011050D01*
X0004170Y0011162D01*
X0004243Y0011271D01*
X0004319Y0011377D01*
X0004399Y0011482D01*
X0004482Y0011584D01*
X0004568Y0011683D01*
X0004657Y0011780D01*
X0004749Y0011874D01*
X0004844Y0011965D01*
X0004941Y0012054D01*
X0005041Y0012139D01*
X0005144Y0012221D01*
X0005249Y0012300D01*
X0005356Y0012376D01*
X0005466Y0012448D01*
X0005578Y0012517D01*
X0005692Y0012583D01*
X0005807Y0012645D01*
X0005925Y0012704D01*
X0006044Y0012759D01*
X0006165Y0012811D01*
X0006288Y0012858D01*
X0006412Y0012902D01*
X0006537Y0012943D01*
X0006663Y0012979D01*
X0006791Y0013012D01*
X0006919Y0013040D01*
X0007048Y0013065D01*
X0007178Y0013086D01*
X0007308Y0013103D01*
X0007439Y0013116D01*
X0007570Y0013125D01*
X0007701Y0013130D01*
X0007833Y0013131D01*
X0007964Y0013128D01*
X0008096Y0013121D01*
X0008227Y0013110D01*
X0008357Y0013095D01*
X0008487Y0013076D01*
X0008617Y0013053D01*
X0008745Y0013027D01*
X0008873Y0012996D01*
X0009000Y0012961D01*
X0009126Y0012923D01*
X0009250Y0012881D01*
X0009374Y0012835D01*
X0009495Y0012785D01*
X0009615Y0012732D01*
X0009734Y0012675D01*
X0009851Y0012615D01*
X0009965Y0012551D01*
X0010078Y0012483D01*
X0010189Y0012412D01*
X0010298Y0012338D01*
X0010404Y0012261D01*
X0010508Y0012180D01*
X0010609Y0012097D01*
X0010708Y0012010D01*
X0010804Y0011920D01*
X0010897Y0011827D01*
X0010988Y0011732D01*
X0011075Y0011634D01*
X0011160Y0011533D01*
X0011241Y0011430D01*
X0011319Y0011324D01*
X0011394Y0011216D01*
X0011466Y0011106D01*
X0011534Y0010994D01*
X0011599Y0010880D01*
X0011660Y0010763D01*
X0011718Y0010645D01*
X0011772Y0010525D01*
X0011823Y0010404D01*
X0011870Y0010281D01*
X0011913Y0010157D01*
X0011952Y0010032D01*
X0011988Y0009905D01*
X0012019Y0009777D01*
X0012047Y0009649D01*
X0012071Y0009520D01*
X0012091Y0009390D01*
X0012107Y0009259D01*
X0012119Y0009128D01*
X0012127Y0008997D01*
X0012131Y0008866D01*
X0012131Y0008734D01*
X0012127Y0008603D01*
X0012119Y0008472D01*
X0012107Y0008341D01*
X0012091Y0008210D01*
X0012071Y0008080D01*
X0012047Y0007951D01*
X0012019Y0007823D01*
X0011988Y0007695D01*
X0011952Y0007568D01*
X0011913Y0007443D01*
X0011870Y0007319D01*
X0011823Y0007196D01*
X0011772Y0007075D01*
X0011718Y0006955D01*
X0011660Y0006837D01*
X0011599Y0006720D01*
X0011534Y0006606D01*
X0011466Y0006494D01*
X0011394Y0006384D01*
X0011319Y0006276D01*
X0011241Y0006170D01*
X0011160Y0006067D01*
X0011075Y0005966D01*
X0010988Y0005868D01*
X0010897Y0005773D01*
X0010804Y0005680D01*
X0010708Y0005590D01*
X0010609Y0005503D01*
X0010508Y0005420D01*
X0010404Y0005339D01*
X0010298Y0005262D01*
X0010189Y0005188D01*
X0010078Y0005117D01*
X0009966Y0005049D01*
X0009851Y0004985D01*
X0009734Y0004925D01*
X0009615Y0004868D01*
X0009495Y0004815D01*
X0009374Y0004765D01*
X0009250Y0004719D01*
X0009126Y0004677D01*
X0009000Y0004639D01*
X0008873Y0004604D01*
X0008745Y0004573D01*
X0008617Y0004547D01*
X0008487Y0004524D01*
X0008357Y0004505D01*
X0008227Y0004490D01*
X0008096Y0004479D01*
X0007964Y0004472D01*
X0007833Y0004469D01*
X0007701Y0004470D01*
X0007570Y0004475D01*
X0007439Y0004484D01*
X0007308Y0004497D01*
X0007178Y0004514D01*
X0007048Y0004535D01*
X0006919Y0004560D01*
X0006791Y0004588D01*
X0006663Y0004621D01*
X0006537Y0004657D01*
X0006412Y0004698D01*
X0006288Y0004742D01*
X0006165Y0004789D01*
X0006044Y0004841D01*
X0005925Y0004896D01*
X0005807Y0004955D01*
X0005692Y0005017D01*
X0005578Y0005083D01*
X0005466Y0005152D01*
X0005356Y0005224D01*
X0005249Y0005300D01*
X0005144Y0005379D01*
X0005041Y0005461D01*
X0004941Y0005546D01*
X0004844Y0005635D01*
X0004749Y0005726D01*
X0004657Y0005820D01*
X0004568Y0005917D01*
X0004482Y0006016D01*
X0004399Y0006118D01*
X0004319Y0006223D01*
X0004243Y0006329D01*
X0004170Y0006438D01*
X0004100Y0006550D01*
X0004033Y0006663D01*
X0003970Y0006778D01*
X0003910Y0006896D01*
X0003854Y0007014D01*
X0003802Y0007135D01*
X0003753Y0007257D01*
X0003708Y0007381D01*
X0003667Y0007505D01*
X0003630Y0007632D01*
X0003596Y0007759D01*
X0003566Y0007887D01*
X0003541Y0008016D01*
X0003519Y0008145D01*
X0003501Y0008275D01*
X0003487Y0008406D01*
X0003477Y0008537D01*
X0003471Y0008669D01*
X0003469Y0008800D01*
X0003469Y0159800D02*
X0003471Y0159931D01*
X0003477Y0160063D01*
X0003487Y0160194D01*
X0003501Y0160325D01*
X0003519Y0160455D01*
X0003541Y0160584D01*
X0003566Y0160713D01*
X0003596Y0160841D01*
X0003630Y0160968D01*
X0003667Y0161095D01*
X0003708Y0161219D01*
X0003753Y0161343D01*
X0003802Y0161465D01*
X0003854Y0161586D01*
X0003910Y0161704D01*
X0003970Y0161822D01*
X0004033Y0161937D01*
X0004100Y0162050D01*
X0004170Y0162162D01*
X0004243Y0162271D01*
X0004319Y0162377D01*
X0004399Y0162482D01*
X0004482Y0162584D01*
X0004568Y0162683D01*
X0004657Y0162780D01*
X0004749Y0162874D01*
X0004844Y0162965D01*
X0004941Y0163054D01*
X0005041Y0163139D01*
X0005144Y0163221D01*
X0005249Y0163300D01*
X0005356Y0163376D01*
X0005466Y0163448D01*
X0005578Y0163517D01*
X0005692Y0163583D01*
X0005807Y0163645D01*
X0005925Y0163704D01*
X0006044Y0163759D01*
X0006165Y0163811D01*
X0006288Y0163858D01*
X0006412Y0163902D01*
X0006537Y0163943D01*
X0006663Y0163979D01*
X0006791Y0164012D01*
X0006919Y0164040D01*
X0007048Y0164065D01*
X0007178Y0164086D01*
X0007308Y0164103D01*
X0007439Y0164116D01*
X0007570Y0164125D01*
X0007701Y0164130D01*
X0007833Y0164131D01*
X0007964Y0164128D01*
X0008096Y0164121D01*
X0008227Y0164110D01*
X0008357Y0164095D01*
X0008487Y0164076D01*
X0008617Y0164053D01*
X0008745Y0164027D01*
X0008873Y0163996D01*
X0009000Y0163961D01*
X0009126Y0163923D01*
X0009250Y0163881D01*
X0009374Y0163835D01*
X0009495Y0163785D01*
X0009615Y0163732D01*
X0009734Y0163675D01*
X0009851Y0163615D01*
X0009965Y0163551D01*
X0010078Y0163483D01*
X0010189Y0163412D01*
X0010298Y0163338D01*
X0010404Y0163261D01*
X0010508Y0163180D01*
X0010609Y0163097D01*
X0010708Y0163010D01*
X0010804Y0162920D01*
X0010897Y0162827D01*
X0010988Y0162732D01*
X0011075Y0162634D01*
X0011160Y0162533D01*
X0011241Y0162430D01*
X0011319Y0162324D01*
X0011394Y0162216D01*
X0011466Y0162106D01*
X0011534Y0161994D01*
X0011599Y0161880D01*
X0011660Y0161763D01*
X0011718Y0161645D01*
X0011772Y0161525D01*
X0011823Y0161404D01*
X0011870Y0161281D01*
X0011913Y0161157D01*
X0011952Y0161032D01*
X0011988Y0160905D01*
X0012019Y0160777D01*
X0012047Y0160649D01*
X0012071Y0160520D01*
X0012091Y0160390D01*
X0012107Y0160259D01*
X0012119Y0160128D01*
X0012127Y0159997D01*
X0012131Y0159866D01*
X0012131Y0159734D01*
X0012127Y0159603D01*
X0012119Y0159472D01*
X0012107Y0159341D01*
X0012091Y0159210D01*
X0012071Y0159080D01*
X0012047Y0158951D01*
X0012019Y0158823D01*
X0011988Y0158695D01*
X0011952Y0158568D01*
X0011913Y0158443D01*
X0011870Y0158319D01*
X0011823Y0158196D01*
X0011772Y0158075D01*
X0011718Y0157955D01*
X0011660Y0157837D01*
X0011599Y0157720D01*
X0011534Y0157606D01*
X0011466Y0157494D01*
X0011394Y0157384D01*
X0011319Y0157276D01*
X0011241Y0157170D01*
X0011160Y0157067D01*
X0011075Y0156966D01*
X0010988Y0156868D01*
X0010897Y0156773D01*
X0010804Y0156680D01*
X0010708Y0156590D01*
X0010609Y0156503D01*
X0010508Y0156420D01*
X0010404Y0156339D01*
X0010298Y0156262D01*
X0010189Y0156188D01*
X0010078Y0156117D01*
X0009966Y0156049D01*
X0009851Y0155985D01*
X0009734Y0155925D01*
X0009615Y0155868D01*
X0009495Y0155815D01*
X0009374Y0155765D01*
X0009250Y0155719D01*
X0009126Y0155677D01*
X0009000Y0155639D01*
X0008873Y0155604D01*
X0008745Y0155573D01*
X0008617Y0155547D01*
X0008487Y0155524D01*
X0008357Y0155505D01*
X0008227Y0155490D01*
X0008096Y0155479D01*
X0007964Y0155472D01*
X0007833Y0155469D01*
X0007701Y0155470D01*
X0007570Y0155475D01*
X0007439Y0155484D01*
X0007308Y0155497D01*
X0007178Y0155514D01*
X0007048Y0155535D01*
X0006919Y0155560D01*
X0006791Y0155588D01*
X0006663Y0155621D01*
X0006537Y0155657D01*
X0006412Y0155698D01*
X0006288Y0155742D01*
X0006165Y0155789D01*
X0006044Y0155841D01*
X0005925Y0155896D01*
X0005807Y0155955D01*
X0005692Y0156017D01*
X0005578Y0156083D01*
X0005466Y0156152D01*
X0005356Y0156224D01*
X0005249Y0156300D01*
X0005144Y0156379D01*
X0005041Y0156461D01*
X0004941Y0156546D01*
X0004844Y0156635D01*
X0004749Y0156726D01*
X0004657Y0156820D01*
X0004568Y0156917D01*
X0004482Y0157016D01*
X0004399Y0157118D01*
X0004319Y0157223D01*
X0004243Y0157329D01*
X0004170Y0157438D01*
X0004100Y0157550D01*
X0004033Y0157663D01*
X0003970Y0157778D01*
X0003910Y0157896D01*
X0003854Y0158014D01*
X0003802Y0158135D01*
X0003753Y0158257D01*
X0003708Y0158381D01*
X0003667Y0158505D01*
X0003630Y0158632D01*
X0003596Y0158759D01*
X0003566Y0158887D01*
X0003541Y0159016D01*
X0003519Y0159145D01*
X0003501Y0159275D01*
X0003487Y0159406D01*
X0003477Y0159537D01*
X0003471Y0159669D01*
X0003469Y0159800D01*
X0191469Y0159800D02*
X0191471Y0159931D01*
X0191477Y0160063D01*
X0191487Y0160194D01*
X0191501Y0160325D01*
X0191519Y0160455D01*
X0191541Y0160584D01*
X0191566Y0160713D01*
X0191596Y0160841D01*
X0191630Y0160968D01*
X0191667Y0161095D01*
X0191708Y0161219D01*
X0191753Y0161343D01*
X0191802Y0161465D01*
X0191854Y0161586D01*
X0191910Y0161704D01*
X0191970Y0161822D01*
X0192033Y0161937D01*
X0192100Y0162050D01*
X0192170Y0162162D01*
X0192243Y0162271D01*
X0192319Y0162377D01*
X0192399Y0162482D01*
X0192482Y0162584D01*
X0192568Y0162683D01*
X0192657Y0162780D01*
X0192749Y0162874D01*
X0192844Y0162965D01*
X0192941Y0163054D01*
X0193041Y0163139D01*
X0193144Y0163221D01*
X0193249Y0163300D01*
X0193356Y0163376D01*
X0193466Y0163448D01*
X0193578Y0163517D01*
X0193692Y0163583D01*
X0193807Y0163645D01*
X0193925Y0163704D01*
X0194044Y0163759D01*
X0194165Y0163811D01*
X0194288Y0163858D01*
X0194412Y0163902D01*
X0194537Y0163943D01*
X0194663Y0163979D01*
X0194791Y0164012D01*
X0194919Y0164040D01*
X0195048Y0164065D01*
X0195178Y0164086D01*
X0195308Y0164103D01*
X0195439Y0164116D01*
X0195570Y0164125D01*
X0195701Y0164130D01*
X0195833Y0164131D01*
X0195964Y0164128D01*
X0196096Y0164121D01*
X0196227Y0164110D01*
X0196357Y0164095D01*
X0196487Y0164076D01*
X0196617Y0164053D01*
X0196745Y0164027D01*
X0196873Y0163996D01*
X0197000Y0163961D01*
X0197126Y0163923D01*
X0197250Y0163881D01*
X0197374Y0163835D01*
X0197495Y0163785D01*
X0197615Y0163732D01*
X0197734Y0163675D01*
X0197851Y0163615D01*
X0197965Y0163551D01*
X0198078Y0163483D01*
X0198189Y0163412D01*
X0198298Y0163338D01*
X0198404Y0163261D01*
X0198508Y0163180D01*
X0198609Y0163097D01*
X0198708Y0163010D01*
X0198804Y0162920D01*
X0198897Y0162827D01*
X0198988Y0162732D01*
X0199075Y0162634D01*
X0199160Y0162533D01*
X0199241Y0162430D01*
X0199319Y0162324D01*
X0199394Y0162216D01*
X0199466Y0162106D01*
X0199534Y0161994D01*
X0199599Y0161880D01*
X0199660Y0161763D01*
X0199718Y0161645D01*
X0199772Y0161525D01*
X0199823Y0161404D01*
X0199870Y0161281D01*
X0199913Y0161157D01*
X0199952Y0161032D01*
X0199988Y0160905D01*
X0200019Y0160777D01*
X0200047Y0160649D01*
X0200071Y0160520D01*
X0200091Y0160390D01*
X0200107Y0160259D01*
X0200119Y0160128D01*
X0200127Y0159997D01*
X0200131Y0159866D01*
X0200131Y0159734D01*
X0200127Y0159603D01*
X0200119Y0159472D01*
X0200107Y0159341D01*
X0200091Y0159210D01*
X0200071Y0159080D01*
X0200047Y0158951D01*
X0200019Y0158823D01*
X0199988Y0158695D01*
X0199952Y0158568D01*
X0199913Y0158443D01*
X0199870Y0158319D01*
X0199823Y0158196D01*
X0199772Y0158075D01*
X0199718Y0157955D01*
X0199660Y0157837D01*
X0199599Y0157720D01*
X0199534Y0157606D01*
X0199466Y0157494D01*
X0199394Y0157384D01*
X0199319Y0157276D01*
X0199241Y0157170D01*
X0199160Y0157067D01*
X0199075Y0156966D01*
X0198988Y0156868D01*
X0198897Y0156773D01*
X0198804Y0156680D01*
X0198708Y0156590D01*
X0198609Y0156503D01*
X0198508Y0156420D01*
X0198404Y0156339D01*
X0198298Y0156262D01*
X0198189Y0156188D01*
X0198078Y0156117D01*
X0197966Y0156049D01*
X0197851Y0155985D01*
X0197734Y0155925D01*
X0197615Y0155868D01*
X0197495Y0155815D01*
X0197374Y0155765D01*
X0197250Y0155719D01*
X0197126Y0155677D01*
X0197000Y0155639D01*
X0196873Y0155604D01*
X0196745Y0155573D01*
X0196617Y0155547D01*
X0196487Y0155524D01*
X0196357Y0155505D01*
X0196227Y0155490D01*
X0196096Y0155479D01*
X0195964Y0155472D01*
X0195833Y0155469D01*
X0195701Y0155470D01*
X0195570Y0155475D01*
X0195439Y0155484D01*
X0195308Y0155497D01*
X0195178Y0155514D01*
X0195048Y0155535D01*
X0194919Y0155560D01*
X0194791Y0155588D01*
X0194663Y0155621D01*
X0194537Y0155657D01*
X0194412Y0155698D01*
X0194288Y0155742D01*
X0194165Y0155789D01*
X0194044Y0155841D01*
X0193925Y0155896D01*
X0193807Y0155955D01*
X0193692Y0156017D01*
X0193578Y0156083D01*
X0193466Y0156152D01*
X0193356Y0156224D01*
X0193249Y0156300D01*
X0193144Y0156379D01*
X0193041Y0156461D01*
X0192941Y0156546D01*
X0192844Y0156635D01*
X0192749Y0156726D01*
X0192657Y0156820D01*
X0192568Y0156917D01*
X0192482Y0157016D01*
X0192399Y0157118D01*
X0192319Y0157223D01*
X0192243Y0157329D01*
X0192170Y0157438D01*
X0192100Y0157550D01*
X0192033Y0157663D01*
X0191970Y0157778D01*
X0191910Y0157896D01*
X0191854Y0158014D01*
X0191802Y0158135D01*
X0191753Y0158257D01*
X0191708Y0158381D01*
X0191667Y0158505D01*
X0191630Y0158632D01*
X0191596Y0158759D01*
X0191566Y0158887D01*
X0191541Y0159016D01*
X0191519Y0159145D01*
X0191501Y0159275D01*
X0191487Y0159406D01*
X0191477Y0159537D01*
X0191471Y0159669D01*
X0191469Y0159800D01*
X0191469Y0008800D02*
X0191471Y0008931D01*
X0191477Y0009063D01*
X0191487Y0009194D01*
X0191501Y0009325D01*
X0191519Y0009455D01*
X0191541Y0009584D01*
X0191566Y0009713D01*
X0191596Y0009841D01*
X0191630Y0009968D01*
X0191667Y0010095D01*
X0191708Y0010219D01*
X0191753Y0010343D01*
X0191802Y0010465D01*
X0191854Y0010586D01*
X0191910Y0010704D01*
X0191970Y0010822D01*
X0192033Y0010937D01*
X0192100Y0011050D01*
X0192170Y0011162D01*
X0192243Y0011271D01*
X0192319Y0011377D01*
X0192399Y0011482D01*
X0192482Y0011584D01*
X0192568Y0011683D01*
X0192657Y0011780D01*
X0192749Y0011874D01*
X0192844Y0011965D01*
X0192941Y0012054D01*
X0193041Y0012139D01*
X0193144Y0012221D01*
X0193249Y0012300D01*
X0193356Y0012376D01*
X0193466Y0012448D01*
X0193578Y0012517D01*
X0193692Y0012583D01*
X0193807Y0012645D01*
X0193925Y0012704D01*
X0194044Y0012759D01*
X0194165Y0012811D01*
X0194288Y0012858D01*
X0194412Y0012902D01*
X0194537Y0012943D01*
X0194663Y0012979D01*
X0194791Y0013012D01*
X0194919Y0013040D01*
X0195048Y0013065D01*
X0195178Y0013086D01*
X0195308Y0013103D01*
X0195439Y0013116D01*
X0195570Y0013125D01*
X0195701Y0013130D01*
X0195833Y0013131D01*
X0195964Y0013128D01*
X0196096Y0013121D01*
X0196227Y0013110D01*
X0196357Y0013095D01*
X0196487Y0013076D01*
X0196617Y0013053D01*
X0196745Y0013027D01*
X0196873Y0012996D01*
X0197000Y0012961D01*
X0197126Y0012923D01*
X0197250Y0012881D01*
X0197374Y0012835D01*
X0197495Y0012785D01*
X0197615Y0012732D01*
X0197734Y0012675D01*
X0197851Y0012615D01*
X0197965Y0012551D01*
X0198078Y0012483D01*
X0198189Y0012412D01*
X0198298Y0012338D01*
X0198404Y0012261D01*
X0198508Y0012180D01*
X0198609Y0012097D01*
X0198708Y0012010D01*
X0198804Y0011920D01*
X0198897Y0011827D01*
X0198988Y0011732D01*
X0199075Y0011634D01*
X0199160Y0011533D01*
X0199241Y0011430D01*
X0199319Y0011324D01*
X0199394Y0011216D01*
X0199466Y0011106D01*
X0199534Y0010994D01*
X0199599Y0010880D01*
X0199660Y0010763D01*
X0199718Y0010645D01*
X0199772Y0010525D01*
X0199823Y0010404D01*
X0199870Y0010281D01*
X0199913Y0010157D01*
X0199952Y0010032D01*
X0199988Y0009905D01*
X0200019Y0009777D01*
X0200047Y0009649D01*
X0200071Y0009520D01*
X0200091Y0009390D01*
X0200107Y0009259D01*
X0200119Y0009128D01*
X0200127Y0008997D01*
X0200131Y0008866D01*
X0200131Y0008734D01*
X0200127Y0008603D01*
X0200119Y0008472D01*
X0200107Y0008341D01*
X0200091Y0008210D01*
X0200071Y0008080D01*
X0200047Y0007951D01*
X0200019Y0007823D01*
X0199988Y0007695D01*
X0199952Y0007568D01*
X0199913Y0007443D01*
X0199870Y0007319D01*
X0199823Y0007196D01*
X0199772Y0007075D01*
X0199718Y0006955D01*
X0199660Y0006837D01*
X0199599Y0006720D01*
X0199534Y0006606D01*
X0199466Y0006494D01*
X0199394Y0006384D01*
X0199319Y0006276D01*
X0199241Y0006170D01*
X0199160Y0006067D01*
X0199075Y0005966D01*
X0198988Y0005868D01*
X0198897Y0005773D01*
X0198804Y0005680D01*
X0198708Y0005590D01*
X0198609Y0005503D01*
X0198508Y0005420D01*
X0198404Y0005339D01*
X0198298Y0005262D01*
X0198189Y0005188D01*
X0198078Y0005117D01*
X0197966Y0005049D01*
X0197851Y0004985D01*
X0197734Y0004925D01*
X0197615Y0004868D01*
X0197495Y0004815D01*
X0197374Y0004765D01*
X0197250Y0004719D01*
X0197126Y0004677D01*
X0197000Y0004639D01*
X0196873Y0004604D01*
X0196745Y0004573D01*
X0196617Y0004547D01*
X0196487Y0004524D01*
X0196357Y0004505D01*
X0196227Y0004490D01*
X0196096Y0004479D01*
X0195964Y0004472D01*
X0195833Y0004469D01*
X0195701Y0004470D01*
X0195570Y0004475D01*
X0195439Y0004484D01*
X0195308Y0004497D01*
X0195178Y0004514D01*
X0195048Y0004535D01*
X0194919Y0004560D01*
X0194791Y0004588D01*
X0194663Y0004621D01*
X0194537Y0004657D01*
X0194412Y0004698D01*
X0194288Y0004742D01*
X0194165Y0004789D01*
X0194044Y0004841D01*
X0193925Y0004896D01*
X0193807Y0004955D01*
X0193692Y0005017D01*
X0193578Y0005083D01*
X0193466Y0005152D01*
X0193356Y0005224D01*
X0193249Y0005300D01*
X0193144Y0005379D01*
X0193041Y0005461D01*
X0192941Y0005546D01*
X0192844Y0005635D01*
X0192749Y0005726D01*
X0192657Y0005820D01*
X0192568Y0005917D01*
X0192482Y0006016D01*
X0192399Y0006118D01*
X0192319Y0006223D01*
X0192243Y0006329D01*
X0192170Y0006438D01*
X0192100Y0006550D01*
X0192033Y0006663D01*
X0191970Y0006778D01*
X0191910Y0006896D01*
X0191854Y0007014D01*
X0191802Y0007135D01*
X0191753Y0007257D01*
X0191708Y0007381D01*
X0191667Y0007505D01*
X0191630Y0007632D01*
X0191596Y0007759D01*
X0191566Y0007887D01*
X0191541Y0008016D01*
X0191519Y0008145D01*
X0191501Y0008275D01*
X0191487Y0008406D01*
X0191477Y0008537D01*
X0191471Y0008669D01*
X0191469Y0008800D01*
D11*
X0001800Y0001800D02*
X0001800Y0166800D01*
X0201800Y0166800D01*
X0201800Y0001800D01*
X0001800Y0001800D01*
X0035257Y0042343D02*
X0035257Y0043800D01*
X0035961Y0052383D02*
X0035800Y0052544D01*
X0042800Y0057296D02*
X0043800Y0058296D01*
X0043639Y0075217D02*
X0043800Y0075379D01*
X0051800Y0098257D02*
X0050800Y0099257D01*
X0065020Y0110115D02*
X0065335Y0109800D01*
X0065209Y0117800D02*
X0065020Y0117989D01*
X0063957Y0124800D02*
X0065020Y0125863D01*
X0066083Y0125800D01*
X0065020Y0133737D02*
X0067083Y0133800D01*
X0065020Y0141611D02*
X0065831Y0142800D01*
X0065020Y0141611D02*
X0060831Y0142800D01*
X0033800Y0154800D02*
X0032800Y0155800D01*
X0013800Y0082800D02*
X0012800Y0082800D01*
X0064847Y0044304D02*
X0066800Y0044257D01*
X0080900Y0055776D02*
X0080924Y0055800D01*
X0089800Y0055800D01*
X0091800Y0057800D01*
X0087800Y0060800D02*
X0085800Y0058800D01*
X0081026Y0058800D01*
X0080900Y0058926D01*
X0080624Y0061800D02*
X0080900Y0062076D01*
X0081900Y0049900D02*
X0081800Y0049800D01*
X0100375Y0065225D02*
X0100800Y0064800D01*
X0098800Y0074800D02*
X0102524Y0079524D01*
X0102524Y0083700D01*
X0105674Y0083700D02*
X0105674Y0078674D01*
X0103800Y0074800D01*
X0108800Y0075800D02*
X0108824Y0076824D01*
X0108824Y0083700D01*
X0099375Y0083700D02*
X0099375Y0080375D01*
X0093800Y0074800D01*
X0092800Y0074800D01*
X0093800Y0078800D02*
X0089800Y0078800D01*
X0087800Y0076800D01*
X0093800Y0078800D02*
X0096225Y0081225D01*
X0096225Y0083700D01*
X0086800Y0083724D02*
X0086776Y0083700D01*
X0072469Y0074674D02*
X0072343Y0074800D01*
X0114700Y0074674D02*
X0114826Y0074800D01*
X0125532Y0071524D02*
X0126257Y0070800D01*
X0126257Y0073257D01*
X0134343Y0063800D02*
X0133343Y0062800D01*
X0132800Y0062257D01*
X0128800Y0050800D02*
X0128800Y0049800D01*
X0114826Y0058800D02*
X0114700Y0058926D01*
X0148253Y0043253D02*
X0148253Y0041800D01*
X0134800Y0028347D02*
X0134800Y0026800D01*
X0159296Y0063800D02*
X0159296Y0068847D01*
X0160800Y0073800D02*
X0161800Y0074800D01*
X0161800Y0107343D02*
X0159343Y0107343D01*
X0160454Y0107997D02*
X0161800Y0107343D01*
X0142580Y0110115D02*
X0140265Y0110800D01*
X0168257Y0126257D02*
X0168800Y0126800D01*
X0175343Y0141800D02*
X0175343Y0150753D01*
X0172296Y0153800D01*
X0188800Y0135800D02*
X0188800Y0134800D01*
X0074800Y0005800D02*
X0058800Y0005800D01*
D12*
X0065020Y0102241D03*
X0065020Y0110115D03*
X0065020Y0117989D03*
X0065020Y0125863D03*
X0065020Y0133737D03*
X0065020Y0141611D03*
X0065020Y0149485D03*
X0065020Y0157359D03*
X0142580Y0157359D03*
X0142580Y0149485D03*
X0142580Y0141611D03*
X0142580Y0133737D03*
X0142580Y0125863D03*
X0142580Y0117989D03*
X0142580Y0110115D03*
X0142580Y0102241D03*
D13*
X0146304Y0063800D03*
X0159296Y0063800D03*
X0159304Y0153800D03*
X0172296Y0153800D03*
X0025296Y0044800D03*
X0012304Y0044800D03*
D14*
X0054800Y0044304D03*
X0054800Y0057296D03*
D15*
X0024706Y0063800D03*
X0012894Y0063800D03*
D16*
X0035961Y0052383D03*
X0038520Y0052383D03*
X0041080Y0052383D03*
X0043639Y0052383D03*
X0043639Y0075217D03*
X0041080Y0075217D03*
X0038520Y0075217D03*
X0035961Y0075217D03*
D17*
X0065257Y0074800D03*
X0072343Y0074800D03*
X0072343Y0065800D03*
X0065257Y0065800D03*
X0042343Y0043800D03*
X0035257Y0043800D03*
X0126257Y0062800D03*
X0133343Y0062800D03*
X0133343Y0070800D03*
X0126257Y0070800D03*
X0144257Y0076800D03*
X0151343Y0076800D03*
X0151343Y0086800D03*
X0144257Y0086800D03*
X0141257Y0050800D03*
X0148343Y0050800D03*
X0168257Y0141800D03*
X0175343Y0141800D03*
D18*
X0161800Y0107343D03*
X0161800Y0100257D03*
X0161800Y0086343D03*
X0161800Y0079257D03*
X0104800Y0031343D03*
X0104800Y0024257D03*
X0066800Y0044257D03*
X0066800Y0051343D03*
X0050800Y0099257D03*
X0050800Y0106343D03*
D19*
X0023800Y0082800D03*
X0013800Y0082800D03*
X0063800Y0026800D03*
X0073800Y0026800D03*
X0083800Y0026800D03*
X0093800Y0026800D03*
X0093800Y0013800D03*
X0083800Y0013800D03*
X0073800Y0013800D03*
X0063800Y0013800D03*
X0114800Y0013800D03*
X0124800Y0013800D03*
X0134800Y0013800D03*
X0144800Y0013800D03*
X0144800Y0026800D03*
X0134800Y0026800D03*
X0124800Y0026800D03*
X0114800Y0026800D03*
D20*
X0051800Y0087800D03*
X0045800Y0087800D03*
D21*
X0048800Y0135800D03*
X0018800Y0135800D03*
X0018800Y0029800D03*
X0048800Y0029800D03*
X0158800Y0029800D03*
X0188800Y0029800D03*
X0188800Y0135800D03*
X0158800Y0135800D03*
D22*
X0130706Y0087800D03*
X0124800Y0087800D03*
X0118894Y0087800D03*
D23*
X0118894Y0091934D03*
X0124800Y0091934D03*
X0130706Y0091934D03*
X0130706Y0083666D03*
X0124800Y0083666D03*
X0118894Y0083666D03*
D24*
X0034800Y0097800D03*
X0034800Y0107800D03*
X0024800Y0107800D03*
X0024800Y0097800D03*
X0014800Y0097800D03*
X0014800Y0107800D03*
D25*
X0026304Y0152257D02*
X0039296Y0152257D01*
X0026304Y0152257D02*
X0026304Y0159343D01*
X0039296Y0159343D01*
X0039296Y0152257D01*
X0039296Y0154618D02*
X0026304Y0154618D01*
X0026304Y0156979D02*
X0039296Y0156979D01*
X0039296Y0159340D02*
X0026304Y0159340D01*
D26*
X0186800Y0107997D03*
X0186800Y0057603D03*
D27*
X0146875Y0043178D02*
X0146875Y0040422D01*
X0146875Y0043178D02*
X0149631Y0043178D01*
X0149631Y0040422D01*
X0146875Y0040422D01*
X0146875Y0041602D02*
X0149631Y0041602D01*
X0149631Y0042782D02*
X0146875Y0042782D01*
X0139969Y0043178D02*
X0139969Y0040422D01*
X0139969Y0043178D02*
X0142725Y0043178D01*
X0142725Y0040422D01*
X0139969Y0040422D01*
X0139969Y0041602D02*
X0142725Y0041602D01*
X0142725Y0042782D02*
X0139969Y0042782D01*
D28*
X0128800Y0043800D03*
X0128800Y0037800D03*
X0128800Y0049800D03*
D29*
X0114700Y0055776D03*
X0114700Y0058926D03*
X0114700Y0062076D03*
X0114700Y0065225D03*
X0114700Y0068375D03*
X0114700Y0071524D03*
X0114700Y0074674D03*
X0114700Y0077824D03*
X0080900Y0077824D03*
X0080900Y0074674D03*
X0080900Y0071524D03*
X0080900Y0068375D03*
X0080900Y0065225D03*
X0080900Y0062076D03*
X0080900Y0058926D03*
X0080900Y0055776D03*
D30*
X0086776Y0049900D03*
X0089926Y0049900D03*
X0093076Y0049900D03*
X0096225Y0049900D03*
X0099375Y0049900D03*
X0102524Y0049900D03*
X0105674Y0049900D03*
X0108824Y0049900D03*
X0108824Y0083700D03*
X0105674Y0083700D03*
X0102524Y0083700D03*
X0099375Y0083700D03*
X0096225Y0083700D03*
X0093076Y0083700D03*
X0089926Y0083700D03*
X0086776Y0083700D03*
D31*
X0086800Y0083724D02*
X0086800Y0125800D01*
X0090000Y0123087D02*
X0090000Y0121981D01*
X0092532Y0121981D01*
X0094981Y0119532D01*
X0094981Y0116068D01*
X0093126Y0114213D01*
X0093126Y0113981D01*
X0096532Y0113981D01*
X0098981Y0111532D01*
X0098981Y0108068D01*
X0096532Y0105619D01*
X0096390Y0105619D01*
X0096276Y0105371D01*
X0096276Y0088600D01*
X0110401Y0088600D01*
X0111283Y0088235D01*
X0111958Y0087559D01*
X0112324Y0086677D01*
X0112324Y0081324D01*
X0113675Y0081324D01*
X0114920Y0082569D01*
X0114920Y0085128D01*
X0115285Y0086010D01*
X0115694Y0086419D01*
X0115694Y0088437D01*
X0115707Y0088467D01*
X0115707Y0089168D01*
X0115285Y0089590D01*
X0114920Y0090472D01*
X0114920Y0093395D01*
X0115285Y0094278D01*
X0115960Y0094953D01*
X0116842Y0095318D01*
X0120947Y0095318D01*
X0121829Y0094953D01*
X0121847Y0094934D01*
X0121866Y0094953D01*
X0122748Y0095318D01*
X0126852Y0095318D01*
X0127734Y0094953D01*
X0127753Y0094934D01*
X0127771Y0094953D01*
X0128653Y0095318D01*
X0132758Y0095318D01*
X0133640Y0094953D01*
X0134315Y0094278D01*
X0134680Y0093395D01*
X0134680Y0090472D01*
X0134315Y0089590D01*
X0133893Y0089168D01*
X0133893Y0088467D01*
X0133905Y0088437D01*
X0133905Y0086419D01*
X0134117Y0086208D01*
X0136748Y0088839D01*
X0137761Y0089852D01*
X0139084Y0090400D01*
X0140597Y0090400D01*
X0140647Y0090522D01*
X0141322Y0091197D01*
X0142204Y0091562D01*
X0143928Y0091562D01*
X0149451Y0097085D01*
X0134228Y0097085D01*
X0133346Y0097450D01*
X0132671Y0098126D01*
X0132306Y0099008D01*
X0132306Y0105474D01*
X0132597Y0106178D01*
X0132306Y0106882D01*
X0132306Y0107600D01*
X0129513Y0107600D01*
X0128532Y0106619D01*
X0125068Y0106619D01*
X0122619Y0109068D01*
X0122619Y0112532D01*
X0125068Y0114981D01*
X0128532Y0114981D01*
X0129513Y0114000D01*
X0132575Y0114000D01*
X0132597Y0114052D01*
X0132306Y0114756D01*
X0132306Y0121222D01*
X0132597Y0121926D01*
X0132306Y0122630D01*
X0132306Y0129096D01*
X0132597Y0129800D01*
X0132306Y0130504D01*
X0132306Y0136970D01*
X0132597Y0137674D01*
X0132306Y0138378D01*
X0132306Y0144844D01*
X0132597Y0145548D01*
X0132306Y0146252D01*
X0132306Y0152718D01*
X0132597Y0153422D01*
X0132306Y0154126D01*
X0132306Y0160592D01*
X0132671Y0161474D01*
X0133346Y0162150D01*
X0134228Y0162515D01*
X0150931Y0162515D01*
X0151813Y0162150D01*
X0152488Y0161474D01*
X0152702Y0160959D01*
X0154524Y0160959D01*
X0155015Y0161020D01*
X0155234Y0160959D01*
X0155461Y0160959D01*
X0155767Y0160832D01*
X0156464Y0161121D01*
X0162144Y0161121D01*
X0163026Y0160756D01*
X0163701Y0160081D01*
X0164066Y0159199D01*
X0164066Y0151082D01*
X0168586Y0146562D01*
X0170309Y0146562D01*
X0171191Y0146197D01*
X0171866Y0145522D01*
X0172231Y0144640D01*
X0172231Y0138960D01*
X0171866Y0138078D01*
X0171857Y0138069D01*
X0171857Y0130400D01*
X0183699Y0130400D01*
X0181375Y0132724D01*
X0181375Y0138876D01*
X0185724Y0143225D01*
X0191876Y0143225D01*
X0196225Y0138876D01*
X0196225Y0134177D01*
X0198400Y0132727D01*
X0198400Y0153159D01*
X0197218Y0152669D01*
X0194382Y0152669D01*
X0191761Y0153755D01*
X0189755Y0155761D01*
X0188669Y0158382D01*
X0188669Y0161218D01*
X0189573Y0163400D01*
X0014027Y0163400D01*
X0014931Y0161218D01*
X0014931Y0158382D01*
X0013845Y0155761D01*
X0011839Y0153755D01*
X0009218Y0152669D01*
X0006382Y0152669D01*
X0005200Y0153159D01*
X0005200Y0124348D01*
X0005200Y0124348D01*
X0005200Y0124516D01*
X0005412Y0125027D01*
X0005576Y0125555D01*
X0005684Y0125684D01*
X0005748Y0125839D01*
X0006139Y0126230D01*
X0011471Y0132629D01*
X0011375Y0132724D01*
X0011375Y0138876D01*
X0015724Y0143225D01*
X0021876Y0143225D01*
X0026225Y0138876D01*
X0026225Y0132724D01*
X0021876Y0128375D01*
X0017299Y0128375D01*
X0012400Y0122497D01*
X0012400Y0113461D01*
X0012439Y0113500D01*
X0017161Y0113500D01*
X0019800Y0110861D01*
X0022439Y0113500D01*
X0025975Y0113500D01*
X0042987Y0130513D01*
X0043411Y0130688D01*
X0041375Y0132724D01*
X0041375Y0138876D01*
X0045724Y0143225D01*
X0051876Y0143225D01*
X0056225Y0138876D01*
X0056225Y0138709D01*
X0056669Y0138893D01*
X0073372Y0138893D01*
X0074254Y0138528D01*
X0074929Y0137852D01*
X0075282Y0137000D01*
X0078437Y0137000D01*
X0079613Y0136513D01*
X0080513Y0135613D01*
X0080513Y0135613D01*
X0084613Y0131513D01*
X0084613Y0131513D01*
X0085513Y0130613D01*
X0085774Y0129981D01*
X0088532Y0129981D01*
X0090981Y0127532D01*
X0090981Y0124068D01*
X0090000Y0123087D01*
X0090200Y0123287D02*
X0132306Y0123287D01*
X0132306Y0124885D02*
X0090981Y0124885D01*
X0090981Y0126484D02*
X0132306Y0126484D01*
X0132306Y0128082D02*
X0090431Y0128082D01*
X0088832Y0129681D02*
X0132548Y0129681D01*
X0132306Y0131279D02*
X0084846Y0131279D01*
X0083248Y0132878D02*
X0132306Y0132878D01*
X0132306Y0134476D02*
X0081649Y0134476D01*
X0080051Y0136075D02*
X0132306Y0136075D01*
X0132597Y0137673D02*
X0075003Y0137673D01*
X0077800Y0133800D02*
X0067083Y0133800D01*
X0057737Y0133737D02*
X0052800Y0127800D01*
X0044800Y0127800D01*
X0024800Y0107800D01*
X0020434Y0104105D02*
X0019166Y0104105D01*
X0019800Y0103800D02*
X0019800Y0122800D01*
X0041800Y0144800D01*
X0043800Y0144800D02*
X0011800Y0144800D01*
X0005800Y0139800D01*
X0005800Y0026800D01*
X0027800Y0005800D01*
X0058800Y0005800D01*
X0057800Y0006800D01*
X0057800Y0031800D01*
X0066800Y0040800D01*
X0066800Y0044257D01*
X0068200Y0044960D02*
X0046839Y0044960D01*
X0046839Y0044459D02*
X0046839Y0053019D01*
X0046826Y0053050D01*
X0046826Y0053696D01*
X0047794Y0053696D01*
X0047844Y0053574D01*
X0048519Y0052899D01*
X0049401Y0052534D01*
X0060199Y0052534D01*
X0060425Y0052627D01*
X0062038Y0051014D01*
X0062038Y0049291D01*
X0062403Y0048409D01*
X0063078Y0047734D01*
X0063960Y0047369D01*
X0066006Y0047369D01*
X0068200Y0045613D01*
X0068200Y0040291D01*
X0060748Y0032839D01*
X0060200Y0031516D01*
X0060200Y0030837D01*
X0058400Y0029037D01*
X0058400Y0024563D01*
X0060200Y0022763D01*
X0060200Y0017837D01*
X0058400Y0016037D01*
X0058400Y0011563D01*
X0061563Y0008400D01*
X0066037Y0008400D01*
X0069200Y0011563D01*
X0069200Y0016037D01*
X0067400Y0017837D01*
X0067400Y0022763D01*
X0069200Y0024563D01*
X0069200Y0029037D01*
X0068164Y0030073D01*
X0073839Y0035748D01*
X0074600Y0036509D01*
X0074600Y0032163D01*
X0075087Y0030987D01*
X0078400Y0027675D01*
X0078400Y0024563D01*
X0081563Y0021400D01*
X0085600Y0021400D01*
X0085600Y0020125D01*
X0084675Y0019200D01*
X0081563Y0019200D01*
X0078400Y0016037D01*
X0078400Y0011563D01*
X0081563Y0008400D01*
X0086037Y0008400D01*
X0088800Y0011163D01*
X0091563Y0008400D01*
X0096037Y0008400D01*
X0099200Y0011563D01*
X0099200Y0014675D01*
X0100619Y0016093D01*
X0100619Y0015068D01*
X0103068Y0012619D01*
X0106532Y0012619D01*
X0108981Y0015068D01*
X0108981Y0015093D01*
X0109400Y0014675D01*
X0109400Y0011563D01*
X0112563Y0008400D01*
X0117037Y0008400D01*
X0119800Y0011163D01*
X0122563Y0008400D01*
X0127037Y0008400D01*
X0130200Y0011563D01*
X0130200Y0016037D01*
X0128000Y0018237D01*
X0128000Y0018437D01*
X0127513Y0019613D01*
X0125725Y0021400D01*
X0127037Y0021400D01*
X0130200Y0024563D01*
X0130200Y0029037D01*
X0127037Y0032200D01*
X0126000Y0032200D01*
X0126000Y0033100D01*
X0132427Y0033100D01*
X0133309Y0033465D01*
X0133766Y0033921D01*
X0134068Y0033619D01*
X0137532Y0033619D01*
X0139981Y0036068D01*
X0139981Y0037431D01*
X0143320Y0037431D01*
X0144419Y0037887D01*
X0145260Y0038728D01*
X0145716Y0039827D01*
X0145716Y0043647D01*
X0148107Y0046038D01*
X0150395Y0046038D01*
X0151278Y0046403D01*
X0151953Y0047078D01*
X0152318Y0047960D01*
X0152318Y0053640D01*
X0151953Y0054522D01*
X0151278Y0055197D01*
X0150395Y0055562D01*
X0146291Y0055562D01*
X0145409Y0055197D01*
X0144800Y0054588D01*
X0144191Y0055197D01*
X0143309Y0055562D01*
X0139204Y0055562D01*
X0138322Y0055197D01*
X0137647Y0054522D01*
X0137431Y0054000D01*
X0133444Y0054000D01*
X0133309Y0054135D01*
X0132427Y0054500D01*
X0126000Y0054500D01*
X0126000Y0055437D01*
X0125513Y0056613D01*
X0124005Y0058120D01*
X0124204Y0058038D01*
X0128309Y0058038D01*
X0129191Y0058403D01*
X0129866Y0059078D01*
X0130231Y0059960D01*
X0130231Y0065640D01*
X0129866Y0066522D01*
X0129857Y0066531D01*
X0129857Y0067069D01*
X0129866Y0067078D01*
X0130231Y0067960D01*
X0130231Y0072140D01*
X0140908Y0082817D01*
X0141322Y0082403D01*
X0142204Y0082038D01*
X0146309Y0082038D01*
X0147191Y0082403D01*
X0147800Y0083012D01*
X0148143Y0082669D01*
X0148143Y0080931D01*
X0147734Y0080522D01*
X0147369Y0079640D01*
X0147369Y0073960D01*
X0147734Y0073078D01*
X0148409Y0072403D01*
X0149291Y0072038D01*
X0151580Y0072038D01*
X0154534Y0069084D01*
X0154534Y0058401D01*
X0154899Y0057519D01*
X0155574Y0056844D01*
X0156456Y0056479D01*
X0162136Y0056479D01*
X0163018Y0056844D01*
X0163693Y0057519D01*
X0164058Y0058401D01*
X0164058Y0065451D01*
X0174958Y0054551D01*
X0151924Y0054551D01*
X0152318Y0052952D02*
X0183107Y0052952D01*
X0182056Y0054003D02*
X0177713Y0054003D01*
X0176281Y0054003D01*
X0174958Y0054551D01*
X0173359Y0056149D02*
X0125705Y0056149D01*
X0126000Y0054551D02*
X0137676Y0054551D01*
X0141257Y0050800D02*
X0128800Y0050800D01*
X0122800Y0054800D02*
X0118800Y0058800D01*
X0114826Y0058800D01*
X0114700Y0055776D02*
X0099824Y0055776D01*
X0099800Y0055800D01*
X0102537Y0058976D02*
X0101532Y0059981D01*
X0098068Y0059981D01*
X0095981Y0057894D01*
X0095981Y0059532D01*
X0093532Y0061981D01*
X0091981Y0061981D01*
X0091981Y0062532D01*
X0089532Y0064981D01*
X0086068Y0064981D01*
X0085490Y0064402D01*
X0085435Y0064535D01*
X0084759Y0065210D01*
X0084723Y0065225D01*
X0084759Y0065240D01*
X0085435Y0065915D01*
X0085800Y0066797D01*
X0085800Y0068275D01*
X0085987Y0068087D01*
X0087163Y0067600D01*
X0110130Y0067600D01*
X0109800Y0066803D01*
X0109800Y0063648D01*
X0110165Y0062766D01*
X0110841Y0062091D01*
X0110877Y0062076D01*
X0110841Y0062061D01*
X0110165Y0061385D01*
X0109800Y0060503D01*
X0109800Y0058976D01*
X0102537Y0058976D01*
X0102167Y0059346D02*
X0109800Y0059346D01*
X0109983Y0060945D02*
X0094568Y0060945D01*
X0095981Y0059346D02*
X0097433Y0059346D01*
X0100800Y0063800D02*
X0100800Y0064800D01*
X0100800Y0066800D01*
X0101800Y0067800D01*
X0110800Y0067800D01*
X0111375Y0068375D01*
X0114700Y0068375D01*
X0114700Y0071524D02*
X0110524Y0071524D01*
X0109800Y0070800D01*
X0087800Y0070800D01*
X0083926Y0074674D01*
X0080900Y0074674D01*
X0080900Y0071524D02*
X0076524Y0071524D01*
X0072800Y0069800D01*
X0068800Y0069800D01*
X0068800Y0059800D01*
X0077800Y0050800D01*
X0077800Y0032800D01*
X0083800Y0026800D01*
X0080383Y0022581D02*
X0067400Y0022581D01*
X0067400Y0020982D02*
X0085600Y0020982D01*
X0084858Y0019384D02*
X0067400Y0019384D01*
X0067452Y0017785D02*
X0080148Y0017785D01*
X0078550Y0016187D02*
X0069050Y0016187D01*
X0069200Y0014588D02*
X0078400Y0014588D01*
X0078400Y0012990D02*
X0069200Y0012990D01*
X0069028Y0011391D02*
X0078572Y0011391D01*
X0080171Y0009793D02*
X0067429Y0009793D01*
X0073800Y0006800D02*
X0073800Y0013800D01*
X0073800Y0026800D01*
X0074800Y0027800D01*
X0074800Y0049800D01*
X0065257Y0059343D01*
X0065257Y0065800D01*
X0065257Y0074800D01*
X0066987Y0072513D02*
X0066087Y0071613D01*
X0065600Y0070437D01*
X0065600Y0059163D01*
X0066087Y0057987D01*
X0068756Y0055318D01*
X0067916Y0055318D01*
X0062886Y0060348D01*
X0061857Y0060775D01*
X0061756Y0061018D01*
X0061081Y0061693D01*
X0060199Y0062058D01*
X0049401Y0062058D01*
X0048519Y0061693D01*
X0047844Y0061018D01*
X0047794Y0060896D01*
X0047100Y0060896D01*
X0047100Y0076200D01*
X0050516Y0076200D01*
X0051839Y0076748D01*
X0054852Y0079761D01*
X0055400Y0081084D01*
X0055400Y0082591D01*
X0055459Y0082615D01*
X0056135Y0083291D01*
X0056500Y0084173D01*
X0056500Y0084200D01*
X0063309Y0084200D01*
X0068861Y0078648D01*
X0068734Y0078522D01*
X0068369Y0077640D01*
X0068369Y0073000D01*
X0068163Y0073000D01*
X0066987Y0072513D01*
X0066609Y0072134D02*
X0047100Y0072134D01*
X0047100Y0070536D02*
X0065641Y0070536D01*
X0065600Y0068937D02*
X0047100Y0068937D01*
X0047100Y0067339D02*
X0065600Y0067339D01*
X0065600Y0065740D02*
X0047100Y0065740D01*
X0047100Y0064142D02*
X0065600Y0064142D01*
X0065600Y0062543D02*
X0047100Y0062543D01*
X0047100Y0060945D02*
X0047814Y0060945D01*
X0040500Y0060945D02*
X0031043Y0060945D01*
X0031043Y0062543D02*
X0040500Y0062543D01*
X0040500Y0064142D02*
X0031043Y0064142D01*
X0031043Y0065470D02*
X0032072Y0066500D01*
X0037456Y0066500D01*
X0038669Y0067002D01*
X0039598Y0067931D01*
X0040500Y0068833D01*
X0040500Y0060896D01*
X0036580Y0060896D01*
X0035257Y0060348D01*
X0034244Y0059335D01*
X0033944Y0058611D01*
X0033002Y0057669D01*
X0032500Y0056456D01*
X0032500Y0055144D01*
X0032600Y0054902D01*
X0032600Y0051908D01*
X0032774Y0051487D01*
X0032774Y0050134D01*
X0033139Y0049252D01*
X0033815Y0048576D01*
X0034697Y0048211D01*
X0037226Y0048211D01*
X0037241Y0048217D01*
X0037256Y0048211D01*
X0039443Y0048211D01*
X0039409Y0048197D01*
X0038734Y0047522D01*
X0038369Y0046640D01*
X0038369Y0040960D01*
X0038734Y0040078D01*
X0039409Y0039403D01*
X0040291Y0039038D01*
X0044395Y0039038D01*
X0045278Y0039403D01*
X0045953Y0040078D01*
X0046318Y0040960D01*
X0046318Y0043249D01*
X0046351Y0043283D01*
X0046839Y0044459D01*
X0046384Y0043361D02*
X0068200Y0043361D01*
X0068200Y0041763D02*
X0046318Y0041763D01*
X0045988Y0040164D02*
X0068073Y0040164D01*
X0066475Y0038566D02*
X0016720Y0038566D01*
X0016701Y0038519D02*
X0017066Y0039401D01*
X0017066Y0050199D01*
X0016701Y0051081D01*
X0016494Y0051287D01*
X0016494Y0053526D01*
X0017309Y0053526D01*
X0018191Y0053891D01*
X0018800Y0054500D01*
X0019409Y0053891D01*
X0020291Y0053526D01*
X0029120Y0053526D01*
X0030002Y0053891D01*
X0030677Y0054566D01*
X0031043Y0055449D01*
X0031043Y0065470D01*
X0031313Y0065740D02*
X0040500Y0065740D01*
X0040500Y0067339D02*
X0039006Y0067339D01*
X0041080Y0068080D02*
X0031800Y0058800D01*
X0031800Y0047257D01*
X0035257Y0043800D01*
X0035257Y0042343D02*
X0035257Y0040343D01*
X0041300Y0034300D01*
X0036800Y0029800D01*
X0018800Y0029800D01*
X0025296Y0036296D01*
X0025296Y0044800D01*
X0017066Y0044960D02*
X0038369Y0044960D01*
X0038369Y0046558D02*
X0017066Y0046558D01*
X0017066Y0048157D02*
X0039369Y0048157D01*
X0043639Y0045095D02*
X0043639Y0052383D01*
X0046839Y0052952D02*
X0048466Y0052952D01*
X0046839Y0051354D02*
X0061698Y0051354D01*
X0062038Y0049755D02*
X0046839Y0049755D01*
X0046839Y0048157D02*
X0062655Y0048157D01*
X0064847Y0044304D02*
X0054800Y0044304D01*
X0051304Y0044304D01*
X0041300Y0034300D01*
X0042270Y0033770D02*
X0005200Y0033770D01*
X0005200Y0032172D02*
X0041375Y0032172D01*
X0041375Y0032876D02*
X0041375Y0026724D01*
X0045724Y0022375D01*
X0051876Y0022375D01*
X0056225Y0026724D01*
X0056225Y0032876D01*
X0051876Y0037225D01*
X0045724Y0037225D01*
X0041375Y0032876D01*
X0041375Y0030573D02*
X0005200Y0030573D01*
X0005200Y0028975D02*
X0041375Y0028975D01*
X0041375Y0027376D02*
X0005200Y0027376D01*
X0005200Y0025778D02*
X0042322Y0025778D01*
X0043920Y0024179D02*
X0005200Y0024179D01*
X0005200Y0022581D02*
X0045519Y0022581D01*
X0052081Y0022581D02*
X0060200Y0022581D01*
X0060200Y0020982D02*
X0005200Y0020982D01*
X0005200Y0019384D02*
X0060200Y0019384D01*
X0060148Y0017785D02*
X0005200Y0017785D01*
X0005200Y0016187D02*
X0058550Y0016187D01*
X0058400Y0014588D02*
X0012096Y0014588D01*
X0011839Y0014845D02*
X0009218Y0015931D01*
X0006382Y0015931D01*
X0005200Y0015441D01*
X0005200Y0123637D01*
X0005200Y0123637D01*
X0005200Y0086084D01*
X0005748Y0084761D01*
X0006761Y0083748D01*
X0008400Y0082109D01*
X0008400Y0080563D01*
X0011563Y0077400D01*
X0013309Y0077400D01*
X0009983Y0074074D01*
X0008480Y0074074D01*
X0007598Y0073709D01*
X0006923Y0073034D01*
X0006557Y0072151D01*
X0006557Y0055449D01*
X0006923Y0054566D01*
X0007598Y0053891D01*
X0008480Y0053526D01*
X0009294Y0053526D01*
X0009294Y0052051D01*
X0008582Y0051756D01*
X0007907Y0051081D01*
X0007542Y0050199D01*
X0007542Y0039401D01*
X0007907Y0038519D01*
X0008582Y0037844D01*
X0009464Y0037479D01*
X0015144Y0037479D01*
X0016026Y0037844D01*
X0016701Y0038519D01*
X0017066Y0040164D02*
X0038698Y0040164D01*
X0038369Y0041763D02*
X0017066Y0041763D01*
X0017066Y0043361D02*
X0038369Y0043361D01*
X0032931Y0049755D02*
X0017066Y0049755D01*
X0016494Y0051354D02*
X0032774Y0051354D01*
X0032600Y0052952D02*
X0016494Y0052952D01*
X0009294Y0052952D02*
X0005200Y0052952D01*
X0005200Y0051354D02*
X0008180Y0051354D01*
X0007542Y0049755D02*
X0005200Y0049755D01*
X0005200Y0048157D02*
X0007542Y0048157D01*
X0007542Y0046558D02*
X0005200Y0046558D01*
X0005200Y0044960D02*
X0007542Y0044960D01*
X0007542Y0043361D02*
X0005200Y0043361D01*
X0005200Y0041763D02*
X0007542Y0041763D01*
X0007542Y0040164D02*
X0005200Y0040164D01*
X0005200Y0038566D02*
X0007888Y0038566D01*
X0005200Y0036967D02*
X0045467Y0036967D01*
X0043868Y0035369D02*
X0005200Y0035369D01*
X0005200Y0054551D02*
X0006938Y0054551D01*
X0006557Y0056149D02*
X0005200Y0056149D01*
X0005200Y0057748D02*
X0006557Y0057748D01*
X0006557Y0059346D02*
X0005200Y0059346D01*
X0005200Y0060945D02*
X0006557Y0060945D01*
X0006557Y0062543D02*
X0005200Y0062543D01*
X0005200Y0064142D02*
X0006557Y0064142D01*
X0006557Y0065740D02*
X0005200Y0065740D01*
X0005200Y0067339D02*
X0006557Y0067339D01*
X0006557Y0068937D02*
X0005200Y0068937D01*
X0005200Y0070536D02*
X0006557Y0070536D01*
X0006557Y0072134D02*
X0005200Y0072134D01*
X0005200Y0073733D02*
X0007657Y0073733D01*
X0005200Y0075332D02*
X0011240Y0075332D01*
X0012839Y0076930D02*
X0005200Y0076930D01*
X0005200Y0078529D02*
X0010435Y0078529D01*
X0008836Y0080127D02*
X0005200Y0080127D01*
X0005200Y0081726D02*
X0008400Y0081726D01*
X0007185Y0083324D02*
X0005200Y0083324D01*
X0005200Y0084923D02*
X0005681Y0084923D01*
X0005200Y0086521D02*
X0005200Y0086521D01*
X0005200Y0088120D02*
X0005200Y0088120D01*
X0005200Y0089718D02*
X0005200Y0089718D01*
X0005200Y0091317D02*
X0005200Y0091317D01*
X0005200Y0092915D02*
X0005200Y0092915D01*
X0005200Y0094514D02*
X0005200Y0094514D01*
X0005200Y0096112D02*
X0005200Y0096112D01*
X0005200Y0097711D02*
X0005200Y0097711D01*
X0005200Y0099309D02*
X0005200Y0099309D01*
X0005200Y0100908D02*
X0005200Y0100908D01*
X0005200Y0102506D02*
X0005200Y0102506D01*
X0005200Y0104105D02*
X0005200Y0104105D01*
X0005200Y0105703D02*
X0005200Y0105703D01*
X0005200Y0107302D02*
X0005200Y0107302D01*
X0005200Y0108900D02*
X0005200Y0108900D01*
X0005200Y0110499D02*
X0005200Y0110499D01*
X0005200Y0112097D02*
X0005200Y0112097D01*
X0005200Y0113696D02*
X0005200Y0113696D01*
X0005200Y0115294D02*
X0005200Y0115294D01*
X0005200Y0116893D02*
X0005200Y0116893D01*
X0005200Y0118491D02*
X0005200Y0118491D01*
X0005200Y0120090D02*
X0005200Y0120090D01*
X0005200Y0121688D02*
X0005200Y0121688D01*
X0005200Y0123287D02*
X0005200Y0123287D01*
X0005200Y0124885D02*
X0005353Y0124885D01*
X0005200Y0126484D02*
X0006350Y0126484D01*
X0005200Y0128082D02*
X0007683Y0128082D01*
X0009015Y0129681D02*
X0005200Y0129681D01*
X0005200Y0131279D02*
X0010347Y0131279D01*
X0011375Y0132878D02*
X0005200Y0132878D01*
X0005200Y0134476D02*
X0011375Y0134476D01*
X0011375Y0136075D02*
X0005200Y0136075D01*
X0005200Y0137673D02*
X0011375Y0137673D01*
X0011771Y0139272D02*
X0005200Y0139272D01*
X0005200Y0140870D02*
X0013370Y0140870D01*
X0014968Y0142469D02*
X0005200Y0142469D01*
X0005200Y0144068D02*
X0132306Y0144068D01*
X0132306Y0142469D02*
X0052632Y0142469D01*
X0054800Y0142800D02*
X0052800Y0144800D01*
X0043800Y0144800D01*
X0044968Y0142469D02*
X0022632Y0142469D01*
X0024230Y0140870D02*
X0043370Y0140870D01*
X0041771Y0139272D02*
X0025829Y0139272D01*
X0026225Y0137673D02*
X0041375Y0137673D01*
X0041375Y0136075D02*
X0026225Y0136075D01*
X0026225Y0134476D02*
X0041375Y0134476D01*
X0041375Y0132878D02*
X0026225Y0132878D01*
X0024780Y0131279D02*
X0042820Y0131279D01*
X0042155Y0129681D02*
X0023181Y0129681D01*
X0017055Y0128082D02*
X0040557Y0128082D01*
X0038958Y0126484D02*
X0015723Y0126484D01*
X0014391Y0124885D02*
X0037360Y0124885D01*
X0035761Y0123287D02*
X0013059Y0123287D01*
X0012400Y0121688D02*
X0034163Y0121688D01*
X0032564Y0120090D02*
X0012400Y0120090D01*
X0012400Y0118491D02*
X0030966Y0118491D01*
X0029367Y0116893D02*
X0012400Y0116893D01*
X0012400Y0115294D02*
X0027769Y0115294D01*
X0026170Y0113696D02*
X0012400Y0113696D01*
X0018564Y0112097D02*
X0021036Y0112097D01*
X0019800Y0104739D02*
X0021739Y0102800D01*
X0019100Y0100161D01*
X0019100Y0095439D01*
X0022439Y0092100D01*
X0027161Y0092100D01*
X0029800Y0094739D01*
X0032439Y0092100D01*
X0037161Y0092100D01*
X0039261Y0094200D01*
X0047891Y0094200D01*
X0048146Y0094135D01*
X0048200Y0094143D01*
X0048200Y0093350D01*
X0043023Y0093350D01*
X0042141Y0092985D01*
X0041465Y0092309D01*
X0041100Y0091427D01*
X0041100Y0091400D01*
X0037084Y0091400D01*
X0035761Y0090852D01*
X0034748Y0089839D01*
X0031309Y0086400D01*
X0027837Y0086400D01*
X0026037Y0088200D01*
X0021563Y0088200D01*
X0018800Y0085437D01*
X0016037Y0088200D01*
X0012491Y0088200D01*
X0012400Y0088291D01*
X0012400Y0102139D01*
X0012439Y0102100D01*
X0017161Y0102100D01*
X0019800Y0104739D01*
X0019800Y0103800D02*
X0014800Y0098800D01*
X0012400Y0099309D02*
X0019100Y0099309D01*
X0019100Y0097711D02*
X0012400Y0097711D01*
X0012400Y0096112D02*
X0019100Y0096112D01*
X0020025Y0094514D02*
X0012400Y0094514D01*
X0012400Y0092915D02*
X0021624Y0092915D01*
X0021483Y0088120D02*
X0016117Y0088120D01*
X0017716Y0086521D02*
X0019884Y0086521D01*
X0026117Y0088120D02*
X0033028Y0088120D01*
X0031430Y0086521D02*
X0027716Y0086521D01*
X0027976Y0092915D02*
X0031624Y0092915D01*
X0030025Y0094514D02*
X0029575Y0094514D01*
X0024800Y0097800D02*
X0028800Y0102800D01*
X0039800Y0102800D01*
X0054989Y0117989D01*
X0065020Y0117989D01*
X0065209Y0117800D02*
X0078800Y0117800D01*
X0078800Y0109800D02*
X0065335Y0109800D01*
X0065020Y0110115D02*
X0054572Y0110115D01*
X0050800Y0106343D01*
X0034800Y0107800D02*
X0051800Y0124800D01*
X0063957Y0124800D01*
X0066083Y0125800D02*
X0078800Y0125800D01*
X0082800Y0128800D02*
X0082800Y0079724D01*
X0080900Y0077824D01*
X0089926Y0083700D02*
X0089926Y0115926D01*
X0090800Y0117800D01*
X0094207Y0115294D02*
X0132306Y0115294D01*
X0132306Y0116893D02*
X0094981Y0116893D01*
X0094981Y0118491D02*
X0132306Y0118491D01*
X0132306Y0120090D02*
X0094423Y0120090D01*
X0092825Y0121688D02*
X0132499Y0121688D01*
X0123783Y0113696D02*
X0096817Y0113696D01*
X0098416Y0112097D02*
X0122619Y0112097D01*
X0122619Y0110499D02*
X0098981Y0110499D01*
X0098981Y0108900D02*
X0122787Y0108900D01*
X0124385Y0107302D02*
X0098215Y0107302D01*
X0096616Y0105703D02*
X0132400Y0105703D01*
X0132306Y0104105D02*
X0096276Y0104105D01*
X0096276Y0102506D02*
X0132306Y0102506D01*
X0132306Y0100908D02*
X0096276Y0100908D01*
X0096276Y0099309D02*
X0132306Y0099309D01*
X0133086Y0097711D02*
X0096276Y0097711D01*
X0096276Y0096112D02*
X0148478Y0096112D01*
X0146879Y0094514D02*
X0134079Y0094514D01*
X0134680Y0092915D02*
X0145281Y0092915D01*
X0141612Y0091317D02*
X0134680Y0091317D01*
X0134368Y0089718D02*
X0137627Y0089718D01*
X0136028Y0088120D02*
X0133905Y0088120D01*
X0133905Y0086521D02*
X0134430Y0086521D01*
X0130706Y0087800D02*
X0130706Y0082706D01*
X0122800Y0074800D01*
X0114826Y0074800D01*
X0114700Y0077824D02*
X0118894Y0082018D01*
X0118894Y0087800D01*
X0122094Y0088120D02*
X0127506Y0088120D01*
X0127506Y0088437D02*
X0127506Y0086780D01*
X0126852Y0087050D01*
X0122748Y0087050D01*
X0122094Y0086780D01*
X0122094Y0088437D01*
X0122082Y0088467D01*
X0122082Y0088825D01*
X0122748Y0088550D01*
X0126852Y0088550D01*
X0127518Y0088825D01*
X0127518Y0088467D01*
X0127506Y0088437D01*
X0124800Y0087800D02*
X0124800Y0102800D01*
X0115300Y0112300D01*
X0111300Y0112300D01*
X0080300Y0143300D01*
X0084800Y0147800D01*
X0084800Y0161800D01*
X0085800Y0162800D01*
X0070461Y0162800D01*
X0065020Y0157359D01*
X0056669Y0154641D02*
X0055787Y0154276D01*
X0055607Y0154095D01*
X0051966Y0157160D01*
X0051613Y0157513D01*
X0051482Y0157567D01*
X0051374Y0157658D01*
X0050898Y0157809D01*
X0050437Y0158000D01*
X0050295Y0158000D01*
X0050160Y0158043D01*
X0049663Y0158000D01*
X0042877Y0158000D01*
X0042877Y0160056D01*
X0042332Y0161372D01*
X0041325Y0162379D01*
X0040008Y0162924D01*
X0025592Y0162924D01*
X0024275Y0162379D01*
X0023268Y0161372D01*
X0022723Y0160056D01*
X0022723Y0151544D01*
X0023268Y0150228D01*
X0024275Y0149221D01*
X0025592Y0148676D01*
X0040008Y0148676D01*
X0041325Y0149221D01*
X0042332Y0150228D01*
X0042877Y0151544D01*
X0042877Y0151600D01*
X0048633Y0151600D01*
X0053949Y0147125D01*
X0054302Y0146772D01*
X0054433Y0146718D01*
X0054541Y0146627D01*
X0054746Y0146562D01*
X0054746Y0146252D01*
X0055112Y0145370D01*
X0055787Y0144695D01*
X0056669Y0144329D01*
X0073372Y0144329D01*
X0074254Y0144695D01*
X0074929Y0145370D01*
X0075294Y0146252D01*
X0075294Y0152718D01*
X0074929Y0153600D01*
X0074254Y0154276D01*
X0073372Y0154641D01*
X0056669Y0154641D01*
X0054226Y0155257D02*
X0132306Y0155257D01*
X0132306Y0156856D02*
X0052327Y0156856D01*
X0049800Y0154800D02*
X0033800Y0154800D01*
X0040461Y0148863D02*
X0051884Y0148863D01*
X0049985Y0150462D02*
X0042429Y0150462D01*
X0042877Y0158454D02*
X0132306Y0158454D01*
X0132306Y0160053D02*
X0042877Y0160053D01*
X0042053Y0161651D02*
X0132848Y0161651D01*
X0132499Y0153659D02*
X0074871Y0153659D01*
X0075294Y0152060D02*
X0132306Y0152060D01*
X0132306Y0150462D02*
X0075294Y0150462D01*
X0075294Y0148863D02*
X0132306Y0148863D01*
X0132306Y0147265D02*
X0075294Y0147265D01*
X0075052Y0145666D02*
X0132548Y0145666D01*
X0132306Y0140870D02*
X0054230Y0140870D01*
X0054800Y0142800D02*
X0060831Y0142800D01*
X0055829Y0139272D02*
X0132306Y0139272D01*
X0115300Y0161300D02*
X0113800Y0162800D01*
X0085800Y0162800D01*
X0065020Y0149485D02*
X0056115Y0149485D01*
X0049800Y0154800D01*
X0053784Y0147265D02*
X0005200Y0147265D01*
X0005200Y0148863D02*
X0025139Y0148863D01*
X0023171Y0150462D02*
X0005200Y0150462D01*
X0005200Y0152060D02*
X0022723Y0152060D01*
X0022723Y0153659D02*
X0011607Y0153659D01*
X0013341Y0155257D02*
X0022723Y0155257D01*
X0022723Y0156856D02*
X0014299Y0156856D01*
X0014931Y0158454D02*
X0022723Y0158454D01*
X0022723Y0160053D02*
X0014931Y0160053D01*
X0014751Y0161651D02*
X0023547Y0161651D01*
X0014089Y0163250D02*
X0189511Y0163250D01*
X0188849Y0161651D02*
X0152311Y0161651D01*
X0163712Y0160053D02*
X0188669Y0160053D01*
X0188669Y0158454D02*
X0164066Y0158454D01*
X0164066Y0156856D02*
X0189301Y0156856D01*
X0190259Y0155257D02*
X0164066Y0155257D01*
X0164066Y0153659D02*
X0191993Y0153659D01*
X0198400Y0152060D02*
X0164066Y0152060D01*
X0164686Y0150462D02*
X0198400Y0150462D01*
X0198400Y0148863D02*
X0166285Y0148863D01*
X0167883Y0147265D02*
X0198400Y0147265D01*
X0198400Y0145666D02*
X0171722Y0145666D01*
X0172231Y0144068D02*
X0198400Y0144068D01*
X0198400Y0142469D02*
X0192632Y0142469D01*
X0194230Y0140870D02*
X0198400Y0140870D01*
X0198400Y0139272D02*
X0195829Y0139272D01*
X0196225Y0137673D02*
X0198400Y0137673D01*
X0198400Y0136075D02*
X0196225Y0136075D01*
X0196225Y0134476D02*
X0198400Y0134476D01*
X0198400Y0132878D02*
X0198173Y0132878D01*
X0184968Y0142469D02*
X0172231Y0142469D01*
X0172231Y0140870D02*
X0183370Y0140870D01*
X0181771Y0139272D02*
X0172231Y0139272D01*
X0171857Y0137673D02*
X0181375Y0137673D01*
X0181375Y0136075D02*
X0171857Y0136075D01*
X0171857Y0134476D02*
X0181375Y0134476D01*
X0181375Y0132878D02*
X0171857Y0132878D01*
X0171857Y0131279D02*
X0182820Y0131279D01*
X0172296Y0153800D02*
X0172296Y0159304D01*
X0169800Y0162800D01*
X0113800Y0162800D01*
X0080300Y0143300D02*
X0079800Y0142800D01*
X0065831Y0142800D01*
X0054989Y0145666D02*
X0005200Y0145666D01*
X0017567Y0102506D02*
X0021445Y0102506D01*
X0019847Y0100908D02*
X0012400Y0100908D01*
X0012400Y0091317D02*
X0036883Y0091317D01*
X0037976Y0092915D02*
X0042071Y0092915D01*
X0034627Y0089718D02*
X0012400Y0089718D01*
X0038520Y0075217D02*
X0038520Y0071520D01*
X0041080Y0068080D02*
X0041080Y0075217D01*
X0047100Y0075332D02*
X0068369Y0075332D01*
X0068369Y0076930D02*
X0052021Y0076930D01*
X0053620Y0078529D02*
X0068741Y0078529D01*
X0067382Y0080127D02*
X0055004Y0080127D01*
X0055400Y0081726D02*
X0065783Y0081726D01*
X0064185Y0083324D02*
X0056149Y0083324D01*
X0047100Y0073733D02*
X0068369Y0073733D01*
X0072343Y0065800D02*
X0074800Y0065800D01*
X0077375Y0068375D01*
X0080900Y0068375D01*
X0080900Y0065225D02*
X0100375Y0065225D01*
X0100800Y0063800D02*
X0102524Y0062076D01*
X0114700Y0062076D01*
X0119524Y0062076D01*
X0123800Y0057800D01*
X0130800Y0057800D01*
X0132800Y0059800D01*
X0132800Y0062257D01*
X0133343Y0062800D02*
X0133343Y0070800D01*
X0138257Y0070800D01*
X0144257Y0076800D01*
X0147369Y0076930D02*
X0135021Y0076930D01*
X0133423Y0075332D02*
X0147369Y0075332D01*
X0147463Y0073733D02*
X0131824Y0073733D01*
X0130231Y0072134D02*
X0149058Y0072134D01*
X0153082Y0070536D02*
X0130231Y0070536D01*
X0130231Y0068937D02*
X0154534Y0068937D01*
X0154534Y0067339D02*
X0129974Y0067339D01*
X0130190Y0065740D02*
X0154534Y0065740D01*
X0154534Y0064142D02*
X0130231Y0064142D01*
X0130231Y0062543D02*
X0154534Y0062543D01*
X0154534Y0060945D02*
X0130231Y0060945D01*
X0129977Y0059346D02*
X0154534Y0059346D01*
X0154805Y0057748D02*
X0124378Y0057748D01*
X0122800Y0054800D02*
X0122800Y0030800D01*
X0124800Y0028800D01*
X0124800Y0026800D01*
X0128217Y0022581D02*
X0141200Y0022581D01*
X0141200Y0022763D02*
X0141200Y0017837D01*
X0139400Y0016037D01*
X0139400Y0011563D01*
X0142563Y0008400D01*
X0147037Y0008400D01*
X0150200Y0011563D01*
X0150200Y0016037D01*
X0148400Y0017837D01*
X0148400Y0022763D01*
X0150200Y0024563D01*
X0150200Y0029037D01*
X0149664Y0029573D01*
X0151375Y0031284D01*
X0151375Y0026724D01*
X0155724Y0022375D01*
X0161876Y0022375D01*
X0166225Y0026724D01*
X0166225Y0032876D01*
X0161876Y0037225D01*
X0157316Y0037225D01*
X0162291Y0042200D01*
X0184694Y0042200D01*
X0185303Y0042164D01*
X0185407Y0042200D01*
X0185516Y0042200D01*
X0186080Y0042434D01*
X0186656Y0042634D01*
X0186738Y0042706D01*
X0186839Y0042748D01*
X0187271Y0043180D01*
X0194200Y0049339D01*
X0194200Y0037727D01*
X0192504Y0036596D01*
X0191876Y0037225D01*
X0185724Y0037225D01*
X0181375Y0032876D01*
X0181375Y0026724D01*
X0185724Y0022375D01*
X0191876Y0022375D01*
X0196225Y0026724D01*
X0196225Y0030423D01*
X0198400Y0031873D01*
X0198400Y0015441D01*
X0197218Y0015931D01*
X0194382Y0015931D01*
X0191761Y0014845D01*
X0189755Y0012839D01*
X0188669Y0010218D01*
X0188669Y0007382D01*
X0189573Y0005200D01*
X0014027Y0005200D01*
X0014931Y0007382D01*
X0014931Y0010218D01*
X0013845Y0012839D01*
X0011839Y0014845D01*
X0013695Y0012990D02*
X0058400Y0012990D01*
X0058572Y0011391D02*
X0014445Y0011391D01*
X0014931Y0009793D02*
X0060171Y0009793D01*
X0073800Y0006800D02*
X0074800Y0005800D01*
X0132800Y0005800D01*
X0134800Y0007800D01*
X0134800Y0013800D01*
X0134800Y0026800D01*
X0134800Y0028347D02*
X0148253Y0041800D01*
X0148253Y0043253D02*
X0153800Y0048800D01*
X0153800Y0056304D01*
X0146304Y0063800D01*
X0134343Y0063800D01*
X0148343Y0050800D02*
X0141347Y0043804D01*
X0141347Y0041800D01*
X0145716Y0041763D02*
X0151672Y0041763D01*
X0153270Y0043361D02*
X0145716Y0043361D01*
X0147029Y0044960D02*
X0154869Y0044960D01*
X0156467Y0046558D02*
X0151433Y0046558D01*
X0152318Y0048157D02*
X0158066Y0048157D01*
X0157748Y0047839D02*
X0141748Y0031839D01*
X0141427Y0031063D01*
X0139400Y0029037D01*
X0139400Y0024563D01*
X0141200Y0022763D01*
X0141200Y0020982D02*
X0126143Y0020982D01*
X0127608Y0019384D02*
X0141200Y0019384D01*
X0141148Y0017785D02*
X0128452Y0017785D01*
X0130050Y0016187D02*
X0139550Y0016187D01*
X0139400Y0014588D02*
X0130200Y0014588D01*
X0130200Y0012990D02*
X0139400Y0012990D01*
X0139572Y0011391D02*
X0130028Y0011391D01*
X0128429Y0009793D02*
X0141171Y0009793D01*
X0148429Y0009793D02*
X0188669Y0009793D01*
X0188669Y0008194D02*
X0014931Y0008194D01*
X0014605Y0006596D02*
X0188995Y0006596D01*
X0189155Y0011391D02*
X0150028Y0011391D01*
X0150200Y0012990D02*
X0189905Y0012990D01*
X0191504Y0014588D02*
X0150200Y0014588D01*
X0150050Y0016187D02*
X0198400Y0016187D01*
X0198400Y0017785D02*
X0148452Y0017785D01*
X0148400Y0019384D02*
X0198400Y0019384D01*
X0198400Y0020982D02*
X0148400Y0020982D01*
X0148400Y0022581D02*
X0155519Y0022581D01*
X0153920Y0024179D02*
X0149816Y0024179D01*
X0150200Y0025778D02*
X0152322Y0025778D01*
X0151375Y0027376D02*
X0150200Y0027376D01*
X0150200Y0028975D02*
X0151375Y0028975D01*
X0151375Y0030573D02*
X0150664Y0030573D01*
X0145278Y0035369D02*
X0139282Y0035369D01*
X0139981Y0036967D02*
X0146876Y0036967D01*
X0148475Y0038566D02*
X0145098Y0038566D01*
X0145716Y0040164D02*
X0150073Y0040164D01*
X0143679Y0033770D02*
X0137683Y0033770D01*
X0133917Y0033770D02*
X0133614Y0033770D01*
X0135800Y0037800D02*
X0128800Y0037800D01*
X0127065Y0032172D02*
X0142081Y0032172D01*
X0140936Y0030573D02*
X0128664Y0030573D01*
X0130200Y0028975D02*
X0139400Y0028975D01*
X0139400Y0027376D02*
X0130200Y0027376D01*
X0130200Y0025778D02*
X0139400Y0025778D01*
X0139784Y0024179D02*
X0129816Y0024179D01*
X0124800Y0017800D02*
X0119800Y0022800D01*
X0119800Y0037800D01*
X0116800Y0040800D01*
X0109800Y0040800D01*
X0105674Y0044926D01*
X0105674Y0049900D01*
X0102524Y0049900D02*
X0102524Y0043076D01*
X0109800Y0035800D01*
X0109800Y0018800D01*
X0114800Y0013800D01*
X0118429Y0009793D02*
X0121171Y0009793D01*
X0124800Y0013800D02*
X0124800Y0017800D01*
X0114800Y0026800D02*
X0114800Y0035800D01*
X0104800Y0031343D02*
X0104257Y0031343D01*
X0099800Y0035800D01*
X0099375Y0036225D01*
X0099375Y0049900D01*
X0096225Y0049900D02*
X0096225Y0032375D01*
X0099800Y0028800D01*
X0099800Y0019800D01*
X0093800Y0013800D01*
X0099200Y0014588D02*
X0101099Y0014588D01*
X0102697Y0012990D02*
X0099200Y0012990D01*
X0099028Y0011391D02*
X0109572Y0011391D01*
X0109400Y0012990D02*
X0106903Y0012990D01*
X0108501Y0014588D02*
X0109400Y0014588D01*
X0104800Y0016800D02*
X0104800Y0024257D01*
X0088800Y0018800D02*
X0083800Y0013800D01*
X0087429Y0009793D02*
X0090171Y0009793D01*
X0097429Y0009793D02*
X0111171Y0009793D01*
X0088800Y0018800D02*
X0088800Y0034800D01*
X0093076Y0039076D01*
X0093076Y0049900D01*
X0089926Y0049900D02*
X0089926Y0043926D01*
X0088800Y0043800D01*
X0086776Y0049900D02*
X0081900Y0049900D01*
X0074800Y0059800D02*
X0076800Y0061800D01*
X0080624Y0061800D01*
X0085260Y0065740D02*
X0109800Y0065740D01*
X0109800Y0064142D02*
X0090371Y0064142D01*
X0091970Y0062543D02*
X0110388Y0062543D01*
X0110022Y0067339D02*
X0085800Y0067339D01*
X0067925Y0056149D02*
X0067085Y0056149D01*
X0066327Y0057748D02*
X0065487Y0057748D01*
X0065600Y0059346D02*
X0063888Y0059346D01*
X0065600Y0060945D02*
X0061786Y0060945D01*
X0067018Y0046558D02*
X0046839Y0046558D01*
X0052133Y0036967D02*
X0064876Y0036967D01*
X0063278Y0035369D02*
X0053732Y0035369D01*
X0055330Y0033770D02*
X0061679Y0033770D01*
X0060472Y0032172D02*
X0056225Y0032172D01*
X0056225Y0030573D02*
X0059936Y0030573D01*
X0058400Y0028975D02*
X0056225Y0028975D01*
X0056225Y0027376D02*
X0058400Y0027376D01*
X0058400Y0025778D02*
X0055278Y0025778D01*
X0053680Y0024179D02*
X0058784Y0024179D01*
X0068816Y0024179D02*
X0078784Y0024179D01*
X0078400Y0025778D02*
X0069200Y0025778D01*
X0069200Y0027376D02*
X0078400Y0027376D01*
X0077100Y0028975D02*
X0069200Y0028975D01*
X0068664Y0030573D02*
X0075501Y0030573D01*
X0074600Y0032172D02*
X0070263Y0032172D01*
X0071861Y0033770D02*
X0074600Y0033770D01*
X0074600Y0035369D02*
X0073460Y0035369D01*
X0108824Y0049900D02*
X0113700Y0049900D01*
X0114800Y0047800D01*
X0128800Y0043800D02*
X0135800Y0043800D01*
X0152318Y0049755D02*
X0183831Y0049755D01*
X0183431Y0049400D02*
X0160084Y0049400D01*
X0158761Y0048852D01*
X0157748Y0047839D01*
X0152318Y0051354D02*
X0185629Y0051354D01*
X0186022Y0051703D02*
X0183431Y0049400D01*
X0184356Y0051703D02*
X0186022Y0051703D01*
X0184356Y0051703D02*
X0182056Y0054003D01*
X0171761Y0057748D02*
X0163788Y0057748D01*
X0164058Y0059346D02*
X0170162Y0059346D01*
X0168564Y0060945D02*
X0164058Y0060945D01*
X0164058Y0062543D02*
X0166965Y0062543D01*
X0165367Y0064142D02*
X0164058Y0064142D01*
X0159296Y0068847D02*
X0151343Y0076800D01*
X0151343Y0086800D01*
X0156800Y0092257D01*
X0156800Y0105800D01*
X0159343Y0107343D01*
X0161800Y0100257D02*
X0161800Y0086343D01*
X0161800Y0079257D02*
X0161800Y0074800D01*
X0147369Y0078529D02*
X0136620Y0078529D01*
X0138218Y0080127D02*
X0147570Y0080127D01*
X0148143Y0081726D02*
X0139817Y0081726D01*
X0115694Y0086521D02*
X0112324Y0086521D01*
X0112324Y0084923D02*
X0114920Y0084923D01*
X0114920Y0083324D02*
X0112324Y0083324D01*
X0112324Y0081726D02*
X0114076Y0081726D01*
X0115694Y0088120D02*
X0111398Y0088120D01*
X0115232Y0089718D02*
X0096276Y0089718D01*
X0096276Y0091317D02*
X0114920Y0091317D01*
X0114920Y0092915D02*
X0096276Y0092915D01*
X0096276Y0094514D02*
X0115521Y0094514D01*
X0129215Y0107302D02*
X0132306Y0107302D01*
X0126800Y0110800D02*
X0140265Y0110800D01*
X0094800Y0109800D02*
X0093076Y0106076D01*
X0093076Y0083700D01*
X0082800Y0128800D02*
X0077800Y0133800D01*
X0034255Y0059346D02*
X0031043Y0059346D01*
X0031043Y0057748D02*
X0033081Y0057748D01*
X0032500Y0056149D02*
X0031043Y0056149D01*
X0030662Y0054551D02*
X0032600Y0054551D01*
X0035800Y0055800D02*
X0035800Y0052544D01*
X0158657Y0038566D02*
X0194200Y0038566D01*
X0194200Y0040164D02*
X0160255Y0040164D01*
X0161854Y0041763D02*
X0194200Y0041763D01*
X0194200Y0043361D02*
X0187475Y0043361D01*
X0189273Y0044960D02*
X0194200Y0044960D01*
X0194200Y0046558D02*
X0191072Y0046558D01*
X0192870Y0048157D02*
X0194200Y0048157D01*
X0193061Y0036967D02*
X0192133Y0036967D01*
X0185467Y0036967D02*
X0162133Y0036967D01*
X0163732Y0035369D02*
X0183868Y0035369D01*
X0182270Y0033770D02*
X0165330Y0033770D01*
X0166225Y0032172D02*
X0181375Y0032172D01*
X0181375Y0030573D02*
X0166225Y0030573D01*
X0166225Y0028975D02*
X0181375Y0028975D01*
X0181375Y0027376D02*
X0166225Y0027376D01*
X0165278Y0025778D02*
X0182322Y0025778D01*
X0183920Y0024179D02*
X0163680Y0024179D01*
X0162081Y0022581D02*
X0185519Y0022581D01*
X0192081Y0022581D02*
X0198400Y0022581D01*
X0198400Y0024179D02*
X0193680Y0024179D01*
X0195278Y0025778D02*
X0198400Y0025778D01*
X0198400Y0027376D02*
X0196225Y0027376D01*
X0196225Y0028975D02*
X0198400Y0028975D01*
X0198400Y0030573D02*
X0196450Y0030573D01*
D32*
X0160800Y0073800D03*
X0135800Y0043800D03*
X0135800Y0037800D03*
X0114800Y0035800D03*
X0114800Y0047800D03*
X0099800Y0055800D03*
X0091800Y0057800D03*
X0087800Y0060800D03*
X0081800Y0049800D03*
X0088800Y0043800D03*
X0099800Y0035800D03*
X0104800Y0016800D03*
X0074800Y0059800D03*
X0092800Y0074800D03*
X0087800Y0076800D03*
X0098800Y0074800D03*
X0103800Y0074800D03*
X0108800Y0075800D03*
X0094800Y0109800D03*
X0090800Y0117800D03*
X0086800Y0125800D03*
X0078800Y0125800D03*
X0078800Y0117800D03*
X0078800Y0109800D03*
X0115300Y0112300D03*
X0126800Y0110800D03*
D33*
X0043800Y0144800D02*
X0041800Y0144800D01*
X0014800Y0098800D02*
X0014800Y0097800D01*
D34*
X0008800Y0086800D02*
X0008800Y0123800D01*
X0018800Y0135800D01*
X0034800Y0097800D02*
X0048343Y0097800D01*
X0050800Y0099257D01*
X0051800Y0098257D02*
X0051800Y0087800D01*
X0064800Y0087800D01*
X0072469Y0080131D01*
X0072469Y0074674D01*
X0080900Y0074674D01*
X0060847Y0057296D02*
X0066800Y0051343D01*
X0071800Y0047343D01*
X0071800Y0038800D01*
X0063800Y0030800D01*
X0063800Y0026800D01*
X0063800Y0013800D01*
X0060847Y0057296D02*
X0054800Y0057296D01*
X0042800Y0057296D01*
X0037296Y0057296D01*
X0012894Y0063800D02*
X0012894Y0045391D01*
X0012304Y0044800D01*
X0011894Y0045391D01*
X0012894Y0063800D02*
X0011894Y0070894D01*
X0023800Y0082800D01*
X0032800Y0082800D01*
X0037800Y0087800D01*
X0045800Y0087800D01*
X0051800Y0087800D02*
X0051800Y0081800D01*
X0049800Y0079800D01*
X0043800Y0079800D01*
X0036800Y0079800D01*
X0035961Y0078961D01*
X0012800Y0082800D02*
X0008800Y0086800D01*
X0114700Y0071524D02*
X0125532Y0071524D01*
X0126257Y0070800D02*
X0126257Y0062800D01*
X0123831Y0065225D01*
X0114700Y0065225D01*
X0126257Y0073257D02*
X0139800Y0086800D01*
X0144257Y0086800D01*
X0153800Y0096343D01*
X0153800Y0111800D01*
X0168257Y0126257D01*
X0168257Y0141800D01*
X0159304Y0150753D01*
X0159304Y0153800D01*
X0154745Y0157359D01*
X0142580Y0157359D01*
X0168800Y0126800D02*
X0186800Y0126800D01*
X0193800Y0120800D01*
X0193800Y0053800D01*
X0184800Y0045800D01*
X0160800Y0045800D01*
X0144800Y0029800D01*
X0144800Y0026800D01*
X0144800Y0013800D01*
X0188800Y0029800D02*
X0197800Y0035800D01*
X0197800Y0128800D01*
X0188800Y0134800D01*
X0186800Y0107997D02*
X0160454Y0107997D01*
X0160800Y0073800D02*
X0176997Y0057603D01*
X0186800Y0057603D01*
D35*
X0043800Y0058296D02*
X0043800Y0075379D01*
X0043800Y0079800D01*
X0035961Y0078961D02*
X0035961Y0075217D01*
X0038520Y0071520D02*
X0036800Y0069800D01*
X0030706Y0069800D01*
X0024706Y0063800D01*
X0035800Y0055800D02*
X0037296Y0057296D01*
M02*
