G75*
%MOIN*%
%OFA0B0*%
%FSLAX25Y25*%
%IPPOS*%
%LPD*%
%AMOC8*
5,1,8,0,0,1.08239X$1,22.5*
%
%ADD10C,0.00000*%
%ADD11C,0.01200*%
%ADD12R,0.15748X0.05512*%
%ADD13R,0.04724X0.09843*%
%ADD14R,0.09843X0.04724*%
%ADD15R,0.07874X0.15748*%
%ADD16R,0.01575X0.03543*%
%ADD17R,0.04724X0.03150*%
%ADD18R,0.03150X0.04724*%
%ADD19OC8,0.06000*%
%ADD20R,0.04600X0.06300*%
%ADD21OC8,0.10950*%
%ADD22R,0.01575X0.06299*%
%ADD23R,0.03150X0.01969*%
%ADD24OC8,0.07400*%
%ADD25C,0.02362*%
%ADD26OC8,0.07000*%
%ADD27R,0.05000X0.02200*%
%ADD28R,0.02200X0.05000*%
%ADD29C,0.01181*%
%ADD30C,0.01600*%
%ADD31C,0.03200*%
%ADD32OC8,0.03562*%
%ADD33C,0.02400*%
%ADD34C,0.01800*%
%ADD35C,0.05000*%
D10*
X0004288Y0009800D02*
X0004290Y0009948D01*
X0004296Y0010096D01*
X0004306Y0010244D01*
X0004320Y0010391D01*
X0004338Y0010538D01*
X0004359Y0010684D01*
X0004385Y0010830D01*
X0004415Y0010975D01*
X0004448Y0011119D01*
X0004486Y0011262D01*
X0004527Y0011404D01*
X0004572Y0011545D01*
X0004620Y0011685D01*
X0004673Y0011824D01*
X0004729Y0011961D01*
X0004789Y0012096D01*
X0004852Y0012230D01*
X0004919Y0012362D01*
X0004990Y0012492D01*
X0005064Y0012620D01*
X0005141Y0012746D01*
X0005222Y0012870D01*
X0005306Y0012992D01*
X0005393Y0013111D01*
X0005484Y0013228D01*
X0005578Y0013343D01*
X0005674Y0013455D01*
X0005774Y0013565D01*
X0005876Y0013671D01*
X0005982Y0013775D01*
X0006090Y0013876D01*
X0006201Y0013974D01*
X0006314Y0014070D01*
X0006430Y0014162D01*
X0006548Y0014251D01*
X0006669Y0014336D01*
X0006792Y0014419D01*
X0006917Y0014498D01*
X0007044Y0014574D01*
X0007173Y0014646D01*
X0007304Y0014715D01*
X0007437Y0014780D01*
X0007572Y0014841D01*
X0007708Y0014899D01*
X0007845Y0014954D01*
X0007984Y0015004D01*
X0008125Y0015051D01*
X0008266Y0015094D01*
X0008409Y0015134D01*
X0008553Y0015169D01*
X0008697Y0015201D01*
X0008843Y0015228D01*
X0008989Y0015252D01*
X0009136Y0015272D01*
X0009283Y0015288D01*
X0009430Y0015300D01*
X0009578Y0015308D01*
X0009726Y0015312D01*
X0009874Y0015312D01*
X0010022Y0015308D01*
X0010170Y0015300D01*
X0010317Y0015288D01*
X0010464Y0015272D01*
X0010611Y0015252D01*
X0010757Y0015228D01*
X0010903Y0015201D01*
X0011047Y0015169D01*
X0011191Y0015134D01*
X0011334Y0015094D01*
X0011475Y0015051D01*
X0011616Y0015004D01*
X0011755Y0014954D01*
X0011892Y0014899D01*
X0012028Y0014841D01*
X0012163Y0014780D01*
X0012296Y0014715D01*
X0012427Y0014646D01*
X0012556Y0014574D01*
X0012683Y0014498D01*
X0012808Y0014419D01*
X0012931Y0014336D01*
X0013052Y0014251D01*
X0013170Y0014162D01*
X0013286Y0014070D01*
X0013399Y0013974D01*
X0013510Y0013876D01*
X0013618Y0013775D01*
X0013724Y0013671D01*
X0013826Y0013565D01*
X0013926Y0013455D01*
X0014022Y0013343D01*
X0014116Y0013228D01*
X0014207Y0013111D01*
X0014294Y0012992D01*
X0014378Y0012870D01*
X0014459Y0012746D01*
X0014536Y0012620D01*
X0014610Y0012492D01*
X0014681Y0012362D01*
X0014748Y0012230D01*
X0014811Y0012096D01*
X0014871Y0011961D01*
X0014927Y0011824D01*
X0014980Y0011685D01*
X0015028Y0011545D01*
X0015073Y0011404D01*
X0015114Y0011262D01*
X0015152Y0011119D01*
X0015185Y0010975D01*
X0015215Y0010830D01*
X0015241Y0010684D01*
X0015262Y0010538D01*
X0015280Y0010391D01*
X0015294Y0010244D01*
X0015304Y0010096D01*
X0015310Y0009948D01*
X0015312Y0009800D01*
X0015310Y0009652D01*
X0015304Y0009504D01*
X0015294Y0009356D01*
X0015280Y0009209D01*
X0015262Y0009062D01*
X0015241Y0008916D01*
X0015215Y0008770D01*
X0015185Y0008625D01*
X0015152Y0008481D01*
X0015114Y0008338D01*
X0015073Y0008196D01*
X0015028Y0008055D01*
X0014980Y0007915D01*
X0014927Y0007776D01*
X0014871Y0007639D01*
X0014811Y0007504D01*
X0014748Y0007370D01*
X0014681Y0007238D01*
X0014610Y0007108D01*
X0014536Y0006980D01*
X0014459Y0006854D01*
X0014378Y0006730D01*
X0014294Y0006608D01*
X0014207Y0006489D01*
X0014116Y0006372D01*
X0014022Y0006257D01*
X0013926Y0006145D01*
X0013826Y0006035D01*
X0013724Y0005929D01*
X0013618Y0005825D01*
X0013510Y0005724D01*
X0013399Y0005626D01*
X0013286Y0005530D01*
X0013170Y0005438D01*
X0013052Y0005349D01*
X0012931Y0005264D01*
X0012808Y0005181D01*
X0012683Y0005102D01*
X0012556Y0005026D01*
X0012427Y0004954D01*
X0012296Y0004885D01*
X0012163Y0004820D01*
X0012028Y0004759D01*
X0011892Y0004701D01*
X0011755Y0004646D01*
X0011616Y0004596D01*
X0011475Y0004549D01*
X0011334Y0004506D01*
X0011191Y0004466D01*
X0011047Y0004431D01*
X0010903Y0004399D01*
X0010757Y0004372D01*
X0010611Y0004348D01*
X0010464Y0004328D01*
X0010317Y0004312D01*
X0010170Y0004300D01*
X0010022Y0004292D01*
X0009874Y0004288D01*
X0009726Y0004288D01*
X0009578Y0004292D01*
X0009430Y0004300D01*
X0009283Y0004312D01*
X0009136Y0004328D01*
X0008989Y0004348D01*
X0008843Y0004372D01*
X0008697Y0004399D01*
X0008553Y0004431D01*
X0008409Y0004466D01*
X0008266Y0004506D01*
X0008125Y0004549D01*
X0007984Y0004596D01*
X0007845Y0004646D01*
X0007708Y0004701D01*
X0007572Y0004759D01*
X0007437Y0004820D01*
X0007304Y0004885D01*
X0007173Y0004954D01*
X0007044Y0005026D01*
X0006917Y0005102D01*
X0006792Y0005181D01*
X0006669Y0005264D01*
X0006548Y0005349D01*
X0006430Y0005438D01*
X0006314Y0005530D01*
X0006201Y0005626D01*
X0006090Y0005724D01*
X0005982Y0005825D01*
X0005876Y0005929D01*
X0005774Y0006035D01*
X0005674Y0006145D01*
X0005578Y0006257D01*
X0005484Y0006372D01*
X0005393Y0006489D01*
X0005306Y0006608D01*
X0005222Y0006730D01*
X0005141Y0006854D01*
X0005064Y0006980D01*
X0004990Y0007108D01*
X0004919Y0007238D01*
X0004852Y0007370D01*
X0004789Y0007504D01*
X0004729Y0007639D01*
X0004673Y0007776D01*
X0004620Y0007915D01*
X0004572Y0008055D01*
X0004527Y0008196D01*
X0004486Y0008338D01*
X0004448Y0008481D01*
X0004415Y0008625D01*
X0004385Y0008770D01*
X0004359Y0008916D01*
X0004338Y0009062D01*
X0004320Y0009209D01*
X0004306Y0009356D01*
X0004296Y0009504D01*
X0004290Y0009652D01*
X0004288Y0009800D01*
X0004288Y0157800D02*
X0004290Y0157948D01*
X0004296Y0158096D01*
X0004306Y0158244D01*
X0004320Y0158391D01*
X0004338Y0158538D01*
X0004359Y0158684D01*
X0004385Y0158830D01*
X0004415Y0158975D01*
X0004448Y0159119D01*
X0004486Y0159262D01*
X0004527Y0159404D01*
X0004572Y0159545D01*
X0004620Y0159685D01*
X0004673Y0159824D01*
X0004729Y0159961D01*
X0004789Y0160096D01*
X0004852Y0160230D01*
X0004919Y0160362D01*
X0004990Y0160492D01*
X0005064Y0160620D01*
X0005141Y0160746D01*
X0005222Y0160870D01*
X0005306Y0160992D01*
X0005393Y0161111D01*
X0005484Y0161228D01*
X0005578Y0161343D01*
X0005674Y0161455D01*
X0005774Y0161565D01*
X0005876Y0161671D01*
X0005982Y0161775D01*
X0006090Y0161876D01*
X0006201Y0161974D01*
X0006314Y0162070D01*
X0006430Y0162162D01*
X0006548Y0162251D01*
X0006669Y0162336D01*
X0006792Y0162419D01*
X0006917Y0162498D01*
X0007044Y0162574D01*
X0007173Y0162646D01*
X0007304Y0162715D01*
X0007437Y0162780D01*
X0007572Y0162841D01*
X0007708Y0162899D01*
X0007845Y0162954D01*
X0007984Y0163004D01*
X0008125Y0163051D01*
X0008266Y0163094D01*
X0008409Y0163134D01*
X0008553Y0163169D01*
X0008697Y0163201D01*
X0008843Y0163228D01*
X0008989Y0163252D01*
X0009136Y0163272D01*
X0009283Y0163288D01*
X0009430Y0163300D01*
X0009578Y0163308D01*
X0009726Y0163312D01*
X0009874Y0163312D01*
X0010022Y0163308D01*
X0010170Y0163300D01*
X0010317Y0163288D01*
X0010464Y0163272D01*
X0010611Y0163252D01*
X0010757Y0163228D01*
X0010903Y0163201D01*
X0011047Y0163169D01*
X0011191Y0163134D01*
X0011334Y0163094D01*
X0011475Y0163051D01*
X0011616Y0163004D01*
X0011755Y0162954D01*
X0011892Y0162899D01*
X0012028Y0162841D01*
X0012163Y0162780D01*
X0012296Y0162715D01*
X0012427Y0162646D01*
X0012556Y0162574D01*
X0012683Y0162498D01*
X0012808Y0162419D01*
X0012931Y0162336D01*
X0013052Y0162251D01*
X0013170Y0162162D01*
X0013286Y0162070D01*
X0013399Y0161974D01*
X0013510Y0161876D01*
X0013618Y0161775D01*
X0013724Y0161671D01*
X0013826Y0161565D01*
X0013926Y0161455D01*
X0014022Y0161343D01*
X0014116Y0161228D01*
X0014207Y0161111D01*
X0014294Y0160992D01*
X0014378Y0160870D01*
X0014459Y0160746D01*
X0014536Y0160620D01*
X0014610Y0160492D01*
X0014681Y0160362D01*
X0014748Y0160230D01*
X0014811Y0160096D01*
X0014871Y0159961D01*
X0014927Y0159824D01*
X0014980Y0159685D01*
X0015028Y0159545D01*
X0015073Y0159404D01*
X0015114Y0159262D01*
X0015152Y0159119D01*
X0015185Y0158975D01*
X0015215Y0158830D01*
X0015241Y0158684D01*
X0015262Y0158538D01*
X0015280Y0158391D01*
X0015294Y0158244D01*
X0015304Y0158096D01*
X0015310Y0157948D01*
X0015312Y0157800D01*
X0015310Y0157652D01*
X0015304Y0157504D01*
X0015294Y0157356D01*
X0015280Y0157209D01*
X0015262Y0157062D01*
X0015241Y0156916D01*
X0015215Y0156770D01*
X0015185Y0156625D01*
X0015152Y0156481D01*
X0015114Y0156338D01*
X0015073Y0156196D01*
X0015028Y0156055D01*
X0014980Y0155915D01*
X0014927Y0155776D01*
X0014871Y0155639D01*
X0014811Y0155504D01*
X0014748Y0155370D01*
X0014681Y0155238D01*
X0014610Y0155108D01*
X0014536Y0154980D01*
X0014459Y0154854D01*
X0014378Y0154730D01*
X0014294Y0154608D01*
X0014207Y0154489D01*
X0014116Y0154372D01*
X0014022Y0154257D01*
X0013926Y0154145D01*
X0013826Y0154035D01*
X0013724Y0153929D01*
X0013618Y0153825D01*
X0013510Y0153724D01*
X0013399Y0153626D01*
X0013286Y0153530D01*
X0013170Y0153438D01*
X0013052Y0153349D01*
X0012931Y0153264D01*
X0012808Y0153181D01*
X0012683Y0153102D01*
X0012556Y0153026D01*
X0012427Y0152954D01*
X0012296Y0152885D01*
X0012163Y0152820D01*
X0012028Y0152759D01*
X0011892Y0152701D01*
X0011755Y0152646D01*
X0011616Y0152596D01*
X0011475Y0152549D01*
X0011334Y0152506D01*
X0011191Y0152466D01*
X0011047Y0152431D01*
X0010903Y0152399D01*
X0010757Y0152372D01*
X0010611Y0152348D01*
X0010464Y0152328D01*
X0010317Y0152312D01*
X0010170Y0152300D01*
X0010022Y0152292D01*
X0009874Y0152288D01*
X0009726Y0152288D01*
X0009578Y0152292D01*
X0009430Y0152300D01*
X0009283Y0152312D01*
X0009136Y0152328D01*
X0008989Y0152348D01*
X0008843Y0152372D01*
X0008697Y0152399D01*
X0008553Y0152431D01*
X0008409Y0152466D01*
X0008266Y0152506D01*
X0008125Y0152549D01*
X0007984Y0152596D01*
X0007845Y0152646D01*
X0007708Y0152701D01*
X0007572Y0152759D01*
X0007437Y0152820D01*
X0007304Y0152885D01*
X0007173Y0152954D01*
X0007044Y0153026D01*
X0006917Y0153102D01*
X0006792Y0153181D01*
X0006669Y0153264D01*
X0006548Y0153349D01*
X0006430Y0153438D01*
X0006314Y0153530D01*
X0006201Y0153626D01*
X0006090Y0153724D01*
X0005982Y0153825D01*
X0005876Y0153929D01*
X0005774Y0154035D01*
X0005674Y0154145D01*
X0005578Y0154257D01*
X0005484Y0154372D01*
X0005393Y0154489D01*
X0005306Y0154608D01*
X0005222Y0154730D01*
X0005141Y0154854D01*
X0005064Y0154980D01*
X0004990Y0155108D01*
X0004919Y0155238D01*
X0004852Y0155370D01*
X0004789Y0155504D01*
X0004729Y0155639D01*
X0004673Y0155776D01*
X0004620Y0155915D01*
X0004572Y0156055D01*
X0004527Y0156196D01*
X0004486Y0156338D01*
X0004448Y0156481D01*
X0004415Y0156625D01*
X0004385Y0156770D01*
X0004359Y0156916D01*
X0004338Y0157062D01*
X0004320Y0157209D01*
X0004306Y0157356D01*
X0004296Y0157504D01*
X0004290Y0157652D01*
X0004288Y0157800D01*
X0246288Y0157800D02*
X0246290Y0157948D01*
X0246296Y0158096D01*
X0246306Y0158244D01*
X0246320Y0158391D01*
X0246338Y0158538D01*
X0246359Y0158684D01*
X0246385Y0158830D01*
X0246415Y0158975D01*
X0246448Y0159119D01*
X0246486Y0159262D01*
X0246527Y0159404D01*
X0246572Y0159545D01*
X0246620Y0159685D01*
X0246673Y0159824D01*
X0246729Y0159961D01*
X0246789Y0160096D01*
X0246852Y0160230D01*
X0246919Y0160362D01*
X0246990Y0160492D01*
X0247064Y0160620D01*
X0247141Y0160746D01*
X0247222Y0160870D01*
X0247306Y0160992D01*
X0247393Y0161111D01*
X0247484Y0161228D01*
X0247578Y0161343D01*
X0247674Y0161455D01*
X0247774Y0161565D01*
X0247876Y0161671D01*
X0247982Y0161775D01*
X0248090Y0161876D01*
X0248201Y0161974D01*
X0248314Y0162070D01*
X0248430Y0162162D01*
X0248548Y0162251D01*
X0248669Y0162336D01*
X0248792Y0162419D01*
X0248917Y0162498D01*
X0249044Y0162574D01*
X0249173Y0162646D01*
X0249304Y0162715D01*
X0249437Y0162780D01*
X0249572Y0162841D01*
X0249708Y0162899D01*
X0249845Y0162954D01*
X0249984Y0163004D01*
X0250125Y0163051D01*
X0250266Y0163094D01*
X0250409Y0163134D01*
X0250553Y0163169D01*
X0250697Y0163201D01*
X0250843Y0163228D01*
X0250989Y0163252D01*
X0251136Y0163272D01*
X0251283Y0163288D01*
X0251430Y0163300D01*
X0251578Y0163308D01*
X0251726Y0163312D01*
X0251874Y0163312D01*
X0252022Y0163308D01*
X0252170Y0163300D01*
X0252317Y0163288D01*
X0252464Y0163272D01*
X0252611Y0163252D01*
X0252757Y0163228D01*
X0252903Y0163201D01*
X0253047Y0163169D01*
X0253191Y0163134D01*
X0253334Y0163094D01*
X0253475Y0163051D01*
X0253616Y0163004D01*
X0253755Y0162954D01*
X0253892Y0162899D01*
X0254028Y0162841D01*
X0254163Y0162780D01*
X0254296Y0162715D01*
X0254427Y0162646D01*
X0254556Y0162574D01*
X0254683Y0162498D01*
X0254808Y0162419D01*
X0254931Y0162336D01*
X0255052Y0162251D01*
X0255170Y0162162D01*
X0255286Y0162070D01*
X0255399Y0161974D01*
X0255510Y0161876D01*
X0255618Y0161775D01*
X0255724Y0161671D01*
X0255826Y0161565D01*
X0255926Y0161455D01*
X0256022Y0161343D01*
X0256116Y0161228D01*
X0256207Y0161111D01*
X0256294Y0160992D01*
X0256378Y0160870D01*
X0256459Y0160746D01*
X0256536Y0160620D01*
X0256610Y0160492D01*
X0256681Y0160362D01*
X0256748Y0160230D01*
X0256811Y0160096D01*
X0256871Y0159961D01*
X0256927Y0159824D01*
X0256980Y0159685D01*
X0257028Y0159545D01*
X0257073Y0159404D01*
X0257114Y0159262D01*
X0257152Y0159119D01*
X0257185Y0158975D01*
X0257215Y0158830D01*
X0257241Y0158684D01*
X0257262Y0158538D01*
X0257280Y0158391D01*
X0257294Y0158244D01*
X0257304Y0158096D01*
X0257310Y0157948D01*
X0257312Y0157800D01*
X0257310Y0157652D01*
X0257304Y0157504D01*
X0257294Y0157356D01*
X0257280Y0157209D01*
X0257262Y0157062D01*
X0257241Y0156916D01*
X0257215Y0156770D01*
X0257185Y0156625D01*
X0257152Y0156481D01*
X0257114Y0156338D01*
X0257073Y0156196D01*
X0257028Y0156055D01*
X0256980Y0155915D01*
X0256927Y0155776D01*
X0256871Y0155639D01*
X0256811Y0155504D01*
X0256748Y0155370D01*
X0256681Y0155238D01*
X0256610Y0155108D01*
X0256536Y0154980D01*
X0256459Y0154854D01*
X0256378Y0154730D01*
X0256294Y0154608D01*
X0256207Y0154489D01*
X0256116Y0154372D01*
X0256022Y0154257D01*
X0255926Y0154145D01*
X0255826Y0154035D01*
X0255724Y0153929D01*
X0255618Y0153825D01*
X0255510Y0153724D01*
X0255399Y0153626D01*
X0255286Y0153530D01*
X0255170Y0153438D01*
X0255052Y0153349D01*
X0254931Y0153264D01*
X0254808Y0153181D01*
X0254683Y0153102D01*
X0254556Y0153026D01*
X0254427Y0152954D01*
X0254296Y0152885D01*
X0254163Y0152820D01*
X0254028Y0152759D01*
X0253892Y0152701D01*
X0253755Y0152646D01*
X0253616Y0152596D01*
X0253475Y0152549D01*
X0253334Y0152506D01*
X0253191Y0152466D01*
X0253047Y0152431D01*
X0252903Y0152399D01*
X0252757Y0152372D01*
X0252611Y0152348D01*
X0252464Y0152328D01*
X0252317Y0152312D01*
X0252170Y0152300D01*
X0252022Y0152292D01*
X0251874Y0152288D01*
X0251726Y0152288D01*
X0251578Y0152292D01*
X0251430Y0152300D01*
X0251283Y0152312D01*
X0251136Y0152328D01*
X0250989Y0152348D01*
X0250843Y0152372D01*
X0250697Y0152399D01*
X0250553Y0152431D01*
X0250409Y0152466D01*
X0250266Y0152506D01*
X0250125Y0152549D01*
X0249984Y0152596D01*
X0249845Y0152646D01*
X0249708Y0152701D01*
X0249572Y0152759D01*
X0249437Y0152820D01*
X0249304Y0152885D01*
X0249173Y0152954D01*
X0249044Y0153026D01*
X0248917Y0153102D01*
X0248792Y0153181D01*
X0248669Y0153264D01*
X0248548Y0153349D01*
X0248430Y0153438D01*
X0248314Y0153530D01*
X0248201Y0153626D01*
X0248090Y0153724D01*
X0247982Y0153825D01*
X0247876Y0153929D01*
X0247774Y0154035D01*
X0247674Y0154145D01*
X0247578Y0154257D01*
X0247484Y0154372D01*
X0247393Y0154489D01*
X0247306Y0154608D01*
X0247222Y0154730D01*
X0247141Y0154854D01*
X0247064Y0154980D01*
X0246990Y0155108D01*
X0246919Y0155238D01*
X0246852Y0155370D01*
X0246789Y0155504D01*
X0246729Y0155639D01*
X0246673Y0155776D01*
X0246620Y0155915D01*
X0246572Y0156055D01*
X0246527Y0156196D01*
X0246486Y0156338D01*
X0246448Y0156481D01*
X0246415Y0156625D01*
X0246385Y0156770D01*
X0246359Y0156916D01*
X0246338Y0157062D01*
X0246320Y0157209D01*
X0246306Y0157356D01*
X0246296Y0157504D01*
X0246290Y0157652D01*
X0246288Y0157800D01*
X0246288Y0009800D02*
X0246290Y0009948D01*
X0246296Y0010096D01*
X0246306Y0010244D01*
X0246320Y0010391D01*
X0246338Y0010538D01*
X0246359Y0010684D01*
X0246385Y0010830D01*
X0246415Y0010975D01*
X0246448Y0011119D01*
X0246486Y0011262D01*
X0246527Y0011404D01*
X0246572Y0011545D01*
X0246620Y0011685D01*
X0246673Y0011824D01*
X0246729Y0011961D01*
X0246789Y0012096D01*
X0246852Y0012230D01*
X0246919Y0012362D01*
X0246990Y0012492D01*
X0247064Y0012620D01*
X0247141Y0012746D01*
X0247222Y0012870D01*
X0247306Y0012992D01*
X0247393Y0013111D01*
X0247484Y0013228D01*
X0247578Y0013343D01*
X0247674Y0013455D01*
X0247774Y0013565D01*
X0247876Y0013671D01*
X0247982Y0013775D01*
X0248090Y0013876D01*
X0248201Y0013974D01*
X0248314Y0014070D01*
X0248430Y0014162D01*
X0248548Y0014251D01*
X0248669Y0014336D01*
X0248792Y0014419D01*
X0248917Y0014498D01*
X0249044Y0014574D01*
X0249173Y0014646D01*
X0249304Y0014715D01*
X0249437Y0014780D01*
X0249572Y0014841D01*
X0249708Y0014899D01*
X0249845Y0014954D01*
X0249984Y0015004D01*
X0250125Y0015051D01*
X0250266Y0015094D01*
X0250409Y0015134D01*
X0250553Y0015169D01*
X0250697Y0015201D01*
X0250843Y0015228D01*
X0250989Y0015252D01*
X0251136Y0015272D01*
X0251283Y0015288D01*
X0251430Y0015300D01*
X0251578Y0015308D01*
X0251726Y0015312D01*
X0251874Y0015312D01*
X0252022Y0015308D01*
X0252170Y0015300D01*
X0252317Y0015288D01*
X0252464Y0015272D01*
X0252611Y0015252D01*
X0252757Y0015228D01*
X0252903Y0015201D01*
X0253047Y0015169D01*
X0253191Y0015134D01*
X0253334Y0015094D01*
X0253475Y0015051D01*
X0253616Y0015004D01*
X0253755Y0014954D01*
X0253892Y0014899D01*
X0254028Y0014841D01*
X0254163Y0014780D01*
X0254296Y0014715D01*
X0254427Y0014646D01*
X0254556Y0014574D01*
X0254683Y0014498D01*
X0254808Y0014419D01*
X0254931Y0014336D01*
X0255052Y0014251D01*
X0255170Y0014162D01*
X0255286Y0014070D01*
X0255399Y0013974D01*
X0255510Y0013876D01*
X0255618Y0013775D01*
X0255724Y0013671D01*
X0255826Y0013565D01*
X0255926Y0013455D01*
X0256022Y0013343D01*
X0256116Y0013228D01*
X0256207Y0013111D01*
X0256294Y0012992D01*
X0256378Y0012870D01*
X0256459Y0012746D01*
X0256536Y0012620D01*
X0256610Y0012492D01*
X0256681Y0012362D01*
X0256748Y0012230D01*
X0256811Y0012096D01*
X0256871Y0011961D01*
X0256927Y0011824D01*
X0256980Y0011685D01*
X0257028Y0011545D01*
X0257073Y0011404D01*
X0257114Y0011262D01*
X0257152Y0011119D01*
X0257185Y0010975D01*
X0257215Y0010830D01*
X0257241Y0010684D01*
X0257262Y0010538D01*
X0257280Y0010391D01*
X0257294Y0010244D01*
X0257304Y0010096D01*
X0257310Y0009948D01*
X0257312Y0009800D01*
X0257310Y0009652D01*
X0257304Y0009504D01*
X0257294Y0009356D01*
X0257280Y0009209D01*
X0257262Y0009062D01*
X0257241Y0008916D01*
X0257215Y0008770D01*
X0257185Y0008625D01*
X0257152Y0008481D01*
X0257114Y0008338D01*
X0257073Y0008196D01*
X0257028Y0008055D01*
X0256980Y0007915D01*
X0256927Y0007776D01*
X0256871Y0007639D01*
X0256811Y0007504D01*
X0256748Y0007370D01*
X0256681Y0007238D01*
X0256610Y0007108D01*
X0256536Y0006980D01*
X0256459Y0006854D01*
X0256378Y0006730D01*
X0256294Y0006608D01*
X0256207Y0006489D01*
X0256116Y0006372D01*
X0256022Y0006257D01*
X0255926Y0006145D01*
X0255826Y0006035D01*
X0255724Y0005929D01*
X0255618Y0005825D01*
X0255510Y0005724D01*
X0255399Y0005626D01*
X0255286Y0005530D01*
X0255170Y0005438D01*
X0255052Y0005349D01*
X0254931Y0005264D01*
X0254808Y0005181D01*
X0254683Y0005102D01*
X0254556Y0005026D01*
X0254427Y0004954D01*
X0254296Y0004885D01*
X0254163Y0004820D01*
X0254028Y0004759D01*
X0253892Y0004701D01*
X0253755Y0004646D01*
X0253616Y0004596D01*
X0253475Y0004549D01*
X0253334Y0004506D01*
X0253191Y0004466D01*
X0253047Y0004431D01*
X0252903Y0004399D01*
X0252757Y0004372D01*
X0252611Y0004348D01*
X0252464Y0004328D01*
X0252317Y0004312D01*
X0252170Y0004300D01*
X0252022Y0004292D01*
X0251874Y0004288D01*
X0251726Y0004288D01*
X0251578Y0004292D01*
X0251430Y0004300D01*
X0251283Y0004312D01*
X0251136Y0004328D01*
X0250989Y0004348D01*
X0250843Y0004372D01*
X0250697Y0004399D01*
X0250553Y0004431D01*
X0250409Y0004466D01*
X0250266Y0004506D01*
X0250125Y0004549D01*
X0249984Y0004596D01*
X0249845Y0004646D01*
X0249708Y0004701D01*
X0249572Y0004759D01*
X0249437Y0004820D01*
X0249304Y0004885D01*
X0249173Y0004954D01*
X0249044Y0005026D01*
X0248917Y0005102D01*
X0248792Y0005181D01*
X0248669Y0005264D01*
X0248548Y0005349D01*
X0248430Y0005438D01*
X0248314Y0005530D01*
X0248201Y0005626D01*
X0248090Y0005724D01*
X0247982Y0005825D01*
X0247876Y0005929D01*
X0247774Y0006035D01*
X0247674Y0006145D01*
X0247578Y0006257D01*
X0247484Y0006372D01*
X0247393Y0006489D01*
X0247306Y0006608D01*
X0247222Y0006730D01*
X0247141Y0006854D01*
X0247064Y0006980D01*
X0246990Y0007108D01*
X0246919Y0007238D01*
X0246852Y0007370D01*
X0246789Y0007504D01*
X0246729Y0007639D01*
X0246673Y0007776D01*
X0246620Y0007915D01*
X0246572Y0008055D01*
X0246527Y0008196D01*
X0246486Y0008338D01*
X0246448Y0008481D01*
X0246415Y0008625D01*
X0246385Y0008770D01*
X0246359Y0008916D01*
X0246338Y0009062D01*
X0246320Y0009209D01*
X0246306Y0009356D01*
X0246296Y0009504D01*
X0246290Y0009652D01*
X0246288Y0009800D01*
D11*
X0001800Y0001800D02*
X0001800Y0165501D01*
X0001800Y0165800D02*
X0259800Y0165800D01*
X0259800Y0001800D01*
X0259721Y0001800D02*
X0001800Y0001800D01*
X0073800Y0108800D02*
X0083800Y0103800D01*
X0099831Y0103800D01*
X0100020Y0103989D01*
X0073800Y0108800D02*
X0073800Y0119800D01*
X0068800Y0124800D01*
X0073800Y0129800D02*
X0068800Y0134800D01*
X0073800Y0129800D02*
X0087800Y0129800D01*
X0091800Y0127800D01*
X0099831Y0127800D01*
X0100020Y0127611D01*
D12*
X0100020Y0127611D03*
X0100020Y0135485D03*
X0100020Y0143359D03*
X0100020Y0119737D03*
X0100020Y0111863D03*
X0100020Y0103989D03*
X0100020Y0096115D03*
X0100020Y0088241D03*
X0177580Y0088241D03*
X0177580Y0096115D03*
X0177580Y0103989D03*
X0177580Y0111863D03*
X0177580Y0119737D03*
X0177580Y0127611D03*
X0177580Y0135485D03*
X0177580Y0143359D03*
D13*
X0202304Y0145800D03*
X0215296Y0145800D03*
X0200296Y0067800D03*
X0187304Y0067800D03*
X0037296Y0074800D03*
X0024304Y0074800D03*
D14*
X0072800Y0072296D03*
X0072800Y0059304D03*
D15*
X0035706Y0055800D03*
X0023894Y0055800D03*
D16*
X0050961Y0066383D03*
X0053520Y0066383D03*
X0056080Y0066383D03*
X0058639Y0066383D03*
X0058639Y0089217D03*
X0056080Y0089217D03*
X0053520Y0089217D03*
X0050961Y0089217D03*
D17*
X0085800Y0071343D03*
X0085800Y0064257D03*
X0054800Y0060343D03*
X0054800Y0053257D03*
X0126800Y0019343D03*
X0126800Y0012257D03*
X0172800Y0048257D03*
X0172800Y0055343D03*
X0212800Y0063257D03*
X0212800Y0070343D03*
X0212800Y0089257D03*
X0212800Y0096343D03*
D18*
X0204343Y0094800D03*
X0197257Y0094800D03*
X0197257Y0081800D03*
X0204343Y0081800D03*
X0161343Y0055800D03*
X0154257Y0055800D03*
X0154257Y0046800D03*
X0161343Y0046800D03*
X0099343Y0048800D03*
X0092257Y0048800D03*
X0092257Y0056800D03*
X0099343Y0056800D03*
X0084343Y0097800D03*
X0077257Y0097800D03*
X0206257Y0133800D03*
X0213343Y0133800D03*
D19*
X0182800Y0026800D03*
X0172800Y0026800D03*
X0162800Y0026800D03*
X0152800Y0026800D03*
X0152800Y0015800D03*
X0162800Y0015800D03*
X0172800Y0015800D03*
X0182800Y0015800D03*
X0099800Y0015800D03*
X0089800Y0015800D03*
X0079800Y0015800D03*
X0069800Y0015800D03*
X0069800Y0026800D03*
X0079800Y0026800D03*
X0089800Y0026800D03*
X0099800Y0026800D03*
X0033800Y0090800D03*
X0023800Y0090800D03*
D20*
X0070800Y0086800D03*
X0076800Y0086800D03*
X0189800Y0049800D03*
X0195800Y0049800D03*
X0201800Y0049800D03*
D21*
X0195800Y0034800D03*
X0223800Y0034800D03*
X0223800Y0132800D03*
X0195800Y0132800D03*
X0053800Y0132800D03*
X0025800Y0132800D03*
X0025800Y0034800D03*
X0053800Y0034800D03*
D22*
X0142894Y0071800D03*
X0148800Y0071800D03*
X0154706Y0071800D03*
D23*
X0154706Y0067666D03*
X0148800Y0067666D03*
X0142894Y0067666D03*
X0142894Y0075934D03*
X0148800Y0075934D03*
X0154706Y0075934D03*
D24*
X0078800Y0114800D03*
X0068800Y0114800D03*
X0068800Y0124800D03*
X0078800Y0124800D03*
X0078800Y0134800D03*
X0068800Y0134800D03*
D25*
X0045296Y0153257D02*
X0032304Y0153257D01*
X0032304Y0160343D01*
X0045296Y0160343D01*
X0045296Y0153257D01*
X0045296Y0155618D02*
X0032304Y0155618D01*
X0032304Y0157979D02*
X0045296Y0157979D01*
X0045296Y0160340D02*
X0032304Y0160340D01*
D26*
X0244800Y0109997D03*
X0244800Y0059603D03*
D27*
X0142700Y0056824D03*
X0142700Y0053674D03*
X0142700Y0050524D03*
X0142700Y0047375D03*
X0142700Y0044225D03*
X0142700Y0041076D03*
X0142700Y0037926D03*
X0142700Y0034776D03*
X0108900Y0034776D03*
X0108900Y0037926D03*
X0108900Y0041076D03*
X0108900Y0044225D03*
X0108900Y0047375D03*
X0108900Y0050524D03*
X0108900Y0053674D03*
X0108900Y0056824D03*
D28*
X0114776Y0062700D03*
X0117926Y0062700D03*
X0121076Y0062700D03*
X0124225Y0062700D03*
X0127375Y0062700D03*
X0130524Y0062700D03*
X0133674Y0062700D03*
X0136824Y0062700D03*
X0136824Y0028900D03*
X0133674Y0028900D03*
X0130524Y0028900D03*
X0127375Y0028900D03*
X0124225Y0028900D03*
X0121076Y0028900D03*
X0117926Y0028900D03*
X0114776Y0028900D03*
D29*
X0171422Y0059969D02*
X0174178Y0059969D01*
X0171422Y0059969D02*
X0171422Y0062725D01*
X0174178Y0062725D01*
X0174178Y0059969D01*
X0174178Y0061149D02*
X0171422Y0061149D01*
X0171422Y0062329D02*
X0174178Y0062329D01*
X0174178Y0066875D02*
X0171422Y0066875D01*
X0171422Y0069631D01*
X0174178Y0069631D01*
X0174178Y0066875D01*
X0174178Y0068055D02*
X0171422Y0068055D01*
X0171422Y0069235D02*
X0174178Y0069235D01*
D30*
X0172800Y0068253D02*
X0171253Y0068253D01*
X0161800Y0058800D01*
X0161800Y0056257D01*
X0161343Y0055800D01*
X0161343Y0046800D01*
X0160800Y0046257D01*
X0160800Y0044800D01*
X0172800Y0032800D01*
X0172800Y0026800D01*
X0172800Y0015800D01*
X0168200Y0016187D02*
X0177400Y0016187D01*
X0177400Y0017785D02*
X0168200Y0017785D01*
X0168200Y0018037D02*
X0165037Y0021200D01*
X0161925Y0021200D01*
X0161725Y0021400D01*
X0165037Y0021400D01*
X0168200Y0024563D01*
X0168200Y0029037D01*
X0166000Y0031237D01*
X0166000Y0036437D01*
X0165513Y0037613D01*
X0164613Y0038513D01*
X0162487Y0040639D01*
X0161311Y0041126D01*
X0152562Y0041126D01*
X0153495Y0041512D01*
X0154020Y0042038D01*
X0156309Y0042038D01*
X0157191Y0042403D01*
X0157866Y0043078D01*
X0158231Y0043960D01*
X0158231Y0049640D01*
X0157866Y0050522D01*
X0157457Y0050931D01*
X0157457Y0051669D01*
X0157866Y0052078D01*
X0158231Y0052960D01*
X0158231Y0056706D01*
X0178125Y0076600D01*
X0189504Y0076600D01*
X0189839Y0076538D01*
X0190135Y0076600D01*
X0190437Y0076600D01*
X0190751Y0076730D01*
X0191085Y0076801D01*
X0191334Y0076972D01*
X0191613Y0077087D01*
X0191854Y0077328D01*
X0192135Y0077521D01*
X0192299Y0077774D01*
X0192513Y0077987D01*
X0192643Y0078302D01*
X0199756Y0089231D01*
X0199970Y0089444D01*
X0200100Y0089759D01*
X0200286Y0090045D01*
X0200341Y0090341D01*
X0200457Y0090620D01*
X0200457Y0090669D01*
X0200800Y0091012D01*
X0201143Y0090669D01*
X0201143Y0085931D01*
X0200734Y0085522D01*
X0200369Y0084640D01*
X0200369Y0078960D01*
X0200734Y0078078D01*
X0201143Y0077669D01*
X0201143Y0075121D01*
X0197456Y0075121D01*
X0196574Y0074756D01*
X0195899Y0074081D01*
X0195534Y0073199D01*
X0195534Y0062401D01*
X0195899Y0061519D01*
X0196574Y0060844D01*
X0197456Y0060479D01*
X0203136Y0060479D01*
X0204018Y0060844D01*
X0204693Y0061519D01*
X0205058Y0062401D01*
X0205058Y0068037D01*
X0207056Y0070035D01*
X0207543Y0071211D01*
X0207543Y0077669D01*
X0207953Y0078078D01*
X0208318Y0078960D01*
X0208318Y0084640D01*
X0207953Y0085522D01*
X0207543Y0085931D01*
X0207543Y0090669D01*
X0207953Y0091078D01*
X0208038Y0091284D01*
X0208038Y0087204D01*
X0208403Y0086322D01*
X0209078Y0085647D01*
X0209200Y0085597D01*
X0209200Y0074003D01*
X0209078Y0073953D01*
X0208403Y0073278D01*
X0208038Y0072395D01*
X0208038Y0068291D01*
X0208403Y0067409D01*
X0209012Y0066800D01*
X0208403Y0066191D01*
X0208038Y0065309D01*
X0208038Y0061204D01*
X0208403Y0060322D01*
X0209078Y0059647D01*
X0209960Y0059282D01*
X0215640Y0059282D01*
X0216522Y0059647D01*
X0216531Y0059657D01*
X0238900Y0059657D01*
X0238900Y0057159D01*
X0242356Y0053703D01*
X0247244Y0053703D01*
X0250700Y0057159D01*
X0250700Y0062047D01*
X0247244Y0065503D01*
X0243991Y0065503D01*
X0243186Y0066309D01*
X0241863Y0066857D01*
X0216644Y0066857D01*
X0217197Y0067409D01*
X0217562Y0068291D01*
X0217562Y0072395D01*
X0217197Y0073278D01*
X0216522Y0073953D01*
X0216400Y0074003D01*
X0216400Y0085597D01*
X0216522Y0085647D01*
X0217197Y0086322D01*
X0217562Y0087204D01*
X0217562Y0091309D01*
X0217197Y0092191D01*
X0216588Y0092800D01*
X0217197Y0093409D01*
X0217562Y0094291D01*
X0217562Y0096014D01*
X0227945Y0106397D01*
X0240056Y0106397D01*
X0242356Y0104097D01*
X0247244Y0104097D01*
X0250700Y0107553D01*
X0250700Y0112441D01*
X0247244Y0115897D01*
X0242356Y0115897D01*
X0240056Y0113597D01*
X0225737Y0113597D01*
X0224414Y0113049D01*
X0223402Y0112036D01*
X0211684Y0100318D01*
X0209960Y0100318D01*
X0209078Y0099953D01*
X0208669Y0099543D01*
X0206441Y0099543D01*
X0206395Y0099562D01*
X0202291Y0099562D01*
X0201409Y0099197D01*
X0201000Y0098788D01*
X0201000Y0117475D01*
X0207613Y0124087D01*
X0208513Y0124987D01*
X0209000Y0126163D01*
X0209000Y0129324D01*
X0209191Y0129403D01*
X0209866Y0130078D01*
X0210231Y0130960D01*
X0210231Y0136640D01*
X0209866Y0137522D01*
X0209457Y0137931D01*
X0209457Y0139527D01*
X0209519Y0139838D01*
X0209457Y0140158D01*
X0209457Y0140484D01*
X0209335Y0140776D01*
X0209275Y0141087D01*
X0209094Y0141359D01*
X0208970Y0141660D01*
X0208746Y0141884D01*
X0207066Y0144413D01*
X0207066Y0151199D01*
X0206701Y0152081D01*
X0206026Y0152756D01*
X0205144Y0153121D01*
X0199464Y0153121D01*
X0198582Y0152756D01*
X0197907Y0152081D01*
X0197542Y0151199D01*
X0197542Y0146559D01*
X0187854Y0146559D01*
X0187854Y0146592D01*
X0187488Y0147474D01*
X0186813Y0148150D01*
X0185931Y0148515D01*
X0169228Y0148515D01*
X0168346Y0148150D01*
X0167671Y0147474D01*
X0167306Y0146592D01*
X0167306Y0140126D01*
X0167597Y0139422D01*
X0167306Y0138718D01*
X0167306Y0132252D01*
X0167597Y0131548D01*
X0167306Y0130844D01*
X0167306Y0124378D01*
X0167597Y0123674D01*
X0167306Y0122970D01*
X0167306Y0116504D01*
X0167597Y0115800D01*
X0167306Y0115096D01*
X0167306Y0108630D01*
X0167597Y0107926D01*
X0167306Y0107222D01*
X0167306Y0100756D01*
X0167597Y0100052D01*
X0167306Y0099348D01*
X0167306Y0092882D01*
X0167597Y0092178D01*
X0167306Y0091474D01*
X0167306Y0085008D01*
X0167671Y0084126D01*
X0168346Y0083450D01*
X0169228Y0083085D01*
X0185931Y0083085D01*
X0186813Y0083450D01*
X0187488Y0084126D01*
X0187854Y0085008D01*
X0187854Y0091474D01*
X0187562Y0092178D01*
X0187839Y0092848D01*
X0189068Y0091619D01*
X0192532Y0091619D01*
X0193282Y0092369D01*
X0193282Y0091960D01*
X0193521Y0091383D01*
X0188065Y0083000D01*
X0176163Y0083000D01*
X0174987Y0082513D01*
X0174087Y0081613D01*
X0174087Y0081613D01*
X0158680Y0066206D01*
X0158680Y0069128D01*
X0158315Y0070010D01*
X0158000Y0070325D01*
X0158000Y0072342D01*
X0157893Y0072601D01*
X0157893Y0073168D01*
X0158315Y0073590D01*
X0158680Y0074472D01*
X0158680Y0077395D01*
X0158315Y0078278D01*
X0157640Y0078953D01*
X0156758Y0079318D01*
X0152653Y0079318D01*
X0151771Y0078953D01*
X0151753Y0078934D01*
X0151734Y0078953D01*
X0150852Y0079318D01*
X0146748Y0079318D01*
X0145866Y0078953D01*
X0145847Y0078934D01*
X0145829Y0078953D01*
X0144947Y0079318D01*
X0140842Y0079318D01*
X0140024Y0078979D01*
X0140024Y0084111D01*
X0141981Y0086068D01*
X0141981Y0089532D01*
X0139532Y0091981D01*
X0136068Y0091981D01*
X0133619Y0089532D01*
X0133619Y0086068D01*
X0133624Y0086063D01*
X0133624Y0067600D01*
X0124276Y0067600D01*
X0124276Y0085411D01*
X0126068Y0083619D01*
X0129532Y0083619D01*
X0131981Y0086068D01*
X0131981Y0089532D01*
X0131000Y0090513D01*
X0131000Y0107437D01*
X0130513Y0108613D01*
X0116676Y0122450D01*
X0115500Y0122937D01*
X0110294Y0122937D01*
X0110294Y0122970D01*
X0109929Y0123852D01*
X0109254Y0124528D01*
X0108372Y0124893D01*
X0091669Y0124893D01*
X0090787Y0124528D01*
X0090112Y0123852D01*
X0089759Y0123000D01*
X0088629Y0123000D01*
X0084900Y0125072D01*
X0084900Y0127327D01*
X0082427Y0129800D01*
X0084900Y0132273D01*
X0084900Y0135175D01*
X0087302Y0132772D01*
X0088478Y0132285D01*
X0089746Y0132285D01*
X0089746Y0132252D01*
X0090112Y0131370D01*
X0090787Y0130695D01*
X0091669Y0130329D01*
X0108372Y0130329D01*
X0109254Y0130695D01*
X0109929Y0131370D01*
X0110294Y0132252D01*
X0110294Y0138718D01*
X0109929Y0139600D01*
X0109254Y0140276D01*
X0108372Y0140641D01*
X0091669Y0140641D01*
X0090787Y0140276D01*
X0090112Y0139600D01*
X0089940Y0139185D01*
X0070513Y0158613D01*
X0069613Y0159513D01*
X0068437Y0160000D01*
X0048877Y0160000D01*
X0048877Y0161056D01*
X0048332Y0162372D01*
X0048304Y0162400D01*
X0244709Y0162400D01*
X0243488Y0159453D01*
X0243488Y0156147D01*
X0244754Y0153092D01*
X0247092Y0150754D01*
X0250147Y0149488D01*
X0253453Y0149488D01*
X0256400Y0150709D01*
X0256400Y0016891D01*
X0253453Y0018112D01*
X0250147Y0018112D01*
X0247092Y0016846D01*
X0244754Y0014508D01*
X0243488Y0011453D01*
X0243488Y0008147D01*
X0244709Y0005200D01*
X0180384Y0005200D01*
X0180384Y0005200D01*
X0180516Y0005200D01*
X0181060Y0005425D01*
X0181618Y0005611D01*
X0181717Y0005698D01*
X0181839Y0005748D01*
X0182255Y0006164D01*
X0182700Y0006550D01*
X0182759Y0006667D01*
X0182852Y0006761D01*
X0183077Y0007304D01*
X0184625Y0010400D01*
X0185037Y0010400D01*
X0188200Y0013563D01*
X0188200Y0018037D01*
X0186400Y0019837D01*
X0186400Y0022763D01*
X0188200Y0024563D01*
X0188200Y0029037D01*
X0185037Y0032200D01*
X0180563Y0032200D01*
X0177400Y0029037D01*
X0177400Y0024563D01*
X0179200Y0022763D01*
X0179200Y0019837D01*
X0177400Y0018037D01*
X0177400Y0013563D01*
X0177904Y0013059D01*
X0177575Y0012400D01*
X0167037Y0012400D01*
X0168200Y0013563D01*
X0168200Y0018037D01*
X0166853Y0019384D02*
X0178747Y0019384D01*
X0179200Y0020982D02*
X0165255Y0020982D01*
X0166217Y0022581D02*
X0179200Y0022581D01*
X0177784Y0024179D02*
X0167816Y0024179D01*
X0168200Y0025778D02*
X0177400Y0025778D01*
X0177400Y0027376D02*
X0168200Y0027376D01*
X0168200Y0028975D02*
X0177400Y0028975D01*
X0178936Y0030573D02*
X0166664Y0030573D01*
X0166000Y0032172D02*
X0180535Y0032172D01*
X0178683Y0033770D02*
X0187925Y0033770D01*
X0187437Y0034600D02*
X0187925Y0034802D01*
X0187925Y0031538D01*
X0192538Y0026925D01*
X0199062Y0026925D01*
X0203675Y0031538D01*
X0203675Y0038062D01*
X0199062Y0042675D01*
X0196200Y0042675D01*
X0197613Y0044087D01*
X0197775Y0044250D01*
X0198577Y0044250D01*
X0198800Y0044342D01*
X0199023Y0044250D01*
X0204577Y0044250D01*
X0205459Y0044615D01*
X0206135Y0045291D01*
X0206500Y0046173D01*
X0206500Y0053427D01*
X0206135Y0054309D01*
X0205459Y0054985D01*
X0204577Y0055350D01*
X0203775Y0055350D01*
X0201513Y0057613D01*
X0200613Y0058513D01*
X0199437Y0059000D01*
X0187513Y0059000D01*
X0185532Y0060981D01*
X0182068Y0060981D01*
X0179619Y0058532D01*
X0179619Y0055068D01*
X0182068Y0052619D01*
X0184118Y0052619D01*
X0184163Y0052600D01*
X0185100Y0052600D01*
X0185100Y0051457D01*
X0176931Y0051457D01*
X0176588Y0051800D01*
X0177197Y0052409D01*
X0177562Y0053291D01*
X0177562Y0057395D01*
X0177197Y0058278D01*
X0176856Y0058619D01*
X0177168Y0059374D01*
X0177168Y0063320D01*
X0176713Y0064419D01*
X0175872Y0065260D01*
X0174773Y0065716D01*
X0170827Y0065716D01*
X0169728Y0065260D01*
X0168887Y0064419D01*
X0168431Y0063320D01*
X0168431Y0059374D01*
X0168744Y0058619D01*
X0168403Y0058278D01*
X0168038Y0057395D01*
X0168038Y0053291D01*
X0168403Y0052409D01*
X0169012Y0051800D01*
X0168403Y0051191D01*
X0168038Y0050309D01*
X0168038Y0046204D01*
X0168403Y0045322D01*
X0169078Y0044647D01*
X0169960Y0044282D01*
X0175640Y0044282D01*
X0176522Y0044647D01*
X0176931Y0045057D01*
X0185699Y0045057D01*
X0186141Y0044615D01*
X0187023Y0044250D01*
X0188725Y0044250D01*
X0185475Y0041000D01*
X0179513Y0041000D01*
X0178532Y0041981D01*
X0175068Y0041981D01*
X0172619Y0039532D01*
X0172619Y0036068D01*
X0175068Y0033619D01*
X0178532Y0033619D01*
X0179513Y0034600D01*
X0187437Y0034600D01*
X0187925Y0032172D02*
X0185065Y0032172D01*
X0186664Y0030573D02*
X0188890Y0030573D01*
X0188200Y0028975D02*
X0190488Y0028975D01*
X0192087Y0027376D02*
X0188200Y0027376D01*
X0188200Y0025778D02*
X0256400Y0025778D01*
X0256400Y0027376D02*
X0227513Y0027376D01*
X0227062Y0026925D02*
X0231675Y0031538D01*
X0231675Y0038062D01*
X0227062Y0042675D01*
X0220538Y0042675D01*
X0215925Y0038062D01*
X0215925Y0031538D01*
X0220538Y0026925D01*
X0227062Y0026925D01*
X0229112Y0028975D02*
X0256400Y0028975D01*
X0256400Y0030573D02*
X0230710Y0030573D01*
X0231675Y0032172D02*
X0256400Y0032172D01*
X0256400Y0033770D02*
X0231675Y0033770D01*
X0231675Y0035369D02*
X0256400Y0035369D01*
X0256400Y0036967D02*
X0231675Y0036967D01*
X0231171Y0038566D02*
X0256400Y0038566D01*
X0256400Y0040164D02*
X0229573Y0040164D01*
X0227974Y0041763D02*
X0256400Y0041763D01*
X0256400Y0043361D02*
X0196887Y0043361D01*
X0199974Y0041763D02*
X0219626Y0041763D01*
X0218027Y0040164D02*
X0201573Y0040164D01*
X0203171Y0038566D02*
X0216429Y0038566D01*
X0215925Y0036967D02*
X0203675Y0036967D01*
X0203675Y0035369D02*
X0215925Y0035369D01*
X0215925Y0033770D02*
X0203675Y0033770D01*
X0203675Y0032172D02*
X0215925Y0032172D01*
X0216890Y0030573D02*
X0202710Y0030573D01*
X0201112Y0028975D02*
X0218488Y0028975D01*
X0220087Y0027376D02*
X0199513Y0027376D01*
X0187816Y0024179D02*
X0256400Y0024179D01*
X0256400Y0022581D02*
X0186400Y0022581D01*
X0186400Y0020982D02*
X0256400Y0020982D01*
X0256400Y0019384D02*
X0186853Y0019384D01*
X0188200Y0017785D02*
X0249358Y0017785D01*
X0246432Y0016187D02*
X0188200Y0016187D01*
X0188200Y0014588D02*
X0244833Y0014588D01*
X0244125Y0012990D02*
X0187626Y0012990D01*
X0186028Y0011391D02*
X0243488Y0011391D01*
X0243488Y0009793D02*
X0184321Y0009793D01*
X0183522Y0008194D02*
X0243488Y0008194D01*
X0244131Y0006596D02*
X0182723Y0006596D01*
X0177870Y0012990D02*
X0167626Y0012990D01*
X0168200Y0014588D02*
X0177400Y0014588D01*
X0162800Y0015800D02*
X0157800Y0020800D01*
X0137800Y0020800D01*
X0133674Y0024926D01*
X0133674Y0028900D01*
X0136824Y0028900D02*
X0136824Y0028776D01*
X0143776Y0028776D01*
X0142800Y0028800D01*
X0142700Y0034776D02*
X0156824Y0034776D01*
X0157800Y0033800D01*
X0160674Y0037926D02*
X0162800Y0035800D01*
X0162800Y0026800D01*
X0166000Y0033770D02*
X0174917Y0033770D01*
X0173318Y0035369D02*
X0166000Y0035369D01*
X0165780Y0036967D02*
X0172619Y0036967D01*
X0172619Y0038566D02*
X0164560Y0038566D01*
X0162961Y0040164D02*
X0173251Y0040164D01*
X0174850Y0041763D02*
X0153745Y0041763D01*
X0151682Y0044225D02*
X0154257Y0046800D01*
X0154257Y0055800D01*
X0154257Y0057257D01*
X0176800Y0079800D01*
X0189800Y0079800D01*
X0197257Y0091257D01*
X0197257Y0094800D01*
X0197800Y0095343D01*
X0197800Y0118800D01*
X0205800Y0126800D01*
X0205800Y0133343D01*
X0206257Y0133800D01*
X0206257Y0139847D01*
X0202304Y0145800D01*
X0200863Y0143359D01*
X0177580Y0143359D01*
X0167584Y0147265D02*
X0081861Y0147265D01*
X0080262Y0148863D02*
X0197542Y0148863D01*
X0197542Y0147265D02*
X0187575Y0147265D01*
X0197542Y0150462D02*
X0078664Y0150462D01*
X0077065Y0152060D02*
X0197899Y0152060D01*
X0206709Y0152060D02*
X0245785Y0152060D01*
X0244519Y0153659D02*
X0075467Y0153659D01*
X0073868Y0155257D02*
X0243857Y0155257D01*
X0243488Y0156856D02*
X0072270Y0156856D01*
X0070671Y0158454D02*
X0243488Y0158454D01*
X0243736Y0160053D02*
X0048877Y0160053D01*
X0048630Y0161651D02*
X0244399Y0161651D01*
X0247797Y0150462D02*
X0207066Y0150462D01*
X0207066Y0148863D02*
X0256400Y0148863D01*
X0256400Y0147265D02*
X0207066Y0147265D01*
X0207066Y0145666D02*
X0256400Y0145666D01*
X0256400Y0144068D02*
X0207296Y0144068D01*
X0208357Y0142469D02*
X0256400Y0142469D01*
X0256400Y0140870D02*
X0209317Y0140870D01*
X0209457Y0139272D02*
X0219135Y0139272D01*
X0220538Y0140675D02*
X0215925Y0136062D01*
X0215925Y0129538D01*
X0220538Y0124925D01*
X0227062Y0124925D01*
X0231675Y0129538D01*
X0231675Y0136062D01*
X0227062Y0140675D01*
X0220538Y0140675D01*
X0217537Y0137673D02*
X0209714Y0137673D01*
X0210231Y0136075D02*
X0215938Y0136075D01*
X0215925Y0134476D02*
X0210231Y0134476D01*
X0210231Y0132878D02*
X0215925Y0132878D01*
X0215925Y0131279D02*
X0210231Y0131279D01*
X0209469Y0129681D02*
X0215925Y0129681D01*
X0217381Y0128082D02*
X0209000Y0128082D01*
X0209000Y0126484D02*
X0218979Y0126484D01*
X0213343Y0133800D02*
X0213343Y0143847D01*
X0215296Y0145800D01*
X0215296Y0153304D01*
X0213800Y0153800D01*
X0221800Y0153800D01*
X0255800Y0119800D01*
X0255800Y0055800D01*
X0251800Y0051800D01*
X0226800Y0052800D01*
X0215800Y0058800D01*
X0196304Y0058800D01*
X0187304Y0067800D01*
X0187800Y0065304D01*
X0187304Y0067800D02*
X0184851Y0068253D01*
X0172800Y0068253D01*
X0170463Y0068937D02*
X0195534Y0068937D01*
X0195534Y0067339D02*
X0168864Y0067339D01*
X0167266Y0065740D02*
X0195534Y0065740D01*
X0195534Y0064142D02*
X0176828Y0064142D01*
X0177168Y0062543D02*
X0195534Y0062543D01*
X0196474Y0060945D02*
X0185568Y0060945D01*
X0187167Y0059346D02*
X0209805Y0059346D01*
X0208145Y0060945D02*
X0204119Y0060945D01*
X0205058Y0062543D02*
X0208038Y0062543D01*
X0208038Y0064142D02*
X0205058Y0064142D01*
X0205058Y0065740D02*
X0208217Y0065740D01*
X0208473Y0067339D02*
X0205058Y0067339D01*
X0205959Y0068937D02*
X0208038Y0068937D01*
X0208038Y0070536D02*
X0207264Y0070536D01*
X0207543Y0072134D02*
X0208038Y0072134D01*
X0207543Y0073733D02*
X0208859Y0073733D01*
X0209200Y0075332D02*
X0207543Y0075332D01*
X0207543Y0076930D02*
X0209200Y0076930D01*
X0209200Y0078529D02*
X0208139Y0078529D01*
X0208318Y0080127D02*
X0209200Y0080127D01*
X0209200Y0081726D02*
X0208318Y0081726D01*
X0208318Y0083324D02*
X0209200Y0083324D01*
X0209200Y0084923D02*
X0208201Y0084923D01*
X0208321Y0086521D02*
X0207543Y0086521D01*
X0207543Y0088120D02*
X0208038Y0088120D01*
X0208038Y0089718D02*
X0207543Y0089718D01*
X0204343Y0094800D02*
X0205887Y0096343D01*
X0212800Y0096343D01*
X0217660Y0096112D02*
X0256400Y0096112D01*
X0256400Y0094514D02*
X0217562Y0094514D01*
X0216703Y0092915D02*
X0256400Y0092915D01*
X0256400Y0091317D02*
X0217559Y0091317D01*
X0217562Y0089718D02*
X0256400Y0089718D01*
X0256400Y0088120D02*
X0217562Y0088120D01*
X0217279Y0086521D02*
X0256400Y0086521D01*
X0256400Y0084923D02*
X0216400Y0084923D01*
X0216400Y0083324D02*
X0256400Y0083324D01*
X0256400Y0081726D02*
X0216400Y0081726D01*
X0216400Y0080127D02*
X0256400Y0080127D01*
X0256400Y0078529D02*
X0216400Y0078529D01*
X0216400Y0076930D02*
X0256400Y0076930D01*
X0256400Y0075332D02*
X0216400Y0075332D01*
X0216741Y0073733D02*
X0256400Y0073733D01*
X0256400Y0072134D02*
X0217562Y0072134D01*
X0217562Y0070536D02*
X0256400Y0070536D01*
X0256400Y0068937D02*
X0217562Y0068937D01*
X0217127Y0067339D02*
X0256400Y0067339D01*
X0256400Y0065740D02*
X0243754Y0065740D01*
X0248605Y0064142D02*
X0256400Y0064142D01*
X0256400Y0062543D02*
X0250204Y0062543D01*
X0250700Y0060945D02*
X0256400Y0060945D01*
X0256400Y0059346D02*
X0250700Y0059346D01*
X0250700Y0057748D02*
X0256400Y0057748D01*
X0256400Y0056149D02*
X0249690Y0056149D01*
X0248092Y0054551D02*
X0256400Y0054551D01*
X0256400Y0052952D02*
X0206500Y0052952D01*
X0206500Y0051354D02*
X0256400Y0051354D01*
X0256400Y0049755D02*
X0206500Y0049755D01*
X0206500Y0048157D02*
X0256400Y0048157D01*
X0256400Y0046558D02*
X0206500Y0046558D01*
X0205804Y0044960D02*
X0256400Y0044960D01*
X0241508Y0054551D02*
X0205893Y0054551D01*
X0202976Y0056149D02*
X0239910Y0056149D01*
X0238900Y0057748D02*
X0201378Y0057748D01*
X0198800Y0055800D02*
X0184800Y0055800D01*
X0183800Y0056800D01*
X0180433Y0059346D02*
X0177157Y0059346D01*
X0177168Y0060945D02*
X0182032Y0060945D01*
X0179619Y0057748D02*
X0177416Y0057748D01*
X0177562Y0056149D02*
X0179619Y0056149D01*
X0180136Y0054551D02*
X0177562Y0054551D01*
X0177422Y0052952D02*
X0181735Y0052952D01*
X0188257Y0048257D02*
X0172800Y0048257D01*
X0168038Y0048157D02*
X0158231Y0048157D01*
X0158231Y0046558D02*
X0168038Y0046558D01*
X0168766Y0044960D02*
X0158231Y0044960D01*
X0157983Y0043361D02*
X0187836Y0043361D01*
X0186237Y0041763D02*
X0178750Y0041763D01*
X0176834Y0044960D02*
X0185796Y0044960D01*
X0188257Y0048257D02*
X0189800Y0049800D01*
X0195800Y0049800D02*
X0195800Y0046800D01*
X0186800Y0037800D01*
X0176800Y0037800D01*
X0160674Y0037926D02*
X0142700Y0037926D01*
X0142424Y0040800D02*
X0142700Y0041076D01*
X0157076Y0041076D01*
X0160800Y0044800D01*
X0158184Y0049755D02*
X0168038Y0049755D01*
X0168566Y0051354D02*
X0157457Y0051354D01*
X0158228Y0052952D02*
X0168178Y0052952D01*
X0168038Y0054551D02*
X0158231Y0054551D01*
X0158231Y0056149D02*
X0168038Y0056149D01*
X0168184Y0057748D02*
X0159273Y0057748D01*
X0160872Y0059346D02*
X0168443Y0059346D01*
X0168431Y0060945D02*
X0162470Y0060945D01*
X0164069Y0062543D02*
X0168431Y0062543D01*
X0168772Y0064142D02*
X0165667Y0064142D01*
X0159813Y0067339D02*
X0158680Y0067339D01*
X0158680Y0068937D02*
X0161412Y0068937D01*
X0163011Y0070536D02*
X0158000Y0070536D01*
X0158000Y0072134D02*
X0164609Y0072134D01*
X0166208Y0073733D02*
X0158374Y0073733D01*
X0158680Y0075332D02*
X0167806Y0075332D01*
X0169405Y0076930D02*
X0158680Y0076930D01*
X0158064Y0078529D02*
X0171003Y0078529D01*
X0172602Y0080127D02*
X0140024Y0080127D01*
X0140024Y0081726D02*
X0174200Y0081726D01*
X0168651Y0083324D02*
X0140024Y0083324D01*
X0140836Y0084923D02*
X0167341Y0084923D01*
X0167306Y0086521D02*
X0141981Y0086521D01*
X0141981Y0088120D02*
X0167306Y0088120D01*
X0167306Y0089718D02*
X0141795Y0089718D01*
X0140196Y0091317D02*
X0167306Y0091317D01*
X0167306Y0092915D02*
X0131000Y0092915D01*
X0131000Y0091317D02*
X0135404Y0091317D01*
X0133805Y0089718D02*
X0131795Y0089718D01*
X0131981Y0088120D02*
X0133619Y0088120D01*
X0133619Y0086521D02*
X0131981Y0086521D01*
X0130836Y0084923D02*
X0133624Y0084923D01*
X0133624Y0083324D02*
X0124276Y0083324D01*
X0124276Y0081726D02*
X0133624Y0081726D01*
X0133624Y0080127D02*
X0124276Y0080127D01*
X0124276Y0078529D02*
X0133624Y0078529D01*
X0133624Y0076930D02*
X0124276Y0076930D01*
X0124276Y0075332D02*
X0133624Y0075332D01*
X0133624Y0073733D02*
X0124276Y0073733D01*
X0124276Y0072134D02*
X0133624Y0072134D01*
X0133624Y0070536D02*
X0124276Y0070536D01*
X0124276Y0068937D02*
X0133624Y0068937D01*
X0142700Y0071606D02*
X0142894Y0071800D01*
X0142700Y0071606D02*
X0142700Y0056824D01*
X0142700Y0053674D02*
X0146674Y0053674D01*
X0148800Y0055800D01*
X0148800Y0061800D01*
X0154800Y0067800D01*
X0154800Y0071706D01*
X0154706Y0071800D01*
X0151506Y0072134D02*
X0146094Y0072134D01*
X0146094Y0072437D02*
X0146082Y0072467D01*
X0146082Y0072825D01*
X0146748Y0072550D01*
X0150852Y0072550D01*
X0151518Y0072825D01*
X0151518Y0072467D01*
X0151506Y0072437D01*
X0151506Y0071163D01*
X0151518Y0071133D01*
X0151518Y0070775D01*
X0150852Y0071050D01*
X0146748Y0071050D01*
X0146082Y0070775D01*
X0146082Y0071133D01*
X0146094Y0071163D01*
X0146094Y0072437D01*
X0148800Y0071800D02*
X0148800Y0108800D01*
X0143800Y0108800D01*
X0148800Y0108800D02*
X0148800Y0126800D01*
X0148800Y0143800D01*
X0158800Y0153800D01*
X0213800Y0153800D01*
X0228465Y0139272D02*
X0256400Y0139272D01*
X0256400Y0137673D02*
X0230063Y0137673D01*
X0231662Y0136075D02*
X0256400Y0136075D01*
X0256400Y0134476D02*
X0231675Y0134476D01*
X0231675Y0132878D02*
X0256400Y0132878D01*
X0256400Y0131279D02*
X0231675Y0131279D01*
X0231675Y0129681D02*
X0256400Y0129681D01*
X0256400Y0128082D02*
X0230219Y0128082D01*
X0228621Y0126484D02*
X0256400Y0126484D01*
X0256400Y0124885D02*
X0208411Y0124885D01*
X0206812Y0123287D02*
X0256400Y0123287D01*
X0256400Y0121688D02*
X0205214Y0121688D01*
X0203615Y0120090D02*
X0256400Y0120090D01*
X0256400Y0118491D02*
X0202017Y0118491D01*
X0201000Y0116893D02*
X0256400Y0116893D01*
X0256400Y0115294D02*
X0247846Y0115294D01*
X0249445Y0113696D02*
X0256400Y0113696D01*
X0256400Y0112097D02*
X0250700Y0112097D01*
X0250700Y0110499D02*
X0256400Y0110499D01*
X0256400Y0108900D02*
X0250700Y0108900D01*
X0250449Y0107302D02*
X0256400Y0107302D01*
X0256400Y0105703D02*
X0248850Y0105703D01*
X0247252Y0104105D02*
X0256400Y0104105D01*
X0256400Y0102506D02*
X0224054Y0102506D01*
X0222456Y0100908D02*
X0256400Y0100908D01*
X0256400Y0099309D02*
X0220857Y0099309D01*
X0219259Y0097711D02*
X0256400Y0097711D01*
X0242348Y0104105D02*
X0225653Y0104105D01*
X0227251Y0105703D02*
X0240750Y0105703D01*
X0240155Y0113696D02*
X0201000Y0113696D01*
X0201000Y0115294D02*
X0241754Y0115294D01*
X0223463Y0112097D02*
X0201000Y0112097D01*
X0201000Y0110499D02*
X0221864Y0110499D01*
X0223402Y0112036D02*
X0223402Y0112036D01*
X0220266Y0108900D02*
X0201000Y0108900D01*
X0201000Y0107302D02*
X0218667Y0107302D01*
X0217069Y0105703D02*
X0201000Y0105703D01*
X0201000Y0104105D02*
X0215470Y0104105D01*
X0213872Y0102506D02*
X0201000Y0102506D01*
X0201000Y0100908D02*
X0212273Y0100908D01*
X0204343Y0094800D02*
X0204343Y0081800D01*
X0204343Y0071847D01*
X0200296Y0067800D01*
X0195534Y0070536D02*
X0172061Y0070536D01*
X0173660Y0072134D02*
X0195534Y0072134D01*
X0195755Y0073733D02*
X0175258Y0073733D01*
X0176857Y0075332D02*
X0201143Y0075332D01*
X0201143Y0076930D02*
X0191273Y0076930D01*
X0192791Y0078529D02*
X0200547Y0078529D01*
X0200369Y0080127D02*
X0193831Y0080127D01*
X0194871Y0081726D02*
X0200369Y0081726D01*
X0200369Y0083324D02*
X0195912Y0083324D01*
X0196952Y0084923D02*
X0200486Y0084923D01*
X0201143Y0086521D02*
X0197993Y0086521D01*
X0199033Y0088120D02*
X0201143Y0088120D01*
X0201143Y0089718D02*
X0200083Y0089718D01*
X0193478Y0091317D02*
X0187854Y0091317D01*
X0187854Y0089718D02*
X0192437Y0089718D01*
X0191397Y0088120D02*
X0187854Y0088120D01*
X0187854Y0086521D02*
X0190356Y0086521D01*
X0189316Y0084923D02*
X0187818Y0084923D01*
X0188276Y0083324D02*
X0186508Y0083324D01*
X0197257Y0081800D02*
X0197257Y0077753D01*
X0187304Y0067800D01*
X0172800Y0061347D02*
X0172800Y0055343D01*
X0154257Y0055800D02*
X0154257Y0054257D01*
X0154257Y0055800D02*
X0148981Y0050524D01*
X0142700Y0050524D01*
X0142424Y0050800D01*
X0118800Y0050800D01*
X0115800Y0053800D01*
X0109026Y0053800D01*
X0108900Y0053674D01*
X0108900Y0056824D02*
X0108800Y0056924D01*
X0108800Y0068800D01*
X0114776Y0062700D02*
X0114776Y0077824D01*
X0112776Y0080824D01*
X0117926Y0086674D02*
X0116926Y0087674D01*
X0117926Y0086674D02*
X0117926Y0062700D01*
X0121076Y0062700D02*
X0121076Y0091524D01*
X0116800Y0095800D01*
X0100335Y0095800D01*
X0100020Y0096115D01*
X0085343Y0096115D01*
X0084343Y0097800D01*
X0100020Y0103989D02*
X0100209Y0103800D01*
X0116800Y0103800D01*
X0127800Y0106800D02*
X0114863Y0119737D01*
X0100020Y0119737D01*
X0099957Y0119800D01*
X0087800Y0119800D01*
X0078800Y0124800D01*
X0073800Y0128427D02*
X0071327Y0130900D01*
X0066400Y0130900D01*
X0066400Y0131572D01*
X0066462Y0132056D01*
X0066400Y0132282D01*
X0066400Y0132516D01*
X0066213Y0132967D01*
X0063400Y0143282D01*
X0063400Y0143516D01*
X0063213Y0143967D01*
X0063085Y0144438D01*
X0062941Y0144623D01*
X0062852Y0144839D01*
X0062507Y0145184D01*
X0062208Y0145570D01*
X0062005Y0145686D01*
X0061839Y0145852D01*
X0061388Y0146039D01*
X0060964Y0146281D01*
X0060732Y0146310D01*
X0060516Y0146400D01*
X0060028Y0146400D01*
X0059544Y0146462D01*
X0059318Y0146400D01*
X0021227Y0146400D01*
X0020946Y0146468D01*
X0020518Y0146400D01*
X0020084Y0146400D01*
X0019817Y0146289D01*
X0019531Y0146244D01*
X0019161Y0146018D01*
X0018761Y0145852D01*
X0018556Y0145647D01*
X0018310Y0145497D01*
X0018055Y0145146D01*
X0017748Y0144839D01*
X0017637Y0144572D01*
X0010055Y0134146D01*
X0009748Y0133839D01*
X0009637Y0133572D01*
X0009467Y0133338D01*
X0009366Y0132917D01*
X0009200Y0132516D01*
X0009200Y0132227D01*
X0009132Y0131946D01*
X0009200Y0131518D01*
X0009200Y0029084D01*
X0009748Y0027761D01*
X0020748Y0016761D01*
X0021761Y0015748D01*
X0023084Y0015200D01*
X0064400Y0015200D01*
X0064400Y0013563D01*
X0066387Y0011576D01*
X0066523Y0011304D01*
X0066748Y0010761D01*
X0066841Y0010667D01*
X0068523Y0007304D01*
X0068748Y0006761D01*
X0068841Y0006667D01*
X0068900Y0006550D01*
X0069345Y0006164D01*
X0069761Y0005748D01*
X0069883Y0005698D01*
X0069982Y0005611D01*
X0070540Y0005425D01*
X0071084Y0005200D01*
X0071216Y0005200D01*
X0016891Y0005200D01*
X0018112Y0008147D01*
X0018112Y0011453D01*
X0016846Y0014508D01*
X0014508Y0016846D01*
X0011453Y0018112D01*
X0008147Y0018112D01*
X0005200Y0016891D01*
X0005200Y0150709D01*
X0008147Y0149488D01*
X0011453Y0149488D01*
X0014508Y0150754D01*
X0016846Y0153092D01*
X0018112Y0156147D01*
X0018112Y0159453D01*
X0016891Y0162400D01*
X0029296Y0162400D01*
X0029268Y0162372D01*
X0028723Y0161056D01*
X0028723Y0152544D01*
X0029268Y0151228D01*
X0030275Y0150221D01*
X0031592Y0149676D01*
X0046008Y0149676D01*
X0047325Y0150221D01*
X0048332Y0151228D01*
X0048877Y0152544D01*
X0048877Y0153600D01*
X0066475Y0153600D01*
X0079175Y0140900D01*
X0076273Y0140900D01*
X0072700Y0137327D01*
X0072700Y0132273D01*
X0075173Y0129800D01*
X0073800Y0128427D01*
X0072546Y0129681D02*
X0075054Y0129681D01*
X0073694Y0131279D02*
X0066400Y0131279D01*
X0066250Y0132878D02*
X0072700Y0132878D01*
X0072700Y0134476D02*
X0065802Y0134476D01*
X0065366Y0136075D02*
X0072700Y0136075D01*
X0073047Y0137673D02*
X0064930Y0137673D01*
X0064494Y0139272D02*
X0074645Y0139272D01*
X0076244Y0140870D02*
X0064058Y0140870D01*
X0063622Y0142469D02*
X0077606Y0142469D01*
X0076007Y0144068D02*
X0063186Y0144068D01*
X0062040Y0145666D02*
X0074408Y0145666D01*
X0072810Y0147265D02*
X0005200Y0147265D01*
X0005200Y0148863D02*
X0071211Y0148863D01*
X0069613Y0150462D02*
X0047565Y0150462D01*
X0048677Y0152060D02*
X0068014Y0152060D01*
X0067800Y0156800D02*
X0038800Y0156800D01*
X0028923Y0152060D02*
X0015815Y0152060D01*
X0017081Y0153659D02*
X0028723Y0153659D01*
X0028723Y0155257D02*
X0017743Y0155257D01*
X0018112Y0156856D02*
X0028723Y0156856D01*
X0028723Y0158454D02*
X0018112Y0158454D01*
X0017864Y0160053D02*
X0028723Y0160053D01*
X0028970Y0161651D02*
X0017201Y0161651D01*
X0013803Y0150462D02*
X0030035Y0150462D01*
X0018575Y0145666D02*
X0005200Y0145666D01*
X0005200Y0144068D02*
X0017270Y0144068D01*
X0016108Y0142469D02*
X0005200Y0142469D01*
X0005200Y0140870D02*
X0014945Y0140870D01*
X0013783Y0139272D02*
X0005200Y0139272D01*
X0005200Y0137673D02*
X0012620Y0137673D01*
X0011458Y0136075D02*
X0005200Y0136075D01*
X0005200Y0134476D02*
X0010295Y0134476D01*
X0009350Y0132878D02*
X0005200Y0132878D01*
X0005200Y0131279D02*
X0009200Y0131279D01*
X0009200Y0129681D02*
X0005200Y0129681D01*
X0005200Y0128082D02*
X0009200Y0128082D01*
X0009200Y0126484D02*
X0005200Y0126484D01*
X0005200Y0124885D02*
X0009200Y0124885D01*
X0009200Y0123287D02*
X0005200Y0123287D01*
X0005200Y0121688D02*
X0009200Y0121688D01*
X0009200Y0120090D02*
X0005200Y0120090D01*
X0005200Y0118491D02*
X0009200Y0118491D01*
X0009200Y0116893D02*
X0005200Y0116893D01*
X0005200Y0115294D02*
X0009200Y0115294D01*
X0009200Y0113696D02*
X0005200Y0113696D01*
X0005200Y0112097D02*
X0009200Y0112097D01*
X0009200Y0110499D02*
X0005200Y0110499D01*
X0005200Y0108900D02*
X0009200Y0108900D01*
X0009200Y0107302D02*
X0005200Y0107302D01*
X0005200Y0105703D02*
X0009200Y0105703D01*
X0009200Y0104105D02*
X0005200Y0104105D01*
X0005200Y0102506D02*
X0009200Y0102506D01*
X0009200Y0100908D02*
X0005200Y0100908D01*
X0005200Y0099309D02*
X0009200Y0099309D01*
X0009200Y0097711D02*
X0005200Y0097711D01*
X0005200Y0096112D02*
X0009200Y0096112D01*
X0009200Y0094514D02*
X0005200Y0094514D01*
X0005200Y0092915D02*
X0009200Y0092915D01*
X0009200Y0091317D02*
X0005200Y0091317D01*
X0005200Y0089718D02*
X0009200Y0089718D01*
X0009200Y0088120D02*
X0005200Y0088120D01*
X0005200Y0086521D02*
X0009200Y0086521D01*
X0009200Y0084923D02*
X0005200Y0084923D01*
X0005200Y0083324D02*
X0009200Y0083324D01*
X0009200Y0081726D02*
X0005200Y0081726D01*
X0005200Y0080127D02*
X0009200Y0080127D01*
X0009200Y0078529D02*
X0005200Y0078529D01*
X0005200Y0076930D02*
X0009200Y0076930D01*
X0009200Y0075332D02*
X0005200Y0075332D01*
X0005200Y0073733D02*
X0009200Y0073733D01*
X0009200Y0072134D02*
X0005200Y0072134D01*
X0005200Y0070536D02*
X0009200Y0070536D01*
X0009200Y0068937D02*
X0005200Y0068937D01*
X0005200Y0067339D02*
X0009200Y0067339D01*
X0009200Y0065740D02*
X0005200Y0065740D01*
X0005200Y0064142D02*
X0009200Y0064142D01*
X0009200Y0062543D02*
X0005200Y0062543D01*
X0005200Y0060945D02*
X0009200Y0060945D01*
X0009200Y0059346D02*
X0005200Y0059346D01*
X0005200Y0057748D02*
X0009200Y0057748D01*
X0009200Y0056149D02*
X0005200Y0056149D01*
X0005200Y0054551D02*
X0009200Y0054551D01*
X0009200Y0052952D02*
X0005200Y0052952D01*
X0005200Y0051354D02*
X0009200Y0051354D01*
X0009200Y0049755D02*
X0005200Y0049755D01*
X0005200Y0048157D02*
X0009200Y0048157D01*
X0009200Y0046558D02*
X0005200Y0046558D01*
X0005200Y0044960D02*
X0009200Y0044960D01*
X0009200Y0043361D02*
X0005200Y0043361D01*
X0005200Y0041763D02*
X0009200Y0041763D01*
X0009200Y0040164D02*
X0005200Y0040164D01*
X0005200Y0038566D02*
X0009200Y0038566D01*
X0009200Y0036967D02*
X0005200Y0036967D01*
X0005200Y0035369D02*
X0009200Y0035369D01*
X0009200Y0033770D02*
X0005200Y0033770D01*
X0005200Y0032172D02*
X0009200Y0032172D01*
X0009200Y0030573D02*
X0005200Y0030573D01*
X0005200Y0028975D02*
X0009245Y0028975D01*
X0010133Y0027376D02*
X0005200Y0027376D01*
X0005200Y0025778D02*
X0011731Y0025778D01*
X0013330Y0024179D02*
X0005200Y0024179D01*
X0005200Y0022581D02*
X0014928Y0022581D01*
X0016527Y0020982D02*
X0005200Y0020982D01*
X0005200Y0019384D02*
X0018125Y0019384D01*
X0019724Y0017785D02*
X0012242Y0017785D01*
X0015168Y0016187D02*
X0021322Y0016187D01*
X0016767Y0014588D02*
X0064400Y0014588D01*
X0064974Y0012990D02*
X0017475Y0012990D01*
X0018112Y0011391D02*
X0066480Y0011391D01*
X0067279Y0009793D02*
X0018112Y0009793D01*
X0018112Y0008194D02*
X0068078Y0008194D01*
X0068877Y0006596D02*
X0017469Y0006596D01*
X0007358Y0017785D02*
X0005200Y0017785D01*
X0020315Y0027376D02*
X0050087Y0027376D01*
X0050538Y0026925D02*
X0057062Y0026925D01*
X0061675Y0031538D01*
X0061675Y0038062D01*
X0057062Y0042675D01*
X0050538Y0042675D01*
X0045925Y0038062D01*
X0045925Y0031538D01*
X0050538Y0026925D01*
X0048488Y0028975D02*
X0018716Y0028975D01*
X0017118Y0030573D02*
X0046890Y0030573D01*
X0045925Y0032172D02*
X0016400Y0032172D01*
X0016400Y0031291D02*
X0016400Y0130629D01*
X0017925Y0132726D01*
X0017925Y0129538D01*
X0018900Y0128563D01*
X0018900Y0093537D01*
X0018400Y0093037D01*
X0018400Y0088563D01*
X0021563Y0085400D01*
X0022743Y0085400D01*
X0020913Y0083570D01*
X0020304Y0082100D01*
X0020304Y0081478D01*
X0019907Y0081081D01*
X0019542Y0080199D01*
X0019542Y0069401D01*
X0019907Y0068519D01*
X0020162Y0068264D01*
X0020115Y0066074D01*
X0019480Y0066074D01*
X0018598Y0065709D01*
X0017923Y0065034D01*
X0017557Y0064151D01*
X0017557Y0047449D01*
X0017923Y0046566D01*
X0018598Y0045891D01*
X0019480Y0045526D01*
X0028309Y0045526D01*
X0029191Y0045891D01*
X0029800Y0046500D01*
X0030409Y0045891D01*
X0031291Y0045526D01*
X0040120Y0045526D01*
X0041002Y0045891D01*
X0041677Y0046566D01*
X0042043Y0047449D01*
X0042043Y0064151D01*
X0041677Y0065034D01*
X0041002Y0065709D01*
X0040120Y0066074D01*
X0035100Y0066074D01*
X0035100Y0079433D01*
X0036887Y0081220D01*
X0054177Y0081220D01*
X0055390Y0081723D01*
X0056318Y0082651D01*
X0056820Y0083864D01*
X0056820Y0085275D01*
X0057374Y0085046D01*
X0059903Y0085046D01*
X0060785Y0085411D01*
X0061461Y0086086D01*
X0061826Y0086968D01*
X0061826Y0088550D01*
X0061839Y0088581D01*
X0061839Y0091280D01*
X0062239Y0092245D01*
X0062239Y0104913D01*
X0065200Y0107291D01*
X0065200Y0102423D01*
X0065149Y0101876D01*
X0065200Y0101712D01*
X0065200Y0101541D01*
X0065410Y0101033D01*
X0065573Y0100507D01*
X0065683Y0100376D01*
X0065748Y0100217D01*
X0065984Y0099981D01*
X0065068Y0099981D01*
X0062619Y0097532D01*
X0062619Y0094068D01*
X0065068Y0091619D01*
X0065324Y0091619D01*
X0066222Y0090721D01*
X0066100Y0090427D01*
X0066100Y0083173D01*
X0066465Y0082291D01*
X0067141Y0081615D01*
X0068023Y0081250D01*
X0073200Y0081250D01*
X0073200Y0077058D01*
X0067401Y0077058D01*
X0066519Y0076693D01*
X0065844Y0076018D01*
X0065479Y0075136D01*
X0065479Y0075000D01*
X0051163Y0075000D01*
X0049987Y0074513D01*
X0049087Y0073613D01*
X0048249Y0072774D01*
X0047761Y0071598D01*
X0047761Y0065746D01*
X0047774Y0065716D01*
X0047774Y0064134D01*
X0048139Y0063252D01*
X0048815Y0062576D01*
X0049697Y0062211D01*
X0050038Y0062211D01*
X0050038Y0058291D01*
X0050403Y0057409D01*
X0051078Y0056734D01*
X0051960Y0056369D01*
X0057640Y0056369D01*
X0058522Y0056734D01*
X0059197Y0057409D01*
X0059450Y0058020D01*
X0059613Y0058087D01*
X0060513Y0058987D01*
X0061351Y0059826D01*
X0061839Y0061002D01*
X0061839Y0067019D01*
X0061826Y0067050D01*
X0061826Y0068600D01*
X0065834Y0068600D01*
X0065844Y0068574D01*
X0066519Y0067899D01*
X0067401Y0067534D01*
X0078199Y0067534D01*
X0078590Y0067696D01*
X0082170Y0067696D01*
X0082960Y0067369D01*
X0088640Y0067369D01*
X0089522Y0067734D01*
X0089648Y0067861D01*
X0095743Y0061766D01*
X0095743Y0060531D01*
X0095734Y0060522D01*
X0095369Y0059640D01*
X0095369Y0053960D01*
X0095734Y0053078D01*
X0096012Y0052800D01*
X0095734Y0052522D01*
X0095369Y0051640D01*
X0095369Y0045960D01*
X0095734Y0045078D01*
X0096409Y0044403D01*
X0097291Y0044038D01*
X0101395Y0044038D01*
X0101726Y0044175D01*
X0104196Y0044175D01*
X0103263Y0043788D01*
X0097987Y0038513D01*
X0097087Y0037613D01*
X0096600Y0036437D01*
X0096600Y0031237D01*
X0094800Y0029437D01*
X0092037Y0032200D01*
X0087563Y0032200D01*
X0084400Y0029037D01*
X0084400Y0024563D01*
X0087563Y0021400D01*
X0090875Y0021400D01*
X0090675Y0021200D01*
X0087563Y0021200D01*
X0084400Y0018037D01*
X0084400Y0013563D01*
X0085563Y0012400D01*
X0074037Y0012400D01*
X0075200Y0013563D01*
X0075200Y0018037D01*
X0073400Y0019837D01*
X0073400Y0022763D01*
X0075200Y0024563D01*
X0075200Y0029037D01*
X0072037Y0032200D01*
X0067563Y0032200D01*
X0064400Y0029037D01*
X0064400Y0024563D01*
X0066200Y0022763D01*
X0066200Y0022400D01*
X0025291Y0022400D01*
X0016400Y0031291D01*
X0016400Y0033770D02*
X0045925Y0033770D01*
X0045925Y0035369D02*
X0016400Y0035369D01*
X0016400Y0036967D02*
X0045925Y0036967D01*
X0046429Y0038566D02*
X0016400Y0038566D01*
X0016400Y0040164D02*
X0048027Y0040164D01*
X0049626Y0041763D02*
X0016400Y0041763D01*
X0016400Y0043361D02*
X0102836Y0043361D01*
X0101237Y0041763D02*
X0057974Y0041763D01*
X0059573Y0040164D02*
X0099639Y0040164D01*
X0098040Y0038566D02*
X0061171Y0038566D01*
X0061675Y0036967D02*
X0096820Y0036967D01*
X0096600Y0035369D02*
X0061675Y0035369D01*
X0061675Y0033770D02*
X0096600Y0033770D01*
X0096600Y0032172D02*
X0092065Y0032172D01*
X0093664Y0030573D02*
X0095936Y0030573D01*
X0099800Y0026800D02*
X0099800Y0035800D01*
X0105076Y0041076D01*
X0108900Y0041076D01*
X0108900Y0044225D02*
X0126375Y0044225D01*
X0129524Y0047375D01*
X0142700Y0047375D01*
X0138877Y0047375D02*
X0138841Y0047360D01*
X0138165Y0046685D01*
X0137800Y0045803D01*
X0137800Y0042648D01*
X0138165Y0041766D01*
X0138841Y0041091D01*
X0138877Y0041076D01*
X0138841Y0041061D01*
X0138165Y0040385D01*
X0137800Y0039503D01*
X0137800Y0033800D01*
X0132713Y0033800D01*
X0133981Y0035068D01*
X0133981Y0038532D01*
X0131532Y0040981D01*
X0128068Y0040981D01*
X0126300Y0039213D01*
X0125532Y0039981D01*
X0124981Y0039981D01*
X0124981Y0041532D01*
X0122532Y0043981D01*
X0119068Y0043981D01*
X0118800Y0043713D01*
X0118213Y0044300D01*
X0119981Y0046068D01*
X0119981Y0047600D01*
X0138630Y0047600D01*
X0138841Y0047390D01*
X0138877Y0047375D01*
X0138113Y0046558D02*
X0119981Y0046558D01*
X0118873Y0044960D02*
X0137800Y0044960D01*
X0137800Y0043361D02*
X0123152Y0043361D01*
X0124750Y0041763D02*
X0138168Y0041763D01*
X0138074Y0040164D02*
X0132349Y0040164D01*
X0133947Y0038566D02*
X0137800Y0038566D01*
X0137800Y0036967D02*
X0133981Y0036967D01*
X0133981Y0035369D02*
X0137800Y0035369D01*
X0142424Y0040800D02*
X0129800Y0040800D01*
X0126375Y0044225D01*
X0127251Y0040164D02*
X0124981Y0040164D01*
X0120800Y0039800D02*
X0115776Y0034776D01*
X0108900Y0034776D01*
X0108900Y0037926D02*
X0112926Y0037926D01*
X0115800Y0040800D01*
X0121800Y0035800D02*
X0123800Y0035800D01*
X0121800Y0035800D02*
X0117800Y0031800D01*
X0117800Y0029026D01*
X0117926Y0028900D01*
X0121076Y0028900D02*
X0121076Y0025076D01*
X0117800Y0020800D01*
X0094800Y0020800D01*
X0089800Y0015800D01*
X0085747Y0019384D02*
X0073853Y0019384D01*
X0073400Y0020982D02*
X0087345Y0020982D01*
X0086383Y0022581D02*
X0073400Y0022581D01*
X0074816Y0024179D02*
X0084784Y0024179D01*
X0084400Y0025778D02*
X0075200Y0025778D01*
X0075200Y0027376D02*
X0084400Y0027376D01*
X0084400Y0028975D02*
X0075200Y0028975D01*
X0073664Y0030573D02*
X0085936Y0030573D01*
X0087535Y0032172D02*
X0072065Y0032172D01*
X0067535Y0032172D02*
X0061675Y0032172D01*
X0060710Y0030573D02*
X0065936Y0030573D01*
X0064400Y0028975D02*
X0059112Y0028975D01*
X0057513Y0027376D02*
X0064400Y0027376D01*
X0064400Y0025778D02*
X0021913Y0025778D01*
X0023512Y0024179D02*
X0064784Y0024179D01*
X0066200Y0022581D02*
X0025111Y0022581D01*
X0016400Y0044960D02*
X0095852Y0044960D01*
X0095369Y0046558D02*
X0041669Y0046558D01*
X0042043Y0048157D02*
X0095369Y0048157D01*
X0095369Y0049755D02*
X0042043Y0049755D01*
X0042043Y0051354D02*
X0095369Y0051354D01*
X0095860Y0052952D02*
X0042043Y0052952D01*
X0042043Y0054551D02*
X0095369Y0054551D01*
X0095369Y0056149D02*
X0042043Y0056149D01*
X0042043Y0057748D02*
X0050263Y0057748D01*
X0050038Y0059346D02*
X0042043Y0059346D01*
X0042043Y0060945D02*
X0050038Y0060945D01*
X0048894Y0062543D02*
X0042043Y0062543D01*
X0042043Y0064142D02*
X0047774Y0064142D01*
X0047764Y0065740D02*
X0040925Y0065740D01*
X0035100Y0067339D02*
X0047761Y0067339D01*
X0047761Y0068937D02*
X0035100Y0068937D01*
X0035100Y0070536D02*
X0047761Y0070536D01*
X0047984Y0072134D02*
X0035100Y0072134D01*
X0035100Y0073733D02*
X0049208Y0073733D01*
X0051800Y0071800D02*
X0072304Y0071800D01*
X0072800Y0072296D01*
X0067092Y0076930D02*
X0035100Y0076930D01*
X0035100Y0075332D02*
X0065560Y0075332D01*
X0073200Y0078529D02*
X0035100Y0078529D01*
X0035794Y0080127D02*
X0073200Y0080127D01*
X0067030Y0081726D02*
X0055392Y0081726D01*
X0056597Y0083324D02*
X0066100Y0083324D01*
X0066100Y0084923D02*
X0056820Y0084923D01*
X0061641Y0086521D02*
X0066100Y0086521D01*
X0066100Y0088120D02*
X0061826Y0088120D01*
X0061839Y0089718D02*
X0066100Y0089718D01*
X0065627Y0091317D02*
X0061854Y0091317D01*
X0062239Y0092915D02*
X0063772Y0092915D01*
X0062619Y0094514D02*
X0062239Y0094514D01*
X0062239Y0096112D02*
X0062619Y0096112D01*
X0062798Y0097711D02*
X0062239Y0097711D01*
X0062239Y0099309D02*
X0064396Y0099309D01*
X0065449Y0100908D02*
X0062239Y0100908D01*
X0062239Y0102506D02*
X0065200Y0102506D01*
X0065200Y0104105D02*
X0062239Y0104105D01*
X0063223Y0105703D02*
X0065200Y0105703D01*
X0068800Y0114800D02*
X0069800Y0116800D01*
X0078800Y0114800D02*
X0085737Y0111863D01*
X0100020Y0111863D01*
X0100083Y0111800D01*
X0112800Y0111800D01*
X0122233Y0116893D02*
X0167306Y0116893D01*
X0167306Y0118491D02*
X0120634Y0118491D01*
X0119036Y0120090D02*
X0167306Y0120090D01*
X0167306Y0121688D02*
X0117437Y0121688D01*
X0110163Y0123287D02*
X0167437Y0123287D01*
X0167306Y0124885D02*
X0108390Y0124885D01*
X0114800Y0127800D02*
X0116800Y0129800D01*
X0116800Y0138800D01*
X0112241Y0143359D01*
X0100020Y0143359D01*
X0089976Y0139272D02*
X0089853Y0139272D01*
X0088255Y0140870D02*
X0167306Y0140870D01*
X0167306Y0142469D02*
X0086656Y0142469D01*
X0085058Y0144068D02*
X0167306Y0144068D01*
X0167306Y0145666D02*
X0083459Y0145666D01*
X0084900Y0134476D02*
X0085598Y0134476D01*
X0084900Y0132878D02*
X0087197Y0132878D01*
X0089115Y0135485D02*
X0067800Y0156800D01*
X0089115Y0135485D02*
X0100020Y0135485D01*
X0109839Y0131279D02*
X0167486Y0131279D01*
X0167306Y0129681D02*
X0082546Y0129681D01*
X0083906Y0131279D02*
X0090202Y0131279D01*
X0084144Y0128082D02*
X0167306Y0128082D01*
X0167306Y0126484D02*
X0084900Y0126484D01*
X0085236Y0124885D02*
X0091651Y0124885D01*
X0089878Y0123287D02*
X0088113Y0123287D01*
X0100020Y0127611D02*
X0100209Y0127800D01*
X0114800Y0127800D01*
X0147800Y0127800D01*
X0148800Y0126800D01*
X0167306Y0132878D02*
X0110294Y0132878D01*
X0110294Y0134476D02*
X0167306Y0134476D01*
X0167306Y0136075D02*
X0110294Y0136075D01*
X0110294Y0137673D02*
X0167306Y0137673D01*
X0167535Y0139272D02*
X0110065Y0139272D01*
X0123831Y0115294D02*
X0167388Y0115294D01*
X0167306Y0113696D02*
X0125430Y0113696D01*
X0127028Y0112097D02*
X0167306Y0112097D01*
X0167306Y0110499D02*
X0128627Y0110499D01*
X0130225Y0108900D02*
X0167306Y0108900D01*
X0167338Y0107302D02*
X0131000Y0107302D01*
X0131000Y0105703D02*
X0167306Y0105703D01*
X0167306Y0104105D02*
X0131000Y0104105D01*
X0131000Y0102506D02*
X0167306Y0102506D01*
X0167306Y0100908D02*
X0131000Y0100908D01*
X0131000Y0099309D02*
X0167306Y0099309D01*
X0167306Y0097711D02*
X0131000Y0097711D01*
X0131000Y0096112D02*
X0167306Y0096112D01*
X0167306Y0094514D02*
X0131000Y0094514D01*
X0127800Y0087800D02*
X0127800Y0106800D01*
X0137800Y0087800D02*
X0136824Y0086824D01*
X0136824Y0062700D01*
X0133674Y0062700D02*
X0133674Y0057926D01*
X0135800Y0054800D01*
X0130800Y0054800D02*
X0130524Y0055076D01*
X0130524Y0062700D01*
X0127375Y0062700D02*
X0127375Y0057375D01*
X0124800Y0054800D01*
X0124225Y0059225D02*
X0119800Y0055800D01*
X0124225Y0059225D02*
X0124225Y0062700D01*
X0113076Y0050524D02*
X0108900Y0050524D01*
X0108900Y0047375D02*
X0100769Y0047375D01*
X0099343Y0048800D01*
X0092257Y0056800D02*
X0092257Y0057800D01*
X0091028Y0059028D02*
X0091028Y0059304D01*
X0086800Y0059304D02*
X0085800Y0060304D01*
X0093367Y0064142D02*
X0061839Y0064142D01*
X0061839Y0065740D02*
X0091768Y0065740D01*
X0090170Y0067339D02*
X0061826Y0067339D01*
X0058639Y0066383D02*
X0058639Y0061639D01*
X0057800Y0060800D01*
X0055257Y0060800D01*
X0054800Y0060343D01*
X0059337Y0057748D02*
X0095369Y0057748D01*
X0095369Y0059346D02*
X0060872Y0059346D01*
X0061815Y0060945D02*
X0095743Y0060945D01*
X0094965Y0062543D02*
X0061839Y0062543D01*
X0050961Y0066383D02*
X0050961Y0070961D01*
X0051800Y0071800D01*
X0050961Y0089217D02*
X0050961Y0092961D01*
X0051800Y0093800D01*
X0057800Y0093800D01*
X0058639Y0092961D01*
X0058639Y0089217D01*
X0084847Y0071296D02*
X0085800Y0071343D01*
X0113076Y0050524D02*
X0115800Y0047800D01*
X0129800Y0036800D02*
X0127375Y0033375D01*
X0127375Y0028900D01*
X0127257Y0028782D01*
X0127257Y0019800D01*
X0126800Y0019343D01*
X0130524Y0023076D02*
X0135800Y0017800D01*
X0150800Y0017800D01*
X0152800Y0015800D01*
X0130524Y0023076D02*
X0130524Y0028900D01*
X0124225Y0028900D02*
X0124225Y0024225D01*
X0117800Y0015800D01*
X0099800Y0015800D01*
X0084974Y0012990D02*
X0074626Y0012990D01*
X0075200Y0014588D02*
X0084400Y0014588D01*
X0084400Y0016187D02*
X0075200Y0016187D01*
X0075200Y0017785D02*
X0084400Y0017785D01*
X0071216Y0005200D02*
X0071216Y0005200D01*
X0017931Y0046558D02*
X0016400Y0046558D01*
X0016400Y0048157D02*
X0017557Y0048157D01*
X0017557Y0049755D02*
X0016400Y0049755D01*
X0016400Y0051354D02*
X0017557Y0051354D01*
X0017557Y0052952D02*
X0016400Y0052952D01*
X0016400Y0054551D02*
X0017557Y0054551D01*
X0017557Y0056149D02*
X0016400Y0056149D01*
X0016400Y0057748D02*
X0017557Y0057748D01*
X0017557Y0059346D02*
X0016400Y0059346D01*
X0016400Y0060945D02*
X0017557Y0060945D01*
X0017557Y0062543D02*
X0016400Y0062543D01*
X0016400Y0064142D02*
X0017557Y0064142D01*
X0018675Y0065740D02*
X0016400Y0065740D01*
X0016400Y0067339D02*
X0020142Y0067339D01*
X0019734Y0068937D02*
X0016400Y0068937D01*
X0016400Y0070536D02*
X0019542Y0070536D01*
X0019542Y0072134D02*
X0016400Y0072134D01*
X0016400Y0073733D02*
X0019542Y0073733D01*
X0019542Y0075332D02*
X0016400Y0075332D01*
X0016400Y0076930D02*
X0019542Y0076930D01*
X0019542Y0078529D02*
X0016400Y0078529D01*
X0016400Y0080127D02*
X0019542Y0080127D01*
X0020304Y0081726D02*
X0016400Y0081726D01*
X0016400Y0083324D02*
X0020811Y0083324D01*
X0022266Y0084923D02*
X0016400Y0084923D01*
X0016400Y0086521D02*
X0020442Y0086521D01*
X0018844Y0088120D02*
X0016400Y0088120D01*
X0016400Y0089718D02*
X0018400Y0089718D01*
X0018400Y0091317D02*
X0016400Y0091317D01*
X0016400Y0092915D02*
X0018400Y0092915D01*
X0018900Y0094514D02*
X0016400Y0094514D01*
X0016400Y0096112D02*
X0018900Y0096112D01*
X0018900Y0097711D02*
X0016400Y0097711D01*
X0016400Y0099309D02*
X0018900Y0099309D01*
X0018900Y0100908D02*
X0016400Y0100908D01*
X0016400Y0102506D02*
X0018900Y0102506D01*
X0018900Y0104105D02*
X0016400Y0104105D01*
X0016400Y0105703D02*
X0018900Y0105703D01*
X0018900Y0107302D02*
X0016400Y0107302D01*
X0016400Y0108900D02*
X0018900Y0108900D01*
X0018900Y0110499D02*
X0016400Y0110499D01*
X0016400Y0112097D02*
X0018900Y0112097D01*
X0018900Y0113696D02*
X0016400Y0113696D01*
X0016400Y0115294D02*
X0018900Y0115294D01*
X0018900Y0116893D02*
X0016400Y0116893D01*
X0016400Y0118491D02*
X0018900Y0118491D01*
X0018900Y0120090D02*
X0016400Y0120090D01*
X0016400Y0121688D02*
X0018900Y0121688D01*
X0018900Y0123287D02*
X0016400Y0123287D01*
X0016400Y0124885D02*
X0018900Y0124885D01*
X0018900Y0126484D02*
X0016400Y0126484D01*
X0016400Y0128082D02*
X0018900Y0128082D01*
X0017925Y0129681D02*
X0016400Y0129681D01*
X0016873Y0131279D02*
X0017925Y0131279D01*
X0005797Y0150462D02*
X0005200Y0150462D01*
X0124276Y0084923D02*
X0124764Y0084923D01*
X0177265Y0095800D02*
X0177580Y0096115D01*
X0190485Y0096115D01*
X0190800Y0095800D01*
X0201000Y0099309D02*
X0201680Y0099309D01*
X0215795Y0059346D02*
X0238900Y0059346D01*
X0201800Y0052800D02*
X0201800Y0049800D01*
X0201800Y0052800D02*
X0198800Y0055800D01*
X0151682Y0044225D02*
X0142700Y0044225D01*
X0254242Y0017785D02*
X0256400Y0017785D01*
X0256400Y0150462D02*
X0255803Y0150462D01*
D31*
X0092257Y0057800D02*
X0091028Y0059028D01*
X0091028Y0059304D02*
X0086800Y0059304D01*
X0072800Y0059304D01*
X0063753Y0053257D01*
X0054800Y0053257D01*
X0052257Y0053257D01*
X0052257Y0052257D01*
X0034800Y0034800D01*
X0025800Y0034800D01*
X0051343Y0053257D02*
X0052257Y0053257D01*
X0023894Y0055800D02*
X0024304Y0074800D01*
X0024304Y0081304D01*
X0033800Y0090800D01*
X0066800Y0095800D02*
X0070800Y0091800D01*
X0070800Y0086800D01*
X0085800Y0064257D02*
X0085800Y0060304D01*
X0092257Y0056800D02*
X0092257Y0048800D01*
X0092257Y0041800D01*
X0092257Y0041257D01*
X0079800Y0026800D01*
X0079800Y0015800D01*
D32*
X0107800Y0028800D03*
X0120800Y0039800D03*
X0123800Y0035800D03*
X0129800Y0036800D03*
X0115800Y0040800D03*
X0115800Y0047800D03*
X0124800Y0054800D03*
X0119800Y0055800D03*
X0130800Y0054800D03*
X0135800Y0054800D03*
X0108800Y0068800D03*
X0112776Y0080824D03*
X0116926Y0087674D03*
X0127800Y0087800D03*
X0137800Y0087800D03*
X0116800Y0103800D03*
X0112800Y0111800D03*
X0143800Y0108800D03*
X0190800Y0095800D03*
X0183800Y0056800D03*
X0176800Y0037800D03*
X0157800Y0033800D03*
X0142800Y0028800D03*
X0066800Y0095800D03*
D33*
X0058639Y0092961D02*
X0058639Y0106639D01*
X0068800Y0114800D01*
X0068800Y0102257D01*
X0077257Y0097800D01*
X0077257Y0087257D01*
X0076800Y0086800D01*
X0076800Y0071296D01*
X0073800Y0071296D01*
X0072800Y0072296D01*
X0076800Y0071296D02*
X0084847Y0071296D01*
X0085800Y0071343D02*
X0086257Y0071800D01*
X0090800Y0071800D01*
X0099343Y0063257D01*
X0099343Y0056800D01*
X0102469Y0053674D01*
X0108900Y0053674D01*
X0108900Y0044225D02*
X0103225Y0044225D01*
X0100800Y0041800D01*
X0092257Y0041800D01*
X0107800Y0028800D02*
X0107900Y0028900D01*
X0114776Y0028900D01*
X0126800Y0012257D02*
X0126800Y0008800D01*
X0179800Y0008800D01*
X0182800Y0014800D01*
X0182800Y0015800D01*
X0182800Y0026800D01*
X0126800Y0008800D02*
X0071800Y0008800D01*
X0069800Y0012800D01*
X0069800Y0015800D01*
X0068800Y0018800D01*
X0023800Y0018800D01*
X0012800Y0029800D01*
X0012800Y0131800D01*
X0020800Y0142800D01*
X0059800Y0142800D01*
X0062800Y0131800D01*
X0062800Y0119800D01*
X0068800Y0114800D01*
X0045800Y0074800D02*
X0045800Y0058800D01*
X0051343Y0053257D01*
X0069800Y0026800D02*
X0069800Y0015800D01*
X0212800Y0063257D02*
X0241146Y0063257D01*
X0244800Y0059603D01*
X0212800Y0070343D02*
X0212800Y0089257D01*
X0212800Y0096343D02*
X0226454Y0109997D01*
X0244800Y0109997D01*
D34*
X0056080Y0089217D02*
X0056080Y0082080D01*
X0048800Y0074800D01*
X0045800Y0074800D01*
X0037296Y0074800D01*
X0031800Y0080800D02*
X0035520Y0084520D01*
X0053520Y0084520D01*
X0053520Y0089217D01*
X0031800Y0080800D02*
X0031800Y0059706D01*
X0035706Y0055800D01*
D35*
X0023800Y0090800D02*
X0023800Y0130800D01*
X0025800Y0132800D01*
M02*
